<svg version="1.1" xmlns="http://www.w3.org/2000/svg" xmlns:xlink="http://www.w3.org/1999/xlink" width="23.01648" height="37.71344" viewBox="0,0,23.01648,37.71344"><g transform="translate(-228.582,-160.99634)"><g data-paper-data="{&quot;isPaintingLayer&quot;:true}" fill-rule="nonzero" stroke-linejoin="miter" stroke-miterlimit="10" stroke-dasharray="" stroke-dashoffset="0" style="mix-blend-mode: normal"><path d="M251.00976,180.5352c0,0 -4.57751,4.95219 -9.99439,9.43877c-6.09669,5.04965 -12.09126,8.40016 -12.09126,8.40016c0,0 6.49518,-14.56352 8.44162,-19.6094c1.25395,-3.25069 2.74437,-6.70866 3.74739,-9.7815c1.29368,-3.96331 1.9404,-7.16304 1.9404,-7.16304c0,0 0.30345,0.06148 1.05186,0.79109c1.26658,1.23476 4.04063,3.84897 4.04063,3.84897l2.36966,8.61155l-5.31707,2.64341z" data-paper-data="{&quot;index&quot;:null}" fill="#0d1c55" stroke="none" stroke-width="0" stroke-linecap="butt"/><path d="M228.83879,198.41321c0,0 5.50725,-12.36448 8.51307,-19.99896c1.467,-3.72601 3.15266,-7.71091 4.27082,-11.06776c1.31521,-3.94844 1.50694,-5.80626 1.50694,-5.80626l4.93799,4.87335l2.59073,8.71057l-5.35135,2.63321l5.861,2.76061c0,0 -6.081,6.00076 -9.60401,9.11949c-3.30343,2.92434 -12.73198,8.82232 -12.73198,8.82232" data-paper-data="{&quot;index&quot;:null}" fill="none" stroke="#000d46" stroke-width="0.5" stroke-linecap="round"/></g></g></svg>