<svg version="1.1" xmlns="http://www.w3.org/2000/svg" xmlns:xlink="http://www.w3.org/1999/xlink" width="64.47358" height="54.87185" viewBox="0,0,64.47358,54.87185"><g transform="translate(-207.76321,-152.56407)"><g data-paper-data="{&quot;isPaintingLayer&quot;:true}" fill-rule="nonzero" stroke="none" stroke-width="1" stroke-linecap="butt" stroke-linejoin="miter" stroke-miterlimit="10" stroke-dasharray="" stroke-dashoffset="0" style="mix-blend-mode: normal"><path d="" fill="#848988"/><path d="" fill="#848988"/><path d="" fill="#848988"/><path d="" fill="#848988"/><path d="" fill="#848988"/><path d="" fill="#848988"/><path d="" fill="#848988"/><path d="" fill="#848988"/><path d="" fill="#6c787b"/><path d="" fill="#6c787b"/><path d="" fill="#6c787b"/><path d="" fill="#ccc8c5"/><path d="" fill="#ccc8c5"/><path d="" fill="#6c787b"/><path d="" fill="#ccc8c5"/><path d="" fill="#ccc8c5"/><path d="" fill="#ccc8c5"/><g><g><path d="M272.18598,205.03273c0,0 -1.02297,1.33654 -3.07819,1.77633c-3.45236,0.73877 -8.84023,1.17894 -11.77346,-1.18453c-4.63198,-3.73226 -7.97694,-8.25061 -9.29743,-8.77276l-0.10832,1.14714c0,0 -3.48759,-0.68953 -5.2019,-3.64819l-0.19008,-6.57121c-0.14673,-0.05802 31.12786,3.34017 29.64937,17.25323z" fill="#17110b"/><path d="M260.53366,185.33161c2.80548,4.95338 6.57161,9.28565 9.1938,11.4045c3.27833,2.47969 1.93333,6.7432 1.93333,6.7432c0,0 -0.58136,2.2537 -8.70833,1.88725c-8.12696,-0.36645 -11.12552,-9.67735 -15.0808,-11.01326c-7.37857,-2.49215 -4.43084,-8.33708 -4.42379,-12.75574c0.00733,-4.59541 -0.55283,-29.03349 -0.55283,-29.03349c10.4613,6.73306 18.96502,0.09235 18.96502,0.09235c0,0 -4.13188,27.7218 -1.3264,32.67519z" fill="#282828"/><path d="M271.59855,203.87112c0,0 0.28855,-4.5822 -0.52596,-5.38137c-1.18063,-1.15839 -2.62138,-2.4698 -3.55793,-3.44049c-1.3882,-1.29809 -5.25179,-6.28751 -6.93827,-9.12986c-0.9025,-1.52104 -1.26809,-2.99979 -1.3361,-3.90868c-0.25678,-3.43137 0.07389,-9.07645 0.23817,-10.84031c0.76126,-8.1737 2.23407,-18.18588 2.23407,-18.18588c0,0 -0.92523,9.38753 -1.66289,18.14756c-0.50926,6.04778 -0.35133,8.01687 -0.21368,10.72255c0.11005,2.16324 0.90751,3.31482 1.05001,3.60375c0.94368,1.63329 3.77702,5.75134 6.72464,8.67889c1.22901,1.22064 3.41726,3.31595 4.15527,5.65867c0.56071,1.77988 -0.16733,4.07517 -0.16733,4.07517z" fill="#241b10"/><path d="M261.82392,152.88432c0,0 -3.19628,2.93542 -9.14242,2.74848c-7.061,-0.22198 -9.67021,-2.99298 -9.67021,-2.99298c0,0 5.35383,1.7836 10.11488,1.73453c5.11283,-0.0527 8.69775,-1.49003 8.69775,-1.49003z" fill="#241b10"/><path d="M242.94219,155.63613c0,0 0.15479,2.47417 0.31225,6.3623c0.00367,1.94421 0.15812,4.24163 0.31258,6.53905c0.00466,2.47445 0.15946,4.94862 0.16446,7.59981c0.00233,1.23722 0.005,2.6512 0.00733,3.88842c0.00233,1.23722 -0.14512,2.65147 -0.29324,3.71224c-0.29591,2.29827 -0.59182,4.59654 0.01201,6.36287c0.14733,0.43097 1.1399,1.92045 2.168,2.59187c1.07871,0.70448 2.1481,1.01613 2.1481,1.01613c0,0 -1.25187,-0.00069 -1.71206,-0.13368c-0.70235,-0.20297 -2.60137,-2.06035 -3.0534,-2.94324c-0.75429,-1.9428 -0.60849,-4.24078 -0.31292,-6.71579c0.1478,-1.23751 0.29591,-2.29827 0.29324,-3.71224c-0.00233,-1.23722 -0.00467,-2.47445 -0.00733,-3.88842c-0.00501,-2.65119 -0.00968,-5.12564 -0.01434,-7.60009c-0.00466,-2.47445 -0.00867,-4.59541 -0.01234,-6.53962c-0.00734,-3.88842 -0.01234,-6.53961 -0.01234,-6.53961z" fill="#241b10"/><path d="M265.53746,193.00411c-0.40594,0.22432 -1.01485,0.56079 -1.5612,0.73197c-0.60891,0.33647 -1.15525,0.50765 -1.56119,0.73197c-0.40594,0.22432 -0.74932,0.28333 -0.74932,0.28333c0,0 0.26553,-0.27746 0.59364,-0.72022c0.32811,-0.44277 0.93702,-0.77924 1.54593,-1.11571c0.60891,-0.33647 1.29566,-0.4545 1.77943,-0.46037c0.48378,-0.00587 0.35864,0.32473 -0.0473,0.54904z" fill="#241b10"/><path d="M261.1545,187.46075c-0.40594,0.22432 -1.09269,0.34236 -1.70159,0.67883c-0.54635,0.17117 -1.15526,0.50765 -1.7016,0.67882c-0.20297,0.11216 -0.74931,0.28333 -0.74931,0.28333c0,0 0.12514,-0.3306 0.59365,-0.72022c0.32811,-0.44277 0.99958,-0.94453 1.60849,-1.281c0.60891,-0.33647 1.43606,-0.40136 1.85727,-0.24194c0.5616,0.21257 0.49904,0.37787 0.0931,0.60219z" fill="#241b10"/><path d="M259.79974,183.31803c0,0 -0.33424,0.09834 -0.66848,0.19666c-0.14561,-0.03655 -1.14834,0.25846 -1.48258,0.35679c-0.47984,0.06178 -2.10803,0.38202 -2.10803,0.38202c0,0 0.23167,-0.3063 0.60894,-0.57607c0.18864,-0.13488 0.37727,-0.26976 0.75454,-0.53952c0.33424,-0.09833 0.52289,-0.23323 0.85712,-0.33156c0.66849,-0.19667 1.25091,-0.05047 1.68773,0.05918c0.10258,0.20798 0.35076,0.4525 0.35076,0.4525z" fill="#241b10"/><path d="M256.24594,165.61607c-0.45036,-0.00153 -0.75061,-0.00255 -0.75061,-0.00255c0,0 0.30144,-0.35248 0.75241,-0.52769c0.15073,-0.17624 0.45157,-0.35195 0.75181,-0.35093c0.30085,-0.17572 0.75121,-0.17419 1.05146,-0.17318c0.45036,0.00153 0.75061,0.00255 1.05026,0.18032c0.30024,0.00102 0.59989,0.17879 0.74941,0.35604c0.44916,0.35502 0.59808,0.70902 0.59808,0.70902c0,0 -3.90259,-0.19002 -4.20283,-0.19104z" data-paper-data="{&quot;index&quot;:null}" fill="#241b10"/><path d="M249.91886,193.30646c0,0 -0.15179,-0.88344 -0.4547,-2.29685c-0.30291,-1.41341 -0.75662,-3.18002 -1.51023,-4.76932c-0.15079,-0.35321 -0.45171,-0.70613 -0.6025,-1.05935c-0.30091,-0.35293 -0.45171,-0.70614 -0.75262,-1.05906c-0.30091,-0.35293 -0.45137,-0.52939 -0.75228,-0.88232c-0.30058,-0.17618 -0.45137,-0.52939 -0.75195,-0.70557c-0.30058,-0.17618 -0.45104,-0.35264 -0.75162,-0.52882c-0.15046,-0.17647 -0.45069,-0.17589 -0.60116,-0.35236c-0.30058,-0.17618 -0.4507,-0.1759 -0.4507,-0.1759c0,0 0.15012,-0.00028 0.60049,-0.00113c0.30024,-0.00056 0.90107,0.17504 1.50189,0.35065c0.30058,0.17618 0.60116,0.35237 0.90174,0.52855c0.30058,0.17618 0.60149,0.52911 0.90207,0.70529c0.60149,0.52911 1.05353,1.41199 1.50556,2.29487c0.15112,0.52996 0.45204,0.88288 0.45304,1.41312c0.15113,0.52996 0.30191,0.88316 0.30291,1.4134c0.15179,0.88345 0.30358,1.7669 0.30492,2.47388c0.30358,1.7669 0.15512,2.65091 0.15512,2.65091z" fill="#241b10"/><path d="M263.51421,190.08692c-0.40594,0.22432 -1.09268,0.34236 -1.70159,0.67883c-0.54635,0.17117 -2.45091,0.96215 -2.45091,0.96215c0,0 0.12514,-0.3306 0.59364,-0.72022c0.32811,-0.44277 0.99959,-0.94454 1.6085,-1.28101c0.60891,-0.33647 1.43607,-0.40136 1.85727,-0.24194c0.5616,0.21257 0.49904,0.37787 0.0931,0.60219z" fill="#241b10"/><path d="M259.47459,179.94998c0,0 -3.37632,0.38165 -3.72042,0.43626c-0.20439,0.10955 -0.62351,-0.05526 -0.62351,-0.05526c0,0 0.26907,-0.27403 0.67784,-0.49313c0.20439,-0.10955 0.40877,-0.21911 0.81755,-0.43821c0.34409,-0.05462 0.5485,-0.16417 0.89259,-0.21878c0.6882,-0.10924 1.24704,0.11052 1.66617,0.27533c0.07504,0.21943 0.28977,0.49378 0.28977,0.49378z" fill="#241b10"/><path d="M255.8698,170.449c-0.45037,-0.00153 -0.75061,-0.00255 -0.75061,-0.00255c0,0 0.30144,-0.35247 0.75241,-0.52769c0.15073,-0.17624 0.45157,-0.35195 0.75182,-0.35093c0.30084,-0.17572 0.75122,-0.17419 1.05146,-0.17318c0.45037,0.00153 0.75062,0.00255 1.05025,0.18032c0.30025,0.00102 0.59989,0.1788 0.74941,0.35605c0.44916,0.35502 0.59809,0.70902 0.59809,0.70902c0,0 -3.90258,-0.19002 -4.20283,-0.19103z" data-paper-data="{&quot;index&quot;:null}" fill="#241b10"/><path d="M264.12544,190.59082c-0.16535,0.43332 -0.61378,0.96666 -0.8618,1.61664c-0.30689,0.48333 -0.55492,1.1333 -0.86182,1.61663c-0.08267,0.21666 -0.38956,0.69998 -0.38956,0.69998c0,0 -0.11775,-0.3333 -0.01129,-0.93327c-0.03508,-0.54996 0.15406,-1.36659 0.40208,-2.01657c0.24802,-0.64998 0.83801,-1.23334 1.26267,-1.38336c0.56619,-0.20004 0.62507,-0.03338 0.45972,0.39994z" fill="#241b10"/><path d="M261.58488,187.69704c-0.16535,0.43332 -0.61378,0.96666 -0.8618,1.61664c-0.30689,0.48333 -1.25137,2.31663 -1.25137,2.31663c0,0 -0.11775,-0.3333 -0.01129,-0.93328c-0.03508,-0.54996 0.15406,-1.36659 0.40208,-2.01657c0.24802,-0.64998 0.83801,-1.23334 1.26266,-1.38336c0.56619,-0.20004 0.62507,-0.03338 0.45972,0.39994z" fill="#241b10"/><path d="M259.69813,183.17794c0,0 -0.21459,0.33965 -0.33592,0.8605c-0.12133,0.52085 -0.5505,1.20015 -0.7325,1.98143c-0.27525,0.60007 -0.45727,1.38136 -0.73252,1.98143c-0.06068,0.26043 -0.12132,0.52086 -0.27525,0.60007c-0.06068,0.26043 -0.06066,0.26042 -0.06066,0.26042c0,0 -0.18651,-0.36244 -0.15844,-1.06452c-0.12584,-0.62288 0.08339,-1.48535 0.2654,-2.26663c0.182,-0.78129 0.66278,-1.56366 1.12456,-1.80129c0.61569,-0.31684 0.90534,-0.55142 0.90534,-0.55142z" fill="#241b10"/><path d="M259.06948,179.98655c0,0 -0.26732,0.22345 -0.50575,0.62126c-0.23843,0.39781 -0.77306,0.84472 -1.1307,1.44145c-0.38653,0.42236 -0.74418,1.01907 -1.13071,1.44144c-0.11922,0.19891 -0.50573,0.62126 -0.50573,0.62126c0,0 -0.05778,-0.34874 0.15175,-0.92093c0.06143,-0.54765 0.39018,-1.31874 0.74782,-1.91546c0.35764,-0.59672 1.04039,-1.06817 1.4847,-1.14179c0.59241,-0.09816 0.88862,-0.14723 0.88862,-0.14723z" fill="#241b10"/><path d="M259.42632,175.1261c0,0 -0.29771,0.26096 -0.55793,0.71923c-0.26022,0.45826 -0.85563,0.98019 -1.24598,1.66759c-0.42782,0.49009 -0.81818,1.17748 -1.24599,1.66757c-0.13012,0.22913 -0.55792,0.71923 -0.55792,0.71923c0,0 -0.07495,-0.39462 0.14781,-1.05019c0.05518,-0.62375 0.40805,-1.50844 0.7984,-2.19585c0.39035,-0.6874 1.15335,-1.24117 1.65611,-1.33664c0.67034,-0.1273 1.00551,-0.19095 1.00551,-0.19095z" fill="#241b10"/><path d="M259.92154,170.61176c0,0 -0.33799,0.20123 -0.67499,0.60199c-0.337,0.40076 -1.01297,0.80322 -1.51848,1.40436c-0.50648,0.40161 -1.01199,1.00273 -1.51848,1.40434c-0.16851,0.20038 -0.67498,0.60199 -0.67498,0.60199c0,0 -0.00197,-0.39909 0.33404,-0.99939c0.16654,-0.59947 0.67103,-1.40016 1.17654,-2.0013c0.5055,-0.60114 1.35098,-1.00444 1.85944,-1.00694c0.67794,-0.00335 1.01691,-0.00503 1.01691,-0.00503z" fill="#241b10"/><path d="M260.30233,165.7861c0,0 -0.338,0.20123 -0.67499,0.60199c-0.337,0.40076 -1.01297,0.80322 -1.51847,1.40436c-0.50648,0.40161 -1.012,1.00273 -1.51848,1.40434c-0.16851,0.20038 -0.67498,0.60198 -0.67498,0.60198c0,0 -0.00197,-0.39909 0.33404,-0.9994c0.16654,-0.59947 0.67104,-1.40015 1.17654,-2.0013c0.50551,-0.60114 1.35097,-1.00444 1.85943,-1.00694c0.67795,-0.00335 1.01692,-0.00503 1.01692,-0.00503z" fill="#241b10"/><path d="M260.81465,161.46415c0,0 -0.33799,0.20122 -0.67499,0.60198c-0.337,0.40076 -1.01297,0.80322 -1.51847,1.40436c-0.50648,0.40161 -1.012,1.00273 -1.51848,1.40434c-0.16851,0.20038 -0.67498,0.60199 -0.67498,0.60199c0,0 -0.00197,-0.39909 0.33404,-0.99939c0.16654,-0.59947 0.67104,-1.40016 1.17654,-2.0013c0.50551,-0.60114 1.35097,-1.00444 1.85943,-1.00694c0.67795,-0.00335 1.01692,-0.00502 1.01692,-0.00502z" fill="#241b10"/><path d="M258.8119,175.43697c-0.44976,-0.17827 -1.05026,-0.18032 -1.65074,-0.18236c-0.30024,-0.00102 -0.6005,-0.00204 -0.90074,-0.00306c-0.30025,-0.00102 -0.45037,-0.00154 -0.75061,-0.00256c-0.45037,-0.00153 -0.75061,-0.00255 -0.75061,-0.00255c0,0 0.30144,-0.35247 0.75241,-0.52769c0.15072,-0.17624 0.45157,-0.35195 0.75181,-0.35093c0.30085,-0.17572 0.75122,-0.17419 1.05146,-0.17318c0.45037,0.00153 0.75062,0.00255 1.05025,0.18032c0.30025,0.00102 0.59988,0.1788 0.74941,0.35605c0.44916,0.35502 0.59809,0.70902 0.59809,0.70902c0,0 -0.30025,-0.00102 -0.90074,-0.00306z" data-paper-data="{&quot;index&quot;:null}" fill="#241b10"/></g><g data-paper-data="{&quot;index&quot;:null}"><path d="M207.81403,205.0712c-1.47849,-13.91306 29.7961,-17.31125 29.64937,-17.25323l-0.19008,6.57121c-1.71431,2.95866 -5.2019,3.64819 -5.2019,3.64819l-0.10832,-1.14714c-1.32049,0.52215 -4.66545,5.0405 -9.29743,8.77276c-2.93323,2.36347 -8.3211,1.9233 -11.77346,1.18453c-2.05522,-0.43979 -3.07819,-1.77633 -3.07819,-1.77633z" fill="#17110b"/><path d="M218.13994,152.69488c0,0 8.50372,6.64071 18.96502,-0.09235c0,0 -0.56016,24.43808 -0.55283,29.03349c0.00705,4.41866 2.95478,10.26359 -4.42379,12.75574c-3.95528,1.33591 -6.95384,10.64681 -15.0808,11.01326c-8.12697,0.36645 -8.70833,-1.88725 -8.70833,-1.88725c0,0 -1.345,-4.26351 1.93333,-6.7432c2.62219,-2.11885 6.38832,-6.45112 9.1938,-11.4045c2.80548,-4.95339 -1.3264,-32.67519 -1.3264,-32.67519z" fill="#282828"/><path d="M208.23412,199.83441c0.73801,-2.34272 2.92626,-4.43803 4.15527,-5.65867c2.94762,-2.92755 5.78096,-7.0456 6.72464,-8.67889c0.1425,-0.28893 0.93996,-1.44051 1.05001,-3.60375c0.13765,-2.70568 0.29558,-4.67477 -0.21368,-10.72255c-0.73766,-8.76003 -1.66289,-18.14756 -1.66289,-18.14756c0,0 1.47281,10.01218 2.23407,18.18588c0.16428,1.76386 0.49495,7.40894 0.23817,10.84031c-0.06801,0.90889 -0.4336,2.38764 -1.3361,3.90868c-1.68648,2.84235 -5.55007,7.83177 -6.93827,9.12986c-0.93655,0.97069 -2.3773,2.2821 -3.55793,3.44049c-0.81451,0.79917 -0.52596,5.38137 -0.52596,5.38137c0,0 -0.72804,-2.29529 -0.16733,-4.07517z" fill="#241b10"/><path d="M226.87383,154.41281c4.76105,0.04907 10.11488,-1.73453 10.11488,-1.73453c0,0 -2.60921,2.771 -9.67021,2.99298c-5.94614,0.18694 -9.14242,-2.74848 -9.14242,-2.74848c0,0 3.58492,1.43733 8.69775,1.49003z" fill="#241b10"/><path d="M237.04547,162.2142c-0.00367,1.94421 -0.00768,4.06517 -0.01234,6.53962c-0.00466,2.47445 -0.00933,4.9489 -0.01434,7.60009c-0.00266,1.41397 -0.005,2.6512 -0.00733,3.88842c-0.00267,1.41397 0.14544,2.47473 0.29324,3.71224c0.29557,2.47501 0.44137,4.77299 -0.31292,6.71579c-0.45203,0.88289 -2.35105,2.74027 -3.0534,2.94324c-0.46019,0.13299 -1.71206,0.13368 -1.71206,0.13368c0,0 1.06939,-0.31165 2.1481,-1.01613c1.0281,-0.67142 2.02067,-2.1609 2.168,-2.59187c0.60383,-1.76633 0.30792,-4.0646 0.01201,-6.36287c-0.14812,-1.06077 -0.29557,-2.47502 -0.29324,-3.71224c0.00233,-1.23722 0.005,-2.6512 0.00733,-3.88842c0.005,-2.65119 0.1598,-5.12536 0.16446,-7.59981c0.15446,-2.29742 0.30891,-4.59484 0.31258,-6.53905c0.15746,-3.88813 0.31225,-6.3623 0.31225,-6.3623c0,0 -0.005,2.65119 -0.01234,6.53961z" fill="#241b10"/><path d="M214.46255,193.04258c-0.40594,-0.22431 -0.53108,-0.55491 -0.0473,-0.54904c0.48377,0.00587 1.17052,0.1239 1.77943,0.46037c0.60891,0.33647 1.21782,0.67294 1.54593,1.11571c0.32811,0.44276 0.59364,0.72022 0.59364,0.72022c0,0 -0.34338,-0.05901 -0.74932,-0.28333c-0.40594,-0.22432 -0.95228,-0.3955 -1.56119,-0.73197c-0.54635,-0.17118 -1.15526,-0.50765 -1.5612,-0.73197z" fill="#241b10"/><path d="M218.84549,187.49922c-0.40594,-0.22432 -0.4685,-0.38962 0.0931,-0.60219c0.42121,-0.15942 1.24836,-0.09453 1.85727,0.24194c0.60891,0.33647 1.28038,0.83823 1.60849,1.281c0.46851,0.38962 0.59365,0.72022 0.59365,0.72022c0,0 -0.54634,-0.17117 -0.74931,-0.28333c-0.54634,-0.17117 -1.15525,-0.50765 -1.7016,-0.67882c-0.6089,-0.33647 -1.29565,-0.45451 -1.70159,-0.67883z" fill="#241b10"/><path d="M220.55102,182.90399c0.43682,-0.10965 1.01924,-0.25585 1.68773,-0.05918c0.33423,0.09833 0.52288,0.23323 0.85712,0.33156c0.37727,0.26976 0.5659,0.40464 0.75454,0.53952c0.37727,0.26977 0.60894,0.57607 0.60894,0.57607c0,0 -1.62819,-0.32024 -2.10803,-0.38202c-0.33424,-0.09833 -1.33697,-0.39334 -1.48258,-0.35679c-0.33424,-0.09832 -0.66848,-0.19666 -0.66848,-0.19666c0,0 0.24818,-0.24452 0.35076,-0.4525z" fill="#241b10"/><path d="M223.75407,165.65452c-0.30024,0.00102 -4.20283,0.19104 -4.20283,0.19104c0,0 0.14892,-0.354 0.59808,-0.70902c0.14952,-0.17725 0.44917,-0.35502 0.74941,-0.35604c0.29965,-0.17777 0.5999,-0.17879 1.05026,-0.18032c0.30025,-0.00101 0.75061,-0.00254 1.05146,0.17318c0.30024,-0.00102 0.60108,0.17469 0.75181,0.35093c0.45097,0.17521 0.75241,0.52769 0.75241,0.52769c0,0 -0.30025,0.00102 -0.75061,0.00255z" data-paper-data="{&quot;index&quot;:null}" fill="#241b10"/><path d="M230.08116,193.34491c0,0 -0.14846,-0.88401 0.15512,-2.65091c0.00134,-0.70698 0.15313,-1.59043 0.30492,-2.47388c0.001,-0.53024 0.15178,-0.88344 0.30291,-1.4134c0.001,-0.53024 0.30192,-0.88316 0.45304,-1.41312c0.45203,-0.88288 0.90407,-1.76576 1.50556,-2.29487c0.30058,-0.17618 0.60149,-0.52911 0.90207,-0.70529c0.30058,-0.17618 0.60116,-0.35237 0.90174,-0.52855c0.60082,-0.17561 1.20165,-0.35121 1.50189,-0.35065c0.45037,0.00085 0.60049,0.00113 0.60049,0.00113c0,0 -0.15012,-0.00028 -0.4507,0.1759c-0.15047,0.17647 -0.4507,0.17589 -0.60116,0.35236c-0.30058,0.17618 -0.45104,0.35264 -0.75162,0.52882c-0.30058,0.17618 -0.45137,0.52939 -0.75195,0.70557c-0.30091,0.35293 -0.45137,0.52939 -0.75228,0.88232c-0.30091,0.35292 -0.45171,0.70613 -0.75262,1.05906c-0.15079,0.35322 -0.45171,0.70614 -0.6025,1.05935c-0.75361,1.5893 -1.20732,3.35591 -1.51023,4.76932c-0.30291,1.41341 -0.4547,2.29685 -0.4547,2.29685z" fill="#241b10"/><path d="M216.48578,190.12538c-0.40594,-0.22432 -0.4685,-0.38962 0.0931,-0.60219c0.4212,-0.15942 1.24836,-0.09453 1.85727,0.24194c0.60891,0.33647 1.28039,0.83824 1.6085,1.28101c0.4685,0.38962 0.59364,0.72022 0.59364,0.72022c0,0 -1.90456,-0.79098 -2.45091,-0.96215c-0.60891,-0.33647 -1.29565,-0.45451 -1.70159,-0.67883z" fill="#241b10"/><path d="M220.52542,179.98843c0,0 0.21473,-0.27435 0.28977,-0.49378c0.41913,-0.16481 0.97797,-0.38457 1.66617,-0.27533c0.34409,0.05461 0.5485,0.16416 0.89259,0.21878c0.40878,0.2191 0.61316,0.32866 0.81755,0.43821c0.40877,0.2191 0.67784,0.49313 0.67784,0.49313c0,0 -0.41912,0.16481 -0.62351,0.05526c-0.3441,-0.05461 -3.72042,-0.43626 -3.72042,-0.43626z" fill="#241b10"/><path d="M224.1302,170.48747c-0.30025,0.00101 -4.20283,0.19103 -4.20283,0.19103c0,0 0.14893,-0.354 0.59809,-0.70902c0.14952,-0.17725 0.44916,-0.35503 0.74941,-0.35605c0.29963,-0.17777 0.59988,-0.17879 1.05025,-0.18032c0.30024,-0.00101 0.75062,-0.00254 1.05146,0.17318c0.30025,-0.00102 0.60109,0.17469 0.75182,0.35093c0.45097,0.17522 0.75241,0.52769 0.75241,0.52769c0,0 -0.30024,0.00102 -0.75061,0.00255z" data-paper-data="{&quot;index&quot;:null}" fill="#241b10"/><path d="M215.87456,190.62927c-0.16535,-0.43332 -0.10647,-0.59998 0.45972,-0.39994c0.42466,0.15002 1.01465,0.73338 1.26267,1.38336c0.24802,0.64998 0.43716,1.46661 0.40208,2.01657c0.10646,0.59997 -0.01129,0.93327 -0.01129,0.93327c0,0 -0.30689,-0.48332 -0.38956,-0.69998c-0.3069,-0.48333 -0.55493,-1.1333 -0.86182,-1.61663c-0.24802,-0.64998 -0.69645,-1.18332 -0.8618,-1.61664z" fill="#241b10"/><path d="M218.87484,187.33556c0.42465,0.15002 1.01464,0.73338 1.26266,1.38336c0.24802,0.64998 0.43716,1.46661 0.40208,2.01657c0.10646,0.59998 -0.01129,0.93328 -0.01129,0.93328c0,0 -0.94448,-1.8333 -1.25137,-2.31663c-0.24802,-0.64998 -0.69645,-1.18332 -0.8618,-1.61664c-0.16535,-0.43332 -0.10647,-0.59998 0.45972,-0.39994z" fill="#241b10"/><path d="M220.30186,183.21639c0,0 0.28965,0.23458 0.90534,0.55142c0.46178,0.23763 0.94256,1.02 1.12456,1.80129c0.18201,0.78128 0.39124,1.64375 0.2654,2.26663c0.02807,0.70208 -0.15844,1.06452 -0.15844,1.06452c0,0 0.00002,0.00001 -0.06066,-0.26042c-0.15393,-0.07921 -0.21457,-0.33964 -0.27525,-0.60007c-0.27525,-0.60007 -0.45727,-1.38136 -0.73252,-1.98143c-0.182,-0.78128 -0.61117,-1.46058 -0.7325,-1.98143c-0.12133,-0.52085 -0.33592,-0.8605 -0.33592,-0.8605z" fill="#241b10"/><path d="M221.81914,180.17224c0.44431,0.07362 1.12706,0.54507 1.4847,1.14179c0.35764,0.59672 0.68639,1.36781 0.74782,1.91546c0.20953,0.57219 0.15175,0.92093 0.15175,0.92093c0,0 -0.38651,-0.42235 -0.50573,-0.62126c-0.38653,-0.42237 -0.74418,-1.01908 -1.13071,-1.44144c-0.35764,-0.59673 -0.89227,-1.04364 -1.1307,-1.44145c-0.23843,-0.39781 -0.50575,-0.62126 -0.50575,-0.62126c0,0 0.29621,0.04907 0.88862,0.14723z" fill="#241b10"/><path d="M220.57367,175.16455c0,0 0.33517,0.06365 1.00551,0.19095c0.50276,0.09547 1.26576,0.64924 1.65611,1.33664c0.39035,0.68741 0.74322,1.5721 0.7984,2.19585c0.22276,0.65557 0.14781,1.05019 0.14781,1.05019c0,0 -0.4278,-0.4901 -0.55792,-0.71923c-0.42781,-0.49009 -0.81817,-1.17748 -1.24599,-1.66757c-0.39035,-0.6874 -0.98576,-1.20933 -1.24598,-1.66759c-0.26022,-0.45827 -0.55793,-0.71923 -0.55793,-0.71923z" fill="#241b10"/><path d="M220.07846,170.65024c0,0 0.33897,0.00168 1.01691,0.00503c0.50846,0.0025 1.35394,0.4058 1.85944,1.00694c0.50551,0.60114 1.01,1.40183 1.17654,2.0013c0.33601,0.6003 0.33404,0.99939 0.33404,0.99939c0,0 -0.50647,-0.40161 -0.67498,-0.60199c-0.50649,-0.40161 -1.012,-1.00273 -1.51848,-1.40434c-0.50551,-0.60114 -1.18148,-1.0036 -1.51848,-1.40436c-0.337,-0.40076 -0.67499,-0.60199 -0.67499,-0.60199z" fill="#241b10"/><path d="M219.69766,165.82456c0,0 0.33897,0.00168 1.01692,0.00503c0.50846,0.0025 1.35392,0.4058 1.85943,1.00694c0.5055,0.60115 1.01,1.40183 1.17654,2.0013c0.33601,0.60031 0.33404,0.9994 0.33404,0.9994c0,0 -0.50647,-0.4016 -0.67498,-0.60198c-0.50648,-0.40161 -1.012,-1.00273 -1.51848,-1.40434c-0.5055,-0.60114 -1.18147,-1.0036 -1.51847,-1.40436c-0.33699,-0.40076 -0.67499,-0.60199 -0.67499,-0.60199z" fill="#241b10"/><path d="M219.18534,161.50263c0,0 0.33897,0.00167 1.01692,0.00502c0.50846,0.0025 1.35392,0.4058 1.85943,1.00694c0.5055,0.60114 1.01,1.40183 1.17654,2.0013c0.33601,0.6003 0.33404,0.99939 0.33404,0.99939c0,0 -0.50647,-0.40161 -0.67498,-0.60199c-0.50648,-0.40161 -1.012,-1.00273 -1.51848,-1.40434c-0.5055,-0.60114 -1.18147,-1.0036 -1.51847,-1.40436c-0.337,-0.40076 -0.67499,-0.60198 -0.67499,-0.60198z" fill="#241b10"/><path d="M221.18811,175.47543c-0.60049,0.00204 -0.90074,0.00306 -0.90074,0.00306c0,0 0.14893,-0.354 0.59809,-0.70902c0.14953,-0.17725 0.44916,-0.35503 0.74941,-0.35605c0.29963,-0.17777 0.59988,-0.17879 1.05025,-0.18032c0.30024,-0.00101 0.75061,-0.00254 1.05146,0.17318c0.30024,-0.00102 0.60109,0.17469 0.75181,0.35093c0.45097,0.17522 0.75241,0.52769 0.75241,0.52769c0,0 -0.30024,0.00102 -0.75061,0.00255c-0.30024,0.00102 -0.45036,0.00154 -0.75061,0.00256c-0.30024,0.00102 -0.6005,0.00204 -0.90074,0.00306c-0.60048,0.00204 -1.20098,0.00409 -1.65074,0.18236z" data-paper-data="{&quot;index&quot;:null}" fill="#241b10"/></g></g></g></g></svg>