<svg version="1.1" xmlns="http://www.w3.org/2000/svg" xmlns:xlink="http://www.w3.org/1999/xlink" width="56.86527" height="132.21152" viewBox="0,0,56.86527,132.21152"><g transform="translate(-211.94155,-103.25628)"><g data-paper-data="{&quot;isPaintingLayer&quot;:true}" fill-rule="nonzero" stroke-linejoin="miter" stroke-miterlimit="10" stroke-dasharray="" stroke-dashoffset="0" style="mix-blend-mode: normal"><path d="" fill="#848988" stroke="none" stroke-width="1" stroke-linecap="butt"/><path d="" fill="#848988" stroke="none" stroke-width="1" stroke-linecap="butt"/><path d="" fill="#848988" stroke="none" stroke-width="1" stroke-linecap="butt"/><path d="" fill="#848988" stroke="none" stroke-width="1" stroke-linecap="butt"/><path d="" fill="#848988" stroke="none" stroke-width="1" stroke-linecap="butt"/><path d="" fill="#848988" stroke="none" stroke-width="1" stroke-linecap="butt"/><path d="" fill="#848988" stroke="none" stroke-width="1" stroke-linecap="butt"/><path d="" fill="#848988" stroke="none" stroke-width="1" stroke-linecap="butt"/><path d="" fill="#6c787b" stroke="none" stroke-width="1" stroke-linecap="butt"/><path d="" fill="#6c787b" stroke="none" stroke-width="1" stroke-linecap="butt"/><path d="" fill="#6c787b" stroke="none" stroke-width="1" stroke-linecap="butt"/><path d="" fill="#ccc8c5" stroke="none" stroke-width="1" stroke-linecap="butt"/><path d="" fill="#ccc8c5" stroke="none" stroke-width="1" stroke-linecap="butt"/><path d="" fill="#6c787b" stroke="none" stroke-width="1" stroke-linecap="butt"/><path d="" fill="#ccc8c5" stroke="none" stroke-width="1" stroke-linecap="butt"/><path d="" fill="#ccc8c5" stroke="none" stroke-width="1" stroke-linecap="butt"/><path d="" fill="#ccc8c5" stroke="none" stroke-width="1" stroke-linecap="butt"/><path d="M236.38601,234.31329c-2.25706,0.47151 -5.06905,0.61895 -8.44304,0.84846c-3.52185,0.23956 -7.10787,-0.5054 -9.22102,-1.22433c-1.20577,-0.41022 -2.27193,-0.48985 -2.29837,-1.08706c-0.04061,-0.91729 0.23317,-2.38886 0.18352,-3.51029c-0.45376,-10.24946 -2.0695,-46.74555 -2.0695,-46.74555c0,0 -0.6269,-3.4831 -0.78444,-6.84567c-0.19539,-4.17054 -0.29896,-16.27969 -0.29896,-16.27969l-1.26261,-29.8659c0,0 0.04222,-6.89408 0.2523,-10.09788c0.24471,-3.732 1.12798,-10.95226 1.12798,-10.95226l20.51877,0.46987l0.34784,32.58401l5.88343,1.74983c0,0 -0.54902,59.67748 -0.76926,83.61662c-0.01567,1.70302 0.48096,3.48049 0.46894,4.78743c-0.01902,2.06789 -2.09014,2.22957 -3.63557,2.55241z" data-paper-data="{&quot;index&quot;:null}" fill="#091647" stroke="#061031" stroke-width="0.5" stroke-linecap="butt"/><path d="M240.7268,231.77119c-0.01202,-1.30694 0.48461,-3.08441 0.46894,-4.78743c-0.22024,-23.93913 -0.76926,-83.61662 -0.76926,-83.61662l-5.95292,-1.69698l-0.37477,-32.63686l33.07772,-0.46987c0,0 0.88327,7.22026 1.12798,10.95226c0.21008,3.2038 0.2523,10.09788 0.2523,10.09788c0,0 -0.57435,12.97336 -1.32497,29.92834c-0.18397,4.15535 -0.0209,10.87436 -0.22018,15.37565c-0.26597,8.26216 -0.80327,7.92061 -0.80327,7.92061c0,0 -1.61378,36.27301 -2.06709,46.51221c-0.04965,1.12143 0.22413,2.59299 0.18352,3.51029c-0.02644,0.59722 -1.0926,0.67684 -2.29836,1.08706c-2.11316,0.71893 -5.69917,1.4639 -9.22102,1.22433c-3.37399,-0.22951 -6.18599,-0.37696 -8.44304,-0.84846c-1.54543,-0.32285 -3.61655,-0.48452 -3.63557,-2.55241z" data-paper-data="{&quot;index&quot;:null}" fill="#091647" stroke="#061031" stroke-width="0.5" stroke-linecap="butt"/><path d="M239.04784,105.11883l-0.43104,6.29591c-0.03296,0.48099 -0.19173,0.86712 -0.35423,0.86083c0,0 -1.34913,-0.05226 -2.0373,-0.07892c-0.70681,-0.02738 -2.14915,-0.08325 -2.14915,-0.08325c-0.16235,-0.00629 -0.26769,-0.40265 -0.23479,-0.88365l0.43101,-6.29608c0.03296,-0.48099 0.19184,-0.86712 0.35419,-0.86083l4.1865,0.16217c0.16245,0.00629 0.26771,0.40282 0.23476,0.88381z" fill="#0b0e0d" stroke="none" stroke-width="1" stroke-linecap="butt"/><g fill="none" stroke="none" stroke-width="1" stroke-linecap="butt" font-family="sans-serif" font-weight="normal" font-size="12" text-anchor="start"><g/><g data-paper-data="{&quot;index&quot;:null}"/></g><path d="M213.96384,103.52832c0,0 19.43787,1.84371 27.72075,1.8543c7.58673,0.0097 24.99009,-1.68559 24.99009,-1.68559l0.7645,5.73598c0,0 -19.48749,1.83875 -27.04222,1.81154c-8.34194,-0.03005 -27.11716,-1.72718 -27.11716,-1.72718z" fill="#1d1e26" stroke="#0b0b0b" stroke-width="0.5" stroke-linecap="butt"/><path d="M239.43069,105.13861l-0.37996,6.30038c-0.02903,0.48133 -0.09064,0.8713 -0.13741,0.86938l-1.20496,-0.0497c-0.04673,-0.00193 -0.06114,-0.39502 -0.03213,-0.87636l0.37995,-6.30055c0.02903,-0.48133 0.09067,-0.87129 0.1374,-0.86936l1.20497,0.04969c0.04676,0.00193 0.06114,0.39519 0.03211,0.87653z" fill="#0b0e0d" stroke="none" stroke-width="1" stroke-linecap="butt"/><path d="M234.90544,104.92533l-0.37995,6.30038c-0.02903,0.48133 -0.09064,0.87129 -0.13741,0.86937l-1.20496,-0.04969c-0.04673,-0.00193 -0.06114,-0.39502 -0.03213,-0.87636l0.37996,-6.30055c0.02903,-0.48133 0.09067,-0.87129 0.1374,-0.86936l1.20497,0.0497c0.04676,0.00193 0.06114,0.39518 0.03211,0.87652z" fill="#0b0e0d" stroke="none" stroke-width="1" stroke-linecap="butt"/><path d="M214.3337,182.74884c0,0 -0.34547,-2.7774 -0.58046,-6.4502c-0.15233,-2.38096 -0.25823,-5.13821 -0.19347,-7.75903c0.08814,-3.56711 -0.17005,-6.2759 -0.16585,-8.75991c0.00093,-0.55217 -0.35738,0.047 -0.35876,-0.4062c-0.01325,-4.3561 -0.01535,-10.80185 -0.01535,-10.80185l11.08092,-1.15516l0.40063,34.15475z" fill="none" stroke="#061031" stroke-width="0.5" stroke-linecap="butt"/><path d="M224.18528,158.46649c0,0 -9.185,0.86821 -10.74049,1.01524" fill="none" stroke="#061031" stroke-width="0.5" stroke-linecap="round"/><path d="M216.35953,226.38323c0,0 -0.53439,-13.38046 -0.611,-15.00201c-0.01703,-0.36045 -0.16446,0.04097 -0.18015,-0.25482c-0.15078,-2.84305 -0.35995,-7.05046 -0.35995,-7.05046l8.80521,-1.07299l1.41908,22.28296z" fill="none" stroke="#061031" stroke-width="0.5" stroke-linecap="butt"/><path d="M215.89874,211.18526c1.23652,-0.14075 8.53804,-0.97186 8.53804,-0.97186" fill="none" stroke="#061031" stroke-width="0.5" stroke-linecap="round"/><path d="M256.20957,181.57125l0.40063,-34.15475l11.08092,1.15516c0,0 -0.00211,6.44576 -0.01535,10.80185c-0.00138,0.4532 -0.35969,-0.14596 -0.35876,0.4062c0.00419,2.484 -0.25399,5.1928 -0.16585,8.75991c0.16465,6.66363 -0.77393,14.20923 -0.77393,14.20923z" data-paper-data="{&quot;index&quot;:null}" fill="none" stroke="#061031" stroke-width="0.5" stroke-linecap="butt"/><path d="M267.26611,159.48173c-1.55549,-0.14703 -10.74048,-1.01524 -10.74048,-1.01524" data-paper-data="{&quot;index&quot;:null}" fill="none" stroke="#061031" stroke-width="0.5" stroke-linecap="round"/><path d="M255.27823,225.28591l1.41908,-22.28296l8.8052,1.07299c0,0 -0.20917,4.20741 -0.35995,7.05046c-0.01569,0.29579 -0.22273,-0.22484 -0.23976,0.13561c-0.07661,1.62155 -0.55139,15.12122 -0.55139,15.12122z" data-paper-data="{&quot;index&quot;:null}" fill="none" stroke="#061031" stroke-width="0.5" stroke-linecap="butt"/><path d="M256.27414,210.2134c0,0 7.30152,0.83111 8.53804,0.97186" data-paper-data="{&quot;index&quot;:null}" fill="none" stroke="#061031" stroke-width="0.5" stroke-linecap="round"/><path d="M218.23712,104.20465l-0.64464,5.26729c-0.04925,0.4024 -0.14014,0.72711 -0.2027,0.72388l-1.61169,-0.08321c-0.0625,-0.00323 -0.0733,-0.33318 -0.02407,-0.73559l0.64466,-5.26744c0.04925,-0.4024 0.14017,-0.72711 0.20268,-0.72388l1.6117,0.08322c0.06254,0.00323 0.0733,0.33331 0.02403,0.73573z" fill="#061031" stroke="none" stroke-width="1" stroke-linecap="butt"/><path d="M231.08758,105.23268l-0.64464,5.2673c-0.04925,0.4024 -0.14014,0.72711 -0.2027,0.72388l-1.61168,-0.08321c-0.0625,-0.00323 -0.0733,-0.33317 -0.02407,-0.73559l0.64466,-5.26744c0.04924,-0.4024 0.14017,-0.72711 0.20268,-0.72388l1.6117,0.08322c0.06254,0.00323 0.0733,0.33331 0.02403,0.73573z" fill="#061031" stroke="none" stroke-width="1" stroke-linecap="butt"/><path d="M260.81942,104.51646c-0.04683,-0.40271 -0.03407,-0.73271 0.02849,-0.73557l1.61217,-0.07347c0.06252,-0.00285 0.15149,0.3224 0.1983,0.72509l0.61277,5.27125c0.04679,0.40271 0.034,0.73258 -0.02852,0.73543l-1.61216,0.07346c-0.06258,0.00285 -0.1515,-0.3224 -0.19831,-0.7251l-0.61275,-5.2711z" data-paper-data="{&quot;index&quot;:null}" fill="#061031" stroke="none" stroke-width="1" stroke-linecap="butt"/><path d="M247.96301,105.4667c-0.04683,-0.40271 -0.03407,-0.73271 0.02849,-0.73557l1.61217,-0.07347c0.06252,-0.00285 0.15149,0.3224 0.1983,0.72509l0.61277,5.27125c0.04679,0.40271 0.034,0.73258 -0.02852,0.73543l-1.61216,0.07346c-0.06258,0.00285 -0.1515,-0.3224 -0.19831,-0.7251l-0.61275,-5.2711z" data-paper-data="{&quot;index&quot;:null}" fill="#061031" stroke="none" stroke-width="1" stroke-linecap="butt"/></g></g></svg>