<svg version="1.1" xmlns="http://www.w3.org/2000/svg" xmlns:xlink="http://www.w3.org/1999/xlink" width="55.69331" height="153.67514" viewBox="0,0,55.69331,153.67514"><defs><linearGradient x1="240.33238" y1="108.30002" x2="238.24926" y2="108.41266" gradientUnits="userSpaceOnUse" id="color-1"><stop offset="0" stop-color="#a4a5a8"/><stop offset="1" stop-color="#d1d2d3"/></linearGradient></defs><g transform="translate(-212.15335,-103.02723)"><g data-paper-data="{&quot;isPaintingLayer&quot;:true}" fill-rule="nonzero" stroke-linejoin="miter" stroke-miterlimit="10" stroke-dasharray="" stroke-dashoffset="0" style="mix-blend-mode: normal"><path d="M266.23338,108.71089c0,0 -18.14252,1.53396 -26.20335,1.56113c-7.30014,0.02459 -26.13094,-1.63737 -26.13094,-1.63737l0.73875,-5.18452c0,0 16.8169,1.5323 24.14797,1.52354c8.00377,-0.00957 26.7866,-1.67604 26.7866,-1.67604z" data-paper-data="{&quot;index&quot;:null}" fill="#9da0a2" stroke="#888b8d" stroke-width="0.5" stroke-linecap="butt"/><g stroke="none" stroke-linecap="butt"><g fill="#9da0a2" stroke-width="0"><path d="M262.97262,254.07831c0,0 -5.45382,3.14533 -10.86047,2.26428c-3.6779,-0.59934 -10.94548,-2.60107 -10.94548,-2.60107l-1.17829,-110.30232c0,0 -9.19861,-32.66224 -8.84553,-32.82518c2.52788,-1.16657 35.09286,-1.30776 35.09286,-1.30776c0,0 1.81959,10.08624 1.5911,17.97902c-0.64732,22.35999 -4.85418,126.79303 -4.85418,126.79303z" data-paper-data="{&quot;index&quot;:null}"/><path d="M212.1732,127.48936c-0.2285,-7.89277 1.59109,-17.97901 1.59109,-17.97901c0,0 32.56498,0.14118 35.09286,1.30775c0.35308,0.16294 -8.84553,32.82518 -8.84553,32.82518l-1.17829,110.30232c0,0 -7.26758,2.00172 -10.94548,2.60107c-5.40665,0.88104 -10.86047,-2.26428 -10.86047,-2.26428c0,0 -4.20686,-104.43304 -4.85418,-126.79303z" data-paper-data="{&quot;index&quot;:null}"/></g><g data-paper-data="{&quot;index&quot;:null}"><g fill="none" stroke-width="1" font-family="sans-serif" font-weight="normal" font-size="12" text-anchor="start"/><g><g fill="none" stroke-width="1" font-family="sans-serif" font-weight="normal" font-size="12" text-anchor="start"><g/><g data-paper-data="{&quot;index&quot;:null}"/></g><g fill="url(#color-1)" stroke-width="0"><path d="M238.24926,108.41266c-0.06454,-1.40329 0.34946,-2.5661 0.9247,-2.5972c0.57523,-0.03111 1.09389,1.08127 1.15843,2.48456c0.06455,1.40329 -0.34945,2.5661 -0.92469,2.5972c-0.57524,0.0311 -1.0939,-1.08128 -1.15844,-2.48457z"/></g></g></g></g><g fill="#9da0a2" stroke-width="0" stroke-linecap="butt"><path d="" data-paper-data="{&quot;index&quot;:null}" stroke="#888b8d"/><path d="" data-paper-data="{&quot;index&quot;:null}" stroke="#061031"/></g><path d="" data-paper-data="{&quot;index&quot;:null}" fill="none" stroke="#888b8d" stroke-width="0.5" stroke-linecap="butt"/><path d="" data-paper-data="{&quot;index&quot;:null}" fill="none" stroke="#888b8d" stroke-width="0.5" stroke-linecap="butt"/><path d="" data-paper-data="{&quot;index&quot;:null}" fill="#e8e8e8" stroke="none" stroke-width="1" stroke-linecap="butt"/><path d="" data-paper-data="{&quot;index&quot;:null}" fill="#191919" stroke="#000000" stroke-width="0.5" stroke-linecap="butt"/><path d="" data-paper-data="{&quot;index&quot;:null}" fill="#e8e8e8" stroke="none" stroke-width="1" stroke-linecap="butt"/><path d="" data-paper-data="{&quot;index&quot;:null}" fill="none" stroke="#888b8d" stroke-width="0.5" stroke-linecap="butt"/><path d="" data-paper-data="{&quot;index&quot;:null}" fill="none" stroke="#888b8d" stroke-width="0.5" stroke-linecap="round"/><path d="" data-paper-data="{&quot;index&quot;:null}" fill="none" stroke="#888b8d" stroke-width="0.5" stroke-linecap="butt"/><path d="" data-paper-data="{&quot;index&quot;:null}" fill="none" stroke="#888b8d" stroke-width="0.5" stroke-linecap="round"/><path d="" data-paper-data="{&quot;index&quot;:null}" fill="#9da0a2" stroke="none" stroke-width="1" stroke-linecap="butt"/><path d="" data-paper-data="{&quot;index&quot;:null}" fill="#9da0a2" stroke="none" stroke-width="1" stroke-linecap="butt"/><path d="" data-paper-data="{&quot;index&quot;:null}" fill="none" stroke="#888b8d" stroke-width="0.5" stroke-linecap="round"/><path d="" data-paper-data="{&quot;index&quot;:null}" fill="none" stroke="#888b8d" stroke-width="0.5" stroke-linecap="round"/><path d="M240.04812,145.04112l-2.01437,-3.61613l0.13275,-29.46327" fill="none" stroke="#888b8d" stroke-width="0.5" stroke-linecap="round"/><path d="M237.86498,112.46257l0.13474,-6.57443c0.01033,-0.50227 0.14934,-0.91128 0.31017,-0.91186c0,0 1.3353,-0.00477 2.0164,-0.0072c0.69956,-0.00249 2.1271,-0.0076 2.1271,-0.0076c0.16068,-0.00057 0.28308,0.40751 0.27282,0.90979l-0.1347,6.57458c-0.01033,0.50227 -0.14944,0.9113 -0.31012,0.91187l-4.14355,0.01479c-0.16078,0.00058 -0.28311,-0.40767 -0.2728,-0.90994z" data-paper-data="{&quot;index&quot;:null}" fill="#e8e8e8" stroke="none" stroke-width="1" stroke-linecap="butt"/><path d="M266.53067,110.36501c0,0 -18.3823,1.76884 -26.54966,1.80017c-7.39662,0.02836 -26.47629,-1.88808 -26.47629,-1.88808l0.74851,-5.97838c0,0 17.03916,1.76693 24.46712,1.75682c8.10955,-0.01103 27.14063,-1.93267 27.14063,-1.93267z" data-paper-data="{&quot;index&quot;:null}" fill="#191919" stroke="#000000" stroke-width="0.5" stroke-linecap="butt"/><path d="M239.10869,105.89591l-0.10539,6.57654c-0.00805,0.50243 -0.05222,0.91105 -0.09852,0.91094l-1.19272,-0.00276c-0.04626,-0.00011 -0.07735,-0.40888 -0.06932,-0.91132l0.10539,-6.57672c0.00805,-0.50243 0.05225,-0.91103 0.09851,-0.91092l1.19273,0.00274c0.04629,0.00011 0.07735,0.40905 0.0693,0.9115z" data-paper-data="{&quot;index&quot;:null}" fill="#e8e8e8" stroke="none" stroke-width="1" stroke-linecap="butt"/><path d="M254.64911,105.49661c-0.04873,-0.41942 -0.03809,-0.76346 0.02376,-0.76682l1.59384,-0.08674c0.06182,-0.00336 0.15174,0.33507 0.20043,0.75447l0.63752,5.49005c0.04869,0.41942 0.038,0.76332 -0.0238,0.76668l-1.59382,0.08673c-0.06187,0.00336 -0.15176,-0.33507 -0.20047,-0.75448l-0.6375,-5.48989z" data-paper-data="{&quot;index&quot;:null}" fill="#9da0a2" stroke="none" stroke-width="1" stroke-linecap="butt"/><path d="M227.44146,105.57643l-0.60596,5.49387c-0.04628,0.41972 -0.13422,0.75871 -0.19611,0.75573l-1.59429,-0.07657c-0.06183,-0.00297 -0.07448,-0.34677 -0.02821,-0.7665l0.60597,-5.49401c0.04628,-0.41971 0.13428,-0.7587 0.1961,-0.75573l1.5943,0.07657c0.06187,0.00299 0.0745,0.34692 0.02817,0.76666z" data-paper-data="{&quot;index&quot;:null}" fill="#9da0a2" stroke="none" stroke-width="1" stroke-linecap="butt"/></g></g></svg>