<svg version="1.1" xmlns="http://www.w3.org/2000/svg" xmlns:xlink="http://www.w3.org/1999/xlink" width="56.24072" height="153.41614" viewBox="0,0,56.24072,153.41614"><defs><linearGradient x1="240.08238" y1="156.72075" x2="237.99926" y2="156.83339" gradientUnits="userSpaceOnUse" id="color-1"><stop offset="0" stop-color="#a4a5a8"/><stop offset="1" stop-color="#d1d2d3"/></linearGradient></defs><g transform="translate(-211.86232,-150.86524)"><g data-paper-data="{&quot;isPaintingLayer&quot;:true}" fill-rule="nonzero" stroke-linejoin="miter" stroke-miterlimit="10" stroke-dasharray="" stroke-dashoffset="0" style="mix-blend-mode: normal"><g stroke="none" stroke-linecap="butt"><g fill="none" stroke-width="1" font-family="sans-serif" font-weight="normal" font-size="12" text-anchor="start"/><g data-paper-data="{&quot;index&quot;:null}"><g fill="none" stroke-width="1" font-family="sans-serif" font-weight="normal" font-size="12" text-anchor="start"/><g><g fill="none" stroke-width="1" font-family="sans-serif" font-weight="normal" font-size="12" text-anchor="start"><g/><g data-paper-data="{&quot;index&quot;:null}"/></g><g fill="url(#color-1)" stroke-width="0"><path d="M237.99926,156.83339c-0.06454,-1.40329 0.34946,-2.5661 0.9247,-2.5972c0.57523,-0.03111 1.09389,1.08127 1.15843,2.48456c0.06455,1.40329 -0.34945,2.5661 -0.92469,2.5972c-0.57524,0.0311 -1.0939,-1.08128 -1.15844,-2.48457z"/></g></g></g></g><path d="M266.32347,156.54874c0,0 -18.26744,1.53396 -26.38378,1.56113c-7.35041,0.02459 -26.31087,-1.63737 -26.31087,-1.63737l0.74384,-5.18452c0,0 16.9327,1.5323 24.31425,1.52354c8.05888,-0.00957 26.97105,-1.67604 26.97105,-1.67604z" data-paper-data="{&quot;index&quot;:null}" fill="#9da0a2" stroke="#888b8d" stroke-width="0.5" stroke-linecap="butt"/><g fill="#9da0a2" stroke-width="0" stroke-linecap="butt"><path d="M235.96326,303.15003c-2.23205,0.49143 -5.01288,0.64511 -8.3495,0.88432c-3.48282,0.24968 -7.02911,-0.52676 -9.11884,-1.27607c-1.1924,-0.42756 -2.24676,-0.51055 -2.27291,-1.133c-0.04016,-0.95605 0.23059,-2.48982 0.1815,-3.65864c-0.44874,-10.68261 -2.04658,-63.31779 -2.04658,-63.31779c0,0 -0.61996,-3.6303 -0.77574,-7.13498c-0.19323,-4.34679 -0.29564,-16.96768 -0.29564,-16.96768l-1.24861,-31.12804c0,0 0.04175,-7.18543 0.24951,-10.52462c0.242,-3.88972 1.11547,-11.41511 1.11547,-11.41511l23.12849,0.48974l0.34398,34.90076l2.98118,0.88403c0,0 -0.54294,62.19946 -0.76074,87.15028c-0.0155,1.77499 0.47564,18.22434 0.46375,19.58652c-0.01882,2.15528 -2.06698,2.32378 -3.59529,2.66028z" data-paper-data="{&quot;index&quot;:null}" stroke="#888b8d"/><path d="M240.25597,300.5005c-0.01188,-1.36218 0.47924,-17.81153 0.46374,-19.58652c-0.2178,-24.95079 -0.76073,-87.15027 -0.76073,-87.15027l-3.08057,-0.91901l-0.33996,-34.86579l29.87415,-0.48973c0,0 0.87348,7.52539 1.11547,11.41511c0.20775,3.33919 0.24951,10.52462 0.24951,10.52462c0,0 -0.56799,13.52162 -1.31028,31.19312c-0.18194,4.33097 -0.02067,11.33391 -0.21774,16.02542c-0.26302,8.61132 -0.79436,8.25534 -0.79436,8.25534c0,0 -1.5959,52.40269 -2.04419,63.07459c-0.0491,1.16882 0.22165,2.70257 0.18149,3.65864c-0.02615,0.62246 -1.08049,0.70545 -2.2729,1.133c-2.08975,0.74932 -5.63602,1.52577 -9.11884,1.27607c-3.33662,-0.23921 -6.11745,-0.39289 -8.34949,-0.88432c-1.5283,-0.33649 -3.57647,-0.50499 -3.59529,-2.66029z" data-paper-data="{&quot;index&quot;:null}" stroke="#061031"/></g><path d="M236.0387,303.08865c-2.23205,0.49143 -5.01288,0.6451 -8.34949,0.88431c-3.48282,0.24968 -7.02911,-0.52675 -9.11885,-1.27606c-1.1924,-0.42756 -2.24676,-0.51056 -2.27292,-1.133c-0.04016,-0.95605 0.23058,-2.48982 0.18149,-3.65864c-0.44874,-10.68261 -2.04657,-63.31779 -2.04657,-63.31779c0,0 -0.61996,-3.6303 -0.77574,-7.13498c-0.19323,-4.34679 -0.29565,-16.96767 -0.29565,-16.96767l-1.24862,-31.12804c0,0 0.04176,-7.18543 0.24951,-10.52462c0.242,-3.88972 1.11547,-11.41511 1.11547,-11.41511l23.12849,0.48974l0.34399,34.90076l2.98118,0.88403c0,0 -0.54294,62.19946 -0.76074,87.15028c-0.0155,1.77499 0.47563,18.22435 0.46374,19.58652c-0.01882,2.15528 -2.06698,2.32379 -3.59529,2.66028z" data-paper-data="{&quot;index&quot;:null}" fill="none" stroke="#888b8d" stroke-width="0.5" stroke-linecap="butt"/><path d="M240.33139,300.43912c-0.01188,-1.36218 0.47924,-17.81153 0.46374,-19.58652c-0.2178,-24.95079 -0.76073,-87.15027 -0.76073,-87.15027l-3.08057,-0.91901l-0.33995,-34.86579l29.87415,-0.48973c0,0 0.87348,7.52538 1.11547,11.4151c0.20775,3.33919 0.24951,10.52462 0.24951,10.52462c0,0 -0.56799,13.52163 -1.31029,31.19313c-0.18194,4.33097 -0.02067,11.33391 -0.21774,16.02542c-0.26302,8.61132 -0.79436,8.25533 -0.79436,8.25533c0,0 -1.5959,52.40267 -2.04419,63.07459c-0.0491,1.16882 0.22165,2.70258 0.18149,3.65864c-0.02615,0.62246 -1.08049,0.70545 -2.2729,1.13301c-2.08975,0.74932 -5.63602,1.52577 -9.11886,1.27607c-3.33662,-0.23921 -6.11745,-0.39289 -8.34949,-0.88432c-1.5283,-0.33649 -3.57647,-0.50499 -3.59528,-2.66029z" data-paper-data="{&quot;index&quot;:null}" fill="none" stroke="#888b8d" stroke-width="0.5" stroke-linecap="butt"/><path d="M236.57786,160.51961l0.13474,-6.57443c0.01033,-0.50227 0.14934,-0.91128 0.31017,-0.91186c0,0 1.3353,-0.00477 2.0164,-0.0072c0.69956,-0.00249 2.1271,-0.0076 2.1271,-0.0076c0.16068,-0.00057 0.28308,0.40751 0.27282,0.90979l-0.1347,6.57458c-0.01033,0.50227 -0.14944,0.9113 -0.31012,0.91187l-4.14355,0.01479c-0.16078,0.00058 -0.28311,-0.40767 -0.2728,-0.90994z" data-paper-data="{&quot;index&quot;:null}" fill="#e8e8e8" stroke="none" stroke-width="1" stroke-linecap="butt"/><path d="M266.77689,158.42206c0,0 -18.56719,1.76884 -26.8167,1.80017c-7.47102,0.02836 -26.74259,-1.88808 -26.74259,-1.88808l0.75604,-5.97838c0,0 17.21054,1.76693 24.71321,1.75682c8.19112,-0.01103 27.41361,-1.93267 27.41361,-1.93267z" data-paper-data="{&quot;index&quot;:null}" fill="#191919" stroke="#000000" stroke-width="0.5" stroke-linecap="butt"/><path d="M237.82158,153.95296l-0.10539,6.57654c-0.00805,0.50243 -0.05222,0.91105 -0.09852,0.91094l-1.19272,-0.00276c-0.04626,-0.00011 -0.07735,-0.40888 -0.06932,-0.91132l0.10539,-6.57672c0.00805,-0.50243 0.05225,-0.91103 0.09851,-0.91092l1.19273,0.00274c0.04629,0.00011 0.07735,0.40905 0.0693,0.9115z" data-paper-data="{&quot;index&quot;:null}" fill="#e8e8e8" stroke="none" stroke-width="1" stroke-linecap="butt"/><path d="M214.23074,234.74831c0,0 -0.34164,-2.89478 -0.57403,-6.72279c-0.15063,-2.48158 -0.25537,-5.35535 -0.19133,-8.08693c0.08716,-3.71786 -0.16816,-6.54112 -0.16401,-9.13011c0.00092,-0.57551 -0.35341,0.04898 -0.35478,-0.42336c-0.01309,-4.5402 -0.01519,-11.25834 -0.01519,-11.25834l10.95815,-1.20397l0.39619,35.59814z" data-paper-data="{&quot;index&quot;:null}" fill="none" stroke="#888b8d" stroke-width="0.5" stroke-linecap="butt"/><path d="M223.97315,209.43978c0,0 -9.08323,0.9049 -10.62148,1.05813" data-paper-data="{&quot;index&quot;:null}" fill="none" stroke="#888b8d" stroke-width="0.5" stroke-linecap="round"/><path d="M255.64261,233.52095l0.39619,-35.59814l10.95815,1.20398c0,0 -0.00209,6.71817 -0.01518,11.25833c-0.00137,0.47234 -0.3557,-0.15212 -0.35479,0.42336c0.00416,2.58898 -0.25117,5.41225 -0.16401,9.13011c0.16282,6.94524 -0.76535,14.80972 -0.76535,14.80972z" data-paper-data="{&quot;index&quot;:null}" fill="none" stroke="#888b8d" stroke-width="0.5" stroke-linecap="butt"/><path d="M266.57667,210.49793c-1.53826,-0.15323 -10.62148,-1.05813 -10.62148,-1.05813" data-paper-data="{&quot;index&quot;:null}" fill="none" stroke="#888b8d" stroke-width="0.5" stroke-linecap="round"/><path d="M246.47797,269.41452l0.87398,-23.24337l17.57775,1.28739c0,0 -0.17623,4.38987 -0.25856,7.35603c-0.00859,0.30859 -0.73536,15.91781 -0.73536,15.91781z" data-paper-data="{&quot;index&quot;:null}" fill="none" stroke="#888b8d" stroke-width="0.5" stroke-linecap="butt"/><path d="M253.36199,153.672c-0.04873,-0.41942 -0.03809,-0.76346 0.02376,-0.76682l1.59384,-0.08674c0.06182,-0.00336 0.15174,0.33507 0.20043,0.75447l0.63752,5.49005c0.04869,0.41942 0.038,0.76332 -0.0238,0.76668l-1.59382,0.08673c-0.06187,0.00336 -0.15176,-0.33507 -0.20047,-0.75448l-0.6375,-5.48989z" data-paper-data="{&quot;index&quot;:null}" fill="#9da0a2" stroke="none" stroke-width="1" stroke-linecap="butt"/><path d="M226.15434,153.69265l-0.60596,5.49387c-0.04628,0.41972 -0.13422,0.75871 -0.19611,0.75573l-1.59429,-0.07657c-0.06183,-0.00297 -0.07448,-0.34677 -0.02821,-0.7665l0.60597,-5.49401c0.04628,-0.41971 0.13428,-0.7587 0.1961,-0.75573l1.5943,0.07657c0.06187,0.00299 0.0745,0.34692 0.02817,0.76666z" data-paper-data="{&quot;index&quot;:null}" fill="#9da0a2" stroke="none" stroke-width="1" stroke-linecap="butt"/><path d="M267.82908,178.90473c0,0 -2.63405,-7.70116 -3.51489,-10.87557c-0.53056,-1.91203 -1.58423,-6.54972 -1.58423,-6.54972" data-paper-data="{&quot;index&quot;:null}" fill="none" stroke="#888b8d" stroke-width="0.5" stroke-linecap="round"/><path d="M216.00629,270.73237c0,0 -0.7268,-15.60921 -0.73536,-15.91781c-0.08233,-2.96616 -0.25854,-7.35603 -0.25854,-7.35603l17.57776,-1.28738l0.87397,23.24337z" data-paper-data="{&quot;index&quot;:null}" fill="none" stroke="#888b8d" stroke-width="0.5" stroke-linecap="butt"/><path d="M217.21212,161.47945c0,0 -1.05367,4.63771 -1.58423,6.54972c-0.88086,3.1744 -3.51489,10.87558 -3.51489,10.87558" data-paper-data="{&quot;index&quot;:null}" fill="none" stroke="#888b8d" stroke-width="0.5" stroke-linecap="round"/></g></g></svg>