<svg version="1.1" xmlns="http://www.w3.org/2000/svg" xmlns:xlink="http://www.w3.org/1999/xlink" width="62.44694" height="153.76004" viewBox="0,0,62.44694,153.76004"><g transform="translate(-208.77653,-102.98518)"><g data-paper-data="{&quot;isPaintingLayer&quot;:true}" fill-rule="nonzero" stroke-linejoin="miter" stroke-miterlimit="10" stroke-dasharray="" stroke-dashoffset="0" style="mix-blend-mode: normal"><path d="M213.87056,103.25478c0,0 19.27128,1.65233 27.48319,1.66182c7.52171,0.0087 24.77593,-1.51061 24.77593,-1.51061l0.75797,5.14054c0,0 -19.32048,1.64786 -26.81047,1.62347c-8.27045,-0.02694 -26.88476,-1.54788 -26.88476,-1.54788z" data-paper-data="{&quot;index&quot;:null}" fill="#9da0a2" stroke="#888b8d" stroke-width="0.5" stroke-linecap="butt"/><g stroke="none" stroke-linecap="butt"><path d="M217.29598,254.32522l-8.5154,-125.1642l37.12997,-0.91148l-5.99965,15.24838l-1.01649,110.49053c0,0 -7.19841,2.00172 -10.84131,2.60106c-5.3552,0.88104 -10.75712,-2.26428 -10.75712,-2.26428z" fill="#9da0a2" stroke-width="0"/><path d="M262.70807,254.25743c0,0 -5.40192,3.14532 -10.75711,2.26428c-3.6429,-0.59935 -10.84132,-2.60107 -10.84132,-2.60107l-1.16708,-110.30232c0,0 -10.76188,-16.09361 -10.41216,-16.25655c2.50383,-1.16657 41.69307,1.73146 41.69307,1.73146z" data-paper-data="{&quot;index&quot;:null}" fill="#9da0a2" stroke-width="0"/><g><g fill="#9da0a2" stroke-width="0"><path d="M270.82786,122.91359c0.4539,1.86005 0.45773,5.69836 0.30025,8.47421c-0.12209,2.15193 -0.94395,5.47796 -0.94395,5.47796c0,0 -20.59082,-5.34348 -30.33688,-5.34348c-16.69152,0 -3.16708,-24.10435 0.09474,-24.10435c8.91525,0 27.13679,1.85125 27.13679,1.85125c0,0 3.01752,10.64657 3.74907,13.64441z"/><path d="M212.89838,109.29528c0,0 18.22154,-1.85125 27.13679,-1.85125c3.26182,0 16.78626,24.10435 0.09474,24.10435c-9.74607,0 -30.25996,4.11271 -30.25996,4.11271c0,0 -1.00311,-3.1382 -1.06692,-5.66821c-0.06428,-2.5485 -0.03406,-5.49456 0.34629,-7.0532c0.73155,-2.99784 3.74907,-13.64441 3.74907,-13.64441z" data-paper-data="{&quot;index&quot;:null}"/></g><g fill="none" stroke-width="1" font-family="sans-serif" font-weight="normal" font-size="12" text-anchor="start"><g><g/><g data-paper-data="{&quot;index&quot;:null}"/></g><g/></g></g></g><g fill="#9da0a2" stroke-width="0" stroke-linecap="butt"><path d="" data-paper-data="{&quot;index&quot;:null}" stroke="#888b8d"/><path d="" data-paper-data="{&quot;index&quot;:null}" stroke="#061031"/></g><path d="" data-paper-data="{&quot;index&quot;:null}" fill="none" stroke="#888b8d" stroke-width="0.5" stroke-linecap="butt"/><path d="" data-paper-data="{&quot;index&quot;:null}" fill="none" stroke="#888b8d" stroke-width="0.5" stroke-linecap="butt"/><path d="" data-paper-data="{&quot;index&quot;:null}" fill="#e8e8e8" stroke="none" stroke-width="1" stroke-linecap="butt"/><path d="" data-paper-data="{&quot;index&quot;:null}" fill="#191919" stroke="#000000" stroke-width="0.5" stroke-linecap="butt"/><path d="" data-paper-data="{&quot;index&quot;:null}" fill="#e8e8e8" stroke="none" stroke-width="1" stroke-linecap="butt"/><path d="" data-paper-data="{&quot;index&quot;:null}" fill="none" stroke="#888b8d" stroke-width="0.5" stroke-linecap="butt"/><path d="" data-paper-data="{&quot;index&quot;:null}" fill="none" stroke="#888b8d" stroke-width="0.5" stroke-linecap="round"/><path d="" data-paper-data="{&quot;index&quot;:null}" fill="none" stroke="#888b8d" stroke-width="0.5" stroke-linecap="butt"/><path d="" data-paper-data="{&quot;index&quot;:null}" fill="none" stroke="#888b8d" stroke-width="0.5" stroke-linecap="round"/><path d="" data-paper-data="{&quot;index&quot;:null}" fill="#9da0a2" stroke="none" stroke-width="1" stroke-linecap="butt"/><path d="" data-paper-data="{&quot;index&quot;:null}" fill="#9da0a2" stroke="none" stroke-width="1" stroke-linecap="butt"/><path d="" data-paper-data="{&quot;index&quot;:null}" fill="none" stroke="#888b8d" stroke-width="0.5" stroke-linecap="round"/><path d="" data-paper-data="{&quot;index&quot;:null}" fill="none" stroke="#888b8d" stroke-width="0.5" stroke-linecap="round"/><path d="M241.80878,111.99451l-0.13275,28.20216l-1.74887,3.08513" data-paper-data="{&quot;index&quot;:null}" fill="none" stroke="#888b8d" stroke-width="0.5" stroke-linecap="round"/><g data-paper-data="{&quot;index&quot;:null}" stroke-linecap="butt"><path d="M242.31391,112.62841c0.01065,0.50227 -0.11568,0.91052 -0.28172,0.90994l-4.279,-0.01479c-0.16593,-0.00057 -0.30959,-0.4096 -0.32026,-0.91187l-0.1391,-6.57458c-0.0106,-0.50228 0.11581,-0.91036 0.28174,-0.90979c0,0 1.4742,0.00511 2.19663,0.0076c0.70336,0.00243 2.08231,0.0072 2.08231,0.0072c0.16609,0.00058 0.30964,0.40959 0.32031,0.91186l0.13914,6.57443z" data-paper-data="{&quot;index&quot;:null}" fill="#e8e8e8" stroke="none" stroke-width="1"/><path d="M213.6695,104.28871c0,0 19.3865,1.92164 27.76115,1.93267c7.67077,0.01011 25.06691,-1.75682 25.06691,-1.75682l0.97298,5.97838c0,0 -19.70335,1.91644 -27.34176,1.88808c-8.43434,-0.03133 -27.41753,-1.80017 -27.41753,-1.80017z" data-paper-data="{&quot;index&quot;:null}" fill="#191919" stroke="#000000" stroke-width="0.5"/><path d="M241.02962,106.06175c-0.00831,-0.50245 0.02376,-0.91139 0.07157,-0.9115l1.23172,-0.00274c0.04777,-0.00011 0.09342,0.40849 0.10173,0.91092l0.10884,6.57672c0.00829,0.50244 -0.02381,0.91121 -0.07159,0.91132l-1.23171,0.00276c-0.04781,0.00011 -0.09343,-0.40851 -0.10174,-0.91094l-0.10884,-6.57654z" data-paper-data="{&quot;index&quot;:null}" fill="#e8e8e8" stroke="none" stroke-width="1"/><path d="M224.98123,105.78079l-0.65834,5.48989c-0.0503,0.41941 -0.14313,0.75784 -0.20702,0.75448l-1.64592,-0.08673c-0.06382,-0.00336 -0.07486,-0.34726 -0.02458,-0.76668l0.65836,-5.49005c0.05028,-0.4194 0.14314,-0.75783 0.20698,-0.75447l1.64594,0.08674c0.06387,0.00336 0.07486,0.3474 0.02454,0.76682z" data-paper-data="{&quot;index&quot;:null}" fill="#9da0a2" stroke="none" stroke-width="1"/><path d="M253.07825,105.80146c-0.04784,-0.41974 -0.0348,-0.76367 0.02909,-0.76666l1.64642,-0.07657c0.06384,-0.00297 0.15472,0.33602 0.20251,0.75573l0.62578,5.49401c0.04778,0.41973 0.03472,0.76353 -0.02913,0.7665l-1.6464,0.07657c-0.06391,0.00298 -0.15473,-0.33601 -0.20252,-0.75573l-0.62577,-5.49387z" data-paper-data="{&quot;index&quot;:null}" fill="#9da0a2" stroke="none" stroke-width="1"/></g></g></g></svg>