<svg version="1.1" xmlns="http://www.w3.org/2000/svg" xmlns:xlink="http://www.w3.org/1999/xlink" width="53.98063" height="132.2129" viewBox="0,0,53.98063,132.2129"><g transform="translate(-212.98392,-113.92372)"><g data-paper-data="{&quot;isPaintingLayer&quot;:true}" fill-rule="nonzero" stroke-linejoin="miter" stroke-miterlimit="10" stroke-dasharray="" stroke-dashoffset="0" style="mix-blend-mode: normal"><path d="" fill="#65563b" stroke="none" stroke-width="1" stroke-linecap="butt"/><path d="" fill="#65563b" stroke="none" stroke-width="1" stroke-linecap="butt"/><path d="" fill="#65563b" stroke="none" stroke-width="1" stroke-linecap="butt"/><path d="" fill="#65563b" stroke="none" stroke-width="1" stroke-linecap="butt"/><path d="" fill="#50764c" stroke="none" stroke-width="1" stroke-linecap="butt"/><path d="" fill="#35393f" stroke="none" stroke-width="1" stroke-linecap="butt"/><path d="" fill="#50764c" stroke="none" stroke-width="1" stroke-linecap="butt"/><path d="" fill="#50764c" stroke="none" stroke-width="1" stroke-linecap="butt"/><path d="" fill="#50764c" stroke="none" stroke-width="1" stroke-linecap="butt"/><path d="" fill="#50764c" stroke="none" stroke-width="1" stroke-linecap="butt"/><path d="" fill="#50764c" stroke="none" stroke-width="1" stroke-linecap="butt"/><path d="" fill="#50764c" stroke="none" stroke-width="1" stroke-linecap="butt"/><path d="" fill="#c8bc80" stroke="none" stroke-width="1" stroke-linecap="butt"/><path d="" fill="#c8bc80" stroke="none" stroke-width="1" stroke-linecap="butt"/><path d="" fill="#c8bc80" stroke="none" stroke-width="1" stroke-linecap="butt"/><path d="" fill="#50764c" stroke="none" stroke-width="1" stroke-linecap="butt"/><path d="" fill="#50764c" stroke="none" stroke-width="1" stroke-linecap="butt"/><path d="" fill="#50764c" stroke="none" stroke-width="1" stroke-linecap="butt"/><path d="" fill="#50764c" stroke="none" stroke-width="1" stroke-linecap="butt"/><path d="" fill="#c8bc80" stroke="none" stroke-width="1" stroke-linecap="butt"/><g><g fill="#9c8856" stroke="#061031" stroke-width="0" stroke-linecap="butt"><path d="M236.1178,245.041c-2.14155,0.47151 -4.80963,0.61895 -8.01095,0.84846c-3.34161,0.23956 -6.74411,-0.5054 -8.74911,-1.22433c-1.14406,-0.41022 -2.15566,-0.48985 -2.18075,-1.08706c-0.03853,-0.91729 0.22124,-2.38886 0.17413,-3.51029c-0.43054,-10.24946 -1.96359,-46.74555 -1.96359,-46.74555c0,0 -0.59482,-3.4831 -0.74429,-6.84567c-0.18539,-4.17054 -0.28366,-16.27969 -0.28366,-16.27969l-1.19799,-29.8659c0,0 0.04006,-6.89408 0.23939,-10.09788c0.23219,-3.732 1.07025,-10.95226 1.07025,-10.95226l22.19071,0.46987l0.33004,33.48565l2.8603,0.84819c0,0 -0.52092,59.67748 -0.72989,83.61662c-0.01487,1.70302 0.45635,3.48049 0.44494,4.78743c-0.01805,2.06789 -1.98317,2.22957 -3.44951,2.55241z" data-paper-data="{&quot;index&quot;:null}"/><path d="M240.23644,242.4989c-0.0114,-1.30694 0.45981,-3.08441 0.44494,-4.78743c-0.20897,-23.93913 -0.72989,-83.61662 -0.72989,-83.61662l-2.95566,-0.88174l-0.32617,-33.4521l28.66286,-0.46987c0,0 0.83807,7.22026 1.07025,10.95226c0.19933,3.2038 0.23939,10.09788 0.23939,10.09788c0,0 -0.54496,12.97336 -1.25716,29.92834c-0.17455,4.15535 -0.01983,10.87436 -0.20891,15.37565c-0.25236,8.26216 -0.76216,7.92061 -0.76216,7.92061c0,0 -1.53119,36.27301 -1.9613,46.51221c-0.04711,1.12143 0.21266,2.59299 0.17413,3.51029c-0.02509,0.59722 -1.03668,0.67684 -2.18074,1.08706c-2.00501,0.71893 -5.4075,1.4639 -8.74911,1.22433c-3.20132,-0.22951 -5.86941,-0.37696 -8.01095,-0.84846c-1.46634,-0.32285 -3.43146,-0.48452 -3.44951,-2.55241z" data-paper-data="{&quot;index&quot;:null}"/></g><g data-paper-data="{&quot;index&quot;:null}" stroke="none" stroke-width="1" stroke-linecap="butt"><path d="M264.58519,175.58916c-0.11415,-0.10232 -0.21827,-0.21529 -0.31094,-0.33739c-0.47915,-0.63604 -7.25091,-0.89078 -7.83949,-1.29983c-0.51572,-0.35328 1.16881,-3.53375 1.67701,-3.63108c0.58635,-0.13184 2.80693,0.45212 3.24748,0.04332c0.10762,-0.11101 0.11141,-0.28622 0.00867,-0.40176c-0.33338,-0.44003 -0.57288,-0.94885 -0.90054,-1.39427l-0.16508,-0.21899c-0.03137,-0.67266 -0.29729,-1.3131 -0.75157,-1.81016c-0.01998,-0.61473 -1.89604,-2.16396 -2.16063,-2.15011l0.03805,-0.05934c0.5607,-1.06159 1.61618,-1.10901 2.49518,-0.38704c1.1691,0.95774 1.74235,2.31189 2.65052,3.48249c0.61068,0.78753 1.41085,1.44538 2.09391,2.17296c0.72443,0.76541 0.28894,4.92823 -0.08256,5.9912z" fill="#67633d"/><path d="M245.61164,192.79426c0.62928,-0.03403 1.24228,-0.21243 1.79156,-0.52136c0.57544,-0.32576 1.42189,-0.86245 1.59215,-1.56567c0.24587,-1.02585 0.2296,-2.17225 0.60302,-3.15704c0.22054,-0.58046 0.68615,-1.90668 1.54295,-1.27362c0.36483,0.30438 0.76104,0.56904 1.18194,0.78947c1.0424,0.49182 2.21537,0.77997 3.1858,1.38405c1.47065,0.918 2.5812,2.68 4.26157,3.15089c-1.0019,0.53208 -2.03527,0.95798 -3.09621,1.40921c-0.89941,0.38281 -1.67961,0.81264 -1.97806,1.79345c-0.02105,0.07059 -0.00276,0.14705 0.04797,0.20047c0.29708,0.24252 0.58798,0.19821 0.91903,0.03482c0.37611,-0.18428 0.77725,-0.50639 1.10685,-0.07105c0.15752,0.24077 0.3476,0.4586 0.56484,0.64726c0.52575,0.41176 1.64415,-0.22439 2.12854,-0.41166c0.84134,-0.32048 1.70623,-0.653 2.45062,-1.16462c0.25526,-0.17578 0.47153,-0.4037 0.71545,-0.59354c0.2579,-0.35284 0.50471,-0.32132 0.73632,0.10098l-0.11273,0.10876c-0.07103,0.06609 -0.14284,0.12867 -0.21541,0.18775c-0.39655,0.32303 -0.74132,0.70485 -1.02233,1.13221c-0.47802,0.80912 -0.45328,1.86817 0.52994,1.97583c-0.96442,1.50424 -1.9253,3.01 -2.88263,4.51729c-0.3249,0.50676 -0.64065,1.20042 -1.26419,1.4071c-0.20858,0.06767 -0.59356,0.19874 -0.81891,0.12667c-0.40179,-0.12862 -0.7463,-0.21599 -1.13188,0.00069c-0.76761,0.42431 -1.32732,1.36435 -1.90192,2.00293c-0.6089,0.6709 -1.17054,1.05983 -2.07301,1.1827c-1.88151,0.24872 -1.42909,-1.75577 -1.777,-2.9496c-0.37908,-1.31112 -1.77364,-0.84072 -2.64575,-0.40872c-0.35826,0.17761 -0.77867,0.36745 -1.10799,0.06579c-0.10909,-0.10163 -0.10246,-0.29197 -0.09381,-0.429c0.01746,-0.32371 0.09145,-0.55912 0.01356,-0.89645c-0.096,-0.49612 -0.32589,-0.95653 -0.66479,-1.33137c-0.27895,-0.29199 -0.61,-0.51329 -0.86461,-0.83266c-0.45131,-0.56316 -0.38122,-1.28307 -0.38272,-1.95838c-0.00408,-0.90777 0.02791,-1.80825 0.31459,-2.67894c0.11238,-0.3382 0.2549,-0.66562 0.42585,-0.97833c0.1762,-0.31774 0.14525,-0.71007 -0.07858,-0.99626z" fill="#67633d"/><path d="M266.0573,154.45971c-0.70245,0.62131 -1.17664,1.43807 -1.73277,2.26874c-0.33171,0.51206 -0.72894,0.97856 -1.18158,1.38764c-0.48234,0.42185 -1.02391,0.77069 -1.60746,1.0354c-1.29435,0.60706 -2.67711,0.99905 -3.94959,1.61787c-1.31595,0.64074 -2.10467,1.6874 -3.20216,2.57681c-0.59746,0.48362 -1.6352,0.81396 -2.27404,0.57861c-0.42334,-0.15149 -0.67403,-0.54756 -0.51803,-1.30969c0.21967,-1.01322 0.83029,-2.06092 1.37325,-2.93249c0.3249,-0.50676 0.78863,-1.583 -0.09896,-1.92804c-0.52355,-0.1999 -1.20799,0.47235 -1.60998,0.74639c-0.67908,0.46976 -1.64202,0.66929 -2.43634,0.95881c0.09073,-1.24976 -1.58698,-1.60129 -1.70478,-1.6293c0.12072,-0.31182 0.27557,-0.60628 0.37752,-0.81471c0.493,-1.03367 1.16953,-1.96928 1.99668,-2.76134c0.44322,-0.39273 0.91273,-0.75476 1.40526,-1.08357v0c0.69101,-0.06837 1.32282,-0.16792 1.89166,-0.65632c0.7416,-0.63786 1.34891,-1.39803 2.36741,-1.44425c0.48495,-0.0269 0.90785,-0.33865 1.077,-0.79394c0.33648,-1.1601 -1.19124,-2.31381 -0.72178,-2.9225c0.26432,-0.34874 0.54686,-0.68353 0.84177,-1.00586c-0.00654,0.10629 2.66069,0.10941 4.19396,-0.80151c1.27922,-0.76 1.88343,-2.33069 2.88802,-3.21163c1.25831,-1.10343 2.78235,-1.42124 2.90726,-1.09605c0.28252,0.73552 0.02742,12.94697 -0.28232,13.22092z" fill="#67633d"/><path d="" fill="#67633d"/><path d="" fill="#805336"/><path d="" fill="#55372c"/><path d="M232.85131,150.34196c-0.4459,0.68489 1.61787,2.26603 2.11859,1.95798c0.55665,-0.34233 1.15425,-0.99559 1.78207,-1.1701c0.55002,-0.15199 2.26239,-1.06605 2.81989,-1.18382c0.33848,-0.07263 5.04595,7.66828 5.53456,7.9624c-0.43273,0.59377 -1.84133,2.0582 -1.83399,2.15625c-0.36065,0.19193 -0.72785,0.37287 -1.10857,0.5361c-0.33746,0.13565 -0.64886,0.32876 -0.92036,0.57078c-0.48036,-0.05337 -0.95373,-0.15739 -1.41222,-0.31029c-1.17461,-0.40914 -2.10365,-1.71305 -3.40227,-1.78759c-1.00398,-0.05761 -1.89019,-0.20715 -2.86217,0.16533c-1.07586,0.4145 -2.91272,1.32771 -1.6728,2.64087c0.53866,0.57164 1.22132,0.98217 1.88969,1.39032c0.29399,0.19193 0.60171,0.362 0.92064,0.50879c0.56125,0.23991 1.19428,0.68198 1.76492,0.82607c0.9045,0.2269 2.43353,0.77501 3.34174,0.382c0.29823,-0.14676 0.6196,-0.24082 0.94989,-0.27803c0.16297,0.44928 0.3832,0.87569 0.65521,1.26865c0.29962,0.44327 0.63148,0.85744 0.93065,1.30495c0.19148,0.27665 0.25897,0.71139 0.41262,1.0294c0.2878,0.60994 0.43394,1.24673 0.10759,1.87928c-0.28149,0.54139 -1.25219,0.83775 -1.77963,1.011c-0.76375,0.23749 -1.5907,0.16022 -2.29721,-0.21467c-0.85488,-0.46663 -1.59605,-1.16358 -2.39805,-1.71624c-0.36087,-0.25104 -0.68466,-0.55156 -0.96185,-0.89275c-0.42717,-0.50998 -0.96719,-0.91354 -1.5773,-1.17872c-0.61762,-0.28963 -1.12238,-0.47295 -1.74187,-0.03966c-0.31838,0.22129 -0.5567,0.48713 -0.89343,0.68761c-0.80012,0.49662 -1.64564,0.91604 -2.52515,1.25262c-1.28378,0.45997 -3.11124,0.53969 -3.88069,-0.82258c-0.64223,-1.13361 0.78036,-2.37127 1.54581,-2.97574c1.43816,-1.13489 3.73417,-3.88308 1.90183,-5.55343c-0.43726,-0.39801 -1.10816,-0.83042 -1.24809,-1.44512c-0.13993,-0.6147 0.16835,-1.13437 0.47151,-1.64603c0.84846,-1.42924 1.76176,-2.89612 2.8768,-4.13408c0.10768,-0.12558 0.22073,-0.24544 0.33436,-0.36267c0.5806,-0.59852 1.23893,-1.19473 1.87867,-1.73724c0.12084,-0.09898 0.2518,-0.18493 0.39068,-0.25641c-0.03599,0.05613 -0.07403,0.11546 -0.11207,0.1748z" fill="#805336"/><path d="" fill="#c8bc80"/><path d="M256.30174,146.36521c0.04141,-0.27999 0.24061,-0.51097 0.51148,-0.59306l0.08192,-0.02894c0.92099,-0.32824 2.06412,-0.11355 3.01199,-0.35666c1.25979,-0.32373 1.21135,-1.93879 1.74208,-2.99246c0.06521,-0.12457 0.14124,-0.24316 0.22723,-0.35441c0.23763,-0.26425 0.51314,-0.49178 0.81756,-0.67515c0.08612,-0.0602 0.56652,-0.23419 0.55065,-0.38239c-0.0293,-0.27902 -0.48402,-0.26507 -0.66648,-0.27343c-1.23472,-0.04714 -2.90455,0.89848 -4.07504,0.30644c-0.09916,-0.06214 -0.14337,-0.18375 -0.10726,-0.29506c0.34776,-0.82475 1.30703,-1.19859 2.07748,-1.55321c0.51581,-0.23275 1.01678,-0.52706 1.52926,-0.76873c0.75157,-0.34635 1.25718,-1.06084 1.69173,-1.7598c-0.08938,-0.1777 -0.07326,-0.39024 0.04191,-0.55242c0.41127,-0.64147 0.87311,-1.203 1.34063,-1.80161l0.0257,-0.04009c0.19329,-0.30149 0.3866,-0.60298 0.59708,-0.88892l0.04832,-0.07537c0.07744,-0.28086 0.1775,-0.55497 0.29923,-0.81966c0.0496,-0.1214 0.14581,-0.21781 0.2671,-0.26766c0.12129,-0.04985 0.2575,-0.04896 0.37812,0.00247c0.02468,-0.03849 0.05141,-0.08018 0.07711,-0.12027c-0.00748,-0.23226 -0.29972,-1.74902 -0.65343,-1.4938c-0.1513,0.10892 -0.29503,0.22722 -0.39899,0.29407c-0.06889,0.03772 -0.15137,0.04134 -0.2233,0.00984c-0.07194,-0.03149 -0.12519,-0.09458 -0.1442,-0.17078c-0.15425,-0.52884 0.19792,-0.92987 0.51047,-1.32914c0.37132,-0.45692 0.04936,-3.91706 0.31681,-4.32714c0.45585,-0.68982 0.84715,9.42946 0.21049,10.14365c-0.15385,0.17291 -0.31777,0.34388 -0.49132,0.50868c-0.36881,0.35642 -0.83017,0.64896 -1.07385,1.02903c-0.19947,0.31112 -0.25258,0.67985 0.00225,1.18945c0.3364,0.66825 0.84619,0.63388 1.57433,0.69113c0.59215,0.047 0.59443,3.65913 -0.04398,3.97674c-0.85059,0.42316 -1.14033,-0.85378 -1.89316,-0.13487c-0.48577,0.46472 -0.78318,1.17919 -1.49324,1.3055c-1.25728,0.22805 -0.84007,2.01618 0.29635,2.18134c0.29195,0.02227 0.58247,0.06048 0.87026,0.11443c0.32552,0.08877 1.921,1.16148 0.93302,1.46714c-0.81246,0.25074 -1.57787,-0.14721 -2.40274,-0.11714c-1.45218,0.05556 -1.73216,1.27225 -2.28175,2.33418c0.1168,0.24871 0.15088,0.52829 0.09723,0.79777c-0.0605,0.19977 -0.14171,0.39267 -0.2423,0.57556c-0.24546,0.41378 -0.51276,0.81422 -0.80078,1.19958c-0.04659,0.07464 -0.12926,0.11897 -0.21722,0.11644c-0.74641,-0.07262 -1.4739,-0.27775 -2.14832,-0.60573c-0.06591,-0.0427 -0.1089,-0.113 -0.11687,-0.19114c-0.00797,-0.07814 0.01993,-0.15566 0.07586,-0.21079c0.26818,-0.28063 0.87309,-0.37706 0.47391,-0.8027c-0.2209,-0.25467 -0.35438,-0.57341 -0.38088,-0.90949c-0.07247,-0.38815 0.07981,-1.00332 -0.14596,-1.33589c-0.06077,-0.08875 -0.08361,-0.42019 -0.09578,-0.45062c-0.09575,-0.24242 -0.37454,-0.40758 -0.44994,-0.66411c-0.10508,-0.28805 -0.14961,-0.59469 -0.13077,-0.90074z" fill="#55372c"/><path d="M244.23916,116.43625c0.3869,0.12361 0.97093,2.05038 1.82619,3.01056c-0.1427,0.13723 -0.30733,0.24966 -0.48707,0.33264c-0.06174,0.02705 -0.10824,0.08017 -0.12688,0.14495c-0.26762,-0.00819 -0.5303,-0.07397 -0.7702,-0.19284c-0.46044,-0.24556 -0.946,-0.44078 -1.44827,-0.58232c-0.29414,-0.0777 -0.58392,-0.14809 -0.68777,-0.45906c-0.4559,-1.23365 -1.43405,0.09435 -2.17288,-0.56037c-0.30444,-0.26987 -0.70196,0.6678 -0.89073,0.92693c-0.13807,0.17421 -0.28957,0.33735 -0.45312,0.48791c-0.33793,0.34001 -0.33701,0.62799 -0.50786,1.03212c-0.41952,1.00728 -1.31912,1.70452 -1.38295,2.86292c-0.05198,1.02344 1.24918,1.85992 1.03572,2.89523c-0.12563,0.59831 -0.54672,1.07509 -0.47867,1.68896c0.06963,0.35302 0.05037,0.71783 -0.05605,1.06156c-0.25875,0.68946 -1.1591,0.57611 -1.62754,0.2373c-0.61988,-0.44495 -0.76415,-1.33171 -0.81113,-2.03843c-0.03786,-0.55153 0.09409,-1.12089 0.17951,-1.66352c0.11607,-0.74927 -0.02029,-1.34132 -0.25385,-2.04999c-0.13737,-0.41459 -0.2107,-0.84771 -0.21743,-1.28441c0.10046,-0.0817 0.18767,-0.17844 0.25855,-0.28681c0.16856,-0.23997 0.30144,-0.5031 0.3945,-0.7812c0.09741,-0.34738 0.10828,-0.71332 0.03167,-1.06587c-0.03228,-0.16274 -0.10255,-0.31558 -0.20508,-0.44602c0.07303,-0.46685 0.10016,-0.92918 0.15798,-1.38995c0.13283,-0.16759 0.24224,-0.35247 0.32519,-0.54957c0.06672,-0.2962 0.09627,-0.59956 0.08795,-0.90306l0.02982,-0.04651c0.61988,-1.15037 7.45059,-0.64186 8.2504,-0.38115z" fill="#55372c"/><path d="M238.56579,140.65256c-0.10013,-1.58032 -2.09248,-1.56107 -3.16941,-1.17667c-0.21449,0.08054 -0.42452,0.17249 -0.62918,0.27547c-0.05281,-0.0972 -0.0947,-0.19996 -0.12491,-0.30637c-0.23499,-0.75938 0.06026,-1.18105 0.80253,-1.36818c0.84434,-0.2122 1.33677,-0.27439 1.86989,-1.04591c0.35592,-0.5163 0.54907,-1.20935 0.8966,-1.75139c0.146,-0.22772 -0.32872,-0.74026 -0.41464,-0.99449c-0.13184,-0.34604 -0.16579,-0.72169 -0.09815,-1.08575c0.11273,-0.66995 0.86209,-0.75521 1.36006,-0.50836c0.49946,0.23606 1.02062,0.42317 1.55617,0.55872c0.12641,0.03578 2.0971,0.45974 1.91321,-0.16051c-0.16161,-0.55618 -0.35253,-1.21489 0.38209,-1.4748c0.88414,-0.32018 1.6319,0.7159 2.45643,0.31223c0.34612,-0.19715 0.64011,-0.47418 0.85746,-0.80798c0.40723,-0.57165 0.73327,-1.28134 1.0645,-1.75915c0.20581,-0.32028 0.47141,-0.59791 0.78225,-0.81773c0.49784,-0.3212 1.08811,-0.32067 1.45787,-0.83034c0.40382,-0.55573 0.27518,-0.92333 0.13258,-1.56916c-0.13156,-0.51423 -0.17257,-1.04742 -0.12119,-1.57571c0.06643,-0.71773 -0.34092,-1.36359 -0.40106,-2.06743c-0.04507,-0.5403 0.36985,-0.53451 -0.42273,-1.15128c-0.21974,-0.17256 -0.4811,-0.30845 -0.71203,-0.45651c-0.50355,-0.32285 -0.16836,-0.84565 -0.99149,-0.98417c-0.09938,-0.01577 -0.1996,-0.02562 -0.30015,-0.02951c0.0617,-0.0246 0.11055,-0.07349 0.13513,-0.13518c0.02457,-0.0617 0.02271,-0.13079 -0.00516,-0.19107c0.09008,-0.11588 0.16472,-0.24297 0.22204,-0.3781c0.22338,-0.51075 -0.13539,-1.21825 -0.10102,-1.74834c0.03838,-0.63163 0.36117,-0.51745 0.79177,-0.69848c0.35876,-0.15015 3.10372,-0.76975 2.81313,-0.30766c-0.32799,0.51157 0.75192,1.44606 1.02066,1.90574c0.46453,0.80019 0.86496,0.94151 1.75685,1.05397c0.34341,0.03337 0.66153,0.19529 0.89058,0.45332c0.40707,0.42392 0.34586,1.19704 1.07704,1.30603c0.61887,0.09356 1.33462,-0.24634 1.92679,-0.37582c0.54742,-0.1197 1.35966,-0.17598 1.37481,-0.89491c0.00364,-0.29862 0.37706,-0.63398 0.56553,-0.85031c0.27701,-0.26868 0.62842,-0.44785 1.00856,-0.51424c0.74019,-0.09567 1.20202,-0.4807 1.81222,-0.84302c0.77444,-0.45614 3.36686,-0.60661 3.24527,0.86777c-0.0135,0.1659 -0.05229,0.32876 -0.11502,0.48293c-0.17474,0.44578 -0.55143,0.78164 -1.01426,0.90431c-0.39067,0.08638 -0.78977,0.12879 -1.18987,0.12644c-0.44637,0.00798 -0.70597,-0.00006 -1.13733,0.31626c-0.2796,0.20316 -0.38351,0.59817 -0.64905,0.78998c-0.44659,0.31698 -0.9151,0.60188 -1.40199,0.85259c-0.61036,0.32375 -1.13426,0.96089 -1.638,1.4254c-0.79258,0.77295 -1.69245,1.42762 -2.67184,1.94378l1.41924,0.90993c0.63184,0.4051 1.30579,0.50455 2.01532,0.70376c0.36055,0.09765 0.83409,0.30847 1.01434,0.66617c0.14422,0.2873 0.2636,0.5864 0.35682,0.89406c0.15787,0.49495 0.41623,0.61082 0.74374,0.92941c0.73171,0.72936 -0.0145,1.43441 -0.76335,1.57886c-0.46288,0.09019 -0.93309,-0.11172 -1.3817,0.03739c-0.49534,0.18257 -1.04597,0.13751 -1.50505,-0.12316c-0.09325,-0.04504 -0.15632,-0.13539 -0.16648,-0.23846c-0.01015,-0.10306 0.03408,-0.20398 0.11676,-0.26635l-0.00802,-0.00514c-0.49546,-0.2543 -0.86811,-0.70366 -1.28756,-1.14004c-0.59834,-0.62845 -1.46826,-0.92116 -2.3248,-0.78224c-0.23218,0.04801 -0.43345,-0.09689 -0.61993,-0.21192c-0.7261,-0.44516 -0.86425,0.31032 -1.21846,0.80281c-0.42953,0.59582 -0.89133,1.1008 -1.26185,1.74577c-0.32778,0.57776 -1.04392,0.80752 -1.64664,0.52828c-0.67421,-0.32138 -0.88089,0.2657 -1.13794,0.75486c-0.33392,0.62318 -0.82702,1.1805 -1.2551,1.73878c-0.42808,0.55827 -0.79132,1.16718 -1.23062,1.71826c-0.4393,0.55108 -0.93622,0.98377 -1.36101,1.51926c-0.20823,0.26477 -0.34689,0.69633 -0.62661,0.89262c-0.31793,0.21705 -0.46028,-0.03035 -0.79258,0.03267c-0.77207,0.14539 -0.81104,0.47793 -0.98031,1.14783c-0.07677,0.35676 -0.26991,0.67789 -0.54909,0.9129c-0.55455,0.37083 -0.863,0.76369 -1.27282,1.27936c-0.28557,0.3713 -0.62153,0.73294 -1.096,0.79533c-0.10638,0.01355 -0.21437,0.00724 -0.31845,-0.01861c0.20629,-0.47868 0.30021,-0.99825 0.27457,-1.51886z" fill="#805336"/><path d="" fill="#d3ccbc"/><path d="M213.55513,130.20561c0.52079,-0.36759 0.67132,-0.24753 1.26653,-0.50179c0.8008,-0.34195 1.55907,-1.11169 2.51612,-0.95971c0.89924,0.1398 1.68302,0.67853 1.89292,1.60057c0.21749,0.96313 0.11526,1.98377 -0.01747,2.95316c-0.1222,0.87884 -0.59146,3.24138 0.92983,3.2686c0.35198,-0.00122 0.70171,-0.0563 1.03703,-0.16334c-0.79598,0.34504 -1.61388,0.6466 -2.31636,1.16698c-0.79169,0.58539 -1.48843,1.30859 -2.22041,1.95262c-0.53518,0.47549 -3.38537,-0.75006 -3.38537,-0.75006c0,0 -0.2362,-8.19394 0.29718,-8.56704z" fill="#67633d"/><path d="M228.29098,245.62624c0,0 1.56458,-1.92444 1.7131,-3.37023c0.06469,-0.63738 -0.00845,-1.29977 0.01915,-1.94283c0.0652,-0.82107 0.05504,-1.64641 -0.03035,-2.46563c-0.16028,-1.16179 -0.59506,-2.24838 -0.70706,-3.429c-0.07372,-0.75328 -0.23873,-1.47004 -0.34825,-2.21686c-0.02768,-0.22788 -0.12194,-2.19582 -0.05985,-2.15149c0.14985,0.09236 1.56244,0.45178 1.65565,0.30244c0.11538,-0.17981 1.44912,2.77238 1.53417,2.20841c0.09565,-0.50213 -0.15087,-1.13765 -0.17299,-1.63609c-0.02652,-0.62572 -0.10555,-1.1448 -0.55091,-1.61136c-0.51698,-0.54191 -0.76024,-1.23191 -1.09846,-1.88322c-0.22979,-0.43924 -0.48641,-0.7237 -0.45557,-1.24475c0.04309,-0.26106 0.04261,-0.52747 -0.00142,-0.78839c-0.18782,-0.6157 -1.26466,-0.92253 -1.78355,-1.30349c-0.62091,-0.44335 -0.46918,-1.8606 0.29083,-2.50249c0.41666,-0.34507 0.90537,-0.59234 1.43019,-0.72363c0.65472,-0.17764 1.46099,-0.24226 2.03291,-0.64722c0.15576,-0.10273 0.31872,-0.19411 0.4876,-0.27347c0.15662,0.06072 0.30871,0.13252 0.45512,0.21485c0.16037,0.10282 0.29853,0.20498 0.44002,0.31606c0.02245,0.01439 0.0433,0.02776 0.05958,0.05178c0.35309,0.32957 0.65909,0.70622 0.90935,1.11933c0.0199,0.04896 0.03931,0.09987 0.05822,0.15273c0.40944,1.23554 0.16219,2.53883 0.64613,3.77462c0.40427,1.03536 1.45578,1.68237 2.07312,2.576c0.30135,0.44072 0.48012,0.95362 0.51802,1.48618c0.06736,0.75559 0.2193,1.50122 0.45298,2.22292c1.50653,4.25385 -0.90713,8.51968 -3.09978,12.02432c-1.3609,2.17557 -6.46795,1.7405 -6.46795,1.7405z" fill="#67633d"/><path d="" fill="#67633d"/><path d="" fill="#67633d"/><path d="" fill="#67633d"/><path d="M228.30595,216.83229c0.7016,0.16923 1.28813,0.58149 1.8332,1.06898c-0.10247,0.08223 -0.19904,0.17153 -0.28902,0.26727c-0.3881,0.40062 -0.9129,1.04623 -1.39561,1.29794c-0.40675,0.21442 -0.93004,0.32471 -1.25443,0.68245c-0.37249,0.43598 -0.69572,0.91173 -0.96385,1.41862c-0.19416,0.34167 -0.58194,0.90768 -0.64575,0.20601c-0.00533,-0.18384 -0.02824,-0.36676 -0.06843,-0.54623c-0.09603,-0.28785 -0.32764,-0.71015 -0.668,-0.77224c0.04464,-0.28139 0.09891,-0.55662 0.15765,-0.81765c0.35373,-1.55409 1.51264,-3.23461 3.29425,-2.80515z" fill="#67633d"/><path d="M214.52389,185.71124c0.15868,0.48344 0.43652,0.91917 0.8079,1.26698c0.41941,0.40467 0.88715,0.73397 1.30142,1.14666c0.28641,0.29027 -1.02451,-6.7601 -1.24653,-7.48104c0.42337,-0.20151 5.75683,0.41403 5.91313,0.24481c0.30338,-0.32143 0.33211,-0.04504 0.48275,0.25294c0.22683,0.45092 0.48994,0.89115 0.69847,1.35296c0.20853,0.46182 0.72973,1.26892 1.31033,0.75863c0.81842,-0.71533 0.3374,-3.6578 -0.12297,-4.69744c-0.69381,-1.56495 7.07274,4.0094 7.04159,3.80643c0.05687,-0.03564 0.10917,-0.0781 0.15573,-0.12644c0.42778,1.7293 0.42044,3.89016 -0.2655,5.39417c-0.5717,1.24463 -1.40162,2.29203 -1.82351,3.61007c-0.45554,1.41641 -0.84911,2.87028 -1.22405,4.30216c-0.37494,1.43188 -1.14269,2.58701 -1.73319,3.90331c-0.61311,1.30152 -1.0827,2.66593 -1.40048,4.0691c-0.27414,1.30642 -0.59234,2.33567 -1.35096,3.4695c-0.70782,1.03707 -1.61132,1.92597 -2.65981,2.61678c-0.70322,0.47918 -1.63004,1.19063 -2.55255,0.93182c-0.79581,-0.20196 -1.3901,-0.86568 -1.50328,-1.67888c-0.14387,-0.83446 0.32256,-1.58313 0.29536,-2.39484c-0.00511,-0.34497 -0.01227,-0.68674 -0.01636,-1.03331c0.00276,-1.02784 0.0512,-2.04223 0.08072,-3.08006c0.0433,-1.47931 -0.46948,-2.70191 -0.9155,-4.09215c-0.39973,-1.2542 -0.5282,-2.70561 -0.76122,-4.00454c-0.21714,-1.01895 -0.12287,-2.07966 0.27054,-3.04435c0.34295,-0.8853 0.36593,-2.86629 -0.47114,-3.37985c-0.31811,-0.19517 -0.4416,-2.48376 -0.31089,-2.11341z" fill="#67633d"/><path d="" fill="#67633d"/><path d="" fill="#805336"/><path d="" fill="#c8bc80"/><path d="M264.95902,188.10037c-0.41578,0.50733 -1.08448,0.75972 -1.6709,1.00377c-0.42694,0.17884 -0.96652,0.35336 -1.30687,0.67598c-0.12326,0.16105 -0.23653,0.32948 -0.33921,0.50437c-0.31142,0.37024 -0.69156,0.67671 -1.11945,0.9025c-0.2483,0.15081 -0.49948,0.28847 -0.75124,0.42349c-1.68197,-0.47194 -2.78681,-2.23931 -4.26158,-3.1509c-0.97844,-0.60922 -2.1434,-0.89223 -3.1858,-1.38405c-0.42089,-0.22044 -0.81711,-0.48509 -1.18194,-0.78947c-0.85269,-0.63948 -1.3183,0.68675 -1.54295,1.27362c-0.37343,0.9848 -0.35715,2.1312 -0.60302,3.15704c-0.17025,0.70321 -1.01992,1.23785 -1.59215,1.56567c-0.54831,0.30991 -1.16055,0.48954 -1.78938,0.52503c-0.7784,0.02818 -1.50476,-0.25422 -1.82362,-1.09453c-0.18721,-0.48911 -0.23798,-1.01989 -0.14689,-1.53563c0.25257,-1.53749 1.52499,-2.86915 1.29262,-4.57499c-0.04821,-0.25776 -0.13833,-0.50588 -0.26678,-0.73449c-0.14246,-0.24739 -0.249,-0.5138 -0.31642,-0.79121c-0.10004,-0.51754 -0.128,-1.04643 -0.08307,-1.57164c0.05429,-0.62822 0.16919,-1.20625 0.04332,-1.83231c-0.14309,-0.6733 -0.56573,-1.28823 -0.91749,-1.86902c-0.26151,-0.42163 -0.47015,-0.87383 -0.6212,-1.34642c-0.25678,-0.80164 -0.22783,-1.6675 0.08195,-2.45019c0.13871,-0.38335 0.31928,-0.75021 0.53845,-1.09396c0.42554,-0.65145 0.98692,-1.20318 1.64566,-1.61736c0.60283,-0.38966 2.26284,0.18358 2.35904,-0.61236c0.00865,-0.23236 -0.04414,-0.46291 -0.15304,-0.66836c-0.49892,-1.12773 -1.49503,-2.0447 -2.36752,-2.87564c-1.01415,-0.98059 -1.896,-2.15696 -3.04755,-2.9903c-0.21091,-0.15106 -0.38364,-0.44283 -0.63374,-0.45157c-0.14601,-0.00637 -0.29227,-0.0034 -0.43791,0.00889c-0.33029,0.03721 -0.65166,0.13127 -0.94989,0.27803c-0.9082,0.39301 -2.43724,-0.1551 -3.34174,-0.382c-0.57269,-0.14089 -1.20688,-0.58822 -1.76492,-0.82607c-0.31894,-0.1468 -0.62665,-0.31686 -0.92064,-0.50879c-0.66836,-0.40815 -1.3484,-0.81926 -1.88969,-1.39032c-1.23993,-1.31316 0.59694,-2.22637 1.6728,-2.64088c0.97199,-0.37249 1.85819,-0.22294 2.86218,-0.16533c1.29862,0.07454 2.22766,1.37846 3.40227,1.78759c0.45849,0.15291 0.93186,0.25692 1.41223,0.31029c0.85112,0.07969 1.70576,0.11556 2.56056,0.10745c0.05965,0.00098 0.11928,-0.00238 0.17843,-0.01006l0.06143,0.06654c0.344,0.34591 0.62013,0.75322 0.81412,1.20082c0.13905,0.35843 0.10658,0.7585 0.25648,1.10353c0.19212,0.43093 0.54191,0.99009 0.6371,1.43808c0.0952,0.44799 0.04422,0.87692 0.13548,1.28165c0.18067,0.79469 0.46515,1.69216 1.11479,2.23539c0.5204,0.43774 0.8143,0.97465 1.2553,1.43389c0.15254,0.1607 0.32298,0.3034 0.50802,0.42528c0.71651,0.4707 1.03051,-0.35081 1.55685,-0.58586c0.02883,-0.0132 0.61439,0.16761 0.72315,0.19209c0.54606,0.0695 1.19565,0.10808 1.64225,0.46682c-0.06128,0.13328 -0.01247,0.29132 0.1133,0.36682c0.3496,0.22414 0.30224,0.53095 -0.01495,0.78921c-0.51468,0.41451 -0.9293,0.36591 -1.48187,0.10894c-0.22795,-0.11931 -0.49853,-0.12543 -0.73164,-0.01651c-0.4961,0.15261 -1.09065,0.76935 -0.87489,1.33989c0.01114,0.03204 0.22028,0.61644 0.29225,0.50418l-0.30845,0.4811c-0.23134,0.36083 -0.75395,0.27242 -1.07932,0.48696c-0.2801,0.15476 -0.49173,0.40925 -0.59283,0.71288c-0.09794,0.3151 0.09435,0.87285 -0.07358,1.14536c-0.25292,0.36644 -0.40093,0.795 -0.42805,1.23942c-0.01116,0.32095 0.21798,1.1671 0.09767,1.44297c-0.17508,0.40368 -0.3375,0.68877 -0.44086,0.96646c-0.13988,0.36289 -0.17791,0.71868 -0.00767,1.31434c0.21471,0.74863 0.935,1.31227 1.72394,1.19353c1.44582,-0.20447 2.69749,0.70212 3.84482,1.44676c0.43613,0.31449 0.94302,0.51668 1.47586,0.58869c0.73858,0.0798 1.0964,-0.09359 1.81028,0.28944c0.52022,0.27922 1.07625,0.46374 1.58174,0.77651c0.40368,0.26819 0.85359,0.4592 1.32691,0.56335c0.82037,0.13224 1.55823,-0.47861 1.89685,-1.19382c0.38311,-0.82696 0.32556,-1.47485 -0.03346,-2.28432c-0.14057,-0.25763 -0.12645,-0.57202 0.03666,-0.81602c0.33823,0.42164 0.64305,0.869 0.91169,1.33806c0.3135,0.56985 0.80379,1.2734 1.56414,1.1816c0.1958,-0.03742 0.38263,-0.11197 0.5504,-0.21963c0.20349,0.24095 0.44683,0.44518 0.71942,0.60381c0.98754,0.55621 0.68543,2.86983 0.39376,3.22592z" fill="#c8bc80"/><path d="M259.04315,220.7596c-0.85151,0.51988 -1.4872,1.37725 -2.28505,1.97226c-0.59338,0.4455 -1.10815,0.9731 -1.72114,1.38567c-1.09333,0.73821 -2.58337,0.62694 -2.52789,-0.99844c0.02473,-0.74446 0.60925,-1.41969 1.02862,-1.9926c0.7047,-0.95796 1.64907,-1.63327 2.42322,-2.51955c0.5009,-0.61957 1.18643,-1.06316 1.95684,-1.26623c0.40504,-0.08589 0.8236,-0.08582 1.2286,0.00023c0.63286,0.10705 1.26019,0.28975 1.88781,0.13322c0.36439,-0.09661 0.71262,-0.24616 1.03359,-0.44387c0.732,-0.43584 1.42465,-0.94742 1.42465,-0.94742l-0.44994,14.16974c0,0 -0.13584,1.23895 -0.37488,1.76003c-0.29021,0.72715 -1.08002,1.1206 -1.83526,0.91424c-0.4051,-0.06911 -0.7846,-0.2445 -1.09976,-0.50823c-0.3732,-0.33205 -0.27226,-1.18832 -1.0645,-0.78206c-0.79224,0.40626 -1.38617,1.44203 -2.01332,2.06728c-0.83262,0.80806 -1.60705,1.6489 -2.57067,2.31186c-0.68229,0.46771 -3.13598,1.46065 -3.16069,-0.21614c-0.01998,-1.17592 0.93201,-2.37134 1.69961,-3.18035c0.78438,-0.78585 1.61326,-1.52599 2.48254,-2.21676c1.24941,-1.05225 2.02236,-2.44844 2.89117,-3.80354c0.8102,-1.2637 1.78399,-2.51075 2.33385,-3.91194c0.16888,-0.42576 0.54617,-0.95776 0.61431,-1.40286c0.06328,-0.39164 -0.59436,-0.73182 -0.87513,-0.83036c-0.22316,-0.05904 -0.4606,-0.02744 -0.66055,0.0879c-0.12573,0.06619 -0.2479,0.13893 -0.366,0.21791z" fill="#805336"/><path d="M230.97023,218.57908c0.14754,-0.46659 0.45992,-1.43207 0.53524,-1.71191c0.3637,-1.35082 -0.80031,-2.08354 -1.25792,-3.11689c-0.39479,0.26282 -0.78132,0.54451 -1.1706,0.81992c-0.38929,0.2754 -0.65183,0.66374 -1.05168,0.90974c-1.15456,0.74195 -2.55274,1.158 -3.11486,2.55358c-0.42656,1.05708 -0.14153,2.01372 -0.81441,2.97851c-0.07867,0.08661 -0.1522,0.17772 -0.22023,0.27291c-0.44041,0.47169 -1.11886,0.63685 -1.72679,0.42034c-1.63249,-0.54203 -2.62768,-2.58986 -1.40374,-3.97297c0.55881,-0.63513 1.25838,-1.11212 1.8322,-1.73536c0.32969,-0.34786 0.59625,-0.75049 0.78774,-1.18984c0.09011,-0.22332 0.11648,-0.46727 0.07617,-0.7047c-0.13177,-0.77919 -0.96023,-0.59528 -1.44597,-0.3953c-0.92425,0.38274 -1.60041,0.89736 -2.61729,1.06456c-1.07069,0.17523 -1.98887,0.17548 -2.85074,0.58468c-0.32865,0.15604 -0.4913,-2.63342 -0.21371,-2.80964c0.88673,-0.56291 1.70211,-1.24973 2.60332,-1.78178c1.76849,-1.04304 4.00997,-0.72378 5.59861,0.55724c0.38175,0.30811 0.68601,0.8924 1.208,0.47353c0.41885,-0.33564 0.8162,-0.66245 1.24101,-0.98974c1.30462,-1.00779 2.10952,-2.77497 2.98816,-4.14188c0.74646,-1.16427 1.44245,-2.31337 2.42789,-3.29272c0.25287,-0.24971 0.52192,-0.48228 0.79691,-0.70649c0.21435,0.06442 0.44325,0.06198 0.65618,-0.00698c0.3222,-0.09665 0.73738,-0.34186 1.07552,-0.31515c0.21291,0.03427 0.43086,0.01917 0.63702,-0.04415c0.56459,-0.22411 0.77271,-0.93698 1.30057,-1.14617c0.41871,-0.16602 0.35873,3.77818 -0.48643,5.09639c-0.11573,0.11913 -0.2537,0.21441 -0.4061,0.28046c-0.52206,0.27346 -0.83613,0.8268 -0.80327,1.41523c0.03342,0.66557 0.21092,1.31597 0.52025,1.90625c0.20784,0.46922 0.47387,0.91043 0.79182,1.31325c0.33502,0.35806 0.62967,0.75186 0.87864,1.1743c0.25136,0.45644 0.27887,1.00312 0.0746,1.48249c-0.07522,0.16674 -0.86498,1.77618 -0.7648,1.79289c1.17512,0.17186 0.872,3.78591 0.51813,4.56374c-0.00718,0.01996 -0.01878,0.03806 -0.03392,0.05292v0c1.09863,1.27236 0.4538,8.35582 -0.26177,6.96248c-0.69166,-1.40009 -1.31015,-2.83518 -1.85294,-4.29944c-0.11122,-0.28533 -0.24661,-0.56064 -0.4047,-0.82292c-0.25026,-0.41311 -0.55626,-0.78976 -0.90936,-1.11932c-0.02245,-0.01439 -0.0433,-0.02776 -0.05958,-0.05178c-0.13541,-0.12021 -0.28287,-0.22611 -0.44002,-0.31606c-0.14641,-0.08233 -2.15243,-1.898 -2.23717,-2.00423z" fill="#c8bc80"/><path d="M248.09794,242.75181c1.64396,-1.5053 4.09651,-1.38113 6.14948,-2.08789c0.46322,0.2834 1.33148,0.07976 1.73448,-0.0194c0.61812,-0.15584 1.21311,-0.12738 1.83573,-0.14908c0.43996,-0.0121 0.84426,0.19733 1.27941,0.18215c0.49313,-0.01595 0.97542,-0.14882 1.40714,-0.38767c0.61244,-0.35356 1.28779,-0.5846 1.98846,-0.68024c0.50142,-0.0506 0.08925,1.18477 -0.20959,1.28735c-0.89595,0.31036 -1.19801,-0.51074 -1.52007,0.53867c-0.28797,0.94681 1.28883,2.65539 1.28245,2.68298c-0.0162,-0.10272 -1.09343,0.55128 -1.14498,0.46096c-0.36548,-0.66879 -1.14433,-1.32293 -1.78565,-1.13444c-0.7991,0.22989 -1.60522,0.89428 -2.09269,1.5593c-0.45136,0.61576 -5.33566,1.09384 -10.89292,0.30917c-0.95641,0.11303 0.42298,-1.14973 1.96874,-2.56185z" fill="#bca583"/><path d="" fill="#805336"/><path d="" fill="#c8bc80"/><path d="" fill="#805336"/><path d="M221.35267,237.20703c-0.07879,-0.0112 -0.15791,0.01803 -0.21051,0.07774c-0.27329,0.32036 -0.71327,0.68544 -1.14033,0.76917c-0.42706,0.08372 -0.75133,-0.11286 -0.80974,-0.42412c-0.02633,-0.16722 0.01345,-0.33812 0.11091,-0.47651l0.30845,-0.4811c0.21387,-0.33357 0.59428,-0.75043 0.7085,-1.12976c0.17374,-0.56746 -0.25322,-1.15801 0.1506,-1.71374c0.5638,-0.76996 1.13811,-1.27748 1.45059,-2.2131c0.36253,-1.09135 0.73161,-2.17171 1.38766,-3.13144c0.35282,-0.51531 0.7556,-0.99456 1.20247,-1.43082c0.29758,-0.2912 0.50093,-0.23776 0.84426,-0.36386c0.56598,-0.20512 0.85554,-0.02852 0.92852,0.59531c0.03879,0.36656 0.09064,0.37039 0.40611,0.57718l0.03528,0.02262c-0.77833,1.21398 -1.62459,2.38214 -2.46764,3.55236c-0.87196,1.20825 -2.13406,2.55559 -2.57845,4.00403c-0.15392,0.57946 -0.26314,1.16986 -0.32668,1.76603z" fill="#c8bc80"/><path d="M223.37793,224.05069c-0.19598,0.44685 -0.62944,0.82292 -0.92863,1.20134c-0.37691,0.43945 -0.65867,0.95224 -0.82753,1.50602c-0.16454,0.60958 -0.21624,1.29375 -0.45899,1.87356c-0.28977,0.699 -0.76542,1.28562 -1.11555,1.94818c-0.37056,0.70151 -0.57018,1.35875 -1.08426,1.98409c-0.23064,0.28208 -0.2395,0.52532 -0.23541,0.87189c0.00594,0.12494 0.03557,0.2476 0.08732,0.36147c0.17379,0.41012 -0.16945,0.89607 -0.37393,1.22207c-0.30126,0.46988 -0.22875,0.88973 -0.42572,1.3699c-0.13536,0.32053 0.01072,0.54092 -0.11501,0.86762c-0.12802,0.30481 -0.28658,0.59587 -0.47325,0.86874c-0.14395,0.22451 -0.45275,0.50853 -0.3313,0.7991c0.10159,0.2439 3.83421,-0.56259 4.10706,-0.87878c-0.06672,0.22931 -0.15362,0.45226 -0.2597,0.66624c-0.72024,1.44809 -1.8706,2.71997 -2.74352,4.0815c-0.24314,0.37923 -0.72782,1.13813 -0.72782,1.13813c0,0 -0.2391,-2.14839 -0.21424,-4.40406c0.02454,-2.22604 0.31523,-4.55656 -0.00741,-5.0298c0.28001,-0.6238 0.57067,-1.24303 0.90244,-1.83815c0.69583,-1.27591 1.56591,-2.44239 2.16199,-3.77094c0.52954,-1.17888 0.90776,-2.54529 1.74735,-3.5548c0.39161,-0.47354 0.83283,-0.90376 1.31608,-1.28331z" fill="#c8bc80"/><path d="" fill="#c8bc80"/><path d="M262.84672,196.9539c-0.1017,0.00704 -0.20383,0.00444 -0.30505,-0.00776c-0.98321,-0.10765 -1.00796,-1.16671 -0.52994,-1.97583c0.28102,-0.42736 0.62579,-0.80918 1.02234,-1.13221c0.0715,-0.05976 0.1433,-0.12235 0.21541,-0.18775l0.11273,-0.10876c-0.2316,-0.4223 -0.47841,-0.45382 -0.73632,-0.10098c-0.24391,0.18984 -0.46018,0.41776 -0.71544,0.59354c-0.74439,0.51162 -1.60929,0.84414 -2.45063,1.16462c-0.48439,0.18727 -1.60278,0.82342 -2.12853,0.41167c-0.21724,-0.18866 -0.40733,-0.40648 -0.56484,-0.64726c-0.32376,-0.43386 -0.73073,-0.11323 -1.10684,0.07105c-0.33104,0.16339 -0.62836,0.20359 -0.91903,-0.03482c-0.05073,-0.05342 -0.06902,-0.12988 -0.04797,-0.20047c0.29845,-0.98081 1.07865,-1.41064 1.97806,-1.79345c1.06094,-0.45123 2.09227,-0.87392 3.09622,-1.40921c0.25176,-0.13502 0.50293,-0.27268 0.75124,-0.42349c0.42789,-0.22578 0.80803,-0.53225 1.11945,-0.9025c0.10267,-0.17489 0.21595,-0.34333 0.33921,-0.50437c0.34035,-0.32261 0.88096,-0.49873 1.30687,-0.67598c0.58641,-0.24405 1.25511,-0.49644 1.6709,-1.00377c0.29166,-0.35609 -0.6666,8.76216 -2.10784,8.86773z" fill="#d3ccbc"/><path d="" fill="#55372c"/><path d="M264.55153,184.8748c-0.27258,-0.15864 -0.51591,-0.36287 -0.71942,-0.60381c-0.37832,-0.4507 -0.66608,-0.97019 -0.84748,-1.52996c-0.16397,-0.4735 -0.27052,-0.96499 -0.31735,-1.46389c-0.05336,-0.67913 0.14379,-1.38547 0.03689,-2.04461c-0.05838,-0.32365 -0.16181,-0.63752 -0.3073,-0.93246c-0.06184,-0.11885 -0.52995,-1.41463 -0.92871,-0.36914c-0.21597,0.56981 -0.57163,1.01159 -0.38874,1.66515c0.12313,0.44326 0.30486,0.79511 0.33965,1.26321c0.0297,0.41957 -0.27663,0.66442 -0.50887,0.94547c-0.04051,0.04912 -0.07806,0.10061 -0.11244,0.15419c-0.16311,0.244 -0.17722,0.55838 -0.03666,0.81602c0.36107,0.80626 0.42343,1.45723 0.03345,2.28432c-0.33219,0.71931 -1.07647,1.32605 -1.89684,1.19382c-0.47332,-0.10415 -0.92323,-0.29516 -1.32691,-0.56335c-0.49504,-0.29024 -1.0512,-0.48163 -1.56006,-0.74678c-0.71389,-0.38302 -1.0717,-0.20964 -1.81028,-0.28944c-0.53284,-0.07202 -1.03974,-0.27421 -1.47586,-0.5887c-1.15143,-0.73823 -2.39386,-1.65924 -3.84481,-1.44676c-0.78893,0.11874 -1.50921,-0.44489 -1.72394,-1.19353c-0.17024,-0.59567 -0.13324,-0.94985 0.00767,-1.31434c0.10336,-0.2777 0.26578,-0.56277 0.44086,-0.96645c0.1203,-0.27588 -0.10885,-1.12202 -0.09767,-1.44297c0.02712,-0.44442 0.17514,-0.87298 0.42805,-1.23942c0.17273,-0.26941 -0.02437,-0.83025 0.07358,-1.14536c0.10109,-0.30363 0.31271,-0.55811 0.59282,-0.71288c0.32537,-0.21454 0.8521,-0.13255 1.07932,-0.48696l0.30845,-0.4811c-0.07197,0.11226 -0.28111,-0.47215 -0.29226,-0.50418c-0.21577,-0.57055 0.37878,-1.18728 0.87489,-1.33989c0.23311,-0.10891 0.50368,-0.10281 0.73164,0.01651c0.55257,0.25697 0.9672,0.30557 1.48187,-0.10894c0.31308,-0.25184 0.36089,-0.56289 0.01495,-0.78921c-0.12171,-0.07766 -0.167,-0.23351 -0.10587,-0.36431c-0.44821,-0.35977 -1.10101,-0.40041 -1.64225,-0.46682c-0.11391,-0.01645 -0.69432,-0.20529 -0.72315,-0.19209c-0.52942,0.23987 -0.84342,1.06136 -1.55684,0.58586c-0.18504,-0.12188 -0.35549,-0.26457 -0.50802,-0.42528c-0.44203,-0.45764 -0.7349,-0.99615 -1.2553,-1.43389c-0.64964,-0.54323 -0.93721,-1.43588 -1.11479,-2.23539c-0.09125,-0.40472 -0.04397,-0.86319 -0.13548,-1.28165c-0.0915,-0.41846 -0.44498,-1.00715 -0.6371,-1.43808c-0.1499,-0.34503 -0.11331,-0.75151 -0.25647,-1.10353c-0.19399,-0.4476 -0.47013,-0.8549 -0.81412,-1.20082l-0.06142,-0.06654c-0.28125,-0.30252 -0.67508,-0.75415 -0.70893,-1.19901c-0.00736,-0.09805 0.00434,-0.19659 0.03444,-0.29019c0.23996,-0.70605 0.72972,-1.27229 1.16245,-1.86606c-0.4886,-0.29411 -0.92233,-0.67097 -1.2818,-1.11372c-0.42656,-0.53824 -0.81125,-1.09941 -1.26959,-1.61277c-0.42763,-0.48009 -0.89013,-0.9305 -1.35103,-1.37987c-0.34733,-0.33356 -0.81429,-0.58995 -0.98302,-1.0715c-0.12329,-0.35765 -0.12633,-0.74578 -0.00867,-1.10532c0.0557,-0.22452 0.47827,-0.70714 0.02878,-0.90254c-0.31527,-0.13651 -0.85682,0.01637 -1.19049,0.0921c-0.55544,0.11456 -1.11314,0.16205 -1.66155,0.31506c-0.62782,0.17451 -1.22542,0.82776 -1.78207,1.1701c-0.50072,0.30804 -1.72101,0.7431 -2.23495,0.25293c-0.67952,-0.64838 -0.33161,-1.52281 0.11006,-2.20816c0.03804,-0.05933 0.07609,-0.11867 0.11207,-0.1748c0.53654,-0.78744 0.97183,-1.0605 2.00153,-1.13123c0.97533,-0.06712 1.04557,-0.57196 1.64394,-1.15231c0.29931,-0.2833 0.85997,-0.25423 1.23578,-0.30745c0.25187,-0.03991 0.83376,-0.24161 1.40167,-0.36855c0.66118,-0.14182 1.32533,-0.17536 1.52219,0.28349c0.07353,0.20848 0.08107,0.43454 0.02162,0.64747c-0.17365,0.83908 0.62395,0.79153 1.04173,1.16346c0.24768,0.21833 0.39875,0.52593 0.42007,0.85541c0.10607,0.73103 0.34084,1.12368 1.01074,1.46944c0.51194,0.26034 0.68667,0.78195 0.88817,1.29356c0.42963,1.09461 0.89997,2.33751 1.65238,3.24986c0.01501,0.0173 0.02909,0.03539 0.04219,0.0542c0.2907,0.35836 0.5272,0.7589 0.79492,1.13194c0.15994,0.22701 0.31187,0.44887 0.48956,0.48585c0.11987,0.02481 0.24983,-0.0367 0.40523,-0.24028c0.10684,-0.16978 0.25012,-0.31369 0.41944,-0.42126c0.92306,-0.50795 0.97085,1.04107 0.88011,2.29084l-0.02099,0.24451c-0.04852,0.56629 -0.11892,1.03256 -0.13057,1.14955c-0.11585,1.11599 1.25696,1.67482 2.0634,2.20996c0.05025,0.03222 0.09836,0.06306 0.14433,0.09254c0.59159,0.42908 0.94115,1.09445 1.37005,1.67492c0.16659,0.23409 0.35961,0.4482 0.57524,0.63809c0.1334,0.15064 0.2279,0.33163 0.27523,0.52721c0.15594,0.41678 0.51526,0.44576 0.90301,0.32099c0.47151,-0.18788 0.90995,-0.44993 1.29873,-0.77623c0.51011,-0.40386 0.31934,-1.32043 1.0979,-1.3983c0.1613,-0.02828 0.32744,-0.00147 0.47166,0.07611c0.15367,0.09544 0.32936,0.14963 0.5101,0.15733c0.26459,-0.01385 0.52502,-0.07174 0.77056,-0.17125c0.52905,-0.17221 0.85175,0.05505 1.13398,0.50075c0.28223,0.4457 0.23611,1.20588 0.25609,1.82061c0.00276,0.15369 0.01556,0.30702 0.03833,0.45904c0.09425,0.51301 0.40517,0.93864 0.71644,1.35318l0.16508,0.21899c0.33178,0.439 0.57128,0.94782 0.90055,1.39427c0.10274,0.11554 0.09895,0.29076 -0.00867,0.40176c-0.44055,0.4088 -0.98152,0.6936 -1.56788,0.82544c-0.51301,0.09425 -1.00133,0.15001 -1.48054,0.36097c-0.36435,0.1624 -0.65728,0.89107 -0.86188,1.21019c-0.26733,0.41696 -0.60118,0.71885 -0.08751,1.07533c0.59063,0.40583 0.89378,-0.10582 1.3418,-0.46577c0.23163,-0.19339 0.47616,-0.37078 0.73189,-0.53095c0.5013,-0.30542 0.48384,-0.63114 0.68287,-1.11451c0.03627,-0.10284 0.13306,-0.17196 0.2421,-0.1729c0.43009,-0.032 0.77654,0.04529 1.19485,-0.17303c0.14381,-0.08869 0.30785,-0.13928 0.47665,-0.14698c0.38662,-0.00693 0.75499,0.16418 0.9991,0.46406c0.29346,0.36466 0.33305,0.92408 0.37916,1.37454c0.08663,0.7916 0.38527,1.54516 0.86441,2.18121c0.09268,0.12209 0.19679,0.23507 0.31094,0.33739c0.50119,0.45711 0.55414,0.28548 0.8505,0.87149c0.29636,0.58601 0.09495,8.9446 -0.89156,8.38678z" fill="#55372c"/><path d="M230.68742,182.37273c0.02952,0.19838 -0.08966,0.38877 -0.28102,0.4489c0.05447,0.13423 0.09126,0.27497 0.10947,0.41867c0.03653,0.38774 -0.17609,1.08642 -0.63472,1.17706c-0.53759,0.1079 -0.85592,-0.37678 -1.16907,-0.74954c-0.36866,-0.46265 -0.65164,-0.21187 -0.63589,0.31416c0.00734,0.29208 0.00685,1.2105 0.18942,1.40222c0.0587,0.06138 0.08565,0.1465 0.07298,0.23048c-0.01266,0.08398 -0.06351,0.15736 -0.1377,0.19871c-0.54423,0.21001 -1.57425,0.76479 -1.83415,-0.14633c-0.21689,-0.7523 -0.2587,-1.52358 -0.55673,-2.26228c-0.1078,-0.26598 -0.3527,-0.42753 -0.53975,-0.63344c-0.08903,-0.09423 -0.15869,-0.205 -0.20505,-0.32607c-0.16548,-0.44779 -0.01942,-0.8203 0.10538,-1.25849c0.03591,-0.11954 0.05785,-0.51731 0.0936,-0.67542c0.10745,-0.4923 -1.3176,-1.37201 -0.62379,0.19294c0.46356,1.0417 -0.0464,1.83711 -0.86162,2.5545c-0.5806,0.51028 -1.10377,-0.31845 -1.31033,-0.75863c-0.20657,-0.44018 -0.47575,-0.89563 -0.69847,-1.35296c-0.15065,-0.29799 -0.18245,-0.56956 -0.48275,-0.25294c-0.15629,0.16921 -0.34315,0.30737 -0.55074,0.40722c-0.40128,0.1953 -0.69433,-0.11705 -1.05825,-0.25533c-0.41339,-0.15642 -0.83609,0.02288 -1.26991,-0.18285c-0.43382,-0.20573 -0.59915,0.12274 -1.05963,0.11037c-0.51382,-0.01036 -0.85622,0.22722 -1.27958,0.42872c0.22201,0.72095 0.49491,1.42523 0.8166,2.10756c0.24545,0.51717 0.73493,1.02786 0.6852,1.64542c-0.04013,0.41553 -0.15645,0.85463 -0.11302,1.27395c0.02572,0.25635 0.31762,0.56344 0.4503,0.77296c0.2417,0.3639 0.26008,0.83228 0.04761,1.214c-0.05264,0.083 -0.14516,0.13207 -0.24341,0.12906c-0.4069,0.02682 -0.80536,-0.12457 -1.09176,-0.41484c-0.41427,-0.41269 -0.88201,-0.74199 -1.30142,-1.14666c-0.37139,-0.34782 -0.64923,-0.78353 -0.8079,-1.26698c-0.13071,-0.37035 -0.12527,-9.33771 1.01484,-9.43947c0.9713,-0.08554 1.83617,0.58436 2.77352,0.34355c0.49228,-0.14854 0.99307,-0.26726 1.49966,-0.35551c0.81504,-0.10653 0.93594,-1.02921 1.27594,-1.63717c0.04371,-0.07101 0.11384,-0.12174 0.19496,-0.14103c0.08113,-0.01929 0.16658,-0.00555 0.23757,0.03818c0.45841,0.28032 0.82336,0.80169 1.40543,0.46207c0.39515,-0.25275 0.77438,-0.52954 1.13557,-0.8288c0.5203,-0.39505 0.88649,-0.92739 1.44323,-1.29456c0.55673,-0.36718 1.01958,-0.10438 1.45334,0.33439c0.41119,0.4175 0.59246,0.86183 1.17818,1.08123c0.33107,0.14313 0.60407,0.39392 0.77472,0.71167c0.15252,0.29107 0.27485,0.59697 0.36509,0.91293c0.15569,0.49129 0.6162,0.71187 0.93083,1.07878c0.19134,0.26332 0.31512,0.56957 0.36049,0.89188c0.08218,0.36949 -0.10277,1.0497 0.20777,1.24654c0.42497,0.27246 0.63165,1.28071 0.69687,1.73664c0.04146,0.29181 0.00312,0.58941 -0.1109,0.86121c-0.15051,0.19197 -0.31977,0.36848 -0.50526,0.5269c-0.04655,0.04834 -0.09886,0.0908 -0.15574,0.12643z" fill="#55372c"/><path d="M238.74898,201.90089c-0.15305,-0.01892 -0.45239,0.14443 -0.61614,0.17747c-0.48919,0.09594 -0.91617,-0.79106 -1.33283,-0.62824c-0.52786,0.20919 -0.73599,0.92205 -1.30057,1.14617c-0.20615,0.06333 -0.4241,0.07843 -0.63702,0.04416c-0.33814,-0.02672 -0.75333,0.2185 -1.07553,0.31515c-0.21293,0.06896 -0.44184,0.07141 -0.65619,0.00698c-0.80712,-0.24819 -1.20405,-1.4644 -1.38106,-2.17303c-0.19678,-0.78014 -0.72118,-1.2046 -1.23462,-1.75555c-0.1542,-0.16782 -0.25602,-0.37702 -0.29294,-0.60192c-0.0899,-0.41744 -0.41996,-0.67205 -0.65511,-0.99705c-0.28206,-0.40713 -0.58228,-0.67654 -0.41269,-1.18105c0.07868,-0.2392 0.3552,-0.43755 0.29741,-0.71446c-0.05018,-0.22815 -0.02802,-0.46625 0.06338,-0.68122c0.2659,-0.55591 0.23186,-1.24754 0.50175,-1.81673c0.42823,-0.9044 1.20352,-1.69716 1.42208,-2.68395c0.15117,-0.67697 0.1891,-1.77731 0.55546,-2.35932c0.39894,-0.62223 0.14986,-1.10551 0.23305,-1.68351l-0.1748,-0.11207c-0.10743,-0.06507 -0.15594,-0.19551 -0.11713,-0.31496c0.30374,-0.68552 0.87051,-0.52128 1.42147,-0.17708c0.36082,0.23134 0.43522,0.69767 0.54786,1.08669c0.11265,0.38903 0.47986,1.06571 0.32701,1.50176c-0.17935,0.42789 -0.40757,0.8336 -0.68013,1.20905c-0.08122,0.12669 0.20446,0.49993 0.23586,0.63095c0.04349,0.18628 -0.06995,0.46204 -0.1249,0.63952c-0.32659,1.00352 -0.48944,2.15047 -1.13187,3.01484c0.81562,0.36905 1.88425,-1.10007 2.29299,-1.5576c0.52739,-0.58965 1.16417,-0.64753 1.91682,-0.66734c1.15039,-0.02955 2.65738,-0.19576 2.92223,1.02175c0.08484,0.40062 0.16231,3.00995 -0.13918,3.01641c-0.61703,0.00945 -1.15303,-0.26632 -1.71803,-0.47921c-0.80226,-0.30164 -1.55818,0.51032 -2.26116,1.00324c0.59382,0.28794 1.28825,0.58834 1.47124,1.21707c0.21481,0.72381 -1.02475,1.41127 -1.51753,1.66104c-0.00925,0.01443 -0.47707,0.27116 -0.46161,0.27881c0.2216,0.09908 0.58018,-0.00139 0.80196,-0.04024c0.3699,-0.07099 0.73587,-0.16114 1.09642,-0.27008c0.54796,-0.14877 2.48622,-0.05653 2.52035,0.06523c0.23912,0.66471 0.18996,3.06818 -0.22347,2.96652c-0.15901,-0.04418 -0.32014,-0.08027 -0.4828,-0.10815z" fill="#d3ccbc"/><path d="M255.68054,245.17894c0.48747,-0.66503 2.62569,-1.50316 3.42479,-1.73305c0.64131,-0.1885 2.21941,0.74453 2.23561,0.84724c0.01439,-0.02245 0.01379,-0.05678 0.01752,-0.0838c0.14462,-0.9844 -0.89293,-1.82613 -0.60497,-2.77294c0.32207,-1.0494 0.35953,-1.4981 -0.2493,-1.14646c-0.42807,0.24109 -0.9071,0.37749 -1.39797,0.39807c-0.43515,0.01518 -0.83945,-0.19425 -1.27941,-0.18215c-0.63065,0.01657 -1.21761,-0.00676 -1.83573,0.14909c-0.40609,0.10397 -1.27744,0.31243 -1.73448,0.0194c-0.15403,-0.08897 -0.26169,-0.2406 -0.29489,-0.41535c-0.41175,-2.1037 2.56861,-2.39691 3.91251,-2.74593c0.92098,-0.24 1.39123,-0.95227 1.95736,-1.59175c0.29369,-0.36188 2.6258,-1.18282 3.0367,-1.40274c0.17143,-0.0857 -0.32436,2.79607 -0.30727,4.60185c0.02149,2.27061 0.45658,4.2129 -0.5959,4.96243c-1.6667,1.18695 -6.73697,1.71347 -6.28458,1.0961z" fill="#d3ccbc"/><path d="M228.41555,230.525c-0.13086,-0.40296 -0.10188,-0.76228 -0.15366,-1.17564c-0.08001,-0.66227 -1.02373,-1.13154 -1.53805,-1.46582l-0.03849,-0.02468c-0.32073,-0.20563 -0.36732,-0.21062 -0.40611,-0.57717c-0.0699,-0.62863 -0.35946,-0.80523 -0.92852,-0.59531c-0.34231,0.12449 -0.54565,0.07106 -0.84426,0.36386c-0.44688,0.43626 -0.84965,0.91551 -1.20247,1.43082c-0.65605,0.95973 -1.02513,2.04009 -1.38766,3.13143c-0.31042,0.93241 -0.88473,1.43993 -1.45059,2.2131c-0.4069,0.56054 0.02314,1.14628 -0.1506,1.71374c-0.11422,0.37934 -0.49258,0.79299 -0.7085,1.12976l-0.30845,0.4811c-0.09748,0.1384 -0.13725,0.30929 -0.11091,0.47651c0.05841,0.31126 0.40271,0.50485 0.80974,0.42412c0.40704,-0.08072 0.86705,-0.44881 1.14033,-0.76917c0.05122,-0.06515 0.13284,-0.0987 0.21508,-0.08839c0.10186,0.00899 0.19219,0.06908 0.23984,0.15955c0.04765,0.09048 0.04612,0.19895 -0.00408,0.28804c-0.13876,0.19974 -0.28882,0.39138 -0.44947,0.57398c-0.27284,0.31618 -0.57659,0.60432 -0.90672,0.86011c-0.07558,0.05789 -0.15573,0.12644 -0.22182,0.18363c-0.0065,0.16565 -0.07431,0.32299 -0.19026,0.44147c-0.12041,0.11592 -0.26396,0.20511 -0.42123,0.26171c-0.03248,0.01538 -0.17313,0.12887 -0.09586,0.04716c-0.07156,0.07631 -0.15735,0.1254 -0.22204,0.2016c-0.03096,0.03373 -0.06412,0.0654 -0.09923,0.09478c0.06693,0.00663 0.13245,0.02345 0.19429,0.0499c0.29191,0.13059 0.15996,0.6117 -0.1498,0.48777c-0.45291,-0.17949 -0.82843,0.30387 -1.28976,0.15518c-0.1174,-0.03987 -0.19603,-0.15049 -0.19514,-0.27446c-0.03596,-0.38511 0.08156,-0.69898 -0.0829,-1.06013c-0.08906,-0.19287 -0.23764,-1.14349 -0.0953,-1.36904c0.18666,-0.27286 0.34523,-0.56393 0.47325,-0.86874c0.12574,-0.3267 -0.02035,-0.54708 0.11501,-0.86762c0.19697,-0.48017 0.12446,-0.90002 0.42572,-1.3699c0.20563,-0.32073 0.54772,-0.81195 0.37393,-1.22207c-0.05175,-0.11387 -0.08139,-0.23654 -0.08732,-0.36147c0.00003,-0.35299 0.00478,-0.58981 0.23541,-0.87189c0.51407,-0.62533 0.71369,-1.28258 1.08425,-1.98408c0.35013,-0.66257 0.82579,-1.24917 1.11555,-1.94818c0.24275,-0.5798 0.29285,-1.26501 0.45899,-1.87356c0.16886,-0.55378 0.45063,-1.06656 0.82753,-1.50602c0.29919,-0.37842 0.73265,-0.75448 0.92681,-1.1844c0.16173,-0.33508 0.12684,-0.73185 -0.09088,-1.03357c-0.4094,-0.64264 -0.1784,-0.81587 0.16764,-1.44032c0.11166,-0.20844 0.23507,-0.41036 0.36965,-0.60479c0.06802,-0.09519 0.14156,-0.1863 0.22022,-0.27291c0.16591,-0.18838 0.37487,-0.33387 0.60909,-0.42413c0.08441,-0.03207 0.17594,-0.04065 0.26483,-0.02481c0.34036,0.06208 0.57299,0.48277 0.668,0.77224c0.04019,0.17947 0.06311,0.36238 0.06843,0.54623c0.05899,0.69858 0.45159,0.13566 0.64575,-0.20601c0.26813,-0.50689 0.59137,-0.98264 0.96385,-1.41862c0.3244,-0.35774 0.84768,-0.46803 1.25443,-0.68245c0.4827,-0.25171 1.00752,-0.89732 1.39561,-1.29794c0.08998,-0.09573 0.18655,-0.18504 0.28902,-0.26727c0.35128,-0.27261 0.59637,-0.24899 0.83617,0.04053c0.08472,0.10623 0.15946,0.22005 0.22326,0.34001c-0.05185,-0.09207 0.92879,-0.21688 0.98645,-0.24328c0.3734,-0.18663 0.72967,-0.40573 1.0647,-0.65474c0.45758,-0.29723 1.18128,-0.78365 1.74072,-0.43855c0.55943,0.3451 -0.07722,0.8828 -0.3523,1.13185c-0.50547,0.45662 -0.79948,0.94697 -1.14845,1.52655c-0.19227,0.29988 -0.51882,0.47747 -0.84506,0.64394c-0.16888,0.07935 -0.33183,0.17074 -0.4876,0.27347c-0.57191,0.40497 -1.38025,0.47279 -2.03291,0.64722c-0.52556,0.13936 -1.01298,0.39533 -1.42604,0.74892c-0.76106,0.6435 -0.21353,1.82954 0.40417,2.27083c0.51888,0.38096 0.90071,0.91945 1.08853,1.53516c0.04403,0.26091 0.04451,0.52732 0.00142,0.78839c-0.03084,0.52106 0.22577,0.80552 0.45557,1.24475c0.33822,0.65132 0.58148,1.34132 1.09846,1.88322c0.44696,0.46759 0.52599,0.98668 0.5509,1.61137c0.02212,0.49844 0.26062,1.12881 0.17299,1.63608c-0.08503,0.56397 -0.04113,1.13989 0.12841,1.68445c0.09373,0.12948 0.1525,0.28095 0.17062,0.43977c0.02979,0.30648 -0.39103,0.53226 -0.55051,0.21277c-0.05106,-0.10742 -0.08943,-0.21347 -0.13477,-0.32627c-0.14761,-0.15799 -0.40385,-0.12541 -0.55906,-0.32449c-0.32923,-0.4247 -0.63223,-0.86911 -0.90733,-1.33074c-0.36758,-0.60904 -0.2442,-1.36267 -0.37561,-2.03301c-0.07781,0.19897 -0.17511,0.38975 -0.29049,0.56956c-0.09322,0.14933 -0.28954,0.19534 -0.43939,0.10298c-0.06415,-0.04113 -0.12374,-0.0929 -0.18595,-0.1441c-0.40941,-0.3044 -0.72454,-0.71823 -0.90911,-1.19384z" fill="#55372c"/><path d="" fill="#d3ccbc"/><path d="" fill="#c8bc80"/><path d="" fill="#c8bc80"/><path d="M235.88669,117.75668c-0.08503,0.20391 -0.1983,0.39484 -0.33651,0.56721l-0.01645,0.02566c-0.20688,0.38757 -0.27603,0.83391 -0.19613,1.26592c0.00102,0.01303 0.00338,0.02592 0.00703,0.03846c0.02085,0.01337 0.03083,0.04013 0.04757,0.05991c0.10253,0.13044 0.17279,0.28327 0.20508,0.44602c0.07662,0.35255 0.06574,0.71849 -0.03167,1.06588c-0.09306,0.27809 -0.22595,0.54123 -0.39451,0.78119c-0.07087,0.10837 -0.15809,0.20511 -0.25855,0.28681c-0.23223,0.1919 -0.52669,0.29209 -0.82777,0.28166c-0.13303,0.06631 -0.2662,0.12577 -0.39524,0.1788c-0.04207,0.01791 -0.08855,0.0228 -0.13344,0.01401c-0.16695,0.48988 -0.55222,0.87427 -1.04248,1.0401c-1.22896,0.45211 -1.99659,-0.92709 -2.34396,-1.85355c-0.16856,-0.44298 -0.37879,-1.82687 -0.7781,-2.08288c-0.55968,-0.35883 -1.15946,-0.74338 -1.81036,-0.91404c-0.10266,0.19894 -0.24257,0.44188 -0.41665,0.45926c-0.66676,0.06582 -1.26108,-0.07309 -1.82893,0.382c-0.42264,0.33095 -0.58153,0.87173 -0.99832,1.20417c-0.50555,0.3932 -1.04994,0.74114 -1.58036,1.10256c-1.01177,0.68867 -2.0386,1.33375 -3.07089,1.99794c-0.40043,0.27461 -0.85425,0.46171 -1.33185,0.54908c-0.74851,0.13334 -1.0942,0.39369 -1.59104,0.97803c-0.98225,1.15791 -1.87708,2.38771 -2.87273,3.53476c-0.96513,1.11005 0.0581,-8.6884 0.60901,-8.76061c0.99413,-0.13879 1.21382,0.73976 1.35611,1.51664c1.41912,-0.60401 1.31682,-3.87156 1.90023,-5.08152c0.29617,-0.60665 1.18996,-1.27365 1.91047,-0.99273c0.9658,0.37482 1.28331,1.31608 1.79891,2.13544c1.72645,-1.44336 14.46537,-2.64878 14.50945,-1.12928c0.00831,0.3035 -0.02123,0.60687 -0.08795,0.90307z" fill="#c8bc80"/><path d="M221.13133,141.80503c-0.2517,-0.18626 -0.49162,-0.3944 -0.71429,-0.52358c-0.49652,-0.28439 -1.12049,0.13471 -1.60657,0.25754c-0.53973,0.13595 -1.05119,0.37602 -1.57875,0.5424c-0.92012,0.28808 -2.23093,0.83255 -2.72306,1.70956c-0.19471,0.36734 -0.44912,0.69976 -0.75286,0.98366c-0.40179,0.34432 -0.58999,-2.05749 -0.36667,-2.41059c0.9525,-1.52094 1.94842,-1.68713 3.25766,-2.85036c0.74021,-0.65686 1.42872,-1.36723 2.22041,-1.95262c0.70248,-0.52038 1.52038,-0.82195 2.31636,-1.16698l0.32076,-0.14736c0.46099,-0.21842 0.89946,-0.48147 1.30914,-0.7854c0.51278,-0.37272 0.99689,-0.78194 1.51342,-1.18168c0.41178,-0.31755 0.83022,-0.61725 1.21552,-0.96762c0.49975,-0.45123 0.8356,-1.08448 1.25743,-1.6083c0.71658,-0.88472 1.64622,-1.52647 2.46412,-2.30098c0.01629,-0.06422 0.03463,-0.13167 0.04669,-0.19636c-0.17509,-0.36761 -0.15382,-0.79859 0.05663,-1.14717l0.06478,-0.10104c0.02673,-0.0417 0.04623,-0.10388 0.0589,-0.13422c0.09498,-0.25485 0.21131,-0.50122 0.34775,-0.7365c0.13567,-0.22173 0.34176,-0.39157 0.58532,-0.48235c0.07944,-0.10829 0.16436,-0.21245 0.25441,-0.31209c1.1539,-1.28094 3.09674,-0.7006 3.6145,0.8601c0.26801,0.80317 -0.38175,1.6719 -0.80633,2.27767c-0.35911,0.51424 -0.51427,1.028 -0.71959,1.60237c-0.20533,0.57437 -0.69247,1.14005 -1.02868,1.66445c-0.69916,1.09049 -1.39831,2.18099 -2.0985,3.27309c-0.61691,0.9622 -1.47958,1.3301 -2.42247,1.82307c-0.03689,-0.02365 -0.07377,-0.0473 -0.11226,-0.07198c-0.81921,-0.58552 -1.86528,-0.75376 -2.82677,-0.45462c-0.80901,0.26653 -1.24608,1.23767 -1.66866,1.89678c-0.5567,0.84304 -1.05081,1.72576 -1.47834,2.64109z" fill="#805336"/><path d="" fill="#67633d"/><path d="" fill="#67633d"/><path d="" fill="#67633d"/><path d="" fill="#67633d"/><path d="" fill="#67633d"/><path d="M220.05569,155.82177c0.12079,-0.16016 0.35276,-1.22434 0.44048,-1.2835c0.09237,-0.06055 0.14051,-0.16974 0.12293,-0.27878c-0.01759,-0.10903 -0.09762,-0.19755 -0.20435,-0.22599c0.06932,-0.40813 0.17676,-0.72393 -0.10181,-1.17182c-0.32202,-0.51421 -1.49991,-0.13118 -1.19409,-1.08465c0.13899,-0.44267 0.21511,-0.91432 0.39611,-1.34136c0.23476,-0.55323 0.55895,-0.80474 0.91243,-1.25019c0.45818,-0.62226 0.88301,-1.26839 1.27272,-1.93567c0.06309,-0.10116 0.06587,-0.22869 0.00727,-0.33251c-0.19165,-0.31521 -0.65717,-0.5209 -0.50264,-0.98076c0.12618,-0.36771 0.30007,-0.71724 0.51723,-1.03968c0.7842,-1.18079 1.55135,-2.37027 2.31413,-3.56706c0.33827,-0.52761 0.76291,-1.18993 0.42243,-1.82007c-0.34047,-0.63014 -1.12793,-0.04429 -1.43385,0.25287c-0.37987,0.39433 -0.69189,0.8488 -0.92342,1.34498c-0.22621,0.44106 -0.431,0.89811 -0.7095,1.33957c-0.35472,0.55327 -0.6886,1.1199 -1.04068,1.67259c-0.39379,0.6142 -0.77975,0.60208 -1.32562,0.69111c0.69227,-0.91387 1.54014,-1.69631 1.99668,-2.76133l0.11336,-0.25092c0.42754,-0.91533 0.92164,-1.79805 1.47834,-2.64109c0.4195,-0.6543 0.86607,-1.62613 1.66867,-1.89678c0.96148,-0.29914 2.00756,-0.1309 2.82677,0.45462c0.03849,0.02468 0.07537,0.04832 0.11226,0.07197c0.4209,0.31059 0.76637,0.71764 1.21379,1.00449c0.44742,0.28686 0.92832,0.61328 1.40642,0.90171c1.02582,0.59886 2.22424,1.00967 3.41298,0.70148c0.52041,-0.1688 1.02289,-0.3886 1.50009,-0.65618c0.20466,-0.10297 0.41469,-0.19492 0.62918,-0.27547c1.07693,-0.3844 3.07237,-0.40846 3.17825,1.19817c0.02563,0.52062 -0.06829,1.04018 -0.27457,1.51886c-0.07753,0.18665 -0.16732,0.36797 -0.26878,0.54275c-0.43426,0.7444 -1.42509,1.71804 -2.26749,1.92017c-1.04858,0.25549 -1.87231,0.46732 -2.94879,0.2863c-0.65301,-0.11092 -1.29198,-0.26488 -1.93269,-0.42675c-0.7102,-0.17701 -1.25094,0.0805 -1.83124,0.45972c-0.50009,0.33278 -0.96207,0.71955 -1.37759,1.15336c-0.091,0.09252 -0.18118,0.19083 -0.27057,0.29494c-0.19541,0.22313 -0.3755,0.45922 -0.53904,0.70665c-0.40407,0.63024 -0.79189,1.0763 -0.60547,1.89731c0.11736,0.50519 0.37832,0.97346 0.51205,1.47784c0.07819,0.29452 -0.3239,0.85815 -0.44712,1.08916c-0.35224,0.5841 -0.74409,1.14337 -1.17276,1.6739c-0.32625,0.44359 -0.60465,0.92044 -0.83061,1.42258l-0.0976,0.21576c-0.06083,0.14429 -0.12166,0.28858 -0.18031,0.43653c0.07092,0.33725 0.11712,0.67923 0.13826,1.0232c0.06004,1.00361 -0.05737,2.00997 -0.34685,2.97279c-0.47134,1.50811 -2.05188,2.45214 -3.46364,1.39992c-1.16488,-0.86903 -0.32379,-2.62207 -0.8772,-3.75305c-0.0653,-0.13464 -0.14123,-0.27384 -0.22038,-0.4151c0.31153,-0.1903 0.58207,-0.44069 0.79585,-0.73659z" fill="#c8bc80"/><path d="" fill="#c8bc80"/><path d="" fill="#c8bc80"/><path d="" fill="#c8bc80"/><path d="" fill="#c8bc80"/><path d="M214.28618,157.35224c0.17813,-0.43913 0.41423,-0.85247 0.70197,-1.22899c0.14431,-0.20391 0.28361,-0.39294 0.39054,-0.55972c0.10694,-0.16679 0.43544,-0.53093 0.45635,-0.83885c0.00875,-0.0952 -0.0224,-0.18975 -0.08604,-0.26109c-0.11541,-0.13057 -0.24042,-0.2356 -0.34704,-0.37637c-0.19008,-0.25765 -0.20413,-0.59929 -0.23392,-0.90578c-0.06131,-0.42983 -0.03608,-0.86759 0.07421,-1.28752c0.11912,-0.40109 0.38851,-0.9095 0.38008,-1.35165c0.00386,-0.25423 -0.11935,-0.49365 -0.32847,-0.63828c-0.17841,-0.12377 -0.37223,-0.2237 -0.57655,-0.29723c-0.49596,-0.19352 -0.68804,-0.37337 -1.06485,-0.75977c-0.37681,-0.38641 -0.2599,-1.88704 -0.12004,-1.96997c1.28676,-0.73639 3.13257,1.2766 4.27247,0.42342l0.02447,-0.02051c0.18522,-0.16184 0.24356,-0.47519 0.2801,-0.82513c0.06638,-0.6612 0.04962,-1.45036 0.63422,-1.58923c0.10103,-0.02347 0.19373,-0.04099 0.28539,-0.05689c0.54586,-0.08902 0.93549,-0.07908 1.32562,-0.69111c0.35369,-0.55166 0.68596,-1.11932 1.04068,-1.67259c0.28172,-0.43941 0.48329,-0.89852 0.7095,-1.33958c0.23153,-0.49618 0.54354,-0.95064 0.92342,-1.34497c0.31004,-0.30358 1.08856,-0.88609 1.43385,-0.25287c0.34529,0.63323 -0.0909,1.29944 -0.42243,1.82007c-0.76599,1.19473 -1.52992,2.38626 -2.31412,3.56705c-0.21716,0.32244 -0.39105,0.67198 -0.51723,1.03968c-0.15614,0.45882 0.3094,0.66451 0.50264,0.98076c0.05861,0.10382 0.05582,0.23135 -0.00727,0.33251c-0.38971,0.66728 -0.81454,1.31341 -1.27271,1.93567c-0.35656,0.45025 -0.67445,0.69902 -0.91243,1.25019c-0.18101,0.42704 -0.25713,0.8987 -0.39611,1.34136c-0.30261,0.95553 0.87721,0.56242 1.19409,1.08465c0.27856,0.44789 0.17318,0.76047 0.10181,1.17181c0.10672,0.02844 0.18676,0.11694 0.20435,0.22599c0.01759,0.10904 -0.03055,0.21823 -0.12292,0.27879c-0.08772,0.05917 -0.3197,1.12334 -0.43427,1.30558c-0.21377,0.29591 -0.48431,0.5463 -0.79585,0.73659l-0.30901,0.21372c-0.54058,0.38432 -1.13205,0.61156 -1.65861,1.04107c-0.46882,0.37828 -0.88641,0.90255 -1.42393,1.16211c-0.29449,0.17019 -0.65035,0.19735 -0.96725,0.07383c-0.3169,-0.12352 -0.56051,-0.38434 -0.66216,-0.70892c-0.11009,-0.32938 -0.09678,-0.68755 0.03747,-1.00785z" fill="#55372c"/><path d="" fill="#55372c"/><path d="" fill="#55372c"/><path d="" fill="#55372c"/></g><path d="M262.80983,234.6255c0.35226,0.9047 -2.64424,0.96935 -2.93793,1.33123c-0.56613,0.63948 -1.03638,1.35176 -1.95736,1.59175c-1.35133,0.34651 -4.33273,0.64132 -3.91456,2.74913c0.0332,0.17475 0.14087,0.32638 0.29489,0.41535c-2.05298,0.70676 -4.50392,0.58362 -6.14948,2.08789c-1.54576,1.41213 -1.82257,2.58874 -1.82257,2.58874c0,0 -2.13226,-1.20277 -0.07196,-2.94802c1.07791,-0.86407 2.01696,-1.88829 2.78439,-3.03699c0.26096,-0.41584 0.46562,-0.86443 0.60867,-1.33407c0.32223,-1.01083 0.39884,-2.10446 0.4796,-3.1728c0.19182,-2.45215 0.26374,-4.96083 1.68401,-7.06665c1.36302,-2.02712 3.44028,-3.47412 5.55111,-4.60994c1.03583,-0.60141 1.78871,-1.59147 2.09147,-2.75035c0.19995,-0.11534 0.35231,-3.08018 -0.28055,-3.18723c-0.01927,-0.13229 -0.0327,-0.2631 -0.03928,-0.39403c-0.05428,-1.05535 0.81026,-1.96967 1.33977,-2.79556c0.72589,-1.13219 3.19775,-2.63509 3.19775,-2.63509c0,0 -1.2298,22.17244 -0.85798,23.16664z" fill="#67633d" stroke="none" stroke-width="1" stroke-linecap="butt"/><path d="M240.64884,195.99824c0.41871,-0.16602 1.36695,0.83681 1.85409,0.74408c0.16374,-0.03305 0.46309,-0.19641 0.60562,-0.17518c0.16266,0.02786 0.3238,0.06397 0.4828,0.10815c-0.2986,1.71164 -2.06252,3.21697 -2.90768,4.53518c-0.11573,0.11913 -0.21525,4.51237 0.1027,4.91519c0.33502,0.35806 0.62967,0.75186 0.87864,1.1743c0.25136,0.45644 0.27887,1.00312 0.0746,1.48249c-0.07522,0.16674 -0.86498,1.77618 -0.7648,1.79289c1.17512,0.17186 2.03952,-1.51871 2.51446,-2.32302c0.36562,-0.62321 0.86097,-1.67466 1.63009,-1.89661c1.50621,-0.43277 3.08431,0.46586 3.65554,1.85492c0.30311,0.79448 0.42626,1.64628 0.36061,2.49407c-0.03058,0.44653 0.0304,0.90201 -0.07643,1.3404c-0.09177,0.39374 -0.25913,0.75711 -0.32639,1.16204c-0.09002,0.52158 -0.64916,1.16781 -0.26303,1.69144c0.30933,0.42461 0.8325,0.69215 1.26742,0.95968c0.97556,0.59605 1.94,1.16008 2.89418,1.77184c0.68476,0.43903 0.70181,1.74658 0.83302,2.43489c0.11876,0.61245 0.0441,1.343 0.09854,1.96399c0.057,0.50921 0.08608,1.02115 0.08714,1.53352c-0.01683,1.68862 -0.26381,4.80917 -2.40274,5.05351c-0.72786,0.07643 -1.404,-0.23488 -1.94365,-0.68495c-0.7225,-0.599 -0.732,-1.63243 -0.79588,-2.48575c-0.04354,-0.60269 -0.1171,-1.22915 -0.19958,-1.85227c-0.08249,-0.62312 -0.17871,-1.24601 -0.26756,-1.84154c-0.21511,-1.45038 -1.25441,-2.12351 -2.36801,-2.9031c-0.89262,-0.62661 -1.33837,-1.79491 -2.01467,-2.61773c-0.27718,-0.34063 -0.65412,-0.64566 -0.94881,-0.99074c-0.36759,-0.43254 -0.86225,-0.87868 -1.21612,-0.10085c-0.00718,0.01996 -0.01878,0.03806 -0.03392,0.05292v0c1.09863,1.27236 2.20228,2.52982 3.06054,3.98298c0.48069,0.81733 1.09139,2.37426 0.84693,3.33085c-0.53245,2.0799 -3.45367,1.04199 -4.16924,-0.35135c-0.69166,-1.40009 -1.07627,-25.94704 -0.54841,-26.15623z" fill="#c8bc80" stroke="none" stroke-width="1" stroke-linecap="butt"/><path d="M236.19016,244.98211c-2.14155,0.47151 -4.80963,0.61895 -8.01095,0.84846c-3.34161,0.23956 -6.74411,-0.5054 -8.74911,-1.22433c-1.14406,-0.41022 -2.15566,-0.48985 -2.18075,-1.08706c-0.03853,-0.91729 0.22124,-2.38886 0.17413,-3.51029c-0.43054,-10.24946 -1.96359,-46.74555 -1.96359,-46.74555c0,0 -0.59482,-3.4831 -0.74429,-6.84567c-0.18539,-4.17054 -0.28366,-16.27969 -0.28366,-16.27969l-1.19799,-29.8659c0,0 0.04006,-6.89408 0.23939,-10.09788c0.23219,-3.732 1.07025,-10.95226 1.07025,-10.95226l22.19071,0.46987l0.33004,33.48565l2.8603,0.84819c0,0 -0.52092,59.67748 -0.72989,83.61662c-0.01487,1.70302 0.45635,3.48049 0.44494,4.78743c-0.01805,2.06789 -1.98317,2.22957 -3.44951,2.55241z" data-paper-data="{&quot;index&quot;:null}" fill="none" stroke="#000000" stroke-width="0.5" stroke-linecap="butt"/><path d="M240.3088,242.44001c-0.0114,-1.30694 0.45981,-3.08441 0.44494,-4.78743c-0.20897,-23.93913 -0.72989,-83.61662 -0.72989,-83.61662l-2.95566,-0.88174l-0.32617,-33.4521l28.66286,-0.46987c0,0 0.83807,7.22026 1.07025,10.95226c0.19933,3.2038 0.23939,10.09788 0.23939,10.09788c0,0 -0.54496,12.97336 -1.25716,29.92834c-0.17455,4.15535 -0.01983,10.87436 -0.20891,15.37565c-0.25236,8.26216 -0.76216,7.92061 -0.76216,7.92061c0,0 -1.53119,36.27301 -1.9613,46.51221c-0.04711,1.12143 0.21266,2.59299 0.17413,3.51029c-0.02509,0.59722 -1.03668,0.67684 -2.18074,1.08706c-2.00501,0.71893 -5.4075,1.4639 -8.74911,1.22433c-3.20132,-0.22951 -5.86941,-0.37696 -8.01095,-0.84846c-1.46634,-0.32285 -3.43146,-0.48452 -3.44951,-2.55241z" data-paper-data="{&quot;index&quot;:null}" fill="none" stroke="#000000" stroke-width="0.5" stroke-linecap="butt"/><path d="M233.80358,121.8984l0.40898,-6.29591c0.03127,-0.48099 0.18192,-0.86712 0.3361,-0.86083c0,0 1.28009,0.05226 1.93304,0.07892c0.67064,0.02738 2.03916,0.08325 2.03916,0.08325c0.15404,0.00629 0.25399,0.40265 0.22277,0.88365l-0.40895,6.29608c-0.03127,0.48099 -0.18202,0.86712 -0.33606,0.86083l-3.97225,-0.16217c-0.15414,-0.00629 -0.25401,-0.40282 -0.22275,-0.88381z" data-paper-data="{&quot;index&quot;:null}" fill="#0b0e0d" stroke="none" stroke-width="1" stroke-linecap="butt"/><path d="M214.94339,114.19714c0,0 18.44309,1.84371 26.30208,1.8543c7.19846,0.0097 23.71117,-1.68559 23.71117,-1.68559l0.72537,5.73598c0,0 -18.49017,1.83875 -25.65827,1.81154c-7.91502,-0.03005 -25.72938,-1.72718 -25.72938,-1.72718z" data-paper-data="{&quot;index&quot;:null}" fill="#9b8955" stroke="#000000" stroke-width="0.5" stroke-linecap="butt"/><path d="M235.45162,115.67338l-0.36051,6.30038c-0.02754,0.48133 -0.086,0.8713 -0.13038,0.86938l-1.14329,-0.0497c-0.04434,-0.00193 -0.05801,-0.39502 -0.03049,-0.87636l0.36051,-6.30055c0.02754,-0.48133 0.08603,-0.87129 0.13037,-0.86936l1.1433,0.04969c0.04437,0.00193 0.05801,0.39519 0.03047,0.87653z" data-paper-data="{&quot;index&quot;:null}" fill="#0b0e0d" stroke="none" stroke-width="1" stroke-linecap="butt"/><path d="M215.26643,193.41766c0,0 -0.32779,-2.7774 -0.55075,-6.4502c-0.14453,-2.38096 -0.24501,-5.13821 -0.18357,-7.75903c0.08363,-3.56711 -0.16135,-6.2759 -0.15736,-8.75991c0.00088,-0.55217 -0.33909,0.047 -0.3404,-0.4062c-0.01257,-4.3561 -0.01456,-10.80185 -0.01456,-10.80185l10.51383,-1.15516l0.38013,34.15475z" data-paper-data="{&quot;index&quot;:null}" fill="none" stroke="#000000" stroke-width="0.5" stroke-linecap="butt"/><path d="M224.61383,169.13531c0,0 -8.71494,0.86821 -10.19082,1.01524" data-paper-data="{&quot;index&quot;:null}" fill="none" stroke="#000000" stroke-width="0.5" stroke-linecap="round"/><path d="M254.99921,192.24007l0.38013,-34.15475l10.51383,1.15516c0,0 -0.002,6.44576 -0.01456,10.80185c-0.00131,0.4532 -0.34128,-0.14596 -0.3404,0.4062c0.00398,2.484 -0.24099,5.1928 -0.15736,8.75991c0.15622,6.66363 -0.73432,14.20923 -0.73432,14.20923z" data-paper-data="{&quot;index&quot;:null}" fill="none" stroke="#000000" stroke-width="0.5" stroke-linecap="butt"/><path d="M265.48991,170.15055c-1.47588,-0.14703 -10.19081,-1.01524 -10.19081,-1.01524" data-paper-data="{&quot;index&quot;:null}" fill="none" stroke="#000000" stroke-width="0.5" stroke-linecap="round"/><path d="M246.20617,226.67827l0.83854,-22.30093l16.86503,1.23518c0,0 -0.16908,4.21187 -0.24807,7.05776c-0.00823,0.29609 -0.70554,15.2724 -0.70554,15.2724z" data-paper-data="{&quot;index&quot;:null}" fill="none" stroke="#000000" stroke-width="0.5" stroke-linecap="butt"/><path d="M260.91224,114.87347c-0.04675,-0.40242 -0.03654,-0.7325 0.0228,-0.73573l1.52922,-0.08322c0.05931,-0.00323 0.14558,0.32148 0.19231,0.72388l0.61167,5.26744c0.04671,0.40241 0.03646,0.73236 -0.02284,0.73559l-1.52921,0.08321c-0.05936,0.00323 -0.1456,-0.32148 -0.19233,-0.72388l-0.61165,-5.26729z" data-paper-data="{&quot;index&quot;:null}" fill="#55372c" stroke="none" stroke-width="1" stroke-linecap="butt"/><path d="M248.71943,115.90151c-0.04675,-0.40242 -0.03654,-0.7325 0.0228,-0.73573l1.52922,-0.08322c0.05931,-0.00323 0.14559,0.32148 0.19231,0.72388l0.61167,5.26744c0.04671,0.40242 0.03646,0.73236 -0.02284,0.73559l-1.5292,0.08321c-0.05936,0.00323 -0.1456,-0.32148 -0.19233,-0.72388l-0.61165,-5.2673z" data-paper-data="{&quot;index&quot;:null}" fill="#55372c" stroke="none" stroke-width="1" stroke-linecap="butt"/><path d="M220.57535,115.05291l-0.58139,5.2711c-0.04441,0.4027 -0.12878,0.72795 -0.18816,0.7251l-1.52965,-0.07346c-0.05932,-0.00285 -0.07146,-0.33272 -0.02706,-0.73543l0.58141,-5.27125c0.04441,-0.40269 0.12883,-0.72794 0.18815,-0.72509l1.52966,0.07347c0.05936,0.00286 0.07147,0.33286 0.02703,0.73557z" data-paper-data="{&quot;index&quot;:null}" fill="#55372c" stroke="none" stroke-width="1" stroke-linecap="butt"/><path d="M232.70762,116.00315l-0.58139,5.2711c-0.04441,0.4027 -0.12878,0.72795 -0.18816,0.7251l-1.52965,-0.07346c-0.05932,-0.00285 -0.07146,-0.33272 -0.02706,-0.73543l0.58141,-5.27125c0.04441,-0.40269 0.12883,-0.72794 0.18815,-0.72509l1.52966,0.07347c0.05936,0.00286 0.07147,0.33286 0.02703,0.73557z" data-paper-data="{&quot;index&quot;:null}" fill="#55372c" stroke="none" stroke-width="1" stroke-linecap="butt"/><path d="M266.69154,139.83836c0,0 -2.52725,-7.38891 -3.37238,-10.4346c-0.50904,-1.83449 -1.51999,-6.28416 -1.51999,-6.28416" data-paper-data="{&quot;index&quot;:null}" fill="none" stroke="#000000" stroke-width="0.5" stroke-linecap="round"/><path d="M216.97,227.94269c0,0 -0.69733,-14.97632 -0.70554,-15.2724c-0.07899,-2.84589 -0.24807,-7.05776 -0.24807,-7.05776l16.86504,-1.23518l0.83853,22.30093z" data-paper-data="{&quot;index&quot;:null}" fill="none" stroke="#000000" stroke-width="0.5" stroke-linecap="butt"/><path d="M218.12694,123.11961c0,0 -1.01094,4.44967 -1.51999,6.28416c-0.84514,3.04568 -3.37238,10.4346 -3.37238,10.4346" data-paper-data="{&quot;index&quot;:null}" fill="none" stroke="#000000" stroke-width="0.5" stroke-linecap="round"/><path d="M239.20738,115.82963l-0.36051,6.30038c-0.02754,0.48133 -0.086,0.8713 -0.13038,0.86938l-1.14329,-0.0497c-0.04434,-0.00193 -0.05801,-0.39502 -0.03049,-0.87636l0.36051,-6.30055c0.02754,-0.48133 0.08603,-0.87129 0.13037,-0.86936l1.1433,0.04969c0.04437,0.00193 0.05801,0.39519 0.03047,0.87653z" data-paper-data="{&quot;index&quot;:null}" fill="#0b0e0d" stroke="none" stroke-width="1" stroke-linecap="butt"/></g></g></g></svg>