<svg version="1.1" xmlns="http://www.w3.org/2000/svg" xmlns:xlink="http://www.w3.org/1999/xlink" width="228.69423" height="325.52629" viewBox="0,0,228.69423,325.52629"><defs><linearGradient x1="240.87016" y1="133.9835" x2="240.87016" y2="135.59346" gradientUnits="userSpaceOnUse" id="color-1"><stop offset="0" stop-color="#f1f1f1"/><stop offset="1" stop-color="#bababa"/></linearGradient><linearGradient x1="240.87471" y1="133.5593" x2="240.87471" y2="135.39666" gradientUnits="userSpaceOnUse" id="color-2"><stop offset="0" stop-color="#bababa"/><stop offset="1" stop-color="#f1f1f1"/></linearGradient><linearGradient x1="240.8555" y1="135.567" x2="240.8555" y2="139.04161" gradientUnits="userSpaceOnUse" id="color-3"><stop offset="0" stop-color="#bababa"/><stop offset="1" stop-color="#f1f1f1"/></linearGradient><linearGradient x1="239.87357" y1="137.0124" x2="241.92013" y2="137.0124" gradientUnits="userSpaceOnUse" id="color-4"><stop offset="0" stop-color="#f1f1f1"/><stop offset="1" stop-color="#bababa"/></linearGradient><linearGradient x1="237.66084" y1="132.74233" x2="239.4234" y2="132.74233" gradientUnits="userSpaceOnUse" id="color-5"><stop offset="0" stop-color="#f1f1f1"/><stop offset="1" stop-color="#bababa"/></linearGradient><linearGradient x1="237.74293" y1="133.30558" x2="239.73188" y2="133.30558" gradientUnits="userSpaceOnUse" id="color-6"><stop offset="0" stop-color="#f1f1f1"/><stop offset="1" stop-color="#bababa"/></linearGradient><linearGradient x1="238.10345" y1="133.88098" x2="239.94183" y2="133.88098" gradientUnits="userSpaceOnUse" id="color-7"><stop offset="0" stop-color="#f1f1f1"/><stop offset="1" stop-color="#bababa"/></linearGradient><linearGradient x1="238.59473" y1="134.31411" x2="240.21295" y2="134.31411" gradientUnits="userSpaceOnUse" id="color-8"><stop offset="0" stop-color="#f1f1f1"/><stop offset="1" stop-color="#bababa"/></linearGradient><linearGradient x1="238.92199" y1="134.55606" x2="240.41315" y2="134.55606" gradientUnits="userSpaceOnUse" id="color-9"><stop offset="0" stop-color="#f1f1f1"/><stop offset="1" stop-color="#bababa"/></linearGradient><linearGradient x1="239.23465" y1="134.7486" x2="240.5407" y2="134.7486" gradientUnits="userSpaceOnUse" id="color-10"><stop offset="0" stop-color="#f1f1f1"/><stop offset="1" stop-color="#bababa"/></linearGradient><linearGradient x1="239.98303" y1="137.6343" x2="240.8104" y2="137.6343" gradientUnits="userSpaceOnUse" id="color-11"><stop offset="0" stop-color="#f1f1f1"/><stop offset="1" stop-color="#bababa"/></linearGradient><linearGradient x1="240.75569" y1="136.7917" x2="241.08127" y2="136.7917" gradientUnits="userSpaceOnUse" id="color-12"><stop offset="0" stop-color="#f1f1f1"/><stop offset="1" stop-color="#bababa"/></linearGradient><linearGradient x1="241.00124" y1="137.63182" x2="241.8065" y2="137.63182" gradientUnits="userSpaceOnUse" id="color-13"><stop offset="0" stop-color="#f1f1f1"/><stop offset="1" stop-color="#bababa"/></linearGradient><linearGradient x1="240.75587" y1="137.36715" x2="241.05603" y2="137.36715" gradientUnits="userSpaceOnUse" id="color-14"><stop offset="0" stop-color="#f1f1f1"/><stop offset="1" stop-color="#bababa"/></linearGradient><linearGradient x1="244.15335" y1="132.72745" x2="242.39078" y2="132.72745" gradientUnits="userSpaceOnUse" id="color-15"><stop offset="0" stop-color="#f1f1f1"/><stop offset="1" stop-color="#bababa"/></linearGradient><linearGradient x1="244.07125" y1="133.2907" x2="242.0823" y2="133.2907" gradientUnits="userSpaceOnUse" id="color-16"><stop offset="0" stop-color="#f1f1f1"/><stop offset="1" stop-color="#bababa"/></linearGradient><linearGradient x1="243.71073" y1="133.8661" x2="241.87236" y2="133.8661" gradientUnits="userSpaceOnUse" id="color-17"><stop offset="0" stop-color="#f1f1f1"/><stop offset="1" stop-color="#bababa"/></linearGradient><linearGradient x1="243.21945" y1="134.29922" x2="241.60123" y2="134.29922" gradientUnits="userSpaceOnUse" id="color-18"><stop offset="0" stop-color="#f1f1f1"/><stop offset="1" stop-color="#bababa"/></linearGradient><linearGradient x1="242.89219" y1="134.54118" x2="241.40103" y2="134.54118" gradientUnits="userSpaceOnUse" id="color-19"><stop offset="0" stop-color="#f1f1f1"/><stop offset="1" stop-color="#bababa"/></linearGradient><linearGradient x1="242.57952" y1="134.73372" x2="241.27349" y2="134.73372" gradientUnits="userSpaceOnUse" id="color-20"><stop offset="0" stop-color="#f1f1f1"/><stop offset="1" stop-color="#bababa"/></linearGradient><linearGradient x1="239.66621" y1="135.06011" x2="240.785" y2="135.06011" gradientUnits="userSpaceOnUse" id="color-21"><stop offset="0" stop-color="#f1f1f1"/><stop offset="1" stop-color="#bababa"/></linearGradient><linearGradient x1="242.08716" y1="135.06342" x2="240.96838" y2="135.06342" gradientUnits="userSpaceOnUse" id="color-22"><stop offset="0" stop-color="#f1f1f1"/><stop offset="1" stop-color="#bababa"/></linearGradient><linearGradient x1="239.25551" y1="133.33241" x2="240.65994" y2="133.33241" gradientUnits="userSpaceOnUse" id="color-23"><stop offset="0" stop-color="#f1f1f1"/><stop offset="1" stop-color="#bababa"/></linearGradient><linearGradient x1="242.56451" y1="133.33833" x2="241.16006" y2="133.33833" gradientUnits="userSpaceOnUse" id="color-24"><stop offset="0" stop-color="#f1f1f1"/><stop offset="1" stop-color="#bababa"/></linearGradient><linearGradient x1="240.61174" y1="185.36792" x2="240.61174" y2="186.97787" gradientUnits="userSpaceOnUse" id="color-25"><stop offset="0" stop-color="#f1f1f1"/><stop offset="1" stop-color="#bababa"/></linearGradient><linearGradient x1="240.61628" y1="184.94372" x2="240.61628" y2="186.78107" gradientUnits="userSpaceOnUse" id="color-26"><stop offset="0" stop-color="#bababa"/><stop offset="1" stop-color="#f1f1f1"/></linearGradient><linearGradient x1="240.59707" y1="186.95141" x2="240.59707" y2="190.42603" gradientUnits="userSpaceOnUse" id="color-27"><stop offset="0" stop-color="#bababa"/><stop offset="1" stop-color="#f1f1f1"/></linearGradient><linearGradient x1="239.61514" y1="188.39682" x2="241.66171" y2="188.39682" gradientUnits="userSpaceOnUse" id="color-28"><stop offset="0" stop-color="#f1f1f1"/><stop offset="1" stop-color="#bababa"/></linearGradient><linearGradient x1="237.40241" y1="184.12675" x2="239.16497" y2="184.12675" gradientUnits="userSpaceOnUse" id="color-29"><stop offset="0" stop-color="#f1f1f1"/><stop offset="1" stop-color="#bababa"/></linearGradient><linearGradient x1="237.4845" y1="184.69" x2="239.47346" y2="184.69" gradientUnits="userSpaceOnUse" id="color-30"><stop offset="0" stop-color="#f1f1f1"/><stop offset="1" stop-color="#bababa"/></linearGradient><linearGradient x1="237.84502" y1="185.26539" x2="239.6834" y2="185.26539" gradientUnits="userSpaceOnUse" id="color-31"><stop offset="0" stop-color="#f1f1f1"/><stop offset="1" stop-color="#bababa"/></linearGradient><linearGradient x1="238.3363" y1="185.69853" x2="239.95452" y2="185.69853" gradientUnits="userSpaceOnUse" id="color-32"><stop offset="0" stop-color="#f1f1f1"/><stop offset="1" stop-color="#bababa"/></linearGradient><linearGradient x1="238.66356" y1="185.94048" x2="240.15472" y2="185.94048" gradientUnits="userSpaceOnUse" id="color-33"><stop offset="0" stop-color="#f1f1f1"/><stop offset="1" stop-color="#bababa"/></linearGradient><linearGradient x1="238.97623" y1="186.13302" x2="240.28227" y2="186.13302" gradientUnits="userSpaceOnUse" id="color-34"><stop offset="0" stop-color="#f1f1f1"/><stop offset="1" stop-color="#bababa"/></linearGradient><linearGradient x1="239.7246" y1="189.01872" x2="240.55198" y2="189.01872" gradientUnits="userSpaceOnUse" id="color-35"><stop offset="0" stop-color="#f1f1f1"/><stop offset="1" stop-color="#bababa"/></linearGradient><linearGradient x1="240.49726" y1="188.17612" x2="240.82285" y2="188.17612" gradientUnits="userSpaceOnUse" id="color-36"><stop offset="0" stop-color="#f1f1f1"/><stop offset="1" stop-color="#bababa"/></linearGradient><linearGradient x1="240.74281" y1="189.01623" x2="241.54807" y2="189.01623" gradientUnits="userSpaceOnUse" id="color-37"><stop offset="0" stop-color="#f1f1f1"/><stop offset="1" stop-color="#bababa"/></linearGradient><linearGradient x1="240.49744" y1="188.75156" x2="240.7976" y2="188.75156" gradientUnits="userSpaceOnUse" id="color-38"><stop offset="0" stop-color="#f1f1f1"/><stop offset="1" stop-color="#bababa"/></linearGradient><linearGradient x1="243.89492" y1="184.11187" x2="242.13236" y2="184.11187" gradientUnits="userSpaceOnUse" id="color-39"><stop offset="0" stop-color="#f1f1f1"/><stop offset="1" stop-color="#bababa"/></linearGradient><linearGradient x1="243.81282" y1="184.67511" x2="241.82387" y2="184.67511" gradientUnits="userSpaceOnUse" id="color-40"><stop offset="0" stop-color="#f1f1f1"/><stop offset="1" stop-color="#bababa"/></linearGradient><linearGradient x1="243.45231" y1="185.25051" x2="241.61393" y2="185.25051" gradientUnits="userSpaceOnUse" id="color-41"><stop offset="0" stop-color="#f1f1f1"/><stop offset="1" stop-color="#bababa"/></linearGradient><linearGradient x1="242.96103" y1="185.68364" x2="241.34281" y2="185.68364" gradientUnits="userSpaceOnUse" id="color-42"><stop offset="0" stop-color="#f1f1f1"/><stop offset="1" stop-color="#bababa"/></linearGradient><linearGradient x1="242.63377" y1="185.9256" x2="241.1426" y2="185.9256" gradientUnits="userSpaceOnUse" id="color-43"><stop offset="0" stop-color="#f1f1f1"/><stop offset="1" stop-color="#bababa"/></linearGradient><linearGradient x1="242.32109" y1="186.11814" x2="241.01506" y2="186.11814" gradientUnits="userSpaceOnUse" id="color-44"><stop offset="0" stop-color="#f1f1f1"/><stop offset="1" stop-color="#bababa"/></linearGradient><linearGradient x1="239.40778" y1="186.44453" x2="240.52657" y2="186.44453" gradientUnits="userSpaceOnUse" id="color-45"><stop offset="0" stop-color="#f1f1f1"/><stop offset="1" stop-color="#bababa"/></linearGradient><linearGradient x1="241.82873" y1="186.44784" x2="240.70995" y2="186.44784" gradientUnits="userSpaceOnUse" id="color-46"><stop offset="0" stop-color="#f1f1f1"/><stop offset="1" stop-color="#bababa"/></linearGradient><linearGradient x1="238.99708" y1="184.71682" x2="240.40152" y2="184.71682" gradientUnits="userSpaceOnUse" id="color-47"><stop offset="0" stop-color="#f1f1f1"/><stop offset="1" stop-color="#bababa"/></linearGradient><linearGradient x1="242.30608" y1="184.72275" x2="240.90163" y2="184.72275" gradientUnits="userSpaceOnUse" id="color-48"><stop offset="0" stop-color="#f1f1f1"/><stop offset="1" stop-color="#bababa"/></linearGradient><linearGradient x1="240.66792" y1="236.77409" x2="240.66792" y2="238.38404" gradientUnits="userSpaceOnUse" id="color-49"><stop offset="0" stop-color="#f1f1f1"/><stop offset="1" stop-color="#bababa"/></linearGradient><linearGradient x1="240.67246" y1="236.34988" x2="240.67246" y2="238.18724" gradientUnits="userSpaceOnUse" id="color-50"><stop offset="0" stop-color="#bababa"/><stop offset="1" stop-color="#f1f1f1"/></linearGradient><linearGradient x1="240.65325" y1="238.35758" x2="240.65325" y2="241.83219" gradientUnits="userSpaceOnUse" id="color-51"><stop offset="0" stop-color="#bababa"/><stop offset="1" stop-color="#f1f1f1"/></linearGradient><linearGradient x1="239.67132" y1="239.80299" x2="241.71789" y2="239.80299" gradientUnits="userSpaceOnUse" id="color-52"><stop offset="0" stop-color="#f1f1f1"/><stop offset="1" stop-color="#bababa"/></linearGradient><linearGradient x1="237.45859" y1="235.53291" x2="239.22115" y2="235.53291" gradientUnits="userSpaceOnUse" id="color-53"><stop offset="0" stop-color="#f1f1f1"/><stop offset="1" stop-color="#bababa"/></linearGradient><linearGradient x1="237.54068" y1="236.09616" x2="239.52964" y2="236.09616" gradientUnits="userSpaceOnUse" id="color-54"><stop offset="0" stop-color="#f1f1f1"/><stop offset="1" stop-color="#bababa"/></linearGradient><linearGradient x1="237.9012" y1="236.67156" x2="239.73958" y2="236.67156" gradientUnits="userSpaceOnUse" id="color-55"><stop offset="0" stop-color="#f1f1f1"/><stop offset="1" stop-color="#bababa"/></linearGradient><linearGradient x1="238.39248" y1="237.10469" x2="240.0107" y2="237.10469" gradientUnits="userSpaceOnUse" id="color-56"><stop offset="0" stop-color="#f1f1f1"/><stop offset="1" stop-color="#bababa"/></linearGradient><linearGradient x1="238.71974" y1="237.34665" x2="240.2109" y2="237.34665" gradientUnits="userSpaceOnUse" id="color-57"><stop offset="0" stop-color="#f1f1f1"/><stop offset="1" stop-color="#bababa"/></linearGradient><linearGradient x1="239.03241" y1="237.53918" x2="240.33845" y2="237.53918" gradientUnits="userSpaceOnUse" id="color-58"><stop offset="0" stop-color="#f1f1f1"/><stop offset="1" stop-color="#bababa"/></linearGradient><linearGradient x1="239.78078" y1="240.42488" x2="240.60816" y2="240.42488" gradientUnits="userSpaceOnUse" id="color-59"><stop offset="0" stop-color="#f1f1f1"/><stop offset="1" stop-color="#bababa"/></linearGradient><linearGradient x1="240.55344" y1="239.58228" x2="240.87903" y2="239.58228" gradientUnits="userSpaceOnUse" id="color-60"><stop offset="0" stop-color="#f1f1f1"/><stop offset="1" stop-color="#bababa"/></linearGradient><linearGradient x1="240.79899" y1="240.4224" x2="241.60425" y2="240.4224" gradientUnits="userSpaceOnUse" id="color-61"><stop offset="0" stop-color="#f1f1f1"/><stop offset="1" stop-color="#bababa"/></linearGradient><linearGradient x1="240.55362" y1="240.15773" x2="240.85378" y2="240.15773" gradientUnits="userSpaceOnUse" id="color-62"><stop offset="0" stop-color="#f1f1f1"/><stop offset="1" stop-color="#bababa"/></linearGradient><linearGradient x1="243.9511" y1="235.51803" x2="242.18854" y2="235.51803" gradientUnits="userSpaceOnUse" id="color-63"><stop offset="0" stop-color="#f1f1f1"/><stop offset="1" stop-color="#bababa"/></linearGradient><linearGradient x1="243.869" y1="236.08128" x2="241.88005" y2="236.08128" gradientUnits="userSpaceOnUse" id="color-64"><stop offset="0" stop-color="#f1f1f1"/><stop offset="1" stop-color="#bababa"/></linearGradient><linearGradient x1="243.50849" y1="236.65668" x2="241.67011" y2="236.65668" gradientUnits="userSpaceOnUse" id="color-65"><stop offset="0" stop-color="#f1f1f1"/><stop offset="1" stop-color="#bababa"/></linearGradient><linearGradient x1="243.01721" y1="237.0898" x2="241.39899" y2="237.0898" gradientUnits="userSpaceOnUse" id="color-66"><stop offset="0" stop-color="#f1f1f1"/><stop offset="1" stop-color="#bababa"/></linearGradient><linearGradient x1="242.68995" y1="237.33177" x2="241.19878" y2="237.33177" gradientUnits="userSpaceOnUse" id="color-67"><stop offset="0" stop-color="#f1f1f1"/><stop offset="1" stop-color="#bababa"/></linearGradient><linearGradient x1="242.37727" y1="237.5243" x2="241.07124" y2="237.5243" gradientUnits="userSpaceOnUse" id="color-68"><stop offset="0" stop-color="#f1f1f1"/><stop offset="1" stop-color="#bababa"/></linearGradient><linearGradient x1="239.46396" y1="237.85069" x2="240.58275" y2="237.85069" gradientUnits="userSpaceOnUse" id="color-69"><stop offset="0" stop-color="#f1f1f1"/><stop offset="1" stop-color="#bababa"/></linearGradient><linearGradient x1="241.88491" y1="237.85401" x2="240.76613" y2="237.85401" gradientUnits="userSpaceOnUse" id="color-70"><stop offset="0" stop-color="#f1f1f1"/><stop offset="1" stop-color="#bababa"/></linearGradient><linearGradient x1="239.05326" y1="236.12299" x2="240.4577" y2="236.12299" gradientUnits="userSpaceOnUse" id="color-71"><stop offset="0" stop-color="#f1f1f1"/><stop offset="1" stop-color="#bababa"/></linearGradient><linearGradient x1="242.36226" y1="236.12891" x2="240.95781" y2="236.12891" gradientUnits="userSpaceOnUse" id="color-72"><stop offset="0" stop-color="#f1f1f1"/><stop offset="1" stop-color="#bababa"/></linearGradient></defs><g transform="translate(-126.14605,-21.02362)"><g data-paper-data="{&quot;isPaintingLayer&quot;:true}" fill-rule="nonzero" stroke-linejoin="miter" stroke-miterlimit="10" stroke-dasharray="" stroke-dashoffset="0" style="mix-blend-mode: normal"><path d="M309.63374,282.85832c0,0 -31.66421,1.37373 -52.15677,1.37373c-5.38691,0 -31.89925,3.74628 -44.39308,-5.28418c-7.618,-5.50624 -4.3702,-25.60472 -4.3702,-25.60472l-27.44444,-205.40097c0,0 14.86657,-7.22222 30.54106,-7.22222c12.03766,0 26.58186,3.50298 26.58186,3.50298c0,0 9.55837,-0.03792 13.22039,-3.12196c4.82558,-4.06395 13.21782,-19.14345 13.21782,-19.14345c0,0 5.88872,6.57559 8.0954,9.45915c1.69861,2.21964 4.34742,6.37764 4.34742,6.37764l51.08786,11.5923c0,0 11.72594,25.64361 18.93465,56.47342c5.33399,22.03994 6.38447,61.51735 6.38447,61.51735l-43.14508,-2.04885c0,0 -3.04211,16.91295 -4.27017,32.52641c-1.22806,15.61346 -2.90205,22.29318 -1.0974,31.52173c0.74789,3.82454 4.46623,53.48164 4.46623,53.48164z" data-paper-data="{&quot;index&quot;:null}" fill="#c9cce9" stroke="none" stroke-width="0" stroke-linecap="butt"/><path d="M176.11525,229.37669c1.80465,-9.22855 0.13066,-15.90827 -1.0974,-31.52173c-1.22806,-15.61346 -4.27017,-32.52641 -4.27017,-32.52641l-43.14508,2.04885c0,0 1.21715,-41.14407 5.88447,-62.35068c7.04204,-31.99648 18.76798,-55.64009 18.76798,-55.64009l51.1302,-11.25139c0,0 3.21786,-5.33613 5.21809,-7.93032c2.09487,-2.71694 7.08034,-8.0201 7.08034,-8.0201c0,0 9.10424,14.8558 13.27673,18.89962c2.43184,2.35685 9.49437,3.16926 9.49437,3.16926l61.55873,3.68849l-27.44444,205.40097c0,0 -2.95769,17.03257 -14.85175,25.19787c-10.51847,7.22096 -29.84188,5.69103 -33.91153,5.69103c-20.49256,0 -52.15677,-1.37373 -52.15677,-1.37373c0,0 3.71834,-49.6571 4.46623,-53.48164z" fill="#c9cce9" stroke="none" stroke-width="0" stroke-linecap="butt"/><path d="M304.16103,216.37469c0.47689,-13.7279 3.27617,-32.05542 4.92078,-40.79403c2.26831,-12.05272 6.91067,-48.85995 10.33482,-70.58813c3.42415,-21.72818 7.66422,-50.06854 9.05188,-55.31586c0.00909,-0.03435 11.75289,26.69252 18.06206,52.66918c7.21688,29.71397 6.68504,65.15905 6.68504,65.15905l-42.43509,-1.61683" fill="none" stroke="#aaadc9" stroke-width="1" stroke-linecap="round"/><path d="M170.27156,165.72141l-42.43509,1.61683c0,0 -0.53184,-35.44508 6.68504,-65.15905c6.30917,-25.97666 18.05297,-52.70353 18.06206,-52.66918c1.38766,5.24732 5.62773,33.58768 9.05188,55.31586c3.42415,21.72818 8.06651,58.53541 10.33482,70.58813c1.64461,8.73861 4.44389,27.06613 4.92078,40.79403" fill="none" stroke="#aaadc9" stroke-width="1" stroke-linecap="round"/><path d="M237.05144,219.3015c-0.20831,-14.56567 -2.70001,-134.68992 -2.6666,-140.5718" data-paper-data="{&quot;index&quot;:null}" fill="none" stroke="#aaadc9" stroke-width="1" stroke-linecap="round"/><g data-paper-data="{&quot;index&quot;:null}" stroke-linecap="butt"><path d="M242.53751,185.41339c2.16056,0 3.91204,1.76185 3.91204,3.93519c0,2.17335 -1.75148,3.93519 -3.91204,3.93519c-2.16056,0 -3.91204,-1.76185 -3.91204,-3.93519c0,-2.17335 1.75148,-3.93519 3.91204,-3.93519z" fill="#c9cce9" stroke="#b1b5cd" stroke-width="1"/><path d="M242.51436,190.45971c0,-0.63922 0.51819,-1.15741 1.15741,-1.15741c0.63922,0 1.15741,0.51819 1.15741,1.15741c0,0.63922 -0.51819,1.15741 -1.15741,1.15741c-0.63922,0 -1.15741,-0.51819 -1.15741,-1.15741z" fill="#000000" stroke="#000000" stroke-width="0"/><path d="M240.24584,190.45971c0,-0.63922 0.51819,-1.1574 1.15741,-1.1574c0.63922,0 1.1574,0.51818 1.1574,1.1574c0,0.63922 -0.51818,1.15741 -1.1574,1.15741c-0.63922,0 -1.15741,-0.51819 -1.15741,-1.15741z" fill="#000000" stroke="#000000" stroke-width="0"/><path d="M242.46806,188.33005c0,-0.63922 0.51819,-1.15741 1.15741,-1.15741c0.63922,0 1.1574,0.51819 1.1574,1.15741c0,0.63922 -0.51818,1.15741 -1.1574,1.15741c-0.63922,0 -1.15741,-0.51819 -1.15741,-1.15741z" fill="#000000" stroke="#000000" stroke-width="0"/><path d="M240.24584,188.28376c0,-0.63922 0.51819,-1.15741 1.15741,-1.15741c0.63922,0 1.1574,0.51819 1.1574,1.15741c0,0.63922 -0.51818,1.15741 -1.1574,1.15741c-0.63922,0 -1.15741,-0.51819 -1.15741,-1.15741z" fill="#000000" stroke="#000000" stroke-width="0"/></g><g data-paper-data="{&quot;index&quot;:null}" stroke-linecap="butt"><path d="M242.04983,150.70106c2.16056,0 3.91204,1.76183 3.91204,3.93518c0,2.17334 -1.75148,3.93518 -3.91204,3.93518c-2.16056,0 -3.91204,-1.76183 -3.91204,-3.93518c0,-2.17334 1.75148,-3.93518 3.91204,-3.93518z" fill="#c9cce9" stroke="#b1b5cd" stroke-width="1"/><path d="M242.02668,155.74736c0,-0.63922 0.51818,-1.15741 1.1574,-1.15741c0.63922,0 1.15741,0.51819 1.15741,1.15741c0,0.63922 -0.51819,1.15741 -1.15741,1.15741c-0.63922,0 -1.1574,-0.51819 -1.1574,-1.15741z" fill="#000000" stroke="#000000" stroke-width="0"/><path d="M239.75816,155.74731c0,-0.63922 0.51819,-1.15741 1.15741,-1.15741c0.63922,0 1.1574,0.51819 1.1574,1.15741c0,0.63922 -0.51818,1.15741 -1.1574,1.15741c-0.63922,0 -1.15741,-0.51819 -1.15741,-1.15741z" fill="#000000" stroke="#000000" stroke-width="0"/><path d="M241.98038,153.61772c0,-0.63922 0.51819,-1.1574 1.15741,-1.1574c0.63922,0 1.1574,0.51818 1.1574,1.1574c0,0.63922 -0.51818,1.15741 -1.1574,1.15741c-0.63922,0 -1.15741,-0.51819 -1.15741,-1.15741z" fill="#000000" stroke="#000000" stroke-width="0"/><path d="M239.75816,153.57143c0,-0.63922 0.51819,-1.15741 1.15741,-1.15741c0.63922,0 1.1574,0.51819 1.1574,1.15741c0,0.63922 -0.51818,1.15741 -1.1574,1.15741c-0.63922,0 -1.15741,-0.51819 -1.15741,-1.15741z" fill="#000000" stroke="#000000" stroke-width="0"/></g><g data-paper-data="{&quot;index&quot;:null}" stroke-linecap="butt"><path d="M241.3032,115.7832c2.16056,0 3.91204,1.76183 3.91204,3.93518c0,2.17335 -1.75148,3.93519 -3.91204,3.93519c-2.16056,0 -3.91204,-1.76185 -3.91204,-3.93519c0,-2.17334 1.75148,-3.93518 3.91204,-3.93518z" fill="#c9cce9" stroke="#b1b5cd" stroke-width="1"/><path d="M241.28005,120.82949c0,-0.63922 0.51818,-1.15741 1.1574,-1.15741c0.63922,0 1.15741,0.51819 1.15741,1.15741c0,0.63922 -0.51819,1.1574 -1.15741,1.1574c-0.63922,0 -1.1574,-0.51819 -1.1574,-1.1574z" fill="#000000" stroke="#000000" stroke-width="0"/><path d="M239.01152,120.8295c0,-0.63922 0.51819,-1.15741 1.15741,-1.15741c0.63922,0 1.1574,0.51819 1.1574,1.15741c0,0.63922 -0.51818,1.15741 -1.1574,1.15741c-0.63922,0 -1.15741,-0.51819 -1.15741,-1.15741z" fill="#000000" stroke="#000000" stroke-width="0"/><path d="M241.23375,118.69986c0,-0.63922 0.51819,-1.1574 1.15741,-1.1574c0.63922,0 1.1574,0.51818 1.1574,1.1574c0,0.63922 -0.51818,1.15741 -1.1574,1.15741c-0.63922,0 -1.15741,-0.51819 -1.15741,-1.15741z" fill="#000000" stroke="#000000" stroke-width="0"/><path d="M239.01152,118.65357c0,-0.63922 0.51819,-1.15741 1.15741,-1.15741c0.63922,0 1.1574,0.51819 1.1574,1.15741c0,0.63922 -0.51818,1.15741 -1.1574,1.15741c-0.63922,0 -1.15741,-0.51819 -1.15741,-1.15741z" fill="#000000" stroke="#000000" stroke-width="0"/></g><g data-paper-data="{&quot;index&quot;:null}" stroke-linecap="butt"><path d="M240.64903,78.56772c2.16056,0 3.91204,1.76183 3.91204,3.93518c0,2.17334 -1.75148,3.93518 -3.91204,3.93518c-2.16056,0 -3.91204,-1.76183 -3.91204,-3.93518c0,-2.17334 1.75148,-3.93518 3.91204,-3.93518z" fill="#c9cce9" stroke="#b1b5cd" stroke-width="1"/><path d="M240.62588,83.61404c0,-0.63922 0.51818,-1.15741 1.1574,-1.15741c0.63922,0 1.15741,0.51819 1.15741,1.15741c0,0.63922 -0.51819,1.15741 -1.15741,1.15741c-0.63922,0 -1.1574,-0.51819 -1.1574,-1.15741z" fill="#000000" stroke="#000000" stroke-width="0"/><path d="M238.35735,83.61404c0,-0.63922 0.51819,-1.15741 1.15741,-1.15741c0.63922,0 1.1574,0.51819 1.1574,1.15741c0,0.63922 -0.51818,1.15741 -1.1574,1.15741c-0.63922,0 -1.15741,-0.51819 -1.15741,-1.15741z" fill="#000000" stroke="#000000" stroke-width="0"/><path d="M240.57958,81.4844c0,-0.63922 0.51819,-1.1574 1.15741,-1.1574c0.63922,0 1.1574,0.51818 1.1574,1.1574c0,0.63922 -0.51818,1.15741 -1.1574,1.15741c-0.63922,0 -1.15741,-0.51819 -1.15741,-1.15741z" fill="#000000" stroke="#000000" stroke-width="0"/><path d="M238.35735,81.43806c0,-0.63922 0.51819,-1.15741 1.15741,-1.15741c0.63922,0 1.1574,0.51819 1.1574,1.15741c0,0.63922 -0.51818,1.15741 -1.1574,1.15741c-0.63922,0 -1.15741,-0.51819 -1.15741,-1.15741z" fill="#000000" stroke="#000000" stroke-width="0"/></g><g><path d="M240.5545,218.17854l-14.13863,-12.55333l8.23139,-140.16685l-5.58427,-5.67316l9.95952,-16.18258l1.45439,0.04401l0.1552,2.21197l-0.07428,11.71541c0,0 2.58221,23.83741 2.5819,38.85918c-0.0006,28.84311 -2.58522,121.74535 -2.58522,121.74535z" fill="#0d1c55" stroke="none" stroke-width="0" stroke-linecap="butt"/><path d="M238.39493,57.50639l2.05177,-11.71541l-0.61002,-2.11632l2.41091,-0.13967l9.76822,16.18258l-5.58427,5.67316l8.23139,140.50019l-14.13863,12.21999c0,0 -1.05335,-56.60243 -1.05392,-84.03426c-0.00054,-26.02938 -0.7057,-75.18372 -0.7057,-75.18372z" data-paper-data="{&quot;index&quot;:null}" fill="#0d1c55" stroke="none" stroke-width="0" stroke-linecap="butt"/><path d="M250.5657,134.28444h-20" fill="none" stroke="#aaadc9" stroke-width="2" stroke-linecap="round"/><path d="M239.19227,135.6811v-3.36504h3.76093v3.36504c0,0 -0.57615,0.90488 -1.86632,0.90488c-1.31845,0 -1.8946,-0.90488 -1.8946,-0.90488z" fill="#aaadc9" stroke="none" stroke-width="0" stroke-linecap="butt"/></g><g data-paper-data="{&quot;index&quot;:null}" fill="none" stroke="#aaadc9" stroke-width="1"><path d="M242.5075,43.95489c0,0 6.33128,-0.14177 9.98396,-3.72384c3.92999,-3.85402 12.60114,-18.36458 12.60114,-18.36458c0,0 5.67959,6.40944 7.76305,9.12177c2.0454,2.66279 4.71654,6.73361 4.71654,6.73361l-18.26348,33.00439z" stroke-linecap="butt"/><path d="M328.32935,49.51743l-50.86253,-11.68261" stroke-linecap="round"/><path d="M273.70294,45.34532l52.70996,12.35043" stroke-linecap="round"/></g><g fill="none" stroke="#aaadc9" stroke-width="1"><path d="M221.52814,70.72624l-18.26348,-33.00439c0,0 2.67114,-4.07082 4.71654,-6.73361c2.08346,-2.71233 7.76305,-9.12177 7.76305,-9.12177c0,0 8.67115,14.51056 12.60114,18.36458c3.65268,3.58207 9.98396,3.72384 9.98396,3.72384z" stroke-linecap="butt"/><path d="M203.37003,37.83482l-50.70077,11.6704" stroke-linecap="round"/><path d="M207.13391,45.34532l-52.29487,12.35043" stroke-linecap="round"/></g><g fill="none" stroke="#aaadc9" stroke-width="1"><path d="M174.92335,163.24692v-57.08604h43.81035v57.48604l-5.96301,4.72086h-31.7z" stroke-linecap="butt"/><path d="M190.09577,122.86089l-0.37931,45.31724" stroke-linecap="round"/><path d="M205.45784,122.85054l-0.37931,45.32759" stroke-linecap="round"/><path d="M218.56473,118.06089l-5.79347,4.82716l-31.70028,-0.06447l-5.94763,-4.57304" stroke-linecap="round"/></g><path d="M131.80594,335.20059c0,0 -4.15969,-48.35597 -4.66091,-78.76263c-0.33823,-20.51881 -0.31586,-42.9694 -0.0852,-64.75975c0.06227,-5.87904 0.71973,-48.08879 2.65169,-64.51307c2.34585,-19.94291 6.83372,-38.14356 8.70858,-43.90446c5.92052,-18.1919 14.39824,-34.23501 14.39824,-34.23501l50.29532,-12.23379c0,0 1.54137,-2.85035 3.38433,-4.89817c2.78246,-3.09175 5.05506,-5.60975 5.05506,-5.60975l2.71409,9.27765c0,0 4.37903,15.14922 11.49588,33.59865c4.82451,12.50688 10.42561,28.82226 14.92978,40.26759c2.02514,5.14599 4.81533,8.10039 6.17263,12.1099c6.17633,18.24536 8.63952,36.5574 5.41861,57.72224c-2.8481,18.71518 -3.10824,61.48933 -2.54888,102.47743c0.66683,48.86271 -0.37668,64.31216 -0.37668,64.31216l-83.5295,-2.05262c0,0 0.65248,-13.88113 0.63894,-21.084c-0.02527,-13.43772 2.28767,-45.32186 2.93554,-55.11858c0.06303,-0.95303 -1.37551,0.16022 -1.31653,-0.37639c0.46028,-4.18793 0.7398,-8.93246 1.69933,-13.12226c1.06217,-4.63796 2.81677,-8.59615 3.48582,-10.36709c0.86749,-2.76005 1.6432,-11.93929 2.074,-22.33317c0.29784,-7.18603 0.69183,-14.95264 -0.23217,-21.5799c-1.47958,-10.62081 -4.22064,-31.71255 -4.81263,-32.458c-1.30161,3.03812 -2.46764,44.91563 -3.49605,78.89185c-1.26588,41.82167 -3.7909,85.74684 -3.7909,85.74684c0,0 -7.99932,0.8189 -12.74735,1.16556c-5.60571,0.40929 -18.46104,1.83877 -18.46104,1.83877z" data-paper-data="{&quot;index&quot;:null}" fill="#0d1c55" stroke="none" stroke-width="0" stroke-linecap="butt"/><g fill="none" stroke="#aaadc9" stroke-width="1"><path d="M259.92335,163.24692v-57.08604h43.81035v57.48604l-5.96301,4.72086h-31.7z" stroke-linecap="butt"/><path d="M275.09577,122.86089l-0.37931,45.31724" stroke-linecap="round"/><path d="M290.45784,122.85054l-0.37931,45.32759" stroke-linecap="round"/><path d="M303.56473,118.06089l-5.79347,4.82716l-31.70028,-0.06447l-5.94763,-4.57304" stroke-linecap="round"/></g><g data-paper-data="{&quot;index&quot;:null}" stroke-linecap="butt"><path d="M283.04983,113.45106c2.16056,0 3.91204,1.76183 3.91204,3.93518c0,2.17334 -1.75148,3.93518 -3.91204,3.93518c-2.16056,0 -3.91204,-1.76183 -3.91204,-3.93518c0,-2.17334 1.75148,-3.93518 3.91204,-3.93518z" fill="#c9cce9" stroke="#b1b5cd" stroke-width="1"/><path d="M283.02669,118.49736c0,-0.63922 0.51818,-1.15741 1.1574,-1.15741c0.63922,0 1.15741,0.51819 1.15741,1.15741c0,0.63922 -0.51819,1.15741 -1.15741,1.15741c-0.63922,0 -1.1574,-0.51819 -1.1574,-1.15741z" fill="#000000" stroke="#000000" stroke-width="0"/><path d="M280.75817,118.49734c0,-0.63922 0.51819,-1.15741 1.15741,-1.15741c0.63922,0 1.1574,0.51819 1.1574,1.15741c0,0.63922 -0.51818,1.15741 -1.1574,1.15741c-0.63922,0 -1.15741,-0.51819 -1.15741,-1.15741z" fill="#000000" stroke="#000000" stroke-width="0"/><path d="M282.98039,116.36772c0,-0.63922 0.51819,-1.1574 1.15741,-1.1574c0.63922,0 1.1574,0.51818 1.1574,1.1574c0,0.63922 -0.51818,1.15741 -1.1574,1.15741c-0.63922,0 -1.15741,-0.51819 -1.15741,-1.15741z" fill="#000000" stroke="#000000" stroke-width="0"/><path d="M280.75817,116.32143c0,-0.63922 0.51819,-1.15741 1.15741,-1.15741c0.63922,0 1.1574,0.51819 1.1574,1.15741c0,0.63922 -0.51818,1.15741 -1.1574,1.15741c-0.63922,0 -1.15741,-0.51819 -1.15741,-1.15741z" fill="#000000" stroke="#000000" stroke-width="0"/></g><path d="" data-paper-data="{&quot;index&quot;:null}" fill="#5b73d2" stroke="none" stroke-width="0" stroke-linecap="butt"/><path d="" fill="none" stroke="#ff0000" stroke-width="0.5" stroke-linecap="round"/><path d="" fill="none" stroke="#ff0000" stroke-width="0.5" stroke-linecap="round"/><path d="" fill="none" stroke="#ff0000" stroke-width="0.5" stroke-linecap="round"/><path d="" fill="none" stroke="#ff0000" stroke-width="0.5" stroke-linecap="round"/><path d="" fill="none" stroke="#ff0000" stroke-width="0.5" stroke-linecap="round"/><path d="" fill="none" stroke="#ff0000" stroke-width="0.5" stroke-linecap="round"/><path d="" fill="none" stroke="#ff0000" stroke-width="0.5" stroke-linecap="round"/><path d="" fill="none" stroke="#ff0000" stroke-width="0.5" stroke-linecap="round"/><path d="M330.71934,333.77849c-4.74802,-0.34666 -12.60632,-1.16556 -12.60632,-1.16556c0,0 -2.66604,-43.92516 -3.93192,-85.74684c-1.02841,-33.97622 -2.19444,-75.85374 -3.49606,-78.89186c-0.59199,0.74545 -3.33305,21.83719 -4.81263,32.458c-0.924,6.62726 -0.53001,14.39388 -0.23217,21.57991c0.4308,10.39388 1.20651,19.57311 2.074,22.33316c0.66906,1.77094 2.42364,5.72913 3.48582,10.36709c0.95954,4.1898 1.23905,8.93434 1.69934,13.12227c0.05897,0.53661 -1.37956,-0.57665 -1.31654,0.37638c0.64787,9.79672 2.96081,41.68087 2.93554,55.11859c-0.01355,7.20287 0.63894,21.084 0.63894,21.084l-83.5295,2.05262c0,0 -1.04351,-15.44945 -0.37668,-64.31216c0.55936,-40.9881 0.29922,-83.76225 -2.54888,-102.47743c-3.22091,-21.16484 -0.75772,-39.47688 5.41861,-57.72224c1.3573,-4.00951 4.14749,-6.96391 6.17263,-12.1099c4.50417,-11.44533 10.10527,-27.76071 14.92978,-40.26759c7.11685,-18.44943 11.49588,-33.59865 11.49588,-33.59865l2.71409,-9.27765c0,0 2.2726,2.518 5.05506,5.60975c1.84296,2.04782 3.38433,4.89817 3.38433,4.89817l50.57737,12.09277c0,0 8.19566,16.18413 14.11618,34.37603c1.87487,5.7609 6.36274,23.96155 8.70859,43.90446c1.93196,16.42428 2.58942,58.63404 2.65169,64.51308c0.23066,21.79035 0.25303,44.24094 -0.0852,64.75975c-0.50122,30.40666 -4.66091,78.76263 -4.66091,78.76263c0,0 -12.85533,-1.42948 -18.46104,-1.83877z" data-paper-data="{&quot;index&quot;:null}" fill="#0d1c55" stroke="none" stroke-width="0" stroke-linecap="butt"/><path d="" fill="none" stroke="#ff0000" stroke-width="0.5" stroke-linecap="round"/><path d="" fill="none" stroke="#ff0000" stroke-width="0.5" stroke-linecap="round"/><path d="" fill="#9966ff" stroke="none" stroke-width="0" stroke-linecap="butt"/><path d="" fill="#bebdbe" stroke="#ff0000" stroke-width="0.5" stroke-linecap="butt"/><path d="" fill="#bebdbe" stroke="#ff0000" stroke-width="0.5" stroke-linecap="butt"/><path d="M237.68889,118.15941c-7.5069,-6.71565 -17.33887,-15.6299 -23.10238,-21.12976c-8.43718,-8.05121 -22.94322,-23.47792 -22.94322,-23.47792l14.77292,-6.2947l-13.01078,-7.01802l9.98898,-23.89988c0,0 1.48104,-2.56328 3.19433,-4.5731c2.1775,-2.5544 4.80387,-5.61565 4.80387,-5.61565c0,0 2.26243,7.14162 5.15421,17.04337c2.45854,8.41818 6.2242,17.06255 9.51258,26.42743c3.43363,9.77857 9.40073,25.80294 14.42744,39.16777" data-paper-data="{&quot;index&quot;:null}" fill="none" stroke="#091647" stroke-width="1" stroke-linecap="round"/><path d="M173.14731,243.8297c0,0 6.71151,1.2535 11.25223,1.69907c5.99898,0.58867 21.60112,1.22494 21.60112,1.22494l-0.7142,24.81659c0,0 -18.70226,-1.02741 -25.45864,-1.79383c-5.57202,-0.63207 -11.7692,-2.47972 -11.7692,-2.47972c0,0 0.87283,-9.44843 1.77421,-13.58588c0.81609,-3.74588 3.31448,-9.88119 3.31448,-9.88119z" data-paper-data="{&quot;index&quot;:null}" fill="none" stroke="#091647" stroke-width="1" stroke-linecap="round"/><path d="M170.36801,166.04128c0,0 -1.84478,23.01506 -2.49267,50.27045c-0.93087,39.1602 -4.75889,115.75743 -4.75889,115.75743l-31.44407,2.75808c0,0 -3.02572,-30.50954 -4.45403,-68.45033c-0.81533,-21.6579 -0.61575,-45.7373 -0.28082,-67.94546c0.1606,-10.64875 0.06678,-21.25642 0.529,-31.46687c1.52729,-33.73744 1.13059,-41.81227 6.79625,-68.46202c5.66566,-26.64975 18.10701,-49.6169 18.10701,-49.6169c0,0 17.74375,-4.00421 27.26796,-6.5085c9.52422,-2.50429 23.43693,-5.77083 23.43693,-5.77083l-50.39503,12.24202l1.66442,8.4194c0,0 3.88981,24.13745 5.91785,37.45724c2.02803,13.31979 5.62591,40.5986 8.19308,55.22087c1.15299,6.56716 1.67462,15.43823 2.9115,23.89593c1.46554,10.02123 3.50309,20.99786 4.05044,30.50468c1.05775,18.37199 -2.00371,39.15633 -2.00371,39.15633" data-paper-data="{&quot;index&quot;:null}" fill="none" stroke="#091647" stroke-width="1" stroke-linecap="round"/><path d="M231.34053,345.92506c-0.22043,-0.00556 -65.6711,-1.83259 -65.6711,-1.83259l3.62675,-76.38451" data-paper-data="{&quot;index&quot;:null}" fill="none" stroke="#091647" stroke-width="1" stroke-linecap="round"/><path d="" fill="#bebdbe" stroke="#ff0000" stroke-width="0.5" stroke-linecap="butt"/><path d="" fill="#bebdbe" stroke="#ff0000" stroke-width="0.5" stroke-linecap="butt"/><path d="" fill="#bebdbe" stroke="#ff0000" stroke-width="0.5" stroke-linecap="butt"/><path d="" fill="#bebdbe" stroke="#ff0000" stroke-width="0.5" stroke-linecap="butt"/><path d="M235.58319,127.52682c0.16309,-0.43307 1.14901,-4.90323 2.3351,-9.11733c1.28279,-4.55766 2.77247,-9.28542 2.95388,-9.7679c4.98154,-13.24919 10.6693,-28.96237 14.05476,-38.60375c3.28839,-9.36488 7.05405,-18.00925 9.51258,-26.42743c2.89179,-9.90175 5.15421,-17.04337 5.15421,-17.04337c0,0 2.62637,3.06125 4.80387,5.61565c1.71329,2.00982 3.19433,4.57309 3.19433,4.57309l9.98898,23.89989l-13.01078,7.01803l14.77292,6.29469c0,0 -14.50604,15.42671 -22.94322,23.47793c-5.55449,5.3004 -15.186,13.99574 -22.5967,20.63064c-0.12519,0.11209 -4.69017,4.2355 -8.01077,9.06073c-0.18843,0.27382 -1.8201,6.11321 -2.33666,9.79174c-0.21248,1.51315 -0.16513,16.90823 -0.33604,38.71114c-0.05824,7.43007 0.36423,15.60431 0.30498,24.22691c-0.10147,14.76663 -0.23074,30.84823 -0.36918,46.75914c-0.43729,50.25788 -1.60837,98.81261 -1.64123,98.842" data-paper-data="{&quot;index&quot;:null}" fill="none" stroke="#091647" stroke-width="1" stroke-linecap="round"/><path d="M196.69385,150.33165c0,0 1.2591,36.44171 1.48288,53.25687c0.19914,14.96388 -0.20545,42.28588 -0.20545,42.28588" data-paper-data="{&quot;index&quot;:null}" fill="none" stroke="#091647" stroke-width="1" stroke-linecap="round"/><path d="M283.01505,246.38418c0,0 -0.40459,-27.32199 -0.20545,-42.28587c0.22379,-16.81516 1.48288,-53.25687 1.48288,-53.25687" data-paper-data="{&quot;index&quot;:null}" fill="none" stroke="#091647" stroke-width="1" stroke-linecap="round"/><path d="M307.83902,244.24635c0,0 2.49839,6.1353 3.31448,9.88119c0.90138,4.13745 1.77421,13.58587 1.77421,13.58587c0,0 -6.19718,1.84766 -11.7692,2.47973c-6.75638,0.76642 -25.45864,1.79383 -25.45864,1.79383l-0.7142,-24.81658c0,0 15.60214,-0.63627 21.60112,-1.22494c4.54072,-0.44557 11.25223,-1.69907 11.25223,-1.69907z" data-paper-data="{&quot;index&quot;:null}" fill="none" stroke="#091647" stroke-width="1" stroke-linecap="round"/><path d="M307.57311,243.91949c0,0 -3.06146,-20.78434 -2.00371,-39.15633c0.54735,-9.50682 2.5849,-20.48345 4.05044,-30.50468c1.23688,-8.4577 1.75851,-17.32877 2.9115,-23.89593c2.56717,-14.62227 6.16505,-41.90108 8.19308,-55.22087c2.02804,-13.31979 5.91785,-37.45724 5.91785,-37.45724l1.5562,-8.4194l-50.28682,-12.24202c0,0 13.9127,3.26654 23.43692,5.77083c9.52421,2.50429 27.06796,6.5085 27.06796,6.5085c0,0 12.64135,22.96714 18.30701,49.6169c5.66566,26.64976 5.26896,34.72459 6.79625,68.46203c0.46222,10.21045 0.36841,20.81812 0.52901,31.46687c0.33493,22.20816 0.5345,46.28755 -0.28082,67.94546c-1.42831,37.94079 -4.45403,68.45033 -4.45403,68.45033l-31.44407,-2.75808c0,0 -3.82802,-76.59723 -4.75889,-115.75743c-0.64789,-27.25539 -2.49266,-50.27045 -2.49266,-50.27045" data-paper-data="{&quot;index&quot;:null}" fill="none" stroke="#091647" stroke-width="1" stroke-linecap="round"/><path d="M307.98569,120.80029l-1.32016,8.97629l-46.01671,0.11282l0.18699,-9.17559z" data-paper-data="{&quot;index&quot;:null}" fill="none" stroke="#091647" stroke-width="1" stroke-linecap="round"/><path d="M311.59165,268.33617l3.48751,75.96144c0,0 -63.63889,1.24171 -83.89737,1.7523" data-paper-data="{&quot;index&quot;:null}" fill="none" stroke="#091647" stroke-width="1" stroke-linecap="round"/><g stroke-linecap="butt"><path d="M245.96039,135.15611c0,2.80059 -2.27682,5.07092 -5.08542,5.07092c-2.8086,0 -5.08542,-2.27033 -5.08542,-5.07092c0,-2.80059 2.27682,-5.07092 5.08542,-5.07092c2.8086,0 5.08542,2.27033 5.08542,5.07092z" fill="#bababa" stroke="#cfcfcf" stroke-width="0.5"/><path d="M238.91604,138.68549c-0.07388,0.05438 -0.32583,-0.16831 -0.32583,-0.16831c0,0 -0.24864,0.22632 -0.32313,0.17296c-0.07448,-0.05335 0.05932,-0.36163 0.05932,-0.36163c0,0 -0.2919,-0.16678 -0.2643,-0.25399c0.02771,-0.08736 0.36225,-0.05528 0.36225,-0.05528c0,0 0.0682,-0.32927 0.15996,-0.32986c0.09161,-0.00071 0.1644,0.32747 0.1644,0.32747c0,0 0.33433,-0.03685 0.36323,0.05007c0.02917,0.08703 -0.26037,0.25776 -0.26037,0.25776c0,0 0.13813,0.30643 0.06448,0.36079z" fill="#cfcfcf" stroke="none" stroke-width="2.57572"/><g stroke="none" stroke-width="0"><path d="M240.02425,135.59346v-1.60996h1.69183v1.60996z" fill="url(#color-1)"/><path d="M240.45176,135.39666l0.43087,-1.83736l0.41505,1.83736z" fill="url(#color-2)"/><path d="M239.51883,138.25028c-0.06997,-0.1835 0.11023,-0.58722 0.11502,-0.97285c0.0048,-0.38765 -0.21719,-1.02882 -0.21719,-1.02882l0.32047,-0.68162l2.27396,0.0091l0.28325,0.6456c0,0 -0.1711,0.64233 -0.15348,1.01059c0.01855,0.38777 0.22126,0.70555 0.10672,1.03617c-0.10092,0.29131 -0.64935,0.29054 -0.82391,0.4054c-0.26857,0.17673 -0.51318,0.36774 -0.51318,0.36774c0,0 -0.23976,-0.20917 -0.57637,-0.35619c-0.28418,-0.12412 -0.71811,-0.1803 -0.81528,-0.43514z" fill="url(#color-3)"/><path d="M239.87357,137.9311l1.0424,-1.83736l1.00415,1.83736z" fill="url(#color-4)"/><path d="M237.76379,132.77385c-0.20001,-0.34732 -0.04913,-0.58893 -0.03726,-0.67213c0.02091,-0.14654 0.30783,0.49882 0.66769,0.55019c0.23024,0.03286 0.79951,0.27713 0.98799,0.45411c0.10611,0.09963 -0.02633,0.29852 -0.02633,0.29852c0,0 -0.52127,-0.05981 -0.87228,-0.15433c-0.17331,-0.04667 -0.56757,-0.21198 -0.71982,-0.47636z" fill="url(#color-5)"/><path d="M238.01972,133.46207c-0.25541,-0.30886 -0.27453,-0.57236 -0.27676,-0.65637c-0.00395,-0.14798 0.58185,0.4829 0.94523,0.47319c0.23249,-0.00621 0.76727,0.09641 0.98274,0.23928c0.1213,0.08044 0.02411,0.29871 0.02411,0.29871c0,0 -0.52393,0.02844 -0.88581,-0.00588c-0.17869,-0.01695 -0.59508,-0.11381 -0.7895,-0.34893z" fill="url(#color-6)"/><path d="M239.14816,134.24866c-0.16129,0.01787 -0.54773,0.00874 -0.7631,-0.16363c-0.28293,-0.22643 -0.26288,-0.47958 -0.28032,-0.55355c-0.03072,-0.13027 0.49518,0.30266 0.81506,0.22721c0.20467,-0.04826 0.72025,-0.01463 0.93729,0.0722c0.12218,0.04888 0.07629,0.25999 0.07629,0.25999c0,0 -0.45855,0.12158 -0.78523,0.15776z" fill="url(#color-7)"/><path d="M239.64705,134.48221c-0.12161,0.0347 -0.51649,0.12085 -0.72625,0.03826c-0.27555,-0.10849 -0.29062,-0.29939 -0.32209,-0.35292c-0.05544,-0.09428 0.48215,0.16429 0.7137,0.02817c0.14814,-0.0871 0.52414,-0.13526 0.71454,-0.11985c0.10719,0.00867 0.18599,0.18457 0.18599,0.18457c0,0 -0.43836,0.18539 -0.5659,0.22177z" fill="url(#color-8)"/><path d="M239.26273,134.81796c-0.26451,-0.06692 -0.30059,-0.2396 -0.33561,-0.28484c-0.06168,-0.07969 0.45073,0.08465 0.64641,-0.06683c0.1252,-0.09691 0.47227,-0.1758 0.64807,-0.184c0.09898,-0.00461 0.19156,0.14692 0.19156,0.14692c0,0 -0.37892,0.22068 -0.49121,0.26884c-0.10708,0.04593 -0.45787,0.17084 -0.65922,0.1199z" fill="url(#color-9)"/><path d="M240.25563,134.87737c-0.10238,0.05563 -0.44013,0.2124 -0.64533,0.18028c-0.26955,-0.04221 -0.33052,-0.21081 -0.36959,-0.25263c-0.06879,-0.07364 0.46652,0.04178 0.64737,-0.12712c0.11571,-0.10806 0.45321,-0.2178 0.62751,-0.24219c0.09812,-0.01374 -0.12313,0.29233 -0.12313,0.29233c0,0 -0.02946,0.09101 -0.13684,0.14933z" fill="url(#color-10)"/><path d="M240.35834,137.83223c-0.22748,0.09352 -0.3947,0.08073 -0.3735,-0.02859c0.0212,-0.10931 0.22277,-0.27373 0.45025,-0.36726c0.22748,-0.09352 0.3947,-0.08073 0.3735,0.02857c-0.0212,0.10931 -0.22277,0.27373 -0.45025,0.36726z" fill="url(#color-11)"/><path d="M240.76236,136.66414c0.02539,-0.24464 0.11589,-0.38583 0.20211,-0.31539c0.08622,0.07045 0.13553,0.32587 0.11014,0.57051c-0.02539,0.24464 -0.11588,0.38584 -0.20211,0.31539c-0.08622,-0.07045 -0.13553,-0.32587 -0.11014,-0.57051z" fill="url(#color-12)"/><path d="M241.59391,137.5645c0.19599,0.14858 0.26979,0.29918 0.16484,0.33637c-0.10495,0.03718 -0.34891,-0.05312 -0.5449,-0.20172c-0.19599,-0.14858 -0.2698,-0.29918 -0.16485,-0.33637c0.10495,-0.03718 0.34892,0.05312 0.54491,0.20172z" fill="url(#color-13)"/><path d="M241.05603,137.36715c0,0.08038 -0.06718,0.14553 -0.15008,0.14553c-0.08288,0 -0.15008,-0.06515 -0.15008,-0.14553c0,-0.08038 0.0672,-0.14553 0.15008,-0.14553c0.08288,0 0.15008,0.06515 0.15008,0.14553z" fill="url(#color-14)"/><path d="M243.33057,133.23533c-0.35101,0.09451 -0.87228,0.15432 -0.87228,0.15432c0,0 -0.13242,-0.19889 -0.02633,-0.29852c0.18846,-0.17697 0.75774,-0.42125 0.98799,-0.45411c0.35986,-0.05136 0.64677,-0.69674 0.66769,-0.55019c0.01188,0.0832 0.16275,0.32481 -0.03726,0.67213c-0.15225,0.26439 -0.5465,0.4297 -0.71982,0.47636z" data-paper-data="{&quot;index&quot;:null}" fill="url(#color-15)"/><path d="M243.00496,133.79611c-0.36188,0.03432 -0.88581,0.00588 -0.88581,0.00588c0,0 -0.09721,-0.21827 0.02411,-0.29871c0.21547,-0.14287 0.75025,-0.24548 0.98274,-0.23928c0.36337,0.0097 0.94918,-0.62116 0.94523,-0.47318c-0.00224,0.08401 -0.02137,0.3475 -0.27676,0.65636c-0.19442,0.23512 -0.61083,0.33199 -0.7895,0.34893z" data-paper-data="{&quot;index&quot;:null}" fill="url(#color-16)"/><path d="M242.66603,134.23377c-0.32668,-0.0362 -0.78523,-0.15776 -0.78523,-0.15776c0,0 -0.04589,-0.21111 0.07629,-0.25999c0.21704,-0.08683 0.73262,-0.12046 0.93729,-0.0722c0.31988,0.07545 0.84578,-0.35748 0.81506,-0.22723c-0.01745,0.07396 0.0026,0.32712 -0.28032,0.55355c-0.21536,0.17237 -0.6018,0.1815 -0.7631,0.16363z" data-paper-data="{&quot;index&quot;:null}" fill="url(#color-17)"/><path d="M242.16713,134.46733c-0.12753,-0.03639 -0.5659,-0.22177 -0.5659,-0.22177c0,0 0.0788,-0.1759 0.18599,-0.18457c0.1904,-0.0154 0.5664,0.03277 0.71454,0.11985c0.23155,0.13612 0.76912,-0.12245 0.7137,-0.02817c-0.03147,0.05354 -0.04653,0.24442 -0.32209,0.35292c-0.20976,0.08259 -0.60464,-0.00356 -0.72625,-0.03826z" data-paper-data="{&quot;index&quot;:null}" fill="url(#color-18)"/><path d="M241.89224,134.68317c-0.11229,-0.04816 -0.49121,-0.26885 -0.49121,-0.26885c0,0 0.09259,-0.15154 0.19156,-0.14692c0.1758,0.00819 0.52287,0.08709 0.64807,0.184c0.19568,0.15148 0.70809,-0.01286 0.64641,0.06683c-0.03502,0.04525 -0.07111,0.21793 -0.33562,0.28485c-0.20135,0.05094 -0.55213,-0.07398 -0.65921,-0.1199z" data-paper-data="{&quot;index&quot;:null}" fill="url(#color-19)"/><path d="M241.55855,134.86249c-0.10736,-0.05834 -0.13684,-0.14934 -0.13684,-0.14934c0,0 -0.22126,-0.30607 -0.12313,-0.29233c0.17429,0.02439 0.51179,0.13414 0.62751,0.2422c0.18086,0.1689 0.71615,0.05347 0.64737,0.12711c-0.03905,0.04182 -0.10003,0.21042 -0.36959,0.25263c-0.2052,0.03212 -0.54293,-0.12465 -0.64531,-0.18027z" data-paper-data="{&quot;index&quot;:null}" fill="url(#color-20)"/><path d="M239.55707,135.86964c0,0 0.08829,-0.2017 0.15966,-0.28684c0.05123,-0.06113 0.20788,-0.05063 0.2511,-0.11545c0.07402,-0.11104 0.05068,-0.10816 0.09596,-0.20833c0.04861,-0.10753 -0.08255,0.01109 -0.02503,-0.15668c0.02443,-0.07124 0.10433,-0.13715 0.16148,-0.22585c0.03672,-0.05701 0.00189,-0.07695 0.02822,-0.14079c0.01768,-0.04288 0.09789,-0.13054 0.11496,-0.16899c0.03829,-0.08628 -0.01147,-0.09531 0.00236,-0.16206c0.02026,-0.09773 0.0936,-0.23594 0.0936,-0.23594l0.34564,0.07277c0,0 -0.04838,0.14558 -0.09364,0.2235c-0.04242,0.07303 -0.08098,0.07557 -0.10646,0.16378c-0.03442,0.1192 0.03419,0.2079 -0.00581,0.29561c-0.05897,0.12933 -0.12272,0.02728 -0.148,0.10003c-0.0418,0.12032 -0.01904,0.2904 -0.01904,0.2904c0,0 -0.12474,-0.03104 -0.18903,0.01758c-0.04191,0.03169 -0.07715,0.19859 -0.15533,0.275c-0.00612,0.00599 0.10879,0.18667 0.05654,0.24957c-0.033,0.03974 -0.10403,-0.19957 -0.17135,-0.18451c-0.08028,0.01796 -0.05462,0.29608 -0.07217,0.2965c-0.11332,0.00266 -0.0248,-0.3184 -0.06948,-0.29323c-0.06995,0.03942 -0.15726,0.15703 -0.20137,0.19366c-0.05044,0.04189 -0.05281,0.00027 -0.05281,0.00027z" fill="url(#color-21)"/><path d="M242.1435,135.87268c-0.04412,-0.03664 -0.13142,-0.15426 -0.20137,-0.19366c-0.04468,-0.02517 0.04385,0.29589 -0.06948,0.29323c-0.01755,-0.00042 0.00811,-0.27853 -0.07217,-0.2965c-0.06731,-0.01506 -0.13835,0.22425 -0.17135,0.18451c-0.05224,-0.0629 0.06265,-0.24358 0.05653,-0.24957c-0.07818,-0.07641 -0.11342,-0.24332 -0.15533,-0.275c-0.06431,-0.04862 -0.18903,-0.01759 -0.18903,-0.01759c0,0 0.02277,-0.17007 -0.01904,-0.29038c-0.02528,-0.07275 -0.08902,0.0293 -0.14799,-0.10003c-0.03999,-0.08771 0.02861,-0.17641 -0.00581,-0.29561c-0.02547,-0.08822 -0.06404,-0.09076 -0.10646,-0.16378c-0.04526,-0.07792 -0.09364,-0.22349 -0.09364,-0.22349l0.34564,-0.07277c0,0 0.07334,0.13823 0.0936,0.23594c0.01384,0.06674 -0.03591,0.07577 0.00236,0.16205c0.01705,0.03844 0.09729,0.1261 0.11496,0.16899c0.02633,0.06385 -0.00852,0.08379 0.02821,0.14079c0.05714,0.08869 0.13705,0.1546 0.16148,0.22585c0.05752,0.16777 -0.07364,0.04916 -0.02503,0.15668c0.04528,0.10018 0.02194,0.09729 0.09596,0.20833c0.04321,0.06482 0.19985,0.05432 0.2511,0.11545c0.07138,0.08514 0.15966,0.28684 0.15966,0.28684c0,0 -0.00238,0.04161 -0.05281,-0.00027z" data-paper-data="{&quot;index&quot;:null}" fill="url(#color-22)"/><path d="M239.63892,134.07149c-0.13197,-0.1999 -0.40175,-1.03706 -0.40175,-1.03706c0,0 0.50389,-0.32153 0.80923,0.04079c0.0748,0.08876 0.20268,0.23348 0.29943,0.39873c0.15595,0.26632 0.27734,0.58591 0.31234,0.8103c0.03193,0.20471 -0.37542,0.62415 -0.37542,0.62415c0,0 -0.37654,-0.43205 -0.64383,-0.83691z" fill="url(#color-23)"/><path d="M242.18109,134.07742c-0.26728,0.40486 -0.64383,0.83691 -0.64383,0.83691c0,0 -0.40735,-0.41944 -0.37542,-0.62415c0.02452,-0.15719 0.02596,-0.41907 0.12598,-0.61868c0.04426,-0.08832 0.10127,-0.16922 0.16163,-0.2427c0.11879,-0.14456 0.25062,-0.2604 0.32415,-0.34765c0.30534,-0.36233 0.83178,-0.10843 0.83178,-0.10843c0,0 -0.29233,0.9048 -0.4243,1.10469z" data-paper-data="{&quot;index&quot;:null}" fill="url(#color-24)"/><path d="M241.43823,133.4025c0,0.77234 -0.2498,1.39845 -0.55793,1.39845c-0.30814,0 -0.55793,-0.62611 -0.55793,-1.39845c0,-0.3553 0.09844,-0.4859 0.15562,-0.74967c0.00815,-0.03758 0.03475,-0.23577 -0.03701,-0.25277c-0.09734,-0.02308 -0.3026,0.13506 -0.29921,0.06084c0.00258,-0.05634 0.17357,-0.145 0.28855,-0.23668c0.06535,-0.05211 0.09788,-0.12973 0.10788,-0.14173c0.07286,-0.08743 0.25591,-0.07844 0.34208,-0.07844c0.26437,0 0.41335,0.49714 0.47091,1.11587c0.00952,0.10241 0.08702,0.1729 0.08702,0.28258z" fill="#cecece"/></g><path d="M237.82854,137.61698c-0.07388,0.05438 -0.32583,-0.16831 -0.32583,-0.16831c0,0 -0.24865,0.22632 -0.32314,0.17298c-0.07448,-0.05335 0.05932,-0.36163 0.05932,-0.36163c0,0 -0.2919,-0.16676 -0.2643,-0.25398c0.02772,-0.08735 0.36225,-0.05528 0.36225,-0.05528c0,0 0.0682,-0.32927 0.15995,-0.32986c0.09161,-0.00071 0.1644,0.32747 0.1644,0.32747c0,0 0.33433,-0.03685 0.36323,0.05007c0.02917,0.08702 -0.26036,0.25776 -0.26036,0.25776c0,0 0.13812,0.30643 0.06448,0.36079z" fill="#cfcfcf" stroke="none" stroke-width="2.57572"/><path d="M237.22092,136.11693c-0.07388,0.05438 -0.32583,-0.16831 -0.32583,-0.16831c0,0 -0.24865,0.22632 -0.32314,0.17298c-0.07448,-0.05335 0.05932,-0.36163 0.05932,-0.36163c0,0 -0.2919,-0.16676 -0.2643,-0.25398c0.02772,-0.08735 0.36225,-0.05528 0.36225,-0.05528c0,0 0.0682,-0.32927 0.15995,-0.32986c0.09161,-0.00071 0.1644,0.32747 0.1644,0.32747c0,0 0.33433,-0.03685 0.36323,0.05007c0.02917,0.08702 -0.26036,0.25776 -0.26036,0.25776c0,0 0.13812,0.30643 0.06448,0.36079z" fill="#cfcfcf" stroke="none" stroke-width="2.57572"/><path d="M237.38664,134.53576c-0.07388,0.05437 -0.32583,-0.16832 -0.32583,-0.16832c0,0 -0.24865,0.22632 -0.32313,0.17298c-0.07448,-0.05335 0.05932,-0.36163 0.05932,-0.36163c0,0 -0.29189,-0.16676 -0.26429,-0.25398c0.02772,-0.08735 0.36223,-0.05527 0.36223,-0.05527c0,0 0.0682,-0.32928 0.15995,-0.32986c0.09161,-0.00071 0.1644,0.32748 0.1644,0.32748c0,0 0.33433,-0.03686 0.36323,0.05007c0.02917,0.08702 -0.26036,0.25776 -0.26036,0.25776c0,0 0.13812,0.30643 0.06448,0.36077z" fill="#cfcfcf" stroke="none" stroke-width="2.57572"/><path d="M242.79822,132.12427c-0.07388,0.05437 -0.32583,-0.16832 -0.32583,-0.16832c0,0 -0.24865,0.22632 -0.32313,0.17298c-0.07448,-0.05335 0.05932,-0.36163 0.05932,-0.36163c0,0 -0.29189,-0.16676 -0.26429,-0.25398c0.02772,-0.08735 0.36223,-0.05527 0.36223,-0.05527c0,0 0.0682,-0.32928 0.15995,-0.32986c0.09161,-0.00071 0.1644,0.32748 0.1644,0.32748c0,0 0.33433,-0.03686 0.36323,0.05007c0.02917,0.08702 -0.26036,0.25776 -0.26036,0.25776c0,0 0.13812,0.30643 0.06448,0.36077z" fill="#cfcfcf" stroke="none" stroke-width="2.57572"/><path d="M241.12728,131.61159c-0.07388,0.05437 -0.32583,-0.16832 -0.32583,-0.16832c0,0 -0.24865,0.22632 -0.32313,0.17298c-0.07448,-0.05335 0.05932,-0.36163 0.05932,-0.36163c0,0 -0.29189,-0.16676 -0.26429,-0.25398c0.02772,-0.08735 0.36223,-0.05527 0.36223,-0.05527c0,0 0.0682,-0.32928 0.15996,-0.32986c0.09161,-0.00071 0.1644,0.32748 0.1644,0.32748c0,0 0.33433,-0.03686 0.36322,0.05007c0.02917,0.08703 -0.26036,0.25776 -0.26036,0.25776c0,0 0.13812,0.30643 0.06448,0.36079z" fill="#cfcfcf" stroke="none" stroke-width="2.57572"/><path d="M239.5271,132.11909c-0.07388,0.05437 -0.32583,-0.16832 -0.32583,-0.16832c0,0 -0.24865,0.22632 -0.32314,0.17298c-0.07448,-0.05335 0.05932,-0.36163 0.05932,-0.36163c0,0 -0.29189,-0.16676 -0.26429,-0.25398c0.02772,-0.08735 0.36223,-0.05528 0.36223,-0.05528c0,0 0.0682,-0.32927 0.15995,-0.32986c0.09161,-0.00071 0.1644,0.32748 0.1644,0.32748c0,0 0.33433,-0.03686 0.36323,0.05007c0.02917,0.08702 -0.26036,0.25776 -0.26036,0.25776c0,0 0.13812,0.30643 0.06448,0.36077z" fill="#cfcfcf" stroke="none" stroke-width="2.57572"/><path d="M242.82397,138.69929c-0.07364,-0.05435 0.06448,-0.36079 0.06448,-0.36079c0,0 -0.28954,-0.17073 -0.26037,-0.25776c0.02889,-0.08692 0.36323,-0.05007 0.36323,-0.05007c0,0 0.07279,-0.3282 0.1644,-0.32748c0.09174,0.00059 0.15996,0.32986 0.15996,0.32986c0,0 0.33453,-0.03208 0.36223,0.05527c0.0276,0.08722 -0.26429,0.25398 -0.26429,0.25398c0,0 0.1338,0.30828 0.05932,0.36163c-0.07448,0.05335 -0.32313,-0.17298 -0.32313,-0.17298c0,0 -0.25195,0.22269 -0.32585,0.16832z" data-paper-data="{&quot;index&quot;:null}" fill="#cfcfcf" stroke="none" stroke-width="2.57572"/><path d="M243.91146,137.63078c-0.07364,-0.05436 0.06448,-0.36079 0.06448,-0.36079c0,0 -0.28953,-0.17073 -0.26036,-0.25776c0.02889,-0.08692 0.36323,-0.05007 0.36323,-0.05007c0,0 0.07279,-0.3282 0.1644,-0.32748c0.09174,0.00059 0.15996,0.32986 0.15996,0.32986c0,0 0.33453,-0.03208 0.36223,0.05527c0.0276,0.08722 -0.26429,0.25399 -0.26429,0.25399c0,0 0.1338,0.30828 0.05932,0.36163c-0.07448,0.05335 -0.32314,-0.17298 -0.32314,-0.17298c0,0 -0.25195,0.22269 -0.32583,0.16832z" data-paper-data="{&quot;index&quot;:null}" fill="#cfcfcf" stroke="none" stroke-width="2.57572"/><path d="M244.51908,136.13073c-0.07364,-0.05435 0.06448,-0.36079 0.06448,-0.36079c0,0 -0.28953,-0.17074 -0.26036,-0.25776c0.02889,-0.08692 0.36322,-0.05007 0.36322,-0.05007c0,0 0.07279,-0.32819 0.1644,-0.32748c0.09174,0.00059 0.15996,0.32986 0.15996,0.32986c0,0 0.33453,-0.03208 0.36223,0.05527c0.0276,0.08722 -0.26429,0.25398 -0.26429,0.25398c0,0 0.1338,0.30828 0.05932,0.36163c-0.07448,0.05336 -0.32313,-0.17298 -0.32313,-0.17298c0,0 -0.25195,0.22269 -0.32583,0.16832z" data-paper-data="{&quot;index&quot;:null}" fill="#cfcfcf" stroke="none" stroke-width="2.57572"/><path d="M244.35338,134.54954c-0.07364,-0.05436 0.06448,-0.36079 0.06448,-0.36079c0,0 -0.28953,-0.17074 -0.26036,-0.25776c0.02889,-0.08692 0.36323,-0.05007 0.36323,-0.05007c0,0 0.07279,-0.3282 0.1644,-0.32748c0.09174,0.00059 0.15995,0.32986 0.15995,0.32986c0,0 0.33453,-0.03208 0.36225,0.05528c0.0276,0.08722 -0.2643,0.25398 -0.2643,0.25398c0,0 0.1338,0.30828 0.05932,0.36163c-0.07448,0.05336 -0.32314,-0.17298 -0.32314,-0.17298c0,0 -0.25195,0.22269 -0.32583,0.16832z" data-paper-data="{&quot;index&quot;:null}" fill="#cfcfcf" stroke="none" stroke-width="2.57572"/></g><g stroke-linecap="butt"><path d="M245.70197,186.54052c0,2.80059 -2.27682,5.07092 -5.08542,5.07092c-2.8086,0 -5.08542,-2.27033 -5.08542,-5.07092c0,-2.80059 2.27682,-5.07092 5.08542,-5.07092c2.8086,0 5.08542,2.27033 5.08542,5.07092z" fill="#bababa" stroke="#cfcfcf" stroke-width="0.5"/><path d="M238.65761,190.06991c-0.07388,0.05438 -0.32584,-0.16831 -0.32584,-0.16831c0,0 -0.24864,0.22632 -0.32313,0.17296c-0.07448,-0.05335 0.05932,-0.36163 0.05932,-0.36163c0,0 -0.2919,-0.16678 -0.2643,-0.254c0.0277,-0.08736 0.36225,-0.05528 0.36225,-0.05528c0,0 0.06821,-0.32926 0.15996,-0.32986c0.09161,-0.00072 0.1644,0.32747 0.1644,0.32747c0,0 0.33432,-0.03685 0.36323,0.05007c0.02917,0.08703 -0.26037,0.25776 -0.26037,0.25776c0,0 0.13813,0.30643 0.06448,0.36078z" fill="#cfcfcf" stroke="none" stroke-width="2.57572"/><g stroke="none" stroke-width="0"><path d="M239.76582,186.97787v-1.60997h1.69182v1.60997z" fill="url(#color-25)"/><path d="M240.19333,186.78107l0.43087,-1.83736l0.41505,1.83736z" fill="url(#color-26)"/><path d="M239.2604,189.6347c-0.06997,-0.1835 0.11024,-0.58722 0.11502,-0.97285c0.0048,-0.38765 -0.21719,-1.02882 -0.21719,-1.02882l0.32047,-0.68162l2.27396,0.0091l0.28324,0.64559c0,0 -0.1711,0.64234 -0.15347,1.01059c0.01855,0.38777 0.22126,0.70555 0.10672,1.03617c-0.10092,0.29131 -0.64935,0.29054 -0.8239,0.40541c-0.26856,0.17673 -0.51318,0.36774 -0.51318,0.36774c0,0 -0.23976,-0.20917 -0.57637,-0.35619c-0.28419,-0.12411 -0.71812,-0.1803 -0.81529,-0.43514z" fill="url(#color-27)"/><path d="M239.61514,189.31551l1.0424,-1.83736l1.00415,1.83736z" fill="url(#color-28)"/><path d="M237.50537,184.15827c-0.20001,-0.34732 -0.04913,-0.58893 -0.03725,-0.67213c0.02092,-0.14654 0.30783,0.49882 0.66769,0.55018c0.23024,0.03286 0.79951,0.27713 0.98799,0.4541c0.10611,0.09963 -0.02633,0.29852 -0.02633,0.29852c0,0 -0.52127,-0.05981 -0.87228,-0.15433c-0.17331,-0.04667 -0.56758,-0.21198 -0.71983,-0.47637z" fill="url(#color-29)"/><path d="M237.7613,184.84649c-0.25541,-0.30886 -0.27452,-0.57236 -0.27676,-0.65637c-0.00395,-0.14798 0.58185,0.48289 0.94523,0.47319c0.23248,-0.00621 0.76727,0.09642 0.98274,0.23929c0.12131,0.08043 0.02411,0.2987 0.02411,0.2987c0,0 -0.52392,0.02844 -0.88581,-0.00588c-0.17869,-0.01694 -0.59508,-0.1138 -0.7895,-0.34893z" fill="url(#color-30)"/><path d="M238.88973,185.63308c-0.16129,0.01788 -0.54772,0.00874 -0.7631,-0.16363c-0.28293,-0.22643 -0.26288,-0.47958 -0.28033,-0.55354c-0.03072,-0.13027 0.49517,0.30266 0.81506,0.22722c0.20468,-0.04826 0.72025,-0.01463 0.93729,0.07219c0.12218,0.04888 0.0763,0.25999 0.0763,0.25999c0,0 -0.45855,0.12158 -0.78523,0.15776z" fill="url(#color-31)"/><path d="M239.38862,185.86662c-0.12161,0.0347 -0.51649,0.12085 -0.72625,0.03826c-0.27555,-0.10849 -0.29062,-0.29938 -0.32209,-0.35292c-0.05544,-0.09429 0.48215,0.16429 0.7137,0.02817c0.14814,-0.0871 0.52414,-0.13526 0.71454,-0.11986c0.10719,0.00867 0.18599,0.18457 0.18599,0.18457c0,0 -0.43836,0.18538 -0.5659,0.22177z" fill="url(#color-32)"/><path d="M239.0043,186.20237c-0.26451,-0.06692 -0.30059,-0.2396 -0.33561,-0.28484c-0.06169,-0.07969 0.45073,0.08465 0.6464,-0.06683c0.1252,-0.09691 0.47227,-0.1758 0.64807,-0.184c0.09897,-0.00461 0.19156,0.14692 0.19156,0.14692c0,0 -0.37892,0.22068 -0.49121,0.26884c-0.10708,0.04593 -0.45787,0.17084 -0.65922,0.1199z" fill="url(#color-33)"/><path d="M239.99721,186.26179c-0.10238,0.05563 -0.44013,0.2124 -0.64533,0.18027c-0.26955,-0.04221 -0.33053,-0.21081 -0.36959,-0.25262c-0.06878,-0.07364 0.46652,0.04178 0.64737,-0.12713c0.11571,-0.10806 0.4532,-0.21779 0.62751,-0.24219c0.09812,-0.01374 -0.12313,0.29233 -0.12313,0.29233c0,0 -0.02946,0.09101 -0.13683,0.14934z" fill="url(#color-34)"/><path d="M240.09991,189.21664c-0.22747,0.09352 -0.3947,0.08074 -0.3735,-0.02858c0.0212,-0.10931 0.22277,-0.27373 0.45024,-0.36726c0.22747,-0.09352 0.3947,-0.08074 0.3735,0.02857c-0.0212,0.10931 -0.22277,0.27373 -0.45024,0.36726z" fill="url(#color-35)"/><path d="M240.50394,188.04855c0.02539,-0.24463 0.11589,-0.38583 0.20211,-0.31539c0.08622,0.07045 0.13553,0.32587 0.11014,0.5705c-0.02539,0.24463 -0.11587,0.38584 -0.20211,0.31539c-0.08622,-0.07045 -0.13553,-0.32587 -0.11014,-0.57051z" fill="url(#color-36)"/><path d="M241.33548,188.94892c0.19599,0.14858 0.26979,0.29918 0.16484,0.33637c-0.10495,0.03718 -0.34892,-0.05312 -0.5449,-0.20172c-0.19599,-0.14858 -0.2698,-0.29918 -0.16485,-0.33637c0.10495,-0.03718 0.34892,0.05312 0.54491,0.20172z" fill="url(#color-37)"/><path d="M240.7976,188.75156c0,0.08038 -0.06718,0.14553 -0.15008,0.14553c-0.08289,0 -0.15008,-0.06515 -0.15008,-0.14553c0,-0.08038 0.06719,-0.14553 0.15008,-0.14553c0.08289,0 0.15008,0.06515 0.15008,0.14553z" fill="url(#color-38)"/><path d="M243.07214,184.61975c-0.35101,0.09451 -0.87228,0.15432 -0.87228,0.15432c0,0 -0.13242,-0.19889 -0.02633,-0.29852c0.18846,-0.17696 0.75774,-0.42124 0.98799,-0.4541c0.35986,-0.05137 0.64677,-0.69674 0.66769,-0.55019c0.01188,0.0832 0.16275,0.32481 -0.03726,0.67213c-0.15225,0.26439 -0.5465,0.42971 -0.71982,0.47637z" data-paper-data="{&quot;index&quot;:null}" fill="url(#color-39)"/><path d="M242.74653,185.18053c-0.36188,0.03432 -0.88581,0.00588 -0.88581,0.00588c0,0 -0.09721,-0.21828 0.0241,-0.29871c0.21547,-0.14287 0.75026,-0.24548 0.98274,-0.23928c0.36337,0.0097 0.94918,-0.62116 0.94523,-0.47318c-0.00224,0.08401 -0.02137,0.34749 -0.27677,0.65636c-0.19442,0.23513 -0.61082,0.33199 -0.7895,0.34893z" data-paper-data="{&quot;index&quot;:null}" fill="url(#color-40)"/><path d="M242.4076,185.61819c-0.32667,-0.0362 -0.78522,-0.15776 -0.78522,-0.15776c0,0 -0.04589,-0.21111 0.07629,-0.25999c0.21704,-0.08683 0.73262,-0.12046 0.93729,-0.07219c0.31988,0.07545 0.84578,-0.35748 0.81506,-0.22723c-0.01745,0.07396 0.0026,0.32712 -0.28033,0.55355c-0.21536,0.17237 -0.6018,0.1815 -0.7631,0.16363z" data-paper-data="{&quot;index&quot;:null}" fill="url(#color-41)"/><path d="M241.90871,185.85174c-0.12752,-0.03639 -0.5659,-0.22177 -0.5659,-0.22177c0,0 0.0788,-0.1759 0.18599,-0.18457c0.1904,-0.0154 0.5664,0.03276 0.71454,0.11985c0.23155,0.13612 0.76913,-0.12246 0.7137,-0.02817c-0.03147,0.05354 -0.04653,0.24443 -0.32209,0.35292c-0.20976,0.08258 -0.60464,-0.00357 -0.72625,-0.03827z" data-paper-data="{&quot;index&quot;:null}" fill="url(#color-42)"/><path d="M241.63381,186.06759c-0.11229,-0.04816 -0.49121,-0.26886 -0.49121,-0.26886c0,0 0.09259,-0.15154 0.19156,-0.14692c0.1758,0.0082 0.52287,0.08709 0.64807,0.184c0.19568,0.15148 0.70809,-0.01287 0.64641,0.06682c-0.03502,0.04525 -0.07111,0.21793 -0.33562,0.28485c-0.20135,0.05094 -0.55213,-0.07397 -0.65921,-0.1199z" data-paper-data="{&quot;index&quot;:null}" fill="url(#color-43)"/><path d="M241.30012,186.24691c-0.10736,-0.05833 -0.13683,-0.14934 -0.13683,-0.14934c0,0 -0.22127,-0.30607 -0.12313,-0.29233c0.1743,0.02439 0.51179,0.13414 0.62751,0.2422c0.18086,0.1689 0.71615,0.05347 0.64737,0.12711c-0.03905,0.04182 -0.10003,0.21042 -0.36959,0.25263c-0.2052,0.03213 -0.54293,-0.12466 -0.64532,-0.18027z" data-paper-data="{&quot;index&quot;:null}" fill="url(#color-44)"/><path d="M239.29864,187.25405c0,0 0.08829,-0.20171 0.15967,-0.28684c0.05123,-0.06113 0.20788,-0.05062 0.25109,-0.11544c0.07403,-0.11104 0.05067,-0.10816 0.09596,-0.20834c0.04861,-0.10753 -0.08255,0.0111 -0.02504,-0.15668c0.02443,-0.07125 0.10433,-0.13714 0.16148,-0.22585c0.03672,-0.05701 0.00189,-0.07695 0.02822,-0.14079c0.01769,-0.04289 0.09789,-0.13054 0.11496,-0.16898c0.03829,-0.08628 -0.01147,-0.09531 0.00236,-0.16206c0.02026,-0.09773 0.09359,-0.23594 0.09359,-0.23594l0.34564,0.07277c0,0 -0.04838,0.14557 -0.09364,0.22349c-0.04242,0.07303 -0.08098,0.07557 -0.10646,0.16379c-0.03441,0.1192 0.03419,0.2079 -0.00581,0.29561c-0.05897,0.12933 -0.12271,0.02728 -0.148,0.10003c-0.04181,0.12032 -0.01904,0.2904 -0.01904,0.2904c0,0 -0.12474,-0.03105 -0.18903,0.01757c-0.04191,0.03169 -0.07715,0.1986 -0.15533,0.27501c-0.00611,0.00599 0.10879,0.18667 0.05654,0.24956c-0.03301,0.03974 -0.10403,-0.19957 -0.17135,-0.18451c-0.08029,0.01796 -0.05462,0.29609 -0.07217,0.2965c-0.11332,0.00266 -0.0248,-0.3184 -0.06948,-0.29323c-0.06995,0.03941 -0.15726,0.15702 -0.20137,0.19366c-0.05044,0.04189 -0.05282,0.00028 -0.05282,0.00028z" fill="url(#color-45)"/><path d="M241.88507,187.25709c-0.04412,-0.03664 -0.13142,-0.15426 -0.20137,-0.19367c-0.04468,-0.02516 0.04384,0.2959 -0.06948,0.29324c-0.01755,-0.00042 0.00812,-0.27853 -0.07217,-0.2965c-0.06732,-0.01506 -0.13834,0.22425 -0.17135,0.18451c-0.05224,-0.06289 0.06265,-0.24358 0.05653,-0.24956c-0.07818,-0.07641 -0.11342,-0.24332 -0.15533,-0.275c-0.06431,-0.04862 -0.18904,-0.01759 -0.18904,-0.01759c0,0 0.02277,-0.17006 -0.01904,-0.29038c-0.02528,-0.07276 -0.08902,0.0293 -0.14799,-0.10003c-0.03999,-0.0877 0.02861,-0.17641 -0.0058,-0.29561c-0.02548,-0.08821 -0.06404,-0.09076 -0.10646,-0.16378c-0.04526,-0.07792 -0.09364,-0.22349 -0.09364,-0.22349l0.34564,-0.07277c0,0 0.07333,0.13823 0.09359,0.23595c0.01384,0.06674 -0.03591,0.07577 0.00236,0.16205c0.01705,0.03844 0.09729,0.1261 0.11496,0.16898c0.02633,0.06384 -0.00852,0.08379 0.0282,0.14079c0.05713,0.08869 0.13705,0.15461 0.16148,0.22585c0.05751,0.16778 -0.07364,0.04916 -0.02504,0.15668c0.04529,0.10018 0.02193,0.09729 0.09596,0.20833c0.04321,0.06482 0.19986,0.05432 0.2511,0.11544c0.07137,0.08514 0.15966,0.28684 0.15966,0.28684c0,0 -0.00238,0.04162 -0.05282,-0.00027z" data-paper-data="{&quot;index&quot;:null}" fill="url(#color-46)"/><path d="M239.38049,185.45591c-0.13197,-0.1999 -0.40175,-1.03706 -0.40175,-1.03706c0,0 0.5039,-0.32153 0.80923,0.0408c0.07479,0.08876 0.20267,0.23349 0.29943,0.39873c0.15595,0.26632 0.27734,0.5859 0.31234,0.81029c0.03194,0.20471 -0.37542,0.62415 -0.37542,0.62415c0,0 -0.37655,-0.43205 -0.64383,-0.83691z" fill="url(#color-47)"/><path d="M241.92266,185.46184c-0.26728,0.40485 -0.64382,0.83691 -0.64382,0.83691c0,0 -0.40735,-0.41944 -0.37542,-0.62415c0.02453,-0.1572 0.02596,-0.41907 0.12598,-0.61867c0.04426,-0.08832 0.10127,-0.16922 0.16163,-0.2427c0.11879,-0.14455 0.25062,-0.2604 0.32415,-0.34765c0.30534,-0.36233 0.83178,-0.10843 0.83178,-0.10843c0,0 -0.29233,0.90479 -0.4243,1.10469z" data-paper-data="{&quot;index&quot;:null}" fill="url(#color-48)"/><path d="M241.17981,184.78692c0,0.77234 -0.24981,1.39845 -0.55793,1.39845c-0.30814,0 -0.55793,-0.62611 -0.55793,-1.39845c0,-0.3553 0.09844,-0.4859 0.15563,-0.74967c0.00815,-0.03758 0.03475,-0.23576 -0.03701,-0.25277c-0.09733,-0.02308 -0.3026,0.13506 -0.29921,0.06084c0.00258,-0.05634 0.17357,-0.14499 0.28856,-0.23668c0.06536,-0.05211 0.09788,-0.12973 0.10788,-0.14173c0.07286,-0.08743 0.2559,-0.07844 0.34208,-0.07844c0.26438,0 0.41335,0.49714 0.47092,1.11587c0.00952,0.10241 0.08701,0.1729 0.08701,0.28258z" fill="#cecece"/></g><path d="M237.57012,189.0014c-0.07388,0.05438 -0.32583,-0.16831 -0.32583,-0.16831c0,0 -0.24865,0.22632 -0.32314,0.17297c-0.07448,-0.05335 0.05933,-0.36163 0.05933,-0.36163c0,0 -0.29191,-0.16676 -0.26431,-0.25398c0.02772,-0.08735 0.36225,-0.05528 0.36225,-0.05528c0,0 0.0682,-0.32927 0.15995,-0.32986c0.09161,-0.00072 0.1644,0.32748 0.1644,0.32748c0,0 0.33433,-0.03685 0.36323,0.05007c0.02917,0.08702 -0.26036,0.25776 -0.26036,0.25776c0,0 0.13812,0.30643 0.06447,0.36078z" fill="#cfcfcf" stroke="none" stroke-width="2.57572"/><path d="M236.9625,187.50135c-0.07388,0.05438 -0.32583,-0.16831 -0.32583,-0.16831c0,0 -0.24865,0.22633 -0.32314,0.17298c-0.07448,-0.05335 0.05932,-0.36163 0.05932,-0.36163c0,0 -0.2919,-0.16676 -0.2643,-0.25398c0.02772,-0.08735 0.36225,-0.05528 0.36225,-0.05528c0,0 0.0682,-0.32926 0.15995,-0.32986c0.09161,-0.00072 0.1644,0.32747 0.1644,0.32747c0,0 0.33433,-0.03685 0.36323,0.05007c0.02917,0.08702 -0.26036,0.25776 -0.26036,0.25776c0,0 0.13812,0.30643 0.06448,0.36078z" fill="#cfcfcf" stroke="none" stroke-width="2.57572"/><path d="M237.12822,185.92017c-0.07388,0.05437 -0.32583,-0.16832 -0.32583,-0.16832c0,0 -0.24865,0.22633 -0.32313,0.17298c-0.07448,-0.05335 0.05932,-0.36163 0.05932,-0.36163c0,0 -0.29189,-0.16676 -0.26429,-0.25399c0.02772,-0.08735 0.36223,-0.05527 0.36223,-0.05527c0,0 0.0682,-0.32928 0.15994,-0.32986c0.09161,-0.00072 0.1644,0.32748 0.1644,0.32748c0,0 0.33433,-0.03687 0.36324,0.05007c0.02917,0.08702 -0.26036,0.25776 -0.26036,0.25776c0,0 0.13812,0.30643 0.06447,0.36077z" fill="#cfcfcf" stroke="none" stroke-width="2.57572"/><path d="M242.53979,183.50869c-0.07388,0.05437 -0.32583,-0.16832 -0.32583,-0.16832c0,0 -0.24865,0.22633 -0.32313,0.17298c-0.07448,-0.05335 0.05932,-0.36163 0.05932,-0.36163c0,0 -0.29189,-0.16676 -0.26429,-0.25399c0.02772,-0.08735 0.36223,-0.05527 0.36223,-0.05527c0,0 0.0682,-0.32928 0.15994,-0.32986c0.09161,-0.00072 0.1644,0.32748 0.1644,0.32748c0,0 0.33433,-0.03687 0.36324,0.05007c0.02917,0.08702 -0.26036,0.25776 -0.26036,0.25776c0,0 0.13812,0.30643 0.06447,0.36077z" fill="#cfcfcf" stroke="none" stroke-width="2.57572"/><path d="M240.86885,182.99601c-0.07388,0.05437 -0.32583,-0.16832 -0.32583,-0.16832c0,0 -0.24865,0.22632 -0.32313,0.17297c-0.07448,-0.05335 0.05933,-0.36163 0.05933,-0.36163c0,0 -0.2919,-0.16676 -0.2643,-0.25398c0.02772,-0.08735 0.36223,-0.05527 0.36223,-0.05527c0,0 0.06821,-0.32928 0.15996,-0.32986c0.09161,-0.00072 0.1644,0.32748 0.1644,0.32748c0,0 0.33432,-0.03687 0.36322,0.05007c0.02917,0.08703 -0.26036,0.25776 -0.26036,0.25776c0,0 0.13812,0.30643 0.06448,0.36079z" fill="#cfcfcf" stroke="none" stroke-width="2.57572"/><path d="M239.26868,183.50351c-0.07388,0.05437 -0.32584,-0.16832 -0.32584,-0.16832c0,0 -0.24865,0.22633 -0.32314,0.17298c-0.07448,-0.05335 0.05933,-0.36163 0.05933,-0.36163c0,0 -0.2919,-0.16676 -0.2643,-0.25399c0.02772,-0.08735 0.36223,-0.05528 0.36223,-0.05528c0,0 0.06821,-0.32926 0.15995,-0.32986c0.09161,-0.00072 0.1644,0.32748 0.1644,0.32748c0,0 0.33432,-0.03687 0.36323,0.05007c0.02917,0.08702 -0.26036,0.25776 -0.26036,0.25776c0,0 0.13812,0.30643 0.06447,0.36077z" fill="#cfcfcf" stroke="none" stroke-width="2.57572"/><path d="M242.56554,190.08371c-0.07364,-0.05435 0.06448,-0.36078 0.06448,-0.36078c0,0 -0.28954,-0.17073 -0.26037,-0.25776c0.0289,-0.08692 0.36323,-0.05007 0.36323,-0.05007c0,0 0.07279,-0.3282 0.1644,-0.32748c0.09175,0.0006 0.15996,0.32986 0.15996,0.32986c0,0 0.33453,-0.03207 0.36223,0.05527c0.0276,0.08722 -0.26429,0.25398 -0.26429,0.25398c0,0 0.1338,0.30828 0.05932,0.36163c-0.07448,0.05335 -0.32313,-0.17298 -0.32313,-0.17298c0,0 -0.25195,0.22269 -0.32584,0.16832z" data-paper-data="{&quot;index&quot;:null}" fill="#cfcfcf" stroke="none" stroke-width="2.57572"/><path d="M243.65304,189.0152c-0.07364,-0.05435 0.06448,-0.36078 0.06448,-0.36078c0,0 -0.28953,-0.17073 -0.26036,-0.25776c0.0289,-0.08692 0.36323,-0.05007 0.36323,-0.05007c0,0 0.07279,-0.3282 0.1644,-0.32749c0.09175,0.0006 0.15996,0.32986 0.15996,0.32986c0,0 0.33453,-0.03208 0.36223,0.05527c0.0276,0.08722 -0.26429,0.254 -0.26429,0.254c0,0 0.1338,0.30828 0.05932,0.36163c-0.07448,0.05335 -0.32314,-0.17297 -0.32314,-0.17297c0,0 -0.25196,0.22269 -0.32584,0.16832z" data-paper-data="{&quot;index&quot;:null}" fill="#cfcfcf" stroke="none" stroke-width="2.57572"/><path d="M244.26066,187.51515c-0.07364,-0.05435 0.06448,-0.36078 0.06448,-0.36078c0,0 -0.28953,-0.17074 -0.26036,-0.25776c0.0289,-0.08692 0.36321,-0.05007 0.36321,-0.05007c0,0 0.07279,-0.32818 0.1644,-0.32748c0.09175,0.0006 0.15996,0.32986 0.15996,0.32986c0,0 0.33453,-0.03208 0.36223,0.05527c0.0276,0.08722 -0.2643,0.25399 -0.2643,0.25399c0,0 0.13379,0.30828 0.05932,0.36163c-0.07448,0.05336 -0.32313,-0.17298 -0.32313,-0.17298c0,0 -0.25195,0.22269 -0.32583,0.16832z" data-paper-data="{&quot;index&quot;:null}" fill="#cfcfcf" stroke="none" stroke-width="2.57572"/><path d="M244.09495,185.93396c-0.07364,-0.05435 0.06447,-0.36078 0.06447,-0.36078c0,0 -0.28953,-0.17074 -0.26036,-0.25776c0.0289,-0.08692 0.36323,-0.05007 0.36323,-0.05007c0,0 0.07279,-0.3282 0.1644,-0.32748c0.09175,0.0006 0.15994,0.32986 0.15994,0.32986c0,0 0.33453,-0.03207 0.36225,0.05528c0.0276,0.08722 -0.2643,0.25398 -0.2643,0.25398c0,0 0.13379,0.30828 0.05932,0.36163c-0.07448,0.05336 -0.32314,-0.17298 -0.32314,-0.17298c0,0 -0.25195,0.22269 -0.32583,0.16832z" data-paper-data="{&quot;index&quot;:null}" fill="#cfcfcf" stroke="none" stroke-width="2.57572"/></g><g stroke-linecap="butt"><path d="M245.75815,237.94669c0,2.80059 -2.27682,5.07092 -5.08542,5.07092c-2.8086,0 -5.08542,-2.27033 -5.08542,-5.07092c0,-2.80059 2.27682,-5.07092 5.08542,-5.07092c2.8086,0 5.08542,2.27033 5.08542,5.07092z" fill="#bababa" stroke="#cfcfcf" stroke-width="0.5"/><path d="M238.71379,241.47607c-0.07388,0.05438 -0.32583,-0.1683 -0.32583,-0.1683c0,0 -0.24864,0.22632 -0.32313,0.17296c-0.07448,-0.05335 0.05932,-0.36163 0.05932,-0.36163c0,0 -0.2919,-0.16678 -0.2643,-0.254c0.0277,-0.08736 0.36225,-0.05528 0.36225,-0.05528c0,0 0.06821,-0.32926 0.15996,-0.32986c0.09161,-0.00072 0.1644,0.32747 0.1644,0.32747c0,0 0.33432,-0.03685 0.36323,0.05007c0.02917,0.08703 -0.26037,0.25776 -0.26037,0.25776c0,0 0.13813,0.30643 0.06447,0.36079z" fill="#cfcfcf" stroke="none" stroke-width="2.57572"/><g stroke="none" stroke-width="0"><path d="M239.822,238.38404v-1.60996h1.69182v1.60996z" fill="url(#color-49)"/><path d="M240.24951,238.18724l0.43086,-1.83736l0.41505,1.83736z" fill="url(#color-50)"/><path d="M239.31658,241.04086c-0.06997,-0.1835 0.11023,-0.58722 0.11502,-0.97285c0.0048,-0.38765 -0.21719,-1.02882 -0.21719,-1.02882l0.32046,-0.68162l2.27396,0.0091l0.28324,0.64559c0,0 -0.1711,0.64234 -0.15347,1.01059c0.01855,0.38777 0.22126,0.70555 0.10672,1.03617c-0.10092,0.29131 -0.64935,0.29054 -0.8239,0.40541c-0.26856,0.17673 -0.51318,0.36774 -0.51318,0.36774c0,0 -0.23976,-0.20917 -0.57638,-0.35619c-0.28419,-0.12411 -0.71811,-0.1803 -0.81528,-0.43514z" fill="url(#color-51)"/><path d="M239.67132,240.72168l1.04241,-1.83736l1.00415,1.83736z" fill="url(#color-52)"/><path d="M237.56155,235.56443c-0.20001,-0.34732 -0.04913,-0.58893 -0.03725,-0.67213c0.02092,-0.14654 0.30782,0.49882 0.66768,0.55018c0.23024,0.03286 0.79952,0.27713 0.98799,0.4541c0.10611,0.09963 -0.02633,0.29852 -0.02633,0.29852c0,0 -0.52127,-0.05981 -0.87228,-0.15433c-0.17331,-0.04667 -0.56757,-0.21198 -0.71982,-0.47637z" fill="url(#color-53)"/><path d="M237.81748,236.25265c-0.25541,-0.30886 -0.27452,-0.57236 -0.27676,-0.65637c-0.00395,-0.14798 0.58184,0.4829 0.94523,0.47319c0.23248,-0.00621 0.76727,0.09642 0.98274,0.23928c0.12131,0.08043 0.02411,0.2987 0.02411,0.2987c0,0 -0.52392,0.02844 -0.88581,-0.00588c-0.17869,-0.01694 -0.59508,-0.1138 -0.7895,-0.34893z" fill="url(#color-54)"/><path d="M238.94591,237.03924c-0.16129,0.01788 -0.54773,0.00874 -0.7631,-0.16363c-0.28293,-0.22643 -0.26288,-0.47958 -0.28033,-0.55355c-0.03072,-0.13027 0.49518,0.30266 0.81506,0.22722c0.20468,-0.04826 0.72025,-0.01463 0.93729,0.07219c0.12218,0.04888 0.07629,0.25999 0.07629,0.25999c0,0 -0.45855,0.12158 -0.78522,0.15776z" fill="url(#color-55)"/><path d="M239.4448,237.27279c-0.12161,0.0347 -0.51649,0.12085 -0.72624,0.03827c-0.27555,-0.10849 -0.29063,-0.29938 -0.3221,-0.35292c-0.05544,-0.09429 0.48215,0.16429 0.7137,0.02817c0.14814,-0.0871 0.52414,-0.13526 0.71454,-0.11986c0.10719,0.00867 0.18599,0.18457 0.18599,0.18457c0,0 -0.43836,0.18538 -0.5659,0.22177z" fill="url(#color-56)"/><path d="M239.06048,237.60854c-0.26451,-0.06692 -0.30058,-0.2396 -0.33561,-0.28484c-0.06169,-0.07969 0.45073,0.08465 0.6464,-0.06683c0.1252,-0.09691 0.47227,-0.1758 0.64807,-0.184c0.09897,-0.00461 0.19156,0.14692 0.19156,0.14692c0,0 -0.37892,0.22068 -0.49121,0.26884c-0.10708,0.04593 -0.45787,0.17084 -0.65922,0.1199z" fill="url(#color-57)"/><path d="M240.05339,237.66796c-0.10238,0.05563 -0.44013,0.2124 -0.64532,0.18027c-0.26955,-0.04221 -0.33053,-0.21081 -0.36959,-0.25262c-0.06878,-0.07364 0.46652,0.04178 0.64737,-0.12713c0.11571,-0.10806 0.4532,-0.21779 0.62751,-0.24219c0.09812,-0.01374 -0.12313,0.29233 -0.12313,0.29233c0,0 -0.02946,0.09101 -0.13683,0.14934z" fill="url(#color-58)"/><path d="M240.15609,240.62281c-0.22747,0.09352 -0.39471,0.08074 -0.37351,-0.02858c0.0212,-0.10931 0.22277,-0.27373 0.45025,-0.36726c0.22747,-0.09352 0.3947,-0.08074 0.3735,0.02857c-0.0212,0.10931 -0.22277,0.27373 -0.45024,0.36726z" fill="url(#color-59)"/><path d="M240.56012,239.45472c0.02539,-0.24463 0.11588,-0.38583 0.2021,-0.31539c0.08622,0.07045 0.13553,0.32587 0.11014,0.5705c-0.02539,0.24463 -0.11587,0.38584 -0.2021,0.31539c-0.08622,-0.07045 -0.13553,-0.32587 -0.11014,-0.57051z" fill="url(#color-60)"/><path d="M241.39166,240.35509c0.19599,0.14858 0.2698,0.29918 0.16485,0.33637c-0.10495,0.03718 -0.34892,-0.05312 -0.5449,-0.20172c-0.19599,-0.14858 -0.2698,-0.29918 -0.16485,-0.33637c0.10495,-0.03718 0.34892,0.05312 0.54491,0.20172z" fill="url(#color-61)"/><path d="M240.85378,240.15773c0,0.08038 -0.06718,0.14553 -0.15008,0.14553c-0.08289,0 -0.15007,-0.06515 -0.15007,-0.14553c0,-0.08038 0.06719,-0.14553 0.15007,-0.14553c0.08289,0 0.15008,0.06515 0.15008,0.14553z" fill="url(#color-62)"/><path d="M243.12832,236.02591c-0.35101,0.09451 -0.87228,0.15432 -0.87228,0.15432c0,0 -0.13242,-0.19889 -0.02633,-0.29852c0.18846,-0.17696 0.75774,-0.42124 0.98799,-0.4541c0.35986,-0.05137 0.64677,-0.69674 0.66769,-0.55019c0.01188,0.0832 0.16275,0.32481 -0.03725,0.67213c-0.15225,0.26439 -0.54651,0.4297 -0.71983,0.47636z" data-paper-data="{&quot;index&quot;:null}" fill="url(#color-63)"/><path d="M242.80271,236.58669c-0.36188,0.03432 -0.88581,0.00588 -0.88581,0.00588c0,0 -0.09721,-0.21828 0.02411,-0.29871c0.21547,-0.14287 0.75025,-0.24548 0.98274,-0.23928c0.36337,0.0097 0.94918,-0.62116 0.94524,-0.47318c-0.00224,0.08401 -0.02137,0.34749 -0.27677,0.65636c-0.19442,0.23513 -0.61083,0.33199 -0.7895,0.34893z" data-paper-data="{&quot;index&quot;:null}" fill="url(#color-64)"/><path d="M242.46378,237.02435c-0.32667,-0.0362 -0.78522,-0.15776 -0.78522,-0.15776c0,0 -0.04589,-0.21111 0.07629,-0.25999c0.21704,-0.08683 0.73261,-0.12046 0.93729,-0.07219c0.31988,0.07545 0.84579,-0.35748 0.81506,-0.22723c-0.01745,0.07396 0.0026,0.32712 -0.28033,0.55355c-0.21536,0.17237 -0.6018,0.1815 -0.7631,0.16363z" data-paper-data="{&quot;index&quot;:null}" fill="url(#color-65)"/><path d="M241.96489,237.25791c-0.12752,-0.03639 -0.5659,-0.22178 -0.5659,-0.22178c0,0 0.0788,-0.17589 0.18599,-0.18456c0.1904,-0.0154 0.5664,0.03276 0.71454,0.11985c0.23155,0.13612 0.76913,-0.12246 0.7137,-0.02817c-0.03147,0.05354 -0.04654,0.24443 -0.3221,0.35292c-0.20976,0.08258 -0.60464,-0.00357 -0.72625,-0.03826z" data-paper-data="{&quot;index&quot;:null}" fill="url(#color-66)"/><path d="M241.68999,237.47376c-0.11229,-0.04816 -0.49121,-0.26886 -0.49121,-0.26886c0,0 0.09259,-0.15154 0.19157,-0.14692c0.1758,0.0082 0.52287,0.08709 0.64807,0.184c0.19568,0.15148 0.70809,-0.01287 0.6464,0.06682c-0.03502,0.04525 -0.07111,0.21793 -0.33562,0.28485c-0.20135,0.05094 -0.55213,-0.07397 -0.65921,-0.1199z" data-paper-data="{&quot;index&quot;:null}" fill="url(#color-67)"/><path d="M241.3563,237.65307c-0.10736,-0.05833 -0.13684,-0.14934 -0.13684,-0.14934c0,0 -0.22127,-0.30607 -0.12313,-0.29233c0.1743,0.02439 0.51179,0.13414 0.62751,0.2422c0.18086,0.1689 0.71616,0.05346 0.64737,0.12711c-0.03905,0.04182 -0.10003,0.21042 -0.36959,0.25263c-0.2052,0.03213 -0.54293,-0.12466 -0.64532,-0.18027z" data-paper-data="{&quot;index&quot;:null}" fill="url(#color-68)"/><path d="M239.35482,238.66022c0,0 0.08829,-0.20171 0.15966,-0.28684c0.05123,-0.06113 0.20788,-0.05063 0.25109,-0.11545c0.07403,-0.11104 0.05068,-0.10816 0.09596,-0.20833c0.04861,-0.10753 -0.08255,0.01109 -0.02504,-0.15668c0.02443,-0.07125 0.10433,-0.13714 0.16148,-0.22585c0.03672,-0.05701 0.00189,-0.07695 0.02822,-0.14079c0.01769,-0.04289 0.09789,-0.13054 0.11496,-0.16898c0.03829,-0.08628 -0.01147,-0.0953 0.00236,-0.16206c0.02026,-0.09773 0.0936,-0.23595 0.0936,-0.23595l0.34564,0.07277c0,0 -0.04838,0.14557 -0.09364,0.22349c-0.04242,0.07303 -0.08098,0.07557 -0.10646,0.16379c-0.03441,0.1192 0.0342,0.2079 -0.0058,0.29561c-0.05897,0.12933 -0.12271,0.02728 -0.148,0.10003c-0.04181,0.12032 -0.01904,0.2904 -0.01904,0.2904c0,0 -0.12474,-0.03105 -0.18903,0.01757c-0.04191,0.03169 -0.07715,0.1986 -0.15533,0.27501c-0.00611,0.00599 0.10879,0.18667 0.05654,0.24956c-0.03301,0.03974 -0.10403,-0.19957 -0.17135,-0.18451c-0.08029,0.01796 -0.05462,0.29608 -0.07218,0.2965c-0.11332,0.00266 -0.02479,-0.3184 -0.06947,-0.29323c-0.06995,0.03941 -0.15726,0.15702 -0.20137,0.19366c-0.05044,0.04189 -0.05281,0.00028 -0.05281,0.00028z" fill="url(#color-69)"/><path d="M241.94125,238.66326c-0.04412,-0.03664 -0.13143,-0.15426 -0.20138,-0.19367c-0.04468,-0.02516 0.04385,0.2959 -0.06947,0.29324c-0.01755,-0.00042 0.00812,-0.27853 -0.07217,-0.2965c-0.06732,-0.01506 -0.13835,0.22425 -0.17135,0.18451c-0.05224,-0.06289 0.06265,-0.24358 0.05653,-0.24956c-0.07818,-0.07641 -0.11342,-0.24332 -0.15533,-0.275c-0.06431,-0.04862 -0.18903,-0.01759 -0.18903,-0.01759c0,0 0.02277,-0.17006 -0.01904,-0.29038c-0.02528,-0.07276 -0.08902,0.0293 -0.14799,-0.10003c-0.03999,-0.0877 0.02861,-0.17641 -0.00581,-0.29561c-0.02548,-0.08821 -0.06404,-0.09076 -0.10646,-0.16378c-0.04526,-0.07792 -0.09365,-0.22349 -0.09365,-0.22349l0.34565,-0.07277c0,0 0.07333,0.13823 0.09359,0.23595c0.01384,0.06674 -0.03591,0.07577 0.00236,0.16205c0.01705,0.03844 0.09729,0.1261 0.11496,0.16898c0.02633,0.06384 -0.00851,0.08379 0.02821,0.14079c0.05713,0.08869 0.13705,0.15461 0.16148,0.22585c0.05751,0.16778 -0.07364,0.04916 -0.02504,0.15668c0.04529,0.10018 0.02194,0.09729 0.09596,0.20833c0.04321,0.06482 0.19985,0.05432 0.2511,0.11544c0.07137,0.08514 0.15966,0.28684 0.15966,0.28684c0,0 -0.00237,0.04162 -0.05281,-0.00027z" data-paper-data="{&quot;index&quot;:null}" fill="url(#color-70)"/><path d="M239.43667,236.86208c-0.13197,-0.1999 -0.40175,-1.03706 -0.40175,-1.03706c0,0 0.50389,-0.32153 0.80923,0.0408c0.07479,0.08876 0.20267,0.23349 0.29943,0.39873c0.15595,0.26632 0.27735,0.5859 0.31235,0.81029c0.03194,0.20471 -0.37542,0.62415 -0.37542,0.62415c0,0 -0.37655,-0.43206 -0.64383,-0.83691z" fill="url(#color-71)"/><path d="M241.97884,236.868c-0.26728,0.40485 -0.64383,0.83691 -0.64383,0.83691c0,0 -0.40735,-0.41944 -0.37542,-0.62415c0.02453,-0.1572 0.02597,-0.41907 0.12599,-0.61867c0.04426,-0.08832 0.10127,-0.16922 0.16163,-0.2427c0.11879,-0.14455 0.25062,-0.2604 0.32414,-0.34765c0.30534,-0.36233 0.83178,-0.10843 0.83178,-0.10843c0,0 -0.29233,0.9048 -0.4243,1.1047z" data-paper-data="{&quot;index&quot;:null}" fill="url(#color-72)"/><path d="M241.23599,236.19308c0,0.77234 -0.24981,1.39845 -0.55793,1.39845c-0.30814,0 -0.55793,-0.62611 -0.55793,-1.39845c0,-0.3553 0.09844,-0.4859 0.15562,-0.74967c0.00815,-0.03758 0.03475,-0.23576 -0.037,-0.25277c-0.09733,-0.02308 -0.3026,0.13506 -0.29921,0.06084c0.00258,-0.05634 0.17357,-0.14499 0.28856,-0.23668c0.06536,-0.05211 0.09788,-0.12973 0.10788,-0.14173c0.07286,-0.08743 0.25591,-0.07844 0.34208,-0.07844c0.26438,0 0.41335,0.49714 0.47091,1.11587c0.00952,0.10241 0.08702,0.1729 0.08702,0.28258z" fill="#cecece"/></g><path d="M237.6263,240.40757c-0.07388,0.05438 -0.32584,-0.16831 -0.32584,-0.16831c0,0 -0.24865,0.22633 -0.32314,0.17298c-0.07448,-0.05335 0.05933,-0.36163 0.05933,-0.36163c0,0 -0.29191,-0.16676 -0.26431,-0.25398c0.02772,-0.08735 0.36225,-0.05528 0.36225,-0.05528c0,0 0.06821,-0.32927 0.15995,-0.32986c0.09161,-0.00072 0.1644,0.32748 0.1644,0.32748c0,0 0.33432,-0.03685 0.36323,0.05007c0.02917,0.08702 -0.26036,0.25776 -0.26036,0.25776c0,0 0.13812,0.30643 0.06448,0.36078z" fill="#cfcfcf" stroke="none" stroke-width="2.57572"/><path d="M237.01868,238.90751c-0.07388,0.05438 -0.32584,-0.16831 -0.32584,-0.16831c0,0 -0.24865,0.22633 -0.32314,0.17298c-0.07448,-0.05335 0.05932,-0.36163 0.05932,-0.36163c0,0 -0.29191,-0.16676 -0.26431,-0.25398c0.02772,-0.08735 0.36225,-0.05528 0.36225,-0.05528c0,0 0.06821,-0.32926 0.15995,-0.32986c0.09161,-0.00072 0.1644,0.32747 0.1644,0.32747c0,0 0.33432,-0.03685 0.36323,0.05007c0.02917,0.08702 -0.26036,0.25776 -0.26036,0.25776c0,0 0.13812,0.30643 0.06447,0.36078z" fill="#cfcfcf" stroke="none" stroke-width="2.57572"/><path d="M237.1844,237.32634c-0.07388,0.05437 -0.32584,-0.16832 -0.32584,-0.16832c0,0 -0.24865,0.22633 -0.32312,0.17298c-0.07448,-0.05335 0.05932,-0.36163 0.05932,-0.36163c0,0 -0.29189,-0.16676 -0.26429,-0.25399c0.02772,-0.08735 0.36223,-0.05527 0.36223,-0.05527c0,0 0.0682,-0.32928 0.15994,-0.32986c0.09161,-0.00072 0.1644,0.32748 0.1644,0.32748c0,0 0.33433,-0.03687 0.36324,0.05007c0.02917,0.08702 -0.26036,0.25776 -0.26036,0.25776c0,0 0.13812,0.30643 0.06447,0.36077z" fill="#cfcfcf" stroke="none" stroke-width="2.57572"/><path d="M242.59597,234.91485c-0.07388,0.05437 -0.32584,-0.16832 -0.32584,-0.16832c0,0 -0.24865,0.22633 -0.32312,0.17298c-0.07448,-0.05335 0.05932,-0.36163 0.05932,-0.36163c0,0 -0.29189,-0.16676 -0.26429,-0.25399c0.02772,-0.08735 0.36223,-0.05527 0.36223,-0.05527c0,0 0.0682,-0.32928 0.15994,-0.32986c0.09161,-0.00072 0.1644,0.32748 0.1644,0.32748c0,0 0.33433,-0.03687 0.36324,0.05007c0.02917,0.08702 -0.26036,0.25776 -0.26036,0.25776c0,0 0.13812,0.30643 0.06447,0.36077z" fill="#cfcfcf" stroke="none" stroke-width="2.57572"/><path d="M240.92503,234.40217c-0.07388,0.05437 -0.32583,-0.16832 -0.32583,-0.16832c0,0 -0.24865,0.22632 -0.32313,0.17297c-0.07448,-0.05335 0.05933,-0.36163 0.05933,-0.36163c0,0 -0.2919,-0.16676 -0.2643,-0.25398c0.02772,-0.08735 0.36223,-0.05528 0.36223,-0.05528c0,0 0.0682,-0.32928 0.15996,-0.32986c0.09161,-0.00072 0.1644,0.32748 0.1644,0.32748c0,0 0.33433,-0.03687 0.36322,0.05007c0.02917,0.08703 -0.26036,0.25776 -0.26036,0.25776c0,0 0.13812,0.30643 0.06447,0.36078z" fill="#cfcfcf" stroke="none" stroke-width="2.57572"/><path d="M239.32486,234.90967c-0.07388,0.05437 -0.32583,-0.16832 -0.32583,-0.16832c0,0 -0.24865,0.22633 -0.32314,0.17298c-0.07448,-0.05335 0.05933,-0.36163 0.05933,-0.36163c0,0 -0.2919,-0.16676 -0.2643,-0.25399c0.02772,-0.08735 0.36223,-0.05528 0.36223,-0.05528c0,0 0.0682,-0.32926 0.15995,-0.32986c0.09161,-0.00072 0.1644,0.32748 0.1644,0.32748c0,0 0.33433,-0.03687 0.36323,0.05007c0.02917,0.08702 -0.26036,0.25776 -0.26036,0.25776c0,0 0.13812,0.30643 0.06447,0.36077z" fill="#cfcfcf" stroke="none" stroke-width="2.57572"/><path d="M242.62172,241.48987c-0.07364,-0.05435 0.06447,-0.36079 0.06447,-0.36079c0,0 -0.28954,-0.17073 -0.26037,-0.25776c0.0289,-0.08692 0.36323,-0.05007 0.36323,-0.05007c0,0 0.07279,-0.3282 0.1644,-0.32748c0.09175,0.0006 0.15996,0.32986 0.15996,0.32986c0,0 0.33453,-0.03207 0.36223,0.05527c0.0276,0.08722 -0.26429,0.25398 -0.26429,0.25398c0,0 0.13379,0.30828 0.05932,0.36163c-0.07448,0.05335 -0.32312,-0.17298 -0.32312,-0.17298c0,0 -0.25195,0.22269 -0.32585,0.16832z" data-paper-data="{&quot;index&quot;:null}" fill="#cfcfcf" stroke="none" stroke-width="2.57572"/><path d="M243.70922,240.42137c-0.07364,-0.05435 0.06447,-0.36078 0.06447,-0.36078c0,0 -0.28953,-0.17073 -0.26036,-0.25776c0.0289,-0.08692 0.36323,-0.05007 0.36323,-0.05007c0,0 0.07279,-0.3282 0.1644,-0.32749c0.09175,0.0006 0.15996,0.32986 0.15996,0.32986c0,0 0.33453,-0.03208 0.36223,0.05527c0.0276,0.08722 -0.26429,0.254 -0.26429,0.254c0,0 0.13379,0.30828 0.05932,0.36163c-0.07448,0.05335 -0.32314,-0.17298 -0.32314,-0.17298c0,0 -0.25195,0.22269 -0.32583,0.16832z" data-paper-data="{&quot;index&quot;:null}" fill="#cfcfcf" stroke="none" stroke-width="2.57572"/><path d="M244.31684,238.92131c-0.07364,-0.05435 0.06447,-0.36078 0.06447,-0.36078c0,0 -0.28953,-0.17074 -0.26036,-0.25776c0.0289,-0.08692 0.36321,-0.05007 0.36321,-0.05007c0,0 0.07279,-0.32818 0.16441,-0.32748c0.09175,0.0006 0.15996,0.32986 0.15996,0.32986c0,0 0.33453,-0.03208 0.36223,0.05527c0.0276,0.08722 -0.2643,0.25399 -0.2643,0.25399c0,0 0.1338,0.30828 0.05932,0.36163c-0.07448,0.05336 -0.32313,-0.17298 -0.32313,-0.17298c0,0 -0.25195,0.22269 -0.32583,0.16832z" data-paper-data="{&quot;index&quot;:null}" fill="#cfcfcf" stroke="none" stroke-width="2.57572"/><path d="M244.15113,237.34013c-0.07364,-0.05435 0.06447,-0.36078 0.06447,-0.36078c0,0 -0.28953,-0.17074 -0.26036,-0.25776c0.0289,-0.08692 0.36323,-0.05007 0.36323,-0.05007c0,0 0.07279,-0.3282 0.16441,-0.32748c0.09175,0.0006 0.15994,0.32986 0.15994,0.32986c0,0 0.33453,-0.03207 0.36225,0.05528c0.0276,0.08722 -0.2643,0.25398 -0.2643,0.25398c0,0 0.1338,0.30828 0.05932,0.36163c-0.07448,0.05336 -0.32314,-0.17298 -0.32314,-0.17298c0,0 -0.25195,0.22269 -0.32583,0.16832z" data-paper-data="{&quot;index&quot;:null}" fill="#cfcfcf" stroke="none" stroke-width="2.57572"/></g></g></g></svg>