<svg version="1.1" xmlns="http://www.w3.org/2000/svg" xmlns:xlink="http://www.w3.org/1999/xlink" width="92.2226" height="117.5691" viewBox="0,0,92.2226,117.5691"><g transform="translate(-193.7971,-121.60108)"><g data-paper-data="{&quot;isPaintingLayer&quot;:true}" fill-rule="nonzero" stroke-linejoin="miter" stroke-miterlimit="10" stroke-dasharray="" stroke-dashoffset="0" style="mix-blend-mode: normal"><path d="M211.61059,237.99214l2.63871,-34.3904l-0.56231,-0.13596c0,0 -0.09413,-4.93877 0.03973,-6.7429c0.03202,-0.43151 0.52178,-0.11332 0.52178,-0.11332c0,0 -0.76148,-7.72729 -1.35461,-11.70184c-0.65494,-4.38872 -2.40801,-13.51134 -2.40801,-13.51134c0,0 0.93346,9.99373 0.32393,10.04362c-1.25142,0.10242 -16.86411,-0.1099 -16.86411,-0.1099c0,0 0.37217,-6.60641 0.57586,-8.02556c0.09357,-0.65196 0.59958,-0.16406 0.59958,-0.16406c0,0 1.35385,-14.68014 2.5534,-21.00989c1.04824,-5.53136 3.84051,-15.37108 3.84051,-15.37108l23.47039,-9.86161l3.7689,-4.69334c0,0 3.25341,9.54269 5.03748,13.80987c1.28182,3.0659 4.66747,9.40266 4.66747,9.40266c0,0 4.46223,-7.01739 6.67327,-11.11348c1.84702,-3.42173 5.6984,-11.8059 5.6984,-11.8059l4.44202,5.18249l23.08243,9.13594c0,0 3.74502,13.31899 4.70744,18.61727c1.16847,6.43265 1.59824,17.86296 1.59824,17.86296c0,0 0.51989,-0.39746 0.55523,0.03678c0.10648,1.30826 0.364,8.08231 0.364,8.08231c0,0 -15.23265,0.49621 -16.51201,0.40529c-0.58258,-0.0414 0.1989,-10.25627 0.1989,-10.25627c0,0 -2.76204,12.40713 -3.49998,24.84984c-0.03527,0.5947 0.53562,-0.2363 0.51371,0.3547c-0.07756,2.09227 0.08288,4.60396 0.02933,6.9924c-0.00669,0.29829 -0.53814,-0.22666 -0.54466,0.07451c-0.10116,4.66961 0.43561,9.81894 0.80802,14.68519c0.8125,10.61716 1.97028,19.81186 1.97028,19.81186c0,0 -17.72432,0.45544 -26.85699,0.41918c-8.37386,-0.03324 -30.07632,-0.76 -30.07632,-0.76z" data-paper-data="{&quot;index&quot;:null}" fill="#091647" stroke="#000000" stroke-width="0" stroke-linecap="butt"/><path d="M237.46276,147.29483c-0.01196,2.10622 0.81288,42.07161 0.9998,52.48537c0.01506,0.8388 0.18164,38.58192 0.18765,39.00203" data-paper-data="{&quot;index&quot;:null}" fill="none" stroke="#061031" stroke-width="0.5" stroke-linecap="round"/><path d="M213.64412,179.93172v-22.2348h16.95152v22.24304z" data-paper-data="{&quot;index&quot;:null}" fill="none" stroke="#061031" stroke-width="0.5" stroke-linecap="butt"/><path d="M213.72151,164.81696l16.80875,0.07315" data-paper-data="{&quot;index&quot;:null}" fill="none" stroke="#061031" stroke-width="0.5" stroke-linecap="round"/><path d="M213.13569,218.75403c0,0 0.18585,-4.36369 0.58745,-8.68687c0.21498,-2.31424 0.31611,-4.61688 0.37124,-6.23231c0.01225,-0.35909 -0.592,0.00634 -0.58549,-0.28854c0.0626,-2.83431 0.18416,-7.02708 0.18416,-7.02708h18.34946v22.24304z" data-paper-data="{&quot;index&quot;:null}" fill="none" stroke="#061031" stroke-width="0.5" stroke-linecap="butt"/><path d="M231.96802,203.71241c0,0 -15.20816,-0.05808 -17.78368,-0.06792" data-paper-data="{&quot;index&quot;:null}" fill="none" stroke="#061031" stroke-width="0.5" stroke-linecap="round"/><path d="M243.39977,238.92018l-32.00668,-0.67907l1.9493,-19.33797" data-paper-data="{&quot;index&quot;:null}" fill="none" stroke="#061031" stroke-width="0.5" stroke-linecap="round"/><path d="M237.58088,147.57458c-0.00225,0.39545 4.76308,0.04293 4.76308,0.04293c0,0 0.73941,43.78954 0.89124,52.24809c0.01506,0.83881 0.18163,38.53401 0.18764,38.95413" data-paper-data="{&quot;index&quot;:null}" fill="none" stroke="#061031" stroke-width="0.5" stroke-linecap="round"/><path d="M210.34333,173.4884l0.51962,0.02611l0.13523,8.11145l-16.93941,-0.32215l0.38417,-8.25788l0.63243,0.00463c0,0 0.96674,-14.91301 2.65776,-22.22543c2.74068,-11.85138 3.81016,-14.02457 3.81411,-14.0089c0.6028,2.39399 4.44639,11.52682 6.32972,20.32053c0.75158,3.50929 1.89153,9.597 3.01993,16.26977c1.35331,8.00273 2.69003,16.84697 3.32029,23.09414" data-paper-data="{&quot;index&quot;:null}" fill="none" stroke="#061031" stroke-width="0.5" stroke-linecap="round"/><path d="M201.68618,136.70117l22.56388,-9.05355" data-paper-data="{&quot;index&quot;:null}" fill="#c9cce9" stroke="#061031" stroke-width="0.5" stroke-linecap="round"/><path d="M250.71781,122.17192c0,0 -4.2193,9.41874 -6.54468,13.81095c-2.05303,3.87779 -6.54393,10.83749 -6.54393,10.83749c0,0 -0.19602,0.29959 -0.08454,0.24285c0.59633,-0.30348 3.13727,-1.824 4.82283,-2.59117c2.19509,-0.99908 7.45252,-2.47828 7.45252,-2.47828l0.94397,-19.75209c0,0 4.14097,4.83277 5.98734,7.66221c1.87478,2.87296 5.35483,9.50613 5.35483,9.50613l-12.02684,-0.6149" data-paper-data="{&quot;index&quot;:null}" fill="none" stroke="#061031" stroke-width="0.5" stroke-linecap="round"/><path d="M229.33223,138.77672l-11.93486,0.63329c0,0 3.48007,-6.63317 5.35484,-9.50613c1.84637,-2.82944 5.92818,-7.54393 5.92818,-7.54393l0.84675,19.67291c0,0 -0.09751,1.37619 3.57858,2.8985c2.19842,0.91039 4.19613,1.18341 4.98633,0.9817c0.29599,-0.07555 0.32197,-0.39315 0.32197,-0.39315c0,0 -3.41493,-6.51083 -5.1052,-10.48089c-1.4269,-3.35145 -4.58945,-12.62613 -4.58945,-12.62613" data-paper-data="{&quot;index&quot;:null}" fill="none" stroke="#061031" stroke-width="0.5" stroke-linecap="round"/><path d="M194.75438,173.04069l15.8515,0.43711" data-paper-data="{&quot;index&quot;:null}" fill="none" stroke="#061031" stroke-width="0.5" stroke-linecap="round"/><path d="M249.19513,180.18996v-22.24304h16.95152v22.2348z" data-paper-data="{&quot;index&quot;:null}" fill="none" stroke="#061031" stroke-width="0.5" stroke-linecap="butt"/><path d="M266.06926,165.06696l-16.80875,0.07315" data-paper-data="{&quot;index&quot;:null}" fill="none" stroke="#061031" stroke-width="0.5" stroke-linecap="round"/><path d="M247.74826,219.01227v-22.24304h18.34946c0,0 0.12156,4.19277 0.18416,7.02708c0.00651,0.29488 -0.59774,-0.07055 -0.58549,0.28854c0.05513,1.61543 0.15626,3.91807 0.37124,6.23231c0.4016,4.32318 0.58745,8.68687 0.58745,8.68687z" data-paper-data="{&quot;index&quot;:null}" fill="none" stroke="#061031" stroke-width="0.5" stroke-linecap="butt"/><path d="M265.60643,203.89449c-2.57552,0.00984 -17.78368,0.06792 -17.78368,0.06792" data-paper-data="{&quot;index&quot;:null}" fill="none" stroke="#061031" stroke-width="0.5" stroke-linecap="round"/><path d="M266.44838,219.06223l1.9493,19.33797c0,0 -19.20379,0.36198 -24.97571,0.48444" data-paper-data="{&quot;index&quot;:null}" fill="none" stroke="#061031" stroke-width="0.5" stroke-linecap="round"/><path d="M255.54071,127.89762l22.56388,9.05355" data-paper-data="{&quot;index&quot;:null}" fill="#c9cce9" stroke="#061031" stroke-width="0.5" stroke-linecap="round"/><path d="M265.59961,196.7834c0.63026,-6.24717 1.96697,-15.09142 3.32029,-23.09415c1.12841,-6.67276 2.26836,-12.76047 3.01994,-16.26976c1.88333,-8.79371 5.72692,-17.92654 6.32972,-20.32053c0.00395,-0.01567 1.07343,2.15752 3.81411,14.0089c1.69102,7.31241 2.65776,22.22543 2.65776,22.22543l0.63243,-0.00463l0.38417,8.25788l-16.93941,0.32215l0.13523,-8.11145l0.51962,-0.02611" data-paper-data="{&quot;index&quot;:null}" fill="none" stroke="#061031" stroke-width="0.5" stroke-linecap="round"/><path d="M269.21091,173.76053l15.8515,-0.43711" data-paper-data="{&quot;index&quot;:null}" fill="none" stroke="#061031" stroke-width="0.5" stroke-linecap="round"/></g></g></svg>