<svg version="1.1" xmlns="http://www.w3.org/2000/svg" xmlns:xlink="http://www.w3.org/1999/xlink" width="91.97005" height="117.5691" viewBox="0,0,91.97005,117.5691"><g transform="translate(-194.21053,-121.60108)"><g data-paper-data="{&quot;isPaintingLayer&quot;:true}" fill-rule="nonzero" stroke-linejoin="miter" stroke-miterlimit="10" stroke-dasharray="" stroke-dashoffset="0" style="mix-blend-mode: normal"><path d="M211.84965,237.99215l2.63871,-34.3904l-0.56231,-0.13596c0,0 -0.09413,-4.93877 0.03973,-6.7429c0.03202,-0.43151 0.52178,-0.11332 0.52178,-0.11332c0,0 -0.76148,-7.72729 -1.35461,-11.70184c-0.65494,-4.38872 -2.40801,-13.51134 -2.40801,-13.51134c0,0 -2.28161,47.32451 -2.77453,57.54846c-0.02112,0.43798 0.48996,0.36684 0.48181,0.82674c-0.06091,3.4404 -0.32302,7.74401 -0.32302,7.74401l-13.73922,-0.4188c0,0 0.60204,-6.20509 0.60442,-7.93146c0.00999,-7.24669 0.22791,-56.49854 0.22791,-56.49854c0,0 1.51174,-14.20646 2.71129,-20.53621c1.04824,-5.53136 3.84051,-15.37108 3.84051,-15.37108l23.47039,-9.86161l3.7689,-4.69334c0,0 3.25341,9.54269 5.03748,13.80987c1.28182,3.0659 4.66747,9.40266 4.66747,9.40266c0,0 4.46223,-7.01739 6.67327,-11.11348c1.84702,-3.42173 5.6984,-11.8059 5.6984,-11.8059l4.44202,5.18249l23.08243,9.13594c0,0 3.74502,13.31899 4.70744,18.61727c1.16847,6.43265 1.80593,17.23988 1.80593,17.23988l0.27403,57.37801l0.39034,7.16086l-13.55499,0.34713c0,0 -0.35576,-6.03678 -0.26575,-7.4015c0.04435,-0.6724 0.54917,-0.3059 0.54917,-0.3059l-2.99437,-58.28741c0,0 -2.76204,12.40713 -3.49998,24.84984c-0.03527,0.5947 0.53562,-0.2363 0.51371,0.3547c-0.07756,2.09227 0.08288,4.60396 0.02933,6.9924c-0.00669,0.29829 -0.53814,-0.22666 -0.54466,0.07451c-0.10116,4.66961 0.43561,9.81894 0.80802,14.68519c0.8125,10.61716 1.97028,19.81186 1.97028,19.81186c0,0 -17.72432,0.45544 -26.85699,0.41918c-8.37386,-0.03324 -30.07632,-0.76 -30.07632,-0.76z" data-paper-data="{&quot;index&quot;:null}" fill="#091647" stroke="#000000" stroke-width="0" stroke-linecap="butt"/><path d="M237.74848,147.29483c-0.01196,2.10622 0.81288,42.07161 0.9998,52.48537c0.01506,0.8388 0.18164,38.58192 0.18765,39.00203" data-paper-data="{&quot;index&quot;:null}" fill="none" stroke="#061031" stroke-width="0.5" stroke-linecap="round"/><path d="M213.92984,179.93172v-22.2348h16.95152v22.24304z" fill="none" stroke="#061031" stroke-width="0.5" stroke-linecap="butt"/><path d="M214.00723,164.81696l16.80875,0.07315" fill="none" stroke="#061031" stroke-width="0.5" stroke-linecap="round"/><path d="M213.42141,218.75403c0,0 0.18585,-4.36369 0.58745,-8.68687c0.21498,-2.31424 0.31611,-4.61688 0.37124,-6.23231c0.01225,-0.35909 -0.592,0.00634 -0.58549,-0.28854c0.0626,-2.83431 0.18416,-7.02708 0.18416,-7.02708h18.34946v22.24304z" fill="none" stroke="#061031" stroke-width="0.5" stroke-linecap="butt"/><path d="M232.25374,203.71241c0,0 -15.20816,-0.05808 -17.78368,-0.06792" fill="none" stroke="#061031" stroke-width="0.5" stroke-linecap="round"/><path d="M243.68549,238.92018l-32.00668,-0.67907l1.9493,-19.33797" fill="none" stroke="#061031" stroke-width="0.5" stroke-linecap="round"/><path d="M237.8666,147.57458c-0.00225,0.39545 4.76308,0.04293 4.76308,0.04293c0,0 0.73941,43.78954 0.89124,52.24809c0.01506,0.83881 0.18163,38.53401 0.18764,38.95413" data-paper-data="{&quot;index&quot;:null}" fill="none" stroke="#061031" stroke-width="0.5" stroke-linecap="round"/><path d="M210.55148,169.75039c0,0 0.31008,2.93837 0.06237,7.80514c-0.33906,6.66145 -2.65934,51.78393 -2.65934,51.78393l0.51962,0.02611l-0.27698,8.11145l-13.725,-0.32215l0.38417,-8.25788c0,0 0.24107,-0.01298 0.23943,-0.05227c-0.2376,-5.67663 0.09383,-46.93876 0.09383,-46.93876c0,0 -0.30571,-17.52435 2.82927,-31.08083c2.74068,-11.85138 3.81016,-14.02457 3.81411,-14.0089c0.6028,2.39399 4.44639,11.52682 6.32972,20.32053c1.65295,7.71803 5.18445,27.90778 6.34022,39.36391" fill="none" stroke="#061031" stroke-width="0.5" stroke-linecap="round"/><path d="M224.53578,127.64762l-22.56388,9.05355" fill="#c9cce9" stroke="#061031" stroke-width="0.5" stroke-linecap="round"/><path d="M251.00353,122.17192c0,0 -4.2193,9.41874 -6.54468,13.81095c-2.05303,3.87779 -6.54393,10.83749 -6.54393,10.83749c0,0 -0.19602,0.29959 -0.08454,0.24285c0.59633,-0.30348 3.13727,-1.824 4.82283,-2.59117c2.19509,-0.99908 7.45252,-2.47828 7.45252,-2.47828l0.94397,-19.75209c0,0 4.14097,4.83277 5.98734,7.66221c1.87478,2.87296 5.35483,9.50613 5.35483,9.50613l-12.02684,-0.6149" fill="none" stroke="#061031" stroke-width="0.5" stroke-linecap="round"/><path d="M229.61795,138.77672l-11.93486,0.63329c0,0 3.48007,-6.63317 5.35484,-9.50613c1.84637,-2.82944 5.92818,-7.54393 5.92818,-7.54393l0.84675,19.67291c0,0 -0.09751,1.37619 3.57858,2.8985c2.19842,0.91039 4.19613,1.18341 4.98633,0.9817c0.29599,-0.07555 0.32197,-0.39315 0.32197,-0.39315c0,0 -3.41493,-6.51083 -5.1052,-10.48089c-1.4269,-3.35145 -4.58945,-12.62613 -4.58945,-12.62613" data-paper-data="{&quot;index&quot;:null}" fill="none" stroke="#061031" stroke-width="0.5" stroke-linecap="round"/><path d="M208.35168,229.40944l-13.4898,-0.44132" fill="none" stroke="#061031" stroke-width="0.5" stroke-linecap="round"/><path d="M249.48085,180.18996v-22.24304h16.95152v22.2348z" data-paper-data="{&quot;index&quot;:null}" fill="none" stroke="#061031" stroke-width="0.5" stroke-linecap="butt"/><path d="M266.35498,165.06696l-16.80875,0.07315" data-paper-data="{&quot;index&quot;:null}" fill="none" stroke="#061031" stroke-width="0.5" stroke-linecap="round"/><path d="M248.03398,219.01227v-22.24304h18.34946c0,0 0.12156,4.19277 0.18416,7.02708c0.00651,0.29488 -0.59774,-0.07055 -0.58549,0.28854c0.05513,1.61543 0.15626,3.91807 0.37124,6.23231c0.4016,4.32318 0.58745,8.68687 0.58745,8.68687z" data-paper-data="{&quot;index&quot;:null}" fill="none" stroke="#061031" stroke-width="0.5" stroke-linecap="butt"/><path d="M265.89215,203.89449c-2.57552,0.00984 -17.78368,0.06792 -17.78368,0.06792" data-paper-data="{&quot;index&quot;:null}" fill="none" stroke="#061031" stroke-width="0.5" stroke-linecap="round"/><path d="M266.7341,219.06223l1.9493,19.33797c0,0 -19.20379,0.36198 -24.97571,0.48444" data-paper-data="{&quot;index&quot;:null}" fill="none" stroke="#061031" stroke-width="0.5" stroke-linecap="round"/><path d="M278.39031,137.02615l-22.71383,-9.20351" data-paper-data="{&quot;index&quot;:null}" fill="#c9cce9" stroke="#061031" stroke-width="0.5" stroke-linecap="round"/><path d="M265.88822,196.76403c1.15577,-11.45613 4.68727,-31.64588 6.34022,-39.36391c1.88333,-8.79371 5.72692,-17.92654 6.32972,-20.32053c0.00395,-0.01567 1.07343,2.15752 3.81411,14.0089c3.13498,13.55648 2.82927,31.08083 2.82927,31.08083c0,0 0.33143,41.26213 0.09383,46.93876c-0.00164,0.03929 0.23943,0.05227 0.23943,0.05227l0.38416,8.25788l-13.725,0.32216l-0.27698,-8.11146l0.51963,-0.02611c0,0 -2.32029,-45.12248 -2.65935,-51.78393c-0.24771,-4.86677 0.06237,-7.80514 0.06237,-7.80514" data-paper-data="{&quot;index&quot;:null}" fill="none" stroke="#061031" stroke-width="0.5" stroke-linecap="round"/><path d="M285.52923,229.20044l-13.4898,0.44133" data-paper-data="{&quot;index&quot;:null}" fill="none" stroke="#061031" stroke-width="0.5" stroke-linecap="round"/></g></g></svg>