<svg version="1.1" xmlns="http://www.w3.org/2000/svg" xmlns:xlink="http://www.w3.org/1999/xlink" width="92.2226" height="117.5691" viewBox="0,0,92.2226,117.5691"><g transform="translate(-193.68402,-121.60108)"><g data-paper-data="{&quot;isPaintingLayer&quot;:true}" fill-rule="nonzero" stroke-linejoin="miter" stroke-miterlimit="10" stroke-dasharray="" stroke-dashoffset="0" style="mix-blend-mode: normal"><path d="M268.09313,237.99216c0,0 -21.70246,0.72676 -30.07632,0.76c-9.13267,0.03626 -26.85699,-0.41918 -26.85699,-0.41918c0,0 1.15778,-9.1947 1.97028,-19.81186c0.37241,-4.86625 0.90918,-10.01558 0.80802,-14.68519c-0.00652,-0.30117 -0.53797,0.22378 -0.54466,-0.07451c-0.05355,-2.38844 0.10689,-4.90013 0.02933,-6.9924c-0.02191,-0.591 0.54898,0.24 0.51371,-0.3547c-0.73794,-12.44271 -3.49998,-24.84984 -3.49998,-24.84984c0,0 0.78148,10.21487 0.1989,10.25627c-1.27936,0.09092 -16.51201,-0.40529 -16.51201,-0.40529c0,0 0.25752,-6.77405 0.364,-8.08231c0.03534,-0.43424 0.55523,-0.03678 0.55523,-0.03678c0,0 0.42977,-11.43031 1.59824,-17.86296c0.96242,-5.29828 4.70744,-18.61727 4.70744,-18.61727l23.08243,-9.13594l4.44202,-5.18249c0,0 3.85138,8.38417 5.6984,11.8059c2.21104,4.09609 6.67327,11.11348 6.67327,11.11348c0,0 3.38565,-6.33676 4.66747,-9.40266c1.78407,-4.26718 5.03748,-13.80987 5.03748,-13.80987l3.7689,4.69334l23.47039,9.86161c0,0 2.79227,9.83972 3.84051,15.37108c1.19955,6.32975 2.5534,21.00989 2.5534,21.00989c0,0 0.50601,-0.4879 0.59958,0.16406c0.20369,1.41915 0.57586,8.02556 0.57586,8.02556c0,0 -15.61269,0.21232 -16.86411,0.1099c-0.60953,-0.04989 0.32393,-10.04362 0.32393,-10.04362c0,0 -1.75307,9.12262 -2.40801,13.51134c-0.59313,3.97455 -1.35461,11.70184 -1.35461,11.70184c0,0 0.48976,-0.31819 0.52178,0.11332c0.13386,1.80413 0.03973,6.7429 0.03973,6.7429l-0.56231,0.13596l2.63871,34.3904z" data-paper-data="{&quot;index&quot;:null}" fill="#091647" stroke="#000000" stroke-width="0" stroke-linecap="butt"/><path d="M241.05352,238.78223c0.00601,-0.42011 0.17259,-38.16323 0.18765,-39.00203c0.18692,-10.41376 1.01176,-50.37915 0.9998,-52.48537" data-paper-data="{&quot;index&quot;:null}" fill="none" stroke="#061031" stroke-width="0.5" stroke-linecap="round"/><path d="M249.10809,179.93996v-22.24304h16.95152v22.2348z" data-paper-data="{&quot;index&quot;:null}" fill="none" stroke="#061031" stroke-width="0.5" stroke-linecap="butt"/><path d="M265.98222,164.81696l-16.80875,0.07315" data-paper-data="{&quot;index&quot;:null}" fill="none" stroke="#061031" stroke-width="0.5" stroke-linecap="round"/><path d="M247.66122,218.76227v-22.24304h18.34946c0,0 0.12156,4.19277 0.18416,7.02708c0.00651,0.29488 -0.59774,-0.07055 -0.58549,0.28854c0.05513,1.61543 0.15626,3.91807 0.37124,6.23231c0.4016,4.32318 0.58745,8.68687 0.58745,8.68687z" data-paper-data="{&quot;index&quot;:null}" fill="none" stroke="#061031" stroke-width="0.5" stroke-linecap="butt"/><path d="M265.51939,203.64449c-2.57552,0.00984 -17.78368,0.06792 -17.78368,0.06792" data-paper-data="{&quot;index&quot;:null}" fill="none" stroke="#061031" stroke-width="0.5" stroke-linecap="round"/><path d="M266.36134,218.90314l1.9493,19.33797l-32.00668,0.67907" data-paper-data="{&quot;index&quot;:null}" fill="none" stroke="#061031" stroke-width="0.5" stroke-linecap="round"/><path d="M236.28089,238.81973c0.00601,-0.42012 0.17258,-38.11532 0.18764,-38.95413c0.15183,-8.45855 0.89124,-52.24809 0.89124,-52.24809c0,0 4.76533,0.35252 4.76308,-0.04293" data-paper-data="{&quot;index&quot;:null}" fill="none" stroke="#061031" stroke-width="0.5" stroke-linecap="round"/><path d="M265.48655,196.50067c0.63026,-6.24717 1.96698,-15.09141 3.32029,-23.09414c1.1284,-6.67277 2.26835,-12.76048 3.01993,-16.26977c1.88333,-8.79371 5.72692,-17.92654 6.32972,-20.32053c0.00395,-0.01567 1.07343,2.15752 3.81411,14.0089c1.69102,7.31242 2.65776,22.22543 2.65776,22.22543l0.63243,-0.00463l0.38417,8.25788l-16.93941,0.32215l0.13523,-8.11145l0.51962,-0.02611" data-paper-data="{&quot;index&quot;:null}" fill="none" stroke="#061031" stroke-width="0.5" stroke-linecap="round"/><path d="M255.45367,127.64762l22.56388,9.05355" data-paper-data="{&quot;index&quot;:null}" fill="#c9cce9" stroke="#061031" stroke-width="0.5" stroke-linecap="round"/><path d="M229.62442,138.79511l-12.02684,0.6149c0,0 3.48005,-6.63317 5.35483,-9.50613c1.84637,-2.82944 5.98734,-7.66221 5.98734,-7.66221l0.94397,19.75209c0,0 5.25743,1.4792 7.45252,2.47828c1.68556,0.76717 4.2265,2.28769 4.82283,2.59117c0.11148,0.05674 -0.08454,-0.24285 -0.08454,-0.24285c0,0 -4.4909,-6.9597 -6.54393,-10.83749c-2.32538,-4.39221 -6.54468,-13.81095 -6.54468,-13.81095" data-paper-data="{&quot;index&quot;:null}" fill="none" stroke="#061031" stroke-width="0.5" stroke-linecap="round"/><path d="M250.98436,122.41289c0,0 -3.16255,9.27468 -4.58945,12.62613c-1.69027,3.97006 -5.1052,10.48089 -5.1052,10.48089c0,0 0.02598,0.3176 0.32197,0.39315c0.7902,0.20171 2.78791,-0.07131 4.98633,-0.9817c3.67609,-1.52231 3.57858,-2.8985 3.57858,-2.8985l0.84675,-19.67291c0,0 4.08181,4.71449 5.92818,7.54393c1.87477,2.87296 5.35484,9.50613 5.35484,9.50613l-11.93486,-0.63329" data-paper-data="{&quot;index&quot;:null}" fill="none" stroke="#061031" stroke-width="0.5" stroke-linecap="round"/><path d="M269.09785,173.4778l15.8515,-0.43711" data-paper-data="{&quot;index&quot;:null}" fill="none" stroke="#061031" stroke-width="0.5" stroke-linecap="round"/><path d="M213.55708,180.18172v-22.2348h16.95152v22.24304z" data-paper-data="{&quot;index&quot;:null}" fill="none" stroke="#061031" stroke-width="0.5" stroke-linecap="butt"/><path d="M230.44322,165.14011l-16.80875,-0.07315" data-paper-data="{&quot;index&quot;:null}" fill="none" stroke="#061031" stroke-width="0.5" stroke-linecap="round"/><path d="M213.04865,219.00403c0,0 0.18585,-4.36369 0.58745,-8.68687c0.21498,-2.31424 0.31611,-4.61688 0.37124,-6.23231c0.01225,-0.35909 -0.592,0.00634 -0.58549,-0.28854c0.0626,-2.83431 0.18416,-7.02708 0.18416,-7.02708h18.34946v22.24304z" data-paper-data="{&quot;index&quot;:null}" fill="none" stroke="#061031" stroke-width="0.5" stroke-linecap="butt"/><path d="M231.88098,203.96241c0,0 -15.20816,-0.05808 -17.78368,-0.06792" data-paper-data="{&quot;index&quot;:null}" fill="none" stroke="#061031" stroke-width="0.5" stroke-linecap="round"/><path d="M236.28176,238.88464c-5.77192,-0.12246 -24.97571,-0.48444 -24.97571,-0.48444l1.9493,-19.33797" data-paper-data="{&quot;index&quot;:null}" fill="none" stroke="#061031" stroke-width="0.5" stroke-linecap="round"/><path d="M224.16302,127.89762l-22.56388,9.05355" data-paper-data="{&quot;index&quot;:null}" fill="#c9cce9" stroke="#061031" stroke-width="0.5" stroke-linecap="round"/><path d="M210.23026,173.77113l0.51962,0.02611l0.13523,8.11145l-16.93941,-0.32215l0.38417,-8.25788l0.63243,0.00463c0,0 0.96674,-14.91302 2.65776,-22.22543c2.74068,-11.85138 3.81016,-14.02457 3.81411,-14.0089c0.6028,2.39399 4.44639,11.52682 6.32972,20.32053c0.75158,3.50929 1.89153,9.597 3.01994,16.26976c1.35332,8.00273 2.69003,16.84698 3.32029,23.09415" data-paper-data="{&quot;index&quot;:null}" fill="none" stroke="#061031" stroke-width="0.5" stroke-linecap="round"/><path d="M210.49282,173.76053l-15.8515,-0.43711" data-paper-data="{&quot;index&quot;:null}" fill="none" stroke="#061031" stroke-width="0.5" stroke-linecap="round"/></g></g></svg>