<svg version="1.1" xmlns="http://www.w3.org/2000/svg" xmlns:xlink="http://www.w3.org/1999/xlink" width="56.86527" height="132.20121" viewBox="0,0,56.86527,132.20121"><g transform="translate(-211.94156,-103.25628)"><g data-paper-data="{&quot;isPaintingLayer&quot;:true}" fill-rule="nonzero" stroke-linejoin="miter" stroke-miterlimit="10" stroke-dasharray="" stroke-dashoffset="0" style="mix-blend-mode: normal"><path d="" fill="#848988" stroke="none" stroke-width="1" stroke-linecap="butt"/><path d="" fill="#848988" stroke="none" stroke-width="1" stroke-linecap="butt"/><path d="" fill="#848988" stroke="none" stroke-width="1" stroke-linecap="butt"/><path d="" fill="#848988" stroke="none" stroke-width="1" stroke-linecap="butt"/><path d="" fill="#848988" stroke="none" stroke-width="1" stroke-linecap="butt"/><path d="" fill="#848988" stroke="none" stroke-width="1" stroke-linecap="butt"/><path d="" fill="#848988" stroke="none" stroke-width="1" stroke-linecap="butt"/><path d="" fill="#848988" stroke="none" stroke-width="1" stroke-linecap="butt"/><path d="" fill="#6c787b" stroke="none" stroke-width="1" stroke-linecap="butt"/><path d="" fill="#6c787b" stroke="none" stroke-width="1" stroke-linecap="butt"/><path d="" fill="#6c787b" stroke="none" stroke-width="1" stroke-linecap="butt"/><path d="" fill="#ccc8c5" stroke="none" stroke-width="1" stroke-linecap="butt"/><path d="" fill="#ccc8c5" stroke="none" stroke-width="1" stroke-linecap="butt"/><path d="" fill="#6c787b" stroke="none" stroke-width="1" stroke-linecap="butt"/><path d="" fill="#ccc8c5" stroke="none" stroke-width="1" stroke-linecap="butt"/><path d="" fill="#ccc8c5" stroke="none" stroke-width="1" stroke-linecap="butt"/><path d="" fill="#ccc8c5" stroke="none" stroke-width="1" stroke-linecap="butt"/><path d="M244.36236,234.31329c-1.54543,-0.32284 -3.61655,-0.48452 -3.63557,-2.55241c-0.01202,-1.30694 0.48461,-3.08441 0.46894,-4.78743c-0.22024,-23.93914 -0.76926,-83.61662 -0.76926,-83.61662l5.88343,-1.74983l0.34784,-32.58401l20.51877,-0.46987c0,0 0.88327,7.22026 1.12798,10.95226c0.21008,3.2038 0.2523,10.09788 0.2523,10.09788l-1.26261,29.8659c0,0 -0.10357,12.10915 -0.29896,16.27969c-0.15754,3.36257 -0.78444,6.84567 -0.78444,6.84567c0,0 -1.61574,36.49609 -2.0695,46.74555c-0.04965,1.12143 0.22413,2.593 0.18352,3.51029c-0.02644,0.59721 -1.0926,0.67684 -2.29837,1.08706c-2.11315,0.71893 -5.69917,1.46389 -9.22102,1.22433c-3.37399,-0.22951 -6.18598,-0.37695 -8.44304,-0.84846z" data-paper-data="{&quot;index&quot;:null}" fill="#091647" stroke="#061031" stroke-width="0.5" stroke-linecap="butt"/><path d="M240.02157,231.77119c-0.01902,2.06789 -2.09014,2.22956 -3.63557,2.55241c-2.25705,0.4715 -5.06905,0.61895 -8.44304,0.84846c-3.52185,0.23957 -7.10786,-0.5054 -9.22102,-1.22433c-1.20576,-0.41022 -2.27192,-0.48984 -2.29836,-1.08706c-0.04061,-0.9173 0.23317,-2.38886 0.18352,-3.51029c-0.45331,-10.2392 -2.06709,-46.51221 -2.06709,-46.51221c0,0 -0.5373,0.34155 -0.80327,-7.92061c-0.19928,-4.50129 -0.03621,-11.2203 -0.22018,-15.37565c-0.75062,-16.95498 -1.32497,-29.92834 -1.32497,-29.92834c0,0 0.04222,-6.89408 0.2523,-10.09788c0.24471,-3.732 1.12798,-10.95226 1.12798,-10.95226l33.07772,0.46987l-0.37477,32.63686l-5.95292,1.69698c0,0 -0.54902,59.67749 -0.76926,83.61662c-0.01567,1.70302 0.48096,3.48049 0.46894,4.78743z" data-paper-data="{&quot;index&quot;:null}" fill="#091647" stroke="#061031" stroke-width="0.5" stroke-linecap="butt"/><path d="M241.70059,105.11882c-0.03295,-0.48099 0.07231,-0.87752 0.23476,-0.88381l4.1865,-0.16217c0.16235,-0.00629 0.32123,0.37984 0.35419,0.86083l0.43101,6.29608c0.0329,0.481 -0.07244,0.87736 -0.23479,0.88365c0,0 -1.44234,0.05587 -2.14915,0.08325c-0.68817,0.02666 -2.0373,0.07892 -2.0373,0.07892c-0.1625,0.00629 -0.32127,-0.37984 -0.35423,-0.86083l-0.43104,-6.29591z" data-paper-data="{&quot;index&quot;:null}" fill="#0b0e0d" stroke="none" stroke-width="1" stroke-linecap="butt"/><g fill="none" stroke="none" stroke-width="1" stroke-linecap="butt" font-family="sans-serif" font-weight="normal" font-size="12" text-anchor="start"><g/><g data-paper-data="{&quot;index&quot;:null}"/></g><path d="M267.46858,109.51737c0,0 -18.77522,1.69713 -27.11716,1.72718c-7.55473,0.02721 -27.04222,-1.81154 -27.04222,-1.81154l0.7645,-5.73598c0,0 17.40336,1.69529 24.99009,1.68559c8.28288,-0.01059 27.72075,-1.8543 27.72075,-1.8543z" data-paper-data="{&quot;index&quot;:null}" fill="#1d1e26" stroke="#0b0b0b" stroke-width="0.5" stroke-linecap="butt"/><path d="M241.31772,105.13862c-0.02903,-0.48134 -0.01465,-0.8746 0.03211,-0.87653l1.20497,-0.04969c0.04673,-0.00193 0.10837,0.38803 0.1374,0.86936l0.37995,6.30055c0.02901,0.48134 0.0146,0.87443 -0.03213,0.87636l-1.20496,0.0497c-0.04677,0.00192 -0.10838,-0.38805 -0.13741,-0.86938l-0.37996,-6.30038z" data-paper-data="{&quot;index&quot;:null}" fill="#0b0e0d" stroke="none" stroke-width="1" stroke-linecap="butt"/><path d="M245.84295,104.92534c-0.02903,-0.48134 -0.01465,-0.87459 0.03211,-0.87652l1.20497,-0.0497c0.04673,-0.00193 0.10837,0.38803 0.1374,0.86936l0.37996,6.30055c0.02901,0.48134 0.0146,0.87443 -0.03213,0.87636l-1.20496,0.04969c-0.04677,0.00192 -0.10838,-0.38804 -0.13741,-0.86937l-0.37995,-6.30038z" data-paper-data="{&quot;index&quot;:null}" fill="#0b0e0d" stroke="none" stroke-width="1" stroke-linecap="butt"/><path d="M256.24702,181.57124l0.40063,-34.15475l11.08092,1.15516c0,0 -0.0021,6.44575 -0.01535,10.80185c-0.00138,0.4532 -0.35969,-0.14597 -0.35876,0.4062c0.0042,2.48401 -0.25399,5.1928 -0.16585,8.75991c0.06476,2.62082 -0.04114,5.37807 -0.19347,7.75903c-0.23499,3.6728 -0.58046,6.4502 -0.58046,6.4502z" data-paper-data="{&quot;index&quot;:null}" fill="none" stroke="#061031" stroke-width="0.5" stroke-linecap="butt"/><path d="M267.30359,159.48173c-1.55549,-0.14703 -10.74049,-1.01524 -10.74049,-1.01524" data-paper-data="{&quot;index&quot;:null}" fill="none" stroke="#061031" stroke-width="0.5" stroke-linecap="round"/><path d="M255.31566,225.28591l1.41908,-22.28296l8.80521,1.07299c0,0 -0.20917,4.20741 -0.35995,7.05046c-0.01569,0.29579 -0.16312,-0.10563 -0.18015,0.25482c-0.07661,1.62155 -0.611,15.00201 -0.611,15.00201z" data-paper-data="{&quot;index&quot;:null}" fill="none" stroke="#061031" stroke-width="0.5" stroke-linecap="butt"/><path d="M256.3116,210.2134c0,0 7.30152,0.83111 8.53804,0.97186" data-paper-data="{&quot;index&quot;:null}" fill="none" stroke="#061031" stroke-width="0.5" stroke-linecap="round"/><path d="M214.37115,182.74885c0,0 -0.93858,-7.5456 -0.77393,-14.20923c0.08814,-3.56711 -0.17004,-6.27591 -0.16585,-8.75991c0.00093,-0.55216 -0.35738,0.047 -0.35876,-0.4062c-0.01324,-4.35609 -0.01535,-10.80185 -0.01535,-10.80185l11.08092,-1.15516l0.40063,34.15475z" data-paper-data="{&quot;index&quot;:null}" fill="none" stroke="#061031" stroke-width="0.5" stroke-linecap="butt"/><path d="M224.22275,158.46649c0,0 -9.18499,0.86821 -10.74048,1.01524" data-paper-data="{&quot;index&quot;:null}" fill="none" stroke="#061031" stroke-width="0.5" stroke-linecap="round"/><path d="M216.39697,226.38323c0,0 -0.47478,-13.49967 -0.55139,-15.12122c-0.01703,-0.36045 -0.22407,0.16018 -0.23976,-0.13561c-0.15078,-2.84305 -0.35995,-7.05046 -0.35995,-7.05046l8.8052,-1.07299l1.41908,22.28296z" data-paper-data="{&quot;index&quot;:null}" fill="none" stroke="#061031" stroke-width="0.5" stroke-linecap="butt"/><path d="M215.9362,211.18526c1.23652,-0.14075 8.53804,-0.97186 8.53804,-0.97186" data-paper-data="{&quot;index&quot;:null}" fill="none" stroke="#061031" stroke-width="0.5" stroke-linecap="round"/><path d="M262.51129,104.20465c-0.04927,-0.40242 -0.03851,-0.7325 0.02403,-0.73573l1.6117,-0.08322c0.06251,-0.00323 0.15343,0.32148 0.20268,0.72388l0.64466,5.26744c0.04923,0.40241 0.03843,0.73236 -0.02407,0.73559l-1.61169,0.08321c-0.06256,0.00323 -0.15345,-0.32148 -0.2027,-0.72388l-0.64464,-5.26729z" data-paper-data="{&quot;index&quot;:null}" fill="#061031" stroke="none" stroke-width="1" stroke-linecap="butt"/><path d="M249.66082,105.23269c-0.04927,-0.40242 -0.03851,-0.7325 0.02403,-0.73573l1.6117,-0.08322c0.06251,-0.00323 0.15344,0.32148 0.20268,0.72388l0.64466,5.26744c0.04923,0.40242 0.03843,0.73236 -0.02407,0.73559l-1.61168,0.08321c-0.06256,0.00323 -0.15345,-0.32148 -0.2027,-0.72388l-0.64464,-5.2673z" data-paper-data="{&quot;index&quot;:null}" fill="#061031" stroke="none" stroke-width="1" stroke-linecap="butt"/><path d="M219.92897,104.51645l-0.61275,5.2711c-0.04681,0.4027 -0.13573,0.72795 -0.19831,0.7251l-1.61216,-0.07346c-0.06252,-0.00285 -0.07531,-0.33272 -0.02852,-0.73543l0.61277,-5.27125c0.04681,-0.40269 0.13578,-0.72794 0.1983,-0.72509l1.61217,0.07347c0.06256,0.00286 0.07532,0.33286 0.02849,0.73557z" data-paper-data="{&quot;index&quot;:null}" fill="#061031" stroke="none" stroke-width="1" stroke-linecap="butt"/><path d="M232.78538,105.46669l-0.61275,5.2711c-0.04681,0.4027 -0.13573,0.72795 -0.19831,0.7251l-1.61216,-0.07346c-0.06252,-0.00285 -0.07531,-0.33272 -0.02852,-0.73543l0.61277,-5.27125c0.04681,-0.40269 0.13578,-0.72794 0.1983,-0.72509l1.61217,0.07347c0.06256,0.00286 0.07532,0.33286 0.02849,0.73557z" data-paper-data="{&quot;index&quot;:null}" fill="#061031" stroke="none" stroke-width="1" stroke-linecap="butt"/></g></g></svg>