<svg xmlns="http://www.w3.org/2000/svg" xmlns:xlink="http://www.w3.org/1999/xlink" width="1280" zoomAndPan="magnify" viewBox="0 0 960 540.000001" height="720" preserveAspectRatio="xMidYMid meet" version="1.0"><defs><clipPath id="ee2f0a3ebc"><path d="M 410.894531 269.058594 L 549.105469 269.058594 L 549.105469 407.265625 L 410.894531 407.265625 Z M 410.894531 269.058594 " clip-rule="nonzero"/></clipPath><clipPath id="95e4c7801a"><path d="M 480 269.058594 C 441.835938 269.058594 410.894531 300 410.894531 338.164062 C 410.894531 376.328125 441.835938 407.265625 480 407.265625 C 518.164062 407.265625 549.105469 376.328125 549.105469 338.164062 C 549.105469 300 518.164062 269.058594 480 269.058594 Z M 480 269.058594 " clip-rule="nonzero"/></clipPath><clipPath id="594a523be9"><path d="M 0.894531 0.0585938 L 139.105469 0.0585938 L 139.105469 138.265625 L 0.894531 138.265625 Z M 0.894531 0.0585938 " clip-rule="nonzero"/></clipPath><clipPath id="902d526737"><path d="M 70 0.0585938 C 31.835938 0.0585938 0.894531 31 0.894531 69.164062 C 0.894531 107.328125 31.835938 138.265625 70 138.265625 C 108.164062 138.265625 139.105469 107.328125 139.105469 69.164062 C 139.105469 31 108.164062 0.0585938 70 0.0585938 Z M 70 0.0585938 " clip-rule="nonzero"/></clipPath><clipPath id="d362f8f14e"><rect x="0" width="140" y="0" height="139"/></clipPath><clipPath id="9cc199a0d4"><path d="M 410.894531 269.058594 L 549.097656 269.058594 L 549.097656 407.261719 L 410.894531 407.261719 Z M 410.894531 269.058594 " clip-rule="nonzero"/></clipPath><clipPath id="13a7bc135f"><path d="M 479.996094 269.058594 C 441.832031 269.058594 410.894531 299.996094 410.894531 338.160156 C 410.894531 376.324219 441.832031 407.261719 479.996094 407.261719 C 518.160156 407.261719 549.097656 376.324219 549.097656 338.160156 C 549.097656 299.996094 518.160156 269.058594 479.996094 269.058594 Z M 479.996094 269.058594 " clip-rule="nonzero"/></clipPath></defs><g clip-path="url(#ee2f0a3ebc)"><g clip-path="url(#95e4c7801a)"><g transform="matrix(1, 0, 0, 1, 410, 269)"><g clip-path="url(#d362f8f14e)"><g clip-path="url(#594a523be9)"><g clip-path="url(#902d526737)"><path fill="#000000" d="M 0.894531 0.0585938 L 139.105469 0.0585938 L 139.105469 138.265625 L 0.894531 138.265625 Z M 0.894531 0.0585938 " fill-opacity="1" fill-rule="nonzero"/></g></g></g></g></g></g><g clip-path="url(#9cc199a0d4)"><g clip-path="url(#13a7bc135f)"><path stroke-linecap="butt" transform="matrix(0.748614, 0, 0, 0.748614, 410.896089, 269.059455)" fill="none" stroke-linejoin="miter" d="M 92.303961 -0.00115048 C 41.32431 -0.00115048 -0.0020808 41.32524 -0.0020808 92.304891 C -0.0020808 143.284542 41.32431 184.610932 92.303961 184.610932 C 143.283612 184.610932 184.610002 143.284542 184.610002 92.304891 C 184.610002 41.32524 143.283612 -0.00115048 92.303961 -0.00115048 Z M 92.303961 -0.00115048 " stroke="#000000" stroke-width="36" stroke-opacity="1" stroke-miterlimit="4"/></g></g><path stroke-linecap="butt" transform="matrix(0, 0.748614, -0.748614, 0, 486.733359, 131.738827)" fill="none" stroke-linejoin="miter" d="M -0.000728687 8.999655 L 202.994293 8.999655 " stroke="#000000" stroke-width="18" stroke-opacity="1" stroke-miterlimit="4"/><path stroke-linecap="butt" transform="matrix(0.748614, 0, 0, 0.748614, 439.111517, 184.300673)" fill="none" stroke-linejoin="miter" d="M 0.00235663 9.001158 L 109.235521 9.001158 " stroke="#000000" stroke-width="18" stroke-opacity="1" stroke-miterlimit="4"/><path stroke-linecap="butt" transform="matrix(0.748614, 0.000000000000001074, -0.000000000000001074, 0.748614, 450.332361, 155.10474)" fill="none" stroke-linejoin="miter" d="M -0.000440822 9.001986 L 79.260654 9.001986 " stroke="#000000" stroke-width="18" stroke-opacity="1" stroke-miterlimit="4"/><path stroke-linecap="butt" transform="matrix(0.748614, 0, 0, 0.748614, 428.347339, 213.511563)" fill="none" stroke-linejoin="miter" d="M 0.000423602 9.001221 L 137.995086 9.001221 " stroke="#000000" stroke-width="18" stroke-opacity="1" stroke-miterlimit="4"/><path stroke-linecap="butt" transform="matrix(0.748614, 0, 0, 0.748614, 416.064374, 242.707495)" fill="none" stroke-linejoin="miter" d="M -0.0025031 9.000393 L 170.813244 9.000393 " stroke="#000000" stroke-width="18" stroke-opacity="1" stroke-miterlimit="4"/></svg>