<svg version="1.1" xmlns="http://www.w3.org/2000/svg" xmlns:xlink="http://www.w3.org/1999/xlink" width="75.07305" height="143.02537" viewBox="0,0,75.07305,143.02537"><g transform="translate(-202.51365,-69.42517)"><g data-paper-data="{&quot;isPaintingLayer&quot;:true}" fill-rule="nonzero" stroke="#000000" stroke-width="6" stroke-linecap="butt" stroke-linejoin="miter" stroke-miterlimit="10" stroke-dasharray="" stroke-dashoffset="0" style="mix-blend-mode: normal"><path d="M205.51365,175.34341c0,-18.83685 15.35024,-34.10714 34.28571,-34.10714c18.93548,0 34.28571,15.27029 34.28571,34.10714c0,18.83685 -15.35024,34.10714 -34.28571,34.10714c-18.93548,0 -34.28571,-15.27029 -34.28571,-34.10714z" fill="#000000"/><path d="M240.32575,140.12799v-67.70281h0.39915v67.70281z" fill="none"/><path d="M222.31252,85.53705l36.46808,-0.11266l0.0011,0.35714l-36.46808,0.11266z" fill="none"/><path d="M217.36807,98.53706l46.02136,-0.11266l0.00139,0.35714l-46.02136,0.11266z" fill="none"/><path d="M212.42894,111.13705l56.16961,-0.11266l0.00159,0.35714l-56.16961,0.11266z" fill="none"/><path d="M206.60783,124.13707l67.9658,-0.11266l0.00139,0.35714l-67.9658,0.11266z" fill="none"/></g></g></svg>