<svg xmlns="http://www.w3.org/2000/svg" xmlns:xlink="http://www.w3.org/1999/xlink" width="1280" zoomAndPan="magnify" viewBox="0 0 960 540.000001" height="720" preserveAspectRatio="xMidYMid meet" version="1.0"><defs><clipPath id="c0d999b825"><path d="M 369.835938 241.863281 L 589.929688 241.863281 L 589.929688 378.859375 L 369.835938 378.859375 Z M 369.835938 241.863281 " clip-rule="nonzero"/></clipPath></defs><path stroke-linecap="butt" transform="matrix(0.648318, 0.374307, -0.374307, 0.648318, 378.101879, 244.233117)" fill="none" stroke-linejoin="miter" d="M 0.000401973 8.997336 L 321.598029 9.001531 " stroke="#000000" stroke-width="18" stroke-opacity="1" stroke-miterlimit="4"/><path stroke-linecap="butt" transform="matrix(0.648318, -0.374307, 0.374307, 0.648318, 371.364356, 364.607854)" fill="none" stroke-linejoin="miter" d="M 0.0023321 8.999321 L 321.59735 8.999644 " stroke="#000000" stroke-width="18" stroke-opacity="1" stroke-miterlimit="4"/><g clip-path="url(#c0d999b825)"><path stroke-linecap="butt" transform="matrix(0.748614, 0, 0, 0.748614, 369.835603, 241.862)" fill="none" stroke-linejoin="miter" d="M 0.00044691 0.00171128 L 294.310094 0.00171128 L 294.310094 183.079709 L 0.00044691 183.079709 Z M 0.00044691 0.00171128 " stroke="#000000" stroke-width="36" stroke-opacity="1" stroke-miterlimit="4"/></g><path stroke-linecap="butt" transform="matrix(0, 0.748614, -0.748614, 0, 486.736209, 160.085903)" fill="none" stroke-linejoin="miter" d="M 0.0000460339 8.998245 L 109.238428 8.998245 " stroke="#000000" stroke-width="18" stroke-opacity="1" stroke-miterlimit="4"/><path stroke-linecap="butt" transform="matrix(0.748614, 0, 0, 0.748614, 439.111517, 210.389933)" fill="none" stroke-linejoin="miter" d="M 0.00235663 9.001938 L 109.235521 9.001938 " stroke="#000000" stroke-width="18" stroke-opacity="1" stroke-miterlimit="4"/><path stroke-linecap="butt" transform="matrix(0.748614, 0.000000000000001074, -0.000000000000001074, 0.748614, 450.332361, 178.396993)" fill="none" stroke-linejoin="miter" d="M -0.000440822 8.997725 L 79.260654 8.997725 " stroke="#000000" stroke-width="18" stroke-opacity="1" stroke-miterlimit="4"/></svg>