<svg xmlns="http://www.w3.org/2000/svg" xmlns:xlink="http://www.w3.org/1999/xlink" width="1280" zoomAndPan="magnify" viewBox="0 0 960 540.000001" height="720" preserveAspectRatio="xMidYMid meet" version="1.0"><defs><clipPath id="61d129ef96"><path d="M 369.835938 241.863281 L 589.929688 241.863281 L 589.929688 378.859375 L 369.835938 378.859375 Z M 369.835938 241.863281 " clip-rule="nonzero"/></clipPath></defs><g clip-path="url(#61d129ef96)"><path stroke-linecap="butt" transform="matrix(0.748614, 0, 0, 0.748614, 369.835603, 241.862)" fill="none" stroke-linejoin="miter" d="M 0.00044691 0.00171128 L 294.310094 0.00171128 L 294.310094 183.079709 L 0.00044691 183.079709 Z M 0.00044691 0.00171128 " stroke="#000000" stroke-width="36" stroke-opacity="1" stroke-miterlimit="4"/></g><path stroke-linecap="butt" transform="matrix(0, 0.748614, -0.748614, 0, 486.736209, 160.086018)" fill="none" stroke-linejoin="miter" d="M -0.000107566 8.998245 L 109.238274 8.998245 " stroke="#000000" stroke-width="18" stroke-opacity="1" stroke-miterlimit="4"/><path stroke-linecap="butt" transform="matrix(0.748614, 0, 0, 0.748614, 439.111517, 194.669046)" fill="none" stroke-linejoin="miter" d="M 0.00235663 8.999574 L 109.235521 8.999574 " stroke="#000000" stroke-width="18" stroke-opacity="1" stroke-miterlimit="4"/><path stroke-linecap="butt" transform="matrix(0.648318, 0.374307, -0.374307, 0.648318, 378.101879, 244.233234)" fill="none" stroke-linejoin="miter" d="M 0.000323573 8.9972 L 321.59795 9.001396 " stroke="#000000" stroke-width="18" stroke-opacity="1" stroke-miterlimit="4"/><path stroke-linecap="butt" transform="matrix(0.648318, -0.374307, 0.374307, 0.648318, 371.364356, 364.607854)" fill="none" stroke-linejoin="miter" d="M 0.0023321 8.999321 L 321.59735 8.999644 " stroke="#000000" stroke-width="18" stroke-opacity="1" stroke-miterlimit="4"/></svg>