<svg xmlns="http://www.w3.org/2000/svg" xmlns:xlink="http://www.w3.org/1999/xlink" width="1280" zoomAndPan="magnify" viewBox="0 0 960 540.000001" height="720" preserveAspectRatio="xMidYMid meet" version="1.0"><defs><clipPath id="ee60787909"><path d="M 410.894531 254.859375 L 549.105469 254.859375 L 549.105469 393.070312 L 410.894531 393.070312 Z M 410.894531 254.859375 " clip-rule="nonzero"/></clipPath><clipPath id="9749e8cfa5"><path d="M 480 254.859375 C 441.835938 254.859375 410.894531 285.800781 410.894531 323.964844 C 410.894531 362.128906 441.835938 393.070312 480 393.070312 C 518.164062 393.070312 549.105469 362.128906 549.105469 323.964844 C 549.105469 285.800781 518.164062 254.859375 480 254.859375 Z M 480 254.859375 " clip-rule="nonzero"/></clipPath><clipPath id="647603e7c0"><path d="M 0.894531 0.859375 L 139.105469 0.859375 L 139.105469 139.070312 L 0.894531 139.070312 Z M 0.894531 0.859375 " clip-rule="nonzero"/></clipPath><clipPath id="e0f643a013"><path d="M 70 0.859375 C 31.835938 0.859375 0.894531 31.800781 0.894531 69.964844 C 0.894531 108.128906 31.835938 139.070312 70 139.070312 C 108.164062 139.070312 139.105469 108.128906 139.105469 69.964844 C 139.105469 31.800781 108.164062 0.859375 70 0.859375 Z M 70 0.859375 " clip-rule="nonzero"/></clipPath><clipPath id="e6c01cf1a5"><rect x="0" width="140" y="0" height="140"/></clipPath><clipPath id="235b28f075"><path d="M 410.894531 254.859375 L 549.097656 254.859375 L 549.097656 393.0625 L 410.894531 393.0625 Z M 410.894531 254.859375 " clip-rule="nonzero"/></clipPath><clipPath id="256401b6fc"><path d="M 479.996094 254.859375 C 441.832031 254.859375 410.894531 285.796875 410.894531 323.960938 C 410.894531 362.125 441.832031 393.0625 479.996094 393.0625 C 518.160156 393.0625 549.097656 362.125 549.097656 323.960938 C 549.097656 285.796875 518.160156 254.859375 479.996094 254.859375 Z M 479.996094 254.859375 " clip-rule="nonzero"/></clipPath></defs><g clip-path="url(#ee60787909)"><g clip-path="url(#9749e8cfa5)"><g transform="matrix(1, 0, 0, 1, 410, 254)"><g clip-path="url(#e6c01cf1a5)"><g clip-path="url(#647603e7c0)"><g clip-path="url(#e0f643a013)"><path fill="#000000" d="M 0.894531 0.859375 L 139.105469 0.859375 L 139.105469 139.070312 L 0.894531 139.070312 Z M 0.894531 0.859375 " fill-opacity="1" fill-rule="nonzero"/></g></g></g></g></g></g><g clip-path="url(#235b28f075)"><g clip-path="url(#256401b6fc)"><path stroke-linecap="butt" transform="matrix(0.748614, 0, 0, 0.748614, 410.896089, 254.860623)" fill="none" stroke-linejoin="miter" d="M 92.303961 -0.0016675 C 41.32431 -0.0016675 -0.0020808 41.324723 -0.0020808 92.304374 C -0.0020808 143.284025 41.32431 184.610415 92.303961 184.610415 C 143.283612 184.610415 184.610002 143.284025 184.610002 92.304374 C 184.610002 41.324723 143.283612 -0.0016675 92.303961 -0.0016675 Z M 92.303961 -0.0016675 " stroke="#000000" stroke-width="36" stroke-opacity="1" stroke-miterlimit="4"/></g></g><path stroke-linecap="butt" transform="matrix(0, 0.748614, -0.748614, 0, 486.737024, 145.934063)" fill="none" stroke-linejoin="miter" d="M -0.000626444 8.999333 L 160.23306 8.999333 " stroke="#000000" stroke-width="18" stroke-opacity="1" stroke-miterlimit="4"/><path stroke-linecap="butt" transform="matrix(0.748614, 0, 0, 0.748614, 439.111517, 198.499607)" fill="none" stroke-linejoin="miter" d="M 0.00235663 9.001538 L 109.235521 9.001538 " stroke="#000000" stroke-width="18" stroke-opacity="1" stroke-miterlimit="4"/><path stroke-linecap="butt" transform="matrix(0.748614, 0.000000000000001074, -0.000000000000001074, 0.748614, 450.332361, 169.303675)" fill="none" stroke-linejoin="miter" d="M -0.000440822 9.002365 L 79.260654 9.002365 " stroke="#000000" stroke-width="18" stroke-opacity="1" stroke-miterlimit="4"/><path stroke-linecap="butt" transform="matrix(0.748614, 0, 0, 0.748614, 428.347339, 227.710512)" fill="none" stroke-linejoin="miter" d="M 0.000423602 9.001581 L 137.995086 9.001581 " stroke="#000000" stroke-width="18" stroke-opacity="1" stroke-miterlimit="4"/></svg>