<svg xmlns="http://www.w3.org/2000/svg" xmlns:xlink="http://www.w3.org/1999/xlink" width="1280" zoomAndPan="magnify" viewBox="0 0 960 540.000001" height="720" preserveAspectRatio="xMidYMid meet" version="1.0"><defs><clipPath id="606f0220ae"><path d="M 369.835938 230.230469 L 589.929688 230.230469 L 589.929688 367.226562 L 369.835938 367.226562 Z M 369.835938 230.230469 " clip-rule="nonzero"/></clipPath><clipPath id="8b4ab5dfe1"><path d="M 453.980469 171.71875 L 506.019531 171.71875 L 506.019531 223.757812 L 453.980469 223.757812 Z M 453.980469 171.71875 " clip-rule="nonzero"/></clipPath><clipPath id="45757e72b7"><path d="M 480 171.71875 C 465.628906 171.71875 453.980469 183.367188 453.980469 197.738281 C 453.980469 212.109375 465.628906 223.757812 480 223.757812 C 494.371094 223.757812 506.019531 212.109375 506.019531 197.738281 C 506.019531 183.367188 494.371094 171.71875 480 171.71875 Z M 480 171.71875 " clip-rule="nonzero"/></clipPath></defs><g clip-path="url(#606f0220ae)"><path stroke-linecap="butt" transform="matrix(0.748614, 0, 0, 0.748614, 369.835603, 230.229011)" fill="none" stroke-linejoin="miter" d="M 0.00044691 0.001947 L 294.310094 0.001947 L 294.310094 183.074726 L 0.00044691 183.074726 Z M 0.00044691 0.001947 " stroke="#000000" stroke-width="36" stroke-opacity="1" stroke-miterlimit="4"/></g><path stroke-linecap="butt" transform="matrix(0.648318, 0.374307, -0.374307, 0.648318, 378.101879, 232.600363)" fill="none" stroke-linejoin="miter" d="M 0.000363033 8.997269 L 321.59799 9.001464 " stroke="#000000" stroke-width="18" stroke-opacity="1" stroke-miterlimit="4"/><path stroke-linecap="butt" transform="matrix(0.648318, -0.374307, 0.374307, 0.648318, 371.364356, 352.9751)" fill="none" stroke-linejoin="miter" d="M 0.00237103 8.999253 L 321.597389 8.999577 " stroke="#000000" stroke-width="18" stroke-opacity="1" stroke-miterlimit="4"/><g clip-path="url(#8b4ab5dfe1)"><g clip-path="url(#45757e72b7)"><path stroke-linecap="butt" transform="matrix(0.748614, 0, 0, 0.748614, 453.978529, 171.717603)" fill="none" stroke-linejoin="miter" d="M 34.759547 0.00153191 C 15.562603 0.00153191 0.00259119 15.561544 0.00259119 34.758487 C 0.00259119 53.955431 15.562603 69.515443 34.759547 69.515443 C 53.95649 69.515443 69.516502 53.955431 69.516502 34.758487 C 69.516502 15.561544 53.95649 0.00153191 34.759547 0.00153191 Z M 34.759547 0.00153191 " stroke="#000000" stroke-width="36" stroke-opacity="1" stroke-miterlimit="4"/></g></g></svg>