<svg xmlns="http://www.w3.org/2000/svg" xmlns:xlink="http://www.w3.org/1999/xlink" width="1280" zoomAndPan="magnify" viewBox="0 0 960 540.000001" height="720" preserveAspectRatio="xMidYMid meet" version="1.0"><defs><clipPath id="61bdfcff41"><path d="M 369.835938 242.125 L 589.929688 242.125 L 589.929688 379.121094 L 369.835938 379.121094 Z M 369.835938 242.125 " clip-rule="nonzero"/></clipPath><clipPath id="84bd43b89f"><path d="M 473.757812 159.820312 L 543.378906 159.820312 L 543.378906 239.589844 L 473.757812 239.589844 Z M 473.757812 159.820312 " clip-rule="nonzero"/></clipPath><clipPath id="6471607a65"><path d="M 543.378906 199.703125 L 473.582031 239.589844 L 473.582031 159.820312 Z M 543.378906 199.703125 " clip-rule="nonzero"/></clipPath></defs><path stroke-linecap="butt" transform="matrix(-0.00685221, 0.748582, -0.748582, -0.00685221, 487.485326, 168.134669)" fill="none" stroke-linejoin="miter" d="M 0.00160605 8.997428 L 109.249799 8.999308 " stroke="#000000" stroke-width="18" stroke-opacity="1" stroke-miterlimit="4"/><g clip-path="url(#61bdfcff41)"><path stroke-linecap="butt" transform="matrix(0.748614, 0, 0, 0.748614, 369.835603, 242.126238)" fill="none" stroke-linejoin="miter" d="M 0.00044691 -0.00165375 L 294.310094 -0.00165375 L 294.310094 183.076344 L 0.00044691 183.076344 Z M 0.00044691 -0.00165375 " stroke="#000000" stroke-width="36" stroke-opacity="1" stroke-miterlimit="4"/></g><g clip-path="url(#84bd43b89f)"><g clip-path="url(#6471607a65)"><path stroke-linecap="butt" transform="matrix(0, 0.748614, -0.748614, 0, 543.377612, 159.820803)" fill="none" stroke-linejoin="miter" d="M 53.274907 -0.0017295 L 106.555686 93.233112 L -0.000654911 93.233112 Z M 53.274907 -0.0017295 " stroke="#000000" stroke-width="36" stroke-opacity="1" stroke-miterlimit="4"/></g></g></svg>