<svg xmlns="http://www.w3.org/2000/svg" xmlns:xlink="http://www.w3.org/1999/xlink" width="1280" zoomAndPan="magnify" viewBox="0 0 960 540.000001" height="720" preserveAspectRatio="xMidYMid meet" version="1.0"><defs><clipPath id="36911e9e00"><path d="M 410.894531 239.09375 L 549.105469 239.09375 L 549.105469 377.300781 L 410.894531 377.300781 Z M 410.894531 239.09375 " clip-rule="nonzero"/></clipPath><clipPath id="fe57c3769c"><path d="M 480 239.09375 C 441.835938 239.09375 410.894531 270.03125 410.894531 308.199219 C 410.894531 346.363281 441.835938 377.300781 480 377.300781 C 518.164062 377.300781 549.105469 346.363281 549.105469 308.199219 C 549.105469 270.03125 518.164062 239.09375 480 239.09375 Z M 480 239.09375 " clip-rule="nonzero"/></clipPath><clipPath id="55a5a881c6"><path d="M 0.894531 0.09375 L 139.105469 0.09375 L 139.105469 138.300781 L 0.894531 138.300781 Z M 0.894531 0.09375 " clip-rule="nonzero"/></clipPath><clipPath id="29e47fbf58"><path d="M 70 0.09375 C 31.835938 0.09375 0.894531 31.03125 0.894531 69.199219 C 0.894531 107.363281 31.835938 138.300781 70 138.300781 C 108.164062 138.300781 139.105469 107.363281 139.105469 69.199219 C 139.105469 31.03125 108.164062 0.09375 70 0.09375 Z M 70 0.09375 " clip-rule="nonzero"/></clipPath><clipPath id="aaa0ded9cc"><rect x="0" width="140" y="0" height="139"/></clipPath><clipPath id="fedcbb369d"><path d="M 410.894531 239.09375 L 549.097656 239.09375 L 549.097656 377.292969 L 410.894531 377.292969 Z M 410.894531 239.09375 " clip-rule="nonzero"/></clipPath><clipPath id="86844d2242"><path d="M 479.996094 239.09375 C 441.832031 239.09375 410.894531 270.03125 410.894531 308.195312 C 410.894531 346.355469 441.832031 377.292969 479.996094 377.292969 C 518.160156 377.292969 549.097656 346.355469 549.097656 308.195312 C 549.097656 270.03125 518.160156 239.09375 479.996094 239.09375 Z M 479.996094 239.09375 " clip-rule="nonzero"/></clipPath></defs><g clip-path="url(#36911e9e00)"><g clip-path="url(#fe57c3769c)"><g transform="matrix(1, 0, 0, 1, 410, 239)"><g clip-path="url(#aaa0ded9cc)"><g clip-path="url(#55a5a881c6)"><g clip-path="url(#29e47fbf58)"><path fill="#000000" d="M 0.894531 0.09375 L 139.105469 0.09375 L 139.105469 138.300781 L 0.894531 138.300781 Z M 0.894531 0.09375 " fill-opacity="1" fill-rule="nonzero"/></g></g></g></g></g></g><g clip-path="url(#fedcbb369d)"><g clip-path="url(#86844d2242)"><path stroke-linecap="butt" transform="matrix(0.748614, 0, 0, 0.748614, 410.896089, 239.093651)" fill="none" stroke-linejoin="miter" d="M 92.303961 0.000132454 C 41.32431 0.000132454 -0.0020808 41.326523 -0.0020808 92.306174 C -0.0020808 143.280607 41.32431 184.606997 92.303961 184.606997 C 143.283612 184.606997 184.610002 143.280607 184.610002 92.306174 C 184.610002 41.326523 143.283612 0.000132454 92.303961 0.000132454 Z M 92.303961 0.000132454 " stroke="#000000" stroke-width="36" stroke-opacity="1" stroke-miterlimit="4"/></g></g><path stroke-linecap="butt" transform="matrix(0, 0.748614, -0.748614, 0, 486.736209, 161.701854)" fill="none" stroke-linejoin="miter" d="M 0.00169718 8.998245 L 109.240079 8.998245 " stroke="#000000" stroke-width="18" stroke-opacity="1" stroke-miterlimit="4"/><path stroke-linecap="butt" transform="matrix(0.748614, 0, 0, 0.748614, 439.111517, 212.005767)" fill="none" stroke-linejoin="miter" d="M 0.00235663 8.998528 L 109.235521 8.998528 " stroke="#000000" stroke-width="18" stroke-opacity="1" stroke-miterlimit="4"/><path stroke-linecap="butt" transform="matrix(0.748614, 0.000000000000001074, -0.000000000000001074, 0.748614, 450.332361, 180.01271)" fill="none" stroke-linejoin="miter" d="M -0.000440822 8.99969 L 79.260654 8.99969 " stroke="#000000" stroke-width="18" stroke-opacity="1" stroke-miterlimit="4"/></svg>