<svg version="1.1" xmlns="http://www.w3.org/2000/svg" xmlns:xlink="http://www.w3.org/1999/xlink" width="10.44376" height="9.95409" viewBox="0,0,10.44376,9.95409"><g transform="translate(-234.81476,-174.98238)"><g data-paper-data="{&quot;isPaintingLayer&quot;:true}" fill-rule="nonzero" stroke-linecap="butt" stroke-linejoin="miter" stroke-miterlimit="10" stroke-dasharray="" stroke-dashoffset="0" style="mix-blend-mode: normal"><path d="M240.77415,180.30573c-0.03784,0.03245 -0.14756,-0.15125 -0.14756,-0.15125c0,0 -0.12939,0.14047 -0.16242,0.09517c-0.03302,-0.0453 0.04543,-0.25542 0.04543,-0.25542c0,0 -0.13143,-0.14703 -0.11414,-0.20742c0.01736,-0.06048 0.17552,-0.00669 0.17552,-0.00669c0,0 0.04814,-0.23125 0.09196,-0.22328c0.04377,0.00789 0.06296,0.25128 0.06296,0.25128c0,0 0.16132,0.00404 0.171,0.06937c0.00981,0.06544 -0.13648,0.16208 -0.13648,0.16208c0,0 0.05143,0.23368 0.0137,0.26614z" fill="#ffffff" stroke="none" stroke-width="2.57572"/><path d="M235.0219,182.7481l0.66939,-7.66466l8.98203,2.16846l-0.6694,7.66466z" fill="#ffffff" stroke="#e59513" stroke-width="0"/><path d="M235.14901,182.65488l0.05409,-0.61927l8.8573,2.13836l-0.05408,0.61927z" fill="#b03534" stroke="#e59513" stroke-width="0"/><path d="M235.2268,181.52422l0.05408,-0.61928l8.87497,2.14262l-0.05409,0.61928z" fill="#b03534" stroke="#e59513" stroke-width="0"/><path d="M235.33433,180.35727l0.05409,-0.61927l8.8573,2.13835l-0.05408,0.61927z" fill="#b03534" stroke="#e59513" stroke-width="0"/><path d="M235.53551,178.06721l0.05409,-0.61927l8.73362,2.10849l-0.05408,0.61928z" fill="#b03534" stroke="#e59513" stroke-width="0"/><path d="M235.64534,176.8941l0.05408,-0.61927l8.73363,2.1085l-0.05408,0.61927z" fill="#b03534" stroke="#e59513" stroke-width="0"/><path d="M235.74796,175.73251l0.05408,-0.61926l8.73363,2.1085l-0.05408,0.61927z" fill="#b03534" stroke="#e59513" stroke-width="0"/><path d="M235.43275,179.23712l0.05408,-0.61927l8.73363,2.1085l-0.05409,0.61928z" fill="#b03534" stroke="#e59513" stroke-width="0"/><path d="M240.30228,180.38359l0.32044,-4.17732l4.01739,0.99631l-0.32043,4.17731z" data-paper-data="{&quot;index&quot;:null}" fill="#0d1c55" stroke="none" stroke-width="0"/><path d="M241.32391,180.44137c-0.03784,0.03245 -0.14756,-0.15125 -0.14756,-0.15125c0,0 -0.12939,0.14047 -0.16242,0.09516c-0.03302,-0.0453 0.04543,-0.25542 0.04543,-0.25542c0,0 -0.13142,-0.14702 -0.11413,-0.20741c0.01736,-0.06048 0.17551,-0.0067 0.17551,-0.0067c0,0 0.04814,-0.23125 0.09196,-0.22328c0.04377,0.00789 0.06296,0.25127 0.06296,0.25127c0,0 0.16132,0.00405 0.171,0.06937c0.0098,0.06545 -0.13648,0.16208 -0.13648,0.16208c0,0 0.05143,0.23369 0.0137,0.26615z" fill="#ffffff" stroke="none" stroke-width="2.57572"/><path d="M241.89139,180.55025c-0.03784,0.03245 -0.14756,-0.15125 -0.14756,-0.15125c0,0 -0.12939,0.14047 -0.16242,0.09517c-0.03302,-0.0453 0.04543,-0.25541 0.04543,-0.25541c0,0 -0.13142,-0.14703 -0.11413,-0.20742c0.01736,-0.06048 0.17551,-0.00669 0.17551,-0.00669c0,0 0.04815,-0.23126 0.09197,-0.22329c0.04377,0.00789 0.06296,0.25128 0.06296,0.25128c0,0 0.16132,0.00405 0.171,0.06937c0.0098,0.06545 -0.13648,0.16208 -0.13648,0.16208c0,0 0.05143,0.23368 0.0137,0.26615z" fill="#ffffff" stroke="none" stroke-width="2.57572"/><path d="M242.44115,180.68589c-0.03784,0.03245 -0.14756,-0.15125 -0.14756,-0.15125c0,0 -0.12939,0.14047 -0.16242,0.09516c-0.03302,-0.0453 0.04543,-0.25542 0.04543,-0.25542c0,0 -0.13142,-0.14702 -0.11413,-0.20741c0.01736,-0.06048 0.17551,-0.00669 0.17551,-0.00669c0,0 0.04814,-0.23126 0.09196,-0.22329c0.04377,0.00789 0.06296,0.25127 0.06296,0.25127c0,0 0.16132,0.00405 0.171,0.06938c0.0098,0.06545 -0.13648,0.16208 -0.13648,0.16208c0,0 0.05142,0.23368 0.01369,0.26615z" fill="#ffffff" stroke="none" stroke-width="2.57572"/><path d="M243.00511,180.84838c-0.03784,0.03245 -0.14756,-0.15125 -0.14756,-0.15125c0,0 -0.12939,0.14047 -0.16242,0.09516c-0.03302,-0.0453 0.04543,-0.25541 0.04543,-0.25541c0,0 -0.13142,-0.14702 -0.11413,-0.20741c0.01736,-0.06048 0.17552,-0.0067 0.17552,-0.0067c0,0 0.04814,-0.23125 0.09196,-0.22328c0.04377,0.00789 0.06296,0.25127 0.06296,0.25127c0,0 0.16133,0.00405 0.17101,0.06938c0.0098,0.06545 -0.13648,0.16208 -0.13648,0.16208c0,0 0.05143,0.23368 0.0137,0.26615z" fill="#ffffff" stroke="none" stroke-width="2.57572"/><path d="M243.55488,180.98402c-0.03784,0.03245 -0.14756,-0.15125 -0.14756,-0.15125c0,0 -0.12939,0.14047 -0.16242,0.09516c-0.03302,-0.0453 0.04543,-0.25541 0.04543,-0.25541c0,0 -0.13142,-0.14703 -0.11413,-0.20742c0.01736,-0.06048 0.17552,-0.00669 0.17552,-0.00669c0,0 0.04814,-0.23126 0.09196,-0.22329c0.04377,0.00789 0.06297,0.25128 0.06297,0.25128c0,0 0.16132,0.00404 0.171,0.06937c0.0098,0.06545 -0.13648,0.16209 -0.13648,0.16209c0,0 0.05143,0.23368 0.0137,0.26614z" fill="#ffffff" stroke="none" stroke-width="2.57572"/><path d="M241.11066,179.58633c-0.03784,0.03245 -0.14756,-0.15125 -0.14756,-0.15125c0,0 -0.12939,0.14047 -0.16242,0.09517c-0.03302,-0.0453 0.04543,-0.25542 0.04543,-0.25542c0,0 -0.13143,-0.14702 -0.11414,-0.20741c0.01736,-0.06048 0.17552,-0.0067 0.17552,-0.0067c0,0 0.04814,-0.23125 0.09196,-0.22328c0.04377,0.00789 0.06296,0.25127 0.06296,0.25127c0,0 0.16132,0.00405 0.171,0.06938c0.0098,0.06545 -0.13648,0.16208 -0.13648,0.16208c0,0 0.05142,0.23369 0.01369,0.26615z" fill="#ffffff" stroke="none" stroke-width="2.57572"/><path d="M241.66042,179.72197c-0.03784,0.03245 -0.14756,-0.15125 -0.14756,-0.15125c0,0 -0.12939,0.14047 -0.16242,0.09516c-0.03302,-0.0453 0.04543,-0.25541 0.04543,-0.25541c0,0 -0.13142,-0.14702 -0.11413,-0.20741c0.01736,-0.06048 0.17551,-0.00669 0.17551,-0.00669c0,0 0.04815,-0.23126 0.09197,-0.22329c0.04377,0.00789 0.06296,0.25128 0.06296,0.25128c0,0 0.16132,0.00404 0.171,0.06937c0.0098,0.06545 -0.13648,0.16209 -0.13648,0.16209c0,0 0.05143,0.23368 0.0137,0.26614z" fill="#ffffff" stroke="none" stroke-width="2.57572"/><path d="M242.22791,179.83086c-0.03784,0.03245 -0.14757,-0.15125 -0.14757,-0.15125c0,0 -0.12939,0.14047 -0.16242,0.09517c-0.03302,-0.0453 0.04543,-0.25543 0.04543,-0.25543c0,0 -0.13143,-0.14702 -0.11414,-0.20741c0.01736,-0.06048 0.17552,-0.00669 0.17552,-0.00669c0,0 0.04814,-0.23125 0.09196,-0.22328c0.04377,0.00789 0.06296,0.25128 0.06296,0.25128c0,0 0.16132,0.00404 0.171,0.06937c0.0098,0.06545 -0.13648,0.16208 -0.13648,0.16208c0,0 0.05142,0.23368 0.01369,0.26615z" fill="#ffffff" stroke="none" stroke-width="2.57572"/><path d="M242.77767,179.96649c-0.03784,0.03245 -0.14756,-0.15125 -0.14756,-0.15125c0,0 -0.12939,0.14048 -0.16242,0.09517c-0.03302,-0.0453 0.04543,-0.25541 0.04543,-0.25541c0,0 -0.13142,-0.14703 -0.11413,-0.20742c0.01736,-0.06048 0.17551,-0.00669 0.17551,-0.00669c0,0 0.04814,-0.23126 0.09196,-0.22329c0.04377,0.00789 0.06297,0.25128 0.06297,0.25128c0,0 0.16132,0.00404 0.171,0.06937c0.0098,0.06545 -0.13648,0.16208 -0.13648,0.16208c0,0 0.05143,0.23368 0.0137,0.26615z" fill="#ffffff" stroke="none" stroke-width="2.57572"/><path d="M243.34163,180.12897c-0.03784,0.03245 -0.14756,-0.15125 -0.14756,-0.15125c0,0 -0.12939,0.14048 -0.16242,0.09517c-0.03302,-0.0453 0.04543,-0.25541 0.04543,-0.25541c0,0 -0.13142,-0.14703 -0.11413,-0.20742c0.01736,-0.06048 0.17551,-0.00669 0.17551,-0.00669c0,0 0.04814,-0.23126 0.09196,-0.22329c0.04377,0.00789 0.06296,0.25128 0.06296,0.25128c0,0 0.16133,0.00404 0.17101,0.06937c0.0098,0.06545 -0.13648,0.16209 -0.13648,0.16209c0,0 0.05142,0.23368 0.01369,0.26614z" fill="#ffffff" stroke="none" stroke-width="2.57572"/><path d="M243.89139,180.26462c-0.03784,0.03245 -0.14756,-0.15125 -0.14756,-0.15125c0,0 -0.12939,0.14047 -0.16242,0.09516c-0.03302,-0.0453 0.04543,-0.25542 0.04543,-0.25542c0,0 -0.13143,-0.14702 -0.11414,-0.20741c0.01736,-0.06048 0.17552,-0.0067 0.17552,-0.0067c0,0 0.04814,-0.23125 0.09196,-0.22328c0.04377,0.00789 0.06296,0.25127 0.06296,0.25127c0,0 0.16132,0.00405 0.171,0.06937c0.0098,0.06545 -0.13648,0.16208 -0.13648,0.16208c0,0 0.05142,0.23369 0.01369,0.26615z" fill="#ffffff" stroke="none" stroke-width="2.57572"/><path d="M240.97012,178.74826c-0.03784,0.03245 -0.14756,-0.15125 -0.14756,-0.15125c0,0 -0.12939,0.14047 -0.16242,0.09516c-0.03302,-0.0453 0.04543,-0.25541 0.04543,-0.25541c0,0 -0.13143,-0.14703 -0.11414,-0.20742c0.01736,-0.06048 0.17551,-0.00669 0.17551,-0.00669c0,0 0.04815,-0.23126 0.09197,-0.22329c0.04377,0.00789 0.06296,0.25127 0.06296,0.25127c0,0 0.16132,0.00405 0.171,0.06937c0.0098,0.06545 -0.13648,0.16209 -0.13648,0.16209c0,0 0.05143,0.23368 0.0137,0.26614z" fill="#ffffff" stroke="none" stroke-width="2.57572"/><path d="M241.51989,178.8839c-0.03784,0.03245 -0.14756,-0.15126 -0.14756,-0.15126c0,0 -0.12939,0.14048 -0.16242,0.09517c-0.03302,-0.0453 0.04543,-0.25542 0.04543,-0.25542c0,0 -0.13143,-0.14703 -0.11414,-0.20742c0.01736,-0.06048 0.17552,-0.00669 0.17552,-0.00669c0,0 0.04814,-0.23125 0.09196,-0.22328c0.04377,0.00789 0.06297,0.25127 0.06297,0.25127c0,0 0.16132,0.00405 0.171,0.06937c0.0098,0.06545 -0.13648,0.16208 -0.13648,0.16208c0,0 0.05143,0.23368 0.0137,0.26615z" fill="#ffffff" stroke="none" stroke-width="2.57572"/><path d="M242.08737,178.99278c-0.03784,0.03245 -0.14756,-0.15125 -0.14756,-0.15125c0,0 -0.12939,0.14048 -0.16242,0.09517c-0.03302,-0.0453 0.04543,-0.25542 0.04543,-0.25542c0,0 -0.13142,-0.14703 -0.11413,-0.20742c0.01736,-0.06048 0.17552,-0.00669 0.17552,-0.00669c0,0 0.04814,-0.23126 0.09196,-0.22329c0.04377,0.00789 0.06296,0.25128 0.06296,0.25128c0,0 0.16132,0.00404 0.171,0.06937c0.0098,0.06545 -0.13648,0.16209 -0.13648,0.16209c0,0 0.05143,0.23368 0.0137,0.26614z" fill="#ffffff" stroke="none" stroke-width="2.57572"/><path d="M242.63713,179.12842c-0.03784,0.03245 -0.14756,-0.15125 -0.14756,-0.15125c0,0 -0.12938,0.14047 -0.16241,0.09517c-0.03302,-0.0453 0.04542,-0.25542 0.04542,-0.25542c0,0 -0.13142,-0.14702 -0.11413,-0.20741c0.01736,-0.06048 0.17551,-0.0067 0.17551,-0.0067c0,0 0.04814,-0.23125 0.09196,-0.22328c0.04377,0.00789 0.06297,0.25127 0.06297,0.25127c0,0 0.16132,0.00405 0.171,0.06938c0.0098,0.06545 -0.13648,0.16208 -0.13648,0.16208c0,0 0.05142,0.23369 0.01369,0.26615z" fill="#ffffff" stroke="none" stroke-width="2.57572"/><path d="M243.20109,179.2909c-0.03784,0.03245 -0.14757,-0.15125 -0.14757,-0.15125c0,0 -0.12939,0.14048 -0.16242,0.09517c-0.03302,-0.0453 0.04543,-0.25542 0.04543,-0.25542c0,0 -0.13143,-0.14702 -0.11414,-0.20741c0.01736,-0.06048 0.17552,-0.0067 0.17552,-0.0067c0,0 0.04814,-0.23126 0.09196,-0.22329c0.04377,0.00789 0.06296,0.25128 0.06296,0.25128c0,0 0.16132,0.00405 0.171,0.06937c0.0098,0.06545 -0.13648,0.16208 -0.13648,0.16208c0,0 0.05142,0.23368 0.01369,0.26615z" fill="#ffffff" stroke="none" stroke-width="2.57572"/><path d="M243.75085,179.42654c-0.03784,0.03245 -0.14756,-0.15125 -0.14756,-0.15125c0,0 -0.12939,0.14047 -0.16242,0.09516c-0.03302,-0.0453 0.04543,-0.25541 0.04543,-0.25541c0,0 -0.13142,-0.14702 -0.11413,-0.20741c0.01736,-0.06048 0.17551,-0.0067 0.17551,-0.0067c0,0 0.04815,-0.23125 0.09197,-0.22328c0.04377,0.00789 0.06296,0.25127 0.06296,0.25127c0,0 0.16132,0.00405 0.171,0.06937c0.0098,0.06545 -0.13648,0.16209 -0.13648,0.16209c0,0 0.05143,0.23368 0.0137,0.26614z" fill="#ffffff" stroke="none" stroke-width="2.57572"/><path d="M241.24992,178.07225c-0.03784,0.03245 -0.14756,-0.15125 -0.14756,-0.15125c0,0 -0.12939,0.14047 -0.16242,0.09517c-0.03302,-0.0453 0.04543,-0.25542 0.04543,-0.25542c0,0 -0.13143,-0.14703 -0.11414,-0.20742c0.01736,-0.06048 0.17551,-0.00669 0.17551,-0.00669c0,0 0.04815,-0.23125 0.09197,-0.22328c0.04377,0.00789 0.06296,0.25128 0.06296,0.25128c0,0 0.16132,0.00404 0.171,0.06936c0.0098,0.06545 -0.13648,0.16209 -0.13648,0.16209c0,0 0.05143,0.23368 0.0137,0.26614z" fill="#ffffff" stroke="none" stroke-width="2.57572"/><path d="M241.79968,178.20789c-0.03784,0.03245 -0.14756,-0.15125 -0.14756,-0.15125c0,0 -0.12939,0.14047 -0.16242,0.09516c-0.03302,-0.0453 0.04543,-0.25541 0.04543,-0.25541c0,0 -0.13142,-0.14702 -0.11413,-0.20741c0.01736,-0.06048 0.17551,-0.0067 0.17551,-0.0067c0,0 0.04814,-0.23125 0.09196,-0.22328c0.04377,0.00789 0.06296,0.25127 0.06296,0.25127c0,0 0.16132,0.00405 0.171,0.06937c0.0098,0.06545 -0.13648,0.16208 -0.13648,0.16208c0,0 0.05142,0.23368 0.01369,0.26615z" fill="#ffffff" stroke="none" stroke-width="2.57572"/><path d="M242.36716,178.31678c-0.03784,0.03245 -0.14756,-0.15125 -0.14756,-0.15125c0,0 -0.12939,0.14047 -0.16242,0.09517c-0.03302,-0.0453 0.04543,-0.25541 0.04543,-0.25541c0,0 -0.13142,-0.14703 -0.11413,-0.20742c0.01736,-0.06048 0.17551,-0.00669 0.17551,-0.00669c0,0 0.04815,-0.23126 0.09197,-0.22329c0.04377,0.00789 0.06296,0.25128 0.06296,0.25128c0,0 0.16132,0.00405 0.171,0.06937c0.0098,0.06545 -0.13648,0.16208 -0.13648,0.16208c0,0 0.05143,0.23368 0.0137,0.26615z" fill="#ffffff" stroke="none" stroke-width="2.57572"/><path d="M242.91693,178.45242c-0.03784,0.03245 -0.14757,-0.15126 -0.14757,-0.15126c0,0 -0.12939,0.14047 -0.16242,0.09517c-0.03302,-0.0453 0.04543,-0.25542 0.04543,-0.25542c0,0 -0.13143,-0.14702 -0.11414,-0.20741c0.01736,-0.06048 0.17552,-0.00669 0.17552,-0.00669c0,0 0.04814,-0.23125 0.09196,-0.22328c0.04377,0.00789 0.06296,0.25127 0.06296,0.25127c0,0 0.16132,0.00405 0.171,0.06938c0.0098,0.06545 -0.13648,0.16208 -0.13648,0.16208c0,0 0.05142,0.23368 0.01369,0.26615z" fill="#ffffff" stroke="none" stroke-width="2.57572"/><path d="M243.48089,178.61489c-0.03784,0.03245 -0.14756,-0.15124 -0.14756,-0.15124c0,0 -0.12939,0.14047 -0.16242,0.09516c-0.03302,-0.0453 0.04543,-0.25542 0.04543,-0.25542c0,0 -0.13142,-0.14702 -0.11413,-0.20741c0.01736,-0.06048 0.17552,-0.00669 0.17552,-0.00669c0,0 0.04814,-0.23125 0.09196,-0.22328c0.04377,0.00789 0.06296,0.25127 0.06296,0.25127c0,0 0.16132,0.00405 0.171,0.06937c0.0098,0.06545 -0.13648,0.16208 -0.13648,0.16208c0,0 0.05142,0.23368 0.01369,0.26615z" fill="#ffffff" stroke="none" stroke-width="2.57572"/><path d="M244.03065,178.75053c-0.03784,0.03245 -0.14756,-0.15125 -0.14756,-0.15125c0,0 -0.12939,0.14047 -0.16242,0.09517c-0.03302,-0.0453 0.04543,-0.25541 0.04543,-0.25541c0,0 -0.13142,-0.14703 -0.11413,-0.20742c0.01736,-0.06048 0.17551,-0.00669 0.17551,-0.00669c0,0 0.04814,-0.23126 0.09196,-0.22329c0.04377,0.00789 0.06297,0.25128 0.06297,0.25128c0,0 0.16132,0.00404 0.171,0.06937c0.0098,0.06545 -0.13648,0.16209 -0.13648,0.16209c0,0 0.05143,0.23368 0.0137,0.26614z" fill="#ffffff" stroke="none" stroke-width="2.57572"/><path d="M241.08281,177.27431c-0.03784,0.03245 -0.14756,-0.15125 -0.14756,-0.15125c0,0 -0.12939,0.14047 -0.16242,0.09517c-0.03302,-0.0453 0.04543,-0.25541 0.04543,-0.25541c0,0 -0.13142,-0.14702 -0.11413,-0.20741c0.01736,-0.06048 0.17552,-0.00669 0.17552,-0.00669c0,0 0.04814,-0.23126 0.09196,-0.22329c0.04377,0.00789 0.06296,0.25128 0.06296,0.25128c0,0 0.16132,0.00404 0.171,0.06937c0.0098,0.06545 -0.13648,0.16209 -0.13648,0.16209c0,0 0.05143,0.23368 0.0137,0.26614z" fill="#ffffff" stroke="none" stroke-width="2.57572"/><path d="M241.63257,177.40995c-0.03784,0.03245 -0.14756,-0.15125 -0.14756,-0.15125c0,0 -0.12939,0.14047 -0.16242,0.09517c-0.03302,-0.0453 0.04543,-0.25542 0.04543,-0.25542c0,0 -0.13142,-0.14702 -0.11413,-0.20741c0.01736,-0.06048 0.17552,-0.0067 0.17552,-0.0067c0,0 0.04814,-0.23125 0.09196,-0.22328c0.04377,0.00789 0.06296,0.25128 0.06296,0.25128c0,0 0.16133,0.00404 0.17101,0.06937c0.0098,0.06545 -0.13648,0.16208 -0.13648,0.16208c0,0 0.05143,0.23368 0.0137,0.26615z" fill="#ffffff" stroke="none" stroke-width="2.57572"/><path d="M242.20005,177.51883c-0.03784,0.03245 -0.14756,-0.15125 -0.14756,-0.15125c0,0 -0.12939,0.14048 -0.16242,0.09517c-0.03302,-0.0453 0.04543,-0.25542 0.04543,-0.25542c0,0 -0.13143,-0.14702 -0.11414,-0.20741c0.01736,-0.06048 0.17551,-0.0067 0.17551,-0.0067c0,0 0.04815,-0.23125 0.09197,-0.22328c0.04377,0.00789 0.06296,0.25128 0.06296,0.25128c0,0 0.16133,0.00404 0.17101,0.06937c0.0098,0.06545 -0.13648,0.16208 -0.13648,0.16208c0,0 0.05143,0.23368 0.0137,0.26615z" fill="#ffffff" stroke="none" stroke-width="2.57572"/><path d="M242.74981,177.65447c-0.03784,0.03245 -0.14756,-0.15125 -0.14756,-0.15125c0,0 -0.12939,0.14047 -0.16242,0.09517c-0.03302,-0.0453 0.04543,-0.25542 0.04543,-0.25542c0,0 -0.13143,-0.14703 -0.11414,-0.20742c0.01736,-0.06048 0.17552,-0.00669 0.17552,-0.00669c0,0 0.04814,-0.23125 0.09196,-0.22328c0.04377,0.00789 0.06296,0.25127 0.06296,0.25127c0,0 0.16132,0.00405 0.171,0.06937c0.0098,0.06545 -0.13648,0.16208 -0.13648,0.16208c0,0 0.05142,0.23369 0.01369,0.26615z" fill="#ffffff" stroke="none" stroke-width="2.57572"/><path d="M243.31377,177.81695c-0.03784,0.03245 -0.14756,-0.15125 -0.14756,-0.15125c0,0 -0.12939,0.14047 -0.16242,0.09517c-0.03302,-0.0453 0.04543,-0.25542 0.04543,-0.25542c0,0 -0.13142,-0.14702 -0.11413,-0.20741c0.01736,-0.06048 0.17552,-0.0067 0.17552,-0.0067c0,0 0.04814,-0.23125 0.09196,-0.22328c0.04377,0.00789 0.06297,0.25128 0.06297,0.25128c0,0 0.16132,0.00405 0.171,0.06937c0.0098,0.06545 -0.13648,0.16208 -0.13648,0.16208c0,0 0.05143,0.23369 0.0137,0.26615z" fill="#ffffff" stroke="none" stroke-width="2.57572"/><path d="M243.86354,177.95259c-0.03784,0.03245 -0.14756,-0.15125 -0.14756,-0.15125c0,0 -0.12939,0.14047 -0.16242,0.09516c-0.03302,-0.0453 0.04543,-0.25541 0.04543,-0.25541c0,0 -0.13142,-0.14702 -0.11413,-0.20741c0.01736,-0.06048 0.17552,-0.00669 0.17552,-0.00669c0,0 0.04814,-0.23126 0.09196,-0.22329c0.04377,0.00789 0.06297,0.25127 0.06297,0.25127c0,0 0.16132,0.00405 0.171,0.06938c0.0098,0.06545 -0.13648,0.16208 -0.13648,0.16208c0,0 0.05143,0.23368 0.0137,0.26614z" fill="#ffffff" stroke="none" stroke-width="2.57572"/><path d="M244.09931,181.10958c-0.03784,0.03245 -0.14756,-0.15125 -0.14756,-0.15125c0,0 -0.12939,0.14048 -0.16242,0.09517c-0.03302,-0.0453 0.04543,-0.25542 0.04543,-0.25542c0,0 -0.13142,-0.14702 -0.11413,-0.20741c0.01736,-0.06048 0.17552,-0.0067 0.17552,-0.0067c0,0 0.04814,-0.23125 0.09196,-0.22328c0.04377,0.00789 0.06296,0.25128 0.06296,0.25128c0,0 0.16132,0.00404 0.171,0.06937c0.0098,0.06545 -0.13648,0.16208 -0.13648,0.16208c0,0 0.05143,0.23368 0.0137,0.26615z" fill="#ffffff" stroke="none" stroke-width="2.57572"/><path d="M244.29529,179.55211c-0.03784,0.03245 -0.14756,-0.15125 -0.14756,-0.15125c0,0 -0.12939,0.14047 -0.16242,0.09517c-0.03302,-0.0453 0.04543,-0.25542 0.04543,-0.25542c0,0 -0.13143,-0.14703 -0.11414,-0.20742c0.01736,-0.06048 0.17552,-0.00669 0.17552,-0.00669c0,0 0.04814,-0.23125 0.09196,-0.22328c0.04377,0.00789 0.06296,0.25127 0.06296,0.25127c0,0 0.16132,0.00404 0.171,0.06937c0.0098,0.06545 -0.13648,0.16209 -0.13648,0.16209c0,0 0.05142,0.23368 0.01369,0.26614z" fill="#ffffff" stroke="none" stroke-width="2.57572"/><path d="M244.40797,178.07816c-0.03784,0.03245 -0.14756,-0.15125 -0.14756,-0.15125c0,0 -0.12939,0.14048 -0.16242,0.09517c-0.03302,-0.0453 0.04543,-0.25541 0.04543,-0.25541c0,0 -0.13142,-0.14703 -0.11413,-0.20742c0.01736,-0.06048 0.17552,-0.00669 0.17552,-0.00669c0,0 0.04814,-0.23126 0.09196,-0.22329c0.04377,0.00789 0.06296,0.25128 0.06296,0.25128c0,0 0.16132,0.00404 0.171,0.06937c0.0098,0.06545 -0.13648,0.16209 -0.13648,0.16209c0,0 0.05143,0.23368 0.0137,0.26614z" fill="#ffffff" stroke="none" stroke-width="2.57572"/><path d="M240.79367,180.33711c-0.03784,0.03245 -0.14756,-0.15125 -0.14756,-0.15125c0,0 -0.12939,0.14047 -0.16242,0.09517c-0.03302,-0.0453 0.04543,-0.25541 0.04543,-0.25541c0,0 -0.13142,-0.14703 -0.11413,-0.20742c0.01737,-0.06048 0.17552,-0.00669 0.17552,-0.00669c0,0 0.04814,-0.23126 0.09196,-0.22329c0.04377,0.00789 0.06296,0.25128 0.06296,0.25128c0,0 0.16132,0.00404 0.171,0.06937c0.00981,0.06544 -0.13648,0.16209 -0.13648,0.16209c0,0 0.05142,0.23368 0.0137,0.26614z" fill="#ffffff" stroke="none" stroke-width="2.57572"/><path d="M235.0881,182.7499l0.82592,-7.46901l9.06408,1.80777l-1.0607,7.54727z" fill="none" stroke="#e59513" stroke-width="0.5"/></g></g></svg>