<svg version="1.1" xmlns="http://www.w3.org/2000/svg" xmlns:xlink="http://www.w3.org/1999/xlink" width="7.40741" height="7.1605" viewBox="0,0,7.40741,7.1605"><g transform="translate(-247.53939,-186.355)"><g data-paper-data="{&quot;isPaintingLayer&quot;:true}" fill-rule="nonzero" stroke="none" stroke-width="0" stroke-linecap="butt" stroke-linejoin="miter" stroke-miterlimit="10" stroke-dasharray="" stroke-dashoffset="0" style="mix-blend-mode: normal"><g><path d="M247.53939,193.5155v-7.1605h7.40741v7.1605z" fill="#0d1c55"/><path d="M252.64966,191.31963c0,0.75001 -0.64946,1.35802 -1.45061,1.35802c-0.80115,0 -1.45062,-0.60801 -1.45062,-1.35802c0,-0.75001 0.64946,-1.35802 1.45062,-1.35802c0.80116,0 1.45061,0.60801 1.45061,1.35802z" fill="#e8e8e8"/><path d="M252.66285,188.56404c0,0.75001 -0.64946,1.35802 -1.45062,1.35802c-0.80115,0 -1.45062,-0.60801 -1.45062,-1.35802c0,-0.75001 0.64946,-1.35802 1.45062,-1.35802c0.80115,0 1.45062,0.60801 1.45062,1.35802z" fill="#e8e8e8"/></g></g></g></svg>