<svg version="1.1" xmlns="http://www.w3.org/2000/svg" xmlns:xlink="http://www.w3.org/1999/xlink" width="7.40741" height="7.1605" viewBox="0,0,7.40741,7.1605"><g transform="translate(-236.05791,-186.16979)"><g data-paper-data="{&quot;isPaintingLayer&quot;:true}" fill-rule="nonzero" stroke="none" stroke-width="0" stroke-linecap="butt" stroke-linejoin="miter" stroke-miterlimit="10" stroke-dasharray="" stroke-dashoffset="0" style="mix-blend-mode: normal"><g><path d="M236.05791,193.33029v-7.1605h7.40741v7.1605z" fill="#0d1c55"/><path d="M241.12427,189.6922c0,0.65686 -0.56879,1.18935 -1.27044,1.18935c-0.70165,0 -1.27044,-0.53249 -1.27044,-1.18935c0,-0.65686 0.5688,-1.18935 1.27044,-1.18935c0.70165,0 1.27044,0.53249 1.27044,1.18935z" fill="#e8e8e8"/><path d="M241.13581,187.47302c0,0.65686 -0.56879,1.18935 -1.27044,1.18935c-0.70165,0 -1.27044,-0.53249 -1.27044,-1.18935c0,-0.65686 0.5688,-1.18935 1.27044,-1.18935c0.70165,0 1.27044,0.53249 1.27044,1.18935z" fill="#e8e8e8"/><path d="M241.12623,191.92519c0,0.65686 -0.56879,1.18935 -1.27044,1.18935c-0.70165,0 -1.27044,-0.53249 -1.27044,-1.18935c0,-0.65686 0.5688,-1.18935 1.27044,-1.18935c0.70165,0 1.27044,0.53249 1.27044,1.18935z" fill="#e8e8e8"/></g></g></g></svg>