<svg version="1.1" xmlns="http://www.w3.org/2000/svg" xmlns:xlink="http://www.w3.org/1999/xlink" width="87.01652" height="295.09219" viewBox="0,0,87.01652,295.09219"><defs><radialGradient cx="233.79754" cy="50.38608" r="1.08553" gradientUnits="userSpaceOnUse" id="color-1"><stop offset="0" stop-color="#000000"/><stop offset="1" stop-color="#545454"/></radialGradient><radialGradient cx="246.40748" cy="50.41537" r="1.08553" gradientUnits="userSpaceOnUse" id="color-2"><stop offset="0" stop-color="#000000"/><stop offset="1" stop-color="#545454"/></radialGradient></defs><g transform="translate(-196.46506,-32.4539)"><g data-paper-data="{&quot;isPaintingLayer&quot;:true}" fill-rule="nonzero" stroke-linejoin="miter" stroke-miterlimit="10" stroke-dasharray="" stroke-dashoffset="0" style="mix-blend-mode: normal"><g><g><path d="M229.34906,82.36303l0.15828,-19.54676h20.97123l0.15827,19.54677c0,0 -6.74713,19.2855 -10.3264,19.2855c-3.51551,0 -10.96139,-19.28551 -10.96139,-19.28551z" fill="#cd9d6e" stroke="#c19467" stroke-width="0.5" stroke-linecap="butt"/><g><g><path d="M197.01609,197.79696v-8.52063c0,0 -0.21954,-8.61593 -0.01285,-22.70652c0.06173,-4.20834 0.83311,-20.43181 0.91795,-23.58566c0.03223,-1.19828 -0.15211,-3.27257 -0.11678,-4.47564c0.09207,-3.13564 0.02299,-5.70595 0.13777,-8.81173c0.12147,-3.2868 0.18929,-7.3959 0.33906,-10.54543c0.18066,-3.79922 0.62191,-7.16839 0.8485,-10.59646c0.50882,-7.69778 1.41775,-14.22355 2.20062,-18.51623c1.19548,-6.55512 3.83021,6.67366 5.86143,16.15697c1.0092,4.71173 1.80084,8.49888 2.05626,8.4756c0.32966,-0.03005 1.74457,4.83192 1.5858,10.0264c-0.08573,2.80482 -0.72306,6.30126 -0.98912,10.05332c-0.12847,1.81178 -0.61409,3.76622 -0.94733,5.75539c-0.13561,0.80948 -0.24598,1.62472 -0.29678,2.43843c-0.20499,3.28355 0.15921,7.14625 -0.06731,10.53563c-1.02513,15.33836 -2.16532,30.56925 -2.46583,34.91232c-0.0553,0.79911 0.41211,0.88362 0.41211,0.88362v8.52063c0,0 -2.12701,5.06349 -3.31746,5.06349c-1.74602,0 -6.14603,-5.06349 -6.14603,-5.06349z" fill="#cd9d6e" stroke="none" stroke-width="0" stroke-linecap="butt"/><path d="M198.32977,199.88919c-0.33348,-0.04379 -0.71548,-0.16952 -0.97789,-0.48662c-0.79924,-0.96583 -0.66397,-3.05033 -0.54991,-3.58689c0.14462,-0.6803 0.42064,-3.73505 0.43703,-6.33096c0.00201,-0.31868 -0.41808,-0.44407 -0.47033,-1.38644c0.01805,-0.52177 0.21173,-0.81138 0.23679,-1.4337c0.13215,-3.28175 -0.05824,-8.32914 0.16607,-13.10912c0.1292,-2.75321 -0.06008,-10.74016 0.42735,-20.60575c0.16553,-3.35029 0.35269,-6.93416 0.55307,-10.63441c0.07167,-1.32353 -0.37787,-1.97785 -0.40089,-3.33094c-0.0715,-4.2024 0.00849,-9.20104 0.25407,-13.41066c0.18379,-3.15036 0.05192,-6.14618 0.27833,-9.14978c1.19821,-15.89593 3.84459,-28.68214 3.84459,-28.68214" fill="#cd9d6e" stroke="#c19467" stroke-width="0.5" stroke-linecap="round"/><path d="M201.0496,202.35297c-0.3598,0.09758 -0.98284,0.18696 -1.45117,-0.169c-0.99002,-0.75247 -1.31509,-2.81434 -1.32159,-3.36372c-0.00792,-0.66922 0.01378,-1.53823 0.03474,-2.18096" fill="#cd9d6e" stroke="#c19467" stroke-width="0.5" stroke-linecap="round"/><path d="M204.13954,204.05928c0,0 -0.98551,0.57982 -1.73782,0.13469c-1.06619,-0.63087 -1.61549,-2.64102 -1.68225,-3.18607c-0.14697,-1.19977 -0.26948,-3.05911 -0.26948,-3.05911" fill="#cd9d6e" stroke="#c19467" stroke-width="0.5" stroke-linecap="round"/><path d="M206.15434,197.21679c0,0 0.08948,0.63443 0.07395,1.52163c-0.00848,0.48437 -0.21804,1.06606 -0.09787,1.61012c0.15175,0.68705 0.25715,1.48582 0.49256,2.13066c0.08873,0.24307 0.72203,-0.61899 0.80831,-0.39711c0.26912,0.69205 0.68847,1.34923 0.68968,1.96545c0.00062,0.31648 -1.51058,1.74272 -2.10031,1.58055c-1.18667,-0.32632 -2.2151,-2.12321 -2.41454,-2.63227c-0.439,-1.12056 -0.83781,-3.98907 -0.83781,-3.98907" fill="#cd9d6e" stroke="#c19467" stroke-width="0.5" stroke-linecap="round"/><path d="M209.97756,115.53688c0,0 1.03224,7.45788 0.49494,13.88636c-0.36935,4.41907 -1.08986,8.08762 -1.54527,10.86135c-0.4563,2.77916 -0.72782,4.66001 -0.76539,5.49741c-0.1476,3.29016 0.06959,6.13857 -0.10271,9.46302c-0.51355,9.90876 -1.5489,19.21391 -1.87346,25.69405c-0.24482,4.888 -0.2306,7.97306 -0.21355,8.00674c0.404,0.79863 1.85843,3.28273 2.23142,5.0401c0.18396,0.86672 0.46759,2.40933 0.5978,3.75117c0.10037,1.03431 0.39828,2.26966 0.46787,3.55037c0.06997,1.28766 0.11909,2.66521 0.15644,3.64326c0.01251,0.32758 -0.77533,0.85451 -1.54968,-0.00358c-0.44776,-0.49618 -0.76186,-1.97281 -1.02339,-2.63445c-0.39954,-1.01083 -0.10125,-2.69288 -0.45745,-3.52269c-0.41093,-0.95732 -0.65349,-1.63439 -0.65349,-1.63439" fill="#cd9d6e" stroke="#c19467" stroke-width="0.5" stroke-linecap="round"/><path d="M202.56847,190.35886l0.24444,4.43492" fill="none" stroke="#c39669" stroke-width="0.5" stroke-linecap="round"/><path d="M200.19386,195.31759l0.27937,-6.07619" fill="none" stroke="#c39669" stroke-width="0.5" stroke-linecap="round"/><path d="M198.4941,191.56608l0.18682,-1.78587" fill="none" stroke="#c39669" stroke-width="0.5" stroke-linecap="round"/></g><path d="M201.76338,142.98529l3.83855,1.03125" fill="none" stroke="#c39669" stroke-width="0.5" stroke-linecap="round"/><path d="M206.57588,112.3603l2.8073,3.09375" fill="none" stroke="#c39669" stroke-width="0.5" stroke-linecap="round"/></g><g data-paper-data="{&quot;index&quot;:null}"><g><path d="M282.9839,197.99696c0,0 -4.40001,5.06349 -6.14603,5.06349c-1.19045,0 -3.31746,-5.06349 -3.31746,-5.06349l0.16129,-7.31096c0,0 0.62869,-1.29419 0.5734,-2.0933c-0.30051,-4.34306 -1.76329,-19.57396 -2.78841,-34.91231c-0.22652,-3.38938 0.13768,-7.25208 -0.06731,-10.53563c-0.0508,-0.81372 -0.16117,-1.62895 -0.29678,-2.43843c-0.33324,-1.98917 -0.81885,-3.94361 -0.94733,-5.75539c-0.26606,-3.75206 -0.90339,-7.24851 -0.98912,-10.05333c-0.15877,-5.19448 1.25615,-10.05644 1.5858,-10.0264c0.7695,0.07013 6.40602,-34.44456 8.19547,-24.63257c0.78287,4.29268 1.41403,10.81846 1.92284,18.51623c0.22659,3.42807 0.66784,6.79724 0.8485,10.59646c0.14977,3.14953 0.2176,7.25863 0.33906,10.54543c0.11478,3.10578 0.0457,5.6761 0.13777,8.81173c0.03533,1.20307 -0.14902,3.27736 -0.11678,4.47565c0.08484,3.15385 0.85622,19.37732 0.91795,23.58566c0.20669,14.09059 -0.01285,22.70652 -0.01285,22.70652v8.52063z" fill="#cd9d6e" stroke="none" stroke-width="0" stroke-linecap="butt"/><path d="M278.10452,87.47665c0,0 2.41381,13.25134 3.61203,29.14727c0.2264,3.0036 0.09454,5.99943 0.27833,9.14978c0.24559,4.20961 0.32557,9.20825 0.25407,13.41066c-0.02302,1.35309 -0.47257,2.00741 -0.40089,3.33094c0.20038,3.70026 0.38754,7.28413 0.55307,10.63442c0.48742,9.86559 0.29816,17.85253 0.42735,20.60574c0.22431,4.77998 0.03391,9.82738 0.16607,13.10912c0.02506,0.62232 0.21874,0.91193 0.23679,1.4337c-0.05226,0.94236 -0.47235,1.06776 -0.47034,1.38644c0.01639,2.59591 0.29241,5.65066 0.43703,6.33096c0.11406,0.53656 0.24933,2.62106 -0.54991,3.58689c-0.26241,0.3171 -0.64441,0.44283 -0.97789,0.48662" fill="#cd9d6e" stroke="#c19467" stroke-width="0.5" stroke-linecap="round"/><path d="M281.68842,196.83929c0.02096,0.64273 0.04266,1.51174 0.03474,2.18096c-0.0065,0.54938 -0.33157,2.61125 -1.32159,3.36372c-0.46833,0.35596 -1.09137,0.26658 -1.45117,0.169" fill="#cd9d6e" stroke="#c19467" stroke-width="0.5" stroke-linecap="round"/><path d="M279.55001,198.14879c0,0 -0.12251,1.85934 -0.26948,3.05911c-0.06676,0.54505 -0.61606,2.5552 -1.68225,3.18607c-0.75231,0.44513 -1.73782,-0.13469 -1.73782,-0.13469" fill="#cd9d6e" stroke="#c19467" stroke-width="0.5" stroke-linecap="round"/><path d="M277.23168,199.20675c0,0 -0.39881,2.86851 -0.83781,3.98907c-0.19944,0.50906 -1.22787,2.30595 -2.41454,2.63227c-0.58973,0.16217 -2.10093,-1.26407 -2.10031,-1.58055c0.00121,-0.61622 0.42056,-1.2734 0.68968,-1.96545c0.08628,-0.22188 0.71958,0.64018 0.80831,0.39711c0.23541,-0.64484 0.34081,-1.44361 0.49256,-2.13066c0.12017,-0.54406 -0.08939,-1.12575 -0.09787,-1.61012c-0.01553,-0.8872 0.07395,-1.52163 0.07395,-1.52163" fill="#cd9d6e" stroke="#c19467" stroke-width="0.5" stroke-linecap="round"/><path d="M274.25834,197.33561c0,0 -0.24256,0.67707 -0.65349,1.63439c-0.3562,0.82981 -0.05791,2.51186 -0.45745,3.52269c-0.26153,0.66164 -0.57563,2.13827 -1.02339,2.63445c-0.77435,0.85809 -1.56219,0.33116 -1.54968,0.00358c0.03735,-0.97805 0.08647,-2.3556 0.15644,-3.64326c0.06959,-1.28071 0.3675,-2.51606 0.46787,-3.55037c0.13021,-1.34184 0.41384,-2.88445 0.5978,-3.75117c0.373,-1.75737 1.98871,-4.24147 2.39271,-5.0401c0.01704,-0.03368 -0.04939,-3.11874 -0.29419,-8.00674c-0.32456,-6.48014 -1.44054,-15.78529 -1.9541,-25.69406c-0.1723,-3.32446 -0.19704,-6.17287 -0.34464,-9.46302c-0.03756,-0.8374 -0.06715,-2.71825 -0.52345,-5.49741c-0.45541,-2.77373 -1.09528,-6.44227 -1.46463,-10.86134c-0.53731,-6.42848 0.4143,-13.88636 0.4143,-13.88636" fill="#cd9d6e" stroke="#c19467" stroke-width="0.5" stroke-linecap="round"/><path d="M277.18708,194.99378l0.24444,-4.43492" fill="none" stroke="#c39669" stroke-width="0.5" stroke-linecap="round"/><path d="M279.52677,189.4414l0.27937,6.07619" fill="none" stroke="#c39669" stroke-width="0.5" stroke-linecap="round"/><path d="M281.5059,191.76608l-0.18682,-1.78587" fill="none" stroke="#c39669" stroke-width="0.5" stroke-linecap="round"/></g><path d="M274.39806,144.21655l3.83855,-1.03126" fill="none" stroke="#c39669" stroke-width="0.5" stroke-linecap="round"/><path d="M273.42411,112.5603l-2.8073,3.09375" fill="none" stroke="#c39669" stroke-width="0.5" stroke-linecap="round"/></g><g><path d="M229.94717,62.23623c0,-3.35053 5.89004,-3.7285 10.2715,-3.7285c4.38146,0 9.95266,-0.04715 9.95266,3.30338c0,3.35053 -5.5712,9.09565 -9.95266,9.09565c-4.38146,0 -10.2715,-5.32 -10.2715,-8.67053z" fill="#ac855d" stroke="#c19467" stroke-width="0.5" stroke-linecap="butt"/><path d="M224.0956,52.38997c0,-0.51852 -1.57678,-6.61865 0.33093,-6.85269c0.73984,-0.09076 1.54283,3.89086 1.60489,3.42569c1.1392,-8.53865 7.13763,-15.05141 14.36633,-15.05141c8.0419,0 7.72535,36.16547 -0.31655,36.16547c-3.93226,0 -8.37096,-4.53872 -10.99096,-7.67088c-1.26802,-1.5159 -2.55093,-4.84292 -2.77509,-5.89598c-0.31225,-1.46686 -2.21956,-2.53211 -2.21956,-4.1202z" fill="#cd9d6e" stroke="#c19467" stroke-width="0.5" stroke-linecap="butt"/><path d="M253.82284,56.52456c-0.22416,1.05306 -1.50707,4.38009 -2.77509,5.89598c-2.62,3.13216 -7.05871,7.67088 -10.99097,7.67088c-8.0419,0 -8.35844,-36.16547 -0.31654,-36.16547c7.22871,0 13.22713,6.51276 14.36633,15.05141c0.06207,0.46518 0.86505,-3.51645 1.60489,-3.42569c1.90771,0.23405 0.33093,6.33417 0.33093,6.85269c0,1.58808 -1.90731,2.65333 -2.21956,4.1202z" data-paper-data="{&quot;index&quot;:null}" fill="#cd9d6e" stroke="#c19467" stroke-width="0.5" stroke-linecap="butt"/><path d="M234.90708,67.69132c0,0 -2.80858,-12.5773 -2.61286,-18.36511c0.16992,-5.02484 3.72077,-14.2276 3.72077,-14.2276c0,0 1.67751,-0.71534 2.47077,-0.81768c1.44564,-0.1865 2.69879,0.23804 2.69879,0.23804c0,0 -3.56578,9.6286 -3.42122,14.65187c0.16835,5.85022 2.28763,20.57803 2.28763,20.57803c0,0 -1.04656,-0.04701 -1.76911,-0.29156c-0.93614,-0.31685 -3.37477,-1.76599 -3.37477,-1.76599z" fill="#cd9d6e" stroke="#c19467" stroke-width="0" stroke-linecap="butt"/><g fill="none" stroke="#c19467" stroke-width="0.5" stroke-linecap="round"><path d="M237.46575,48.95722c0,0 0.9928,0.97182 1.10435,1.97306c0.12613,1.13203 0.18805,3.21735 0.02702,4.05261c-0.15784,0.81872 -1.48804,1.93606 -1.23802,3.33624c0.14392,0.80596 0.7299,1.08933 1.2862,1.16972c0.08433,0.01219 0.70819,0.04315 0.81758,-0.24016c0.10938,-0.28332 -0.11951,-0.52269 -0.46669,-0.66868c-0.10152,-0.04269 -0.41658,-0.13842 -0.63503,-0.00773c-0.08236,0.04928 -0.43573,0.35494 -0.27552,0.45792c0.10435,0.06708 0.32999,0.09016 0.54115,0.0957c0.13621,0.00357 0.41626,-0.00915 0.36899,-0.09184c-0.03664,-0.0641 -0.39146,-0.20263 -0.39146,-0.20263"/><path d="M241.5322,58.78599c0,0 -0.35482,0.13854 -0.39146,0.20264c-0.04727,0.08269 0.23278,0.09541 0.36899,0.09184c0.21116,-0.00554 0.4368,-0.02862 0.54115,-0.0957c0.16021,-0.10298 -0.19316,-0.40864 -0.27553,-0.45793c-0.21845,-0.1307 -0.5335,-0.03496 -0.63502,0.00773c-0.34718,0.14599 -0.57607,0.38536 -0.46668,0.66868c0.10938,0.28331 0.73324,0.25234 0.81757,0.24016c0.55629,-0.08039 1.14227,-0.36376 1.28619,-1.16972c0.25003,-1.40018 -1.08017,-2.51752 -1.23801,-3.33624c-0.16103,-0.83526 -0.0991,-2.92059 0.02703,-4.05262c0.11156,-1.00124 1.10435,-1.97306 1.10435,-1.97306" data-paper-data="{&quot;index&quot;:null}"/></g><path d="M229.06904,48.5115c0,0 3.20463,-1.04545 4.54545,-1.04545c1.32567,0 3.45455,1.04545 3.45455,1.04545" fill="none" stroke="#4d4435" stroke-width="1" stroke-linecap="round"/><g stroke-width="0.5"><path d="M236.92747,50.53081c0,0.71943 -1.41752,1.30263 -3.16612,1.30263c-1.7486,0 -3.16611,-0.5832 -3.16611,-1.30263c0,-0.71943 1.41751,-1.30263 3.16611,-1.30263c1.7486,0 3.16612,0.5832 3.16612,1.30263z" fill="#fbfcfc" stroke="#9f7b57" stroke-linecap="butt"/><path d="M234.86497,50.38608c0,0.55955 -0.4779,1.01315 -1.06743,1.01315c-0.58953,0 -1.06744,-0.4536 -1.06744,-1.01315c0,-0.55955 0.47791,-1.01316 1.06744,-1.01316c0.58953,0 1.06743,0.45361 1.06743,1.01316z" fill="url(#color-1)" stroke="#526b95" stroke-linecap="butt"/><path d="M230.77615,49.98805c0,0 0.77889,-0.26661 1.49872,-0.44559c0.62113,-0.15444 1.15207,-0.22513 1.64878,-0.22223c0.5686,0.00332 1.32843,0.09397 1.95898,0.29164c0.45871,0.14379 0.90011,0.41236 0.90011,0.41236" fill="none" stroke="#322d27" stroke-linecap="round"/><path d="M230.8551,49.81371c0,0 0.63415,-0.5199 1.35398,-0.69888c0.62113,-0.15444 1.15207,-0.22513 1.64878,-0.22223c0.5686,0.00332 1.32843,0.09397 1.95898,0.29164c0.45871,0.14379 0.97248,0.73802 0.97248,0.73802" fill="none" stroke="#322d27" stroke-linecap="round"/></g><path d="M244.55982,63.5031c0,0.18737 -1.1629,0.34773 -2.80987,0.41353c-0.51551,0.0206 -1.14629,0.11292 -1.73584,0.11292c-0.52658,0 -0.96408,-0.09004 -1.43337,-0.10665c-1.7347,-0.06139 -2.97666,-0.22617 -2.97666,-0.41981c0,-0.20038 1.32997,-0.36986 3.15967,-0.42585c0.41674,-0.01275 0.89333,-0.08441 1.35212,-0.08441c0.39615,0 0.74637,0.06991 1.11217,0.07952c1.91781,0.05037 3.33177,0.22413 3.33177,0.43074z" fill="#b68a62" stroke="#c19467" stroke-width="0.5" stroke-linecap="butt"/><path d="M238.37484,66.82612c0,0 1.10744,-0.62838 1.66344,-0.63463c0.5142,-0.00577 1.55696,0.59845 1.55696,0.59845" fill="none" stroke="#c19467" stroke-width="0.5" stroke-linecap="round"/><path d="M243.13598,48.54079c0,0 2.12888,-1.04546 3.45455,-1.04546c1.34082,0 4.54545,1.04546 4.54545,1.04546" data-paper-data="{&quot;index&quot;:null}" fill="none" stroke="#4d4435" stroke-width="1" stroke-linecap="round"/><g data-paper-data="{&quot;index&quot;:null}" stroke-width="0.5"><path d="M246.44367,49.25747c1.7486,0 3.16611,0.5832 3.16611,1.30263c0,0.71943 -1.41751,1.30263 -3.16611,1.30263c-1.7486,0 -3.16612,-0.5832 -3.16612,-1.30263c0,-0.71943 1.41752,-1.30263 3.16612,-1.30263z" fill="#fbfcfc" stroke="#9f7b57" stroke-linecap="butt"/><path d="M246.40748,49.40221c0.58953,0 1.06743,0.45361 1.06743,1.01316c0,0.55955 -0.4779,1.01315 -1.06743,1.01315c-0.58953,0 -1.06743,-0.4536 -1.06743,-1.01315c0,-0.55955 0.4779,-1.01316 1.06743,-1.01316z" fill="url(#color-2)" stroke="#526b95" stroke-linecap="butt"/><path d="M243.42228,50.05352c0,0 0.4414,-0.26857 0.90011,-0.41237c0.63055,-0.19767 1.39038,-0.28832 1.95898,-0.29164c0.49671,-0.0029 1.02765,0.0678 1.64878,0.22223c0.71983,0.17898 1.49871,0.44559 1.49871,0.44559" fill="none" stroke="#322d27" stroke-linecap="round"/><path d="M243.4157,49.95155c0,0 0.51377,-0.59423 0.97248,-0.73802c0.63055,-0.19767 1.39038,-0.28832 1.95898,-0.29164c0.49671,-0.0029 1.02765,0.0678 1.64878,0.22223c0.71983,0.17898 1.35398,0.69888 1.35398,0.69888" fill="none" stroke="#322d27" stroke-linecap="round"/></g><path d="M226.41946,52.20364c0.01219,1.77333 0.19337,3.27327 -0.21046,3.27604c-0.40383,0.00278 -0.74108,-1.43255 -0.75326,-3.20588c-0.00351,-0.51009 -0.21104,-1.17224 -0.16578,-1.60088c0.11208,-1.06153 0.58724,-1.61308 0.87491,-1.61505c0.40383,-0.00278 0.2424,1.37244 0.25459,3.14577z" fill="#ac855d" stroke="#c19467" stroke-width="0.5" stroke-linecap="butt"/><path d="M253.99547,49.18572c0.28767,0.00198 0.76283,0.55353 0.87491,1.61505c0.04525,0.42863 -0.16227,1.09079 -0.16578,1.60088c-0.01218,1.77334 -0.34943,3.20866 -0.75326,3.20588c-0.40383,-0.00278 -0.22264,-1.50271 -0.21046,-3.27604c0.01218,-1.77334 -0.14924,-3.14855 0.25459,-3.14578z" data-paper-data="{&quot;index&quot;:null}" fill="#ac855d" stroke="#c19467" stroke-width="0.5" stroke-linecap="butt"/><path d="M254.94022,42.98531c0,1.91884 0.39692,4.06444 -0.85758,5.63664c-1.66765,2.08997 -0.17123,-3.44158 -3.32258,-6.60854c-2.01264,-2.02261 -8.00906,-2.05523 -10.38319,-2.05523c-2.47927,0 -8.49613,-0.1893 -10.61047,1.90197c-3.1315,3.09734 -2.06438,8.65283 -3.6812,6.57539c-1.20496,-1.54825 -0.93067,-4.33985 -0.93067,-6.21767c0,-0.14488 1.34875,-9.55139 15.1061,-9.51385c14.10378,0.03848 14.67958,10.28129 14.67958,10.28129z" fill="#544b3a" stroke="#63513b" stroke-width="0.5" stroke-linecap="butt"/></g><g><path d="M221.93721,276.95454c-0.3468,-5.92455 -1.15266,-29.08059 -1.34394,-33.52336c-0.07268,-1.688 -0.06868,-5.01063 -0.13637,-6.70558c-0.17645,-4.41767 -1.69213,-7.88933 -1.82493,-12.26661c-0.14055,-4.63241 -2.56211,-51.09867 -3.0391,-58.0215c-0.6617,-9.6037 22.25444,8.04823 23.61561,7.89476c0.22443,-0.02531 -4.22738,4.16889 -3.6566,11.38481c0.91229,11.5333 -1.80505,27.26384 -1.63209,31.76584c0.15183,3.95183 -1.29433,24.26247 -1.2964,25.41078c-0.00837,4.63378 0.08389,11.71265 0.0487,16.49685c-0.15927,21.65049 -0.99261,59.42255 -0.99261,59.42255c0,0 -4.03642,8.25726 -5.31811,7.88349c-3.16781,-0.92381 -0.96977,-5.3788 -0.96977,-5.3788c0,0 -2.2932,-24.52634 -3.45438,-44.36322z" fill="#cd9d6e" stroke="none" stroke-width="0" stroke-linecap="butt"/><path d="M226.6274,327.29004c-0.00268,-0.0387 -4.32152,0.18435 -3.43251,-1.24689c0.96402,-1.55201 1.113,-3.37224 0.57914,-5.0756c-1.09656,-3.49876 -5.02085,-29.40849 -5.09597,-33.64085c-0.0689,-3.88232 -1.27218,-15.10461 -1.47557,-29.0179c-0.06907,-4.72486 0.579,-5.81986 0.53395,-11.03951c-0.01612,-1.867 -1.06275,-5.30746 -1.25051,-7.20929c-0.58315,-5.9067 -2.10564,-23.66169 -2.0288,-33.18318c0.15249,-8.41783 0.53663,-16.27399 0.95722,-22.80593c0.44144,-6.85581 -0.67842,-14.13042 -1.56815,-18.57731c-0.52307,-2.61429 3.76757,-4.94748 3.76757,-4.94748" fill="#cd9d6e" stroke="#c19467" stroke-width="0.5" stroke-linecap="round"/><path d="M235.43535,182.28901c0,0 2.65904,32.91357 2.40079,41.99521c-0.17752,6.24291 -1.34801,11.4665 -1.85715,15.40092c-0.51011,3.94212 -0.77639,5.89395 -0.75237,7.07465c0.09443,4.639 0.93328,9.04255 0.9875,13.73154c0.06128,5.29888 0.41805,7.27767 0.32561,12.16697c-0.06856,3.62628 -1.33017,20.41944 -2.8424,32.68079c-0.90762,7.35907 -0.09654,10.6328 0.25655,13.18501c0.41843,3.02446 -7.41943,8.772 -7.41943,8.772" fill="#cd9d6e" stroke="#c19467" stroke-width="0.5" stroke-linecap="round"/><path d="M230.46892,243.77954l-7.77528,-0.62038" fill="none" stroke="#c39669" stroke-width="0.5" stroke-linecap="round"/></g><path d="M230.01292,246.93153c0,0 -2.94421,0.44293 -4.17563,0.32923c-0.71866,-0.06635 -2.54365,-0.94962 -2.54365,-0.94962" fill="none" stroke="#c39669" stroke-width="0.5" stroke-linecap="round"/><g data-paper-data="{&quot;index&quot;:null}"><path d="M254.34136,321.31776c0,0 2.26749,4.66332 -0.90032,5.58713c-1.28168,0.37377 -5.38756,-8.09182 -5.38756,-8.09182c0,0 -0.83334,-37.77206 -0.99261,-59.42255c-0.03519,-4.7842 0.05707,-11.86307 0.0487,-16.49685c-0.00207,-1.14832 -1.44824,-21.45895 -1.2964,-25.41078c0.17296,-4.502 -2.54438,-20.23254 -1.63209,-31.76584c0.57078,-7.21592 -3.88103,-11.41012 -3.6566,-11.38481c1.36117,0.15347 24.27731,-17.49846 23.61561,-7.89476c-0.47699,6.92283 -2.89855,53.3891 -3.0391,58.0215c-0.13281,4.37728 -1.64849,7.84894 -1.82493,12.26661c-0.06769,1.69495 -0.06369,5.01758 -0.13637,6.70558c-0.19128,4.44277 -0.99714,27.59881 -1.34394,33.52336c-1.16118,19.83688 -3.45438,44.36322 -3.45438,44.36322z" fill="#cd9d6e" stroke="none" stroke-width="0" stroke-linecap="butt"/><path d="M262.11918,160.54609c0,0 4.29064,2.33318 3.76757,4.94748c-0.88973,4.44689 -2.0096,11.7215 -1.56815,18.57731c0.42059,6.53195 0.80473,14.3881 0.95722,22.80593c0.07684,9.52149 -1.44565,27.27648 -2.0288,33.18318c-0.18776,1.90184 -1.23439,5.34229 -1.25051,7.20929c-0.04505,5.21966 0.60302,6.31466 0.53395,11.03951c-0.20339,13.91329 -1.40667,25.13558 -1.47557,29.0179c-0.07512,4.23236 -3.99941,30.14209 -5.09597,33.64085c-0.53386,1.70337 -0.38488,3.5236 0.57914,5.0756c0.889,1.43124 -3.42984,1.20819 -3.43251,1.24689" fill="#cd9d6e" stroke="#c19467" stroke-width="0.5" stroke-linecap="round"/><path d="M253.19362,327.22223c-1.58828,-1.20681 -7.79011,-5.98363 -7.41457,-8.69813c0.35309,-2.55221 1.16417,-5.82594 0.25655,-13.18501c-1.51223,-12.26135 -2.77384,-29.05451 -2.8424,-32.68079c-0.09244,-4.8893 0.26433,-6.8681 0.32561,-12.16697c0.05422,-4.68899 0.89307,-9.09254 0.9875,-13.73154c0.02402,-1.1807 -0.24226,-3.13252 -0.75237,-7.07465c-0.50913,-3.93442 -1.67962,-9.15801 -1.85715,-15.40092c-0.25825,-9.08164 2.40079,-41.99521 2.40079,-41.99521" fill="#cd9d6e" stroke="#c19467" stroke-width="0.5" stroke-linecap="round"/><path d="M249.26403,243.77953l7.77528,-0.62038" fill="none" stroke="#c39669" stroke-width="0.5" stroke-linecap="round"/></g><path d="M256.43931,246.31115c0,0 -1.82498,0.88326 -2.54364,0.94962c-1.23142,0.1137 -4.17563,-0.32923 -4.17563,-0.32923" data-paper-data="{&quot;index&quot;:null}" fill="none" stroke="#c39669" stroke-width="0.5" stroke-linecap="round"/></g><g fill="none" stroke="#c19467" stroke-width="0.5" stroke-linecap="round"><path d="M233.40786,85.98909l4.22742,1.124c0,0 0.26595,0.74997 0.27474,1.12796c0.01145,0.49237 -0.21188,1.57489 -0.21188,1.57489"/><path d="M243.31192,89.80877c0,0 -0.22333,-1.08253 -0.21188,-1.57489c0.00879,-0.37799 0.27474,-1.12796 0.27474,-1.12796l4.22742,-1.124" data-paper-data="{&quot;index&quot;:null}"/></g></g></g></g></svg>