<?xml version="1.0" encoding="utf-8"?>
<!-- Generator: Adobe Illustrator 24.1.1, SVG Export Plug-In . SVG Version: 6.00 Build 0)  -->
<svg version="1.1" id="Layer_1" xmlns="http://www.w3.org/2000/svg" xmlns:xlink="http://www.w3.org/1999/xlink" x="0px" y="0px"
	 viewBox="0 0 512 512" style="enable-background:new 0 0 512 512;" xml:space="preserve">
<g>
	<path d="M79.1,176.3c-2.7,2.7-4.6,6.5-5.6,11.3c-1,4.8-1.5,9-1.5,12.8c0,3.8-0.3,5.6-1,5.6c-0.7,0.7-3.6,3.2-8.7,7.7
		c-5.1,4.4-8.4,7.3-9.7,8.7c-5.5,4.8-10.2,4.1-14.3-2L2.3,181.5c-3.4-4.1-3.1-8.2,1-12.3c0.7-0.7,3.8-3.1,9.2-7.2s8.9-6.8,10.2-8.2
		c2-2,6.7-3.1,13.8-3.1s13.5-2.4,18.9-7.2c4.8-4.8,7.9-11.3,9.2-19.5c1.4-8.2,3.1-13.3,5.1-15.4c0.7,0,2.2-1.2,4.6-3.6
		c2.4-2.4,6.8-6.1,13.3-11.3c6.5-5.1,13.5-10.4,21-15.9c45.7-30.7,77.5-47.1,95.2-49.2c41.6,0,66.9,0.3,75.8,1
		c4.1,0,2.7,1.4-4.1,4.1c-41,17.8-66.9,30.7-77.8,38.9c-27.3,19.1-33.5,38.6-18.4,58.4c11.6,15.7,18.1,23.9,19.5,24.6
		c2.7,2.7,2.4,5.1-1,7.2c-0.7,0.7-7.2,6.7-19.5,17.9c-12.3,11.3-18.8,17.2-19.5,17.9c-4.8,2.7-7.9,3.4-9.2,2
		c-14.3-16.4-26.5-26.6-36.4-30.7S92.1,168.2,79.1,176.3 M225.6,189.7l209.9,243.7c6.1,7.5,5.8,14-1,19.5l-24.6,21.5
		c-7.5,4.8-14,4.1-19.5-2l-212-241.7c-2.7-2.7-2.7-6.1,0-10.2l36.9-31.7C219.4,185.9,222.9,186.2,225.6,189.7 M509.3,86.2
		c5.5,35.5,2.7,63.8-8.2,85c-17.1,30-43.4,40.6-78.9,31.7c-19.1-4.1-36.2,1.4-51.2,16.4l-42,39.9l-34.8-39.9l34.8-35.8
		c8.2-8.2,13.5-17.2,15.9-27.1c2.4-9.9,3.4-21,3.1-33.3c-0.3-12.3,0.5-22.2,2.6-29.7c4.1-19.1,28-38.2,71.7-57.4
		c4.1-2,7.2-1.5,9.2,1.5s2.4,5.6,1,7.7c-4.1,4.1-11.9,17.8-23.6,41c-4.8,3.4-6.8,9.4-6.1,17.9s7.5,17.6,20.5,27.1
		c19.8,13.7,36.2,9.9,49.2-11.3c2-4.1,6.5-11.1,13.3-21s10.6-15.5,11.3-16.9c1.4-3.4,3.6-5,6.7-4.6
		C506.7,77.9,508.6,80.8,509.3,86.2 M69.9,436.5l130.1-127l38.9,44l-126,123.9c-6.8,6.8-13.3,7.5-19.5,2l-23.6-23.6
		C62.4,449.8,62.4,443.3,69.9,436.5"/>
</g>
</svg>
