<svg version="1.1" xmlns="http://www.w3.org/2000/svg" xmlns:xlink="http://www.w3.org/1999/xlink" width="49.16291" height="19.66516" viewBox="0,0,49.16291,19.66516"><g transform="translate(-215.41855,-170.16742)"><g data-paper-data="{&quot;isPaintingLayer&quot;:true}" fill-rule="nonzero" stroke-linecap="round" stroke-linejoin="miter" stroke-miterlimit="10" stroke-dasharray="" stroke-dashoffset="0" style="mix-blend-mode: normal"><g><path d="M264.58144,189.83258c0,0 -4.7748,-0.57334 -11.56873,-1.16188c-5.10791,-0.44249 -10.53064,-0.3297 -18.63378,-1.42391c-2.73103,-0.36879 -5.63947,-1.14231 -9.15589,-1.9424c-3.20511,-0.72926 -9.79606,1.59138 -9.79606,1.59138c0,0 -0.11801,-5.17881 0.52868,-7.97418c0.56966,-2.46239 3.23875,-8.54908 3.23875,-8.54908c0,0 9.38675,-0.71988 16.675,0.53776c2.90628,0.5015 8.4314,1.64517 13.33099,3.01533c6.84396,1.91389 12.97821,3.89276 12.97821,3.89276c0,0 1.03557,0.96548 1.93277,6.19308c0.31628,1.8428 0.47007,5.82113 0.47007,5.82113z" fill="#0d1c55" stroke="#08123b" stroke-width="0"/><path d="M262.81071,179.65757c0,0 -6.50994,0.94895 -13.97981,0.75569c-1.6434,-0.04252 -3.33327,-0.14033 -5.01049,-0.31568c-2.17542,-0.22744 -4.21958,-0.6748 -6.14043,-1.19795c-0.29676,-0.08083 -0.59058,-0.16345 -0.88148,-0.24737c-3.68097,-1.06176 -6.89542,-2.32804 -9.70282,-2.72194c-4.63252,-0.64997 -9.64774,-0.27749 -9.64774,-0.27749" fill="none" stroke="#091647" stroke-width="0.5"/><path d="M217.57171,175.83299l-0.26365,-0.33597" fill="none" stroke="#c7c8d6" stroke-width="0.5"/><path d="M218.51609,175.77619l-0.26365,-0.33597" fill="none" stroke="#c7c8d6" stroke-width="0.5"/><path d="M219.19681,175.39761l0.26365,0.33597" fill="none" stroke="#c7c8d6" stroke-width="0.5"/><path d="M220.18457,175.36288l0.23194,0.35859" fill="none" stroke="#c7c8d6" stroke-width="0.5"/><path d="M221.14792,175.36823l0.24034,0.35302" fill="none" stroke="#c7c8d6" stroke-width="0.5"/><path d="M222.12911,175.38712l0.24034,0.35302" fill="none" stroke="#c7c8d6" stroke-width="0.5"/><path d="M223.26771,175.76148l-0.24034,-0.35302" fill="none" stroke="#c7c8d6" stroke-width="0.5"/><path d="M223.99865,175.45079l0.24033,0.35302" fill="none" stroke="#c7c8d6" stroke-width="0.5"/><path d="M224.90604,175.50239l0.20349,0.37547" fill="none" stroke="#c7c8d6" stroke-width="0.5"/><path d="M225.86077,175.58622l0.17503,0.38955" fill="none" stroke="#c7c8d6" stroke-width="0.5"/><path d="M226.80786,175.68731l0.15712,0.39711" fill="none" stroke="#c7c8d6" stroke-width="0.5"/><path d="M227.78221,175.84639l0.13248,0.406" fill="none" stroke="#c7c8d6" stroke-width="0.5"/><path d="M228.86927,176.45213l-0.13487,-0.40521" fill="none" stroke="#c7c8d6" stroke-width="0.5"/><path d="M229.83674,176.69289l-0.14164,-0.40289" fill="none" stroke="#c7c8d6" stroke-width="0.5"/><path d="M230.8091,176.97125l-0.13515,-0.40511" fill="none" stroke="#c7c8d6" stroke-width="0.5"/><path d="M231.5823,176.83969l0.1255,0.40821" fill="none" stroke="#c7c8d6" stroke-width="0.5"/><path d="M232.66011,177.54637l-0.14054,-0.40328" fill="none" stroke="#c7c8d6" stroke-width="0.5"/><path d="M233.59802,177.85847l-0.11638,-0.4109" fill="none" stroke="#c7c8d6" stroke-width="0.5"/><path d="M234.41309,177.7322l0.0992,0.41538" fill="none" stroke="#c7c8d6" stroke-width="0.5"/><path d="M235.45433,178.43428l-0.11779,-0.4105" fill="none" stroke="#c7c8d6" stroke-width="0.5"/><path d="M236.24716,178.30527l0.14006,0.40345" fill="none" stroke="#c7c8d6" stroke-width="0.5"/><path d="M237.20125,178.57913l0.14006,0.40344" fill="none" stroke="#c7c8d6" stroke-width="0.5"/><path d="M238.27325,179.2372l-0.14006,-0.40345" fill="none" stroke="#c7c8d6" stroke-width="0.5"/><path d="M239.01305,179.05742l0.14006,0.40344" fill="none" stroke="#c7c8d6" stroke-width="0.5"/><path d="M239.904,179.25493l0.11428,0.41149" fill="none" stroke="#c7c8d6" stroke-width="0.5"/><path d="M240.82877,179.45622l0.14579,0.40141" fill="none" stroke="#c7c8d6" stroke-width="0.5"/><path d="M241.76886,179.63065l0.14186,0.40282" fill="none" stroke="#c7c8d6" stroke-width="0.5"/><path d="M242.86903,180.17485l-0.1344,-0.40537" fill="none" stroke="#c7c8d6" stroke-width="0.5"/><path d="M243.82128,180.29337l-0.13215,-0.4061" fill="none" stroke="#c7c8d6" stroke-width="0.5"/><path d="M244.78986,180.39326l-0.14115,-0.40306" fill="none" stroke="#c7c8d6" stroke-width="0.5"/><path d="M245.68965,180.46919l-0.15347,-0.39854" fill="none" stroke="#c7c8d6" stroke-width="0.5"/><path d="M246.61698,180.505l-0.17764,-0.38836" fill="none" stroke="#c7c8d6" stroke-width="0.5"/><path d="M247.48863,180.56018l-0.17391,-0.39005" fill="none" stroke="#c7c8d6" stroke-width="0.5"/><path d="M248.40921,180.57198l-0.21673,-0.36799" fill="none" stroke="#c7c8d6" stroke-width="0.5"/><path d="M249.34796,180.61272l-0.20356,-0.37543" fill="none" stroke="#c7c8d6" stroke-width="0.5"/><path d="M250.11605,180.2598l0.20414,0.37511" fill="none" stroke="#c7c8d6" stroke-width="0.5"/><path d="M251.07275,180.26665l0.22345,0.36394" fill="none" stroke="#c7c8d6" stroke-width="0.5"/><path d="M252.2637,180.61366l-0.22345,-0.36394" fill="none" stroke="#c7c8d6" stroke-width="0.5"/><path d="M253.14825,180.58357l-0.22345,-0.36394" fill="none" stroke="#c7c8d6" stroke-width="0.5"/><path d="M253.81103,180.21396l0.22345,0.36394" fill="none" stroke="#c7c8d6" stroke-width="0.5"/><path d="M254.67022,180.16776l0.21362,0.3698" fill="none" stroke="#c7c8d6" stroke-width="0.5"/><path d="M255.57771,180.12361l0.21389,0.36964" fill="none" stroke="#c7c8d6" stroke-width="0.5"/><path d="M256.51113,180.06439l0.23324,0.35775" fill="none" stroke="#c7c8d6" stroke-width="0.5"/><path d="M257.71904,180.3614l-0.24044,-0.35295" fill="none" stroke="#c7c8d6" stroke-width="0.5"/><path d="M258.41838,179.93223l0.2487,0.34718" fill="none" stroke="#c7c8d6" stroke-width="0.5"/><path d="M259.35289,179.8574l0.2487,0.34718" fill="none" stroke="#c7c8d6" stroke-width="0.5"/><path d="M260.25142,179.76359l0.2487,0.34718" fill="none" stroke="#c7c8d6" stroke-width="0.5"/><path d="M261.36673,180.01279l-0.2487,-0.34718" fill="none" stroke="#c7c8d6" stroke-width="0.5"/><path d="M262.97097,179.7903l-0.2487,-0.34718" fill="none" stroke="#c7c8d6" stroke-width="0.5"/><path d="M262.16726,179.91329l-0.2487,-0.34718" fill="none" stroke="#c7c8d6" stroke-width="0.5"/></g></g></g></svg>