<svg version="1.1" xmlns="http://www.w3.org/2000/svg" xmlns:xlink="http://www.w3.org/1999/xlink" width="34.71475" height="20.27493" viewBox="0,0,34.71475,20.27493"><g transform="translate(-222.64263,-169.87536)"><g data-paper-data="{&quot;isPaintingLayer&quot;:true}" fill-rule="nonzero" stroke-linejoin="miter" stroke-miterlimit="10" stroke-dasharray="" stroke-dashoffset="0" style="mix-blend-mode: normal"><g><g fill="#0d1c55" stroke="#b60000" stroke-width="0" stroke-linecap="butt"><path d="M241.84234,189.44072c-2.92969,-0.1066 -10.9614,0.07367 -10.9614,0.07367l1.6019,-18.91763c0,0 1.64316,-0.5136 5.91656,-0.70099c1.0362,-0.04544 2.26294,0.0001 3.61693,-0.00615c4.19931,-0.01939 10.37579,1.6988 10.37579,1.6988l0.96066,2.94872c0,0 3.25249,2.27605 3.78046,4.00029c0.77165,2.52005 -0.64703,6.039 -1.27113,7.28972c-1.1351,2.27478 -6.82635,4.25934 -6.82635,4.25934c0,0 -4.04618,-0.53127 -7.19342,-0.64577z" data-paper-data="{&quot;index&quot;:null}"/><path d="M230.96424,190.12464c0,0 -5.69125,-1.98456 -6.82635,-4.25934c-0.6241,-1.25072 -2.04278,-4.76968 -1.27113,-7.28972c0.52797,-1.72424 3.74232,-4.03843 3.74232,-4.03843l0.9988,-2.91058c0,0 6.17648,-1.7182 10.37579,-1.6988c1.71336,0.00791 3.27355,-0.07891 4.65171,0.01561c4.20249,0.28823 6.71251,0.99666 6.71251,0.99666l-0.22884,18.6125c0,0 -8.0317,-0.18026 -10.96139,-0.07367c-3.14725,0.11451 -7.19342,0.64577 -7.19342,0.64577z"/></g><g stroke="#091647" stroke-width="0.5" stroke-linecap="round"><path d="M231.00948,189.90029c0,0 -1.90783,-1.51092 -2.76825,-2.3211c-0.88084,-0.8294 -2.43029,-2.61441 -2.43029,-2.61441" fill="#0c194e"/><path d="M254.18782,184.90078c0,0 -1.58703,1.76298 -2.45147,2.60946c-0.8444,0.82687 -2.78938,2.33522 -2.78938,2.33522" data-paper-data="{&quot;index&quot;:null}" fill="#0c194e"/><path d="M253.40985,174.88258l1.95903,7.86618c0,0 -0.29701,0.90525 -0.53373,1.19803c-0.24604,0.30431 -0.69716,1.01064 -0.69716,1.01064c0,0 -8.54715,-1.88262 -14.34412,-1.82238c-6.48279,0.06737 -13.99765,1.81198 -13.99765,1.81198c0,0 -0.57381,-0.74505 -0.79083,-1.13306c-0.20134,-0.35998 -0.4678,-1.11722 -0.4678,-1.11722l2.00672,-7.82797" fill="#0d1c55"/><path d="M225.88297,177.57822l8.87684,-2.02465c0,0 1.07289,-3.65572 5.16428,-3.66352c4.1392,-0.0079 5.0028,3.63125 5.0028,3.63125l9.07448,1.97922" fill="none"/></g></g><g fill="#c7c8d6" stroke="none" stroke-width="0.5" stroke-linecap="butt"><g><g><path d="M246.56034,181.76384c-0.19975,0.01475 -0.35453,0.14498 -0.62999,0.08283c-0.37112,-0.08374 -0.26574,-0.20858 -0.40021,-0.29326c-0.11228,-0.07071 -0.30811,0.00979 -0.43131,-0.15119c-0.17691,-0.23116 -0.03328,-0.39501 -0.04673,-0.56813c-0.01216,-0.15653 -0.26473,-0.28115 -0.08387,-0.54758c0.1601,-0.23585 0.33548,-0.14041 0.45294,-0.24026c0.12972,-0.11027 0.03408,-0.30154 0.39442,-0.4213c0.30974,-0.10295 0.40046,0.05763 0.58201,0.04422c0.2052,-0.01515 0.38082,2.07857 0.16275,2.09467z"/><path d="M246.39904,179.66906c0.18154,-0.01341 0.24642,-0.18548 0.56853,-0.12919c0.37473,0.06549 0.30973,0.26861 0.45502,0.35858c0.13155,0.08146 0.29018,-0.03864 0.48489,0.17101c0.21996,0.23683 -0.01047,0.39712 0.00169,0.55365c0.01345,0.17311 0.18075,0.31401 0.04158,0.5685c-0.09693,0.17724 -0.30295,0.12642 -0.40303,0.21281c-0.11985,0.10346 0.00362,0.2114 -0.35033,0.34868c-0.26271,0.1019 -0.43585,-0.00412 -0.6356,0.01063c-0.21807,0.0161 -0.36795,-2.07952 -0.16275,-2.09467z" data-paper-data="{&quot;index&quot;:null}"/></g><path d="M244.30879,181.73738l0.75069,-0.35682l-0.00594,0.25516l0.60234,-0.28854l0.21262,0.14448l-1.09482,0.57444l0.03412,-0.30901l-0.7639,0.37302l0.04485,-0.25707l-0.67118,0.24336c0,0 0.38161,-0.34431 0.51173,-0.4341c0.13011,-0.08979 0.43674,-0.25121 0.43674,-0.25121z" data-paper-data="{&quot;index&quot;:null}"/><path d="M244.26689,179.63253l0.78187,0.20207l-0.16349,0.18645l0.62874,0.16048l0.06838,0.24022l-1.17398,-0.25443l0.21806,-0.20901l-0.80181,-0.19823l0.19369,-0.16361l-0.65188,-0.23706c0,0 0.49903,-0.01869 0.65197,-0.00449c0.15294,0.0142 0.48207,0.08506 0.48207,0.08506z" data-paper-data="{&quot;index&quot;:null}"/><path d="M245.35268,180.86707l-1.68916,-0.18966c0,0 0.16663,0.23887 0.10436,0.21186c-0.03043,-0.0132 -0.16561,-0.08241 -0.27829,-0.17402c-0.10127,-0.08234 -0.18266,-0.18867 -0.18266,-0.18867c0,0 0.10542,-0.08817 0.24398,-0.14789c0.11836,-0.05101 0.2701,-0.07442 0.29965,-0.07945c0.06898,-0.01173 -0.16718,0.18284 -0.16718,0.18284l1.69487,0.17201z" data-paper-data="{&quot;index&quot;:null}"/></g><g><path d="M249.97476,181.06263c-0.17818,0.03923 -0.30084,0.17675 -0.55726,0.15647c-0.34549,-0.02732 -0.26668,-0.15356 -0.39892,-0.21245c-0.11041,-0.04917 -0.27652,0.04883 -0.40851,-0.08032c-0.18951,-0.18545 -0.08129,-0.35183 -0.1159,-0.50617c-0.03129,-0.13955 -0.27519,-0.21913 -0.14671,-0.48283c0.11373,-0.23343 0.28425,-0.17015 0.37719,-0.27543c0.10264,-0.11627 -0.00842,-0.2763 0.30092,-0.43107c0.26591,-0.13304 0.36855,-0.00003 0.53049,-0.03569c0.18305,-0.0403 0.61322,1.82466 0.41869,1.86749z"/><path d="M249.55737,179.19485c0.16194,-0.03566 0.1981,-0.19923 0.49583,-0.19029c0.34638,0.01039 0.31414,0.20198 0.45681,0.26423c0.12918,0.05637 0.25662,-0.07252 0.45939,0.09123c0.22907,0.18498 0.04212,0.35942 0.07341,0.49897c0.0346,0.15434 0.20374,0.25965 0.1113,0.50718c-0.06438,0.17239 -0.25674,0.15332 -0.33575,0.2442c-0.09463,0.10884 0.03071,0.19013 -0.2706,0.35987c-0.22364,0.12598 -0.39351,0.05287 -0.5717,0.0921c-0.19453,0.04283 -0.60174,-1.82718 -0.41869,-1.86748z" data-paper-data="{&quot;index&quot;:null}"/></g><path d="M248.01621,181.55329l0.5637,-0.50548l0.06067,0.22444l0.45173,-0.40753l0.22304,0.07134l-0.80816,0.7844l-0.04995,-0.27875l-0.57106,0.52303l-0.02717,-0.23615l-0.52353,0.38584c0,0 0.24451,-0.39929 0.335,-0.51131c0.09049,-0.11202 0.3167,-0.33218 0.3167,-0.33218z" data-paper-data="{&quot;index&quot;:null}"/><path d="M247.69696,179.41647l0.73119,0.08068l-0.1232,0.18934l0.58773,0.06306l0.09284,0.20771l-1.09153,-0.07698l0.16948,-0.21676l-0.74867,-0.07463l0.15339,-0.17267l-0.61853,-0.1291c0,0 0.44751,-0.08164 0.58725,-0.08869c0.13974,-0.00705 0.44569,0.01411 0.44569,0.01411z" data-paper-data="{&quot;index&quot;:null}"/><path d="M252.95364,180.19929c-0.15559,0.05003 -0.25335,0.18301 -0.48374,0.18658c-0.3104,0.0048 -0.25078,-0.11443 -0.37367,-0.15578c-0.10261,-0.03453 -0.24247,0.06688 -0.37107,-0.03715c-0.18466,-0.14938 -0.10219,-0.30689 -0.14608,-0.4416c-0.03968,-0.12181 -0.2639,-0.17218 -0.17159,-0.41819c0.08172,-0.21777 0.23912,-0.17573 0.31311,-0.27746c0.08172,-0.11235 -0.03083,-0.24568 0.23197,-0.40981c0.2259,-0.14108 0.32866,-0.03114 0.47006,-0.07661c0.15983,-0.05139 0.70087,1.5754 0.53101,1.63002z"/><path d="M252.42376,178.56895c0.1414,-0.04547 0.15984,-0.19438 0.4261,-0.21155c0.30976,-0.01997 0.29719,0.1536 0.42967,0.19707c0.11996,0.03936 0.22272,-0.08633 0.41737,0.04258c0.21989,0.14562 0.0679,0.31696 0.10758,0.43877c0.04389,0.13471 0.20361,0.21435 0.14206,0.44289c-0.04286,0.15916 -0.21601,0.1584 -0.2788,0.24611c-0.0752,0.10505 0.04343,0.16696 -0.21094,0.34376c-0.1888,0.13122 -0.34646,0.08036 -0.50204,0.13039c-0.16986,0.05462 -0.69084,-1.57863 -0.53101,-1.63002z" data-paper-data="{&quot;index&quot;:null}"/><path d="M251.22972,180.71657l0.47359,-0.48547l0.06765,0.19697l0.37937,-0.39124l0.20361,0.05043l-0.6754,0.74938l-0.06131,-0.24615l-0.47912,0.50161l-0.0384,-0.20944l-0.44484,0.37614c0,0 0.19466,-0.37148 0.26884,-0.47701c0.07418,-0.10553 0.26319,-0.31582 0.26319,-0.31582z" data-paper-data="{&quot;index&quot;:null}"/><path d="M250.72576,178.9491l0.65886,0.01023l-0.09389,0.17924l0.52944,0.00662l0.10033,0.17739l-0.97988,0.02349l0.13284,-0.2076l-0.67394,-0.00336l0.12221,-0.16693l-0.56249,-0.06292c0,0 0.39218,-0.11058 0.5162,-0.12866c0.12402,-0.01808 0.39864,-0.02504 0.39864,-0.02504z" data-paper-data="{&quot;index&quot;:null}"/><path d="M251.85406,179.78292l-1.25922,0.58877c0,0 0.2343,0.0863 0.178,0.09583c-0.02411,0.00408 -0.1473,0.02689 -0.2522,0.01947c-0.1228,-0.00869 -0.22775,-0.04823 -0.22775,-0.04823c0,0 0.03406,-0.10382 0.0899,-0.1945c0.06213,-0.1009 0.14763,-0.1906 0.16751,-0.20896c0.0407,-0.03757 -0.02335,0.19128 -0.02335,0.19128l1.25006,-0.60082z" data-paper-data="{&quot;index&quot;:null}"/><path d="M248.98925,180.40725l-1.34592,0.34754c0,0 0.21446,0.12785 0.15738,0.12689c-0.02445,-0.00041 -0.14973,-0.00061 -0.25148,-0.02717c-0.11912,-0.0311 -0.21502,-0.08923 -0.21502,-0.08923c0,0 0.05254,-0.0958 0.12409,-0.17469c0.0796,-0.08778 0.18011,-0.16025 0.20303,-0.17465c0.0469,-0.02946 -0.05808,0.18374 -0.05808,0.18374l1.33913,-0.36108z" data-paper-data="{&quot;index&quot;:null}"/></g><g data-paper-data="{&quot;index&quot;:null}" fill="#c7c8d6" stroke="none" stroke-width="0.5" stroke-linecap="butt"><g><g><path d="M233.88419,179.71521c0.18154,0.01341 0.27226,-0.14717 0.58201,-0.04423c0.36034,0.11977 0.2647,0.31103 0.39442,0.42131c0.11746,0.09985 0.29284,0.00441 0.45294,0.24026c0.18086,0.26643 -0.07171,0.39106 -0.08387,0.54758c-0.01345,0.17311 0.13018,0.33697 -0.04673,0.56812c-0.1232,0.16099 -0.31903,0.08049 -0.43131,0.1512c-0.13447,0.08468 -0.02909,0.20952 -0.40021,0.29326c-0.27546,0.06215 -0.43025,-0.06808 -0.62999,-0.08283c-0.21808,-0.0161 -0.04246,-2.10982 0.16275,-2.09467z"/><path d="M233.71999,181.80974c-0.19975,-0.01475 -0.37289,0.09127 -0.6356,-0.01063c-0.35395,-0.13729 -0.23048,-0.24522 -0.35034,-0.34868c-0.10007,-0.08639 -0.3061,-0.03557 -0.40302,-0.21281c-0.13918,-0.2545 0.02813,-0.39539 0.04158,-0.5685c0.01216,-0.15653 -0.21827,-0.31682 0.00169,-0.55365c0.19471,-0.20965 0.35335,-0.08954 0.48489,-0.17101c0.14528,-0.08997 0.08028,-0.29309 0.45502,-0.35858c0.32211,-0.05629 0.38699,0.11578 0.56853,0.12918c0.2052,0.01515 0.05533,2.11078 -0.16275,2.09467z" data-paper-data="{&quot;index&quot;:null}"/></g><path d="M235.91573,181.47713c0,0 0.30663,0.16142 0.43674,0.25121c0.13011,0.08979 0.51173,0.4341 0.51173,0.4341l-0.67118,-0.24336l0.04485,0.25707l-0.7639,-0.37302l0.03412,0.30901l-1.09481,-0.57444l0.21262,-0.14448l0.60234,0.28854l-0.00594,-0.25516l0.75069,0.35682z" data-paper-data="{&quot;index&quot;:null}"/><path d="M235.78128,179.486c0,0 0.32913,-0.07086 0.48207,-0.08506c0.15294,-0.0142 0.65197,0.00449 0.65197,0.00449l-0.65188,0.23706l0.19369,0.16361l-0.80181,0.19823l0.21806,0.20901l-1.17398,0.25443l0.06838,-0.24022l0.62874,-0.16048l-0.16349,-0.18645l0.78187,-0.20207z" data-paper-data="{&quot;index&quot;:null}"/><path d="M234.90353,180.70005l1.69487,-0.17201c0,0 -0.23617,-0.19457 -0.16718,-0.18284c0.02955,0.00502 0.18129,0.02844 0.29965,0.07945c0.13856,0.05971 0.24398,0.14789 0.24398,0.14789c0,0 -0.08138,0.10634 -0.18266,0.18867c-0.11268,0.09161 -0.24786,0.16082 -0.27829,0.17402c-0.06227,0.02702 0.10436,-0.21186 0.10436,-0.21186l-1.68916,0.18966z" data-paper-data="{&quot;index&quot;:null}"/></g><g><path d="M230.72571,179.24115c0.16194,0.03566 0.26459,-0.09735 0.53049,0.03569c0.30934,0.15477 0.19828,0.3148 0.30092,0.43107c0.09294,0.10528 0.26346,0.042 0.37719,0.27543c0.12848,0.2637 -0.11542,0.34328 -0.14671,0.48283c-0.0346,0.15434 0.07362,0.32072 -0.1159,0.50617c-0.13198,0.12915 -0.2981,0.03115 -0.40851,0.08033c-0.13224,0.05889 -0.05343,0.18513 -0.39892,0.21245c-0.25643,0.02028 -0.37908,-0.11724 -0.55726,-0.15647c-0.19453,-0.04283 0.23564,-1.90779 0.41869,-1.86749z"/><path d="M230.30573,181.10836c-0.17818,-0.03923 -0.34805,0.03388 -0.5717,-0.0921c-0.30131,-0.16973 -0.17597,-0.25103 -0.2706,-0.35987c-0.07901,-0.09088 -0.27137,-0.07181 -0.33575,-0.2442c-0.09244,-0.24753 0.07669,-0.35284 0.1113,-0.50718c0.03129,-0.13955 -0.15566,-0.31399 0.07341,-0.49897c0.20278,-0.16375 0.33021,-0.03486 0.45939,-0.09123c0.14267,-0.06226 0.11043,-0.25384 0.45681,-0.26423c0.29773,-0.00893 0.33389,0.15463 0.49583,0.19029c0.18305,0.0403 -0.22416,1.91032 -0.41869,1.86749z" data-paper-data="{&quot;index&quot;:null}"/></g><path d="M232.29461,181.31698c0,0 0.22621,0.22015 0.3167,0.33218c0.09049,0.11202 0.335,0.51131 0.335,0.51131l-0.52353,-0.38583l-0.02717,0.23615l-0.57106,-0.52304l-0.04995,0.27875l-0.80816,-0.7844l0.22304,-0.07134l0.45173,0.40753l0.06067,-0.22444l0.5637,0.50548z" data-paper-data="{&quot;index&quot;:null}"/><path d="M232.3992,179.25856c0,0 0.30595,-0.02116 0.44569,-0.01411c0.13974,0.00705 0.58725,0.08869 0.58725,0.08869l-0.61854,0.1291l0.15339,0.17267l-0.74868,0.07463l0.16948,0.21676l-1.09153,0.07698l0.09284,-0.20771l0.58773,-0.06306l-0.1232,-0.18934l0.73119,-0.08068z" data-paper-data="{&quot;index&quot;:null}"/><path d="M227.85916,178.6153c0.1414,0.04547 0.24417,-0.06448 0.47006,0.07661c0.2628,0.16413 0.15025,0.29746 0.23197,0.40981c0.07399,0.10173 0.2314,0.05969 0.31311,0.27746c0.09231,0.24601 -0.13191,0.29638 -0.17159,0.41819c-0.04389,0.13471 0.03858,0.29222 -0.14608,0.4416c-0.1286,0.10403 -0.26846,0.00262 -0.37107,0.03715c-0.12289,0.04136 -0.06327,0.16058 -0.37367,0.15578c-0.23039,-0.00356 -0.32815,-0.13655 -0.48374,-0.18658c-0.16986,-0.05462 0.37117,-1.68141 0.53101,-1.63002z"/><path d="M227.32703,180.24499c-0.15559,-0.05003 -0.31324,0.00083 -0.50204,-0.13039c-0.25437,-0.1768 -0.13574,-0.23871 -0.21094,-0.34376c-0.06279,-0.08771 -0.23594,-0.08695 -0.2788,-0.24611c-0.06154,-0.22855 0.09818,-0.30818 0.14206,-0.44289c0.03968,-0.12181 -0.11231,-0.29315 0.10758,-0.43877c0.19465,-0.1289 0.29741,-0.00321 0.41737,-0.04258c0.13248,-0.04348 0.11991,-0.21704 0.42967,-0.19707c0.26626,0.01716 0.2847,0.16608 0.4261,0.21155c0.15983,0.05139 -0.36115,1.68463 -0.53101,1.63002z" data-paper-data="{&quot;index&quot;:null}"/><path d="M229.0949,180.51197c0,0 0.18901,0.21029 0.26319,0.31582c0.07418,0.10553 0.26884,0.47701 0.26884,0.47701l-0.44484,-0.37614l-0.0384,0.20944l-0.47912,-0.5016l-0.06131,0.24615l-0.6754,-0.74938l0.20361,-0.05043l0.37937,0.39124l0.06765,-0.19697l0.47359,0.48547z" data-paper-data="{&quot;index&quot;:null}"/><path d="M229.4077,178.7976c0,0 0.27462,0.00696 0.39864,0.02504c0.12402,0.01808 0.5162,0.12866 0.5162,0.12866l-0.56249,0.06292l0.12221,0.16693l-0.67394,0.00336l0.13284,0.2076l-0.97988,-0.02349l0.10033,-0.17739l0.52944,-0.00662l-0.09389,-0.17924l0.65886,-0.01023z" data-paper-data="{&quot;index&quot;:null}"/><path d="M228.50477,179.67179l1.25006,0.60082c0,0 -0.06405,-0.22885 -0.02335,-0.19128c0.01989,0.01836 0.10538,0.10806 0.16751,0.20896c0.05584,0.09069 0.0899,0.1945 0.0899,0.1945c0,0 -0.10494,0.03954 -0.22775,0.04823c-0.1049,0.00742 -0.22809,-0.01538 -0.2522,-0.01947c-0.0563,-0.00953 0.178,-0.09583 0.178,-0.09583l-1.25922,-0.58877z" data-paper-data="{&quot;index&quot;:null}"/><path d="M231.3394,180.28466l1.33913,0.36108c0,0 -0.10498,-0.2132 -0.05808,-0.18374c0.02292,0.0144 0.12343,0.08687 0.20303,0.17465c0.07155,0.07889 0.12409,0.17469 0.12409,0.17469c0,0 -0.0959,0.05813 -0.21502,0.08923c-0.10175,0.02656 -0.22703,0.02676 -0.25148,0.02717c-0.05709,0.00097 0.15738,-0.12689 0.15738,-0.12689l-1.34592,-0.34754z" data-paper-data="{&quot;index&quot;:null}"/></g></g></g></svg>