<svg version="1.1" xmlns="http://www.w3.org/2000/svg" xmlns:xlink="http://www.w3.org/1999/xlink" width="30.03043" height="24.06169" viewBox="0,0,30.03043,24.06169"><g transform="translate(-224.99,-167.92562)"><g data-paper-data="{&quot;isPaintingLayer&quot;:true}" fill-rule="nonzero" stroke="#000d46" stroke-width="0.5" stroke-linecap="round" stroke-linejoin="miter" stroke-miterlimit="10" stroke-dasharray="" stroke-dashoffset="0" style="mix-blend-mode: normal"><g><path d="M239.83659,191.73731c-4.90541,0 -14.54434,-3.97041 -14.54434,-3.97041c0,0 2.41592,-8.37902 4.74257,-11.48448c0.94453,-1.2607 2.54432,-2.69907 4.17776,-4.00627c0.14329,-0.11467 0.34809,0.42256 0.49147,0.31011c2.59622,-2.03596 5.0785,-4.32357 5.0785,-4.32357c0,0 2.54064,2.25497 5.15144,4.26415c0.17433,0.13416 0.40995,-0.38077 0.58358,-0.24336c1.48006,1.17129 2.90691,2.44787 3.80249,3.60869c2.43386,3.15467 5.38769,11.87474 5.38769,11.87474c0,0 -9.89087,3.9704 -14.87116,3.9704z" fill="#0d1c55"/><path d="M239.82797,168.84727l0.06216,22.52853" fill="none"/><g><path d="M226.50344,188.29882c0,0 2.75848,-5.20576 6.45453,-8.40799c2.54342,-2.20359 5.59994,-3.8123 7.09958,-4.32307c1.40409,-0.47822 5.36827,-3.3421 5.36827,-3.3421" fill="none"/><path d="M239.68865,175.64949c0,0 -1.84185,-0.62797 -2.82735,-1.20021c-0.99474,-0.57761 -2.56422,-2.21083 -2.56422,-2.21083" fill="#0c194e"/></g></g></g></g></svg>