<svg version="1.1" xmlns="http://www.w3.org/2000/svg" xmlns:xlink="http://www.w3.org/1999/xlink" width="5.40418" height="5.37038" viewBox="0,0,5.40418,5.37038"><defs><linearGradient x1="237.54791" y1="180" x2="242.45209" y2="180" gradientUnits="userSpaceOnUse" id="color-1"><stop offset="0" stop-color="#005387"/><stop offset="1" stop-color="#003b9a"/></linearGradient><linearGradient x1="237.54791" y1="180" x2="242.45209" y2="180" gradientUnits="userSpaceOnUse" id="color-2"><stop offset="0" stop-color="#bababa"/><stop offset="1" stop-color="#ededed"/></linearGradient><linearGradient x1="238.85837" y1="180.35178" x2="239.18384" y2="179.89352" gradientUnits="userSpaceOnUse" id="color-3"><stop offset="0" stop-color="#f1f1f1"/><stop offset="1" stop-color="#bababa"/></linearGradient><linearGradient x1="239.01998" y1="180.43445" x2="239.38725" y2="179.91732" gradientUnits="userSpaceOnUse" id="color-4"><stop offset="0" stop-color="#f1f1f1"/><stop offset="1" stop-color="#bababa"/></linearGradient><linearGradient x1="239.23616" y1="180.44696" x2="239.57562" y2="179.96898" gradientUnits="userSpaceOnUse" id="color-5"><stop offset="0" stop-color="#f1f1f1"/><stop offset="1" stop-color="#bababa"/></linearGradient><linearGradient x1="239.43948" y1="180.39921" x2="239.7383" y2="179.97847" gradientUnits="userSpaceOnUse" id="color-6"><stop offset="0" stop-color="#f1f1f1"/><stop offset="1" stop-color="#bababa"/></linearGradient><linearGradient x1="239.56282" y1="180.3588" x2="239.83817" y2="179.9711" gradientUnits="userSpaceOnUse" id="color-7"><stop offset="0" stop-color="#f1f1f1"/><stop offset="1" stop-color="#bababa"/></linearGradient><linearGradient x1="239.67062" y1="180.31306" x2="239.91179" y2="179.97349" gradientUnits="userSpaceOnUse" id="color-8"><stop offset="0" stop-color="#f1f1f1"/><stop offset="1" stop-color="#bababa"/></linearGradient><linearGradient x1="238.53598" y1="180.46649" x2="239.04492" y2="179.84305" gradientUnits="userSpaceOnUse" id="color-9"><stop offset="0" stop-color="#f1f1f1"/><stop offset="1" stop-color="#bababa"/></linearGradient><linearGradient x1="238.37203" y1="180.38829" x2="238.91762" y2="179.79666" gradientUnits="userSpaceOnUse" id="color-10"><stop offset="0" stop-color="#f1f1f1"/><stop offset="1" stop-color="#bababa"/></linearGradient><linearGradient x1="238.21155" y1="180.24418" x2="238.82699" y2="179.7256" gradientUnits="userSpaceOnUse" id="color-11"><stop offset="0" stop-color="#f1f1f1"/><stop offset="1" stop-color="#bababa"/></linearGradient><linearGradient x1="238.10913" y1="180.11202" x2="238.76348" y2="179.6435" gradientUnits="userSpaceOnUse" id="color-12"><stop offset="0" stop-color="#f1f1f1"/><stop offset="1" stop-color="#bababa"/></linearGradient><linearGradient x1="239.3023" y1="180.04332" x2="239.56164" y2="179.67817" gradientUnits="userSpaceOnUse" id="color-13"><stop offset="0" stop-color="#f1f1f1"/><stop offset="1" stop-color="#bababa"/></linearGradient><linearGradient x1="241.15994" y1="180.33326" x2="240.83447" y2="179.87499" gradientUnits="userSpaceOnUse" id="color-14"><stop offset="0" stop-color="#f1f1f1"/><stop offset="1" stop-color="#bababa"/></linearGradient><linearGradient x1="240.99834" y1="180.41592" x2="240.63107" y2="179.89879" gradientUnits="userSpaceOnUse" id="color-15"><stop offset="0" stop-color="#f1f1f1"/><stop offset="1" stop-color="#bababa"/></linearGradient><linearGradient x1="240.78217" y1="180.42844" x2="240.44269" y2="179.95046" gradientUnits="userSpaceOnUse" id="color-16"><stop offset="0" stop-color="#f1f1f1"/><stop offset="1" stop-color="#bababa"/></linearGradient><linearGradient x1="240.57883" y1="180.38068" x2="240.28002" y2="179.95995" gradientUnits="userSpaceOnUse" id="color-17"><stop offset="0" stop-color="#f1f1f1"/><stop offset="1" stop-color="#bababa"/></linearGradient><linearGradient x1="240.45549" y1="180.34028" x2="240.18015" y2="179.95258" gradientUnits="userSpaceOnUse" id="color-18"><stop offset="0" stop-color="#f1f1f1"/><stop offset="1" stop-color="#bababa"/></linearGradient><linearGradient x1="240.3477" y1="180.29454" x2="240.10653" y2="179.95497" gradientUnits="userSpaceOnUse" id="color-19"><stop offset="0" stop-color="#f1f1f1"/><stop offset="1" stop-color="#bababa"/></linearGradient><linearGradient x1="241.48234" y1="180.44797" x2="240.9734" y2="179.82453" gradientUnits="userSpaceOnUse" id="color-20"><stop offset="0" stop-color="#f1f1f1"/><stop offset="1" stop-color="#bababa"/></linearGradient><linearGradient x1="241.64629" y1="180.36976" x2="241.10069" y2="179.77814" gradientUnits="userSpaceOnUse" id="color-21"><stop offset="0" stop-color="#f1f1f1"/><stop offset="1" stop-color="#bababa"/></linearGradient><linearGradient x1="241.80677" y1="180.22566" x2="241.19133" y2="179.70707" gradientUnits="userSpaceOnUse" id="color-22"><stop offset="0" stop-color="#f1f1f1"/><stop offset="1" stop-color="#bababa"/></linearGradient><linearGradient x1="241.90919" y1="180.0935" x2="241.25483" y2="179.62498" gradientUnits="userSpaceOnUse" id="color-23"><stop offset="0" stop-color="#f1f1f1"/><stop offset="1" stop-color="#bababa"/></linearGradient><linearGradient x1="240.71602" y1="180.02479" x2="240.45668" y2="179.65964" gradientUnits="userSpaceOnUse" id="color-24"><stop offset="0" stop-color="#f1f1f1"/><stop offset="1" stop-color="#bababa"/></linearGradient><linearGradient x1="239.82341" y1="179.9995" x2="240.19931" y2="179.9995" gradientUnits="userSpaceOnUse" id="color-25"><stop offset="0" stop-color="#f22f2f"/><stop offset="1" stop-color="#ba3535"/></linearGradient><linearGradient x1="239.79612" y1="179.13846" x2="240.20387" y2="179.13846" gradientUnits="userSpaceOnUse" id="color-26"><stop offset="0" stop-color="#f22f2f"/><stop offset="1" stop-color="#ba3535"/></linearGradient><linearGradient x1="239.79612" y1="180.86155" x2="240.20387" y2="180.86155" gradientUnits="userSpaceOnUse" id="color-27"><stop offset="0" stop-color="#f22f2f"/><stop offset="1" stop-color="#ba3535"/></linearGradient></defs><g transform="translate(-237.29791,-177.31481)"><g data-paper-data="{&quot;isPaintingLayer&quot;:true}" fill-rule="nonzero" stroke-linecap="butt" stroke-linejoin="miter" stroke-miterlimit="10" stroke-dasharray="" stroke-dashoffset="0" style="mix-blend-mode: normal"><g><path d="M242.45209,180c0,1.34492 -1.09784,2.43519 -2.45209,2.43519c-1.35425,0 -2.45209,-1.09027 -2.45209,-2.43519c0,-1.34492 1.09784,-2.43519 2.45209,-2.43519c1.35425,0 2.45209,1.09027 2.45209,2.43519z" fill="url(#color-1)" stroke="url(#color-2)" stroke-width="0.5"/><path d="M238.88559,180.33083c-0.12724,-0.01213 -0.16219,-0.09598 -0.18163,-0.11443c-0.03424,-0.0325 0.18653,0.01208 0.26633,-0.072c0.05105,-0.0538 0.21969,-0.1567 0.30051,-0.17302c0.0455,-0.00919 0.07276,0.06197 0.07276,0.06197c0,0 -0.11181,0.12448 -0.2012,0.1983c-0.04414,0.03644 -0.15992,0.10843 -0.25678,0.0992z" fill="url(#color-3)" stroke="none" stroke-width="0"/><path d="M239.11178,180.39137c-0.12747,0.00938 -0.19951,-0.03431 -0.22177,-0.04924c-0.0392,-0.0263 0.233,-0.06211 0.29758,-0.15838c0.04131,-0.0616 0.16674,-0.18169 0.24368,-0.21133c0.04331,-0.01669 0.08212,0.0489 0.08212,0.0489c0,0 -0.08935,0.14147 -0.1651,0.22922c-0.0374,0.04333 -0.13947,0.1337 -0.23651,0.14084z" fill="url(#color-4)" stroke="none" stroke-width="0"/><path d="M239.52466,180.24323c-0.02514,0.04524 -0.09886,0.14402 -0.18345,0.16819c-0.11112,0.03175 -0.17324,-0.02021 -0.19569,-0.02934c-0.03954,-0.01606 0.17014,-0.07286 0.20959,-0.16996c0.02525,-0.06213 0.12919,-0.18996 0.19185,-0.23036c0.03528,-0.02274 0.08168,0.02817 0.08168,0.02817c0,0 -0.05306,0.14167 -0.10398,0.23329z" fill="url(#color-5)" stroke="none" stroke-width="0"/><path d="M239.67751,180.15665c-0.01343,0.03803 -0.06395,0.1566 -0.12416,0.19589c-0.07909,0.05161 -0.13151,0.02028 -0.15124,0.01857c-0.03475,-0.003 0.13175,-0.09503 0.13912,-0.18036c0.00471,-0.0546 0.06162,-0.16126 0.10078,-0.20791c0.02204,-0.02627 0.08233,-0.01427 0.08233,-0.01427c0,0 -0.03275,0.1482 -0.04683,0.18809z" fill="url(#color-6)" stroke="none" stroke-width="0"/><path d="M239.69383,180.31857c-0.06624,0.05641 -0.11779,0.03391 -0.13602,0.03466c-0.03211,0.00132 0.10524,-0.10156 0.10198,-0.1804c-0.00207,-0.05045 0.0415,-0.15525 0.07183,-0.20247c0.01708,-0.02659 0.07358,-0.02267 0.07358,-0.02267c0,0 -0.0126,0.13926 -0.02081,0.17736c-0.00783,0.03632 -0.04013,0.15059 -0.09055,0.19353z" fill="url(#color-7)" stroke="none" stroke-width="0"/><path d="M239.89263,180.07139c-0.00444,0.03689 -0.02604,0.15365 -0.07229,0.20107c-0.06074,0.06229 -0.11584,0.04701 -0.13393,0.04944c-0.03185,0.00429 0.097,-0.11358 0.08649,-0.19179c-0.00673,-0.05004 0.02706,-0.15805 0.05291,-0.20788c0.01455,-0.02805 0.05327,0.08599 0.05327,0.08599c0,0 0.01822,0.02447 0.01356,0.06315z" fill="url(#color-8)" stroke="none" stroke-width="0"/><path d="M238.57349,180.43643c-0.14355,0.00071 -0.15967,-0.10138 -0.1768,-0.12237c-0.03016,-0.03695 0.21211,-0.00829 0.32871,-0.12521c0.0746,-0.07482 0.29932,-0.2269 0.39746,-0.25788c0.05525,-0.01745 0.06615,0.06951 0.06615,0.06951c0,0 -0.16529,0.17231 -0.29,0.27741c-0.06158,0.05189 -0.21625,0.15801 -0.32552,0.15854z" fill="url(#color-9)" stroke="none" stroke-width="0"/><path d="M238.41128,180.36054c-0.14334,-0.00796 -0.15327,-0.11083 -0.16909,-0.1328c-0.02788,-0.0387 0.21222,0.00451 0.33566,-0.10518c0.07898,-0.07018 0.31245,-0.20845 0.41228,-0.23346c0.05621,-0.01408 0.06183,0.07337 0.06183,0.07337c0,0 -0.17537,0.16204 -0.30619,0.25942c-0.06458,0.04808 -0.22539,0.14469 -0.33449,0.13863z" fill="url(#color-10)" stroke="none" stroke-width="0"/><path d="M238.25398,180.22158c-0.14121,-0.02585 -0.13817,-0.12916 -0.15112,-0.15295c-0.02281,-0.04189 0.20998,0.03108 0.34619,-0.06227c0.08714,-0.05973 0.33611,-0.16766 0.43829,-0.17995c0.05752,-0.00693 0.05214,0.08055 0.05214,0.08055c0,0 -0.1943,0.13878 -0.33629,0.21901c-0.07011,0.03961 -0.24174,0.1153 -0.34923,0.09562z" fill="url(#color-11)" stroke="none" stroke-width="0"/><path d="M238.1532,180.09283c-0.13873,-0.03689 -0.12758,-0.13965 -0.13861,-0.16438c-0.01944,-0.04355 0.20689,0.04752 0.35002,-0.03482c0.09158,-0.05268 0.34828,-0.14067 0.4511,-0.14488c0.05789,-0.00237 0.04564,0.08441 0.04564,0.08441c0,0 -0.20462,0.12305 -0.35249,0.19185c-0.073,0.03396 -0.25006,0.0959 -0.35567,0.06783z" fill="url(#color-12)" stroke="none" stroke-width="0"/><path d="M238.9136,179.89081c-0.09955,-0.06182 -0.12009,-0.13218 -0.11638,-0.14655c0.00289,-0.01119 0.0783,-0.07484 0.20116,-0.02612c0.10186,0.04039 0.23928,0.16646 0.24515,0.15626c0.02325,-0.04045 0.07505,-0.07899 0.13795,-0.0842c0.03689,-0.00305 0.09813,-0.00958 0.15896,-0.00422c0.09804,0.00863 0.20355,0.03608 0.26835,0.06842c0.05912,0.0295 0.0717,0.21966 0.0717,0.21966c0,0 -0.19049,-0.00083 -0.36973,-0.02817c-0.12274,-0.01872 -0.26021,-0.02835 -0.36512,-0.05432c-0.11042,-0.02734 -0.19783,-0.07952 -0.23204,-0.10076z" fill="url(#color-13)" stroke="none" stroke-width="0"/><path d="M241.13274,180.31231c-0.09686,0.00923 -0.21264,-0.06275 -0.25678,-0.0992c-0.08939,-0.07381 -0.2012,-0.1983 -0.2012,-0.1983c0,0 0.02725,-0.07116 0.07275,-0.06197c0.08082,0.01632 0.24945,0.11923 0.3005,0.17302c0.0798,0.08408 0.30057,0.0395 0.26633,0.072c-0.01944,0.01845 -0.05439,0.10229 -0.18162,0.11443z" data-paper-data="{&quot;index&quot;:null}" fill="url(#color-14)" stroke="none" stroke-width="0"/><path d="M240.90654,180.37285c-0.09704,-0.00714 -0.19911,-0.09751 -0.2365,-0.14084c-0.07575,-0.08775 -0.1651,-0.22922 -0.1651,-0.22922c0,0 0.0388,-0.06558 0.08212,-0.04889c0.07693,0.02964 0.20236,0.14973 0.24367,0.21133c0.06457,0.09627 0.33677,0.13208 0.29757,0.15838c-0.02226,0.01493 -0.09429,0.05861 -0.22177,0.04924z" data-paper-data="{&quot;index&quot;:null}" fill="url(#color-15)" stroke="none" stroke-width="0"/><path d="M240.49366,180.22471c-0.05091,-0.09162 -0.10398,-0.23328 -0.10398,-0.23328c0,0 0.04642,-0.05092 0.08168,-0.02818c0.06265,0.0404 0.1666,0.16823 0.19184,0.23036c0.03945,0.09709 0.24912,0.15389 0.20959,0.16996c-0.02245,0.00913 -0.08458,0.06108 -0.19569,0.02933c-0.08458,-0.02417 -0.15832,-0.12295 -0.18346,-0.16818z" data-paper-data="{&quot;index&quot;:null}" fill="url(#color-16)" stroke="none" stroke-width="0"/><path d="M240.34081,180.13812c-0.01409,-0.03988 -0.04684,-0.18809 -0.04684,-0.18809c0,0 0.06029,-0.01199 0.08233,0.01428c0.03916,0.04665 0.09607,0.15331 0.10078,0.20791c0.00736,0.08533 0.17387,0.17736 0.13912,0.18036c-0.01973,0.0017 -0.07214,0.03303 -0.15123,-0.01858c-0.0602,-0.03929 -0.11073,-0.15786 -0.12416,-0.19589z" data-paper-data="{&quot;index&quot;:null}" fill="url(#color-17)" stroke="none" stroke-width="0"/><path d="M240.32448,180.30005c-0.05042,-0.04295 -0.08272,-0.15722 -0.09055,-0.19355c-0.00821,-0.03808 -0.02081,-0.17736 -0.02081,-0.17736c0,0 0.05649,-0.00392 0.07357,0.02267c0.03033,0.04722 0.07391,0.15203 0.07183,0.20247c-0.00325,0.07885 0.1341,0.18173 0.10198,0.18041c-0.01824,-0.00075 -0.06978,0.02175 -0.13603,-0.03466z" data-paper-data="{&quot;index&quot;:null}" fill="url(#color-18)" stroke="none" stroke-width="0"/><path d="M240.12569,180.05286c-0.00466,-0.03868 0.01356,-0.06315 0.01356,-0.06315c0,0 0.03872,-0.11404 0.05327,-0.08599c0.02585,0.04982 0.05964,0.15784 0.05291,0.20788c-0.01051,0.07821 0.11834,0.19607 0.08649,0.19179c-0.01809,-0.00243 -0.07319,0.01284 -0.13393,-0.04944c-0.04624,-0.04742 -0.06785,-0.16419 -0.07229,-0.20108z" data-paper-data="{&quot;index&quot;:null}" fill="url(#color-19)" stroke="none" stroke-width="0"/><path d="M241.44483,180.41791c-0.10927,-0.00053 -0.26396,-0.10666 -0.32554,-0.15855c-0.12471,-0.1051 -0.29,-0.27741 -0.29,-0.27741c0,0 0.01089,-0.08695 0.06614,-0.06951c0.09814,0.03098 0.32287,0.18307 0.39746,0.25788c0.1166,0.11693 0.35887,0.08827 0.32871,0.12521c-0.01712,0.02098 -0.03324,0.12307 -0.17679,0.12237z" data-paper-data="{&quot;index&quot;:null}" fill="url(#color-20)" stroke="none" stroke-width="0"/><path d="M241.60704,180.34202c-0.1091,0.00605 -0.26989,-0.09055 -0.33449,-0.13863c-0.13082,-0.09739 -0.30619,-0.25943 -0.30619,-0.25943c0,0 0.00563,-0.08746 0.06183,-0.07338c0.09984,0.025 0.3333,0.16328 0.41228,0.23346c0.12343,0.10969 0.36354,0.06647 0.33566,0.10518c-0.01583,0.02197 -0.02577,0.12485 -0.1691,0.1328z" data-paper-data="{&quot;index&quot;:null}" fill="url(#color-21)" stroke="none" stroke-width="0"/><path d="M241.76435,180.20305c-0.10748,0.01968 -0.27913,-0.05602 -0.34924,-0.09562c-0.14199,-0.08023 -0.33628,-0.21901 -0.33628,-0.21901c0,0 -0.00538,-0.08747 0.05215,-0.08055c0.10218,0.01229 0.35114,0.12021 0.43829,0.17994c0.13621,0.09336 0.369,0.02039 0.34619,0.06228c-0.01295,0.02379 -0.00992,0.1271 -0.15113,0.15295z" data-paper-data="{&quot;index&quot;:null}" fill="url(#color-22)" stroke="none" stroke-width="0"/><path d="M241.86512,180.07431c-0.10561,0.02808 -0.28267,-0.03386 -0.35568,-0.06782c-0.14786,-0.06879 -0.35249,-0.19185 -0.35249,-0.19185c0,0 -0.01224,-0.08678 0.04565,-0.0844c0.10283,0.00421 0.35952,0.0922 0.4511,0.14488c0.14313,0.08234 0.36946,-0.00874 0.35002,0.03482c-0.01103,0.02473 0.00012,0.12748 -0.13861,0.16437z" data-paper-data="{&quot;index&quot;:null}" fill="url(#color-23)" stroke="none" stroke-width="0"/><path d="M241.10472,179.87229c-0.0342,0.02124 -0.12162,0.07342 -0.23204,0.10076c-0.10491,0.02597 -0.24239,0.0356 -0.36512,0.05432c-0.17924,0.02733 -0.36973,0.02817 -0.36973,0.02817c0,0 0.01256,-0.19018 0.07169,-0.21967c0.06481,-0.03233 0.17031,-0.05978 0.26835,-0.06841c0.06083,-0.00536 0.12207,0.00117 0.15896,0.00422c0.06289,0.00521 0.11471,0.04376 0.13796,0.0842c0.00587,0.01021 0.14329,-0.11587 0.24515,-0.15626c0.12286,-0.04872 0.19827,0.01492 0.20116,0.02612c0.00371,0.01437 -0.01683,0.08473 -0.11638,0.14656z" data-paper-data="{&quot;index&quot;:null}" fill="url(#color-24)" stroke="none" stroke-width="0"/><path d="M240.19931,179.9995c0,0.10066 -0.08414,0.18225 -0.18795,0.18225c-0.1038,0 -0.18795,-0.08159 -0.18795,-0.18225c0,-0.10066 0.08415,-0.18225 0.18795,-0.18225c0.1038,0 0.18795,0.08159 0.18795,0.18225z" fill="url(#color-25)" stroke="none" stroke-width="0"/><path d="M239.80447,178.94291c0.0318,-0.37502 0.14513,-0.59148 0.25311,-0.4835c0.10798,0.108 0.16974,0.49956 0.13793,0.87458c-0.0318,0.37502 -0.14511,0.59149 -0.25311,0.48349c-0.10798,-0.108 -0.16974,-0.49955 -0.13793,-0.87457z" fill="url(#color-26)" stroke="none" stroke-width="0"/><path d="M239.80447,180.666c0.0318,-0.37502 0.14513,-0.59148 0.25311,-0.4835c0.10798,0.108 0.16974,0.49955 0.13794,0.87457c-0.0318,0.37502 -0.14512,0.5915 -0.25312,0.4835c-0.10798,-0.108 -0.16974,-0.49956 -0.13794,-0.87458z" fill="url(#color-27)" stroke="none" stroke-width="0"/></g></g></g></svg>