<svg version="1.1" xmlns="http://www.w3.org/2000/svg" xmlns:xlink="http://www.w3.org/1999/xlink" width="48.08361" height="17.37313" viewBox="0,0,48.08361,17.37313"><g transform="translate(-215.95819,-171.31343)"><g data-paper-data="{&quot;isPaintingLayer&quot;:true}" fill-rule="nonzero" stroke-linecap="round" stroke-linejoin="miter" stroke-miterlimit="10" stroke-dasharray="" stroke-dashoffset="0" style="mix-blend-mode: normal"><g><path d="M262.78905,188.60024l-46.83085,0.08633c0,0 0.08015,-4.24519 0.34284,-6.92497c0.2314,-2.36057 1.97684,-8.34856 1.97684,-8.34856c0,0 6.40715,-1.48696 13.84007,-1.89617c6.05539,-0.33337 14.93335,0.0943 17.0549,0.39988c6.60108,0.9508 10.00883,3.21088 10.00883,3.21088c0,0 1.08082,0.77283 2.5499,5.52874c0.51787,1.67651 0.92829,5.36004 0.92829,5.36004z" fill="#0d1c55" stroke="#08123b" stroke-width="0"/><path d="M217.34013,185.9342c0,0 0.22233,-1.99544 0.5462,-3.71742c0.11616,-0.61761 0.24538,-1.20005 0.38209,-1.64262c1.46908,-4.75591 2.5499,-5.52874 2.5499,-5.52874c0,0 3.40776,-2.26007 10.00883,-3.21088c2.12154,-0.30558 10.99951,-0.73325 17.0549,-0.39988c7.43292,0.40921 13.84007,1.89617 13.84007,1.89617c0,0 1.74544,5.98799 1.97684,8.34856c0.26269,2.67978 0.34284,6.92497 0.34284,6.92497l-46.83085,-0.08633z" data-paper-data="{&quot;index&quot;:null}" fill="#0d1c55" stroke="#08123b" stroke-width="0"/><path d="M263.01732,179.39927c0,0 -15.61967,0.30505 -23.33978,0.30683c-7.6023,0.00175 -22.63288,-0.29623 -22.63288,-0.29623" fill="none" stroke="#c7c8d6" stroke-width="0.5"/></g></g></g></svg>