<svg version="1.1" xmlns="http://www.w3.org/2000/svg" xmlns:xlink="http://www.w3.org/1999/xlink" width="30.11538" height="21.57488" viewBox="0,0,30.11538,21.57488"><g transform="translate(-224.94231,-169.21258)"><g data-paper-data="{&quot;isPaintingLayer&quot;:true}" fill="#091647" fill-rule="nonzero" stroke="#061031" stroke-width="0.5" stroke-linecap="butt" stroke-linejoin="miter" stroke-miterlimit="10" stroke-dasharray="" stroke-dashoffset="0" style="mix-blend-mode: normal"><path d="M225.19251,179.88523c0,0 -0.22742,-10.30548 14.82714,-10.42264c15.05456,-0.11716 14.78773,10.42264 14.78773,10.42264l-0.31463,3.89359c0,0 0.40744,6.61984 -2.32224,6.59795c-0.96087,-0.0077 -6.28707,-1.72207 -12.0714,-1.63882c-5.42562,0.07808 -11.57184,1.83282 -12.09494,1.80001c-2.13226,-0.13377 -2.52358,-6.99179 -2.52358,-6.99179z"/><path d="M240.27717,171.91651c-4.86032,0 -9.80479,-0.39404 -9.80479,-0.39404c0,0 7.21769,0.39403 9.82267,0.39403c4.84434,0 9.432,-0.37908 9.432,-0.37908c0,0 -6.92181,0.37909 -9.44989,0.37909z" data-paper-data="{&quot;index&quot;:null}"/><path d="M240.15905,182.94087c4.82754,0 14.43381,0.70793 14.43381,0.70793c0,0 -9.57158,-0.70792 -14.41592,-0.70792c-4.84375,0 -14.64833,0.70792 -14.64833,0.70792c0,0 9.77013,-0.70793 14.63045,-0.70793z"/><path d="M236.4587,181.01518v-6.81102h7.83465v6.81102z"/></g></g></svg>