<svg version="1.1" xmlns="http://www.w3.org/2000/svg" xmlns:xlink="http://www.w3.org/1999/xlink" width="30.29766" height="21.02298" viewBox="0,0,30.29766,21.02298"><g transform="translate(-224.86395,-169.42385)"><g data-paper-data="{&quot;isPaintingLayer&quot;:true}" fill-rule="nonzero" stroke-linecap="butt" stroke-linejoin="miter" stroke-miterlimit="10" stroke-dasharray="" stroke-dashoffset="0" style="mix-blend-mode: normal"><path d="" fill="#65563b" stroke="none" stroke-width="1"/><path d="" fill="#65563b" stroke="none" stroke-width="1"/><path d="" fill="#65563b" stroke="none" stroke-width="1"/><path d="" fill="#65563b" stroke="none" stroke-width="1"/><path d="" fill="#50764c" stroke="none" stroke-width="1"/><path d="" fill="#35393f" stroke="none" stroke-width="1"/><path d="" fill="#50764c" stroke="none" stroke-width="1"/><path d="" fill="#50764c" stroke="none" stroke-width="1"/><path d="" fill="#50764c" stroke="none" stroke-width="1"/><path d="" fill="#50764c" stroke="none" stroke-width="1"/><path d="" fill="#50764c" stroke="none" stroke-width="1"/><path d="" fill="#50764c" stroke="none" stroke-width="1"/><path d="" fill="#c8bc80" stroke="none" stroke-width="1"/><path d="" fill="#c8bc80" stroke="none" stroke-width="1"/><path d="" fill="#c8bc80" stroke="none" stroke-width="1"/><path d="" fill="#50764c" stroke="none" stroke-width="1"/><path d="" fill="#50764c" stroke="none" stroke-width="1"/><path d="" fill="#50764c" stroke="none" stroke-width="1"/><path d="" fill="#50764c" stroke="none" stroke-width="1"/><path d="" fill="#c8bc80" stroke="none" stroke-width="1"/><path d="" fill="#091647" stroke="#000000" stroke-width="0"/><g><path d="M225.20235,179.67297c0,0 -0.0782,-2.56726 -0.11743,-3.85548c-0.03942,-1.29437 0.28686,-3.46895 0.70737,-3.89237c0.46279,-0.46599 4.14327,-2.36078 14.19783,-2.28109c9.92379,0.07866 13.70723,1.7747 14.19783,2.28109c0.45823,0.47297 0.70966,2.4685 0.69036,3.73601c-0.02,1.31347 -0.06109,4.01184 -0.06109,4.01184l-0.31463,3.89359c0,0 0.40744,6.61984 -2.32224,6.59795c-0.96087,-0.0077 -6.28707,-1.72207 -12.0714,-1.63882c-5.42562,0.07808 -11.57184,1.83283 -12.09494,1.80001c-2.13226,-0.13377 -2.52358,-6.99179 -2.52358,-6.99179z" fill="#9c8856" stroke="#000000" stroke-width="0"/><g stroke="none"><path d="" fill="#9c8856" stroke-width="0"/><path d="" fill="#67633d" stroke-width="1"/><path d="" fill="#67633d" stroke-width="1"/><path d="" fill="#67633d" stroke-width="1"/><path d="" fill="#67633d" stroke-width="1"/><path d="" fill="#c8bc80" stroke-width="1"/><path d="" fill="#805336" stroke-width="1"/><path d="" fill="#55372c" stroke-width="1"/><path d="" fill="#c8bc80" stroke-width="1"/><path d="" fill="#55372c" stroke-width="1"/><path d="M249.79848,170.44125c0.00225,0.26536 -0.0695,0.6461 -0.20718,0.87297c-0.41435,0.70173 -1.37895,0.3698 -2.02276,0.32525c-0.64381,-0.04455 -2.03167,-0.38985 -2.29231,0.50124c-0.15817,0.53911 0.0401,1.2297 -0.25396,1.7287c-0.42549,0.71955 -1.4146,1.23861 -2.25222,1.05594c-0.83762,-0.18267 -0.4099,-1.63068 -0.2094,-2.06286c0.20925,-0.46103 -0.46614,-3.19622 -0.46614,-3.19622c0,0 6.48987,0.52993 7.70397,0.77498z" fill="#55372c" stroke-width="1"/><path d="" fill="#d3ccbc" stroke-width="1"/><path d="" fill="#67633d" stroke-width="1"/><path d="" fill="#67633d" stroke-width="1"/><path d="" fill="#67633d" stroke-width="1"/><path d="" fill="#67633d" stroke-width="1"/><path d="" fill="#67633d" stroke-width="1"/><path d="" fill="#67633d" stroke-width="1"/><path d="" fill="#67633d" stroke-width="1"/><path d="" fill="#805336" stroke-width="1"/><path d="" fill="#c8bc80" stroke-width="1"/><path d="" fill="#c8bc80" stroke-width="1"/><path d="" fill="#805336" stroke-width="1"/><path d="" fill="#c8bc80" stroke-width="1"/><path d="" fill="#bca583" stroke-width="1"/><path d="" fill="#805336" stroke-width="1"/><path d="" fill="#c8bc80" stroke-width="1"/><path d="" fill="#805336" stroke-width="1"/><path d="" fill="#c8bc80" stroke-width="1"/><path d="" fill="#c8bc80" stroke-width="1"/><path d="" fill="#c8bc80" stroke-width="1"/><path d="" fill="#d3ccbc" stroke-width="1"/><path d="" fill="#55372c" stroke-width="1"/><path d="" fill="#55372c" stroke-width="1"/><path d="" fill="#d3ccbc" stroke-width="1"/><path d="" fill="#d3ccbc" stroke-width="1"/><path d="" fill="#55372c" stroke-width="1"/><path d="" fill="#d3ccbc" stroke-width="1"/><path d="" fill="#55372c" stroke-width="1"/><path d="M253.83067,186.00161c0.04678,-0.07574 0.09356,-0.14926 0.13589,-0.22277c0.16606,-0.07241 0.31715,-0.17515 0.44554,-0.30297c0.27401,-0.2651 0.61964,-7.03532 0.47005,-6.74772c-0.70318,0.57173 -1.11614,1.42621 -1.12722,2.33241c-0.00552,0.25293 0.01312,0.50581 0.05569,0.75519v0c-0.02005,0.09356 -0.04233,0.18713 -0.06238,0.28292c-0.12252,0.51683 -0.94009,1.0047 -1.30098,1.35445c-0.4275,0.37971 -0.55279,0.99615 -0.30742,1.51262l-0.0245,0.02673c-0.49501,0.60583 -1.16231,1.04707 -1.9136,1.26534c-0.63935,0.22723 -1.14282,0.91782 -1.7688,1.05816c-0.1614,0.04054 -0.28934,0.16339 -0.33638,0.32302c-0.10247,0.38985 -1.48588,0.95123 -1.624,0.34752c-0.1047,-0.45 -0.02005,-0.87104 -0.24282,-1.29653c-0.4745,-0.92896 -1.28316,0.1604 -1.43242,0.66831c-0.2425,0.88917 0.76548,1.43481 -1.1188,1.20043c-1.97535,-0.24572 -6.69934,0.30458 -6.73166,0.06046c-0.0646,-0.48787 -0.88886,-0.3943 -0.85099,0.09356c0,0.03787 0,0.07351 0,0.10916c-0.00126,0.00962 -0.00126,0.01934 0,0.02896c0.03281,0.29207 -3.41936,0.55536 -3.53759,0.53347c-0.06869,-0.38824 -0.1754,-1.24878 -0.31856,-1.61613c-0.07852,-0.13839 -0.21618,-0.23311 -0.37348,-0.257c-0.1573,-0.0239 -0.31688,0.02566 -0.43295,0.13448c-0.29689,0.21552 -0.51889,0.51854 -0.6349,0.86658c-0.08176,-0.0769 -0.20126,-0.09819 -0.30454,-0.05427c-0.10329,0.04392 -0.17085,0.14475 -0.17219,0.25699c-0.0093,0.23921 0.0621,0.47459 0.20272,0.66831l-0.09579,0.09579c-0.10273,0.09966 -0.10523,0.26373 -0.00557,0.36646c0.09966,0.10273 0.26373,0.10523 0.36646,0.00557c0.03703,-0.03359 0.07129,-0.07009 0.10247,-0.10916c0.04875,0.04387 0.10008,0.08478 0.15371,0.12252c0.00737,0.0041 -5.38132,-2.69265 -4.33735,-2.84256c0.6594,-0.09356 1.24975,-0.12475 1.88019,-0.34752c0.62116,-0.24624 1.27619,-0.39648 1.94256,-0.44554c1.69306,-0.06906 3.35939,-0.34752 5.06359,-0.36312c1.24529,-0.01337 2.50618,0.09134 3.71137,-0.28292c1.00024,-0.30742 2.8782,-1.04702 2.74008,-2.38365c-0.10916,-1.09158 -1.30098,-1.36559 -2.04727,-1.92474c-0.60032,-0.45516 -1.00812,-1.11891 -1.14282,-1.86014c-0.19226,-0.95615 0.18002,-1.93795 0.95792,-2.52622c0.78638,-0.60817 1.93588,-0.66831 2.89602,-0.66831c1.88464,0 4.10567,0.17599 5.86334,-0.59703c0.63267,-0.27846 1.26088,-0.55916 1.89801,-0.80643c0.77849,-0.31723 1.58994,-0.54661 2.41929,-0.68391c1.08855,-0.12295 1.77492,11.89539 0.94008,11.86923z" fill="#67633d" stroke-width="1"/><path d="M241.07699,172.49266c-0.35198,1.22524 -0.62599,2.46162 -1.41014,3.50642c-0.26536,0.35472 -0.55176,0.6932 -0.85767,1.01361c-0.54352,0.56421 -1.14036,1.0745 -1.78217,1.52375c-2.17202,1.52821 -4.95443,2.07623 -7.46506,2.86484c0.48119,1.02475 1.20742,1.93143 0.96683,3.1188c-0.17822,0.88663 -1.399,1.34554 -2.18316,1.2542c-1.5594,-0.18936 -3.3438,-7.68563 -2.02722,-8.24701c0.69059,-0.29406 1.37673,-0.61039 2.08291,-0.8599c0.59034,-0.20049 1.22301,-0.01559 1.81558,-0.22277c0.80643,-0.27178 1.0448,-0.94455 1.53044,-1.5594c0.12698,-0.1604 0.95792,-1.70198 0.95792,-2.47945c0,-0.5547 -1.2297,-1.63514 -1.5594,-2.08068c-0.47921,-0.641 10.26686,-0.66822 10.26686,-0.66822c0,0 -0.16675,2.24923 -0.33572,2.83581z" fill="#c8bc80" stroke-width="1"/><path d="M230.89188,189.78192c-0.03793,0.04786 -0.08046,0.09188 -0.12698,0.13143c-0.10273,0.09966 -0.2668,0.09716 -0.36645,-0.00557c-0.09966,-0.10273 0.10136,-0.46225 0.10136,-0.46225c-0.14062,-0.19372 -0.21202,-0.42911 -0.20272,-0.66831c0.00134,-0.11224 0.0689,-0.21307 0.17219,-0.25699c0.10329,-0.04392 0.64255,-0.59679 0.93944,-0.81231c0.11608,-0.10882 0.27565,-0.15838 0.43295,-0.13448c0.1573,0.0239 0.29496,0.11863 0.37348,0.257c0.14316,0.36735 0.24987,0.7479 0.31856,1.13613c0.11823,0.0219 0.18877,0.23409 0.28079,0.31148c0.19884,0.22061 3.25554,-0.38429 3.2568,-0.39391c0,-0.03564 0,-0.07129 0,-0.10916c-0.02326,-0.28294 -0.18745,-1.59517 0.72697,-1.41257c1.73388,0.34625 1.01688,1.07594 1.04402,1.27901c0.03745,0.28025 2.00492,-0.12592 3.67814,-0.0712c1.21297,0.03967 2.25437,0.42316 2.52826,0.07898c0.31627,-0.39743 0.54201,-0.64972 0.69955,-1.22867c0.14926,-0.51015 0.95792,-1.5995 1.43242,-0.66831c0.21609,0.42549 0.13812,0.85099 0.24282,1.29653c0.13812,0.60371 1.52153,0.04233 1.624,-0.34752c0.04704,-0.15963 0.17498,-0.28248 0.33638,-0.32302c0.62599,-0.14035 1.12945,-0.83539 1.7688,-1.05816c0.75129,-0.21827 1.41859,-0.65951 1.9136,-1.26534l0.0245,-0.02673c-0.24536,-0.51646 -0.12008,-1.13291 0.30742,-1.51262c0.36089,-0.34975 1.17846,-0.83762 1.30098,-1.35445c0.02005,-0.09579 0.04233,-0.18936 0.06238,-0.28292v0c-0.04257,-0.24938 -0.06122,-0.50226 -0.05569,-0.75519c0.01108,-0.90621 0.42404,-1.76069 1.12722,-2.33241c0.1496,-0.2876 -0.19604,6.48263 -0.47005,6.74772c-0.12839,0.12781 -0.27948,0.23056 -0.44554,0.30297c-0.04233,0.07574 -0.08911,0.14926 -0.13589,0.22277c0.04085,0.00128 -0.0951,3.71554 -0.8412,3.84227c-2.03548,0.34572 -7.14312,-1.19201 -11.58274,-1.27767c-5.58527,-0.10776 -10.43956,1.17368 -10.46577,1.15347z" fill="#d3ccbc" stroke-width="1"/><path d="" fill="#67633d" stroke-width="1"/><path d="" fill="#67633d" stroke-width="1"/><path d="" fill="#67633d" stroke-width="1"/><path d="" fill="#67633d" stroke-width="1"/><path d="" fill="#67633d" stroke-width="1"/><path d="" fill="#c8bc80" stroke-width="1"/><path d="" fill="#c8bc80" stroke-width="1"/><path d="" fill="#c8bc80" stroke-width="1"/><path d="" fill="#55372c" stroke-width="1"/><path d="" fill="#55372c" stroke-width="1"/></g><g fill="none" stroke="#000000" stroke-width="0.5"><path d="M225.23461,179.70523c0,0 -0.0782,-2.56726 -0.11743,-3.85548c-0.03942,-1.29437 0.28686,-3.46895 0.70737,-3.89237c0.46279,-0.46599 4.14327,-2.36078 14.19783,-2.28109c9.92379,0.07866 13.70723,1.7747 14.19783,2.28109c0.45823,0.47297 0.70966,2.4685 0.69036,3.73601c-0.02,1.31347 -0.06109,4.01184 -0.06109,4.01184l-0.31463,3.89359c0,0 0.40744,6.61984 -2.32224,6.59795c-0.96087,-0.0077 -6.28707,-1.72207 -12.0714,-1.63882c-5.42562,0.07808 -11.57184,1.83283 -12.09494,1.80001c-2.13226,-0.13377 -2.52358,-6.99179 -2.52358,-6.99179z"/><path d="M225.50991,183.35747l-0.23598,-3.73627c0,0 9.96678,-0.70792 14.8271,-0.70792c4.82754,0 14.74844,0.74725 14.74844,0.74725l-0.27531,3.69694c0,0 -9.61961,-0.94389 -14.4338,-0.94389c-4.87318,0 -14.63045,0.94389 -14.63045,0.94389z"/><path d="M240.20113,171.93412c4.82754,0 14.43381,0.70793 14.43381,0.70793c0,0 -9.57158,-0.70792 -14.41592,-0.70792c-4.84375,0 -14.64833,0.70792 -14.64833,0.70792c0,0 9.77013,-0.70793 14.63045,-0.70793z"/></g></g><path d="" fill="#9c8856" stroke="none" stroke-width="0"/><path d="" fill="#67633d" stroke="none" stroke-width="1"/><path d="" fill="#67633d" stroke="none" stroke-width="1"/><path d="" fill="#67633d" stroke="none" stroke-width="1"/><path d="" fill="#67633d" stroke="none" stroke-width="1"/><path d="" fill="#c8bc80" stroke="none" stroke-width="1"/><path d="" fill="#805336" stroke="none" stroke-width="1"/><path d="" fill="#55372c" stroke="none" stroke-width="1"/><path d="" fill="#c8bc80" stroke="none" stroke-width="1"/><path d="" fill="#55372c" stroke="none" stroke-width="1"/><path d="" fill="#d3ccbc" stroke="none" stroke-width="1"/><path d="" fill="#67633d" stroke="none" stroke-width="1"/><path d="" fill="#67633d" stroke="none" stroke-width="1"/><path d="" fill="#67633d" stroke="none" stroke-width="1"/><path d="" fill="#67633d" stroke="none" stroke-width="1"/><path d="" fill="#67633d" stroke="none" stroke-width="1"/><path d="" fill="#67633d" stroke="none" stroke-width="1"/><path d="" fill="#67633d" stroke="none" stroke-width="1"/><path d="" fill="#805336" stroke="none" stroke-width="1"/><path d="" fill="#c8bc80" stroke="none" stroke-width="1"/><path d="" fill="#c8bc80" stroke="none" stroke-width="1"/><path d="" fill="#805336" stroke="none" stroke-width="1"/><path d="" fill="#c8bc80" stroke="none" stroke-width="1"/><path d="" fill="#bca583" stroke="none" stroke-width="1"/><path d="" fill="#805336" stroke="none" stroke-width="1"/><path d="" fill="#c8bc80" stroke="none" stroke-width="1"/><path d="" fill="#805336" stroke="none" stroke-width="1"/><path d="" fill="#c8bc80" stroke="none" stroke-width="1"/><path d="" fill="#c8bc80" stroke="none" stroke-width="1"/><path d="" fill="#c8bc80" stroke="none" stroke-width="1"/><path d="" fill="#d3ccbc" stroke="none" stroke-width="1"/><path d="" fill="#55372c" stroke="none" stroke-width="1"/><path d="" fill="#55372c" stroke="none" stroke-width="1"/><path d="" fill="#d3ccbc" stroke="none" stroke-width="1"/><path d="" fill="#d3ccbc" stroke="none" stroke-width="1"/><path d="" fill="#55372c" stroke="none" stroke-width="1"/><path d="" fill="#d3ccbc" stroke="none" stroke-width="1"/><path d="" fill="#55372c" stroke="none" stroke-width="1"/><path d="" fill="#67633d" stroke="none" stroke-width="1"/><path d="" fill="#67633d" stroke="none" stroke-width="1"/><path d="" fill="#67633d" stroke="none" stroke-width="1"/><path d="" fill="#67633d" stroke="none" stroke-width="1"/><path d="" fill="#67633d" stroke="none" stroke-width="1"/><path d="" fill="#c8bc80" stroke="none" stroke-width="1"/><path d="" fill="#c8bc80" stroke="none" stroke-width="1"/><path d="" fill="#c8bc80" stroke="none" stroke-width="1"/><path d="" fill="#55372c" stroke="none" stroke-width="1"/><path d="" fill="#55372c" stroke="none" stroke-width="1"/></g></g></svg>