<svg version="1.1" xmlns="http://www.w3.org/2000/svg" xmlns:xlink="http://www.w3.org/1999/xlink" width="11.83861" height="41.20168" viewBox="0,0,11.83861,41.20168"><defs><radialGradient cx="235.58084" cy="198.41392" r="1.84773" gradientUnits="userSpaceOnUse" id="color-1"><stop offset="0" stop-color="#3c3c3c"/><stop offset="1" stop-color="#090909"/></radialGradient><radialGradient cx="235.6179" cy="197.04616" r="1.22369" gradientUnits="userSpaceOnUse" id="color-2"><stop offset="0" stop-color="#3c3c3c"/><stop offset="1" stop-color="#090909"/></radialGradient><radialGradient cx="235.82553" cy="196.14088" r="1.22369" gradientUnits="userSpaceOnUse" id="color-3"><stop offset="0" stop-color="#3c3c3c"/><stop offset="1" stop-color="#090909"/></radialGradient><radialGradient cx="234.63245" cy="196.27573" r="1.22406" gradientUnits="userSpaceOnUse" id="color-4"><stop offset="0" stop-color="#3c3c3c"/><stop offset="1" stop-color="#090909"/></radialGradient><radialGradient cx="236.73101" cy="196.89024" r="1.22407" gradientUnits="userSpaceOnUse" id="color-5"><stop offset="0" stop-color="#3c3c3c"/><stop offset="1" stop-color="#090909"/></radialGradient><radialGradient cx="236.09513" cy="195.18194" r="1.22369" gradientUnits="userSpaceOnUse" id="color-6"><stop offset="0" stop-color="#3c3c3c"/><stop offset="1" stop-color="#090909"/></radialGradient><radialGradient cx="236.30276" cy="194.27665" r="1.22369" gradientUnits="userSpaceOnUse" id="color-7"><stop offset="0" stop-color="#3c3c3c"/><stop offset="1" stop-color="#090909"/></radialGradient><radialGradient cx="235.10967" cy="194.41151" r="1.22406" gradientUnits="userSpaceOnUse" id="color-8"><stop offset="0" stop-color="#3c3c3c"/><stop offset="1" stop-color="#090909"/></radialGradient><radialGradient cx="237.20824" cy="195.02601" r="1.22406" gradientUnits="userSpaceOnUse" id="color-9"><stop offset="0" stop-color="#3c3c3c"/><stop offset="1" stop-color="#090909"/></radialGradient><radialGradient cx="236.58424" cy="193.31199" r="1.22369" gradientUnits="userSpaceOnUse" id="color-10"><stop offset="0" stop-color="#3c3c3c"/><stop offset="1" stop-color="#090909"/></radialGradient><radialGradient cx="236.79187" cy="192.4067" r="1.22369" gradientUnits="userSpaceOnUse" id="color-11"><stop offset="0" stop-color="#3c3c3c"/><stop offset="1" stop-color="#090909"/></radialGradient><radialGradient cx="235.59879" cy="192.54155" r="1.22407" gradientUnits="userSpaceOnUse" id="color-12"><stop offset="0" stop-color="#3c3c3c"/><stop offset="1" stop-color="#090909"/></radialGradient><radialGradient cx="237.69735" cy="193.15606" r="1.22407" gradientUnits="userSpaceOnUse" id="color-13"><stop offset="0" stop-color="#3c3c3c"/><stop offset="1" stop-color="#090909"/></radialGradient><radialGradient cx="237.06147" cy="191.44776" r="1.22369" gradientUnits="userSpaceOnUse" id="color-14"><stop offset="0" stop-color="#3c3c3c"/><stop offset="1" stop-color="#090909"/></radialGradient><radialGradient cx="237.26909" cy="190.54248" r="1.22369" gradientUnits="userSpaceOnUse" id="color-15"><stop offset="0" stop-color="#3c3c3c"/><stop offset="1" stop-color="#090909"/></radialGradient><radialGradient cx="236.07601" cy="190.67733" r="1.22406" gradientUnits="userSpaceOnUse" id="color-16"><stop offset="0" stop-color="#3c3c3c"/><stop offset="1" stop-color="#090909"/></radialGradient><radialGradient cx="238.17458" cy="191.29184" r="1.22406" gradientUnits="userSpaceOnUse" id="color-17"><stop offset="0" stop-color="#3c3c3c"/><stop offset="1" stop-color="#090909"/></radialGradient><radialGradient cx="237.51787" cy="189.54067" r="1.22369" gradientUnits="userSpaceOnUse" id="color-18"><stop offset="0" stop-color="#3c3c3c"/><stop offset="1" stop-color="#090909"/></radialGradient><radialGradient cx="237.68541" cy="188.62711" r="1.22369" gradientUnits="userSpaceOnUse" id="color-19"><stop offset="0" stop-color="#3c3c3c"/><stop offset="1" stop-color="#090909"/></radialGradient><radialGradient cx="236.49943" cy="188.8144" r="1.22407" gradientUnits="userSpaceOnUse" id="color-20"><stop offset="0" stop-color="#3c3c3c"/><stop offset="1" stop-color="#090909"/></radialGradient><radialGradient cx="238.62303" cy="189.33584" r="1.22407" gradientUnits="userSpaceOnUse" id="color-21"><stop offset="0" stop-color="#3c3c3c"/><stop offset="1" stop-color="#090909"/></radialGradient><radialGradient cx="237.91249" cy="187.65722" r="1.22369" gradientUnits="userSpaceOnUse" id="color-22"><stop offset="0" stop-color="#3c3c3c"/><stop offset="1" stop-color="#090909"/></radialGradient><radialGradient cx="238.08002" cy="186.74366" r="1.22369" gradientUnits="userSpaceOnUse" id="color-23"><stop offset="0" stop-color="#3c3c3c"/><stop offset="1" stop-color="#090909"/></radialGradient><radialGradient cx="236.89404" cy="186.93096" r="1.22406" gradientUnits="userSpaceOnUse" id="color-24"><stop offset="0" stop-color="#3c3c3c"/><stop offset="1" stop-color="#090909"/></radialGradient><radialGradient cx="239.01764" cy="187.4524" r="1.22406" gradientUnits="userSpaceOnUse" id="color-25"><stop offset="0" stop-color="#3c3c3c"/><stop offset="1" stop-color="#090909"/></radialGradient><radialGradient cx="238.31873" cy="185.76753" r="1.22369" gradientUnits="userSpaceOnUse" id="color-26"><stop offset="0" stop-color="#3c3c3c"/><stop offset="1" stop-color="#090909"/></radialGradient><radialGradient cx="238.48626" cy="184.85398" r="1.22369" gradientUnits="userSpaceOnUse" id="color-27"><stop offset="0" stop-color="#3c3c3c"/><stop offset="1" stop-color="#090909"/></radialGradient><radialGradient cx="237.30028" cy="185.04127" r="1.22407" gradientUnits="userSpaceOnUse" id="color-28"><stop offset="0" stop-color="#3c3c3c"/><stop offset="1" stop-color="#090909"/></radialGradient><radialGradient cx="239.42389" cy="185.56271" r="1.22407" gradientUnits="userSpaceOnUse" id="color-29"><stop offset="0" stop-color="#3c3c3c"/><stop offset="1" stop-color="#090909"/></radialGradient><radialGradient cx="238.71334" cy="183.88409" r="1.22369" gradientUnits="userSpaceOnUse" id="color-30"><stop offset="0" stop-color="#3c3c3c"/><stop offset="1" stop-color="#090909"/></radialGradient><radialGradient cx="238.88088" cy="182.97053" r="1.22369" gradientUnits="userSpaceOnUse" id="color-31"><stop offset="0" stop-color="#3c3c3c"/><stop offset="1" stop-color="#090909"/></radialGradient><radialGradient cx="237.6949" cy="183.15783" r="1.22406" gradientUnits="userSpaceOnUse" id="color-32"><stop offset="0" stop-color="#3c3c3c"/><stop offset="1" stop-color="#090909"/></radialGradient><radialGradient cx="239.8185" cy="183.67927" r="1.22406" gradientUnits="userSpaceOnUse" id="color-33"><stop offset="0" stop-color="#3c3c3c"/><stop offset="1" stop-color="#090909"/></radialGradient><radialGradient cx="239.14507" cy="181.99798" r="1.2237" gradientUnits="userSpaceOnUse" id="color-34"><stop offset="0" stop-color="#3c3c3c"/><stop offset="1" stop-color="#090909"/></radialGradient><radialGradient cx="239.30499" cy="181.08306" r="1.22369" gradientUnits="userSpaceOnUse" id="color-35"><stop offset="0" stop-color="#3c3c3c"/><stop offset="1" stop-color="#090909"/></radialGradient><radialGradient cx="238.12061" cy="181.28022" r="1.22407" gradientUnits="userSpaceOnUse" id="color-36"><stop offset="0" stop-color="#3c3c3c"/><stop offset="1" stop-color="#090909"/></radialGradient><radialGradient cx="240.24849" cy="181.78396" r="1.22406" gradientUnits="userSpaceOnUse" id="color-37"><stop offset="0" stop-color="#3c3c3c"/><stop offset="1" stop-color="#090909"/></radialGradient><radialGradient cx="239.524" cy="180.11131" r="1.22369" gradientUnits="userSpaceOnUse" id="color-38"><stop offset="0" stop-color="#3c3c3c"/><stop offset="1" stop-color="#090909"/></radialGradient><radialGradient cx="239.68392" cy="179.19639" r="1.22369" gradientUnits="userSpaceOnUse" id="color-39"><stop offset="0" stop-color="#3c3c3c"/><stop offset="1" stop-color="#090909"/></radialGradient><radialGradient cx="238.49954" cy="179.39355" r="1.22407" gradientUnits="userSpaceOnUse" id="color-40"><stop offset="0" stop-color="#3c3c3c"/><stop offset="1" stop-color="#090909"/></radialGradient><radialGradient cx="240.62741" cy="179.8973" r="1.22407" gradientUnits="userSpaceOnUse" id="color-41"><stop offset="0" stop-color="#3c3c3c"/><stop offset="1" stop-color="#090909"/></radialGradient><radialGradient cx="239.9145" cy="178.21831" r="1.22369" gradientUnits="userSpaceOnUse" id="color-42"><stop offset="0" stop-color="#3c3c3c"/><stop offset="1" stop-color="#090909"/></radialGradient><radialGradient cx="240.07442" cy="177.30339" r="1.22369" gradientUnits="userSpaceOnUse" id="color-43"><stop offset="0" stop-color="#3c3c3c"/><stop offset="1" stop-color="#090909"/></radialGradient><radialGradient cx="238.89005" cy="177.50055" r="1.22406" gradientUnits="userSpaceOnUse" id="color-44"><stop offset="0" stop-color="#3c3c3c"/><stop offset="1" stop-color="#090909"/></radialGradient><radialGradient cx="241.01792" cy="178.0043" r="1.22407" gradientUnits="userSpaceOnUse" id="color-45"><stop offset="0" stop-color="#3c3c3c"/><stop offset="1" stop-color="#090909"/></radialGradient><radialGradient cx="240.29343" cy="176.33165" r="1.22369" gradientUnits="userSpaceOnUse" id="color-46"><stop offset="0" stop-color="#3c3c3c"/><stop offset="1" stop-color="#090909"/></radialGradient><radialGradient cx="240.45335" cy="175.41673" r="1.22369" gradientUnits="userSpaceOnUse" id="color-47"><stop offset="0" stop-color="#3c3c3c"/><stop offset="1" stop-color="#090909"/></radialGradient><radialGradient cx="239.26897" cy="175.61389" r="1.22407" gradientUnits="userSpaceOnUse" id="color-48"><stop offset="0" stop-color="#3c3c3c"/><stop offset="1" stop-color="#090909"/></radialGradient><radialGradient cx="241.39684" cy="176.11764" r="1.22406" gradientUnits="userSpaceOnUse" id="color-49"><stop offset="0" stop-color="#3c3c3c"/><stop offset="1" stop-color="#090909"/></radialGradient><radialGradient cx="240.77938" cy="174.42769" r="1.22369" gradientUnits="userSpaceOnUse" id="color-50"><stop offset="0" stop-color="#3c3c3c"/><stop offset="1" stop-color="#090909"/></radialGradient><radialGradient cx="240.98148" cy="173.52115" r="1.22369" gradientUnits="userSpaceOnUse" id="color-51"><stop offset="0" stop-color="#3c3c3c"/><stop offset="1" stop-color="#090909"/></radialGradient><radialGradient cx="239.78924" cy="173.66328" r="1.22407" gradientUnits="userSpaceOnUse" id="color-52"><stop offset="0" stop-color="#3c3c3c"/><stop offset="1" stop-color="#090909"/></radialGradient><radialGradient cx="241.89152" cy="174.26497" r="1.22406" gradientUnits="userSpaceOnUse" id="color-53"><stop offset="0" stop-color="#3c3c3c"/><stop offset="1" stop-color="#090909"/></radialGradient><radialGradient cx="241.24523" cy="172.56058" r="1.22369" gradientUnits="userSpaceOnUse" id="color-54"><stop offset="0" stop-color="#3c3c3c"/><stop offset="1" stop-color="#090909"/></radialGradient><radialGradient cx="241.44733" cy="171.65405" r="1.22369" gradientUnits="userSpaceOnUse" id="color-55"><stop offset="0" stop-color="#3c3c3c"/><stop offset="1" stop-color="#090909"/></radialGradient><radialGradient cx="240.25509" cy="171.79618" r="1.22407" gradientUnits="userSpaceOnUse" id="color-56"><stop offset="0" stop-color="#3c3c3c"/><stop offset="1" stop-color="#090909"/></radialGradient><radialGradient cx="242.35737" cy="172.39787" r="1.22406" gradientUnits="userSpaceOnUse" id="color-57"><stop offset="0" stop-color="#3c3c3c"/><stop offset="1" stop-color="#090909"/></radialGradient><radialGradient cx="241.72293" cy="170.68769" r="1.22369" gradientUnits="userSpaceOnUse" id="color-58"><stop offset="0" stop-color="#3c3c3c"/><stop offset="1" stop-color="#090909"/></radialGradient><radialGradient cx="241.92503" cy="169.78115" r="1.22369" gradientUnits="userSpaceOnUse" id="color-59"><stop offset="0" stop-color="#3c3c3c"/><stop offset="1" stop-color="#090909"/></radialGradient><radialGradient cx="240.73279" cy="169.92328" r="1.22407" gradientUnits="userSpaceOnUse" id="color-60"><stop offset="0" stop-color="#3c3c3c"/><stop offset="1" stop-color="#090909"/></radialGradient><radialGradient cx="242.83506" cy="170.52497" r="1.22407" gradientUnits="userSpaceOnUse" id="color-61"><stop offset="0" stop-color="#3c3c3c"/><stop offset="1" stop-color="#090909"/></radialGradient><radialGradient cx="242.18877" cy="168.82059" r="1.22369" gradientUnits="userSpaceOnUse" id="color-62"><stop offset="0" stop-color="#3c3c3c"/><stop offset="1" stop-color="#090909"/></radialGradient><radialGradient cx="242.39087" cy="167.91405" r="1.22369" gradientUnits="userSpaceOnUse" id="color-63"><stop offset="0" stop-color="#3c3c3c"/><stop offset="1" stop-color="#090909"/></radialGradient><radialGradient cx="241.19863" cy="168.05617" r="1.22407" gradientUnits="userSpaceOnUse" id="color-64"><stop offset="0" stop-color="#3c3c3c"/><stop offset="1" stop-color="#090909"/></radialGradient><radialGradient cx="243.30091" cy="168.65787" r="1.22407" gradientUnits="userSpaceOnUse" id="color-65"><stop offset="0" stop-color="#3c3c3c"/><stop offset="1" stop-color="#090909"/></radialGradient><radialGradient cx="242.69618" cy="166.95255" r="1.22369" gradientUnits="userSpaceOnUse" id="color-66"><stop offset="0" stop-color="#3c3c3c"/><stop offset="1" stop-color="#090909"/></radialGradient><radialGradient cx="242.9198" cy="166.05108" r="1.22369" gradientUnits="userSpaceOnUse" id="color-67"><stop offset="0" stop-color="#3c3c3c"/><stop offset="1" stop-color="#090909"/></radialGradient><radialGradient cx="241.72452" cy="166.16479" r="1.22406" gradientUnits="userSpaceOnUse" id="color-68"><stop offset="0" stop-color="#3c3c3c"/><stop offset="1" stop-color="#090909"/></radialGradient><radialGradient cx="243.81187" cy="166.81635" r="1.22406" gradientUnits="userSpaceOnUse" id="color-69"><stop offset="0" stop-color="#3c3c3c"/><stop offset="1" stop-color="#090909"/></radialGradient><radialGradient cx="243.20633" cy="165.09706" r="1.22369" gradientUnits="userSpaceOnUse" id="color-70"><stop offset="0" stop-color="#3c3c3c"/><stop offset="1" stop-color="#090909"/></radialGradient><radialGradient cx="243.42996" cy="164.1956" r="1.22369" gradientUnits="userSpaceOnUse" id="color-71"><stop offset="0" stop-color="#3c3c3c"/><stop offset="1" stop-color="#090909"/></radialGradient><radialGradient cx="242.23467" cy="164.3093" r="1.22406" gradientUnits="userSpaceOnUse" id="color-72"><stop offset="0" stop-color="#3c3c3c"/><stop offset="1" stop-color="#090909"/></radialGradient><radialGradient cx="244.32203" cy="164.96087" r="1.22406" gradientUnits="userSpaceOnUse" id="color-73"><stop offset="0" stop-color="#3c3c3c"/><stop offset="1" stop-color="#090909"/></radialGradient><radialGradient cx="243.72848" cy="163.23607" r="1.22369" gradientUnits="userSpaceOnUse" id="color-74"><stop offset="0" stop-color="#3c3c3c"/><stop offset="1" stop-color="#090909"/></radialGradient><radialGradient cx="243.9521" cy="162.3346" r="1.22369" gradientUnits="userSpaceOnUse" id="color-75"><stop offset="0" stop-color="#3c3c3c"/><stop offset="1" stop-color="#090909"/></radialGradient><radialGradient cx="242.75682" cy="162.44831" r="1.22406" gradientUnits="userSpaceOnUse" id="color-76"><stop offset="0" stop-color="#3c3c3c"/><stop offset="1" stop-color="#090909"/></radialGradient><radialGradient cx="244.84417" cy="163.09988" r="1.22406" gradientUnits="userSpaceOnUse" id="color-77"><stop offset="0" stop-color="#3c3c3c"/><stop offset="1" stop-color="#090909"/></radialGradient><radialGradient cx="244.23863" cy="161.38058" r="1.22369" gradientUnits="userSpaceOnUse" id="color-78"><stop offset="0" stop-color="#3c3c3c"/><stop offset="1" stop-color="#090909"/></radialGradient><radialGradient cx="244.46226" cy="160.47912" r="1.22369" gradientUnits="userSpaceOnUse" id="color-79"><stop offset="0" stop-color="#3c3c3c"/><stop offset="1" stop-color="#090909"/></radialGradient><radialGradient cx="243.26697" cy="160.59282" r="1.22407" gradientUnits="userSpaceOnUse" id="color-80"><stop offset="0" stop-color="#3c3c3c"/><stop offset="1" stop-color="#090909"/></radialGradient><radialGradient cx="245.35433" cy="161.24439" r="1.22406" gradientUnits="userSpaceOnUse" id="color-81"><stop offset="0" stop-color="#3c3c3c"/><stop offset="1" stop-color="#090909"/></radialGradient></defs><g transform="translate(-234.0807,-159.39915)"><g data-paper-data="{&quot;isPaintingLayer&quot;:true}" fill-rule="nonzero" stroke="none" stroke-linecap="butt" stroke-linejoin="miter" stroke-miterlimit="10" stroke-dasharray="" stroke-dashoffset="0" style="mix-blend-mode: normal"><g><path d="M235.8928,199.53239c-0.13181,0.67031 -0.18307,1.11359 -0.74854,1.06479c-0.47635,-0.04111 -0.50597,-0.43651 -0.38586,-1.17795c0.02247,-0.13873 0.16907,-0.95425 0.18985,-1.0599c0.13181,-0.67031 0.30578,-1.20792 0.87125,-1.15912c0.56547,0.0488 0.41757,0.56991 0.28575,1.24023z" fill="url(#color-1)" stroke-width="NaN"/><g><path d="M235.80343,196.39112c0.65045,0.18422 1.09468,0.62683 0.99221,0.98861c-0.10246,0.36177 -0.71281,0.50571 -1.36326,0.32149c-0.65045,-0.18422 -1.09467,-0.62684 -0.99221,-0.98861c0.10246,-0.36177 0.71281,-0.50571 1.36326,-0.32148z" fill="url(#color-2)" stroke-width="NaN"/><path d="M236.01105,195.48583c0.65045,0.18422 1.09467,0.62683 0.99221,0.98861c-0.10246,0.36177 -0.71281,0.50571 -1.36326,0.32149c-0.65045,-0.18422 -1.09468,-0.62684 -0.99221,-0.98861c0.10246,-0.36177 0.71281,-0.5057 1.36326,-0.32148z" fill="url(#color-3)" stroke-width="NaN"/><path d="M234.97283,196.34211c-0.16478,0.65564 -0.27407,1.21241 -0.63873,1.12077c-0.36467,-0.09164 -0.27437,-0.63402 -0.10959,-1.28967c0.16478,-0.65564 0.34164,-1.17627 0.7063,-1.08462c0.36467,0.09164 0.20681,0.59788 0.04203,1.25352z" fill="url(#color-4)" stroke-width="NaN"/><path d="M237.02936,195.70309c0.36467,0.09164 0.27438,0.63402 0.1096,1.28967c-0.16478,0.65564 -0.34164,1.17627 -0.7063,1.08462c-0.36467,-0.09164 -0.19775,-0.63393 -0.03297,-1.28957c0.16478,-0.65564 0.26501,-1.17637 0.62967,-1.08472z" data-paper-data="{&quot;index&quot;:null}" fill="url(#color-5)" stroke-width="NaN"/><path d="M236.28065,194.52689c0.65045,0.18422 1.09468,0.62683 0.99221,0.9886c-0.10246,0.36177 -0.71281,0.50571 -1.36326,0.32149c-0.65045,-0.18422 -1.09468,-0.62684 -0.99222,-0.98861c0.10246,-0.36177 0.71282,-0.50571 1.36327,-0.32148z" fill="url(#color-6)" stroke-width="NaN"/><path d="M236.48828,193.6216c0.65045,0.18422 1.09468,0.62683 0.99222,0.98861c-0.10246,0.36177 -0.71281,0.50571 -1.36326,0.32148c-0.65045,-0.18422 -1.09468,-0.62683 -0.99222,-0.98861c0.10246,-0.36177 0.71281,-0.50571 1.36326,-0.32148z" fill="url(#color-7)" stroke-width="NaN"/><path d="M235.45005,194.47789c-0.16478,0.65564 -0.27407,1.21241 -0.63873,1.12077c-0.36467,-0.09164 -0.27436,-0.63403 -0.10959,-1.28967c0.16478,-0.65564 0.34163,-1.17627 0.70629,-1.08462c0.36467,0.09164 0.20681,0.59788 0.04203,1.25353z" fill="url(#color-8)" stroke-width="NaN"/><path d="M237.50659,193.83887c0.36467,0.09164 0.27438,0.63403 0.1096,1.28967c-0.16478,0.65564 -0.34164,1.17627 -0.7063,1.08462c-0.36467,-0.09164 -0.19774,-0.63393 -0.03297,-1.28958c0.16478,-0.65564 0.26501,-1.17636 0.62967,-1.08472z" data-paper-data="{&quot;index&quot;:null}" fill="url(#color-9)" stroke-width="NaN"/><path d="M236.76977,192.65694c0.65045,0.18422 1.09468,0.62683 0.99221,0.98861c-0.10246,0.36177 -0.71281,0.50571 -1.36326,0.32149c-0.65045,-0.18422 -1.09468,-0.62684 -0.99222,-0.98861c0.10246,-0.36177 0.71282,-0.5057 1.36327,-0.32148z" fill="url(#color-10)" stroke-width="NaN"/><path d="M236.97739,191.75166c0.65045,0.18422 1.09468,0.62683 0.99221,0.98861c-0.10246,0.36177 -0.71281,0.5057 -1.36326,0.32148c-0.65045,-0.18422 -1.09468,-0.62683 -0.99222,-0.98861c0.10246,-0.36177 0.71281,-0.5057 1.36326,-0.32148z" fill="url(#color-11)" stroke-width="NaN"/><path d="M235.93917,192.60794c-0.16478,0.65564 -0.27407,1.21241 -0.63873,1.12077c-0.36467,-0.09164 -0.27437,-0.63403 -0.10959,-1.28967c0.16478,-0.65564 0.34163,-1.17627 0.7063,-1.08462c0.36467,0.09164 0.20681,0.59788 0.04202,1.25352z" fill="url(#color-12)" stroke-width="NaN"/><path d="M237.9957,191.96892c0.36467,0.09164 0.27438,0.63403 0.1096,1.28967c-0.16478,0.65564 -0.34164,1.17627 -0.7063,1.08462c-0.36467,-0.09164 -0.19775,-0.63393 -0.03297,-1.28958c0.16478,-0.65564 0.26501,-1.17636 0.62967,-1.08471z" data-paper-data="{&quot;index&quot;:null}" fill="url(#color-13)" stroke-width="NaN"/><path d="M237.24699,190.79272c0.65045,0.18422 1.09467,0.62684 0.99221,0.98861c-0.10246,0.36177 -0.71281,0.50571 -1.36326,0.32148c-0.65045,-0.18422 -1.09468,-0.62683 -0.99222,-0.98861c0.10246,-0.36177 0.71281,-0.50571 1.36326,-0.32149z" fill="url(#color-14)" stroke-width="NaN"/><path d="M237.45462,189.88743c0.65045,0.18422 1.09468,0.62684 0.99222,0.98861c-0.10246,0.36177 -0.71281,0.50571 -1.36326,0.32149c-0.65045,-0.18422 -1.09468,-0.62684 -0.99222,-0.98862c0.10246,-0.36177 0.71281,-0.50571 1.36326,-0.32148z" fill="url(#color-15)" stroke-width="NaN"/><path d="M236.41639,190.74371c-0.16478,0.65564 -0.27407,1.21241 -0.63873,1.12077c-0.36467,-0.09164 -0.27437,-0.63403 -0.10959,-1.28968c0.16478,-0.65564 0.34163,-1.17627 0.70629,-1.08462c0.36467,0.09164 0.20681,0.59789 0.04203,1.25353z" fill="url(#color-16)" stroke-width="NaN"/><path d="M238.47293,190.10469c0.36467,0.09164 0.27437,0.63402 0.10959,1.28967c-0.16478,0.65564 -0.34164,1.17627 -0.7063,1.08462c-0.36467,-0.09164 -0.19774,-0.63393 -0.03296,-1.28957c0.16478,-0.65564 0.26501,-1.17637 0.62967,-1.08472z" data-paper-data="{&quot;index&quot;:null}" fill="url(#color-17)" stroke-width="NaN"/></g><g><path d="M237.67435,188.87808c0.65794,0.15538 1.12123,0.57799 1.03481,0.94393c-0.08642,0.36594 -0.68983,0.53663 -1.34777,0.38125c-0.65794,-0.15538 -1.12123,-0.57799 -1.03481,-0.94393c0.08642,-0.36594 0.68983,-0.53663 1.34777,-0.38125z" fill="url(#color-18)" stroke-width="NaN"/><path d="M237.84189,187.96452c0.65794,0.15538 1.12123,0.57799 1.03481,0.94393c-0.08642,0.36594 -0.68984,0.53663 -1.34777,0.38125c-0.65794,-0.15538 -1.12123,-0.57799 -1.03481,-0.94393c0.08642,-0.36594 0.68983,-0.53662 1.34777,-0.38124z" fill="url(#color-19)" stroke-width="NaN"/><path d="M236.8424,188.86572c-0.13573,0.66227 -0.22038,1.2233 -0.58873,1.14782c-0.36835,-0.07548 -0.30204,-0.62132 -0.16631,-1.28359c0.13573,-0.66227 0.28947,-1.19018 0.65782,-1.11469c0.36835,0.07548 0.23295,0.58819 0.09722,1.25046z" fill="url(#color-20)" stroke-width="NaN"/><path d="M238.86878,188.1367c0.36835,0.07548 0.30204,0.62132 0.16632,1.28359c-0.13573,0.66227 -0.28947,1.19018 -0.65782,1.11469c-0.36835,-0.07548 -0.22548,-0.6246 -0.08976,-1.28687c0.13573,-0.66227 0.21291,-1.1869 0.58126,-1.11141z" data-paper-data="{&quot;index&quot;:null}" fill="url(#color-21)" stroke-width="NaN"/><path d="M238.06897,186.99463c0.65794,0.15538 1.12123,0.57799 1.03481,0.94393c-0.08642,0.36594 -0.68984,0.53663 -1.34777,0.38125c-0.65794,-0.15538 -1.12124,-0.57799 -1.03481,-0.94393c0.08642,-0.36594 0.68984,-0.53663 1.34777,-0.38125z" fill="url(#color-22)" stroke-width="NaN"/><path d="M238.2365,186.08108c0.65794,0.15538 1.12123,0.57799 1.03481,0.94393c-0.08642,0.36594 -0.68984,0.53663 -1.34777,0.38125c-0.65794,-0.15538 -1.12123,-0.57799 -1.03481,-0.94393c0.08642,-0.36594 0.68983,-0.53662 1.34777,-0.38124z" fill="url(#color-23)" stroke-width="NaN"/><path d="M237.23702,186.98228c-0.13573,0.66227 -0.22039,1.22331 -0.58873,1.14782c-0.36835,-0.07548 -0.30204,-0.62132 -0.16631,-1.28359c0.13573,-0.66227 0.28947,-1.19017 0.65781,-1.11469c0.36835,0.07548 0.23295,0.58819 0.09723,1.25046z" fill="url(#color-24)" stroke-width="NaN"/><path d="M239.2634,186.25326c0.36835,0.07548 0.30204,0.62132 0.16631,1.28359c-0.13573,0.66227 -0.28947,1.19018 -0.65782,1.11469c-0.36835,-0.07548 -0.22549,-0.6246 -0.08976,-1.28687c0.13573,-0.66227 0.21291,-1.1869 0.58126,-1.11141z" data-paper-data="{&quot;index&quot;:null}" fill="url(#color-25)" stroke-width="NaN"/><path d="M238.47521,185.10495c0.65794,0.15538 1.12124,0.57799 1.03482,0.94393c-0.08642,0.36594 -0.68984,0.53663 -1.34777,0.38125c-0.65794,-0.15538 -1.12123,-0.57799 -1.03481,-0.94393c0.08642,-0.36594 0.68983,-0.53663 1.34777,-0.38125z" fill="url(#color-26)" stroke-width="NaN"/><path d="M238.64274,184.19139c0.65794,0.15538 1.12123,0.57799 1.03481,0.94392c-0.08642,0.36594 -0.68983,0.53663 -1.34777,0.38125c-0.65794,-0.15538 -1.12123,-0.57799 -1.03481,-0.94393c0.08642,-0.36594 0.68983,-0.53663 1.34777,-0.38125z" fill="url(#color-27)" stroke-width="NaN"/><path d="M237.64326,185.09259c-0.13573,0.66227 -0.22038,1.22331 -0.58873,1.14783c-0.36835,-0.07548 -0.30204,-0.62132 -0.16631,-1.28359c0.13573,-0.66227 0.28947,-1.19017 0.65781,-1.11469c0.36835,0.07548 0.23295,0.58819 0.09723,1.25046z" fill="url(#color-28)" stroke-width="NaN"/><path d="M239.66964,184.36357c0.36835,0.07548 0.30204,0.62132 0.16631,1.28359c-0.13573,0.66227 -0.28947,1.19017 -0.65782,1.11469c-0.36835,-0.07548 -0.22549,-0.6246 -0.08976,-1.28687c0.13573,-0.66227 0.21292,-1.1869 0.58126,-1.11141z" data-paper-data="{&quot;index&quot;:null}" fill="url(#color-29)" stroke-width="NaN"/><path d="M238.86982,183.22151c0.65794,0.15538 1.12123,0.57799 1.03481,0.94392c-0.08642,0.36594 -0.68983,0.53663 -1.34777,0.38125c-0.65794,-0.15538 -1.12123,-0.57799 -1.03481,-0.94393c0.08642,-0.36594 0.68983,-0.53663 1.34777,-0.38125z" fill="url(#color-30)" stroke-width="NaN"/><path d="M239.03736,182.30794c0.65794,0.15538 1.12124,0.57799 1.03481,0.94393c-0.08642,0.36594 -0.68984,0.53663 -1.34777,0.38125c-0.65794,-0.15538 -1.12123,-0.57799 -1.03481,-0.94393c0.08642,-0.36594 0.68983,-0.53663 1.34777,-0.38125z" fill="url(#color-31)" stroke-width="NaN"/><path d="M238.03787,183.20915c-0.13573,0.66226 -0.22038,1.22331 -0.58873,1.14782c-0.36835,-0.07548 -0.30204,-0.62133 -0.16631,-1.28359c0.13573,-0.66226 0.28947,-1.19017 0.65782,-1.11469c0.36835,0.07548 0.23295,0.58819 0.09722,1.25046z" fill="url(#color-32)" stroke-width="NaN"/><path d="M240.06425,182.48013c0.36835,0.07548 0.30205,0.62133 0.16632,1.28359c-0.13573,0.66227 -0.28947,1.19017 -0.65782,1.11469c-0.36835,-0.07548 -0.22549,-0.6246 -0.08976,-1.28687c0.13573,-0.66227 0.21292,-1.1869 0.58127,-1.11141z" data-paper-data="{&quot;index&quot;:null}" fill="url(#color-33)" stroke-width="NaN"/></g><g><path d="M239.29603,181.33411c0.65921,0.1499 1.126,0.56864 1.04263,0.93528c-0.08337,0.36665 -0.68536,0.54235 -1.34456,0.39245c-0.6592,-0.1499 -1.126,-0.56864 -1.04263,-0.93529c0.08337,-0.36665 0.68535,-0.54235 1.34455,-0.39245z" fill="url(#color-34)" stroke-width="NaN"/><path d="M239.45596,180.41919c0.65921,0.1499 1.126,0.56864 1.04263,0.93528c-0.08337,0.36665 -0.68535,0.54235 -1.34455,0.39245c-0.65921,-0.1499 -1.126,-0.56865 -1.04263,-0.93528c0.08337,-0.36665 0.68535,-0.54234 1.34455,-0.39244z" fill="url(#color-35)" stroke-width="NaN"/><path d="M238.46401,181.32868c-0.1302,0.66338 -0.21019,1.2251 -0.57915,1.15268c-0.36897,-0.07242 -0.3072,-0.61879 -0.17699,-1.28216c0.1302,-0.66338 0.27955,-1.19254 0.64852,-1.12013c0.36897,0.07242 0.23783,0.58623 0.10762,1.24961z" fill="url(#color-36)" stroke-width="NaN"/><path d="M240.48425,180.58282c0.36897,0.07242 0.3072,0.61879 0.17699,1.28216c-0.1302,0.66338 -0.27956,1.19254 -0.64852,1.12013c-0.36897,-0.07242 -0.23067,-0.6227 -0.10046,-1.28608c0.1302,-0.66338 0.20303,-1.18864 0.57199,-1.11621z" data-paper-data="{&quot;index&quot;:null}" fill="url(#color-37)" stroke-width="NaN"/><path d="M239.67496,179.44745c0.6592,0.1499 1.126,0.56865 1.04263,0.93529c-0.08337,0.36665 -0.68535,0.54234 -1.34455,0.39244c-0.65921,-0.1499 -1.126,-0.56864 -1.04263,-0.93528c0.08337,-0.36665 0.68535,-0.54235 1.34455,-0.39245z" fill="url(#color-38)" stroke-width="NaN"/><path d="M239.83488,178.53253c0.6592,0.1499 1.12601,0.56864 1.04263,0.93528c-0.08337,0.36665 -0.68535,0.54235 -1.34455,0.39245c-0.6592,-0.1499 -1.126,-0.56864 -1.04263,-0.93529c0.08337,-0.36665 0.68535,-0.54234 1.34456,-0.39244z" fill="url(#color-39)" stroke-width="NaN"/><path d="M238.84293,179.44202c-0.1302,0.66338 -0.21019,1.22511 -0.57915,1.15268c-0.36897,-0.07242 -0.3072,-0.61879 -0.17699,-1.28216c0.1302,-0.66338 0.27956,-1.19254 0.64852,-1.12013c0.36897,0.07242 0.23783,0.58623 0.10762,1.24961z" fill="url(#color-40)" stroke-width="NaN"/><path d="M240.86318,178.69616c0.36897,0.07242 0.3072,0.61879 0.17699,1.28216c-0.1302,0.66338 -0.27955,1.19255 -0.64852,1.12013c-0.36897,-0.07242 -0.23067,-0.6227 -0.10047,-1.28608c0.1302,-0.66338 0.20303,-1.18863 0.572,-1.11621z" data-paper-data="{&quot;index&quot;:null}" fill="url(#color-41)" stroke-width="NaN"/><path d="M240.06546,177.55445c0.65921,0.1499 1.126,0.56864 1.04263,0.93528c-0.08337,0.36665 -0.68535,0.54235 -1.34456,0.39245c-0.6592,-0.1499 -1.12601,-0.56865 -1.04263,-0.93528c0.08337,-0.36665 0.68535,-0.54235 1.34455,-0.39245z" fill="url(#color-42)" stroke-width="NaN"/><path d="M240.22539,176.63953c0.65921,0.1499 1.126,0.56864 1.04263,0.93528c-0.08337,0.36665 -0.68535,0.54235 -1.34455,0.39245c-0.65921,-0.1499 -1.126,-0.56864 -1.04263,-0.93528c0.08337,-0.36665 0.68535,-0.54235 1.34455,-0.39245z" fill="url(#color-43)" stroke-width="NaN"/><path d="M239.23344,177.54901c-0.1302,0.66338 -0.21019,1.22511 -0.57915,1.15268c-0.36897,-0.07242 -0.3072,-0.61879 -0.17699,-1.28216c0.1302,-0.66338 0.27955,-1.19255 0.64852,-1.12013c0.36897,0.07242 0.23783,0.58624 0.10762,1.24961z" fill="url(#color-44)" stroke-width="NaN"/><path d="M241.25368,176.80316c0.36897,0.07242 0.3072,0.61879 0.17699,1.28216c-0.1302,0.66338 -0.27955,1.19254 -0.64852,1.12013c-0.36897,-0.07242 -0.23067,-0.6227 -0.10047,-1.28608c0.1302,-0.66338 0.20303,-1.18864 0.57199,-1.11621z" data-paper-data="{&quot;index&quot;:null}" fill="url(#color-45)" stroke-width="NaN"/><path d="M240.44439,175.66778c0.6592,0.1499 1.12601,0.56864 1.04263,0.93528c-0.08337,0.36665 -0.68535,0.54235 -1.34456,0.39245c-0.65921,-0.1499 -1.126,-0.56864 -1.04263,-0.93528c0.08337,-0.36665 0.68535,-0.54235 1.34455,-0.39245z" fill="url(#color-46)" stroke-width="NaN"/><path d="M240.60431,174.75286c0.6592,0.1499 1.12601,0.56864 1.04263,0.93528c-0.08337,0.36665 -0.68535,0.54235 -1.34455,0.39245c-0.6592,-0.1499 -1.126,-0.56864 -1.04263,-0.93528c0.08337,-0.36665 0.68535,-0.54235 1.34455,-0.39245z" fill="url(#color-47)" stroke-width="NaN"/><path d="M239.61236,175.66235c-0.1302,0.66338 -0.21019,1.22511 -0.57915,1.15268c-0.36897,-0.07242 -0.3072,-0.61879 -0.17699,-1.28216c0.1302,-0.66338 0.27956,-1.19255 0.64852,-1.12013c0.36897,0.07242 0.23783,0.58624 0.10762,1.24961z" fill="url(#color-48)" stroke-width="NaN"/><path d="M241.63261,174.91649c0.36897,0.07242 0.3072,0.61879 0.17699,1.28216c-0.1302,0.66338 -0.27956,1.19254 -0.64852,1.12013c-0.36897,-0.07242 -0.23068,-0.6227 -0.10047,-1.28608c0.1302,-0.66338 0.20304,-1.18864 0.572,-1.11621z" data-paper-data="{&quot;index&quot;:null}" fill="url(#color-49)" stroke-width="NaN"/></g><g><path d="M240.96091,173.77152c0.65156,0.18025 1.09848,0.62014 0.99822,0.98253c-0.10026,0.36239 -0.70972,0.51005 -1.36128,0.3298c-0.65156,-0.18025 -1.09848,-0.62015 -0.99822,-0.98254c0.10026,-0.36239 0.70972,-0.51005 1.36128,-0.3298z" fill="url(#color-50)" stroke-width="NaN"/><path d="M241.16301,172.86498c0.65156,0.18025 1.09848,0.62015 0.99822,0.98254c-0.10026,0.36239 -0.70971,0.51004 -1.36127,0.32979c-0.65156,-0.18025 -1.09848,-0.62015 -0.99823,-0.98254c0.10026,-0.36239 0.70972,-0.51004 1.36128,-0.32979z" fill="url(#color-51)" stroke-width="NaN"/><path d="M240.13002,173.72758c-0.16078,0.65663 -0.26667,1.21407 -0.63189,1.12464c-0.36522,-0.08942 -0.27823,-0.63234 -0.11746,-1.28898c0.16078,-0.65663 0.33445,-1.17833 0.69967,-1.08891c0.36522,0.08942 0.21045,0.59661 0.04968,1.25324z" fill="url(#color-52)" stroke-width="NaN"/><path d="M242.18263,173.07603c0.36522,0.08942 0.27823,0.63234 0.11746,1.28898c-0.16078,0.65663 -0.33445,1.17833 -0.69967,1.08891c-0.36522,-0.08942 -0.20161,-0.63271 -0.04083,-1.28934c0.16078,-0.65663 0.25783,-1.17796 0.62304,-1.08854z" data-paper-data="{&quot;index&quot;:null}" fill="url(#color-53)" stroke-width="NaN"/><path d="M241.42675,171.90442c0.65156,0.18025 1.09848,0.62015 0.99822,0.98254c-0.10026,0.36239 -0.70971,0.51004 -1.36127,0.32979c-0.65156,-0.18025 -1.09848,-0.62015 -0.99823,-0.98254c0.10026,-0.36239 0.70972,-0.51004 1.36128,-0.32979z" fill="url(#color-54)" stroke-width="NaN"/><path d="M241.62885,170.99788c0.65156,0.18025 1.09848,0.62015 0.99822,0.98254c-0.10026,0.36239 -0.70971,0.51005 -1.36127,0.3298c-0.65156,-0.18025 -1.09848,-0.62015 -0.99823,-0.98254c0.10026,-0.36239 0.70972,-0.51005 1.36128,-0.3298z" fill="url(#color-55)" stroke-width="NaN"/><path d="M240.59587,171.86048c-0.16078,0.65663 -0.26667,1.21406 -0.63188,1.12464c-0.36522,-0.08942 -0.27823,-0.63234 -0.11746,-1.28898c0.16078,-0.65663 0.33445,-1.17833 0.69967,-1.08891c0.36522,0.08942 0.21045,0.59661 0.04967,1.25325z" fill="url(#color-56)" stroke-width="NaN"/><path d="M242.64847,171.20893c0.36522,0.08942 0.27823,0.63234 0.11746,1.28898c-0.16078,0.65663 -0.33445,1.17833 -0.69967,1.08891c-0.36522,-0.08942 -0.20161,-0.63272 -0.04083,-1.28935c0.16078,-0.65663 0.25783,-1.17796 0.62304,-1.08854z" data-paper-data="{&quot;index&quot;:null}" fill="url(#color-57)" stroke-width="NaN"/><path d="M241.90445,170.03152c0.65156,0.18025 1.09848,0.62015 0.99822,0.98254c-0.10026,0.36239 -0.70972,0.51004 -1.36128,0.3298c-0.65156,-0.18025 -1.09848,-0.62015 -0.99822,-0.98254c0.10026,-0.36239 0.70972,-0.51005 1.36128,-0.3298z" fill="url(#color-58)" stroke-width="NaN"/><path d="M242.10655,169.12498c0.65156,0.18025 1.09848,0.62015 0.99822,0.98254c-0.10026,0.36239 -0.70971,0.51005 -1.36127,0.3298c-0.65156,-0.18025 -1.09848,-0.62015 -0.99823,-0.98254c0.10026,-0.36239 0.70972,-0.51005 1.36128,-0.3298z" fill="url(#color-59)" stroke-width="NaN"/><path d="M241.07357,169.98758c-0.16078,0.65663 -0.26667,1.21406 -0.63189,1.12464c-0.36522,-0.08942 -0.27823,-0.63234 -0.11746,-1.28898c0.16078,-0.65663 0.33445,-1.17833 0.69967,-1.08891c0.36522,0.08942 0.21044,0.59661 0.04967,1.25325z" fill="url(#color-60)" stroke-width="NaN"/><path d="M243.12617,169.33603c0.36522,0.08942 0.27824,0.63234 0.11747,1.28898c-0.16078,0.65663 -0.33445,1.17834 -0.69967,1.08892c-0.36522,-0.08942 -0.20161,-0.63272 -0.04083,-1.28935c0.16078,-0.65663 0.25782,-1.17796 0.62304,-1.08854z" data-paper-data="{&quot;index&quot;:null}" fill="url(#color-61)" stroke-width="NaN"/><path d="M242.3703,168.16442c0.65156,0.18025 1.09848,0.62015 0.99822,0.98254c-0.10026,0.36239 -0.70971,0.51005 -1.36127,0.3298c-0.65156,-0.18025 -1.09848,-0.62015 -0.99823,-0.98255c0.10026,-0.36239 0.70972,-0.51004 1.36128,-0.32979z" fill="url(#color-62)" stroke-width="NaN"/><path d="M242.5724,167.25788c0.65156,0.18025 1.09848,0.62015 0.99822,0.98254c-0.10026,0.36239 -0.70971,0.51004 -1.36127,0.32979c-0.65156,-0.18025 -1.09848,-0.62015 -0.99823,-0.98254c0.10026,-0.36239 0.70972,-0.51004 1.36128,-0.32979z" fill="url(#color-63)" stroke-width="NaN"/><path d="M241.53941,168.12048c-0.16078,0.65663 -0.26667,1.21406 -0.63189,1.12464c-0.36522,-0.08942 -0.27823,-0.63235 -0.11746,-1.28898c0.16078,-0.65663 0.33446,-1.17833 0.69967,-1.08891c0.36522,0.08942 0.21044,0.59662 0.04967,1.25325z" fill="url(#color-64)" stroke-width="NaN"/><path d="M243.59201,167.46893c0.36522,0.08942 0.27824,0.63234 0.11746,1.28898c-0.16078,0.65663 -0.33445,1.17833 -0.69967,1.08891c-0.36522,-0.08942 -0.20161,-0.63271 -0.04084,-1.28935c0.16078,-0.65663 0.25782,-1.17796 0.62304,-1.08854z" data-paper-data="{&quot;index&quot;:null}" fill="url(#color-65)" stroke-width="NaN"/></g><g><path d="M242.89327,166.30089c0.64709,0.19571 1.0834,0.64612 0.97455,1.00602c-0.10885,0.3599 -0.72165,0.49301 -1.36874,0.2973c-0.64709,-0.19571 -1.0834,-0.64612 -0.97455,-1.00602c0.10885,-0.3599 0.72165,-0.49301 1.36874,-0.2973z" fill="url(#color-66)" stroke-width="NaN"/><path d="M243.11689,165.39942c0.64709,0.19571 1.0834,0.64612 0.97455,1.00602c-0.10885,0.3599 -0.72165,0.49301 -1.36873,0.2973c-0.64709,-0.19571 -1.08341,-0.64612 -0.97456,-1.00602c0.10885,-0.3599 0.72165,-0.493 1.36874,-0.2973z" fill="url(#color-67)" stroke-width="NaN"/><path d="M242.06367,166.23719c-0.17636,0.65263 -0.29549,1.20737 -0.65847,1.10927c-0.36299,-0.09809 -0.2631,-0.63878 -0.08675,-1.29141c0.17636,-0.65263 0.36241,-1.17004 0.72539,-1.07194c0.36299,0.09809 0.19618,0.60145 0.01982,1.25408z" fill="url(#color-68)" stroke-width="NaN"/><path d="M244.13119,165.63467c0.36299,0.09809 0.2631,0.63879 0.08675,1.29141c-0.17636,0.65263 -0.3624,1.17004 -0.72539,1.07194c-0.36299,-0.09809 -0.18649,-0.63733 -0.01013,-1.28995c0.17636,-0.65263 0.28579,-1.17149 0.64878,-1.0734z" data-paper-data="{&quot;index&quot;:null}" fill="url(#color-69)" stroke-width="NaN"/><path d="M243.40343,164.44541c0.64709,0.19571 1.0834,0.64612 0.97455,1.00602c-0.10885,0.3599 -0.72165,0.49301 -1.36874,0.2973c-0.64709,-0.19571 -1.0834,-0.64612 -0.97455,-1.00602c0.10885,-0.3599 0.72166,-0.49301 1.36874,-0.2973z" fill="url(#color-70)" stroke-width="NaN"/><path d="M243.62705,163.54394c0.64709,0.19571 1.0834,0.64612 0.97455,1.00602c-0.10885,0.3599 -0.72165,0.493 -1.36874,0.2973c-0.64709,-0.19571 -1.0834,-0.64612 -0.97455,-1.00602c0.10885,-0.3599 0.72165,-0.493 1.36874,-0.29729z" fill="url(#color-71)" stroke-width="NaN"/><path d="M242.57383,164.3817c-0.17636,0.65263 -0.29549,1.20737 -0.65848,1.10928c-0.36299,-0.09809 -0.2631,-0.63879 -0.08674,-1.29141c0.17636,-0.65263 0.3624,-1.17004 0.72539,-1.07194c0.36299,0.09809 0.19619,0.60145 0.01983,1.25408z" fill="url(#color-72)" stroke-width="NaN"/><path d="M244.64135,163.77919c0.36299,0.09809 0.2631,0.63879 0.08675,1.29141c-0.17636,0.65263 -0.36241,1.17004 -0.72539,1.07194c-0.36299,-0.09809 -0.18649,-0.63733 -0.01013,-1.28995c0.17636,-0.65263 0.28579,-1.17149 0.64878,-1.0734z" data-paper-data="{&quot;index&quot;:null}" fill="url(#color-73)" stroke-width="NaN"/><path d="M243.92557,162.58441c0.64709,0.19571 1.08341,0.64612 0.97456,1.00602c-0.10885,0.3599 -0.72166,0.49301 -1.36874,0.2973c-0.64709,-0.19571 -1.0834,-0.64612 -0.97455,-1.00602c0.10885,-0.3599 0.72165,-0.49301 1.36874,-0.2973z" fill="url(#color-74)" stroke-width="NaN"/><path d="M244.14919,161.68294c0.64709,0.19571 1.0834,0.64612 0.97456,1.00602c-0.10885,0.3599 -0.72165,0.493 -1.36874,0.2973c-0.64709,-0.19571 -1.0834,-0.64612 -0.97456,-1.00602c0.10885,-0.3599 0.72165,-0.493 1.36874,-0.29729z" fill="url(#color-75)" stroke-width="NaN"/><path d="M243.09597,162.52071c-0.17636,0.65263 -0.29548,1.20737 -0.65847,1.10928c-0.36299,-0.09809 -0.2631,-0.63879 -0.08675,-1.29141c0.17636,-0.65263 0.3624,-1.17004 0.72539,-1.07195c0.36299,0.09809 0.19618,0.60145 0.01982,1.25408z" fill="url(#color-76)" stroke-width="NaN"/><path d="M245.1635,161.9182c0.36299,0.09809 0.2631,0.63879 0.08674,1.29141c-0.17636,0.65263 -0.36241,1.17004 -0.72539,1.07195c-0.36299,-0.09809 -0.18649,-0.63733 -0.01013,-1.28995c0.17636,-0.65263 0.2858,-1.17149 0.64878,-1.0734z" data-paper-data="{&quot;index&quot;:null}" fill="url(#color-77)" stroke-width="NaN"/><path d="M244.43573,160.72893c0.64709,0.19571 1.0834,0.64612 0.97456,1.00602c-0.10885,0.3599 -0.72165,0.493 -1.36874,0.2973c-0.64709,-0.19571 -1.0834,-0.64612 -0.97456,-1.00602c0.10885,-0.3599 0.72166,-0.493 1.36875,-0.29729z" fill="url(#color-78)" stroke-width="NaN"/><path d="M244.65935,159.82745c0.64709,0.19571 1.08341,0.64612 0.97456,1.00602c-0.10885,0.3599 -0.72165,0.49301 -1.36874,0.2973c-0.64709,-0.19571 -1.0834,-0.64612 -0.97456,-1.00602c0.10885,-0.3599 0.72165,-0.49301 1.36874,-0.2973z" fill="url(#color-79)" stroke-width="NaN"/><path d="M243.60613,160.66522c-0.17636,0.65263 -0.29549,1.20737 -0.65847,1.10927c-0.36299,-0.09809 -0.2631,-0.63879 -0.08675,-1.29141c0.17636,-0.65263 0.36241,-1.17004 0.72539,-1.07194c0.36299,0.09809 0.19618,0.60146 0.01983,1.25408z" fill="url(#color-80)" stroke-width="NaN"/><path d="M245.67365,160.06271c0.36299,0.09809 0.2631,0.63878 0.08674,1.29141c-0.17636,0.65263 -0.3624,1.17004 -0.72539,1.07194c-0.36299,-0.09809 -0.18649,-0.63733 -0.01013,-1.28995c0.17636,-0.65263 0.28579,-1.17149 0.64878,-1.0734z" data-paper-data="{&quot;index&quot;:null}" fill="url(#color-81)" stroke-width="NaN"/></g></g></g></g></svg>