<svg version="1.1" xmlns="http://www.w3.org/2000/svg" xmlns:xlink="http://www.w3.org/1999/xlink" width="90.16124" height="292.85297" viewBox="0,0,90.16124,292.85297"><defs><linearGradient x1="239.81362" y1="155.10279" x2="239.81362" y2="162.81931" gradientUnits="userSpaceOnUse" id="color-1"><stop offset="0" stop-color="#0d1c55"/><stop offset="1" stop-color="#0a1644"/></linearGradient><linearGradient x1="243.96035" y1="159.76559" x2="243.0313" y2="159.81582" gradientUnits="userSpaceOnUse" id="color-2"><stop offset="0" stop-color="#d1d2d3"/><stop offset="1" stop-color="#a4a5a8"/></linearGradient><linearGradient x1="240.23623" y1="159.95355" x2="238.15312" y2="160.06619" gradientUnits="userSpaceOnUse" id="color-3"><stop offset="0" stop-color="#a4a5a8"/><stop offset="1" stop-color="#d1d2d3"/></linearGradient><linearGradient x1="246.20603" y1="159.61991" x2="239.04242" y2="160.00725" gradientUnits="userSpaceOnUse" id="color-4"><stop offset="0" stop-color="#d1d2d3"/><stop offset="1" stop-color="#a4a5a8"/></linearGradient></defs><g transform="translate(-194.92345,-33.40498)"><g data-paper-data="{&quot;isPaintingLayer&quot;:true}" fill-rule="nonzero" stroke-linejoin="miter" stroke-miterlimit="10" stroke-dasharray="" stroke-dashoffset="0" style="mix-blend-mode: normal"><g><path d="M265.87789,157.04588c0.53692,7.79798 1.14845,17.62266 1.14845,17.62266c0,0 -18.79945,3.18262 -26.76648,3.18262c-1.58218,0 -12.2189,-14.90744 -12.2189,-14.90744l-10.66977,-79.85516c0,0 5.77978,-2.80783 11.87366,-2.80783c4.67996,0 21.54074,-7.20604 21.54074,-7.20604l4.94324,2.78532l22.20625,8.82972c0,0 1.92384,4.76539 4.66162,17.20488c1.81455,8.24464 2.18023,27.57383 2.18023,27.57383c0,0 -0.86852,37.8808 -1.17878,47.22802c-0.02147,0.64685 -0.26837,0.97596 -0.30665,1.61396c-0.19799,3.29924 -0.35332,6.55462 -0.35332,6.55462l-8.79209,0.82004c0,0 -0.16498,-2.84677 -0.43114,-7.37649c-0.02536,-0.43158 -0.37422,-0.50209 -0.40136,-0.96321c-0.86049,-14.62038 -3.29839,-43.60982 -4.05152,-54.93665c-0.04638,-0.6976 -0.05715,-2.90098 -0.21016,-2.49659c-0.48464,1.28084 -1.42514,8.81354 -1.42514,8.81354c0,0 -1.38072,6.62487 -1.85816,12.69502c-0.09336,1.18698 -0.47076,3.81805 -0.55674,6.42357c-0.02855,0.86512 0.35573,4.6949 0.66603,9.20162z" data-paper-data="{&quot;index&quot;:null}" fill="#c9cce9" stroke="none" stroke-width="0" stroke-linecap="butt"/><path d="M240.13806,178.00473c0,0 0.60505,0.70775 1.38693,2.16759c1.01875,1.90208 26.50232,-1.94373 25.55732,-5.9233c-0.53962,-2.27244 -0.80139,-8.13656 -1.15226,-14.12581c-0.37586,-6.41569 -0.81432,-12.97495 -0.56798,-15.41678c1.15576,-11.45613 4.83843,-31.89784 6.49138,-39.61587c1.88333,-8.79371 5.72692,-17.92654 6.32972,-20.32053c0.00395,-0.01567 1.07343,2.15752 3.81411,14.0089c3.13498,13.55648 2.82927,31.08083 2.82927,31.08083c0,0 -0.60755,14.32065 -0.68558,26.59844c-0.04555,7.16697 -0.33451,15.27426 -0.57899,21.00311c-0.00898,0.21051 -0.29996,0.4178 -0.30881,0.62172c-0.17898,4.1244 -0.10192,6.81135 -0.10192,6.81135l-9.11867,0.91972c0,0 0.00834,-2.61612 -0.34754,-7.21125c-0.01872,-0.24171 -0.31988,-0.37484 -0.33935,-0.62479c-0.57946,-7.43659 -0.74759,-19.51398 -1.68391,-28.13563c-0.84131,-7.74678 -1.92046,-17.67167 -2.25952,-24.33312c-0.24771,-4.86677 0.01446,-7.80514 0.01446,-7.80514" data-paper-data="{&quot;index&quot;:null}" fill="none" stroke="#b1b5cd" stroke-width="0.5" stroke-linecap="round"/><path d="M214.78816,147.91779c-0.08598,-2.60551 -0.46339,-5.23658 -0.55675,-6.42356c-0.47744,-6.07015 -1.85816,-12.69502 -1.85816,-12.69502c0,0 -0.94051,-7.53269 -1.42515,-8.81354c-0.15301,-0.40439 -0.16377,1.79899 -0.21015,2.49659c-0.75313,11.32683 -3.19103,40.31627 -4.05152,54.93665c-0.02714,0.46113 -0.376,0.53164 -0.40136,0.96322c-0.26615,4.52972 -0.43114,7.37649 -0.43114,7.37649l-8.79209,-0.82005c0,0 -0.15533,-3.25537 -0.35332,-6.55461c-0.03829,-0.63799 -0.28518,-0.96711 -0.30665,-1.61396c-0.31026,-9.34722 -1.17878,-47.22801 -1.17878,-47.22801c0,0 0.36568,-19.32919 2.18023,-27.57383c2.73778,-12.43949 4.66162,-17.20488 4.66162,-17.20488l22.20625,-8.82972l4.94324,-2.78532c0,0 16.86077,7.20604 21.54073,7.20604c6.09388,0 11.87366,2.80783 11.87366,2.80783l-10.66977,79.85516c0,0 -10.2744,14.69005 -11.85658,14.69005c-7.96703,0 -27.1288,-2.96523 -27.1288,-2.96523c0,0 0.61154,-9.82468 1.14845,-17.62266c0.3103,-4.50672 0.69459,-8.33651 0.66604,-9.20162z" fill="#c9cce9" stroke="none" stroke-width="0" stroke-linecap="butt"/><path d="M238.15063,178.04351c-0.00368,-0.25734 -0.00868,-28.85989 -0.01487,-29.27793c-0.12269,-8.28442 -0.18613,-31.86538 -0.19461,-52.43859c-0.00849,-20.57321 0.16555,-16.17617 0.16625,-16.29961" data-paper-data="{&quot;index&quot;:null}" fill="none" stroke="#aaadc9" stroke-width="0.5" stroke-linecap="round"/><path d="M213.99666,127.98991v-22.19374h17.03245v22.34925l-2.31828,1.83536h-12.32423z" fill="none" stroke="#aaadc9" stroke-width="0.5" stroke-linecap="butt"/><path d="M219.74788,129.90705l0.14747,-17.6183" fill="none" stroke="#aaadc9" stroke-width="0.5" stroke-linecap="round"/><path d="M225.86776,112.28473l-0.14746,17.62232" fill="none" stroke="#aaadc9" stroke-width="0.5" stroke-linecap="round"/><path d="M230.96342,110.42263l-2.25237,1.87669l-12.32434,-0.02506l-2.3123,-1.77789" fill="none" stroke="#aaadc9" stroke-width="0.5" stroke-linecap="round"/><path d="M247.0427,127.98991v-22.19374h17.03245v22.34925l-2.31828,1.83536h-12.32423z" fill="none" stroke="#aaadc9" stroke-width="0.5" stroke-linecap="butt"/><path d="M252.79392,129.90705l0.14747,-17.6183" fill="none" stroke="#aaadc9" stroke-width="0.5" stroke-linecap="round"/><path d="M258.76633,129.90705l0.14747,-17.62232" fill="none" stroke="#aaadc9" stroke-width="0.5" stroke-linecap="round"/><path d="M264.00946,110.42263l-2.25237,1.87669l-12.32434,-0.02506l-2.3123,-1.77789" fill="none" stroke="#aaadc9" stroke-width="0.5" stroke-linecap="round"/><path d="M222.79332,108.53323c0.83998,0 1.52091,0.68496 1.52091,1.52991c0,0.84495 -0.68093,1.52991 -1.52091,1.52991c-0.83998,0 -1.52091,-0.68496 -1.52091,-1.52991c0,-0.84495 0.68093,-1.52991 1.52091,-1.52991z" fill="#c9cce9" stroke="#b1b5cd" stroke-width="0.5" stroke-linecap="butt"/><path d="M222.78432,110.49512c0,-0.24852 0.20145,-0.44998 0.44997,-0.44998c0.24852,0 0.44998,0.20146 0.44998,0.44998c0,0.24852 -0.20146,0.44997 -0.44998,0.44997c-0.24852,0 -0.44997,-0.20146 -0.44997,-0.44997z" fill="#000000" stroke="#000000" stroke-width="0" stroke-linecap="butt"/><path d="M221.90237,110.49511c0,-0.24852 0.20146,-0.44997 0.44998,-0.44997c0.24852,0 0.44997,0.20146 0.44997,0.44997c0,0.24852 -0.20145,0.44998 -0.44997,0.44998c-0.24852,0 -0.44998,-0.20146 -0.44998,-0.44998z" fill="#000000" stroke="#000000" stroke-width="0" stroke-linecap="butt"/><path d="M222.76631,109.66716c0,-0.24852 0.20146,-0.44997 0.44998,-0.44997c0.24852,0 0.44997,0.20145 0.44997,0.44997c0,0.24852 -0.20145,0.44998 -0.44997,0.44998c-0.24852,0 -0.44998,-0.20146 -0.44998,-0.44998z" fill="#000000" stroke="#000000" stroke-width="0" stroke-linecap="butt"/><path d="M221.90237,109.64917c0,-0.24852 0.20146,-0.44998 0.44998,-0.44998c0.24852,0 0.44997,0.20146 0.44997,0.44998c0,0.24852 -0.20145,0.44997 -0.44997,0.44997c-0.24852,0 -0.44998,-0.20146 -0.44998,-0.44997z" fill="#000000" stroke="#000000" stroke-width="0" stroke-linecap="butt"/><path d="M256.03374,108.63043c0.83998,0 1.52091,0.68495 1.52091,1.5299c0,0.84495 -0.68093,1.52991 -1.52091,1.52991c-0.83998,0 -1.52091,-0.68496 -1.52091,-1.52991c0,-0.84495 0.68093,-1.5299 1.52091,-1.5299z" fill="#c9cce9" stroke="#b1b5cd" stroke-width="0.5" stroke-linecap="butt"/><path d="M256.02474,110.59232c0,-0.24852 0.20145,-0.44997 0.44997,-0.44997c0.24852,0 0.44998,0.20146 0.44998,0.44997c0,0.24852 -0.20146,0.44998 -0.44998,0.44998c-0.24852,0 -0.44997,-0.20146 -0.44997,-0.44998z" fill="#000000" stroke="#000000" stroke-width="0" stroke-linecap="butt"/><path d="M255.14279,110.5923c0,-0.24852 0.20146,-0.44997 0.44998,-0.44997c0.24852,0 0.44997,0.20146 0.44997,0.44997c0,0.24852 -0.20145,0.44998 -0.44997,0.44998c-0.24852,0 -0.44998,-0.20146 -0.44998,-0.44998z" fill="#000000" stroke="#000000" stroke-width="0" stroke-linecap="butt"/><path d="M256.00674,109.76436c0,-0.24852 0.20146,-0.44997 0.44998,-0.44997c0.24852,0 0.44997,0.20146 0.44997,0.44997c0,0.24852 -0.20145,0.44997 -0.44997,0.44997c-0.24852,0 -0.44998,-0.20146 -0.44998,-0.44997z" fill="#000000" stroke="#000000" stroke-width="0" stroke-linecap="butt"/><path d="M255.14279,109.74636c0,-0.24852 0.20146,-0.44998 0.44998,-0.44998c0.24852,0 0.44997,0.20146 0.44997,0.44998c0,0.24852 -0.20145,0.44997 -0.44997,0.44997c-0.24852,0 -0.44998,-0.20146 -0.44998,-0.44997z" fill="#000000" stroke="#000000" stroke-width="0" stroke-linecap="butt"/><path d="M210.58328,117.77769c0,0 0.26217,2.93837 0.01446,7.80514c-0.33906,6.66145 -1.41821,16.58634 -2.25952,24.33312c-0.93632,8.62165 -1.10445,20.69904 -1.68391,28.13563c-0.01947,0.24995 -0.32063,0.38308 -0.33935,0.62479c-0.35588,4.59513 -0.34754,7.21125 -0.34754,7.21125l-9.11867,-0.91972c0,0 0.07706,-2.68695 -0.10192,-6.81135c-0.00885,-0.20392 -0.29983,-0.41121 -0.30881,-0.62172c-0.24448,-5.72885 -0.53344,-13.83614 -0.57899,-21.00311c-0.07803,-12.27779 -0.68558,-26.59844 -0.68558,-26.59844c0,0 -0.30571,-17.52435 2.82927,-31.08083c2.74068,-11.85138 3.81016,-14.02457 3.81411,-14.0089c0.6028,2.39399 4.44639,11.52682 6.32972,20.32053c1.65295,7.71803 5.33562,28.15974 6.49139,39.61587c0.24634,2.44183 -0.19212,9.00109 -0.56798,15.41678c-0.35088,5.98925 -0.61264,11.85338 -1.15226,14.12581c-0.94499,3.97958 24.53858,7.82539 25.55733,5.9233c0.78188,-1.45984 1.38693,-2.16759 1.38693,-2.16759" fill="none" stroke="#b1b5cd" stroke-width="0.5" stroke-linecap="round"/><g><g fill="none" stroke="none" stroke-width="1" stroke-linecap="butt" font-family="sans-serif" font-weight="normal" font-size="12" text-anchor="start"/><path d="M224.96442,75.35893c0,0 1.32745,-2.46887 2.06394,-3.58028c0.68315,-1.03092 2.20703,-2.86488 2.20703,-2.86488c0,0 1.38511,1.77169 3.94045,3.73858c2.19103,1.68647 5.47769,3.60852 6.82732,3.63869c1.60985,0.13201 5.12482,-2.20352 7.71033,-4.40231c1.72392,-1.46607 3.05609,-3.08592 3.05609,-3.08592c0,0 1.52425,1.9456 2.2329,3.01215c0.74186,1.11653 2.12322,3.54398 2.12322,3.54398l-9.34926,10.73389c0,0 -1.95794,-3.60628 -2.91878,-5.23024c-0.91338,-1.54373 -2.71108,-4.28503 -2.71108,-4.28503c0,0 -2.02776,2.50885 -2.99447,4.06275c-1.00857,1.62119 -2.93671,5.47108 -2.93671,5.47108z" fill="#c9cce9" stroke="none" stroke-width="0" stroke-linecap="butt"/><g fill="none" stroke="#aaadc9" stroke-width="0.5"><path d="M234.2984,86.2143l-9.56076,-10.73425c0,0 1.57318,-2.65083 2.36332,-3.81382c0.72542,-1.06774 2.19998,-2.90282 2.19998,-2.90282c0,0 2.13628,2.46892 4.02236,4.0338c1.75299,1.45446 6.69432,3.70554 6.69432,3.70554c0,0 -1.88424,2.49497 -2.76707,3.99406c-1.00715,1.7102 -2.95215,5.71749 -2.95215,5.71749z" stroke-linecap="butt"/><path d="M224.50663,75.63919l-22.56387,9.05355" stroke-linecap="round"/><path d="M203.44789,88.60372l24.12398,-9.73334" stroke-linecap="round"/></g><g data-paper-data="{&quot;index&quot;:null}" fill="none" stroke="#aaadc9" stroke-width="0.5"><path d="M242.77376,80.52849c-0.88283,-1.49909 -2.76707,-3.99406 -2.76707,-3.99406c0,0 4.94133,-2.25108 6.69432,-3.70554c1.88608,-1.56488 4.02236,-4.0338 4.02236,-4.0338c0,0 1.47455,1.83508 2.19997,2.90282c0.79014,1.16299 2.36332,3.81382 2.36332,3.81382l-9.56076,10.73425c0,0 -1.945,-4.00728 -2.95215,-5.71748z" stroke-linecap="butt"/><path d="M278.08155,84.72442l-22.56387,-9.05355" stroke-linecap="round"/><path d="M252.45243,78.90207l24.12399,9.73333" stroke-linecap="round"/></g></g></g><g stroke="#000000"><g><g data-paper-data="{&quot;index&quot;:null}" stroke-width="0" stroke-linecap="butt"><path d="M208.37906,323.89323c-1.47849,-13.91306 29.7961,-17.31125 29.64937,-17.25323l-0.19008,6.57121c-1.71431,2.95866 -5.2019,3.64819 -5.2019,3.64819l-0.10832,-1.14714c-1.32049,0.52215 -4.66545,5.0405 -9.29743,8.77276c-2.93323,2.36347 -8.3211,1.9233 -11.77346,1.18453c-2.05522,-0.43979 -3.07819,-1.77633 -3.07819,-1.77633z" fill="#000000"/><path d="M219.16976,272.02394c0,0 4.33184,2.2845 10.13818,1.88551c2.61144,-0.17945 4.77863,-0.81865 8.02402,-2.35814c0,0 -0.22213,24.31132 -0.2148,28.90673c0.00705,4.41866 2.95478,10.26359 -4.42379,12.75574c-3.95528,1.33591 -6.95384,10.64681 -15.0808,11.01326c-8.12697,0.36645 -8.70833,-1.88725 -8.70833,-1.88725c0,0 -1.345,-4.26351 1.93333,-6.7432c2.62219,-2.11885 6.38832,-6.45112 9.1938,-11.4045c2.80548,-4.95339 -0.86161,-32.16815 -0.86161,-32.16815z" fill="#1a1a1a"/><path d="M208.79915,318.65643c0.73801,-2.34272 2.92626,-4.43803 4.15527,-5.65867c2.94762,-2.92755 5.78096,-7.0456 6.72464,-8.67889c0.1425,-0.28893 0.93996,-1.44051 1.05001,-3.60375c0.13765,-2.70568 0.29558,-4.67477 -0.21368,-10.72255c-0.73766,-8.76003 -1.66289,-18.14756 -1.66289,-18.14756c0,0 0.59158,0.03337 0.76014,1.23638c0.46244,3.30045 0.91602,10.95924 1.47393,16.9495c0.16428,1.76386 0.49495,7.40894 0.23817,10.84031c-0.06801,0.90889 -0.4336,2.38764 -1.3361,3.90868c-1.68648,2.84235 -4.33385,5.93448 -5.38152,7.23257c-0.93655,0.97069 -3.15567,3.10912 -4.3363,4.60805c-0.43351,0.55039 -1.02569,1.73096 -1.22783,2.90912c-0.27508,1.60325 -0.07651,3.20198 -0.07651,3.20198c0,0 -0.72804,-2.29529 -0.16733,-4.07517z" fill="#000000"/><path d="M227.53776,273.23484c4.76105,0.04907 9.86763,-1.68508 9.86763,-1.68508c0,0 0.01167,2.17759 -9.57131,2.64683c-8.31977,0.28584 -8.89517,-2.40233 -8.89517,-2.40233c0,0 3.48602,1.38788 8.59885,1.44058z" fill="#000000"/><path d="M237.6105,281.03623c-0.00367,1.94421 -0.00768,4.06517 -0.01234,6.53962c-0.00466,2.47445 -0.05158,4.9489 -0.05659,7.60009c-0.00266,1.41397 -0.04725,2.6512 -0.04958,3.88842c-0.00267,1.41397 0.22995,2.47473 0.37775,3.71224c0.29557,2.47501 0.31018,5.48145 -0.44412,7.42424c-0.45203,0.88289 -2.21985,2.03182 -2.9222,2.23479c-0.46019,0.13299 -1.71206,0.13368 -1.71206,0.13368c0,0 1.06939,-0.31165 2.1481,-1.01613c1.0281,-0.67142 2.02067,-2.1609 2.168,-2.59187c0.60383,-1.76633 0.39243,-4.0646 0.09651,-6.36287c-0.14812,-1.06077 -0.29557,-2.47502 -0.29324,-3.71224c0.00233,-1.23722 0.12488,-8.97153 0.12954,-11.44597c0.15446,-2.29742 0.11091,-15.60315 0.11091,-15.60315l0.38716,-0.2982c0,0 0.0795,5.60894 0.07216,9.49736z" fill="#000000"/><path d="M230.64619,312.16692c0,0 -0.02495,-3.19761 0.67227,-5.95683c0.19155,-0.75803 0.43759,-1.48297 0.75364,-2.09943c1.46644,-2.86041 4.51238,-4.11299 4.81261,-4.11244c0.45037,0.00085 0.28136,0.42339 -0.01923,0.59956c-0.06732,0.07896 -2.74898,1.19136 -4.11225,3.73605c-1.68356,3.14257 -2.10706,7.8331 -2.10706,7.8331z" fill="#000000"/></g><path d="M225.83931,305.49363c0.15346,-0.28326 0.99441,-1.40347 1.18719,-3.56092c0.24112,-2.69843 0.47431,-4.66003 0.19693,-10.72287c0.02679,-8.87709 0.26431,-17.12078 0.26431,-17.12078l0.62932,0.03724c0,0 -0.27156,10.61265 -0.32433,17.14369c0.09664,1.76885 0.21098,7.42246 -0.17697,10.84148c-0.10275,0.90562 -0.52468,2.36929 -1.48474,3.85467c-1.79405,2.77571 -3.1769,3.57375 -4.27348,4.83078c-0.97302,0.93412 2.97627,-3.70733 3.98178,-5.30331z" data-paper-data="{&quot;index&quot;:null}" fill="#000000" stroke-width="0" stroke-linecap="butt"/><path d="M223.81031,308.54876l-4.28571,-3.47619" fill="none" stroke-width="0.5" stroke-linecap="round"/><path d="M225.42936,306.26304l-7.19047,0.7619" fill="none" stroke-width="0.5" stroke-linecap="round"/><path d="M226.21951,304.82595l-5.29365,-3.00587" fill="none" stroke-width="0.5" stroke-linecap="round"/><path d="M227.23598,301.99786l-6.82844,1.91221" fill="none" stroke-width="0.5" stroke-linecap="round"/><path d="M221.11618,298.01624l6.14234,3.02744" fill="none" stroke-width="0.5" stroke-linecap="round"/><path d="M221.13994,300.66416l6.374,-2.3149" fill="none" stroke-width="0.5" stroke-linecap="round"/><path d="M227.68154,296.60768l-6.5246,-2.49977" fill="none" stroke-width="0.5" stroke-linecap="round"/><path d="M227.55862,294.00581l-6.47506,2.27502" fill="none" stroke-width="0.5" stroke-linecap="round"/><path d="M220.79263,290.18235l6.6725,2.27012" fill="none" stroke-width="0.5" stroke-linecap="round"/><path d="M221.04742,292.801l6.40886,-2.8927" fill="none" stroke-width="0.5" stroke-linecap="round"/><path d="M220.50692,285.22994l6.81535,2.65108" fill="none" stroke-width="0.5" stroke-linecap="round"/><path d="M220.85693,287.99149l6.7422,-2.46413" fill="none" stroke-width="0.5" stroke-linecap="round"/><path d="M220.07834,280.70616l7.52964,2.98441" fill="none" stroke-width="0.5" stroke-linecap="round"/><path d="M220.47598,283.56292c0,0 2.23743,-0.92008 3.40878,-1.40177c1.24603,-0.51239 3.85723,-1.58617 3.85723,-1.58617" fill="none" stroke-width="0.5" stroke-linecap="round"/><path d="M219.69739,276.61092l7.76774,3.03203" fill="none" stroke-width="0.5" stroke-linecap="round"/><path d="M227.83723,276.14641c0,0 -3.18263,1.50236 -4.42865,2.01475c-1.17135,0.48169 -3.40878,1.40177 -3.40878,1.40177" fill="none" stroke-width="0.5" stroke-linecap="round"/></g><g data-paper-data="{&quot;index&quot;:null}"><g data-paper-data="{&quot;index&quot;:null}" stroke-width="0" stroke-linecap="butt"><path d="M271.42865,323.88847c0,0 -1.02297,1.33654 -3.07819,1.77633c-3.45236,0.73877 -8.84023,1.17894 -11.77346,-1.18453c-4.63198,-3.73226 -7.97694,-8.25061 -9.29743,-8.77276l-0.10832,1.14714c0,0 -3.48759,-0.68953 -5.2019,-3.64819l-0.19008,-6.57121c-0.14673,-0.05802 31.12786,3.34017 29.64937,17.25323z" fill="#000000"/><path d="M259.77633,304.18735c2.80548,4.95338 6.57161,9.28565 9.1938,11.4045c3.27833,2.47969 1.93333,6.7432 1.93333,6.7432c0,0 -0.58136,2.2537 -8.70833,1.88725c-8.12696,-0.36645 -11.12552,-9.67735 -15.0808,-11.01326c-7.37857,-2.49215 -4.43084,-8.33708 -4.42379,-12.75574c0.00733,-4.59541 -0.2148,-28.90673 -0.2148,-28.90673c3.24539,1.53949 5.41259,2.1787 8.02402,2.35815c5.80634,0.39899 10.13818,-1.88552 10.13818,-1.88552c0,0 -3.66709,27.21476 -0.86161,32.16815z" fill="#1a1a1a"/><path d="M270.84122,322.72686c0,0 0.19856,-1.59874 -0.07651,-3.20198c-0.20214,-1.17815 -0.79431,-2.35873 -1.22783,-2.90912c-1.18063,-1.49893 -3.39975,-3.63737 -4.3363,-4.60805c-1.04766,-1.29809 -3.69504,-4.39022 -5.38152,-7.23257c-0.9025,-1.52104 -1.26809,-2.99979 -1.3361,-3.90868c-0.25678,-3.43137 0.07389,-9.07645 0.23817,-10.84031c0.55791,-5.99026 1.01149,-13.64905 1.47393,-16.9495c0.16856,-1.203 0.76014,-1.23638 0.76014,-1.23638c0,0 -0.92523,9.38753 -1.66289,18.14756c-0.50926,6.04778 -0.35133,8.01687 -0.21368,10.72255c0.11005,2.16324 0.90751,3.31482 1.05001,3.60375c0.94368,1.63329 3.77702,5.75134 6.72464,8.67889c1.22901,1.22064 3.41726,3.31595 4.15527,5.65867c0.56071,1.77988 -0.16733,4.07517 -0.16733,4.07517z" fill="#000000"/><path d="M260.86879,271.78951c0,0 -0.5754,2.68817 -8.89517,2.40233c-9.58298,-0.46923 -9.57131,-2.64682 -9.57131,-2.64682c0,0 5.10658,1.73415 9.86763,1.68508c5.11283,-0.0527 8.59885,-1.44058 8.59885,-1.44058z" fill="#000000"/><path d="M242.26937,271.53413l0.38716,0.2982c0,0 -0.04354,13.30573 0.11091,15.60315c0.00466,2.47445 0.12721,10.20875 0.12954,11.44597c0.00233,1.23722 -0.14512,2.65147 -0.29324,3.71224c-0.29591,2.29827 -0.50731,4.59654 0.09652,6.36287c0.14733,0.43097 1.1399,1.92045 2.168,2.59187c1.07871,0.70448 2.1481,1.01613 2.1481,1.01613c0,0 -1.25187,-0.00069 -1.71206,-0.13368c-0.70235,-0.20297 -2.47017,-1.3519 -2.9222,-2.23478c-0.75429,-1.9428 -0.73969,-4.94924 -0.44412,-7.42425c0.1478,-1.23751 0.38042,-2.29827 0.37775,-3.71224c-0.00233,-1.23722 -0.04692,-2.47445 -0.04958,-3.88842c-0.00501,-2.65119 -0.05193,-5.12564 -0.0566,-7.60009c-0.00466,-2.47445 -0.00867,-4.59541 -0.01234,-6.53962c-0.00734,-3.88842 0.07217,-9.49735 0.07217,-9.49735z" fill="#000000"/><path d="M249.16153,312.1622c0,0 -0.4235,-4.69052 -2.10706,-7.83309c-1.36327,-2.5447 -4.04493,-3.65709 -4.11225,-3.73605c-0.30058,-0.17618 -0.4696,-0.59871 -0.01923,-0.59956c0.30024,-0.00056 3.34618,1.25203 4.81262,4.11244c0.31605,0.61646 0.56209,1.3414 0.75364,2.09943c0.69722,2.75923 0.67227,5.95683 0.67227,5.95683z" fill="#000000"/></g><path d="M257.95017,310.79221c-1.09659,-1.25703 -2.47943,-2.05507 -4.27348,-4.83078c-0.96006,-1.48538 -1.38199,-2.94905 -1.48474,-3.85467c-0.38795,-3.41903 -0.27361,-9.07263 -0.17697,-10.84149c-0.05277,-6.53104 -0.32433,-17.14369 -0.32433,-17.14369l0.62932,-0.03724c0,0 0.23752,8.24369 0.26431,17.12077c-0.27738,6.06284 -0.04419,8.02444 0.19693,10.72287c0.19278,2.15744 1.03373,3.27765 1.18719,3.56092c1.00551,1.59597 4.9548,6.23743 3.98178,5.3033z" data-paper-data="{&quot;index&quot;:null}" fill="#000000" stroke-width="0" stroke-linecap="butt"/><path d="M255.99739,308.54401l4.28571,-3.47619" fill="none" stroke-width="0.5" stroke-linecap="round"/><path d="M261.56881,307.02021l-7.19047,-0.76191" fill="none" stroke-width="0.5" stroke-linecap="round"/><path d="M253.5882,304.82119l5.29365,-3.00587" fill="none" stroke-width="0.5" stroke-linecap="round"/><path d="M259.40016,303.90534l-6.82844,-1.91221" fill="none" stroke-width="0.5" stroke-linecap="round"/><path d="M258.69153,298.0115l-6.14234,3.02744" fill="none" stroke-width="0.5" stroke-linecap="round"/><path d="M252.29376,298.34452l6.374,2.3149" fill="none" stroke-width="0.5" stroke-linecap="round"/><path d="M258.65076,294.10316l-6.5246,2.49977" fill="none" stroke-width="0.5" stroke-linecap="round"/><path d="M258.72414,296.27609l-6.47506,-2.27503" fill="none" stroke-width="0.5" stroke-linecap="round"/><path d="M252.34258,292.4477l6.6725,-2.27012" fill="none" stroke-width="0.5" stroke-linecap="round"/><path d="M252.35143,289.90355c0,0 0.80425,0.36301 1.42237,0.642c1.15735,0.52238 4.98649,2.2507 4.98649,2.2507" fill="none" stroke-width="0.5" stroke-linecap="round"/><path d="M252.48544,287.87629l6.81535,-2.65108" fill="none" stroke-width="0.5" stroke-linecap="round"/><path d="M252.20857,285.52262l6.7422,2.46413" fill="none" stroke-width="0.5" stroke-linecap="round"/><path d="M259.72936,280.70141l-7.52964,2.98441" fill="none" stroke-width="0.5" stroke-linecap="round"/><path d="M252.06571,280.57024c0,0 2.6112,1.07378 3.85723,1.58617c1.17135,0.48169 3.40878,1.40177 3.40878,1.40177" fill="none" stroke-width="0.5" stroke-linecap="round"/><path d="M260.11032,276.60616l-7.76774,3.03203" fill="none" stroke-width="0.5" stroke-linecap="round"/><path d="M259.80791,279.55818c0,0 -2.23743,-0.92007 -3.40878,-1.40177c-1.24603,-0.5124 -4.42865,-2.01475 -4.42865,-2.01475" fill="none" stroke-width="0.5" stroke-linecap="round"/></g></g><g stroke-linecap="butt"><g fill="#0d1c55" stroke="none" stroke-width="0"><path d="M262.87648,305.73184c0,0 -5.45382,3.14533 -10.86047,2.26428c-3.6779,-0.59934 -10.94548,-2.60107 -10.94548,-2.60107l-1.17829,-110.30232c0,0 -9.19861,-32.66224 -8.84553,-32.82518c2.52788,-1.16657 35.09286,-1.30776 35.09286,-1.30776c0,0 1.81959,10.08624 1.5911,17.97902c-0.64732,22.35999 -4.85418,126.79303 -4.85418,126.79303z" data-paper-data="{&quot;index&quot;:null}"/><path d="M212.07706,179.14289c-0.2285,-7.89277 1.59109,-17.97901 1.59109,-17.97901c0,0 32.56498,0.14118 35.09286,1.30775c0.35308,0.16294 -8.84553,32.82518 -8.84553,32.82518l-1.17829,110.30232c0,0 -7.26758,2.00172 -10.94548,2.60107c-5.40665,0.88104 -10.86047,-2.26428 -10.86047,-2.26428c0,0 -4.20686,-104.43304 -4.85418,-126.79303z" data-paper-data="{&quot;index&quot;:null}"/></g><g data-paper-data="{&quot;index&quot;:null}"><g fill="none" stroke="none" stroke-width="1" font-family="sans-serif" font-weight="normal" font-size="12" text-anchor="start"/><g><g fill="none" stroke="none" stroke-width="1" font-family="sans-serif" font-weight="normal" font-size="12" text-anchor="start"><g/><g data-paper-data="{&quot;index&quot;:null}"/></g><path d="M265.99346,161.09184c0,0 -18.15132,1.69713 -26.21606,1.72718c-7.30369,0.02721 -25.98572,-1.81154 -25.98572,-1.81154l0.58121,-5.73598c0,0 16.82505,1.69529 24.15967,1.68559c8.00765,-0.01059 26.7996,-1.8543 26.7996,-1.8543z" fill="url(#color-1)" stroke="#091647" stroke-width="1"/><g stroke="none"><path d="M245.64081,162.75697l-0.2832,-6.15707l2.30307,-0.12453l0.2832,6.15707z" fill="#bbbcbe" stroke-width="NaN"/><path d="M242.90291,157.02411c-0.01962,-0.42656 -0.0099,-0.77506 0.02171,-0.77677l0.81447,-0.04404c0.03158,-0.00171 0.07324,0.34387 0.09287,0.77042l0.25682,5.5835c0.01962,0.42656 0.00987,0.77491 -0.02171,0.77662l-0.81447,0.04404c-0.03161,0.0017 -0.07325,-0.34388 -0.09287,-0.77043l-0.25682,-5.58335z" fill="url(#color-2)" stroke-width="1"/><path d="M238.15312,160.0662c-0.06454,-1.40329 0.34946,-2.5661 0.9247,-2.5972c0.57523,-0.03111 1.09389,1.08127 1.15843,2.48456c0.06455,1.40329 -0.34945,2.5661 -0.92469,2.5972c-0.57524,0.0311 -1.0939,-1.08128 -1.15844,-2.48457z" fill="url(#color-3)" stroke-width="0"/><path d="M238.92426,157.4366c-0.01807,-0.39278 0.16528,-0.72311 0.40902,-0.73629l6.28005,-0.33957c0.24349,-0.01317 0.4564,0.2956 0.47447,0.68838l0.23648,5.14137c0.01806,0.39277 -0.16545,0.72299 -0.40894,0.73615l-6.28005,0.33957c-0.24375,0.01317 -0.45648,-0.29561 -0.47455,-0.68839l-0.23648,-5.14123z" fill="url(#color-4)" stroke-width="1"/></g></g></g></g><path d="M244.23178,83.29631l-2.33035,1.68318l3.66598,69.75369c0,0 -5.5276,5.86172 -5.62403,5.86125c-0.09496,-0.00047 -5.51076,-6.00626 -5.51076,-6.00626l3.87336,-69.53634l-2.42696,-1.7066c0,0 1.05196,-2.21547 2.04329,-3.62261c0.85045,-1.20716 2.19339,-2.95337 2.19339,-2.95337l2.26446,3.22751z" fill="#0d1c55" stroke="none" stroke-width="0" stroke-linecap="butt"/><path d="M239.2717,57.21667c-4.90541,0 -14.54434,-3.97041 -14.54434,-3.97041c0,0 2.41592,-8.37902 4.74257,-11.48448c0.94453,-1.2607 2.54432,-2.69907 4.17776,-4.00627c0.14329,-0.11467 0.34809,0.42256 0.49147,0.31011c2.59622,-2.03596 5.0785,-4.32357 5.0785,-4.32357c0,0 2.54064,2.25497 5.15144,4.26415c0.17433,0.13416 0.40995,-0.38077 0.58358,-0.24336c1.48006,1.17129 2.90691,2.44787 3.80249,3.60869c2.43386,3.15467 5.38769,11.87474 5.38769,11.87474c0,0 -9.89087,3.9704 -14.87116,3.9704z" fill="#0d1c55" stroke="#000d46" stroke-width="0.5" stroke-linecap="round"/><path d="M239.26308,34.32663l0.06216,22.52853" fill="none" stroke="#000d46" stroke-width="0.5" stroke-linecap="round"/><g stroke="#000d46" stroke-width="0.5" stroke-linecap="round"><path d="M225.93855,53.77818c0,0 2.75848,-5.20576 6.45453,-8.40799c2.54342,-2.20359 5.59994,-3.8123 7.09958,-4.32307c1.40409,-0.47822 5.36827,-3.3421 5.36827,-3.3421" fill="none"/><path d="M239.12376,41.12885c0,0 -1.84185,-0.62797 -2.82735,-1.20021c-0.99474,-0.57761 -2.56422,-2.21083 -2.56422,-2.21083" fill="#0c194e"/></g></g></g></svg>