<svg version="1.1" xmlns="http://www.w3.org/2000/svg" xmlns:xlink="http://www.w3.org/1999/xlink" width="91.97005" height="286.95419" viewBox="0,0,91.97005,286.95419"><g transform="translate(-194.06606,-36.3979)"><g data-paper-data="{&quot;isPaintingLayer&quot;:true}" fill-rule="nonzero" stroke-linejoin="miter" stroke-miterlimit="10" stroke-dasharray="" stroke-dashoffset="0" style="mix-blend-mode: normal"><g stroke="#000000"><g><g data-paper-data="{&quot;index&quot;:null}" stroke-width="0" stroke-linecap="butt"><path d="M208.33073,320.98737c-1.47849,-13.91306 29.7961,-17.31125 29.64937,-17.25323l-0.19008,6.57121c-1.71431,2.95866 -5.2019,3.64819 -5.2019,3.64819l-0.10832,-1.14714c-1.32049,0.52215 -4.66545,5.0405 -9.29743,8.77276c-2.93323,2.36347 -8.3211,1.9233 -11.77346,1.18453c-2.05522,-0.43979 -3.07819,-1.77633 -3.07819,-1.77633z" fill="#000000"/><path d="M219.12143,269.11809c0,0 4.33184,2.2845 10.13818,1.88551c2.61144,-0.17945 4.77863,-0.81865 8.02402,-2.35814c0,0 -0.22213,24.31132 -0.2148,28.90673c0.00705,4.41866 2.95478,10.26359 -4.42379,12.75574c-3.95528,1.33591 -6.95384,10.64681 -15.0808,11.01326c-8.12697,0.36645 -8.70833,-1.88725 -8.70833,-1.88725c0,0 -1.345,-4.26351 1.93333,-6.7432c2.62219,-2.11885 6.38832,-6.45112 9.1938,-11.4045c2.80548,-4.95339 -0.86161,-32.16815 -0.86161,-32.16815z" fill="#1a1a1a"/><path d="M208.75082,315.75058c0.73801,-2.34272 2.92626,-4.43803 4.15527,-5.65867c2.94762,-2.92755 5.78096,-7.0456 6.72464,-8.67889c0.1425,-0.28893 0.93996,-1.44051 1.05001,-3.60375c0.13765,-2.70568 0.29558,-4.67477 -0.21368,-10.72255c-0.73766,-8.76003 -1.66289,-18.14756 -1.66289,-18.14756c0,0 0.59158,0.03337 0.76014,1.23638c0.46244,3.30045 0.91602,10.95924 1.47393,16.9495c0.16428,1.76386 0.49495,7.40894 0.23817,10.84031c-0.06801,0.90889 -0.4336,2.38764 -1.3361,3.90868c-1.68648,2.84235 -4.33385,5.93448 -5.38152,7.23257c-0.93655,0.97069 -3.15567,3.10912 -4.3363,4.60805c-0.43351,0.55039 -1.02569,1.73096 -1.22783,2.90912c-0.27508,1.60325 -0.07651,3.20198 -0.07651,3.20198c0,0 -0.72804,-2.29529 -0.16733,-4.07517z" fill="#000000"/><path d="M227.48943,270.32898c4.76105,0.04907 9.86763,-1.68508 9.86763,-1.68508c0,0 0.01167,2.17759 -9.57131,2.64683c-8.31977,0.28584 -8.89517,-2.40233 -8.89517,-2.40233c0,0 3.48602,1.38788 8.59885,1.44058z" fill="#000000"/><path d="M237.56217,278.13037c-0.00367,1.94421 -0.00768,4.06517 -0.01234,6.53962c-0.00466,2.47445 -0.05158,4.9489 -0.05659,7.60009c-0.00266,1.41397 -0.04725,2.6512 -0.04958,3.88842c-0.00267,1.41397 0.22995,2.47473 0.37775,3.71224c0.29557,2.47501 0.31018,5.48145 -0.44412,7.42424c-0.45203,0.88289 -2.21985,2.03182 -2.9222,2.23479c-0.46019,0.13299 -1.71206,0.13368 -1.71206,0.13368c0,0 1.06939,-0.31165 2.1481,-1.01613c1.0281,-0.67142 2.02067,-2.1609 2.168,-2.59187c0.60383,-1.76633 0.39243,-4.0646 0.09651,-6.36287c-0.14812,-1.06077 -0.29557,-2.47502 -0.29324,-3.71224c0.00233,-1.23722 0.12488,-8.97153 0.12954,-11.44597c0.15446,-2.29742 0.11091,-15.60315 0.11091,-15.60315l0.38716,-0.2982c0,0 0.0795,5.60894 0.07216,9.49736z" fill="#000000"/><path d="M230.59786,309.26107c0,0 -0.02495,-3.19761 0.67227,-5.95683c0.19155,-0.75803 0.43759,-1.48297 0.75364,-2.09943c1.46644,-2.86041 4.51238,-4.11299 4.81261,-4.11244c0.45037,0.00085 0.28136,0.42339 -0.01923,0.59956c-0.06732,0.07896 -2.74898,1.19136 -4.11225,3.73605c-1.68356,3.14257 -2.10706,7.8331 -2.10706,7.8331z" fill="#000000"/></g><path d="M225.79098,302.58778c0.15346,-0.28326 0.99441,-1.40347 1.18719,-3.56092c0.24112,-2.69843 0.47431,-4.66003 0.19693,-10.72287c0.02679,-8.87709 0.26431,-17.12078 0.26431,-17.12078l0.62932,0.03724c0,0 -0.27156,10.61265 -0.32433,17.14369c0.09664,1.76885 0.21098,7.42246 -0.17697,10.84148c-0.10275,0.90562 -0.52468,2.36929 -1.48474,3.85467c-1.79405,2.77571 -3.1769,3.57375 -4.27348,4.83078c-0.97302,0.93412 2.97627,-3.70733 3.98178,-5.30331z" data-paper-data="{&quot;index&quot;:null}" fill="#000000" stroke-width="0" stroke-linecap="butt"/><path d="M223.76198,305.6429l-4.28571,-3.47619" fill="none" stroke-width="0.5" stroke-linecap="round"/><path d="M225.38103,303.35718l-7.19047,0.7619" fill="none" stroke-width="0.5" stroke-linecap="round"/><path d="M220.87753,298.91422l5.29365,3.00587" fill="none" stroke-width="0.5" stroke-linecap="round"/><path d="M220.35921,301.00422l6.82844,-1.91221" fill="none" stroke-width="0.5" stroke-linecap="round"/><path d="M221.06785,295.11038l6.14234,3.02744" fill="none" stroke-width="0.5" stroke-linecap="round"/><path d="M221.09161,297.7583l6.374,-2.3149" fill="none" stroke-width="0.5" stroke-linecap="round"/><path d="M227.63321,293.70183l-6.5246,-2.49977" fill="none" stroke-width="0.5" stroke-linecap="round"/><path d="M227.51029,291.09996l-6.47506,2.27502" fill="none" stroke-width="0.5" stroke-linecap="round"/><path d="M227.4168,289.54661l-6.6725,-2.27012" fill="none" stroke-width="0.5" stroke-linecap="round"/><path d="M227.40795,287.00245l-6.40886,2.8927" fill="none" stroke-width="0.5" stroke-linecap="round"/><path d="M220.45859,282.32409l6.81535,2.65108" fill="none" stroke-width="0.5" stroke-linecap="round"/><path d="M227.5508,282.6215l-6.7422,2.46413" fill="none" stroke-width="0.5" stroke-linecap="round"/><path d="M220.03001,277.8003l7.52964,2.98441" fill="none" stroke-width="0.5" stroke-linecap="round"/><path d="M220.42765,280.65706c0,0 2.23743,-0.92008 3.40878,-1.40177c1.24603,-0.51239 3.85723,-1.58617 3.85723,-1.58617" fill="none" stroke-width="0.5" stroke-linecap="round"/><path d="M227.4168,276.73709l-7.76774,-3.03203" fill="none" stroke-width="0.5" stroke-linecap="round"/><path d="M227.7889,273.24055c0,0 -3.18263,1.50236 -4.42865,2.01475c-1.17135,0.48169 -3.40878,1.40177 -3.40878,1.40177" fill="none" stroke-width="0.5" stroke-linecap="round"/></g><g data-paper-data="{&quot;index&quot;:null}"><g data-paper-data="{&quot;index&quot;:null}" stroke-width="0" stroke-linecap="butt"><path d="M271.38032,320.98261c0,0 -1.02297,1.33654 -3.07819,1.77633c-3.45236,0.73877 -8.84023,1.17894 -11.77346,-1.18453c-4.63198,-3.73226 -7.97694,-8.25061 -9.29743,-8.77276l-0.10832,1.14714c0,0 -3.48759,-0.68953 -5.2019,-3.64819l-0.19008,-6.57121c-0.14673,-0.05802 31.12786,3.34017 29.64937,17.25323z" fill="#000000"/><path d="M259.728,301.28149c2.80548,4.95338 6.57161,9.28565 9.1938,11.4045c3.27833,2.47969 1.93333,6.7432 1.93333,6.7432c0,0 -0.58136,2.2537 -8.70833,1.88725c-8.12696,-0.36645 -11.12552,-9.67735 -15.0808,-11.01326c-7.37857,-2.49215 -4.43084,-8.33708 -4.42379,-12.75574c0.00733,-4.59541 -0.2148,-28.90673 -0.2148,-28.90673c3.24539,1.53949 5.41259,2.1787 8.02402,2.35815c5.80634,0.39899 10.13818,-1.88552 10.13818,-1.88552c0,0 -3.66709,27.21476 -0.86161,32.16815z" fill="#1a1a1a"/><path d="M270.79289,319.821c0,0 0.19856,-1.59874 -0.07651,-3.20198c-0.20214,-1.17815 -0.79431,-2.35873 -1.22783,-2.90912c-1.18063,-1.49893 -3.39975,-3.63737 -4.3363,-4.60805c-1.04766,-1.29809 -3.69504,-4.39022 -5.38152,-7.23257c-0.9025,-1.52104 -1.26809,-2.99979 -1.3361,-3.90868c-0.25678,-3.43137 0.07389,-9.07645 0.23817,-10.84031c0.55791,-5.99026 1.01149,-13.64905 1.47393,-16.9495c0.16856,-1.203 0.76014,-1.23638 0.76014,-1.23638c0,0 -0.92523,9.38753 -1.66289,18.14756c-0.50926,6.04778 -0.35133,8.01687 -0.21368,10.72255c0.11005,2.16324 0.90751,3.31482 1.05001,3.60375c0.94368,1.63329 3.77702,5.75134 6.72464,8.67889c1.22901,1.22064 3.41726,3.31595 4.15527,5.65867c0.56071,1.77988 -0.16733,4.07517 -0.16733,4.07517z" fill="#000000"/><path d="M260.82046,268.88365c0,0 -0.5754,2.68817 -8.89517,2.40233c-9.58298,-0.46923 -9.57131,-2.64682 -9.57131,-2.64682c0,0 5.10658,1.73415 9.86763,1.68508c5.11283,-0.0527 8.59885,-1.44058 8.59885,-1.44058z" fill="#000000"/><path d="M242.22104,268.62827l0.38716,0.2982c0,0 -0.04354,13.30573 0.11091,15.60315c0.00466,2.47445 0.12721,10.20875 0.12954,11.44597c0.00233,1.23722 -0.14512,2.65147 -0.29324,3.71224c-0.29591,2.29827 -0.50731,4.59654 0.09652,6.36287c0.14733,0.43097 1.1399,1.92045 2.168,2.59187c1.07871,0.70448 2.1481,1.01613 2.1481,1.01613c0,0 -1.25187,-0.00069 -1.71206,-0.13368c-0.70235,-0.20297 -2.47017,-1.3519 -2.9222,-2.23478c-0.75429,-1.9428 -0.73969,-4.94924 -0.44412,-7.42425c0.1478,-1.23751 0.38042,-2.29827 0.37775,-3.71224c-0.00233,-1.23722 -0.04692,-2.47445 -0.04958,-3.88842c-0.00501,-2.65119 -0.05193,-5.12564 -0.0566,-7.60009c-0.00466,-2.47445 -0.00867,-4.59541 -0.01234,-6.53962c-0.00734,-3.88842 0.07217,-9.49735 0.07217,-9.49735z" fill="#000000"/><path d="M249.1132,309.25634c0,0 -0.4235,-4.69052 -2.10706,-7.83309c-1.36327,-2.5447 -4.04493,-3.65709 -4.11225,-3.73605c-0.30058,-0.17618 -0.4696,-0.59871 -0.01923,-0.59956c0.30024,-0.00056 3.34618,1.25203 4.81262,4.11244c0.31605,0.61646 0.56209,1.3414 0.75364,2.09943c0.69722,2.75923 0.67227,5.95683 0.67227,5.95683z" fill="#000000"/></g><path d="M257.90184,307.88635c-1.09659,-1.25703 -2.47943,-2.05507 -4.27348,-4.83078c-0.96006,-1.48538 -1.38199,-2.94905 -1.48474,-3.85467c-0.38795,-3.41903 -0.27361,-9.07263 -0.17697,-10.84149c-0.05277,-6.53104 -0.32433,-17.14369 -0.32433,-17.14369l0.62932,-0.03724c0,0 0.23752,8.24369 0.26431,17.12077c-0.27738,6.06284 -0.04419,8.02444 0.19693,10.72287c0.19278,2.15744 1.03373,3.27765 1.18719,3.56092c1.00551,1.59597 4.9548,6.23743 3.98178,5.3033z" data-paper-data="{&quot;index&quot;:null}" fill="#000000" stroke-width="0" stroke-linecap="butt"/><path d="M255.94906,305.63815l4.28571,-3.47619" fill="none" stroke-width="0.5" stroke-linecap="round"/><path d="M261.52048,304.11435l-7.19047,-0.76191" fill="none" stroke-width="0.5" stroke-linecap="round"/><path d="M253.53987,301.91534l5.29365,-3.00587" fill="none" stroke-width="0.5" stroke-linecap="round"/><path d="M259.35183,300.99948l-6.82844,-1.91221" fill="none" stroke-width="0.5" stroke-linecap="round"/><path d="M258.6432,295.10564l-6.14234,3.02744" fill="none" stroke-width="0.5" stroke-linecap="round"/><path d="M252.24543,295.43866l6.374,2.3149" fill="none" stroke-width="0.5" stroke-linecap="round"/><path d="M252.07783,293.69708l6.5246,-2.49977" fill="none" stroke-width="0.5" stroke-linecap="round"/><path d="M252.20075,291.09521l6.47506,2.27503" fill="none" stroke-width="0.5" stroke-linecap="round"/><path d="M258.96675,287.27173l-6.6725,2.27012" fill="none" stroke-width="0.5" stroke-linecap="round"/><path d="M252.3031,286.9977c0,0 0.80425,0.36301 1.42237,0.642c1.15735,0.52238 4.98649,2.2507 4.98649,2.2507" fill="none" stroke-width="0.5" stroke-linecap="round"/><path d="M252.43711,284.97044l6.81535,-2.65108" fill="none" stroke-width="0.5" stroke-linecap="round"/><path d="M258.90244,285.08089l-6.7422,-2.46413" fill="none" stroke-width="0.5" stroke-linecap="round"/><path d="M252.15139,280.77996l7.52964,-2.98441" fill="none" stroke-width="0.5" stroke-linecap="round"/><path d="M252.01738,277.66438c0,0 2.6112,1.07378 3.85723,1.58617c1.17135,0.48169 3.40878,1.40177 3.40878,1.40177" fill="none" stroke-width="0.5" stroke-linecap="round"/><path d="M252.29425,276.73234l7.76774,-3.03203" fill="none" stroke-width="0.5" stroke-linecap="round"/><path d="M259.75958,276.65232c0,0 -2.23743,-0.92007 -3.40878,-1.40177c-1.24603,-0.5124 -4.42865,-2.01475 -4.42865,-2.01475" fill="none" stroke-width="0.5" stroke-linecap="round"/></g></g><g><path d="M236.09689,284.30347c-2.15028,0.47151 -4.82923,0.61895 -8.0436,0.84846c-3.35523,0.23956 -6.77159,-0.5054 -8.78477,-1.22433c-1.14872,-0.41022 -2.16444,-0.48985 -2.18963,-1.08706c-0.03869,-0.91729 0.22214,-2.38886 0.17484,-3.51029c-0.43229,-10.24946 -1.97159,-46.74555 -1.97159,-46.74555c0,0 -0.59724,-3.4831 -0.74733,-6.84567c-0.18615,-4.17054 -0.28482,-16.27969 -0.28482,-16.27969l-1.20288,-29.8659c0,0 0.04022,-6.89408 0.24036,-10.09788c0.23313,-3.732 1.07461,-10.95226 1.07461,-10.95226l19.54802,0.46987l0.33138,32.58401l5.60508,1.74983c0,0 -0.52305,59.67748 -0.73287,83.61662c-0.01493,1.70302 0.45821,3.48049 0.44675,4.78743c-0.01812,2.06789 -1.99125,2.22957 -3.46357,2.55241z" data-paper-data="{&quot;index&quot;:null}" fill="#091647" stroke="#061031" stroke-width="0.5" stroke-linecap="butt"/><path d="M240.23232,281.76137c-0.01145,-1.30694 0.46168,-3.08441 0.44675,-4.78743c-0.20982,-23.93913 -0.73287,-83.61662 -0.73287,-83.61662l-5.67128,-1.69698l-0.35704,-32.63686l31.5128,-0.46987c0,0 0.84148,7.22026 1.07461,10.95226c0.20014,3.2038 0.24036,10.09788 0.24036,10.09788c0,0 -0.54718,12.97336 -1.26228,29.92834c-0.17527,4.15535 -0.01991,10.87436 -0.20976,15.37565c-0.25339,8.26216 -0.76527,7.92061 -0.76527,7.92061c0,0 -1.53743,36.27301 -1.96929,46.51221c-0.0473,1.12143 0.21353,2.59299 0.17484,3.51029c-0.02519,0.59722 -1.04091,0.67684 -2.18962,1.08706c-2.01319,0.71893 -5.42954,1.4639 -8.78477,1.22433c-3.21436,-0.22951 -5.89333,-0.37696 -8.0436,-0.84846c-1.47231,-0.32285 -3.44545,-0.48452 -3.46357,-2.55241z" data-paper-data="{&quot;index&quot;:null}" fill="#091647" stroke="#061031" stroke-width="0.5" stroke-linecap="butt"/><path d="M238.63279,155.10901l-0.41065,6.29591c-0.0314,0.48099 -0.18266,0.86712 -0.33747,0.86083c0,0 -1.2853,-0.05226 -1.94091,-0.07892c-0.67337,-0.02738 -2.04747,-0.08325 -2.04747,-0.08325c-0.15467,-0.00629 -0.25503,-0.40265 -0.22368,-0.88365l0.41062,-6.29608c0.0314,-0.48099 0.18276,-0.86712 0.33743,-0.86083l3.98843,0.16217c0.15476,0.00629 0.25504,0.40282 0.22365,0.88381z" fill="#0b0e0d" stroke="none" stroke-width="1" stroke-linecap="butt"/><path d="M214.73552,153.5185c0,0 18.51825,1.84371 26.40927,1.8543c7.2278,0.0097 23.8078,-1.68559 23.8078,-1.68559l0.72833,5.73598c0,0 -18.56553,1.83875 -25.76284,1.81154c-7.94728,-0.03005 -25.83423,-1.72718 -25.83423,-1.72718z" fill="#1d1e26" stroke="#0b0b0b" stroke-width="0.5" stroke-linecap="butt"/><path d="M238.99752,155.12879l-0.36198,6.30038c-0.02766,0.48133 -0.08635,0.8713 -0.13091,0.86938l-1.14795,-0.0497c-0.04452,-0.00193 -0.05825,-0.39502 -0.03061,-0.87636l0.36197,-6.30055c0.02766,-0.48133 0.08638,-0.87129 0.1309,-0.86936l1.14796,0.04969c0.04455,0.00193 0.05825,0.39519 0.03059,0.87653z" fill="#0b0e0d" stroke="none" stroke-width="1" stroke-linecap="butt"/><path d="M234.68636,154.91551l-0.36197,6.30038c-0.02766,0.48133 -0.08635,0.87129 -0.13091,0.86937l-1.14795,-0.04969c-0.04452,-0.00193 -0.05825,-0.39502 -0.03061,-0.87636l0.36198,-6.30055c0.02766,-0.48133 0.08638,-0.87129 0.1309,-0.86936l1.14796,0.0497c0.04455,0.00193 0.05825,0.39518 0.03059,0.87652z" fill="#0b0e0d" stroke="none" stroke-width="1" stroke-linecap="butt"/><path d="M215.08789,232.73902c0,0 -0.32913,-2.7774 -0.553,-6.4502c-0.14512,-2.38096 -0.24601,-5.13821 -0.18432,-7.75903c0.08397,-3.56711 -0.162,-6.2759 -0.158,-8.75991c0.00089,-0.55217 -0.34047,0.047 -0.34179,-0.4062c-0.01262,-4.3561 -0.01462,-10.80185 -0.01462,-10.80185l10.55668,-1.15516l0.38168,34.15475z" fill="none" stroke="#061031" stroke-width="0.5" stroke-linecap="butt"/><path d="M224.47338,208.45667c0,0 -8.75045,0.86821 -10.23235,1.01524" fill="none" stroke="#061031" stroke-width="0.5" stroke-linecap="round"/><path d="M217.01787,276.37341c0,0 -0.50911,-13.38046 -0.58209,-15.00201c-0.01622,-0.36045 -0.15668,0.04097 -0.17163,-0.25482c-0.14365,-2.84305 -0.34292,-7.05046 -0.34292,-7.05046l8.38863,-1.07299l1.35194,22.28296z" fill="none" stroke="#061031" stroke-width="0.5" stroke-linecap="butt"/><path d="M216.57888,261.17544c1.17802,-0.14075 8.1341,-0.97186 8.1341,-0.97186" fill="none" stroke="#061031" stroke-width="0.5" stroke-linecap="round"/><path d="M254.98258,231.56143l0.38168,-34.15475l10.55668,1.15516c0,0 -0.00201,6.44576 -0.01462,10.80185c-0.00131,0.4532 -0.34267,-0.14596 -0.34179,0.4062c0.00399,2.484 -0.24197,5.1928 -0.158,8.75991c0.15686,6.66363 -0.73731,14.20923 -0.73731,14.20923z" data-paper-data="{&quot;index&quot;:null}" fill="none" stroke="#061031" stroke-width="0.5" stroke-linecap="butt"/><path d="M265.51604,209.47191c-1.4819,-0.14703 -10.23234,-1.01524 -10.23234,-1.01524" data-paper-data="{&quot;index&quot;:null}" fill="none" stroke="#061031" stroke-width="0.5" stroke-linecap="round"/><path d="M254.09532,275.27609l1.35194,-22.28296l8.38862,1.07299c0,0 -0.19927,4.20741 -0.34292,7.05046c-0.01495,0.29579 -0.21219,-0.22484 -0.22842,0.13561c-0.07299,1.62155 -0.5253,15.12122 -0.5253,15.12122z" data-paper-data="{&quot;index&quot;:null}" fill="none" stroke="#061031" stroke-width="0.5" stroke-linecap="butt"/><path d="M255.0441,260.20358c0,0 6.95608,0.83111 8.1341,0.97186" data-paper-data="{&quot;index&quot;:null}" fill="none" stroke="#061031" stroke-width="0.5" stroke-linecap="round"/><path d="M218.80663,154.19483l-0.61414,5.26729c-0.04692,0.4024 -0.13351,0.72711 -0.19311,0.72388l-1.53544,-0.08321c-0.05954,-0.00323 -0.06983,-0.33318 -0.02293,-0.73559l0.61416,-5.26744c0.04692,-0.4024 0.13354,-0.72711 0.19309,-0.72388l1.53545,0.08322c0.05958,0.00323 0.06983,0.33331 0.02289,0.73573z" fill="#061031" stroke="none" stroke-width="1" stroke-linecap="butt"/><path d="M231.04913,155.22286l-0.61414,5.2673c-0.04692,0.4024 -0.13351,0.72711 -0.19311,0.72388l-1.53543,-0.08321c-0.05954,-0.00323 -0.06983,-0.33317 -0.02293,-0.73559l0.61416,-5.26744c0.04691,-0.4024 0.13354,-0.72711 0.19309,-0.72388l1.53545,0.08322c0.05958,0.00323 0.06983,0.33331 0.02289,0.73573z" fill="#061031" stroke="none" stroke-width="1" stroke-linecap="butt"/><path d="M259.37435,154.50664c-0.04461,-0.40271 -0.03246,-0.73271 0.02714,-0.73557l1.5359,-0.07347c0.05956,-0.00285 0.14432,0.3224 0.18892,0.72509l0.58378,5.27125c0.04458,0.40271 0.03239,0.73258 -0.02717,0.73543l-1.53589,0.07346c-0.05962,0.00285 -0.14433,-0.3224 -0.18893,-0.7251l-0.58376,-5.2711z" data-paper-data="{&quot;index&quot;:null}" fill="#061031" stroke="none" stroke-width="1" stroke-linecap="butt"/><path d="M247.12618,155.45688c-0.04461,-0.40271 -0.03246,-0.73271 0.02714,-0.73557l1.5359,-0.07347c0.05956,-0.00285 0.14432,0.3224 0.18892,0.72509l0.58378,5.27125c0.04458,0.40271 0.03239,0.73258 -0.02717,0.73543l-1.53589,0.07346c-0.05962,0.00285 -0.14433,-0.3224 -0.18893,-0.7251l-0.58376,-5.2711z" data-paper-data="{&quot;index&quot;:null}" fill="#061031" stroke="none" stroke-width="1" stroke-linecap="butt"/></g><g stroke="#000000" stroke-width="0.5"><path d="M213.10984,187.74107c0,0 2.70896,-30.01906 2.18795,-41.88309c-0.31998,-7.28626 -3.99142,-23.67068 -3.99142,-23.67068l-15.27046,0.1817c0,0 0.48642,-13.52292 1.68597,-19.85267c1.04824,-5.53136 4.52405,-15.59893 4.52405,-15.59893l26.50808,-11.76025c0,0 5.28193,11.43411 10.52291,11.55658c5.2688,0.12312 10.39493,-11.53609 10.39493,-11.53609l27.93343,11.79639c0,0 2.92026,9.64508 3.88268,14.94336c1.16847,6.43265 2.63068,20.91379 2.63068,20.91379l-15.97646,0.54069c0,0 -3.18074,11.94835 -3.66107,24.90463c-0.56516,15.24463 0.61345,39.46458 0.61345,39.46458c0,0 -18.77411,0.86441 -27.90678,0.82815c-8.37386,-0.03324 -24.07794,-0.82816 -24.07794,-0.82816z" data-paper-data="{&quot;index&quot;:null}" fill="#000000" stroke-linecap="butt"/><path d="M201.06448,87.27215c0,0 4.11798,11.03567 5.83693,17.56133c1.43889,5.46249 3.78683,18.97332 3.78683,18.97332" fill="none" stroke-linecap="round"/><path d="M268.35161,123.7276c0,0 2.34793,-13.51083 3.78683,-18.97332c1.71895,-6.52566 5.83692,-17.56133 5.83692,-17.56133" data-paper-data="{&quot;index&quot;:null}" fill="none" stroke-linecap="round"/></g><g><path d="M211.70518,187.64899l2.63871,-34.3904l-0.56231,-0.13596c0,0 -0.09413,-4.93877 0.03973,-6.7429c0.03202,-0.43151 0.52178,-0.11332 0.52178,-0.11332c0,0 -0.76148,-7.72729 -1.35461,-11.70184c-0.65494,-4.38872 -2.40801,-13.51134 -2.40801,-13.51134c0,0 -2.28161,47.32451 -2.77453,57.54846c-0.02112,0.43798 0.48996,0.36684 0.48181,0.82674c-0.06091,3.4404 -0.32302,7.74401 -0.32302,7.74401l-13.73922,-0.4188c0,0 0.60204,-6.20509 0.60442,-7.93146c0.00999,-7.24669 0.22791,-56.49854 0.22791,-56.49854c0,0 1.51174,-14.20646 2.71129,-20.53621c1.04824,-5.53136 3.84051,-15.37108 3.84051,-15.37108l23.47039,-9.86161l3.7689,-4.69334c0,0 3.25341,9.54269 5.03748,13.80987c1.28182,3.0659 4.66747,9.40266 4.66747,9.40266c0,0 4.46223,-7.01739 6.67327,-11.11348c1.84702,-3.42173 5.6984,-11.8059 5.6984,-11.8059l4.44202,5.18249l23.08243,9.13594c0,0 3.74502,13.31899 4.70744,18.61727c1.16847,6.43265 1.80593,17.23988 1.80593,17.23988l0.27403,57.37801l0.39034,7.16086l-13.55499,0.34713c0,0 -0.35576,-6.03678 -0.26575,-7.4015c0.04435,-0.6724 0.54917,-0.3059 0.54917,-0.3059l-2.99437,-58.28741c0,0 -2.76204,12.40713 -3.49998,24.84984c-0.03527,0.5947 0.53562,-0.2363 0.51371,0.3547c-0.07756,2.09227 0.08288,4.60396 0.02933,6.9924c-0.00669,0.29829 -0.53814,-0.22666 -0.54466,0.07451c-0.10116,4.66961 0.43561,9.81894 0.80802,14.68519c0.8125,10.61716 1.97028,19.81186 1.97028,19.81186c0,0 -17.72432,0.45544 -26.85699,0.41918c-8.37386,-0.03324 -30.07632,-0.76 -30.07632,-0.76z" data-paper-data="{&quot;index&quot;:null}" fill="#091647" stroke="#000000" stroke-width="0" stroke-linecap="butt"/><path d="M237.60401,96.95168c-0.01196,2.10622 0.81288,42.07161 0.9998,52.48537c0.01506,0.8388 0.18164,38.58192 0.18765,39.00203" data-paper-data="{&quot;index&quot;:null}" fill="none" stroke="#061031" stroke-width="0.5" stroke-linecap="round"/><path d="M213.78537,129.58857v-22.2348h16.95152v22.24304z" fill="none" stroke="#061031" stroke-width="0.5" stroke-linecap="butt"/><path d="M213.86276,114.47381l16.80875,0.07315" fill="none" stroke="#061031" stroke-width="0.5" stroke-linecap="round"/><path d="M213.27694,168.41088c0,0 0.18585,-4.36369 0.58745,-8.68687c0.21498,-2.31424 0.31611,-4.61688 0.37124,-6.23231c0.01225,-0.35909 -0.592,0.00634 -0.58549,-0.28854c0.0626,-2.83431 0.18416,-7.02708 0.18416,-7.02708h18.34946v22.24304z" fill="none" stroke="#061031" stroke-width="0.5" stroke-linecap="butt"/><path d="M232.10927,153.36926c0,0 -15.20816,-0.05808 -17.78368,-0.06792" fill="none" stroke="#061031" stroke-width="0.5" stroke-linecap="round"/><path d="M243.54102,188.57703l-32.00668,-0.67907l1.9493,-19.33797" fill="none" stroke="#061031" stroke-width="0.5" stroke-linecap="round"/><path d="M237.72213,97.23143c-0.00225,0.39545 4.76308,0.04293 4.76308,0.04293c0,0 0.73941,43.78954 0.89124,52.24809c0.01506,0.83881 0.18163,38.53401 0.18764,38.95413" data-paper-data="{&quot;index&quot;:null}" fill="none" stroke="#061031" stroke-width="0.5" stroke-linecap="round"/><path d="M210.40701,119.40724c0,0 0.31008,2.93837 0.06237,7.80514c-0.33906,6.66145 -2.65934,51.78393 -2.65934,51.78393l0.51962,0.02611l-0.27698,8.11145l-13.725,-0.32215l0.38417,-8.25788c0,0 0.24107,-0.01298 0.23943,-0.05227c-0.2376,-5.67663 0.09383,-46.93876 0.09383,-46.93876c0,0 -0.30571,-17.52435 2.82927,-31.08083c2.74068,-11.85138 3.81016,-14.02457 3.81411,-14.0089c0.6028,2.39399 4.44639,11.52682 6.32972,20.32053c1.65295,7.71803 5.18445,27.90778 6.34022,39.36391" fill="none" stroke="#061031" stroke-width="0.5" stroke-linecap="round"/><path d="M201.82743,86.35802l22.56388,-9.05355" fill="#c9cce9" stroke="#061031" stroke-width="0.5" stroke-linecap="round"/><path d="M250.85906,71.82877c0,0 -4.2193,9.41874 -6.54468,13.81095c-2.05303,3.87779 -6.54393,10.83749 -6.54393,10.83749c0,0 -0.19602,0.29959 -0.08454,0.24285c0.59633,-0.30348 3.13727,-1.824 4.82283,-2.59117c2.19509,-0.99908 7.45252,-2.47828 7.45252,-2.47828l0.94397,-19.75209c0,0 4.14097,4.83277 5.98734,7.66221c1.87478,2.87296 5.35483,9.50613 5.35483,9.50613l-12.02684,-0.6149" fill="none" stroke="#061031" stroke-width="0.5" stroke-linecap="round"/><path d="M229.47348,88.43357l-11.93486,0.63329c0,0 3.48007,-6.63317 5.35484,-9.50613c1.84637,-2.82944 5.92818,-7.54393 5.92818,-7.54393l0.84675,19.67291c0,0 -0.09751,1.37619 3.57858,2.8985c2.19842,0.91039 4.19613,1.18341 4.98633,0.9817c0.29599,-0.07555 0.32197,-0.39315 0.32197,-0.39315c0,0 -3.41493,-6.51083 -5.1052,-10.48089c-1.4269,-3.35145 -4.58945,-12.62613 -4.58945,-12.62613" data-paper-data="{&quot;index&quot;:null}" fill="none" stroke="#061031" stroke-width="0.5" stroke-linecap="round"/><path d="M208.20721,179.06629l-13.4898,-0.44132" fill="none" stroke="#061031" stroke-width="0.5" stroke-linecap="round"/><path d="M249.33638,129.84681v-22.24304h16.95152v22.2348z" data-paper-data="{&quot;index&quot;:null}" fill="none" stroke="#061031" stroke-width="0.5" stroke-linecap="butt"/><path d="M249.40176,114.79696l16.80875,-0.07315" data-paper-data="{&quot;index&quot;:null}" fill="none" stroke="#061031" stroke-width="0.5" stroke-linecap="round"/><path d="M247.88951,168.66912v-22.24304h18.34946c0,0 0.12156,4.19277 0.18416,7.02708c0.00651,0.29488 -0.59774,-0.07055 -0.58549,0.28854c0.05513,1.61543 0.15626,3.91807 0.37124,6.23231c0.4016,4.32318 0.58745,8.68687 0.58745,8.68687z" data-paper-data="{&quot;index&quot;:null}" fill="none" stroke="#061031" stroke-width="0.5" stroke-linecap="butt"/><path d="M265.74768,153.55134c-2.57552,0.00984 -17.78368,0.06792 -17.78368,0.06792" data-paper-data="{&quot;index&quot;:null}" fill="none" stroke="#061031" stroke-width="0.5" stroke-linecap="round"/><path d="M266.58963,168.71908l1.9493,19.33797c0,0 -19.20379,0.36198 -24.97571,0.48444" data-paper-data="{&quot;index&quot;:null}" fill="none" stroke="#061031" stroke-width="0.5" stroke-linecap="round"/><path d="M255.53201,77.47949l22.71383,9.20351" data-paper-data="{&quot;index&quot;:null}" fill="#c9cce9" stroke="#061031" stroke-width="0.5" stroke-linecap="round"/><path d="M265.74375,146.42088c1.15577,-11.45613 4.68727,-31.64588 6.34022,-39.36391c1.88333,-8.79371 5.72692,-17.92654 6.32972,-20.32053c0.00395,-0.01567 1.07343,2.15752 3.81411,14.0089c3.13498,13.55648 2.82927,31.08083 2.82927,31.08083c0,0 0.33143,41.26213 0.09383,46.93876c-0.00164,0.03929 0.23943,0.05227 0.23943,0.05227l0.38416,8.25788l-13.725,0.32216l-0.27698,-8.11146l0.51963,-0.02611c0,0 -2.32029,-45.12248 -2.65935,-51.78393c-0.24771,-4.86677 0.06237,-7.80514 0.06237,-7.80514" data-paper-data="{&quot;index&quot;:null}" fill="none" stroke="#061031" stroke-width="0.5" stroke-linecap="round"/><path d="M271.89496,179.29861l13.4898,-0.44133" data-paper-data="{&quot;index&quot;:null}" fill="none" stroke="#061031" stroke-width="0.5" stroke-linecap="round"/></g><g fill="#091647" stroke="#061031" stroke-width="0.5" stroke-linecap="butt"><path d="M225.07737,46.67928c0,0 -0.0782,-2.56726 -0.11743,-3.85548c-0.03942,-1.29437 0.28686,-3.46895 0.70737,-3.89237c0.46279,-0.46599 4.14327,-2.36078 14.19783,-2.28109c9.92379,0.07866 13.70723,1.7747 14.19783,2.28109c0.45823,0.47297 0.70966,2.4685 0.69036,3.73601c-0.02,1.31347 -0.06109,4.01184 -0.06109,4.01184l-0.31463,3.89359c0,0 0.40744,6.61984 -2.32224,6.59795c-0.96087,-0.0077 -6.28707,-1.72207 -12.0714,-1.63882c-5.42562,0.07808 -11.57184,1.83283 -12.09494,1.80001c-2.13226,-0.13377 -2.52358,-6.99179 -2.52358,-6.99179z"/><path d="M225.35267,50.33153l-0.23598,-3.73627c0,0 9.96678,-0.70792 14.8271,-0.70792c4.82754,0 14.74844,0.74725 14.74844,0.74725l-0.27531,3.69694c0,0 -9.61961,-0.94389 -14.4338,-0.94389c-4.87318,0 -14.63045,0.94389 -14.63045,0.94389z"/><path d="M240.04389,38.90817c4.82754,0 14.43381,0.70793 14.43381,0.70793c0,0 -9.57158,-0.70792 -14.41592,-0.70792c-4.84375,0 -14.64833,0.70792 -14.64833,0.70792c0,0 9.77013,-0.70793 14.63045,-0.70793z"/></g></g></g></svg>