<svg version="1.1" xmlns="http://www.w3.org/2000/svg" xmlns:xlink="http://www.w3.org/1999/xlink" width="20.40032" height="114.45716" viewBox="0,0,20.40032,114.45716"><defs><radialGradient cx="234.34835" cy="231.16416" r="5.04756" gradientUnits="userSpaceOnUse" id="color-1"><stop offset="0" stop-color="#ffffff"/><stop offset="1" stop-color="#e7e7e7"/></radialGradient><radialGradient cx="234.00814" cy="227.44192" r="3.34285" gradientUnits="userSpaceOnUse" id="color-2"><stop offset="0" stop-color="#ffffff"/><stop offset="1" stop-color="#e7e7e7"/></radialGradient><radialGradient cx="234.27966" cy="224.91925" r="3.34284" gradientUnits="userSpaceOnUse" id="color-3"><stop offset="0" stop-color="#ffffff"/><stop offset="1" stop-color="#e7e7e7"/></radialGradient><radialGradient cx="231.08664" cy="225.66952" r="3.34386" gradientUnits="userSpaceOnUse" id="color-4"><stop offset="0" stop-color="#ffffff"/><stop offset="1" stop-color="#e7e7e7"/></radialGradient><radialGradient cx="236.97743" cy="226.66027" r="3.34386" gradientUnits="userSpaceOnUse" id="color-5"><stop offset="0" stop-color="#ffffff"/><stop offset="1" stop-color="#e7e7e7"/></radialGradient><radialGradient cx="234.702" cy="222.23108" r="3.34284" gradientUnits="userSpaceOnUse" id="color-6"><stop offset="0" stop-color="#ffffff"/><stop offset="1" stop-color="#e7e7e7"/></radialGradient><radialGradient cx="234.97351" cy="219.7084" r="3.34284" gradientUnits="userSpaceOnUse" id="color-7"><stop offset="0" stop-color="#ffffff"/><stop offset="1" stop-color="#e7e7e7"/></radialGradient><radialGradient cx="231.78049" cy="220.45867" r="3.34385" gradientUnits="userSpaceOnUse" id="color-8"><stop offset="0" stop-color="#ffffff"/><stop offset="1" stop-color="#e7e7e7"/></radialGradient><radialGradient cx="237.67128" cy="221.44941" r="3.34385" gradientUnits="userSpaceOnUse" id="color-9"><stop offset="0" stop-color="#ffffff"/><stop offset="1" stop-color="#e7e7e7"/></radialGradient><radialGradient cx="235.42625" cy="217.00086" r="3.34284" gradientUnits="userSpaceOnUse" id="color-10"><stop offset="0" stop-color="#ffffff"/><stop offset="1" stop-color="#e7e7e7"/></radialGradient><radialGradient cx="235.69777" cy="214.47818" r="3.34283" gradientUnits="userSpaceOnUse" id="color-11"><stop offset="0" stop-color="#ffffff"/><stop offset="1" stop-color="#e7e7e7"/></radialGradient><radialGradient cx="232.50475" cy="215.22845" r="3.34386" gradientUnits="userSpaceOnUse" id="color-12"><stop offset="0" stop-color="#ffffff"/><stop offset="1" stop-color="#e7e7e7"/></radialGradient><radialGradient cx="238.39553" cy="216.21919" r="3.34386" gradientUnits="userSpaceOnUse" id="color-13"><stop offset="0" stop-color="#ffffff"/><stop offset="1" stop-color="#e7e7e7"/></radialGradient><radialGradient cx="236.1201" cy="211.79" r="3.34284" gradientUnits="userSpaceOnUse" id="color-14"><stop offset="0" stop-color="#ffffff"/><stop offset="1" stop-color="#e7e7e7"/></radialGradient><radialGradient cx="236.39161" cy="209.26733" r="3.34284" gradientUnits="userSpaceOnUse" id="color-15"><stop offset="0" stop-color="#ffffff"/><stop offset="1" stop-color="#e7e7e7"/></radialGradient><radialGradient cx="233.1986" cy="210.01759" r="3.34385" gradientUnits="userSpaceOnUse" id="color-16"><stop offset="0" stop-color="#ffffff"/><stop offset="1" stop-color="#e7e7e7"/></radialGradient><radialGradient cx="239.08938" cy="211.00834" r="3.34385" gradientUnits="userSpaceOnUse" id="color-17"><stop offset="0" stop-color="#ffffff"/><stop offset="1" stop-color="#e7e7e7"/></radialGradient><radialGradient cx="236.74365" cy="206.46956" r="3.34284" gradientUnits="userSpaceOnUse" id="color-18"><stop offset="0" stop-color="#ffffff"/><stop offset="1" stop-color="#e7e7e7"/></radialGradient><radialGradient cx="236.90374" cy="203.93737" r="3.34284" gradientUnits="userSpaceOnUse" id="color-19"><stop offset="0" stop-color="#ffffff"/><stop offset="1" stop-color="#e7e7e7"/></radialGradient><radialGradient cx="233.74689" cy="204.82761" r="3.34386" gradientUnits="userSpaceOnUse" id="color-20"><stop offset="0" stop-color="#ffffff"/><stop offset="1" stop-color="#e7e7e7"/></radialGradient><radialGradient cx="239.6756" cy="205.55781" r="3.34386" gradientUnits="userSpaceOnUse" id="color-21"><stop offset="0" stop-color="#ffffff"/><stop offset="1" stop-color="#e7e7e7"/></radialGradient><radialGradient cx="237.20721" cy="201.23319" r="3.34284" gradientUnits="userSpaceOnUse" id="color-22"><stop offset="0" stop-color="#ffffff"/><stop offset="1" stop-color="#e7e7e7"/></radialGradient><radialGradient cx="237.3673" cy="198.701" r="3.34284" gradientUnits="userSpaceOnUse" id="color-23"><stop offset="0" stop-color="#ffffff"/><stop offset="1" stop-color="#e7e7e7"/></radialGradient><radialGradient cx="234.21044" cy="199.59124" r="3.34385" gradientUnits="userSpaceOnUse" id="color-24"><stop offset="0" stop-color="#ffffff"/><stop offset="1" stop-color="#e7e7e7"/></radialGradient><radialGradient cx="240.13916" cy="200.32144" r="3.34385" gradientUnits="userSpaceOnUse" id="color-25"><stop offset="0" stop-color="#ffffff"/><stop offset="1" stop-color="#e7e7e7"/></radialGradient><radialGradient cx="237.70029" cy="195.97614" r="3.34284" gradientUnits="userSpaceOnUse" id="color-26"><stop offset="0" stop-color="#ffffff"/><stop offset="1" stop-color="#e7e7e7"/></radialGradient><radialGradient cx="237.86038" cy="193.44396" r="3.34283" gradientUnits="userSpaceOnUse" id="color-27"><stop offset="0" stop-color="#ffffff"/><stop offset="1" stop-color="#e7e7e7"/></radialGradient><radialGradient cx="234.70353" cy="194.33419" r="3.34386" gradientUnits="userSpaceOnUse" id="color-28"><stop offset="0" stop-color="#ffffff"/><stop offset="1" stop-color="#e7e7e7"/></radialGradient><radialGradient cx="240.63225" cy="195.0644" r="3.34386" gradientUnits="userSpaceOnUse" id="color-29"><stop offset="0" stop-color="#ffffff"/><stop offset="1" stop-color="#e7e7e7"/></radialGradient><radialGradient cx="238.16385" cy="190.73978" r="3.34284" gradientUnits="userSpaceOnUse" id="color-30"><stop offset="0" stop-color="#ffffff"/><stop offset="1" stop-color="#e7e7e7"/></radialGradient><radialGradient cx="238.32394" cy="188.20758" r="3.34284" gradientUnits="userSpaceOnUse" id="color-31"><stop offset="0" stop-color="#ffffff"/><stop offset="1" stop-color="#e7e7e7"/></radialGradient><radialGradient cx="235.16709" cy="189.09782" r="3.34385" gradientUnits="userSpaceOnUse" id="color-32"><stop offset="0" stop-color="#ffffff"/><stop offset="1" stop-color="#e7e7e7"/></radialGradient><radialGradient cx="241.0958" cy="189.82803" r="3.34385" gradientUnits="userSpaceOnUse" id="color-33"><stop offset="0" stop-color="#ffffff"/><stop offset="1" stop-color="#e7e7e7"/></radialGradient><radialGradient cx="238.72722" cy="185.4842" r="3.34285" gradientUnits="userSpaceOnUse" id="color-34"><stop offset="0" stop-color="#ffffff"/><stop offset="1" stop-color="#e7e7e7"/></radialGradient><radialGradient cx="238.86623" cy="182.95077" r="3.34284" gradientUnits="userSpaceOnUse" id="color-35"><stop offset="0" stop-color="#ffffff"/><stop offset="1" stop-color="#e7e7e7"/></radialGradient><radialGradient cx="235.7169" cy="183.86725" r="3.34385" gradientUnits="userSpaceOnUse" id="color-36"><stop offset="0" stop-color="#ffffff"/><stop offset="1" stop-color="#e7e7e7"/></radialGradient><radialGradient cx="241.65149" cy="184.54809" r="3.34385" gradientUnits="userSpaceOnUse" id="color-37"><stop offset="0" stop-color="#ffffff"/><stop offset="1" stop-color="#e7e7e7"/></radialGradient><radialGradient cx="239.14719" cy="180.24416" r="3.34284" gradientUnits="userSpaceOnUse" id="color-38"><stop offset="0" stop-color="#ffffff"/><stop offset="1" stop-color="#e7e7e7"/></radialGradient><radialGradient cx="239.2862" cy="177.71072" r="3.34283" gradientUnits="userSpaceOnUse" id="color-39"><stop offset="0" stop-color="#ffffff"/><stop offset="1" stop-color="#e7e7e7"/></radialGradient><radialGradient cx="236.13687" cy="178.6272" r="3.34386" gradientUnits="userSpaceOnUse" id="color-40"><stop offset="0" stop-color="#ffffff"/><stop offset="1" stop-color="#e7e7e7"/></radialGradient><radialGradient cx="242.07146" cy="179.30804" r="3.34386" gradientUnits="userSpaceOnUse" id="color-41"><stop offset="0" stop-color="#ffffff"/><stop offset="1" stop-color="#e7e7e7"/></radialGradient><radialGradient cx="239.59651" cy="174.98319" r="3.34284" gradientUnits="userSpaceOnUse" id="color-42"><stop offset="0" stop-color="#ffffff"/><stop offset="1" stop-color="#e7e7e7"/></radialGradient><radialGradient cx="239.73552" cy="172.44976" r="3.34283" gradientUnits="userSpaceOnUse" id="color-43"><stop offset="0" stop-color="#ffffff"/><stop offset="1" stop-color="#e7e7e7"/></radialGradient><radialGradient cx="236.58619" cy="173.36623" r="3.34386" gradientUnits="userSpaceOnUse" id="color-44"><stop offset="0" stop-color="#ffffff"/><stop offset="1" stop-color="#e7e7e7"/></radialGradient><radialGradient cx="242.52078" cy="174.04708" r="3.34386" gradientUnits="userSpaceOnUse" id="color-45"><stop offset="0" stop-color="#ffffff"/><stop offset="1" stop-color="#e7e7e7"/></radialGradient><radialGradient cx="240.01648" cy="169.74315" r="3.34284" gradientUnits="userSpaceOnUse" id="color-46"><stop offset="0" stop-color="#ffffff"/><stop offset="1" stop-color="#e7e7e7"/></radialGradient><radialGradient cx="240.15549" cy="167.20971" r="3.34284" gradientUnits="userSpaceOnUse" id="color-47"><stop offset="0" stop-color="#ffffff"/><stop offset="1" stop-color="#e7e7e7"/></radialGradient><radialGradient cx="237.00616" cy="168.12619" r="3.34386" gradientUnits="userSpaceOnUse" id="color-48"><stop offset="0" stop-color="#ffffff"/><stop offset="1" stop-color="#e7e7e7"/></radialGradient><radialGradient cx="242.94074" cy="168.80703" r="3.34385" gradientUnits="userSpaceOnUse" id="color-49"><stop offset="0" stop-color="#ffffff"/><stop offset="1" stop-color="#e7e7e7"/></radialGradient><radialGradient cx="240.7212" cy="164.42168" r="3.34284" gradientUnits="userSpaceOnUse" id="color-50"><stop offset="0" stop-color="#ffffff"/><stop offset="1" stop-color="#e7e7e7"/></radialGradient><radialGradient cx="240.97732" cy="161.8974" r="3.34284" gradientUnits="userSpaceOnUse" id="color-51"><stop offset="0" stop-color="#ffffff"/><stop offset="1" stop-color="#e7e7e7"/></radialGradient><radialGradient cx="237.78894" cy="162.66713" r="3.34386" gradientUnits="userSpaceOnUse" id="color-52"><stop offset="0" stop-color="#ffffff"/><stop offset="1" stop-color="#e7e7e7"/></radialGradient><radialGradient cx="243.68566" cy="163.62192" r="3.34385" gradientUnits="userSpaceOnUse" id="color-53"><stop offset="0" stop-color="#ffffff"/><stop offset="1" stop-color="#e7e7e7"/></radialGradient><radialGradient cx="241.38325" cy="159.20669" r="3.34284" gradientUnits="userSpaceOnUse" id="color-54"><stop offset="0" stop-color="#ffffff"/><stop offset="1" stop-color="#e7e7e7"/></radialGradient><radialGradient cx="241.63937" cy="156.68241" r="3.34284" gradientUnits="userSpaceOnUse" id="color-55"><stop offset="0" stop-color="#ffffff"/><stop offset="1" stop-color="#e7e7e7"/></radialGradient><radialGradient cx="238.45099" cy="157.45214" r="3.34386" gradientUnits="userSpaceOnUse" id="color-56"><stop offset="0" stop-color="#ffffff"/><stop offset="1" stop-color="#e7e7e7"/></radialGradient><radialGradient cx="244.34771" cy="158.40693" r="3.34386" gradientUnits="userSpaceOnUse" id="color-57"><stop offset="0" stop-color="#ffffff"/><stop offset="1" stop-color="#e7e7e7"/></radialGradient><radialGradient cx="242.07559" cy="153.97216" r="3.34284" gradientUnits="userSpaceOnUse" id="color-58"><stop offset="0" stop-color="#ffffff"/><stop offset="1" stop-color="#e7e7e7"/></radialGradient><radialGradient cx="242.33171" cy="151.44788" r="3.34283" gradientUnits="userSpaceOnUse" id="color-59"><stop offset="0" stop-color="#ffffff"/><stop offset="1" stop-color="#e7e7e7"/></radialGradient><radialGradient cx="239.14333" cy="152.21761" r="3.34386" gradientUnits="userSpaceOnUse" id="color-60"><stop offset="0" stop-color="#ffffff"/><stop offset="1" stop-color="#e7e7e7"/></radialGradient><radialGradient cx="245.04005" cy="153.1724" r="3.34386" gradientUnits="userSpaceOnUse" id="color-61"><stop offset="0" stop-color="#ffffff"/><stop offset="1" stop-color="#e7e7e7"/></radialGradient><radialGradient cx="242.73764" cy="148.75717" r="3.34284" gradientUnits="userSpaceOnUse" id="color-62"><stop offset="0" stop-color="#ffffff"/><stop offset="1" stop-color="#e7e7e7"/></radialGradient><radialGradient cx="242.99376" cy="146.23288" r="3.34284" gradientUnits="userSpaceOnUse" id="color-63"><stop offset="0" stop-color="#ffffff"/><stop offset="1" stop-color="#e7e7e7"/></radialGradient><radialGradient cx="239.80538" cy="147.00261" r="3.34386" gradientUnits="userSpaceOnUse" id="color-64"><stop offset="0" stop-color="#ffffff"/><stop offset="1" stop-color="#e7e7e7"/></radialGradient><radialGradient cx="245.70209" cy="147.95741" r="3.34386" gradientUnits="userSpaceOnUse" id="color-65"><stop offset="0" stop-color="#ffffff"/><stop offset="1" stop-color="#e7e7e7"/></radialGradient><radialGradient cx="243.51213" cy="143.52626" r="3.34284" gradientUnits="userSpaceOnUse" id="color-66"><stop offset="0" stop-color="#ffffff"/><stop offset="1" stop-color="#e7e7e7"/></radialGradient><radialGradient cx="243.82827" cy="141.00879" r="3.34284" gradientUnits="userSpaceOnUse" id="color-67"><stop offset="0" stop-color="#ffffff"/><stop offset="1" stop-color="#e7e7e7"/></radialGradient><radialGradient cx="240.62247" cy="141.70241" r="3.34385" gradientUnits="userSpaceOnUse" id="color-68"><stop offset="0" stop-color="#ffffff"/><stop offset="1" stop-color="#e7e7e7"/></radialGradient><radialGradient cx="246.49479" cy="142.79729" r="3.34385" gradientUnits="userSpaceOnUse" id="color-69"><stop offset="0" stop-color="#ffffff"/><stop offset="1" stop-color="#e7e7e7"/></radialGradient><radialGradient cx="244.29813" cy="138.32851" r="3.34284" gradientUnits="userSpaceOnUse" id="color-70"><stop offset="0" stop-color="#ffffff"/><stop offset="1" stop-color="#e7e7e7"/></radialGradient><radialGradient cx="244.61426" cy="135.81103" r="3.34284" gradientUnits="userSpaceOnUse" id="color-71"><stop offset="0" stop-color="#ffffff"/><stop offset="1" stop-color="#e7e7e7"/></radialGradient><radialGradient cx="241.40846" cy="136.50465" r="3.34385" gradientUnits="userSpaceOnUse" id="color-72"><stop offset="0" stop-color="#ffffff"/><stop offset="1" stop-color="#e7e7e7"/></radialGradient><radialGradient cx="247.28078" cy="137.59954" r="3.34385" gradientUnits="userSpaceOnUse" id="color-73"><stop offset="0" stop-color="#ffffff"/><stop offset="1" stop-color="#e7e7e7"/></radialGradient><radialGradient cx="245.11487" cy="133.11194" r="3.34284" gradientUnits="userSpaceOnUse" id="color-74"><stop offset="0" stop-color="#ffffff"/><stop offset="1" stop-color="#e7e7e7"/></radialGradient><radialGradient cx="245.43101" cy="130.59447" r="3.34284" gradientUnits="userSpaceOnUse" id="color-75"><stop offset="0" stop-color="#ffffff"/><stop offset="1" stop-color="#e7e7e7"/></radialGradient><radialGradient cx="242.22521" cy="131.28809" r="3.34385" gradientUnits="userSpaceOnUse" id="color-76"><stop offset="0" stop-color="#ffffff"/><stop offset="1" stop-color="#e7e7e7"/></radialGradient><radialGradient cx="248.09752" cy="132.38297" r="3.34385" gradientUnits="userSpaceOnUse" id="color-77"><stop offset="0" stop-color="#ffffff"/><stop offset="1" stop-color="#e7e7e7"/></radialGradient><radialGradient cx="245.90086" cy="127.91418" r="3.34284" gradientUnits="userSpaceOnUse" id="color-78"><stop offset="0" stop-color="#ffffff"/><stop offset="1" stop-color="#e7e7e7"/></radialGradient><radialGradient cx="246.217" cy="125.39671" r="3.34284" gradientUnits="userSpaceOnUse" id="color-79"><stop offset="0" stop-color="#ffffff"/><stop offset="1" stop-color="#e7e7e7"/></radialGradient><radialGradient cx="243.0112" cy="126.09033" r="3.34386" gradientUnits="userSpaceOnUse" id="color-80"><stop offset="0" stop-color="#ffffff"/><stop offset="1" stop-color="#e7e7e7"/></radialGradient><radialGradient cx="248.88352" cy="127.18521" r="3.34385" gradientUnits="userSpaceOnUse" id="color-81"><stop offset="0" stop-color="#ffffff"/><stop offset="1" stop-color="#e7e7e7"/></radialGradient></defs><g transform="translate(-229.79984,-122.77142)"><g data-paper-data="{&quot;isPaintingLayer&quot;:true}" fill-rule="nonzero" stroke="none" stroke-linecap="butt" stroke-linejoin="miter" stroke-miterlimit="10" stroke-dasharray="" stroke-dashoffset="0" style="mix-blend-mode: normal"><path d="M235.555,234.09772c-0.14156,1.86084 -0.13777,3.07983 -1.68745,3.12966c-1.30543,0.04198 -1.51322,-1.02109 -1.4263,-3.0711c0.01626,-0.38357 0.15116,-2.64306 0.17348,-2.93635c0.14156,-1.86084 0.44026,-3.37525 1.98995,-3.42509c1.54968,-0.04984 1.31638,1.41144 1.17481,3.27227z" fill="url(#color-1)" stroke-width="NaN"/><g><path d="M234.30034,225.6052c1.82383,0.29014 3.17152,1.34767 3.01014,2.36207c-0.16138,1.0144 -1.7707,1.60153 -3.59453,1.31139c-1.82383,-0.29014 -3.17151,-1.34768 -3.01013,-2.36207c0.16138,-1.0144 1.77069,-1.60152 3.59452,-1.31138z" fill="url(#color-2)" stroke-width="NaN"/><path d="M234.57184,223.08253c1.82383,0.29014 3.17152,1.34767 3.01014,2.36207c-0.16138,1.0144 -1.77069,1.60153 -3.59452,1.31139c-1.82383,-0.29014 -3.17152,-1.34768 -3.01014,-2.36208c0.16138,-1.0144 1.77069,-1.60151 3.59452,-1.31137z" fill="url(#color-3)" stroke-width="NaN"/><path d="M232.03139,225.73991c-0.23572,1.83166 -0.35278,3.37722 -1.37154,3.24612c-1.01875,-0.1311 -0.94859,-1.6315 -0.71287,-3.46317c0.23572,-1.83166 0.54772,-3.30095 1.56647,-3.16984c1.01875,0.1311 0.75366,1.55523 0.51794,3.38689z" fill="url(#color-4)" stroke-width="NaN"/><path d="M237.40422,223.34376c1.01875,0.1311 0.94859,1.6315 0.71287,3.46317c-0.23572,1.83166 -0.54772,3.30095 -1.56647,3.16984c-1.01875,-0.1311 -0.7407,-1.65594 -0.50498,-3.4876c0.23572,-1.83166 0.33982,-3.27651 1.35858,-3.14541z" data-paper-data="{&quot;index&quot;:null}" fill="url(#color-5)" stroke-width="NaN"/><path d="M234.99419,220.39434c1.82383,0.29014 3.17151,1.34768 3.01013,2.36207c-0.16138,1.0144 -1.77069,1.60152 -3.59452,1.31138c-1.82383,-0.29014 -3.17152,-1.34768 -3.01014,-2.36208c0.16138,-1.0144 1.7707,-1.60152 3.59453,-1.31138z" fill="url(#color-6)" stroke-width="NaN"/><path d="M235.2657,217.87167c1.82383,0.29014 3.17152,1.34767 3.01014,2.36207c-0.16138,1.0144 -1.77069,1.60152 -3.59452,1.31138c-1.82383,-0.29014 -3.17152,-1.34767 -3.01014,-2.36207c0.16138,-1.0144 1.77069,-1.60152 3.59452,-1.31138z" fill="url(#color-7)" stroke-width="NaN"/><path d="M232.72523,220.52906c-0.23572,1.83166 -0.35279,3.37721 -1.37154,3.24611c-1.01875,-0.1311 -0.94858,-1.63151 -0.71287,-3.46317c0.23572,-1.83166 0.54771,-3.30095 1.56646,-3.16984c1.01875,0.1311 0.75366,1.55524 0.51795,3.3869z" fill="url(#color-8)" stroke-width="NaN"/><path d="M238.09807,218.1329c1.01875,0.1311 0.94859,1.63151 0.71287,3.46317c-0.23572,1.83166 -0.54772,3.30095 -1.56647,3.16984c-1.01875,-0.1311 -0.74069,-1.65594 -0.50498,-3.4876c0.23572,-1.83166 0.33982,-3.27652 1.35857,-3.14542z" data-paper-data="{&quot;index&quot;:null}" fill="url(#color-9)" stroke-width="NaN"/><path d="M235.71844,215.16413c1.82383,0.29014 3.17152,1.34767 3.01014,2.36207c-0.16138,1.0144 -1.7707,1.60153 -3.59453,1.31139c-1.82383,-0.29014 -3.17151,-1.34768 -3.01013,-2.36207c0.16138,-1.0144 1.77069,-1.60152 3.59452,-1.31138z" fill="url(#color-10)" stroke-width="NaN"/><path d="M235.98995,212.64146c1.82383,0.29014 3.17152,1.34767 3.01014,2.36207c-0.16138,1.0144 -1.77069,1.60152 -3.59452,1.31138c-1.82383,-0.29014 -3.17152,-1.34767 -3.01014,-2.36207c0.16138,-1.0144 1.77069,-1.60152 3.59452,-1.31138z" fill="url(#color-11)" stroke-width="NaN"/><path d="M233.44949,215.29885c-0.23572,1.83166 -0.35278,3.37722 -1.37154,3.24611c-1.01875,-0.1311 -0.94859,-1.63151 -0.71287,-3.46317c0.23572,-1.83166 0.54772,-3.30094 1.56647,-3.16984c1.01875,0.1311 0.75366,1.55524 0.51794,3.3869z" fill="url(#color-12)" stroke-width="NaN"/><path d="M238.82233,212.90269c1.01875,0.1311 0.94859,1.63151 0.71287,3.46317c-0.23572,1.83166 -0.54772,3.30095 -1.56647,3.16984c-1.01875,-0.1311 -0.7407,-1.65594 -0.50498,-3.4876c0.23572,-1.83166 0.33982,-3.27652 1.35858,-3.14541z" data-paper-data="{&quot;index&quot;:null}" fill="url(#color-13)" stroke-width="NaN"/><path d="M236.41229,209.95328c1.82383,0.29014 3.17151,1.34767 3.01013,2.36207c-0.16138,1.0144 -1.77069,1.60152 -3.59452,1.31138c-1.82383,-0.29014 -3.17152,-1.34767 -3.01014,-2.36207c0.16138,-1.0144 1.77069,-1.60152 3.59452,-1.31138z" fill="url(#color-14)" stroke-width="NaN"/><path d="M236.6838,207.4306c1.82383,0.29014 3.17152,1.34768 3.01014,2.36208c-0.16138,1.0144 -1.77069,1.60152 -3.59452,1.31138c-1.82383,-0.29014 -3.17152,-1.34768 -3.01014,-2.36208c0.16138,-1.0144 1.77069,-1.60152 3.59452,-1.31138z" fill="url(#color-15)" stroke-width="NaN"/><path d="M234.14333,210.08798c-0.23572,1.83166 -0.35279,3.37721 -1.37154,3.24611c-1.01875,-0.1311 -0.94859,-1.63151 -0.71287,-3.46317c0.23572,-1.83166 0.54772,-3.30095 1.56647,-3.16984c1.01875,0.1311 0.75366,1.55524 0.51794,3.3869z" fill="url(#color-16)" stroke-width="NaN"/><path d="M239.51617,207.69184c1.01875,0.1311 0.94859,1.6315 0.71288,3.46317c-0.23572,1.83166 -0.54772,3.30095 -1.56647,3.16984c-1.01875,-0.1311 -0.74069,-1.65594 -0.50498,-3.4876c0.23572,-1.83166 0.33982,-3.27651 1.35857,-3.14541z" data-paper-data="{&quot;index&quot;:null}" fill="url(#color-17)" stroke-width="NaN"/></g><g><path d="M236.95462,204.62174c1.83484,0.20949 3.22782,1.20661 3.1113,2.22713c-0.11652,1.02053 -1.69841,1.678 -3.53325,1.46851c-1.83484,-0.20949 -3.22781,-1.20661 -3.11129,-2.22714c0.11652,-1.02053 1.6984,-1.67799 3.53324,-1.4685z" fill="url(#color-18)" stroke-width="NaN"/><path d="M237.11471,202.08955c1.83484,0.20949 3.22782,1.20661 3.1113,2.22713c-0.11652,1.02053 -1.6984,1.67799 -3.53324,1.4685c-1.83484,-0.20949 -3.22782,-1.20662 -3.1113,-2.22714c0.11652,-1.02053 1.6984,-1.67798 3.53324,-1.46849z" fill="url(#color-19)" stroke-width="NaN"/><path d="M234.69381,204.8563c-0.15477,1.84027 -0.20362,3.38948 -1.22716,3.3034c-1.02354,-0.08608 -1.01956,-1.58812 -0.86478,-3.42839c0.15477,-1.84027 0.40173,-3.32187 1.42527,-3.23579c1.02354,0.08608 0.82145,1.52051 0.66668,3.36078z" fill="url(#color-20)" stroke-width="NaN"/><path d="M239.95585,202.22572c1.02354,0.08608 1.01956,1.58812 0.86478,3.42839c-0.15477,1.84027 -0.40173,3.32187 -1.42527,3.23579c-1.02354,-0.08608 -0.81294,-1.62169 -0.65817,-3.46196c0.15477,-1.84027 0.19511,-3.28831 1.21865,-3.20222z" data-paper-data="{&quot;index&quot;:null}" fill="url(#color-21)" stroke-width="NaN"/><path d="M237.41818,199.38537c1.83484,0.20949 3.22781,1.20662 3.11129,2.22714c-0.11652,1.02053 -1.6984,1.67799 -3.53324,1.4685c-1.83484,-0.20949 -3.22782,-1.20661 -3.1113,-2.22714c0.11652,-1.02053 1.6984,-1.67799 3.53325,-1.4685z" fill="url(#color-22)" stroke-width="NaN"/><path d="M237.57827,196.85318c1.83484,0.20949 3.22782,1.20661 3.1113,2.22713c-0.11652,1.02053 -1.6984,1.67799 -3.53324,1.4685c-1.83484,-0.20949 -3.22782,-1.20661 -3.1113,-2.22714c0.11652,-1.02053 1.6984,-1.67799 3.53324,-1.4685z" fill="url(#color-23)" stroke-width="NaN"/><path d="M235.15737,199.61993c-0.15477,1.84027 -0.20363,3.38948 -1.22717,3.30339c-1.02354,-0.08608 -1.01955,-1.58812 -0.86478,-3.42839c0.15477,-1.84027 0.40172,-3.32187 1.42526,-3.23579c1.02354,0.08608 0.82146,1.52052 0.66668,3.36079z" fill="url(#color-24)" stroke-width="NaN"/><path d="M240.41941,196.98935c1.02354,0.08608 1.01956,1.58812 0.86478,3.42839c-0.15477,1.84027 -0.40173,3.32187 -1.42527,3.23579c-1.02354,-0.08608 -0.81294,-1.62169 -0.65817,-3.46196c0.15477,-1.84027 0.19511,-3.28831 1.21865,-3.20222z" data-paper-data="{&quot;index&quot;:null}" fill="url(#color-25)" stroke-width="NaN"/><path d="M237.91127,194.12832c1.83484,0.20949 3.22782,1.20661 3.1113,2.22713c-0.11652,1.02053 -1.69841,1.678 -3.53325,1.46851c-1.83484,-0.20949 -3.22781,-1.20662 -3.11129,-2.22714c0.11652,-1.02053 1.6984,-1.67799 3.53324,-1.4685z" fill="url(#color-26)" stroke-width="NaN"/><path d="M238.07135,191.59614c1.83484,0.20949 3.22782,1.20661 3.1113,2.22713c-0.11652,1.02053 -1.6984,1.67799 -3.53324,1.4685c-1.83484,-0.20949 -3.22782,-1.20661 -3.1113,-2.22714c0.11652,-1.02053 1.6984,-1.67799 3.53324,-1.4685z" fill="url(#color-27)" stroke-width="NaN"/><path d="M235.65045,194.36289c-0.15477,1.84027 -0.20362,3.38948 -1.22716,3.3034c-1.02354,-0.08608 -1.01956,-1.58812 -0.86478,-3.42839c0.15477,-1.84027 0.40173,-3.32187 1.42527,-3.23579c1.02354,0.08608 0.82145,1.52052 0.66668,3.36079z" fill="url(#color-28)" stroke-width="NaN"/><path d="M240.91249,191.73231c1.02354,0.08608 1.01956,1.58812 0.86478,3.42839c-0.15477,1.84027 -0.40173,3.32187 -1.42527,3.23579c-1.02354,-0.08608 -0.81294,-1.62169 -0.65817,-3.46196c0.15477,-1.84027 0.19511,-3.28831 1.21865,-3.20222z" data-paper-data="{&quot;index&quot;:null}" fill="url(#color-29)" stroke-width="NaN"/><path d="M238.37482,188.89196c1.83484,0.20949 3.22782,1.20661 3.1113,2.22713c-0.11652,1.02053 -1.6984,1.67799 -3.53324,1.4685c-1.83484,-0.20949 -3.22782,-1.20661 -3.1113,-2.22714c0.11652,-1.02053 1.6984,-1.67799 3.53324,-1.4685z" fill="url(#color-30)" stroke-width="NaN"/><path d="M238.53491,186.35976c1.83484,0.20949 3.22782,1.20661 3.1113,2.22714c-0.11652,1.02053 -1.6984,1.67799 -3.53324,1.4685c-1.83484,-0.20949 -3.22782,-1.20661 -3.1113,-2.22714c0.11652,-1.02053 1.6984,-1.67799 3.53324,-1.4685z" fill="url(#color-31)" stroke-width="NaN"/><path d="M236.11401,189.12652c-0.15477,1.84026 -0.20363,3.38948 -1.22716,3.3034c-1.02354,-0.08608 -1.01956,-1.58813 -0.86478,-3.42839c0.15477,-1.84026 0.40173,-3.32187 1.42527,-3.23579c1.02354,0.08608 0.82145,1.52052 0.66668,3.36079z" fill="url(#color-32)" stroke-width="NaN"/><path d="M241.37605,186.49594c1.02354,0.08608 1.01956,1.58813 0.86479,3.42839c-0.15477,1.84027 -0.40173,3.32187 -1.42527,3.23579c-1.02354,-0.08608 -0.81294,-1.62169 -0.65816,-3.46196c0.15477,-1.84027 0.19511,-3.28831 1.21865,-3.20222z" data-paper-data="{&quot;index&quot;:null}" fill="url(#color-33)" stroke-width="NaN"/></g><g><path d="M238.92281,183.63469c1.83652,0.19422 3.23775,1.17971 3.12972,2.20116c-0.10802,1.02146 -1.68438,1.69207 -3.52091,1.49786c-1.83652,-0.19422 -3.23774,-1.17971 -3.12972,-2.20117c0.10802,-1.02146 1.68438,-1.69207 3.5209,-1.49785z" fill="url(#color-34)" stroke-width="NaN"/><path d="M239.06182,181.10126c1.83652,0.19422 3.23775,1.17971 3.12972,2.20116c-0.10802,1.02146 -1.68438,1.69207 -3.5209,1.49785c-1.83652,-0.19422 -3.23775,-1.17972 -3.12972,-2.20117c0.10802,-1.02146 1.68438,-1.69206 3.5209,-1.49784z" fill="url(#color-35)" stroke-width="NaN"/><path d="M236.66403,183.88806c-0.13945,1.84149 -0.17541,3.39106 -1.19963,3.3135c-1.02422,-0.07756 -1.03274,-1.57959 -0.89328,-3.42108c0.13945,-1.84149 0.37407,-3.3251 1.39829,-3.24754c1.02422,0.07756 0.83408,1.51363 0.69462,3.35512z" fill="url(#color-36)" stroke-width="NaN"/><path d="M241.90399,181.21378c1.02422,0.07756 1.03274,1.57959 0.89328,3.42108c-0.13945,1.84149 -0.37407,3.3251 -1.39829,3.24754c-1.02422,-0.07756 -0.82641,-1.61487 -0.68696,-3.45636c0.13945,-1.84149 0.16774,-3.28982 1.19197,-3.21225z" data-paper-data="{&quot;index&quot;:null}" fill="url(#color-37)" stroke-width="NaN"/><path d="M239.34278,178.39464c1.83652,0.19422 3.23774,1.17972 3.12972,2.20117c-0.10802,1.02146 -1.68438,1.69206 -3.5209,1.49785c-1.83652,-0.19422 -3.23775,-1.17971 -3.12972,-2.20117c0.10802,-1.02146 1.68438,-1.69207 3.52091,-1.49785z" fill="url(#color-38)" stroke-width="NaN"/><path d="M239.48179,175.86121c1.83652,0.19422 3.23775,1.17971 3.12972,2.20116c-0.10802,1.02146 -1.68438,1.69207 -3.5209,1.49785c-1.83652,-0.19422 -3.23775,-1.17971 -3.12972,-2.20117c0.10802,-1.02146 1.68438,-1.69206 3.5209,-1.49785z" fill="url(#color-39)" stroke-width="NaN"/><path d="M237.084,178.64802c-0.13945,1.84149 -0.17542,3.39106 -1.19964,3.31349c-1.02422,-0.07756 -1.03273,-1.57958 -0.89328,-3.42108c0.13945,-1.84149 0.37407,-3.3251 1.39829,-3.24754c1.02422,0.07756 0.83408,1.51363 0.69463,3.35512z" fill="url(#color-40)" stroke-width="NaN"/><path d="M242.32396,175.97374c1.02422,0.07756 1.03274,1.57959 0.89328,3.42108c-0.13945,1.84149 -0.37407,3.3251 -1.39829,3.24754c-1.02422,-0.07756 -0.82641,-1.61487 -0.68696,-3.45636c0.13945,-1.84149 0.16774,-3.28982 1.19197,-3.21225z" data-paper-data="{&quot;index&quot;:null}" fill="url(#color-41)" stroke-width="NaN"/><path d="M239.7921,173.13368c1.83652,0.19422 3.23775,1.17971 3.12972,2.20116c-0.10802,1.02146 -1.68438,1.69208 -3.52091,1.49786c-1.83652,-0.19422 -3.23774,-1.17972 -3.12972,-2.20117c0.10802,-1.02146 1.68438,-1.69207 3.5209,-1.49785z" fill="url(#color-42)" stroke-width="NaN"/><path d="M239.93111,170.60025c1.83652,0.19422 3.23775,1.17971 3.12972,2.20116c-0.10802,1.02146 -1.68438,1.69207 -3.5209,1.49785c-1.83652,-0.19422 -3.23775,-1.17971 -3.12972,-2.20117c0.10802,-1.02146 1.68438,-1.69206 3.5209,-1.49785z" fill="url(#color-43)" stroke-width="NaN"/><path d="M237.53332,173.38705c-0.13945,1.84149 -0.17541,3.39106 -1.19963,3.31349c-1.02422,-0.07756 -1.03274,-1.57959 -0.89328,-3.42108c0.13945,-1.84149 0.37407,-3.3251 1.39829,-3.24754c1.02422,0.07756 0.83408,1.51363 0.69462,3.35512z" fill="url(#color-44)" stroke-width="NaN"/><path d="M242.77328,170.71277c1.02422,0.07756 1.03274,1.57959 0.89328,3.42108c-0.13945,1.84149 -0.37407,3.3251 -1.39829,3.24754c-1.02422,-0.07756 -0.82641,-1.61487 -0.68696,-3.45636c0.13945,-1.84149 0.16774,-3.28982 1.19197,-3.21225z" data-paper-data="{&quot;index&quot;:null}" fill="url(#color-45)" stroke-width="NaN"/><path d="M240.21207,167.89363c1.83652,0.19422 3.23775,1.17971 3.12972,2.20116c-0.10802,1.02146 -1.68438,1.69207 -3.5209,1.49785c-1.83652,-0.19422 -3.23775,-1.17971 -3.12972,-2.20117c0.10802,-1.02146 1.68438,-1.69206 3.5209,-1.49785z" fill="url(#color-46)" stroke-width="NaN"/><path d="M240.35108,165.3602c1.83652,0.19422 3.23775,1.17971 3.12972,2.20117c-0.10802,1.02146 -1.68438,1.69206 -3.5209,1.49785c-1.83652,-0.19422 -3.23775,-1.17971 -3.12972,-2.20117c0.10802,-1.02146 1.68438,-1.69206 3.5209,-1.49785z" fill="url(#color-47)" stroke-width="NaN"/><path d="M237.95328,168.147c-0.13945,1.84149 -0.17542,3.39106 -1.19963,3.31349c-1.02422,-0.07756 -1.03274,-1.57959 -0.89328,-3.42108c0.13945,-1.84149 0.37408,-3.3251 1.39829,-3.24754c1.02422,0.07756 0.83408,1.51364 0.69462,3.35512z" fill="url(#color-48)" stroke-width="NaN"/><path d="M243.19325,165.47273c1.02422,0.07756 1.03274,1.57959 0.89329,3.42108c-0.13945,1.84149 -0.37408,3.3251 -1.3983,3.24754c-1.02422,-0.07756 -0.82641,-1.61487 -0.68695,-3.45636c0.13945,-1.84149 0.16774,-3.28982 1.19196,-3.21225z" data-paper-data="{&quot;index&quot;:null}" fill="url(#color-49)" stroke-width="NaN"/></g><g><path d="M241.00218,162.58321c1.82557,0.27901 3.17967,1.3283 3.02449,2.34366c-0.15518,1.01537 -1.76089,1.6123 -3.58646,1.33329c-1.82557,-0.27901 -3.17967,-1.3283 -3.02449,-2.34367c0.15518,-1.01537 1.76089,-1.6123 3.58645,-1.33329z" fill="url(#color-50)" stroke-width="NaN"/><path d="M241.2583,160.05893c1.82557,0.27901 3.17967,1.3283 3.02449,2.34366c-0.15518,1.01537 -1.76089,1.6123 -3.58645,1.33329c-1.82557,-0.27901 -3.17967,-1.32831 -3.02449,-2.34367c0.15518,-1.01537 1.76089,-1.61229 3.58645,-1.33328z" fill="url(#color-51)" stroke-width="NaN"/><path d="M238.73409,162.73176c-0.22454,1.83306 -0.33217,3.37931 -1.35171,3.25442c-1.01953,-0.12489 -0.95852,-1.62569 -0.73399,-3.45876c0.22454,-1.83306 0.52757,-3.30422 1.5471,-3.17934c1.01953,0.12489 0.76313,1.55061 0.53859,3.38367z" fill="url(#color-52)" stroke-width="NaN"/><path d="M244.09222,160.30287c1.01953,0.12489 0.95852,1.62569 0.73399,3.45876c-0.22454,1.83306 -0.52757,3.30422 -1.5471,3.17934c-1.01953,-0.12489 -0.75078,-1.65139 -0.52625,-3.48445c0.22454,-1.83306 0.31983,-3.27853 1.33936,-3.15364z" data-paper-data="{&quot;index&quot;:null}" fill="url(#color-53)" stroke-width="NaN"/><path d="M241.66423,157.36821c1.82557,0.27901 3.17967,1.32831 3.02449,2.34367c-0.15518,1.01537 -1.76089,1.61229 -3.58645,1.33328c-1.82557,-0.27901 -3.17967,-1.3283 -3.02449,-2.34367c0.15518,-1.01537 1.76089,-1.61229 3.58646,-1.33329z" fill="url(#color-54)" stroke-width="NaN"/><path d="M241.92035,154.84393c1.82557,0.27901 3.17967,1.3283 3.02449,2.34366c-0.15518,1.01537 -1.76089,1.6123 -3.58645,1.33329c-1.82557,-0.27901 -3.17967,-1.3283 -3.02449,-2.34367c0.15518,-1.01537 1.76089,-1.61229 3.58645,-1.33328z" fill="url(#color-55)" stroke-width="NaN"/><path d="M239.39615,157.51677c-0.22454,1.83306 -0.33218,3.3793 -1.35171,3.25442c-1.01953,-0.12489 -0.95852,-1.62569 -0.73398,-3.45876c0.22454,-1.83306 0.52757,-3.30423 1.5471,-3.17934c1.01953,0.12489 0.76313,1.55061 0.53859,3.38368z" fill="url(#color-56)" stroke-width="NaN"/><path d="M244.75427,155.08788c1.01953,0.12489 0.95852,1.62569 0.73399,3.45876c-0.22454,1.83306 -0.52757,3.30422 -1.5471,3.17934c-1.01953,-0.12489 -0.75078,-1.65139 -0.52625,-3.48445c0.22454,-1.83306 0.31983,-3.27853 1.33936,-3.15364z" data-paper-data="{&quot;index&quot;:null}" fill="url(#color-57)" stroke-width="NaN"/><path d="M242.35657,152.13368c1.82557,0.27901 3.17967,1.3283 3.02449,2.34366c-0.15518,1.01537 -1.76089,1.6123 -3.58646,1.3333c-1.82557,-0.27901 -3.17967,-1.32831 -3.02449,-2.34367c0.15518,-1.01537 1.76089,-1.6123 3.58645,-1.33329z" fill="url(#color-58)" stroke-width="NaN"/><path d="M242.61269,149.6094c1.82557,0.27901 3.17967,1.3283 3.02449,2.34366c-0.15518,1.01537 -1.76089,1.6123 -3.58645,1.33329c-1.82557,-0.27901 -3.17967,-1.3283 -3.02449,-2.34367c0.15518,-1.01537 1.76089,-1.61229 3.58645,-1.33328z" fill="url(#color-59)" stroke-width="NaN"/><path d="M240.08848,152.28224c-0.22454,1.83306 -0.33217,3.3793 -1.35171,3.25442c-1.01953,-0.12489 -0.95852,-1.62569 -0.73399,-3.45876c0.22454,-1.83306 0.52757,-3.30422 1.5471,-3.17934c1.01953,0.12489 0.76313,1.55061 0.53859,3.38368z" fill="url(#color-60)" stroke-width="NaN"/><path d="M245.44661,149.85335c1.01953,0.12489 0.95852,1.62569 0.73399,3.45876c-0.22454,1.83306 -0.52757,3.30422 -1.5471,3.17934c-1.01953,-0.12489 -0.75078,-1.65139 -0.52625,-3.48445c0.22454,-1.83306 0.31983,-3.27853 1.33936,-3.15364z" data-paper-data="{&quot;index&quot;:null}" fill="url(#color-61)" stroke-width="NaN"/><path d="M243.01862,146.91869c1.82557,0.27901 3.17967,1.3283 3.02449,2.34366c-0.15518,1.01537 -1.76089,1.6123 -3.58645,1.33329c-1.82557,-0.27901 -3.17967,-1.3283 -3.02449,-2.34367c0.15518,-1.01537 1.76089,-1.61229 3.58645,-1.33328z" fill="url(#color-62)" stroke-width="NaN"/><path d="M243.27474,144.3944c1.82557,0.27901 3.17967,1.3283 3.02449,2.34367c-0.15518,1.01537 -1.76089,1.61229 -3.58645,1.33328c-1.82557,-0.27901 -3.17967,-1.3283 -3.02449,-2.34367c0.15518,-1.01537 1.76089,-1.61229 3.58645,-1.33328z" fill="url(#color-63)" stroke-width="NaN"/><path d="M240.75053,147.06724c-0.22454,1.83306 -0.33218,3.3793 -1.35171,3.25442c-1.01953,-0.12489 -0.95852,-1.6257 -0.73399,-3.45876c0.22454,-1.83306 0.52758,-3.30422 1.5471,-3.17934c1.01953,0.12489 0.76313,1.55062 0.53859,3.38368z" fill="url(#color-64)" stroke-width="NaN"/><path d="M246.10865,144.63836c1.01953,0.12489 0.95853,1.62569 0.73399,3.45876c-0.22454,1.83306 -0.52758,3.30422 -1.54711,3.17934c-1.01953,-0.12489 -0.75078,-1.65139 -0.52624,-3.48445c0.22454,-1.83306 0.31982,-3.27853 1.33936,-3.15364z" data-paper-data="{&quot;index&quot;:null}" fill="url(#color-65)" stroke-width="NaN"/></g><g><path d="M243.83679,141.695c1.81841,0.32238 3.14715,1.40361 2.96785,2.41499c-0.17931,1.01138 -1.79877,1.56993 -3.61718,1.24754c-1.81841,-0.32238 -3.14715,-1.40362 -2.96784,-2.415c0.17931,-1.01138 1.79876,-1.56992 3.61717,-1.24754z" fill="url(#color-66)" stroke-width="NaN"/><path d="M244.15293,139.17752c1.81841,0.32238 3.14715,1.40361 2.96785,2.41499c-0.17931,1.01138 -1.79876,1.56992 -3.61717,1.24754c-1.81841,-0.32238 -3.14715,-1.40362 -2.96785,-2.415c0.17931,-1.01138 1.79876,-1.56991 3.61717,-1.24753z" fill="url(#color-67)" stroke-width="NaN"/><path d="M241.56581,141.78952c-0.26811,1.8272 -0.41252,3.37044 -1.42879,3.22132c-1.01627,-0.14912 -0.91956,-1.64805 -0.65145,-3.47525c0.26811,-1.8272 0.60608,-3.29073 1.62235,-3.14161c1.01627,0.14912 0.726,1.56834 0.45789,3.39554z" fill="url(#color-68)" stroke-width="NaN"/><path d="M246.98023,139.48886c1.01627,0.14912 0.91956,1.64805 0.65145,3.47525c-0.26811,1.8272 -0.60608,3.29073 -1.62235,3.14161c-1.01627,-0.14912 -0.71126,-1.6688 -0.44315,-3.49599c0.26811,-1.8272 0.39778,-3.26998 1.41405,-3.12086z" data-paper-data="{&quot;index&quot;:null}" fill="url(#color-69)" stroke-width="NaN"/><path d="M244.62279,136.49724c1.81841,0.32238 3.14715,1.40362 2.96784,2.415c-0.17931,1.01138 -1.79876,1.56992 -3.61717,1.24754c-1.81841,-0.32238 -3.14715,-1.40362 -2.96785,-2.415c0.17931,-1.01138 1.79877,-1.56992 3.61718,-1.24754z" fill="url(#color-70)" stroke-width="NaN"/><path d="M244.93892,133.97977c1.81841,0.32238 3.14715,1.40361 2.96785,2.41499c-0.17931,1.01138 -1.79876,1.56992 -3.61717,1.24754c-1.81841,-0.32238 -3.14715,-1.40362 -2.96785,-2.415c0.17931,-1.01138 1.79876,-1.56991 3.61717,-1.24753z" fill="url(#color-71)" stroke-width="NaN"/><path d="M242.35181,136.59176c-0.26811,1.8272 -0.41252,3.37044 -1.4288,3.22132c-1.01627,-0.14912 -0.91955,-1.64805 -0.65144,-3.47525c0.26811,-1.8272 0.60607,-3.29073 1.62234,-3.14161c1.01627,0.14912 0.726,1.56834 0.4579,3.39554z" fill="url(#color-72)" stroke-width="NaN"/><path d="M247.76623,134.29111c1.01627,0.14912 0.91956,1.64805 0.65145,3.47525c-0.26811,1.8272 -0.60608,3.29073 -1.62235,3.14161c-1.01627,-0.14912 -0.71126,-1.6688 -0.44315,-3.49599c0.26811,-1.8272 0.39778,-3.26998 1.41405,-3.12086z" data-paper-data="{&quot;index&quot;:null}" fill="url(#color-73)" stroke-width="NaN"/><path d="M245.43953,131.28067c1.81841,0.32238 3.14715,1.40361 2.96785,2.41499c-0.17931,1.01138 -1.79877,1.56993 -3.61718,1.24754c-1.81841,-0.32238 -3.14715,-1.40362 -2.96784,-2.415c0.17931,-1.01138 1.79876,-1.56992 3.61717,-1.24754z" fill="url(#color-74)" stroke-width="NaN"/><path d="M245.75566,128.7632c1.81841,0.32238 3.14715,1.40361 2.96785,2.41499c-0.17931,1.01138 -1.79876,1.56992 -3.61717,1.24754c-1.81841,-0.32238 -3.14715,-1.40362 -2.96785,-2.415c0.17931,-1.01138 1.79876,-1.56991 3.61717,-1.24753z" fill="url(#color-75)" stroke-width="NaN"/><path d="M243.16855,131.37519c-0.26811,1.8272 -0.41252,3.37044 -1.42879,3.22132c-1.01627,-0.14912 -0.91956,-1.64805 -0.65145,-3.47525c0.26811,-1.8272 0.60608,-3.29073 1.62235,-3.14161c1.01627,0.14912 0.726,1.56834 0.45789,3.39554z" fill="url(#color-76)" stroke-width="NaN"/><path d="M248.58297,129.07454c1.01627,0.14912 0.91956,1.64805 0.65145,3.47525c-0.26811,1.8272 -0.60608,3.29073 -1.62235,3.14161c-1.01627,-0.14912 -0.71126,-1.6688 -0.44315,-3.49599c0.26811,-1.8272 0.39778,-3.26998 1.41405,-3.12086z" data-paper-data="{&quot;index&quot;:null}" fill="url(#color-77)" stroke-width="NaN"/><path d="M246.22553,126.08292c1.81841,0.32239 3.14715,1.40361 2.96785,2.41499c-0.17931,1.01138 -1.79877,1.56992 -3.61718,1.24754c-1.81841,-0.32239 -3.14715,-1.40362 -2.96784,-2.415c0.17931,-1.01138 1.79877,-1.56992 3.61718,-1.24753z" fill="url(#color-78)" stroke-width="NaN"/><path d="M246.54166,123.56544c1.81841,0.32238 3.14715,1.40361 2.96785,2.41499c-0.17931,1.01138 -1.79876,1.56992 -3.61717,1.24754c-1.81841,-0.32238 -3.14715,-1.40362 -2.96785,-2.415c0.17931,-1.01138 1.79876,-1.56991 3.61717,-1.24753z" fill="url(#color-79)" stroke-width="NaN"/><path d="M243.95455,126.17743c-0.26811,1.8272 -0.41252,3.37044 -1.42879,3.22132c-1.01627,-0.14912 -0.91955,-1.64805 -0.65145,-3.47525c0.26811,-1.8272 0.60608,-3.29073 1.62234,-3.14161c1.01627,0.14912 0.726,1.56834 0.4579,3.39554z" fill="url(#color-80)" stroke-width="NaN"/><path d="M249.36897,123.87678c1.01627,0.14912 0.91956,1.64805 0.65145,3.47525c-0.26811,1.8272 -0.60608,3.29073 -1.62235,3.14161c-1.01627,-0.14912 -0.71126,-1.6688 -0.44315,-3.49599c0.26811,-1.8272 0.39778,-3.26998 1.41405,-3.12086z" data-paper-data="{&quot;index&quot;:null}" fill="url(#color-81)" stroke-width="NaN"/></g></g></g></svg>