<svg version="1.1" xmlns="http://www.w3.org/2000/svg" xmlns:xlink="http://www.w3.org/1999/xlink" width="15.97576" height="18.28642" viewBox="0,0,15.97576,18.28642"><g transform="translate(-231.97256,-170.88427)"><g data-paper-data="{&quot;isPaintingLayer&quot;:true}" fill-rule="nonzero" stroke-linecap="butt" stroke-linejoin="miter" stroke-miterlimit="10" stroke-dasharray="" stroke-dashoffset="0" style="mix-blend-mode: normal"><path d="M240.06682,174.3682c1.72392,-1.46607 3.05609,-3.08592 3.05609,-3.08592c0,0 1.52425,1.9456 2.2329,3.01215c0.74186,1.11653 2.12322,3.54398 2.12322,3.54398l-9.34926,10.73389c0,0 -1.95794,-3.60628 -2.91878,-5.23024c-0.91338,-1.54373 -2.71108,-4.28503 -2.71108,-4.28503c0,0 4.9814,-2.49004 7.56691,-4.68883z" fill="#c9cce9" stroke="none" stroke-width="0"/><path d="M235.12709,183.00795c-0.88283,-1.49909 -2.76707,-3.99406 -2.76707,-3.99406c0,0 4.94133,-2.25108 6.69432,-3.70554c1.88608,-1.56488 4.02236,-4.0338 4.02236,-4.0338c0,0 1.47455,1.83508 2.19997,2.90282c0.79014,1.16299 2.36332,3.81382 2.36332,3.81382l-9.56076,10.73425c0,0 -1.945,-4.00728 -2.95215,-5.71748z" fill="none" stroke="#aaadc9" stroke-width="0.5"/></g></g></svg>