<svg version="1.1" xmlns="http://www.w3.org/2000/svg" xmlns:xlink="http://www.w3.org/1999/xlink" width="426.26923" height="454.722" viewBox="0,0,426.26923,454.722"><g transform="translate(-26.78303,46.53283)"><g data-paper-data="{&quot;isPaintingLayer&quot;:true}" fill-rule="nonzero" stroke-linecap="butt" stroke-linejoin="miter" stroke-miterlimit="10" stroke-dasharray="" stroke-dashoffset="0" style="mix-blend-mode: normal"><path d="M75.76536,301.1708c0,-54.13972 0,-197.5989 0,-197.5989h332.19155c0,0 -0.5,142.00439 -0.5,196.0989c0,15.95667 -80.07118,42.13941 -113.9154,59.64714c-47.14068,24.38604 -52.54151,38.05233 -52.54151,38.05233c0,0 -38.31507,-28.50265 -70.51127,-45.14497c-38.83703,-20.07498 -94.72337,-30.40096 -94.72337,-51.0545z" fill="#ffffff" stroke="#de0000" stroke-width="0"/><g fill="#de0000" stroke="#de0000" stroke-width="7.5"><path d="M312.13714,232.56345c-45.27129,-31.03908 -74.65169,-66.87651 -74.65169,-66.87651c0,0 44.01886,14.48686 89.29015,45.52594c45.27129,31.03908 78.69399,60.98071 74.65169,66.87651c-4.0423,5.8958 -44.01886,-14.48686 -89.29015,-45.52594z"/><path d="M79.54365,278.36224c-4.0423,-5.89579 29.3804,-35.83743 74.65169,-66.87651c45.27129,-31.03908 89.29015,-45.52594 89.29015,-45.52594c0,0 -29.3804,35.83743 -74.65169,66.87651c-45.27129,31.03908 -85.24785,51.42174 -89.29015,45.52594z" data-paper-data="{&quot;index&quot;:null}"/><path d="M252.30554,107.17849c-3.76401,37.06484 -11.56957,63.30349 -11.56957,63.30349c0,0 -7.41832,-26.09281 -10.7542,-62.93424c-1.02421,-11.31137 23.45708,-11.5291 22.32377,-0.36924z"/><path d="M256.67191,171.16632c0,8.63931 -7.19542,15.64286 -16.07143,15.64286c-8.876,0 -16.07143,-7.00355 -16.07143,-15.64286c0,-8.63931 7.19542,-15.64286 16.07143,-15.64286c8.876,0 16.07143,7.00355 16.07143,15.64286z"/></g><path d="M240.16236,394.92393c0,0 -12.89345,-17.05175 -46.0923,-34.16583c-32.9542,-16.98797 -76.42048,-25.24247 -109.79627,-54.52396c-56.51337,-49.5807 -8.89329,-101.43658 -10.41801,-172.81792c-1.75426,-82.12764 -32.7509,-119.70883 -32.7509,-119.70883l48.68619,-49.89764h300.69561l48.8805,49.37747c0,0 -34.37307,46.03919 -32.07419,132.39896c1.37175,51.53146 39.0271,112.048 -3.68309,154.19379c-36.85322,36.36622 -57.83673,35.40351 -102.69128,54.73677c-45.54105,19.62916 -60.75624,40.40718 -60.75624,40.40718z" data-paper-data="{&quot;index&quot;:null}" fill="none" stroke="#de0000" stroke-width="12.5"/><path d="M66.32991,105.439c0,0 -5.28874,-37.20331 -10.03688,-51.53251c-5.10791,-15.41496 -18.24904,-44.29005 -18.24904,-44.29005l48.93522,-50.55767l308.26432,1.60867l47.57386,48.3439c0,0 -14.02654,27.68552 -19.24996,42.57226c-5.36123,15.2795 -10.47279,53.8554 -10.47279,53.8554z" fill="#071c5a" stroke="none" stroke-width="0"/><path d="M239.92424,400.28283c0,0 -13.26066,-17.42558 -47.40504,-34.91486c-33.89276,-17.3604 -78.59699,-25.79587 -112.92335,-55.71931c-58.12291,-50.66768 -9.14658,-103.66041 -10.71472,-176.60667c-1.80422,-83.92816 -33.68367,-122.33325 -33.68367,-122.33325l50.07281,-50.99157h309.25964l50.27265,50.45999c0,0 -35.35204,47.04853 -32.98769,135.30159c1.41082,52.6612 40.13862,114.50447 -3.78799,157.57424c-37.90283,37.16349 -59.48396,36.17967 -105.616,55.93679c-46.83809,20.0595 -62.48662,41.29304 -62.48662,41.29304z" data-paper-data="{&quot;index&quot;:null}" fill="none" stroke="#ffffff" stroke-width="12.5"/><path d="M112.44128,52.34183l4.25354,-14.37351l-12.79625,-8.78531h15.6181l5.94938,-14.33949l5.18658,14.33949h15.16046l-11.76821,8.66562l4.29344,14.4932l-13.32991,-8.69521z" fill="#ffffff" stroke="none" stroke-width="2"/><path d="M165.4755,52.27924l4.25354,-14.37351l-12.79625,-8.78531h15.6181l5.94938,-14.33949l5.18658,14.33949h15.16046l-11.76821,8.66562l4.29344,14.4932l-13.32991,-8.69521z" fill="#ffffff" stroke="none" stroke-width="2"/><path d="M87.10232,91.23825l4.25354,-14.37351l-12.79625,-8.78531h15.6181l5.94938,-14.33949l5.18658,14.33949h15.16046l-11.76821,8.66562l4.29344,14.4932l-13.32991,-8.69521z" fill="#ffffff" stroke="none" stroke-width="2"/><path d="M138.42993,91.22226l4.25354,-14.37351l-12.79625,-8.78531h15.6181l5.94938,-14.33949l5.18658,14.33949h15.16046l-11.76821,8.66562l4.29344,14.4932l-13.32991,-8.69521z" fill="#ffffff" stroke="none" stroke-width="2"/><path d="M192.02199,91.25288l4.25354,-14.37351l-12.79625,-8.78531h15.6181l5.94938,-14.33949l5.18658,14.33949h15.16046l-11.76821,8.66562l4.29344,14.4932l-13.32991,-8.69521z" fill="#ffffff" stroke="none" stroke-width="2"/><path d="M87.2911,15.92797l4.25354,-14.3735l-12.79625,-8.78531h15.6181l5.94938,-14.33949l5.18658,14.33949h15.16046l-11.76821,8.66561l4.29344,14.4932l-13.32991,-8.69521z" fill="#ffffff" stroke="none" stroke-width="2"/><path d="M138.61872,15.91198l4.25354,-14.3735l-12.79626,-8.78531h15.61811l5.94937,-14.33948l5.18658,14.33948h15.16045l-11.76821,8.66561l4.29344,14.4932l-13.3299,-8.69521z" fill="#ffffff" stroke="none" stroke-width="2"/><path d="M192.21078,15.9426l4.25354,-14.3735l-12.79626,-8.78531h15.61811l5.94938,-14.33948l5.18658,14.33948h15.16046l-11.76821,8.66561l4.29344,14.4932l-13.32991,-8.69521z" fill="#ffffff" stroke="none" stroke-width="2"/><path d="M290.75933,52.35099l4.25354,-14.37351l-12.79625,-8.78531h15.6181l5.94937,-14.33948l5.18658,14.33948h15.16045l-11.76821,8.66562l4.29344,14.49321l-13.32991,-8.69522z" fill="#ffffff" stroke="none" stroke-width="2"/><path d="M343.79354,52.28841l4.25354,-14.37351l-12.79625,-8.78531h15.6181l5.94937,-14.33948l5.18658,14.33949h15.16046l-11.76821,8.66562l4.29344,14.4932l-13.32991,-8.69521z" fill="#ffffff" stroke="none" stroke-width="2"/><path d="M265.42036,91.24742l4.25354,-14.3735l-12.79625,-8.78531h15.6181l5.94937,-14.33949l5.18658,14.33949h15.16045l-11.76821,8.66562l4.29344,14.4932l-13.32991,-8.69521z" fill="#ffffff" stroke="none" stroke-width="2"/><path d="M316.74798,91.23143l4.25354,-14.37351l-12.79625,-8.78531h15.6181l5.94937,-14.33949l5.18658,14.33949h15.16045l-11.76821,8.66562l4.29344,14.4932l-13.3299,-8.69521z" fill="#ffffff" stroke="none" stroke-width="2"/><path d="M370.34004,91.26205l4.25354,-14.37351l-12.79625,-8.78531h15.6181l5.94937,-14.33949l5.18658,14.33949h15.16045l-11.76821,8.66562l4.29344,14.49321l-13.32991,-8.69522z" fill="#ffffff" stroke="none" stroke-width="2"/><path d="M265.60915,15.93714l4.25354,-14.37351l-12.79625,-8.78531h15.6181l5.94937,-14.33949l5.18658,14.33949h15.16045l-11.76821,8.66562l4.29344,14.49321l-13.32991,-8.69522z" fill="#ffffff" stroke="none" stroke-width="2"/><path d="M316.93676,15.92115l4.25354,-14.3735l-12.79625,-8.78531h15.6181l5.94937,-14.33948l5.18658,14.33949h15.16045l-11.76821,8.66561l4.29344,14.49321l-13.3299,-8.69522z" fill="#ffffff" stroke="none" stroke-width="2"/><path d="M370.52883,15.95177l4.25354,-14.3735l-12.79625,-8.78531h15.6181l5.94937,-14.33949l5.18658,14.33949h15.16045l-11.76821,8.66561l4.29344,14.49321l-13.32991,-8.69522z" fill="#ffffff" stroke="none" stroke-width="2"/><path d="M65.53392,263.46641c0,-10.71983 -0.33014,-28.67786 3.13281,-46.77069c3.28664,-17.17167 10.3756,-34.29949 10.3756,-51.48912c0,-30.38513 0.18505,-55.99945 0.18505,-55.99945h6.26988v191.08356c0,0 -19.96333,-15.23348 -19.96333,-36.8243z" fill="#de0000" stroke="#de0000" stroke-width="7.5"/><path d="M119.544,322.47716v-213.25167h19.96333v222.31896z" fill="#de0000" stroke="#de0000" stroke-width="7.5"/><path d="M172.62832,344.40477v-235.17928h19.96334v244.43162z" fill="#de0000" stroke="#de0000" stroke-width="7.5"/><path d="M223.44409,371.11493v-261.43573h19.96334v268.65256c0,0 -3.80531,2.49471 -6.51281,1.51594c-3.65712,-1.32206 -13.45052,-8.73276 -13.45052,-8.73276z" fill="#de0000" stroke="#de0000" stroke-width="7.5"/><path d="M394.50274,298.85868v-189.64236h7.19511c0,0 -0.55514,27.56002 -0.55514,52.47439c0,21.61165 15.72897,57.76204 15.72897,71.79813c0,22.4538 -2.40561,40.75862 -2.40561,40.75862c0,0 -5.31738,11.06994 -8.59775,15.11406c-3.37157,4.15654 -11.36559,9.49716 -11.36559,9.49716z" data-paper-data="{&quot;index&quot;:null}" fill="#de0000" stroke="#de0000" stroke-width="7.5"/><path d="M340.49266,331.55361v-222.31896h19.96333v213.99186z" data-paper-data="{&quot;index&quot;:null}" fill="#de0000" stroke="#de0000" stroke-width="7.5"/><path d="M287.40834,354.03637v-244.80171h19.96333v236.20746z" data-paper-data="{&quot;index&quot;:null}" fill="#de0000" stroke="#de0000" stroke-width="7.5"/><path d="M236.59257,375.93531v-266.24695h19.96334v262.36097l-15.27499,11.2023z" data-paper-data="{&quot;index&quot;:null}" fill="#de0000" stroke="#de0000" stroke-width="7.5"/><g fill="#ffffff" stroke="#de0000" stroke-width="0"><path d="M313.9555,233.35206c-44.15638,-30.27467 -72.81322,-65.22952 -72.81322,-65.22952c0,0 42.93479,14.13009 87.09117,44.40476c44.15638,30.27467 76.75597,59.47892 72.81322,65.22952c-3.94275,5.7506 -42.93479,-14.13009 -87.09117,-44.40476z"/><path d="M80.45208,278.02295c-3.94275,-5.75059 28.65684,-34.95485 72.81322,-65.22952c44.15638,-30.27467 87.09117,-44.40476 87.09117,-44.40476c0,0 -28.65684,34.95485 -72.81322,65.22952c-44.15638,30.27467 -83.14843,50.15536 -87.09117,44.40476z" data-paper-data="{&quot;index&quot;:null}"/><path d="M241.9502,-23.2887c6.9723,0.04235 12.3608,43.47719 12.03557,97.01443c-0.32523,53.53723 -13.21333,96.86105 -13.21333,96.86105c0,0 -12.3608,-43.4772 -12.03557,-97.01444c0.32523,-53.53724 6.24105,-96.90341 13.21333,-96.86105z"/><path d="M256.31592,171.25428c0,8.42655 -7.01822,15.25762 -15.67563,15.25762c-8.65741,0 -15.67563,-6.83107 -15.67563,-15.25762c0,-8.42655 7.01822,-15.25762 15.67563,-15.25762c8.65741,0 15.67563,6.83107 15.67563,15.25762z"/></g><path d="M70.76536,107.9665v-4.99083h341.19155v4.99083z" fill="#ffffff" stroke="#de0000" stroke-width="0"/></g></g></svg>