<?xml version="1.0" encoding="utf-8"?>
<!-- Generator: Adobe Illustrator 26.3.1, SVG Export Plug-In . SVG Version: 6.00 Build 0)  -->
<svg version="1.1" id="Layer_1" xmlns="http://www.w3.org/2000/svg" xmlns:xlink="http://www.w3.org/1999/xlink" x="0px" y="0px"
	 viewBox="0 0 512 512" style="enable-background:new 0 0 512 512;" xml:space="preserve">
<style type="text/css">
	.st0{fill-rule:evenodd;clip-rule:evenodd;}
</style>
<g>
	<path class="st0" d="M357.86,0H0v256h51.2V51.2h256v153.6h153.6V256H512v-91.19L357.86,0z M230.4,384v51.2
		c0,14.13,11.47,25.6,25.6,25.6c14.13,0,25.6-11.47,25.6-25.6V384c0-14.13-11.47-25.6-25.6-25.6
		C241.87,358.4,230.4,369.87,230.4,384z M179.2,460.8V358.4c0-28.29,22.91-51.2,51.2-51.2h51.2c28.26,0,51.2,22.91,51.2,51.2v102.4
		c0,28.29-22.94,51.2-51.2,51.2h-51.2C202.11,512,179.2,489.09,179.2,460.8z M102.4,386.69c0-14.16-11.47-28.29-25.6-28.29H51.2
		v102.4h25.6c14.13,0,25.6-8.78,25.6-22.91V386.69z M153.6,384v51.2c0,42.42-34.38,76.8-76.8,76.8H0v-48.51v-102.4V307.2h76.8
		C119.04,307.2,153.6,341.76,153.6,384z M460.8,307.2H512v51.2h-51.2c-28.29,0-51.2,22.91-51.2,51.2c0,28.26,22.91,51.2,51.2,51.2
		H512V512h-51.2c-56.55,0-102.4-45.85-102.4-102.4S404.25,307.2,460.8,307.2z"/>
</g>
</svg>
