<svg version="1.1" xmlns="http://www.w3.org/2000/svg" xmlns:xlink="http://www.w3.org/1999/xlink" width="225.09181" height="264.57216" viewBox="0,0,225.09181,264.57216"><g transform="translate(-127.44227,-47.7232)"><g data-paper-data="{&quot;isPaintingLayer&quot;:true}" fill-rule="nonzero" stroke-linejoin="miter" stroke-miterlimit="10" stroke-dasharray="" stroke-dashoffset="0" style="mix-blend-mode: normal"><g><g fill="#c9cce9" stroke="none" stroke-width="0" stroke-linecap="butt"><path d="M164.10828,311.64413c0,0 0.70161,-10.61559 4.68887,-27.46785c2.53115,-13.20323 6.5955,-23.92675 7.34339,-27.75129c1.80465,-9.22855 3.789,-14.00126 3.58018,-20.99869c-0.254,-8.51149 -3.65831,-17.93078 -4.04122,-19.0685c-4.36346,-12.96487 -4.63381,-24.70823 -4.63381,-24.70823l-43.41781,2.77613c0,0 1.21715,-41.14407 5.88447,-62.35068c7.04204,-31.99648 18.76798,-55.64009 18.76798,-55.64009l50.98344,-12.2718l12.78951,-15.95042c0,0 4.47599,8.18343 10.08844,15.55054c4.19472,5.50614 10.61624,7.11613 13.46712,7.11613c9.17177,0 17.85123,-3.11111 29.88889,-3.11111c15.67449,0 30.54106,7.22222 30.54106,7.22222l-27.44444,205.40097c0,0 -8.73095,7.44445 -29.19203,7.44445c-6.37752,0 -10.89972,23.44445 -19.57125,23.44445c-20.49256,0 -59.88405,0.44445 -59.88405,0.44445z"/><path d="M316.05298,311.39144c0,0 -39.39149,-0.44445 -59.88405,-0.44445c-8.67153,0 -13.19373,-23.44445 -19.57125,-23.44445c-20.46108,0 -29.19203,-7.44445 -29.19203,-7.44445l-27.44444,-205.40097c0,0 14.86657,-7.22222 30.54106,-7.22222c12.03766,0 20.71712,3.11111 29.88889,3.11111c2.85088,0 9.2724,-1.60999 13.46712,-7.11613c5.61245,-7.36711 9.65987,-14.83625 9.65987,-14.83625l12.64665,15.95042l51.55487,11.55751c0,0 11.72594,23.64361 18.76798,55.64009c4.66732,21.20661 5.88447,62.35068 5.88447,62.35068l-43.41781,-2.77613c0,0 -0.27035,11.74336 -4.63381,24.70823c-0.38291,1.13772 -3.78723,10.55701 -4.04122,19.0685c-0.20881,6.99743 1.77553,11.77014 3.58019,20.9987c0.74789,3.82455 4.81224,14.54807 7.34339,27.7513c3.98726,16.85226 4.68887,27.46784 4.68887,27.46784z" data-paper-data="{&quot;index&quot;:null}"/></g><g stroke-linecap="butt"><path d="M241.5231,216.19688c0,2.17334 -1.75148,3.93519 -3.91204,3.93519c-2.16056,0 -3.91204,-1.76184 -3.91204,-3.93519c0,-2.17334 1.75148,-3.93519 3.91204,-3.93519c2.16056,0 3.91204,1.76184 3.91204,3.93519z" fill="#c9cce9" stroke="#b1b5cd" stroke-width="1"/><path d="M236.4768,218.46542c-0.63922,0 -1.15741,-0.51819 -1.15741,-1.15741c0,-0.63922 0.51819,-1.15741 1.15741,-1.15741c0.63922,0 1.15741,0.51819 1.15741,1.15741c0,0.63922 -0.51819,1.15741 -1.15741,1.15741z" fill="#000000" stroke="#000000" stroke-width="0"/><path d="M238.74532,218.46542c-0.63922,0 -1.1574,-0.51819 -1.1574,-1.15741c0,-0.63922 0.51818,-1.1574 1.1574,-1.1574c0.63922,0 1.15741,0.51818 1.15741,1.1574c0,0.63922 -0.51819,1.15741 -1.15741,1.15741z" fill="#000000" stroke="#000000" stroke-width="0"/><path d="M236.5231,216.33576c-0.63922,0 -1.1574,-0.51819 -1.1574,-1.15741c0,-0.63922 0.51818,-1.15741 1.1574,-1.15741c0.63922,0 1.15741,0.51819 1.15741,1.15741c0,0.63922 -0.51819,1.15741 -1.15741,1.15741z" fill="#000000" stroke="#000000" stroke-width="0"/><path d="M238.74532,216.28947c-0.63922,0 -1.1574,-0.51819 -1.1574,-1.15741c0,-0.63922 0.51818,-1.15741 1.1574,-1.15741c0.63922,0 1.15741,0.51819 1.15741,1.15741c0,0.63922 -0.51819,1.15741 -1.15741,1.15741z" fill="#000000" stroke="#000000" stroke-width="0"/></g><g stroke-linecap="butt"><path d="M241.01078,181.68454c0,2.17335 -1.75148,3.93518 -3.91204,3.93518c-2.16056,0 -3.91204,-1.76184 -3.91204,-3.93518c0,-2.17335 1.75148,-3.93518 3.91204,-3.93518c2.16056,0 3.91204,1.76184 3.91204,3.93518z" fill="#c9cce9" stroke="#b1b5cd" stroke-width="1"/><path d="M235.96449,183.95307c-0.63922,0 -1.15741,-0.51819 -1.15741,-1.15741c0,-0.63922 0.51819,-1.15741 1.15741,-1.15741c0.63922,0 1.1574,0.51819 1.1574,1.15741c0,0.63922 -0.51818,1.15741 -1.1574,1.15741z" fill="#000000" stroke="#000000" stroke-width="0"/><path d="M238.233,183.95306c-0.63922,0 -1.1574,-0.51819 -1.1574,-1.15741c0,-0.63922 0.51818,-1.15741 1.1574,-1.15741c0.63922,0 1.15741,0.51819 1.15741,1.15741c0,0.63922 -0.51819,1.15741 -1.15741,1.15741z" fill="#000000" stroke="#000000" stroke-width="0"/><path d="M236.01078,181.82344c-0.63922,0 -1.1574,-0.51819 -1.1574,-1.15741c0,-0.63922 0.51818,-1.1574 1.1574,-1.1574c0.63922,0 1.15741,0.51818 1.15741,1.1574c0,0.63922 -0.51819,1.15741 -1.15741,1.15741z" fill="#000000" stroke="#000000" stroke-width="0"/><path d="M238.233,181.77714c-0.63922,0 -1.1574,-0.51819 -1.1574,-1.15741c0,-0.63922 0.51818,-1.15741 1.1574,-1.15741c0.63922,0 1.15741,0.51819 1.15741,1.15741c0,0.63922 -0.51819,1.15741 -1.15741,1.15741z" fill="#000000" stroke="#000000" stroke-width="0"/></g><g stroke-linecap="butt"><path d="M241.95741,146.76669c0,2.17334 -1.75148,3.93519 -3.91204,3.93519c-2.16056,0 -3.91204,-1.76184 -3.91204,-3.93519c0,-2.17335 1.75148,-3.93518 3.91204,-3.93518c2.16056,0 3.91204,1.76184 3.91204,3.93518z" fill="#c9cce9" stroke="#b1b5cd" stroke-width="1"/><path d="M236.91112,149.0352c-0.63922,0 -1.15741,-0.51818 -1.15741,-1.1574c0,-0.63922 0.51819,-1.15741 1.15741,-1.15741c0.63922,0 1.1574,0.51819 1.1574,1.15741c0,0.63921 -0.51818,1.1574 -1.1574,1.1574z" fill="#000000" stroke="#000000" stroke-width="0"/><path d="M239.17964,149.03521c-0.63922,0 -1.1574,-0.51819 -1.1574,-1.15741c0,-0.63922 0.51818,-1.15741 1.1574,-1.15741c0.63922,0 1.15741,0.51819 1.15741,1.15741c0,0.63922 -0.51819,1.15741 -1.15741,1.15741z" fill="#000000" stroke="#000000" stroke-width="0"/><path d="M236.95741,146.90558c-0.63922,0 -1.1574,-0.51819 -1.1574,-1.15741c0,-0.63922 0.51818,-1.1574 1.1574,-1.1574c0.63922,0 1.15741,0.51818 1.15741,1.1574c0,0.63922 -0.51819,1.15741 -1.15741,1.15741z" fill="#000000" stroke="#000000" stroke-width="0"/><path d="M239.17964,146.85929c-0.63922,0 -1.1574,-0.51819 -1.1574,-1.15741c0,-0.63922 0.51818,-1.15741 1.1574,-1.15741c0.63922,0 1.15741,0.51819 1.15741,1.15741c0,0.63922 -0.51819,1.15741 -1.15741,1.15741z" fill="#000000" stroke="#000000" stroke-width="0"/></g><g stroke-linecap="butt"><path d="M242.01158,109.35123c0,2.17335 -1.75148,3.93518 -3.91204,3.93518c-2.16056,0 -3.91204,-1.76184 -3.91204,-3.93518c0,-2.17335 1.75148,-3.93518 3.91204,-3.93518c2.16056,0 3.91204,1.76184 3.91204,3.93518z" fill="#c9cce9" stroke="#b1b5cd" stroke-width="1"/><path d="M236.96529,111.61976c-0.63922,0 -1.15741,-0.51819 -1.15741,-1.15741c0,-0.63922 0.51819,-1.15741 1.15741,-1.15741c0.63922,0 1.1574,0.51819 1.1574,1.15741c0,0.63922 -0.51818,1.15741 -1.1574,1.15741z" fill="#000000" stroke="#000000" stroke-width="0"/><path d="M239.23381,111.61976c-0.63922,0 -1.1574,-0.51819 -1.1574,-1.15741c0,-0.63922 0.51818,-1.15741 1.1574,-1.15741c0.63922,0 1.15741,0.51819 1.15741,1.15741c0,0.63922 -0.51819,1.15741 -1.15741,1.15741z" fill="#000000" stroke="#000000" stroke-width="0"/><path d="M237.01158,109.49014c-0.63922,0 -1.1574,-0.51819 -1.1574,-1.15741c0,-0.63922 0.51818,-1.1574 1.1574,-1.1574c0.63922,0 1.15741,0.51818 1.15741,1.1574c0,0.63922 -0.51819,1.15741 -1.15741,1.15741z" fill="#000000" stroke="#000000" stroke-width="0"/><path d="M239.23381,109.44381c-0.63922,0 -1.1574,-0.51819 -1.1574,-1.15741c0,-0.63922 0.51818,-1.15741 1.1574,-1.15741c0.63922,0 1.15741,0.51819 1.15741,1.15741c0,0.63922 -0.51819,1.15741 -1.15741,1.15741z" fill="#000000" stroke="#000000" stroke-width="0"/></g><g stroke-linecap="butt"><path d="M241.84412,254.40379c0,2.17334 -1.75148,3.93519 -3.91204,3.93519c-2.16056,0 -3.91204,-1.76184 -3.91204,-3.93519c0,-2.17334 1.75148,-3.93519 3.91204,-3.93519c2.16056,0 3.91204,1.76184 3.91204,3.93519z" fill="#c9cce9" stroke="#b1b5cd" stroke-width="1"/><path d="M236.79782,256.67231c-0.63922,0 -1.15741,-0.51819 -1.15741,-1.15741c0,-0.63922 0.51819,-1.15741 1.15741,-1.15741c0.63922,0 1.15741,0.51819 1.15741,1.15741c0,0.63922 -0.51819,1.15741 -1.15741,1.15741z" fill="#000000" stroke="#000000" stroke-width="0"/><path d="M239.06633,256.67231c-0.63922,0 -1.1574,-0.51819 -1.1574,-1.15741c0,-0.63922 0.51818,-1.1574 1.1574,-1.1574c0.63922,0 1.15741,0.51818 1.15741,1.1574c0,0.63922 -0.51819,1.15741 -1.15741,1.15741z" fill="#000000" stroke="#000000" stroke-width="0"/><path d="M236.84412,254.54268c-0.63922,0 -1.1574,-0.51819 -1.1574,-1.15741c0,-0.63922 0.51818,-1.15741 1.1574,-1.15741c0.63922,0 1.15741,0.51819 1.15741,1.15741c0,0.63922 -0.51819,1.15741 -1.15741,1.15741z" fill="#000000" stroke="#000000" stroke-width="0"/><path d="M239.06633,254.49639c-0.63922,0 -1.1574,-0.51819 -1.1574,-1.15741c0,-0.63922 0.51818,-1.15741 1.1574,-1.15741c0.63922,0 1.15741,0.51819 1.15741,1.15741c0,0.63922 -0.51819,1.15741 -1.15741,1.15741z" fill="#000000" stroke="#000000" stroke-width="0"/></g><path d="M240.5096,289.94229c0,0 -2.14204,1.5513 -3.94197,4.75106c-2.34521,4.16911 -4.63287,10.43909 -6.18611,12.60099c-2.09938,2.92206 -4.93218,3.60986 -4.93218,3.60986l-61.55986,0.88309c0,0 1.50844,-13.82239 4.93538,-29.51126c2.13645,-9.78089 5.00042,-16.35425 7.17584,-25.07697c2.57288,-10.31641 4.00663,-16.23431 4.11293,-22.81059c0.03693,-2.28411 -5.91113,-23.23713 -7.57423,-31.92617c-3.25426,-11.82469 -0.41598,-48.44938 -5.78937,-72.33813c-4.33551,-19.27462 -12.66422,-48.31854 -14.05188,-53.56586c-0.00909,-0.03435 -11.75289,26.69252 -18.06206,52.66918c-7.21688,29.71397 -6.68504,65.15905 -6.68504,65.15905l43.18136,-2.85166" fill="none" stroke="#aaadc9" stroke-width="1" stroke-linecap="round"/><path d="M244.41054,91.34467c0.14053,9.01158 0.23574,20.62155 0.13428,33.53911c-0.12541,15.96828 -1.44296,34.06208 -1.35472,51.43112c0.13908,27.37779 0.71535,53.46924 0.50704,68.03491c-0.24184,16.91056 -3.19986,45.77115 -3.19986,45.77115" fill="none" stroke="#aaadc9" stroke-width="1" stroke-linecap="round"/><g fill="#0d1c55" stroke="none" stroke-width="0" stroke-linecap="butt"><path d="M218.5028,115.81205l-5.76923,-34.51923l9.03556,16.64988l17.12395,-27.64051l1.93265,0.04401l0.1552,2.21197l-0.07428,11.71541z"/><path d="M238.43285,84.15996l0.64001,-11.96751l1.66768,-1.20556l16.82983,26.84219l9.03556,-16.64988l-5.76923,34.51923z" data-paper-data="{&quot;index&quot;:null}"/></g><path d="M308.81947,191.2164l43.18136,2.85166c0,0 0.87431,-35.44508 -6.34257,-65.15905c-8.43246,-34.26433 -18.39544,-52.70353 -18.40453,-52.66918c-1.38766,5.24732 -9.71637,34.29124 -14.05188,53.56586c-5.37339,23.88875 -2.53511,60.51344 -5.78937,72.33813c-1.6631,8.68904 -7.61116,29.64206 -7.57423,31.92617c0.1063,6.57628 1.54005,12.49418 4.11293,22.81059c2.17542,8.72272 5.03939,15.29608 7.17584,25.07697c3.42694,15.68887 4.93538,29.51126 4.93538,29.51126l-61.55986,-0.88309c0,0 -2.8328,-0.6878 -4.93218,-3.60986c-1.55324,-2.1619 -3.8409,-8.43188 -6.18611,-12.60099c-1.13375,-2.01548 -2.40323,-3.37693 -3.18764,-4.10862" data-paper-data="{&quot;index&quot;:null}" fill="none" stroke="#aaadc9" stroke-width="1" stroke-linecap="round"/><g fill="none" stroke="#aaadc9" stroke-width="1"><path d="M221.8421,97.42582l-18.26348,-33.00439c0,0 2.67114,-4.07082 4.71654,-6.73361c2.08346,-2.71233 7.76305,-9.12177 7.76305,-9.12177c0,0 8.67115,14.51056 12.60114,18.36458c3.65268,3.58207 9.98396,3.72384 9.98396,3.72384z" stroke-linecap="butt"/><path d="M152.82146,76.52833l50.86253,-11.99393" stroke-linecap="round"/><path d="M207.44787,72.0449l-52.29487,12.35043" stroke-linecap="round"/></g><g fill="none" stroke="#aaadc9" stroke-width="1"><path d="M240.75249,70.65448c0,0 6.33128,-0.14177 9.98396,-3.72384c3.92999,-3.85402 12.60114,-18.36458 12.60114,-18.36458c0,0 5.67959,6.40944 7.76305,9.12177c2.0454,2.66279 4.71654,6.73361 4.71654,6.73361l-18.26348,33.00439z" data-paper-data="{&quot;index&quot;:null}" stroke-linecap="butt"/><path d="M275.71181,64.53441l51.50736,11.57669" data-paper-data="{&quot;index&quot;:null}" stroke-linecap="round"/><path d="M325.19994,83.89533l-53.25201,-11.85043" data-paper-data="{&quot;index&quot;:null}" stroke-linecap="round"/></g></g></g></g></svg>