<svg version="1.1" xmlns="http://www.w3.org/2000/svg" xmlns:xlink="http://www.w3.org/1999/xlink" width="225.09181" height="264.2643" viewBox="0,0,225.09181,264.2643"><g transform="translate(-127.44227,-47.68233)"><g data-paper-data="{&quot;isPaintingLayer&quot;:true}" fill-rule="nonzero" stroke-linejoin="miter" stroke-miterlimit="10" stroke-dasharray="" stroke-dashoffset="0" style="mix-blend-mode: normal"><g><g fill="#c9cce9" stroke="none" stroke-width="0" stroke-linecap="butt"><path d="M164.10828,311.2954c0,0 0.70161,-10.61559 4.68887,-27.46785c2.53115,-13.20323 6.5955,-23.92675 7.34339,-27.75129c1.80465,-9.22855 3.789,-14.00126 3.58018,-20.99869c-0.254,-8.51149 -3.65831,-17.93078 -4.04122,-19.0685c-4.36346,-12.96487 -4.63381,-24.70823 -4.63381,-24.70823l-43.41781,2.77613c0,0 1.21715,-41.14407 5.88447,-62.35068c7.04204,-31.99648 18.76798,-55.64009 18.76798,-55.64009l49.7136,-11.55752l12.15459,-15.55359c0,0 6.61351,14.19516 13.53003,27.66639c6.59618,12.84731 13.47514,25.00028 14.8668,25.00028c9.17177,0 14.91472,-34.22222 26.95238,-34.22222c15.67449,0 30.54106,7.22222 30.54106,7.22222l-27.44444,205.40097c0,0 -8.73095,7.44445 -29.19203,7.44445c-6.37752,0 -10.89972,23.44445 -19.57125,23.44445c-20.49256,0 -59.88405,0.44445 -59.88405,0.44445z"/><path d="M316.05298,311.04271c0,0 -39.39149,-0.44445 -59.88405,-0.44445c-8.67153,0 -13.19373,-23.44445 -19.57125,-23.44445c-20.46108,0 -29.19203,-7.44445 -29.19203,-7.44445l-27.44444,-205.40097c0,0 14.86657,-7.22222 30.54106,-7.22222c12.03766,0 22.22506,34.53968 31.39683,34.53968c1.45297,0 7.14967,-10.95791 12.54269,-24.27272c5.18871,-12.81036 10.58429,-28.4733 10.58429,-28.4733l12.01173,15.47423l50.68186,11.39878c0,0 11.72594,23.64361 18.76798,55.64009c4.66732,21.20661 5.88447,62.35068 5.88447,62.35068l-43.41781,-2.77613c0,0 -0.27035,11.74336 -4.63381,24.70823c-0.38291,1.13772 -3.78723,10.55701 -4.04122,19.0685c-0.20881,6.99743 1.77553,11.77014 3.58019,20.9987c0.74789,3.82455 4.81224,14.54807 7.34339,27.7513c3.98726,16.85226 4.68887,27.46784 4.68887,27.46784z" data-paper-data="{&quot;index&quot;:null}"/></g><g stroke-linecap="butt"><path d="M241.5231,215.84815c0,2.17334 -1.75148,3.93519 -3.91204,3.93519c-2.16056,0 -3.91204,-1.76184 -3.91204,-3.93519c0,-2.17334 1.75148,-3.93519 3.91204,-3.93519c2.16056,0 3.91204,1.76184 3.91204,3.93519z" fill="#c9cce9" stroke="#b1b5cd" stroke-width="1"/><path d="M236.4768,218.11669c-0.63922,0 -1.15741,-0.51819 -1.15741,-1.15741c0,-0.63922 0.51819,-1.15741 1.15741,-1.15741c0.63922,0 1.15741,0.51819 1.15741,1.15741c0,0.63922 -0.51819,1.15741 -1.15741,1.15741z" fill="#000000" stroke="#000000" stroke-width="0"/><path d="M238.74532,218.11669c-0.63922,0 -1.1574,-0.51819 -1.1574,-1.15741c0,-0.63922 0.51818,-1.1574 1.1574,-1.1574c0.63922,0 1.15741,0.51818 1.15741,1.1574c0,0.63922 -0.51819,1.15741 -1.15741,1.15741z" fill="#000000" stroke="#000000" stroke-width="0"/><path d="M236.5231,215.98703c-0.63922,0 -1.1574,-0.51819 -1.1574,-1.15741c0,-0.63922 0.51818,-1.15741 1.1574,-1.15741c0.63922,0 1.15741,0.51819 1.15741,1.15741c0,0.63922 -0.51819,1.15741 -1.15741,1.15741z" fill="#000000" stroke="#000000" stroke-width="0"/><path d="M238.74532,215.94074c-0.63922,0 -1.1574,-0.51819 -1.1574,-1.15741c0,-0.63922 0.51818,-1.15741 1.1574,-1.15741c0.63922,0 1.15741,0.51819 1.15741,1.15741c0,0.63922 -0.51819,1.15741 -1.15741,1.15741z" fill="#000000" stroke="#000000" stroke-width="0"/></g><g stroke-linecap="butt"><path d="M241.01078,181.33581c0,2.17335 -1.75148,3.93518 -3.91204,3.93518c-2.16056,0 -3.91204,-1.76184 -3.91204,-3.93518c0,-2.17335 1.75148,-3.93518 3.91204,-3.93518c2.16056,0 3.91204,1.76184 3.91204,3.93518z" fill="#c9cce9" stroke="#b1b5cd" stroke-width="1"/><path d="M235.96449,183.60434c-0.63922,0 -1.15741,-0.51819 -1.15741,-1.15741c0,-0.63922 0.51819,-1.15741 1.15741,-1.15741c0.63922,0 1.1574,0.51819 1.1574,1.15741c0,0.63922 -0.51818,1.15741 -1.1574,1.15741z" fill="#000000" stroke="#000000" stroke-width="0"/><path d="M238.233,183.60433c-0.63922,0 -1.1574,-0.51819 -1.1574,-1.15741c0,-0.63922 0.51818,-1.15741 1.1574,-1.15741c0.63922,0 1.15741,0.51819 1.15741,1.15741c0,0.63922 -0.51819,1.15741 -1.15741,1.15741z" fill="#000000" stroke="#000000" stroke-width="0"/><path d="M236.01078,181.47471c-0.63922,0 -1.1574,-0.51819 -1.1574,-1.15741c0,-0.63922 0.51818,-1.1574 1.1574,-1.1574c0.63922,0 1.15741,0.51818 1.15741,1.1574c0,0.63922 -0.51819,1.15741 -1.15741,1.15741z" fill="#000000" stroke="#000000" stroke-width="0"/><path d="M238.233,181.42841c-0.63922,0 -1.1574,-0.51819 -1.1574,-1.15741c0,-0.63922 0.51818,-1.15741 1.1574,-1.15741c0.63922,0 1.15741,0.51819 1.15741,1.15741c0,0.63922 -0.51819,1.15741 -1.15741,1.15741z" fill="#000000" stroke="#000000" stroke-width="0"/></g><g stroke-linecap="butt"><path d="M241.95741,146.41796c0,2.17334 -1.75148,3.93519 -3.91204,3.93519c-2.16056,0 -3.91204,-1.76184 -3.91204,-3.93519c0,-2.17335 1.75148,-3.93518 3.91204,-3.93518c2.16056,0 3.91204,1.76184 3.91204,3.93518z" fill="#c9cce9" stroke="#b1b5cd" stroke-width="1"/><path d="M236.91112,148.68647c-0.63922,0 -1.15741,-0.51818 -1.15741,-1.1574c0,-0.63922 0.51819,-1.15741 1.15741,-1.15741c0.63922,0 1.1574,0.51819 1.1574,1.15741c0,0.63921 -0.51818,1.1574 -1.1574,1.1574z" fill="#000000" stroke="#000000" stroke-width="0"/><path d="M239.17964,148.68648c-0.63922,0 -1.1574,-0.51819 -1.1574,-1.15741c0,-0.63922 0.51818,-1.15741 1.1574,-1.15741c0.63922,0 1.15741,0.51819 1.15741,1.15741c0,0.63922 -0.51819,1.15741 -1.15741,1.15741z" fill="#000000" stroke="#000000" stroke-width="0"/><path d="M236.95741,146.55685c-0.63922,0 -1.1574,-0.51819 -1.1574,-1.15741c0,-0.63922 0.51818,-1.1574 1.1574,-1.1574c0.63922,0 1.15741,0.51818 1.15741,1.1574c0,0.63922 -0.51819,1.15741 -1.15741,1.15741z" fill="#000000" stroke="#000000" stroke-width="0"/><path d="M239.17964,146.51056c-0.63922,0 -1.1574,-0.51819 -1.1574,-1.15741c0,-0.63922 0.51818,-1.15741 1.1574,-1.15741c0.63922,0 1.15741,0.51819 1.15741,1.15741c0,0.63922 -0.51819,1.15741 -1.15741,1.15741z" fill="#000000" stroke="#000000" stroke-width="0"/></g><g stroke-linecap="butt"><path d="M242.01158,109.00249c0,2.17335 -1.75148,3.93518 -3.91204,3.93518c-2.16056,0 -3.91204,-1.76184 -3.91204,-3.93518c0,-2.17335 1.75148,-3.93518 3.91204,-3.93518c2.16056,0 3.91204,1.76184 3.91204,3.93518z" fill="#c9cce9" stroke="#b1b5cd" stroke-width="1"/><path d="M236.96529,111.27103c-0.63922,0 -1.15741,-0.51819 -1.15741,-1.15741c0,-0.63922 0.51819,-1.15741 1.15741,-1.15741c0.63922,0 1.1574,0.51819 1.1574,1.15741c0,0.63922 -0.51818,1.15741 -1.1574,1.15741z" fill="#000000" stroke="#000000" stroke-width="0"/><path d="M239.23381,111.27103c-0.63922,0 -1.1574,-0.51819 -1.1574,-1.15741c0,-0.63922 0.51818,-1.15741 1.1574,-1.15741c0.63922,0 1.15741,0.51819 1.15741,1.15741c0,0.63922 -0.51819,1.15741 -1.15741,1.15741z" fill="#000000" stroke="#000000" stroke-width="0"/><path d="M237.01158,109.14141c-0.63922,0 -1.1574,-0.51819 -1.1574,-1.15741c0,-0.63922 0.51818,-1.1574 1.1574,-1.1574c0.63922,0 1.15741,0.51818 1.15741,1.1574c0,0.63922 -0.51819,1.15741 -1.15741,1.15741z" fill="#000000" stroke="#000000" stroke-width="0"/><path d="M239.23381,109.09508c-0.63922,0 -1.1574,-0.51819 -1.1574,-1.15741c0,-0.63922 0.51818,-1.15741 1.1574,-1.15741c0.63922,0 1.15741,0.51819 1.15741,1.15741c0,0.63922 -0.51819,1.15741 -1.15741,1.15741z" fill="#000000" stroke="#000000" stroke-width="0"/></g><g stroke-linecap="butt"><path d="M241.84412,254.05506c0,2.17334 -1.75148,3.93519 -3.91204,3.93519c-2.16056,0 -3.91204,-1.76184 -3.91204,-3.93519c0,-2.17334 1.75148,-3.93519 3.91204,-3.93519c2.16056,0 3.91204,1.76184 3.91204,3.93519z" fill="#c9cce9" stroke="#b1b5cd" stroke-width="1"/><path d="M236.79782,256.32358c-0.63922,0 -1.15741,-0.51819 -1.15741,-1.15741c0,-0.63922 0.51819,-1.15741 1.15741,-1.15741c0.63922,0 1.15741,0.51819 1.15741,1.15741c0,0.63922 -0.51819,1.15741 -1.15741,1.15741z" fill="#000000" stroke="#000000" stroke-width="0"/><path d="M239.06633,256.32358c-0.63922,0 -1.1574,-0.51819 -1.1574,-1.15741c0,-0.63922 0.51818,-1.1574 1.1574,-1.1574c0.63922,0 1.15741,0.51818 1.15741,1.1574c0,0.63922 -0.51819,1.15741 -1.15741,1.15741z" fill="#000000" stroke="#000000" stroke-width="0"/><path d="M236.84412,254.19395c-0.63922,0 -1.1574,-0.51819 -1.1574,-1.15741c0,-0.63922 0.51818,-1.15741 1.1574,-1.15741c0.63922,0 1.15741,0.51819 1.15741,1.15741c0,0.63922 -0.51819,1.15741 -1.15741,1.15741z" fill="#000000" stroke="#000000" stroke-width="0"/><path d="M239.06633,254.14766c-0.63922,0 -1.1574,-0.51819 -1.1574,-1.15741c0,-0.63922 0.51818,-1.15741 1.1574,-1.15741c0.63922,0 1.15741,0.51819 1.15741,1.15741c0,0.63922 -0.51819,1.15741 -1.15741,1.15741z" fill="#000000" stroke="#000000" stroke-width="0"/></g><path d="M240.5096,289.59357c0,0 -2.14204,1.5513 -3.94197,4.75106c-2.34521,4.16911 -4.63287,10.43909 -6.18611,12.60099c-2.09938,2.92206 -4.93218,3.60986 -4.93218,3.60986l-61.55986,0.88309c0,0 1.50844,-13.82239 4.93538,-29.51126c2.13645,-9.78089 5.00042,-16.35425 7.17584,-25.07697c2.57288,-10.31641 4.00663,-16.23431 4.11293,-22.81059c0.03693,-2.28411 -5.91113,-23.23713 -7.57423,-31.92617c-3.25426,-11.82469 -0.41598,-48.44938 -5.78937,-72.33813c-4.33551,-19.27462 -12.66422,-48.31854 -14.05188,-53.56586c-0.00909,-0.03435 -11.75289,26.69252 -18.06206,52.66918c-7.21688,29.71397 -6.68504,65.15905 -6.68504,65.15905l43.18136,-2.85166" fill="none" stroke="#aaadc9" stroke-width="1" stroke-linecap="round"/><path d="M244.56648,105.92785c0.03067,5.74607 0.03019,12.0059 -0.02166,18.6072c-0.12541,15.96828 -1.44296,34.06208 -1.35472,51.43112c0.13908,27.37779 0.71535,53.46924 0.50704,68.03491c-0.24184,16.91056 -3.19986,45.77115 -3.19986,45.77115" fill="none" stroke="#aaadc9" stroke-width="1" stroke-linecap="round"/><path d="M308.81947,190.86767l43.18136,2.85166c0,0 0.87431,-35.44508 -6.34257,-65.15905c-8.43246,-34.26433 -18.39544,-52.70353 -18.40453,-52.66918c-1.38766,5.24732 -9.71637,34.29124 -14.05188,53.56586c-5.37339,23.88875 -2.53511,60.51344 -5.78937,72.33813c-1.6631,8.68904 -7.61116,29.64206 -7.57423,31.92617c0.1063,6.57628 1.54005,12.49418 4.11293,22.81059c2.17542,8.72272 5.03939,15.29608 7.17584,25.07697c3.42694,15.68887 4.93538,29.51126 4.93538,29.51126l-61.55986,-0.88309c0,0 -2.8328,-0.6878 -4.93218,-3.60986c-1.55324,-2.1619 -3.8409,-8.43188 -6.18611,-12.60099c-1.13375,-2.01548 -2.40323,-3.37693 -3.18764,-4.10862" data-paper-data="{&quot;index&quot;:null}" fill="none" stroke="#aaadc9" stroke-width="1" stroke-linecap="round"/><g fill="none" stroke="#aaadc9" stroke-width="1" stroke-linecap="round"><path d="M152.82146,76.1796c0,0 43.73623,-10.31348 49.03079,-11.56199"/><path d="M155.153,84.0466c0,0 31.00128,-7.32154 40.46819,-9.55733"/></g><g fill="none" stroke="#aaadc9" stroke-width="1" stroke-linecap="round"><path d="M276.95422,64.38037c4.31009,0.96873 50.26494,11.38201 50.26494,11.38201" data-paper-data="{&quot;index&quot;:null}"/><path d="M283.024,74.11603c9.49926,2.11391 42.17594,9.43057 42.17594,9.43057" data-paper-data="{&quot;index&quot;:null}"/></g><g fill="none" stroke="#aaadc9" stroke-width="1" stroke-linecap="round"><path d="M215.85969,86.6625l-27.46832,1.40437c0,0 7.94817,-15.14961 12.23,-21.71122c4.21697,-6.46221 13.26936,-17.36478 13.26936,-17.36478l2.56117,44.97708c0,0 12.00754,3.37838 17.02094,5.6602c3.84969,1.75217 9.65297,5.2249 11.01496,5.91801c0.25462,0.12958 -0.19309,-0.55465 -0.19309,-0.55465c0,0 -10.25684,-15.89539 -14.94579,-24.75194c-5.31099,-10.03146 -15.08258,-31.67814 -15.08258,-31.67814"/><path d="M264.99852,49.1625c0,0 0.00744,-0.78955 -0.21887,-0.05264c-1.21128,3.94416 -7.35862,21.31959 -10.61754,28.97404c-3.86043,9.06728 -11.65985,23.93749 -11.65985,23.93749c0,0 0.05935,0.72536 0.73536,0.89792c1.80476,0.4607 6.36736,-0.16286 11.38836,-2.24211c8.39589,-3.47682 8.17319,-6.61995 8.17319,-6.61995l2.20403,-45.06637c0,0 9.05239,10.90257 13.26935,17.36478c4.28183,6.56161 12.23,21.71122 12.23,21.71122l-27.25824,-1.44638" data-paper-data="{&quot;index&quot;:null}"/></g></g></g></g></svg>