<svg version="1.1" xmlns="http://www.w3.org/2000/svg" xmlns:xlink="http://www.w3.org/1999/xlink" width="226.39669" height="263.97877" viewBox="0,0,226.39669,263.97877"><g transform="translate(-127.32769,-21.0236)"><g data-paper-data="{&quot;isPaintingLayer&quot;:true}" fill-rule="nonzero" stroke-linejoin="miter" stroke-miterlimit="10" stroke-dasharray="" stroke-dashoffset="0" style="mix-blend-mode: normal"><path d="M309.63374,282.85831c0,0 -31.66421,1.37373 -52.15677,1.37373c-5.38691,0 -31.89925,3.74628 -44.39308,-5.28418c-7.618,-5.50624 -4.3702,-25.60472 -4.3702,-25.60472l-27.44444,-205.40097c0,0 14.86657,-7.22222 30.54106,-7.22222c12.03766,0 26.58186,3.50298 26.58186,3.50298c0,0 9.55837,-0.03792 13.22039,-3.12196c4.82558,-4.06395 13.21782,-19.14345 13.21782,-19.14345c0,0 5.88872,6.57559 8.0954,9.45915c1.69861,2.21964 4.34742,6.37764 4.34742,6.37764l51.08786,11.5923c0,0 11.72594,25.64361 18.93465,56.47342c5.33399,22.03994 6.38447,61.51735 6.38447,61.51735l-43.14508,-2.04885c0,0 -3.04211,16.91295 -4.27017,32.52641c-1.22806,15.61346 -2.90205,22.29318 -1.0974,31.52173c0.74789,3.82454 4.46623,53.48164 4.46623,53.48164z" data-paper-data="{&quot;index&quot;:null}" fill="#c9cce9" stroke="none" stroke-width="0" stroke-linecap="butt"/><path d="M176.11525,229.37667c1.80465,-9.22855 0.13066,-15.90827 -1.0974,-31.52173c-1.22806,-15.61346 -4.27017,-32.52641 -4.27017,-32.52641l-43.14508,2.04885c0,0 1.21715,-41.14407 5.88447,-62.35068c7.04204,-31.99648 18.76798,-55.64009 18.76798,-55.64009l51.1302,-11.25139c0,0 3.21786,-5.33613 5.21809,-7.93032c2.09487,-2.71694 7.08034,-8.0201 7.08034,-8.0201c0,0 9.10424,14.8558 13.27673,18.89962c2.43184,2.35685 9.49437,3.16926 9.49437,3.16926l61.55873,3.68849l-27.44444,205.40097c0,0 -2.95769,17.03257 -14.85175,25.19787c-10.51847,7.22096 -29.84188,5.69103 -33.91153,5.69103c-20.49256,0 -52.15677,-1.37373 -52.15677,-1.37373c0,0 3.71834,-49.6571 4.46623,-53.48164z" fill="#c9cce9" stroke="none" stroke-width="0" stroke-linecap="butt"/><path d="M304.16103,216.37467c0.47689,-13.7279 3.27617,-32.05542 4.92078,-40.79403c2.26831,-12.05272 6.91067,-48.85995 10.33482,-70.58813c3.42415,-21.72818 7.66422,-50.06854 9.05188,-55.31586c0.00909,-0.03435 11.75289,26.69252 18.06206,52.66918c7.21688,29.71397 6.68504,65.15905 6.68504,65.15905l-42.43509,-1.61683" fill="none" stroke="#aaadc9" stroke-width="1" stroke-linecap="round"/><path d="M170.27156,165.72139l-42.43509,1.61683c0,0 -0.53184,-35.44508 6.68504,-65.15905c6.30917,-25.97666 18.05297,-52.70353 18.06206,-52.66918c1.38766,5.24732 5.62773,33.58768 9.05188,55.31586c3.42415,21.72818 8.06651,58.53541 10.33482,70.58813c1.64461,8.73861 4.44389,27.06613 4.92078,40.79403" fill="none" stroke="#aaadc9" stroke-width="1" stroke-linecap="round"/><path d="M237.05144,219.30148c-0.20831,-14.56567 -2.70001,-134.68992 -2.6666,-140.5718" data-paper-data="{&quot;index&quot;:null}" fill="none" stroke="#aaadc9" stroke-width="1" stroke-linecap="round"/><g data-paper-data="{&quot;index&quot;:null}" stroke-linecap="butt"><path d="M242.53751,185.41337c2.16056,0 3.91204,1.76185 3.91204,3.93519c0,2.17335 -1.75148,3.93519 -3.91204,3.93519c-2.16056,0 -3.91204,-1.76185 -3.91204,-3.93519c0,-2.17335 1.75148,-3.93519 3.91204,-3.93519z" fill="#c9cce9" stroke="#b1b5cd" stroke-width="1"/><path d="M242.51436,190.45969c0,-0.63922 0.51819,-1.15741 1.15741,-1.15741c0.63922,0 1.15741,0.51819 1.15741,1.15741c0,0.63922 -0.51819,1.15741 -1.15741,1.15741c-0.63922,0 -1.15741,-0.51819 -1.15741,-1.15741z" fill="#000000" stroke="#000000" stroke-width="0"/><path d="M240.24584,190.45969c0,-0.63922 0.51819,-1.1574 1.15741,-1.1574c0.63922,0 1.1574,0.51818 1.1574,1.1574c0,0.63922 -0.51818,1.15741 -1.1574,1.15741c-0.63922,0 -1.15741,-0.51819 -1.15741,-1.15741z" fill="#000000" stroke="#000000" stroke-width="0"/><path d="M242.46806,188.33003c0,-0.63922 0.51819,-1.15741 1.15741,-1.15741c0.63922,0 1.1574,0.51819 1.1574,1.15741c0,0.63922 -0.51818,1.15741 -1.1574,1.15741c-0.63922,0 -1.15741,-0.51819 -1.15741,-1.15741z" fill="#000000" stroke="#000000" stroke-width="0"/><path d="M240.24584,188.28374c0,-0.63922 0.51819,-1.15741 1.15741,-1.15741c0.63922,0 1.1574,0.51819 1.1574,1.15741c0,0.63922 -0.51818,1.15741 -1.1574,1.15741c-0.63922,0 -1.15741,-0.51819 -1.15741,-1.15741z" fill="#000000" stroke="#000000" stroke-width="0"/></g><g data-paper-data="{&quot;index&quot;:null}" stroke-linecap="butt"><path d="M242.04983,150.70104c2.16056,0 3.91204,1.76183 3.91204,3.93518c0,2.17334 -1.75148,3.93518 -3.91204,3.93518c-2.16056,0 -3.91204,-1.76183 -3.91204,-3.93518c0,-2.17334 1.75148,-3.93518 3.91204,-3.93518z" fill="#c9cce9" stroke="#b1b5cd" stroke-width="1"/><path d="M242.02668,155.74734c0,-0.63922 0.51818,-1.15741 1.1574,-1.15741c0.63922,0 1.15741,0.51819 1.15741,1.15741c0,0.63922 -0.51819,1.15741 -1.15741,1.15741c-0.63922,0 -1.1574,-0.51819 -1.1574,-1.15741z" fill="#000000" stroke="#000000" stroke-width="0"/><path d="M239.75816,155.74732c0,-0.63922 0.51819,-1.15741 1.15741,-1.15741c0.63922,0 1.1574,0.51819 1.1574,1.15741c0,0.63922 -0.51818,1.15741 -1.1574,1.15741c-0.63922,0 -1.15741,-0.51819 -1.15741,-1.15741z" fill="#000000" stroke="#000000" stroke-width="0"/><path d="M241.98038,153.6177c0,-0.63922 0.51819,-1.1574 1.15741,-1.1574c0.63922,0 1.1574,0.51818 1.1574,1.1574c0,0.63922 -0.51818,1.15741 -1.1574,1.15741c-0.63922,0 -1.15741,-0.51819 -1.15741,-1.15741z" fill="#000000" stroke="#000000" stroke-width="0"/><path d="M239.75816,153.57141c0,-0.63922 0.51819,-1.15741 1.15741,-1.15741c0.63922,0 1.1574,0.51819 1.1574,1.15741c0,0.63922 -0.51818,1.15741 -1.1574,1.15741c-0.63922,0 -1.15741,-0.51819 -1.15741,-1.15741z" fill="#000000" stroke="#000000" stroke-width="0"/></g><g data-paper-data="{&quot;index&quot;:null}" stroke-linecap="butt"><path d="M241.3032,115.78318c2.16056,0 3.91204,1.76183 3.91204,3.93518c0,2.17335 -1.75148,3.93519 -3.91204,3.93519c-2.16056,0 -3.91204,-1.76185 -3.91204,-3.93519c0,-2.17334 1.75148,-3.93518 3.91204,-3.93518z" fill="#c9cce9" stroke="#b1b5cd" stroke-width="1"/><path d="M241.28005,120.82947c0,-0.63922 0.51818,-1.15741 1.1574,-1.15741c0.63922,0 1.15741,0.51819 1.15741,1.15741c0,0.63922 -0.51819,1.1574 -1.15741,1.1574c-0.63922,0 -1.1574,-0.51819 -1.1574,-1.1574z" fill="#000000" stroke="#000000" stroke-width="0"/><path d="M239.01152,120.82948c0,-0.63922 0.51819,-1.15741 1.15741,-1.15741c0.63922,0 1.1574,0.51819 1.1574,1.15741c0,0.63922 -0.51818,1.15741 -1.1574,1.15741c-0.63922,0 -1.15741,-0.51819 -1.15741,-1.15741z" fill="#000000" stroke="#000000" stroke-width="0"/><path d="M241.23375,118.69984c0,-0.63922 0.51819,-1.1574 1.15741,-1.1574c0.63922,0 1.1574,0.51818 1.1574,1.1574c0,0.63922 -0.51818,1.15741 -1.1574,1.15741c-0.63922,0 -1.15741,-0.51819 -1.15741,-1.15741z" fill="#000000" stroke="#000000" stroke-width="0"/><path d="M239.01152,118.65355c0,-0.63922 0.51819,-1.15741 1.15741,-1.15741c0.63922,0 1.1574,0.51819 1.1574,1.15741c0,0.63922 -0.51818,1.15741 -1.1574,1.15741c-0.63922,0 -1.15741,-0.51819 -1.15741,-1.15741z" fill="#000000" stroke="#000000" stroke-width="0"/></g><g data-paper-data="{&quot;index&quot;:null}" stroke-linecap="butt"><path d="M240.64903,78.5677c2.16056,0 3.91204,1.76183 3.91204,3.93518c0,2.17334 -1.75148,3.93518 -3.91204,3.93518c-2.16056,0 -3.91204,-1.76183 -3.91204,-3.93518c0,-2.17334 1.75148,-3.93518 3.91204,-3.93518z" fill="#c9cce9" stroke="#b1b5cd" stroke-width="1"/><path d="M240.62588,83.61402c0,-0.63922 0.51818,-1.15741 1.1574,-1.15741c0.63922,0 1.15741,0.51819 1.15741,1.15741c0,0.63922 -0.51819,1.15741 -1.15741,1.15741c-0.63922,0 -1.1574,-0.51819 -1.1574,-1.15741z" fill="#000000" stroke="#000000" stroke-width="0"/><path d="M238.35735,83.61402c0,-0.63922 0.51819,-1.15741 1.15741,-1.15741c0.63922,0 1.1574,0.51819 1.1574,1.15741c0,0.63922 -0.51818,1.15741 -1.1574,1.15741c-0.63922,0 -1.15741,-0.51819 -1.15741,-1.15741z" fill="#000000" stroke="#000000" stroke-width="0"/><path d="M240.57958,81.4844c0,-0.63922 0.51819,-1.1574 1.15741,-1.1574c0.63922,0 1.1574,0.51818 1.1574,1.1574c0,0.63922 -0.51818,1.15741 -1.1574,1.15741c-0.63922,0 -1.15741,-0.51819 -1.15741,-1.15741z" fill="#000000" stroke="#000000" stroke-width="0"/><path d="M238.35735,81.43806c0,-0.63922 0.51819,-1.15741 1.15741,-1.15741c0.63922,0 1.1574,0.51819 1.1574,1.15741c0,0.63922 -0.51818,1.15741 -1.1574,1.15741c-0.63922,0 -1.15741,-0.51819 -1.15741,-1.15741z" fill="#000000" stroke="#000000" stroke-width="0"/></g><g><path d="M240.5545,218.17852l-14.13863,-12.55333l8.23139,-140.16685l-5.58427,-5.67316l9.95952,-16.18258l1.45439,0.04401l0.1552,2.21197l-0.07428,11.71541c0,0 2.58221,23.83741 2.5819,38.85918c-0.0006,28.84311 -2.58522,121.74535 -2.58522,121.74535z" fill="#0d1c55" stroke="none" stroke-width="0" stroke-linecap="butt"/><path d="M240.52098,57.50637l-0.07428,-11.71541l-0.61002,-2.11632l2.41091,-0.13967l9.76822,16.18258l-5.58427,5.67316l8.23139,140.50019l-14.13863,12.21999c0,0 -1.05335,-56.60243 -1.05392,-84.03426c-0.00054,-26.02938 1.0506,-76.57027 1.0506,-76.57027z" data-paper-data="{&quot;index&quot;:null}" fill="#0d1c55" stroke="none" stroke-width="0" stroke-linecap="butt"/><path d="M230.5657,134.28442h20" fill="none" stroke="#aaadc9" stroke-width="2" stroke-linecap="round"/><path d="M239.19227,135.68108v-3.36504h3.76093v3.36504c0,0 -0.57615,0.90488 -1.86632,0.90488c-1.31845,0 -1.8946,-0.90488 -1.8946,-0.90488z" fill="#aaadc9" stroke="none" stroke-width="0" stroke-linecap="butt"/></g><g data-paper-data="{&quot;index&quot;:null}" fill="none" stroke="#aaadc9" stroke-width="1"><path d="M242.5075,43.95487c0,0 6.33128,-0.14177 9.98396,-3.72384c3.92999,-3.85402 12.60114,-18.36458 12.60114,-18.36458c0,0 5.67959,6.40944 7.76305,9.12177c2.0454,2.66279 4.71654,6.73361 4.71654,6.73361l-18.26348,33.00439z" stroke-linecap="butt"/><path d="M277.46682,37.8348l50.86253,11.68261" stroke-linecap="round"/><path d="M273.70294,45.3453l52.70996,12.35043" stroke-linecap="round"/></g><g fill="none" stroke="#aaadc9" stroke-width="1"><path d="M221.52814,70.72622l-18.26348,-33.00439c0,0 2.67114,-4.07082 4.71654,-6.73361c2.08346,-2.71233 7.76305,-9.12177 7.76305,-9.12177c0,0 8.67115,14.51056 12.60114,18.36458c3.65268,3.58207 9.98396,3.72384 9.98396,3.72384z" stroke-linecap="butt"/><path d="M152.66926,49.5052l50.70077,-11.6704" stroke-linecap="round"/><path d="M154.83904,57.69573l52.29487,-12.35043" stroke-linecap="round"/></g><g fill="none" stroke="#aaadc9" stroke-width="1"><path d="M174.92335,163.2469v-57.08604h43.81035v57.48604l-5.96301,4.72086h-31.7z" stroke-linecap="butt"/><path d="M190.09577,122.86087l-0.37931,45.31724" stroke-linecap="round"/><path d="M205.07853,168.17811l0.37931,-45.32759" stroke-linecap="round"/><path d="M218.56473,118.06087l-5.79347,4.82716l-31.70028,-0.06447l-5.94763,-4.57304" stroke-linecap="round"/></g><g fill="none" stroke="#aaadc9" stroke-width="1"><path d="M259.92335,163.2469v-57.08604h43.81035v57.48604l-5.96301,4.72086h-31.7z" stroke-linecap="butt"/><path d="M275.09577,122.86087l-0.37931,45.31724" stroke-linecap="round"/><path d="M290.07853,168.17811l0.37931,-45.32759" stroke-linecap="round"/><path d="M303.56473,118.06087l-5.79347,4.82716l-31.70028,-0.06447l-5.94763,-4.57304" stroke-linecap="round"/></g><g data-paper-data="{&quot;index&quot;:null}" stroke-linecap="butt"><path d="M197.54984,113.20104c2.16056,0 3.91204,1.76183 3.91204,3.93518c0,2.17334 -1.75148,3.93518 -3.91204,3.93518c-2.16056,0 -3.91204,-1.76183 -3.91204,-3.93518c0,-2.17334 1.75148,-3.93518 3.91204,-3.93518z" fill="#c9cce9" stroke="#b1b5cd" stroke-width="1"/><path d="M197.52669,118.24734c0,-0.63922 0.51818,-1.15741 1.1574,-1.15741c0.63922,0 1.15741,0.51819 1.15741,1.15741c0,0.63922 -0.51819,1.15741 -1.15741,1.15741c-0.63922,0 -1.1574,-0.51819 -1.1574,-1.15741z" fill="#000000" stroke="#000000" stroke-width="0"/><path d="M195.25817,118.24732c0,-0.63922 0.51819,-1.15741 1.15741,-1.15741c0.63922,0 1.1574,0.51819 1.1574,1.15741c0,0.63922 -0.51818,1.15741 -1.1574,1.15741c-0.63922,0 -1.15741,-0.51819 -1.15741,-1.15741z" fill="#000000" stroke="#000000" stroke-width="0"/><path d="M197.48039,116.1177c0,-0.63922 0.51819,-1.1574 1.15741,-1.1574c0.63922,0 1.1574,0.51818 1.1574,1.1574c0,0.63922 -0.51818,1.15741 -1.1574,1.15741c-0.63922,0 -1.15741,-0.51819 -1.15741,-1.15741z" fill="#000000" stroke="#000000" stroke-width="0"/><path d="M195.25817,116.07141c0,-0.63922 0.51819,-1.15741 1.15741,-1.15741c0.63922,0 1.1574,0.51819 1.1574,1.15741c0,0.63922 -0.51818,1.15741 -1.1574,1.15741c-0.63922,0 -1.15741,-0.51819 -1.15741,-1.15741z" fill="#000000" stroke="#000000" stroke-width="0"/></g><g data-paper-data="{&quot;index&quot;:null}" stroke-linecap="butt"><path d="M283.04983,113.45104c2.16056,0 3.91204,1.76183 3.91204,3.93518c0,2.17334 -1.75148,3.93518 -3.91204,3.93518c-2.16056,0 -3.91204,-1.76183 -3.91204,-3.93518c0,-2.17334 1.75148,-3.93518 3.91204,-3.93518z" fill="#c9cce9" stroke="#b1b5cd" stroke-width="1"/><path d="M283.02669,118.49734c0,-0.63922 0.51818,-1.15741 1.1574,-1.15741c0.63922,0 1.15741,0.51819 1.15741,1.15741c0,0.63922 -0.51819,1.15741 -1.15741,1.15741c-0.63922,0 -1.1574,-0.51819 -1.1574,-1.15741z" fill="#000000" stroke="#000000" stroke-width="0"/><path d="M280.75817,118.49732c0,-0.63922 0.51819,-1.15741 1.15741,-1.15741c0.63922,0 1.1574,0.51819 1.1574,1.15741c0,0.63922 -0.51818,1.15741 -1.1574,1.15741c-0.63922,0 -1.15741,-0.51819 -1.15741,-1.15741z" fill="#000000" stroke="#000000" stroke-width="0"/><path d="M282.98039,116.3677c0,-0.63922 0.51819,-1.1574 1.15741,-1.1574c0.63922,0 1.1574,0.51818 1.1574,1.1574c0,0.63922 -0.51818,1.15741 -1.1574,1.15741c-0.63922,0 -1.15741,-0.51819 -1.15741,-1.15741z" fill="#000000" stroke="#000000" stroke-width="0"/><path d="M280.75817,116.32141c0,-0.63922 0.51819,-1.15741 1.15741,-1.15741c0.63922,0 1.1574,0.51819 1.1574,1.15741c0,0.63922 -0.51818,1.15741 -1.1574,1.15741c-0.63922,0 -1.15741,-0.51819 -1.15741,-1.15741z" fill="#000000" stroke="#000000" stroke-width="0"/></g></g></g></svg>