<svg version="1.1" xmlns="http://www.w3.org/2000/svg" xmlns:xlink="http://www.w3.org/1999/xlink" width="159.5842" height="190.26369" viewBox="0,0,159.5842,190.26369"><defs><linearGradient x1="240.04575" y1="86.87865" x2="240.04575" y2="103.81926" gradientUnits="userSpaceOnUse" id="color-1"><stop offset="0" stop-color="#0d1c55"/><stop offset="1" stop-color="#0a1644"/></linearGradient><linearGradient x1="230.17545" y1="97.11522" x2="232.38685" y2="97.2255" gradientUnits="userSpaceOnUse" id="color-2"><stop offset="0" stop-color="#d1d2d3"/><stop offset="1" stop-color="#a4a5a8"/></linearGradient><linearGradient x1="239.03981" y1="97.52787" x2="243.99818" y2="97.77515" gradientUnits="userSpaceOnUse" id="color-3"><stop offset="0" stop-color="#a4a5a8"/><stop offset="1" stop-color="#d1d2d3"/></linearGradient><linearGradient x1="224.83014" y1="96.79539" x2="241.88141" y2="97.64574" gradientUnits="userSpaceOnUse" id="color-4"><stop offset="0" stop-color="#d1d2d3"/><stop offset="1" stop-color="#a4a5a8"/></linearGradient></defs><g transform="translate(-160.2079,-84.86815)"><g data-paper-data="{&quot;isPaintingLayer&quot;:true}" fill-rule="nonzero" stroke-linecap="butt" stroke-linejoin="miter" stroke-miterlimit="10" stroke-dasharray="" stroke-dashoffset="0" style="mix-blend-mode: normal"><g><path d="M211.70055,274.6242l18.44002,-70.92345l-36.2963,-109.20498c0,0 27.16142,-6.19231 42.57542,-6.02202c19.54654,0.21595 64.33069,-3.60559 64.33069,-3.60559c0,0 -0.55911,5.96768 2.79632,21.35436c1.30294,5.97476 4.68283,13.20213 7.07868,22.30203c5.65894,21.49371 8.41223,50.51976 8.96621,62.67784c0.57459,12.61051 -0.26839,30.55391 -0.26839,30.55391l-5.6845,53.37555z" data-paper-data="{&quot;index&quot;:null}" fill="#0d1c55" stroke="none" stroke-width="0"/><g><g stroke="none"><g fill="#0d1c55" stroke-width="0"><path d="M160.6768,221.7563c0,0 -0.84298,-17.9434 -0.26839,-30.55391c0.55398,-12.15808 3.30727,-41.18413 8.96621,-62.67784c2.39585,-9.0999 5.77574,-16.32727 7.07868,-22.30203c3.35543,-15.38668 2.79632,-21.35436 2.79632,-21.35436c0,0 44.78415,3.82154 64.33069,3.60559c15.414,-0.17029 42.57542,6.02202 42.57542,6.02202l-36.2963,109.20498l22.07995,70.98152l-105.64087,0.17672z"/></g><g data-paper-data="{&quot;index&quot;:null}" fill="none" stroke-width="1" font-family="sans-serif" font-weight="normal" font-size="12" text-anchor="start"/></g><path d="M177.73093,100.02681l1.57407,-13.14815c0,0 44.72972,4.04762 63.79,4.07086c17.45829,0.02129 57.50629,-3.70049 57.50629,-3.70049l1.75926,12.59259c0,0 -44.84391,4.03673 -62.22858,3.97699c-19.19617,-0.06596 -62.40105,-3.7918 -62.40105,-3.7918z" fill="url(#color-1)" stroke="#091647" stroke-width="1"/><g stroke="none"><path d="M220.69362,103.40901l0.6741,-13.51704l5.48191,0.27339l-0.6741,13.51704z" fill="#bbbcbe" stroke-width="NaN"/><path d="M232.69247,91.09664l-0.61129,12.2575c-0.0467,0.93644 -0.14583,1.69512 -0.22107,1.69137l-1.93864,-0.09668c-0.07517,-0.00375 -0.09837,-0.76852 -0.05166,-1.70497l0.6113,-12.25784c0.0467,-0.93644 0.14587,-1.69511 0.22104,-1.69136l1.93864,0.09668c0.07524,0.00375 0.09837,0.76885 0.05168,1.70529z" fill="url(#color-2)" stroke-width="1"/><path d="M243.99818,97.77515c-0.15363,3.08074 -1.38816,5.52282 -2.75738,5.45454c-1.36922,-0.06828 -2.35464,-2.62108 -2.201,-5.70181c0.15363,-3.08074 1.38816,-5.52281 2.75737,-5.45453c1.36922,0.06828 2.35464,2.62107 2.20101,5.7018z" fill="url(#color-3)" stroke-width="0"/><path d="M242.16267,92.0022l-0.56288,11.28689c-0.043,0.86229 -0.54938,1.54019 -1.12955,1.51126l-14.94815,-0.74547c-0.57957,-0.0289 -1.01638,-0.75384 -0.97338,-1.61613l0.56289,-11.28719c0.043,-0.86229 0.54979,-1.54015 1.12935,-1.51125l14.94815,0.74547c0.58017,0.02893 1.01657,0.75414 0.97357,1.61643z" fill="url(#color-4)" stroke-width="1"/></g></g></g></g></g></svg>