<svg version="1.1" xmlns="http://www.w3.org/2000/svg" xmlns:xlink="http://www.w3.org/1999/xlink" width="148.14721" height="247.0752" viewBox="0,0,148.14721,247.0752"><defs><linearGradient x1="242.63025" y1="58.6315" x2="242.63025" y2="75.5721" gradientUnits="userSpaceOnUse" id="color-1"><stop offset="0" stop-color="#0d1c55"/><stop offset="1" stop-color="#0a1644"/></linearGradient><linearGradient x1="249.78486" y1="68.88446" x2="247.57268" y2="68.97809" gradientUnits="userSpaceOnUse" id="color-2"><stop offset="0" stop-color="#d1d2d3"/><stop offset="1" stop-color="#a4a5a8"/></linearGradient><linearGradient x1="240.91764" y1="69.23038" x2="235.95754" y2="69.44034" gradientUnits="userSpaceOnUse" id="color-3"><stop offset="0" stop-color="#a4a5a8"/><stop offset="1" stop-color="#d1d2d3"/></linearGradient><linearGradient x1="255.13241" y1="68.60487" x2="238.07523" y2="69.32686" gradientUnits="userSpaceOnUse" id="color-4"><stop offset="0" stop-color="#d1d2d3"/><stop offset="1" stop-color="#a4a5a8"/></linearGradient></defs><g transform="translate(-165.9264,-56.4624)"><g data-paper-data="{&quot;isPaintingLayer&quot;:true}" fill-rule="nonzero" stroke-linecap="butt" stroke-linejoin="miter" stroke-miterlimit="10" stroke-dasharray="" stroke-dashoffset="0" style="mix-blend-mode: normal"><g><path d="M312.50996,303.46839l-63.83995,0.06921l-4.07758,-110.56445l-4.35186,-21.44547l-10.01787,3.42592l-36.2963,-109.20498c0,0 27.16142,-6.19231 42.57542,-6.02202c19.54654,0.21595 67.7446,-3.2642 67.7446,-3.2642c0,0 0.14765,7.41041 1.12536,16.28811c1.13857,10.3383 3.48847,22.66757 4.68178,28.66174c4.0117,20.15124 3.36388,48.72694 3.91786,60.88502c0.57459,12.61051 -1.46146,141.17112 -1.46146,141.17112z" data-paper-data="{&quot;index&quot;:null}" fill="#0d1c55" stroke="none" stroke-width="0"/><g stroke="none"><g fill="#0d1c55" stroke-width="0"><path d="M166.02857,162.29727c0.55398,-12.15808 -0.09384,-40.73378 3.91786,-60.88502c1.19332,-5.99417 3.54321,-18.32344 4.68178,-28.66174c0.97771,-8.8777 1.12536,-16.28811 1.12536,-16.28811c0,0 48.19807,3.48015 67.74461,3.2642c15.414,-0.17029 42.57542,6.02202 42.57542,6.02202l-36.2963,109.20498l-10.01787,-3.42592l-4.35186,21.44547l-4.07758,110.56445l-63.83995,-0.06921c0,0 -2.03605,-128.56061 -1.46146,-141.17112z"/></g><g data-paper-data="{&quot;index&quot;:null}" fill="none" stroke-width="1" font-family="sans-serif" font-weight="normal" font-size="12" text-anchor="start"/></g><path d="M242.54403,75.57145c-17.38467,0.05974 -67.64525,-3.47699 -67.64525,-3.47699l0.92593,-12.67592c0,0 46.298,3.30511 63.75629,3.28382c19.06028,-0.02324 64.70667,-3.32086 64.70667,-3.32086l0.99074,12.73148c0,0 -43.5382,3.39251 -62.73437,3.45846z" data-paper-data="{&quot;index&quot;:null}" fill="url(#color-1)" stroke="#091647" stroke-width="1"/><g data-paper-data="{&quot;index&quot;:null}" stroke="none"><path d="M253.73524,75.48156l-0.57235,-13.52173l5.48381,-0.23212l0.57235,13.52173z" fill="#bbbcbe" stroke-width="NaN"/><path d="M247.31319,62.8471c-0.03964,-0.93676 -0.01075,-1.70167 0.06451,-1.70485l1.93931,-0.08209c0.0752,-0.00318 0.16865,0.75621 0.2083,1.69298l0.51903,12.26209c0.03966,0.93678 0.01071,1.70135 -0.06449,1.70453l-1.93931,0.08209c-0.07527,0.00318 -0.16868,-0.75622 -0.20833,-1.69299l-0.51902,-12.26175z" fill="url(#color-2)" stroke-width="1"/><path d="M238.20141,63.75527c1.36969,-0.05797 2.5858,2.39332 2.71624,5.47513c0.13045,3.0818 -0.87416,5.62711 -2.24385,5.68508c-1.3697,0.05797 -2.58581,-2.39333 -2.71625,-5.47514c-0.13044,-3.0818 0.87417,-5.6271 2.24386,-5.68507z" fill="url(#color-3)" stroke-width="0"/><path d="M237.83645,63.68138c-0.03651,-0.86259 0.40534,-1.58449 0.98571,-1.60906l14.95334,-0.63295c0.57976,-0.02454 1.08144,0.65712 1.11794,1.51971l0.47792,11.29111c0.03651,0.86259 -0.40574,1.58422 -0.98552,1.60876l-14.95334,0.63295c-0.58037,0.02456 -1.08163,-0.65713 -1.11814,-1.51972l-0.47792,-11.29081z" fill="url(#color-4)" stroke-width="1"/></g></g></g></g></svg>