<svg version="1.1" xmlns="http://www.w3.org/2000/svg" xmlns:xlink="http://www.w3.org/1999/xlink" width="90.45821" height="113.98718" viewBox="0,0,90.45821,113.98718"><g transform="translate(-194.77013,-122.96941)"><g data-paper-data="{&quot;isPaintingLayer&quot;:true}" fill-rule="nonzero" stroke="#000000" stroke-width="0.5" stroke-linejoin="miter" stroke-miterlimit="10" stroke-dasharray="" stroke-dashoffset="0" style="mix-blend-mode: normal"><path d="M213.94396,235.87732c0,0 1.11402,-29.79121 0.59301,-41.65524c-0.31998,-7.28626 -3.4218,-22.75929 -3.4218,-22.75929l-16.06793,-0.50184c0,0 1.51174,-14.20646 2.71129,-20.53621c1.04824,-5.53136 3.84051,-15.37108 3.84051,-15.37108l27.98909,-11.76025c0,0 5.28193,11.43411 10.52291,11.55658c5.2688,0.12312 10.39493,-11.53609 10.39493,-11.53609l27.93343,11.79639c0,0 2.92026,9.64508 3.88268,14.94336c1.16847,6.43265 2.63068,20.91379 2.63068,20.91379l-15.97646,0.54069c0,0 -3.18074,11.94835 -3.66107,24.90463c-0.56516,15.24463 0.61345,39.46458 0.61345,39.46458c0,0 -18.77411,0.86441 -27.90678,0.82815c-8.37386,-0.03324 -24.07794,-0.82816 -24.07794,-0.82816z" data-paper-data="{&quot;index&quot;:null}" fill="#191919" stroke-linecap="butt"/><path d="M201.58826,135.4084c0,0 4.11798,11.03567 5.83693,17.56133c1.43889,5.46249 3.78683,18.97332 3.78683,18.97332" fill="none" stroke-linecap="round"/><path d="M268.87539,171.86385c0,0 2.34793,-13.51083 3.78683,-18.97332c1.71895,-6.52566 5.83692,-17.56133 5.83692,-17.56133" data-paper-data="{&quot;index&quot;:null}" fill="none" stroke-linecap="round"/></g></g></svg>