<svg version="1.1" xmlns="http://www.w3.org/2000/svg" xmlns:xlink="http://www.w3.org/1999/xlink" width="91.3427" height="111.76499" viewBox="0,0,91.3427,111.76499"><g transform="translate(-194.32865,-119.72861)"><g data-paper-data="{&quot;isPaintingLayer&quot;:true}" fill-rule="nonzero" stroke-linejoin="miter" stroke-miterlimit="10" stroke-dasharray="" stroke-dashoffset="0" style="mix-blend-mode: normal"><path d="M209.69481,222.2918c1.5054,-6.28168 4.07422,-13.08628 4.28059,-19.10618c-0.19633,-4.01931 0.96485,-11.19477 0.04499,-17.20751c-0.37643,-2.46057 -1.27872,-5.31613 -1.27872,-5.31613l-17.82938,1.68332c0,0 -0.31743,-4.68954 -0.18334,-10.85955c0.09791,-4.50505 0.53597,-10.19712 1.02175,-13.45995c0.59744,-4.01288 1.85237,-10.10428 3.23657,-14.89209c1.37232,-4.74675 2.87656,-8.20733 2.87656,-8.20733l23.02041,-9.3691l4.0237,-5.1876c0,0 3.80259,8.44642 6.47997,13.31634c2.67738,4.86992 5.89548,9.72011 5.89548,9.72011c0,0 2.53799,-4.21069 3.78234,-7.08754c1.24436,-2.87685 6.04744,-15.87627 6.04744,-15.87627l4.1555,5.28077l23.02745,8.99039c0,0 1.83591,4.99641 3.46804,11.13953c1.14981,4.32772 2.12697,9.43911 2.6016,12.83842c0.49943,3.57688 0.8705,10.15865 0.89788,14.92355c0.03082,5.36414 -0.317,8.72936 -0.317,8.72936l-17.6889,-1.6859c0,0 -1.06585,3.1601 -1.35791,4.97527c-1.08961,6.7718 0.30022,13.11576 0.07229,17.54832c0.11826,5.77089 2.78135,12.94596 4.25081,19.18811c2.04593,8.69091 -28.86497,5.97788 -30.24752,5.98687c-1.80616,0.01175 -32.3343,2.5044 -30.2806,-6.06521z" fill="#ffffff" stroke="#aaadc9" stroke-width="0" stroke-linecap="butt"/><path d="M241.56991,144.05793c0.0004,0.3258 0.67418,1.09932 0.67439,1.42181c0.0018,2.74511 -0.00341,5.34143 -0.01805,7.29949c-0.05448,7.28525 -0.62682,15.54022 -0.58849,23.46454c0.06041,12.49063 0.31075,24.39439 0.22026,31.03972c-0.10505,7.71515 -1.84563,20.88228 -1.84563,20.88228" fill="none" stroke="#c9c9c9" stroke-width="0.5" stroke-linecap="round"/><path d="M239.89505,228.08425c0,0 -0.60505,0.70775 -1.38693,2.16759c-1.01875,1.90208 -30.9158,1.4926 -29.42716,-5.66517c0.92807,-4.46236 2.17216,-7.46134 3.11715,-11.44092c1.11765,-4.70668 1.74047,-7.40662 1.78664,-10.40693c0.01604,-1.04208 0.81081,-13.4301 0.08836,-17.39432c-1.41364,-5.39481 -3.55928,-19.2756 -5.89345,-30.17442c-1.88333,-8.79371 -5.72692,-17.92653 -6.32972,-20.32053c-0.00395,-0.01567 -2.37343,4.85751 -5.11411,16.7089c-3.13498,13.55648 -1.92927,30.98083 -1.92927,30.98083l18.09326,-1.84009" fill="none" stroke="#c9c9c9" stroke-width="0.5" stroke-linecap="round"/><path d="M267.10018,180.72025l18.09326,1.84008c0,0 1.20571,-17.42435 -1.92927,-30.98083c-2.74068,-11.85139 -5.11016,-16.72458 -5.1141,-16.70891c-0.6028,2.394 -4.44639,11.52683 -6.32972,20.32053c-2.33418,10.89882 -4.47981,24.77962 -5.89345,30.17443c-0.72245,3.96422 0.07232,16.35223 0.08836,17.39432c0.04618,3.00031 0.66899,5.70025 1.78664,10.40693c0.945,3.97958 2.18908,6.97857 3.11715,11.44092c1.48865,7.15777 -28.40841,7.56726 -29.42716,5.66517c-0.78188,-1.45983 -1.38693,-2.16759 -1.38693,-2.16759" data-paper-data="{&quot;index&quot;:null}" fill="none" stroke="#c9c9c9" stroke-width="0.5" stroke-linecap="round"/><g fill="none" stroke="#c9c9c9" stroke-width="0.5" stroke-linecap="round"><path d="M224.47056,125.75503l-22.56388,9.05355"/><path d="M220.57143,131.79615c-4.45181,1.79618 -17.15962,6.92341 -17.15962,6.92341"/></g><g data-paper-data="{&quot;index&quot;:null}" fill="none" stroke="#c9c9c9" stroke-width="0.5" stroke-linecap="round"><path d="M278.04547,134.84026l-22.56388,-9.05355"/><path d="M276.54035,138.75124c0,0 -12.92084,-5.21318 -17.36842,-7.00765"/></g><g fill="none" stroke="#c9c9c9" stroke-width="0.5" stroke-linecap="round"><path d="M229.6325,136.8673l-12.02684,0.61489c0,0 3.48005,-6.63317 5.35483,-9.50613c1.84637,-2.82944 5.97738,-7.60306 5.97738,-7.60306l0.95393,19.69295c0,0 5.25743,1.4792 7.45252,2.47828c1.68556,0.76717 4.2265,2.28769 4.82283,2.59116c0.11148,0.05674 -0.08454,-0.24285 -0.08454,-0.24285c0,0 -4.4909,-6.9597 -6.54393,-10.83749c-2.32539,-4.39221 -6.56195,-13.70263 -6.56195,-13.70263"/><path d="M250.96809,120.42509c-0.53035,1.72693 -3.1382,9.33466 -4.5651,12.68612c-1.69027,3.97006 -5.10519,10.48089 -5.10519,10.48089c0,0 0.02598,0.31759 0.32197,0.39315c0.7902,0.20171 2.78791,-0.07131 4.98633,-0.9817c3.67609,-1.52231 3.57858,-2.8985 3.57858,-2.8985l0.83942,-19.73205c0,0 4.08914,4.77363 5.93551,7.60307c1.87477,2.87296 5.35483,9.50613 5.35483,9.50613l-11.93486,-0.63329" data-paper-data="{&quot;index&quot;:null}"/></g><g stroke-linecap="butt"><g><path d="M241.0178,194.77255c0,0.99155 -0.76084,1.79536 -1.69938,1.79536c-0.93854,0 -1.69937,-0.8038 -1.69937,-1.79536c0,-0.99155 0.76083,-1.79536 1.69937,-1.79536c0.93854,0 1.69938,0.8038 1.69938,1.79536z" fill="#e8e8e8" stroke="#c9c9c9" stroke-width="0.5"/><path d="M238.8257,195.80753c-0.27767,0 -0.50278,-0.23641 -0.50278,-0.52805c0,-0.29164 0.2251,-0.52805 0.50278,-0.52805c0.27768,0 0.50277,0.23641 0.50277,0.52805c0,0.29164 -0.2251,0.52805 -0.50277,0.52805z" fill="#000000" stroke="#000000" stroke-width="0"/><path d="M239.81113,195.80753c-0.27767,0 -0.50277,-0.23641 -0.50277,-0.52805c0,-0.29164 0.2251,-0.52804 0.50277,-0.52804c0.27768,0 0.50277,0.2364 0.50277,0.52804c0,0.29164 -0.2251,0.52805 -0.50277,0.52805z" fill="#000000" stroke="#000000" stroke-width="0"/><path d="M238.84581,194.83591c-0.27768,0 -0.50277,-0.23641 -0.50277,-0.52805c0,-0.29164 0.2251,-0.52805 0.50277,-0.52805c0.27767,0 0.50278,0.23641 0.50278,0.52805c0,0.29164 -0.2251,0.52805 -0.50278,0.52805z" fill="#000000" stroke="#000000" stroke-width="0"/><path d="M239.81113,194.81479c-0.27767,0 -0.50277,-0.23641 -0.50277,-0.52804c0,-0.29164 0.2251,-0.52805 0.50277,-0.52805c0.27768,0 0.50277,0.23641 0.50277,0.52805c0,0.29164 -0.2251,0.52804 -0.50277,0.52804z" fill="#000000" stroke="#000000" stroke-width="0"/></g><g><path d="M240.79524,179.02691c0,0.99156 -0.76084,1.79536 -1.69938,1.79536c-0.93854,0 -1.69937,-0.8038 -1.69937,-1.79536c0,-0.99156 0.76083,-1.79536 1.69937,-1.79536c0.93854,0 1.69938,0.80381 1.69938,1.79536z" fill="#e8e8e8" stroke="#c9c9c9" stroke-width="0.5"/><path d="M238.60315,180.06189c-0.27768,0 -0.50278,-0.23642 -0.50278,-0.52805c0,-0.29163 0.2251,-0.52804 0.50278,-0.52804c0.27768,0 0.50277,0.23641 0.50277,0.52804c0,0.29163 -0.22509,0.52805 -0.50277,0.52805z" fill="#000000" stroke="#b1b5cd" stroke-width="0"/><path d="M239.58859,180.06188c-0.27768,0 -0.50277,-0.23642 -0.50277,-0.52805c0,-0.29163 0.2251,-0.52804 0.50277,-0.52804c0.27768,0 0.50277,0.23641 0.50277,0.52804c0,0.29163 -0.2251,0.52805 -0.50277,0.52805z" fill="#000000" stroke="#b1b5cd" stroke-width="0"/><path d="M238.62326,179.09028c-0.27768,0 -0.50277,-0.23641 -0.50277,-0.52805c0,-0.29163 0.2251,-0.52804 0.50277,-0.52804c0.27768,0 0.50278,0.23641 0.50278,0.52804c0,0.29163 -0.2251,0.52805 -0.50278,0.52805z" fill="#000000" stroke="#b1b5cd" stroke-width="0"/><path d="M239.58859,179.06916c-0.27768,0 -0.50277,-0.23641 -0.50277,-0.52805c0,-0.29163 0.2251,-0.52805 0.50277,-0.52805c0.27768,0 0.50277,0.23641 0.50277,0.52805c0,0.29163 -0.2251,0.52805 -0.50277,0.52805z" fill="#000000" stroke="#b1b5cd" stroke-width="0"/></g><g><path d="M241.20645,163.09625c0,0.99155 -0.76083,1.79536 -1.69937,1.79536c-0.93854,0 -1.69938,-0.8038 -1.69938,-1.79536c0,-0.99156 0.76084,-1.79536 1.69938,-1.79536c0.93854,0 1.69937,0.8038 1.69937,1.79536z" fill="#e8e8e8" stroke="#c9c9c9" stroke-width="0.5"/><path d="M239.01437,164.13123c-0.27768,0 -0.50278,-0.23641 -0.50278,-0.52805c0,-0.29163 0.2251,-0.52805 0.50278,-0.52805c0.27768,0 0.50277,0.23641 0.50277,0.52805c0,0.29163 -0.2251,0.52805 -0.50277,0.52805z" fill="#000000" stroke="#000000" stroke-width="0"/><path d="M239.9998,164.13123c-0.27768,0 -0.50277,-0.23642 -0.50277,-0.52805c0,-0.29163 0.2251,-0.52805 0.50277,-0.52805c0.27768,0 0.50278,0.23641 0.50278,0.52805c0,0.29163 -0.2251,0.52805 -0.50278,0.52805z" fill="#000000" stroke="#000000" stroke-width="0"/><path d="M239.03447,163.15962c-0.27768,0 -0.50277,-0.23641 -0.50277,-0.52805c0,-0.29163 0.2251,-0.52805 0.50277,-0.52805c0.27768,0 0.50277,0.23641 0.50277,0.52805c0,0.29163 -0.2251,0.52805 -0.50277,0.52805z" fill="#000000" stroke="#000000" stroke-width="0"/><path d="M239.9998,163.13851c-0.27768,0 -0.50277,-0.23641 -0.50277,-0.52805c0,-0.29163 0.2251,-0.52805 0.50277,-0.52805c0.27768,0 0.50278,0.23642 0.50278,0.52805c0,0.29163 -0.2251,0.52805 -0.50278,0.52805z" fill="#000000" stroke="#000000" stroke-width="0"/></g><g><path d="M241.46075,147.10304c0,0.99156 -0.76083,1.79536 -1.69937,1.79536c-0.93854,0 -1.69938,-0.8038 -1.69938,-1.79536c0,-0.99156 0.76084,-1.79536 1.69938,-1.79536c0.93854,0 1.69937,0.80381 1.69937,1.79536z" fill="#e8e8e8" stroke="#c9c9c9" stroke-width="0.5"/><path d="M239.26866,148.13801c-0.27768,0 -0.50278,-0.23641 -0.50278,-0.52805c0,-0.29163 0.2251,-0.52805 0.50278,-0.52805c0.27768,0 0.50277,0.23641 0.50277,0.52805c0,0.29163 -0.2251,0.52805 -0.50277,0.52805z" fill="#000000" stroke="#000000" stroke-width="0"/><path d="M240.25409,148.13801c-0.27768,0 -0.50277,-0.23641 -0.50277,-0.52805c0,-0.29163 0.2251,-0.52805 0.50277,-0.52805c0.27768,0 0.50278,0.23641 0.50278,0.52805c0,0.29163 -0.2251,0.52805 -0.50278,0.52805z" fill="#000000" stroke="#000000" stroke-width="0"/><path d="M239.28878,147.16641c-0.27768,0 -0.50277,-0.23641 -0.50277,-0.52805c0,-0.29163 0.2251,-0.52805 0.50277,-0.52805c0.27768,0 0.50278,0.23641 0.50278,0.52805c0,0.29163 -0.2251,0.52805 -0.50278,0.52805z" fill="#000000" stroke="#000000" stroke-width="0"/><path d="M240.25409,147.14527c-0.27768,0 -0.50277,-0.23641 -0.50277,-0.52804c0,-0.29163 0.2251,-0.52805 0.50277,-0.52805c0.27768,0 0.50278,0.23642 0.50278,0.52805c0,0.29163 -0.2251,0.52804 -0.50278,0.52804z" fill="#000000" stroke="#000000" stroke-width="0"/></g><g><path d="M240.85285,212.58838c0,0.99155 -0.76084,1.79536 -1.69938,1.79536c-0.93854,0 -1.69937,-0.80381 -1.69937,-1.79536c0,-0.99155 0.76083,-1.79536 1.69937,-1.79536c0.93854,0 1.69938,0.80381 1.69938,1.79536z" fill="#e8e8e8" stroke="#c9c9c9" stroke-width="0.5"/><path d="M238.66076,213.62336c-0.27768,0 -0.50278,-0.23641 -0.50278,-0.52805c0,-0.29164 0.2251,-0.52805 0.50278,-0.52805c0.27768,0 0.50277,0.23641 0.50277,0.52805c0,0.29164 -0.2251,0.52805 -0.50277,0.52805z" fill="#000000" stroke="#000000" stroke-width="0"/><path d="M239.64618,213.62336c-0.27768,0 -0.50277,-0.23641 -0.50277,-0.52805c0,-0.29164 0.2251,-0.52804 0.50277,-0.52804c0.27768,0 0.50277,0.2364 0.50277,0.52804c0,0.29164 -0.2251,0.52805 -0.50277,0.52805z" fill="#000000" stroke="#000000" stroke-width="0"/><path d="M238.68086,212.65176c-0.27768,0 -0.50277,-0.23641 -0.50277,-0.52805c0,-0.29164 0.2251,-0.52805 0.50277,-0.52805c0.27768,0 0.50278,0.23641 0.50278,0.52805c0,0.29164 -0.2251,0.52805 -0.50278,0.52805z" fill="#000000" stroke="#000000" stroke-width="0"/><path d="M239.64618,212.63064c-0.27768,0 -0.50277,-0.23641 -0.50277,-0.52805c0,-0.29164 0.2251,-0.52804 0.50277,-0.52804c0.27768,0 0.50277,0.23641 0.50277,0.52804c0,0.29164 -0.2251,0.52805 -0.50277,0.52805z" fill="#000000" stroke="#000000" stroke-width="0"/></g></g><text transform="translate(214.26764,130.26815) rotate(66.86271) scale(0.04357,0.04357)" font-size="40" xml:space="preserve" fill="#ffffff" fill-rule="nonzero" stroke="none" stroke-width="1" stroke-linecap="butt" stroke-linejoin="miter" stroke-miterlimit="10" stroke-dasharray="" stroke-dashoffset="0" font-family="Sans Serif" font-weight="normal" text-anchor="start" style="mix-blend-mode: normal"><tspan x="0" dy="0">CAP</tspan></text><text transform="translate(264.43138,133.28524) rotate(-65.24369) scale(0.04357,0.04357)" font-size="40" xml:space="preserve" data-paper-data="{&quot;index&quot;:null}" fill="#ffffff" fill-rule="nonzero" stroke="none" stroke-width="1" stroke-linecap="butt" stroke-linejoin="miter" stroke-miterlimit="10" stroke-dasharray="" stroke-dashoffset="0" font-family="Sans Serif" font-weight="normal" text-anchor="start" style="mix-blend-mode: normal"><tspan x="0" dy="0">CAP</tspan></text><path d="M215.22063,180.25809v-22.19374h17.03245v22.34925l-2.31828,1.83536h-12.32423z" fill="none" stroke="#c9c9c9" stroke-width="0.5" stroke-linecap="butt"/><path d="M232.18739,162.69081c0,0 -6.26798,1.86853 -8.30313,1.86438c-2.07229,-0.00421 -8.58588,-1.79065 -8.58588,-1.79065" fill="none" stroke="#c9c9c9" stroke-width="0.5" stroke-linecap="round"/><path d="M247.89971,180.25809v-22.19374h17.03245v22.34925l-2.31828,1.83536h-12.32423z" fill="none" stroke="#c9c9c9" stroke-width="0.5" stroke-linecap="butt"/><path d="M264.86646,162.69081c0,0 -6.16622,1.86874 -8.17965,1.86464c-1.74147,-0.00354 -8.70936,-1.7909 -8.70936,-1.7909" fill="none" stroke="#c9c9c9" stroke-width="0.5" stroke-linecap="round"/><path d="M224.01728,160.80141c0.83998,0 1.52091,0.68496 1.52091,1.52991c0,0.84495 -0.68093,1.52991 -1.52091,1.52991c-0.83998,0 -1.52091,-0.68496 -1.52091,-1.52991c0,-0.84495 0.68093,-1.52991 1.52091,-1.52991z" fill="#e8e8e8" stroke="#c9c9c9" stroke-width="0.5" stroke-linecap="butt"/><path d="M224.0083,162.7633c0,-0.24852 0.20145,-0.44998 0.44997,-0.44998c0.24852,0 0.44998,0.20146 0.44998,0.44998c0,0.24852 -0.20146,0.44997 -0.44998,0.44997c-0.24852,0 -0.44997,-0.20146 -0.44997,-0.44997z" fill="#000000" stroke="#000000" stroke-width="0" stroke-linecap="butt"/><path d="M223.12634,162.76329c0,-0.24852 0.20146,-0.44997 0.44998,-0.44997c0.24852,0 0.44997,0.20146 0.44997,0.44997c0,0.24852 -0.20145,0.44998 -0.44997,0.44998c-0.24852,0 -0.44998,-0.20146 -0.44998,-0.44998z" fill="#000000" stroke="#000000" stroke-width="0" stroke-linecap="butt"/><path d="M223.99029,161.93534c0,-0.24852 0.20146,-0.44997 0.44998,-0.44997c0.24852,0 0.44997,0.20145 0.44997,0.44997c0,0.24852 -0.20145,0.44998 -0.44997,0.44998c-0.24852,0 -0.44998,-0.20146 -0.44998,-0.44998z" fill="#000000" stroke="#000000" stroke-width="0" stroke-linecap="butt"/><path d="M223.12634,161.91735c0,-0.24852 0.20146,-0.44998 0.44998,-0.44998c0.24852,0 0.44997,0.20146 0.44997,0.44998c0,0.24852 -0.20145,0.44997 -0.44997,0.44997c-0.24852,0 -0.44998,-0.20146 -0.44998,-0.44997z" fill="#000000" stroke="#000000" stroke-width="0" stroke-linecap="butt"/><path d="M256.89073,160.89861c0.83998,0 1.52091,0.68495 1.52091,1.5299c0,0.84495 -0.68093,1.52991 -1.52091,1.52991c-0.83998,0 -1.52091,-0.68496 -1.52091,-1.52991c0,-0.84495 0.68093,-1.5299 1.52091,-1.5299z" fill="#e8e8e8" stroke="#c9c9c9" stroke-width="0.5" stroke-linecap="butt"/><path d="M257.24871,162.86049c0,-0.24852 0.20145,-0.44997 0.44997,-0.44997c0.24852,0 0.44998,0.20146 0.44998,0.44997c0,0.24852 -0.20146,0.44998 -0.44998,0.44998c-0.24852,0 -0.44997,-0.20146 -0.44997,-0.44998z" fill="#000000" stroke="#000000" stroke-width="0" stroke-linecap="butt"/><path d="M256.36675,162.86048c0,-0.24852 0.20146,-0.44997 0.44998,-0.44997c0.24852,0 0.44997,0.20146 0.44997,0.44997c0,0.24852 -0.20145,0.44998 -0.44997,0.44998c-0.24852,0 -0.44998,-0.20146 -0.44998,-0.44998z" fill="#000000" stroke="#000000" stroke-width="0" stroke-linecap="butt"/><path d="M257.23071,162.03254c0,-0.24852 0.20146,-0.44997 0.44998,-0.44997c0.24852,0 0.44997,0.20146 0.44997,0.44997c0,0.24852 -0.20145,0.44997 -0.44997,0.44997c-0.24852,0 -0.44998,-0.20146 -0.44998,-0.44997z" fill="#000000" stroke="#000000" stroke-width="0" stroke-linecap="butt"/><path d="M256.36675,162.01454c0,-0.24852 0.20146,-0.44998 0.44998,-0.44998c0.24852,0 0.44997,0.20146 0.44997,0.44998c0,0.24852 -0.20145,0.44997 -0.44997,0.44997c-0.24852,0 -0.44998,-0.20146 -0.44998,-0.44997z" fill="#000000" stroke="#000000" stroke-width="0" stroke-linecap="butt"/></g></g></svg>