<svg version="1.1" xmlns="http://www.w3.org/2000/svg" xmlns:xlink="http://www.w3.org/1999/xlink" width="90.16124" height="116.53582" viewBox="0,0,90.16124,116.53582"><g transform="translate(-194.92345,-121.58496)"><g data-paper-data="{&quot;isPaintingLayer&quot;:true}" fill-rule="nonzero" stroke-linejoin="miter" stroke-miterlimit="10" stroke-dasharray="" stroke-dashoffset="0" style="mix-blend-mode: normal"><path d="" fill="#c9cce9" stroke="none" stroke-width="0" stroke-linecap="butt"/><path d="" fill="none" stroke="#b1b5cd" stroke-width="0.5" stroke-linecap="round"/><path d="" data-paper-data="{&quot;index&quot;:null}" fill="none" stroke="#b1b5cd" stroke-width="0.5" stroke-linecap="round"/><path d="" fill="#c9cce9" stroke="#b1b5cd" stroke-width="0.5" stroke-linecap="butt"/><path d="" fill="#000000" stroke="#000000" stroke-width="0" stroke-linecap="butt"/><path d="" fill="#000000" stroke="#000000" stroke-width="0" stroke-linecap="butt"/><path d="" fill="#000000" stroke="#000000" stroke-width="0" stroke-linecap="butt"/><path d="" fill="#000000" stroke="#000000" stroke-width="0" stroke-linecap="butt"/><path d="" fill="#c9cce9" stroke="#b1b5cd" stroke-width="0.5" stroke-linecap="butt"/><path d="" fill="#000000" stroke="#b1b5cd" stroke-width="0" stroke-linecap="butt"/><path d="" fill="#000000" stroke="#b1b5cd" stroke-width="0" stroke-linecap="butt"/><path d="" fill="#000000" stroke="#b1b5cd" stroke-width="0" stroke-linecap="butt"/><path d="" fill="#000000" stroke="#b1b5cd" stroke-width="0" stroke-linecap="butt"/><path d="" fill="#c9cce9" stroke="#b1b5cd" stroke-width="0.5" stroke-linecap="butt"/><path d="" fill="#000000" stroke="#000000" stroke-width="0" stroke-linecap="butt"/><path d="" fill="#000000" stroke="#000000" stroke-width="0" stroke-linecap="butt"/><path d="" fill="#000000" stroke="#000000" stroke-width="0" stroke-linecap="butt"/><path d="" fill="#000000" stroke="#000000" stroke-width="0" stroke-linecap="butt"/><path d="" fill="#c9cce9" stroke="#b1b5cd" stroke-width="0.5" stroke-linecap="butt"/><path d="" fill="#000000" stroke="#000000" stroke-width="0" stroke-linecap="butt"/><path d="" fill="#000000" stroke="#000000" stroke-width="0" stroke-linecap="butt"/><path d="" fill="#000000" stroke="#000000" stroke-width="0" stroke-linecap="butt"/><path d="" fill="#000000" stroke="#000000" stroke-width="0" stroke-linecap="butt"/><path d="" fill="#c9cce9" stroke="#b1b5cd" stroke-width="0.5" stroke-linecap="butt"/><path d="" fill="#000000" stroke="#000000" stroke-width="0" stroke-linecap="butt"/><path d="" fill="#000000" stroke="#000000" stroke-width="0" stroke-linecap="butt"/><path d="" fill="#000000" stroke="#000000" stroke-width="0" stroke-linecap="butt"/><path d="" fill="#000000" stroke="#000000" stroke-width="0" stroke-linecap="butt"/><path d="" fill="#c9cce9" stroke="#aaadc9" stroke-width="0" stroke-linecap="butt"/><path d="" fill="none" stroke="#aaadc9" stroke-width="0.5" stroke-linecap="round"/><path d="" fill="none" stroke="#aaadc9" stroke-width="0.5" stroke-linecap="round"/><path d="" fill="none" stroke="#aaadc9" stroke-width="0.5" stroke-linecap="round"/><path d="" fill="none" stroke="#aaadc9" stroke-width="0.5" stroke-linecap="round"/><path d="" fill="none" stroke="#aaadc9" stroke-width="0.5" stroke-linecap="round"/><path d="" fill="none" stroke="#aaadc9" stroke-width="0.5" stroke-linecap="round"/><path d="" data-paper-data="{&quot;index&quot;:null}" fill="none" stroke="#aaadc9" stroke-width="0.5" stroke-linecap="round"/><path d="" fill="none" stroke="#aaadc9" stroke-width="0.5" stroke-linecap="round"/><path d="" data-paper-data="{&quot;index&quot;:null}" fill="none" stroke="#aaadc9" stroke-width="0.5" stroke-linecap="round"/><path d="" fill="#c9cce9" stroke="#b1b5cd" stroke-width="0.5" stroke-linecap="butt"/><path d="" fill="#000000" stroke="#000000" stroke-width="0" stroke-linecap="butt"/><path d="" fill="#000000" stroke="#000000" stroke-width="0" stroke-linecap="butt"/><path d="" fill="#000000" stroke="#000000" stroke-width="0" stroke-linecap="butt"/><path d="" fill="#000000" stroke="#000000" stroke-width="0" stroke-linecap="butt"/><path d="" fill="#c9cce9" stroke="#b1b5cd" stroke-width="0.5" stroke-linecap="butt"/><path d="" fill="#000000" stroke="#b1b5cd" stroke-width="0" stroke-linecap="butt"/><path d="" fill="#000000" stroke="#b1b5cd" stroke-width="0" stroke-linecap="butt"/><path d="" fill="#000000" stroke="#b1b5cd" stroke-width="0" stroke-linecap="butt"/><path d="" fill="#000000" stroke="#b1b5cd" stroke-width="0" stroke-linecap="butt"/><path d="" fill="#c9cce9" stroke="#b1b5cd" stroke-width="0.5" stroke-linecap="butt"/><path d="" fill="#000000" stroke="#000000" stroke-width="0" stroke-linecap="butt"/><path d="" fill="#000000" stroke="#000000" stroke-width="0" stroke-linecap="butt"/><path d="" fill="#000000" stroke="#000000" stroke-width="0" stroke-linecap="butt"/><path d="" fill="#000000" stroke="#000000" stroke-width="0" stroke-linecap="butt"/><path d="" fill="#c9cce9" stroke="#b1b5cd" stroke-width="0.5" stroke-linecap="butt"/><path d="" fill="#000000" stroke="#000000" stroke-width="0" stroke-linecap="butt"/><path d="" fill="#000000" stroke="#000000" stroke-width="0" stroke-linecap="butt"/><path d="" fill="#000000" stroke="#000000" stroke-width="0" stroke-linecap="butt"/><path d="" fill="#000000" stroke="#000000" stroke-width="0" stroke-linecap="butt"/><path d="" fill="#c9cce9" stroke="#b1b5cd" stroke-width="0.5" stroke-linecap="butt"/><path d="" fill="#000000" stroke="#000000" stroke-width="0" stroke-linecap="butt"/><path d="" fill="#000000" stroke="#000000" stroke-width="0" stroke-linecap="butt"/><path d="" fill="#000000" stroke="#000000" stroke-width="0" stroke-linecap="butt"/><path d="" fill="#000000" stroke="#000000" stroke-width="0" stroke-linecap="butt"/><g><path d="M265.87789,209.00246c0.53692,7.79798 1.14845,17.62266 1.14845,17.62266c0,0 -18.79945,3.18262 -26.76648,3.18262c-1.58218,0 -12.2189,-14.90744 -12.2189,-14.90744l-10.66977,-79.85516c0,0 5.77978,-2.80783 11.87366,-2.80783c4.67996,0 5.71084,14.37021 9.27661,14.37021c0.52419,0 6.07286,-5.51119 8.44248,-11.10966c2.37267,-5.60566 3.82165,-10.46659 3.82165,-10.46659l4.94324,2.78532l22.20625,8.82972c0,0 1.92384,4.76539 4.66162,17.20488c1.81455,8.24464 2.18023,27.57383 2.18023,27.57383c0,0 -0.86852,37.8808 -1.17878,47.22802c-0.02147,0.64685 -0.26837,0.97596 -0.30665,1.61396c-0.19799,3.29924 -0.35332,6.55462 -0.35332,6.55462l-8.79209,0.82004c0,0 -0.16498,-2.84677 -0.43114,-7.37649c-0.02536,-0.43158 -0.37422,-0.50209 -0.40136,-0.96321c-0.86049,-14.62038 -3.29839,-43.60982 -4.05152,-54.93665c-0.04638,-0.6976 -0.05715,-2.90098 -0.21016,-2.49659c-0.48464,1.28084 -1.42514,8.81354 -1.42514,8.81354c0,0 -1.38072,6.62487 -1.85816,12.69502c-0.09336,1.18698 -0.47076,3.81805 -0.55674,6.42357c-0.02855,0.86512 0.35573,4.6949 0.66603,9.20162z" data-paper-data="{&quot;index&quot;:null}" fill="#c9cce9" stroke="none" stroke-width="0" stroke-linecap="butt"/><path d="M240.13806,229.96131c0,0 0.60505,0.70775 1.38693,2.16759c1.01875,1.90208 26.50232,-1.94373 25.55732,-5.9233c-0.53962,-2.27244 -0.80139,-8.13656 -1.15226,-14.12581c-0.37586,-6.41569 -0.81432,-12.97495 -0.56798,-15.41678c1.15576,-11.45613 4.83843,-31.89784 6.49138,-39.61587c1.88333,-8.79371 5.72692,-17.92654 6.32972,-20.32053c0.00395,-0.01567 1.07343,2.15752 3.81411,14.0089c3.13498,13.55648 2.82927,31.08083 2.82927,31.08083c0,0 -0.60755,14.32065 -0.68558,26.59844c-0.04555,7.16697 -0.33451,15.27426 -0.57899,21.00311c-0.00898,0.21051 -0.29996,0.4178 -0.30881,0.62172c-0.17898,4.1244 -0.10192,6.81135 -0.10192,6.81135l-9.11867,0.91972c0,0 0.00834,-2.61612 -0.34754,-7.21125c-0.01872,-0.24171 -0.31988,-0.37484 -0.33935,-0.62479c-0.57946,-7.43659 -0.74759,-19.51398 -1.68391,-28.13563c-0.84131,-7.74678 -1.92046,-17.67167 -2.25952,-24.33312c-0.24771,-4.86677 0.01446,-7.80514 0.01446,-7.80514" data-paper-data="{&quot;index&quot;:null}" fill="none" stroke="#b1b5cd" stroke-width="0.5" stroke-linecap="round"/><path d="M214.78816,199.87437c-0.08598,-2.60551 -0.46339,-5.23658 -0.55675,-6.42356c-0.47744,-6.07015 -1.85816,-12.69502 -1.85816,-12.69502c0,0 -0.94051,-7.53269 -1.42515,-8.81354c-0.15301,-0.40439 -0.16377,1.79899 -0.21015,2.49659c-0.75313,11.32683 -3.19103,40.31627 -4.05152,54.93665c-0.02714,0.46113 -0.376,0.53164 -0.40136,0.96322c-0.26615,4.52972 -0.43114,7.37649 -0.43114,7.37649l-8.79209,-0.82005c0,0 -0.15533,-3.25537 -0.35332,-6.55461c-0.03829,-0.63799 -0.28518,-0.96711 -0.30665,-1.61396c-0.31026,-9.34722 -1.17878,-47.22801 -1.17878,-47.22801c0,0 0.36568,-19.32919 2.18023,-27.57383c2.73778,-12.43949 4.66162,-17.20488 4.66162,-17.20488l22.20625,-8.82972l4.94324,-2.78532c0,0 1.44898,4.86093 3.82165,10.46659c2.36962,5.59847 4.83005,10.74201 5.35424,10.74201c3.56577,0 7.68488,-14.00256 12.36484,-14.00256c6.09388,0 11.87366,2.80783 11.87366,2.80783l-10.66977,79.85516c0,0 -10.2744,14.69005 -11.85658,14.69005c-7.96703,0 -27.1288,-2.96523 -27.1288,-2.96523c0,0 0.61154,-9.82468 1.14845,-17.62266c0.3103,-4.50672 0.69459,-8.33651 0.66604,-9.20162z" fill="#c9cce9" stroke="none" stroke-width="0" stroke-linecap="butt"/><path d="M238.15063,230.00009c-0.00368,-0.25734 -0.00868,-28.85989 -0.01487,-29.27793c-0.12269,-8.28442 -0.7136,-46.55701 -0.79244,-52.71033c-0.00473,-0.36881 1.0199,-1.96095 1.0206,-2.08439" data-paper-data="{&quot;index&quot;:null}" fill="none" stroke="#aaadc9" stroke-width="0.5" stroke-linecap="round"/><g fill="none" stroke="#aaadc9" stroke-width="0.5"><path d="M213.99666,179.94649v-22.19374h17.03245v22.34925l-2.31828,1.83536h-12.32423z" stroke-linecap="butt"/><path d="M219.89535,164.24533l-0.14747,17.6183" stroke-linecap="round"/><path d="M225.86776,164.24131l-0.14746,17.62232" stroke-linecap="round"/><path d="M230.96342,162.37921l-2.25237,1.87669l-12.32434,-0.02506l-2.3123,-1.77789" stroke-linecap="round"/></g><g fill="none" stroke="#aaadc9" stroke-width="0.5"><path d="M247.0427,179.94649v-22.19374h17.03245v22.34925l-2.31828,1.83536h-12.32423z" stroke-linecap="butt"/><path d="M252.94139,164.24533l-0.14747,17.6183" stroke-linecap="round"/><path d="M258.76633,181.86363l0.14747,-17.62232" stroke-linecap="round"/><path d="M264.00946,162.37921l-2.25237,1.87669l-12.32434,-0.02506l-2.3123,-1.77789" stroke-linecap="round"/></g><g data-paper-data="{&quot;index&quot;:null}" stroke-linecap="butt"><path d="M222.79332,160.48981c0.83998,0 1.52091,0.68496 1.52091,1.52991c0,0.84495 -0.68093,1.52991 -1.52091,1.52991c-0.83998,0 -1.52091,-0.68496 -1.52091,-1.52991c0,-0.84495 0.68093,-1.52991 1.52091,-1.52991z" fill="#c9cce9" stroke="#b1b5cd" stroke-width="0.5"/><path d="M222.78432,162.4517c0,-0.24852 0.20145,-0.44998 0.44997,-0.44998c0.24852,0 0.44998,0.20146 0.44998,0.44998c0,0.24852 -0.20146,0.44997 -0.44998,0.44997c-0.24852,0 -0.44997,-0.20146 -0.44997,-0.44997z" fill="#000000" stroke="#000000" stroke-width="0"/><path d="M221.90237,162.45169c0,-0.24852 0.20146,-0.44997 0.44998,-0.44997c0.24852,0 0.44997,0.20146 0.44997,0.44997c0,0.24852 -0.20145,0.44998 -0.44997,0.44998c-0.24852,0 -0.44998,-0.20146 -0.44998,-0.44998z" fill="#000000" stroke="#000000" stroke-width="0"/><path d="M222.76631,161.62374c0,-0.24852 0.20146,-0.44997 0.44998,-0.44997c0.24852,0 0.44997,0.20145 0.44997,0.44997c0,0.24852 -0.20145,0.44998 -0.44997,0.44998c-0.24852,0 -0.44998,-0.20146 -0.44998,-0.44998z" fill="#000000" stroke="#000000" stroke-width="0"/><path d="M221.90237,161.60575c0,-0.24852 0.20146,-0.44998 0.44998,-0.44998c0.24852,0 0.44997,0.20146 0.44997,0.44998c0,0.24852 -0.20145,0.44997 -0.44997,0.44997c-0.24852,0 -0.44998,-0.20146 -0.44998,-0.44997z" fill="#000000" stroke="#000000" stroke-width="0"/></g><g data-paper-data="{&quot;index&quot;:null}" stroke-linecap="butt"><path d="M256.03374,160.58701c0.83998,0 1.52091,0.68495 1.52091,1.5299c0,0.84495 -0.68093,1.52991 -1.52091,1.52991c-0.83998,0 -1.52091,-0.68496 -1.52091,-1.52991c0,-0.84495 0.68093,-1.5299 1.52091,-1.5299z" fill="#c9cce9" stroke="#b1b5cd" stroke-width="0.5"/><path d="M256.02474,162.5489c0,-0.24852 0.20145,-0.44997 0.44997,-0.44997c0.24852,0 0.44998,0.20146 0.44998,0.44997c0,0.24852 -0.20146,0.44998 -0.44998,0.44998c-0.24852,0 -0.44997,-0.20146 -0.44997,-0.44998z" fill="#000000" stroke="#000000" stroke-width="0"/><path d="M255.14279,162.54888c0,-0.24852 0.20146,-0.44997 0.44998,-0.44997c0.24852,0 0.44997,0.20146 0.44997,0.44997c0,0.24852 -0.20145,0.44998 -0.44997,0.44998c-0.24852,0 -0.44998,-0.20146 -0.44998,-0.44998z" fill="#000000" stroke="#000000" stroke-width="0"/><path d="M256.00674,161.72094c0,-0.24852 0.20146,-0.44997 0.44998,-0.44997c0.24852,0 0.44997,0.20146 0.44997,0.44997c0,0.24852 -0.20145,0.44997 -0.44997,0.44997c-0.24852,0 -0.44998,-0.20146 -0.44998,-0.44997z" fill="#000000" stroke="#000000" stroke-width="0"/><path d="M255.14279,161.70294c0,-0.24852 0.20146,-0.44998 0.44998,-0.44998c0.24852,0 0.44997,0.20146 0.44997,0.44998c0,0.24852 -0.20145,0.44997 -0.44997,0.44997c-0.24852,0 -0.44998,-0.20146 -0.44998,-0.44997z" fill="#000000" stroke="#000000" stroke-width="0"/></g><path d="M210.58328,169.73427c0,0 0.26217,2.93837 0.01446,7.80514c-0.33906,6.66145 -1.41821,16.58634 -2.25952,24.33312c-0.93632,8.62165 -1.10445,20.69904 -1.68391,28.13563c-0.01947,0.24995 -0.32063,0.38308 -0.33935,0.62479c-0.35588,4.59513 -0.34754,7.21125 -0.34754,7.21125l-9.11867,-0.91972c0,0 0.07706,-2.68695 -0.10192,-6.81135c-0.00885,-0.20392 -0.29983,-0.41121 -0.30881,-0.62172c-0.24448,-5.72885 -0.53344,-13.83614 -0.57899,-21.00311c-0.07803,-12.27779 -0.68558,-26.59844 -0.68558,-26.59844c0,0 -0.30571,-17.52435 2.82927,-31.08083c2.74068,-11.85138 3.81016,-14.02457 3.81411,-14.0089c0.6028,2.39399 4.44639,11.52682 6.32972,20.32053c1.65295,7.71803 5.33562,28.15974 6.49139,39.61587c0.24634,2.44183 -0.19212,9.00109 -0.56798,15.41678c-0.35088,5.98925 -0.61264,11.85338 -1.15226,14.12581c-0.94499,3.97958 24.53858,7.82539 25.55733,5.9233c0.78188,-1.45984 1.38693,-2.16759 1.38693,-2.16759" fill="none" stroke="#b1b5cd" stroke-width="0.5" stroke-linecap="round"/><g data-paper-data="{&quot;index&quot;:null}" fill="#c9cce9" stroke="#b1b5cd" stroke-width="0.5" stroke-linecap="round"><path d="M278.09457,136.65337l-22.56388,-9.05355"/><path d="M259.48006,133.66121c4.4525,1.79645 17.10939,6.90315 17.10939,6.90315"/><path d="M201.95578,136.68505l22.56388,-9.05355"/><path d="M220.5979,133.68175c-4.80033,1.9368 -17.13699,6.91428 -17.13699,6.91428"/><path d="M250.98741,122.1558c0,0 -4.2193,9.41874 -6.54468,13.81095c-2.05303,3.87779 -6.54393,10.83749 -6.54393,10.83749c0,0 -0.19602,0.29959 -0.08454,0.24285c0.59633,-0.30348 3.13727,-1.824 4.82283,-2.59117c2.19509,-0.99908 7.45252,-2.47828 7.45252,-2.47828l0.94397,-19.75209c0,0 4.14097,4.83277 5.98734,7.66221c1.87478,2.87296 5.35483,9.50613 5.35483,9.50613l-12.02684,-0.6149"/><path d="M229.60183,138.7606l-11.93486,0.63329c0,0 3.48007,-6.63317 5.35484,-9.50613c1.84637,-2.82944 5.92818,-7.54393 5.92818,-7.54393l0.84675,19.67291c0,0 -0.09751,1.37619 3.57858,2.8985c2.19842,0.91039 4.19613,1.18341 4.98633,0.9817c0.29599,-0.07555 0.32197,-0.39315 0.32197,-0.39315c0,0 -3.41493,-6.51083 -5.1052,-10.48089c-1.4269,-3.35145 -4.58945,-12.62613 -4.58945,-12.62613" data-paper-data="{&quot;index&quot;:null}"/></g><g data-paper-data="{&quot;index&quot;:null}" stroke-linecap="butt"><g><path d="M240.61726,193.8784c0.93851,-0.00788 1.70617,0.77625 1.71464,1.75141c0.00847,0.97517 -0.74548,1.77207 -1.68398,1.77995c-0.93851,0.00788 -1.70618,-0.77626 -1.71464,-1.75142c-0.00847,-0.97517 0.74548,-1.77206 1.68399,-1.77994z" fill="#c9cce9" stroke="#b1b5cd" stroke-width="0.5"/><path d="M240.62687,196.1427c-0.00249,-0.28682 0.22057,-0.52121 0.49824,-0.52354c0.27767,-0.00233 0.50478,0.22828 0.50727,0.51511c0.00249,0.28682 -0.2206,0.52121 -0.49826,0.52354c-0.27766,0.00233 -0.50477,-0.22828 -0.50726,-0.5151z" fill="#000000" stroke="#000000" stroke-width="0"/><path d="M239.64146,196.15099c-0.00249,-0.28682 0.22057,-0.5212 0.49824,-0.52353c0.27766,-0.00233 0.50477,0.22827 0.50726,0.51509c0.00249,0.28682 -0.22059,0.52122 -0.49825,0.52355c-0.27766,0.00233 -0.50477,-0.22828 -0.50726,-0.5151z" fill="#000000" stroke="#000000" stroke-width="0"/><path d="M240.59844,195.18733c-0.00249,-0.28682 0.22059,-0.52121 0.49825,-0.52354c0.27766,-0.00233 0.50477,0.22828 0.50726,0.5151c0.00249,0.28682 -0.22057,0.52121 -0.49824,0.52354c-0.27767,0.00233 -0.50478,-0.22828 -0.50727,-0.5151z" fill="#000000" stroke="#000000" stroke-width="0"/><path d="M239.63299,195.17467c-0.00249,-0.28682 0.22057,-0.52122 0.49824,-0.52355c0.27766,-0.00233 0.50477,0.22828 0.50726,0.5151c0.00249,0.28681 -0.22058,0.5212 -0.49824,0.52353c-0.27766,0.00233 -0.50477,-0.22827 -0.50726,-0.51509z" fill="#000000" stroke="#000000" stroke-width="0"/></g><g stroke="#b1b5cd"><path d="M240.7054,178.39117c0.93851,-0.00788 1.70617,0.77625 1.71463,1.75142c0.00847,0.97517 -0.74548,1.77206 -1.68398,1.77994c-0.93851,0.00788 -1.70618,-0.77625 -1.71464,-1.75142c-0.00847,-0.97516 0.74549,-1.77206 1.68399,-1.77994z" fill="#c9cce9" stroke-width="0.5"/><path d="M240.71499,180.65549c-0.00249,-0.28681 0.22057,-0.52121 0.49824,-0.52354c0.27767,-0.00233 0.50478,0.22828 0.50727,0.5151c0.00249,0.28681 -0.22058,0.52121 -0.49826,0.52354c-0.27767,0.00233 -0.50477,-0.22829 -0.50726,-0.5151z" fill="#000000" stroke-width="0"/><path d="M239.7296,180.66375c-0.00249,-0.28681 0.22057,-0.52121 0.49824,-0.52354c0.27766,-0.00233 0.50477,0.22828 0.50726,0.51509c0.00249,0.28681 -0.22057,0.52121 -0.49824,0.52354c-0.27766,0.00233 -0.50477,-0.22829 -0.50726,-0.5151z" fill="#000000" stroke-width="0"/><path d="M240.68659,179.7001c-0.00249,-0.28681 0.22058,-0.5212 0.49826,-0.52353c0.27766,-0.00233 0.50477,0.22828 0.50726,0.5151c0.00249,0.28682 -0.22058,0.52121 -0.49825,0.52354c-0.27767,0.00233 -0.50478,-0.22829 -0.50727,-0.5151z" fill="#000000" stroke-width="0"/><path d="M239.72112,179.68744c-0.00249,-0.28682 0.22058,-0.52121 0.49825,-0.52354c0.27766,-0.00233 0.50477,0.22829 0.50726,0.5151c0.00249,0.28682 -0.22057,0.52122 -0.49824,0.52355c-0.27766,0.00233 -0.50477,-0.22829 -0.50726,-0.5151z" fill="#000000" stroke-width="0"/></g><g><path d="M240.15821,162.72731c0.93851,-0.00788 1.70618,0.77625 1.71464,1.75142c0.00847,0.97517 -0.74549,1.77207 -1.68399,1.77995c-0.93851,0.00788 -1.70616,-0.77626 -1.71463,-1.75142c-0.00847,-0.97517 0.74547,-1.77207 1.68398,-1.77995z" fill="#c9cce9" stroke="#b1b5cd" stroke-width="0.5"/><path d="M240.16781,164.99162c-0.00249,-0.28682 0.22057,-0.52121 0.49824,-0.52354c0.27767,-0.00233 0.50478,0.22829 0.50727,0.5151c0.00249,0.28682 -0.22058,0.52121 -0.49826,0.52354c-0.27766,0.00233 -0.50477,-0.22829 -0.50726,-0.5151z" fill="#000000" stroke="#000000" stroke-width="0"/><path d="M239.1824,164.99989c-0.00249,-0.28682 0.22058,-0.52121 0.49826,-0.52354c0.27766,-0.00233 0.50477,0.22829 0.50726,0.5151c0.00249,0.28681 -0.22057,0.52121 -0.49824,0.52354c-0.27767,0.00233 -0.50478,-0.22829 -0.50727,-0.5151z" fill="#000000" stroke="#000000" stroke-width="0"/><path d="M240.13941,164.03624c-0.00249,-0.28682 0.22057,-0.52121 0.49824,-0.52354c0.27766,-0.00233 0.50477,0.22829 0.50726,0.5151c0.00249,0.28682 -0.22058,0.52121 -0.49825,0.52354c-0.27766,0.00233 -0.50477,-0.22829 -0.50726,-0.5151z" fill="#000000" stroke="#000000" stroke-width="0"/><path d="M239.17392,164.02358c-0.00249,-0.28681 0.22058,-0.52121 0.49826,-0.52354c0.27766,-0.00233 0.50477,0.22829 0.50726,0.5151c0.00249,0.28682 -0.22057,0.52121 -0.49824,0.52354c-0.27767,0.00233 -0.50478,-0.22829 -0.50727,-0.5151z" fill="#000000" stroke="#000000" stroke-width="0"/></g><g><path d="M239.76741,147.0006c0.93851,-0.00788 1.70618,0.77625 1.71464,1.75142c0.00847,0.97517 -0.74549,1.77206 -1.68399,1.77994c-0.93851,0.00788 -1.70617,-0.77625 -1.71464,-1.75142c-0.00847,-0.97516 0.74548,-1.77206 1.68399,-1.77994z" fill="#c9cce9" stroke="#b1b5cd" stroke-width="0.5"/><path d="M239.777,149.2649c-0.00249,-0.28682 0.22058,-0.52121 0.49825,-0.52354c0.27767,-0.00233 0.50478,0.22829 0.50727,0.5151c0.00249,0.28682 -0.22058,0.52121 -0.49826,0.52354c-0.27766,0.00233 -0.50477,-0.22829 -0.50726,-0.5151z" fill="#000000" stroke="#000000" stroke-width="0"/><path d="M238.7916,149.27318c-0.00249,-0.28682 0.22058,-0.52121 0.49825,-0.52354c0.27766,-0.00233 0.50477,0.22829 0.50726,0.5151c0.00249,0.28682 -0.22057,0.52122 -0.49824,0.52355c-0.27767,0.00233 -0.50478,-0.22829 -0.50727,-0.5151z" fill="#000000" stroke="#000000" stroke-width="0"/><path d="M239.74859,148.30953c-0.00249,-0.28682 0.22058,-0.52121 0.49826,-0.52354c0.27766,-0.00233 0.50477,0.22829 0.50726,0.5151c0.00249,0.28682 -0.22058,0.52121 -0.49825,0.52354c-0.27767,0.00233 -0.50478,-0.22829 -0.50727,-0.5151z" fill="#000000" stroke="#000000" stroke-width="0"/><path d="M238.78312,148.29686c-0.00249,-0.28681 0.22058,-0.52121 0.49826,-0.52354c0.27766,-0.00233 0.50477,0.22829 0.50726,0.5151c0.00249,0.28681 -0.22057,0.5212 -0.49824,0.52353c-0.27767,0.00233 -0.50478,-0.22828 -0.50727,-0.51509z" fill="#000000" stroke="#000000" stroke-width="0"/></g><g><path d="M240.93429,211.39836c0.93851,-0.00788 1.70616,0.77626 1.71463,1.75142c0.00847,0.97516 -0.74547,1.77207 -1.68398,1.77995c-0.93851,0.00788 -1.70618,-0.77626 -1.71464,-1.75142c-0.00847,-0.97516 0.74549,-1.77207 1.68399,-1.77995z" fill="#c9cce9" stroke="#b1b5cd" stroke-width="0.5"/><path d="M240.94388,213.66266c-0.00249,-0.28682 0.22057,-0.52121 0.49824,-0.52354c0.27767,-0.00233 0.50478,0.22828 0.50727,0.5151c0.00249,0.28682 -0.22058,0.52121 -0.49826,0.52354c-0.27766,0.00233 -0.50477,-0.22828 -0.50726,-0.5151z" fill="#000000" stroke="#000000" stroke-width="0"/><path d="M239.95849,213.67094c-0.00249,-0.28682 0.22057,-0.5212 0.49824,-0.52353c0.27766,-0.00233 0.50477,0.22827 0.50726,0.51509c0.00249,0.28682 -0.22058,0.52122 -0.49825,0.52355c-0.27766,0.00233 -0.50476,-0.22828 -0.50725,-0.5151z" fill="#000000" stroke="#000000" stroke-width="0"/><path d="M240.91547,212.70729c-0.00249,-0.28682 0.22058,-0.52121 0.49826,-0.52354c0.27766,-0.00233 0.50477,0.22828 0.50726,0.5151c0.00249,0.28682 -0.22057,0.52121 -0.49824,0.52354c-0.27767,0.00233 -0.50478,-0.22828 -0.50727,-0.5151z" fill="#000000" stroke="#000000" stroke-width="0"/><path d="M239.95001,212.69463c-0.00249,-0.28681 0.22057,-0.52121 0.49824,-0.52354c0.27766,-0.00233 0.50477,0.22827 0.50726,0.51509c0.00249,0.28682 -0.22057,0.52122 -0.49824,0.52355c-0.27766,0.00233 -0.50477,-0.22828 -0.50726,-0.5151z" fill="#000000" stroke="#000000" stroke-width="0"/></g></g></g></g></g></svg>