<svg version="1.1" xmlns="http://www.w3.org/2000/svg" xmlns:xlink="http://www.w3.org/1999/xlink" width="90.16939" height="112.58546" viewBox="0,0,90.16939,112.58546"><g transform="translate(-194.91531,-123.63713)"><g data-paper-data="{&quot;isPaintingLayer&quot;:true}" fill-rule="nonzero" stroke-linejoin="miter" stroke-miterlimit="10" stroke-dasharray="" stroke-dashoffset="0" style="mix-blend-mode: normal"><path d="" fill="#c9cce9" stroke="none" stroke-width="0" stroke-linecap="butt"/><path d="" fill="none" stroke="#b1b5cd" stroke-width="0.5" stroke-linecap="round"/><path d="" data-paper-data="{&quot;index&quot;:null}" fill="none" stroke="#b1b5cd" stroke-width="0.5" stroke-linecap="round"/><path d="" fill="#c9cce9" stroke="#b1b5cd" stroke-width="0.5" stroke-linecap="butt"/><path d="" fill="#000000" stroke="#000000" stroke-width="0" stroke-linecap="butt"/><path d="" fill="#000000" stroke="#000000" stroke-width="0" stroke-linecap="butt"/><path d="" fill="#000000" stroke="#000000" stroke-width="0" stroke-linecap="butt"/><path d="" fill="#000000" stroke="#000000" stroke-width="0" stroke-linecap="butt"/><path d="" fill="#c9cce9" stroke="#b1b5cd" stroke-width="0.5" stroke-linecap="butt"/><path d="" fill="#000000" stroke="#b1b5cd" stroke-width="0" stroke-linecap="butt"/><path d="" fill="#000000" stroke="#b1b5cd" stroke-width="0" stroke-linecap="butt"/><path d="" fill="#000000" stroke="#b1b5cd" stroke-width="0" stroke-linecap="butt"/><path d="" fill="#000000" stroke="#b1b5cd" stroke-width="0" stroke-linecap="butt"/><path d="" fill="#c9cce9" stroke="#b1b5cd" stroke-width="0.5" stroke-linecap="butt"/><path d="" fill="#000000" stroke="#000000" stroke-width="0" stroke-linecap="butt"/><path d="" fill="#000000" stroke="#000000" stroke-width="0" stroke-linecap="butt"/><path d="" fill="#000000" stroke="#000000" stroke-width="0" stroke-linecap="butt"/><path d="" fill="#000000" stroke="#000000" stroke-width="0" stroke-linecap="butt"/><path d="" fill="#c9cce9" stroke="#b1b5cd" stroke-width="0.5" stroke-linecap="butt"/><path d="" fill="#000000" stroke="#000000" stroke-width="0" stroke-linecap="butt"/><path d="" fill="#000000" stroke="#000000" stroke-width="0" stroke-linecap="butt"/><path d="" fill="#000000" stroke="#000000" stroke-width="0" stroke-linecap="butt"/><path d="" fill="#000000" stroke="#000000" stroke-width="0" stroke-linecap="butt"/><path d="" fill="#c9cce9" stroke="#b1b5cd" stroke-width="0.5" stroke-linecap="butt"/><path d="" fill="#000000" stroke="#000000" stroke-width="0" stroke-linecap="butt"/><path d="" fill="#000000" stroke="#000000" stroke-width="0" stroke-linecap="butt"/><path d="" fill="#000000" stroke="#000000" stroke-width="0" stroke-linecap="butt"/><path d="" fill="#000000" stroke="#000000" stroke-width="0" stroke-linecap="butt"/><path d="" fill="#c9cce9" stroke="#aaadc9" stroke-width="0" stroke-linecap="butt"/><path d="" fill="none" stroke="#aaadc9" stroke-width="0.5" stroke-linecap="round"/><path d="" fill="none" stroke="#aaadc9" stroke-width="0.5" stroke-linecap="round"/><path d="" fill="none" stroke="#aaadc9" stroke-width="0.5" stroke-linecap="round"/><path d="" fill="none" stroke="#aaadc9" stroke-width="0.5" stroke-linecap="round"/><path d="" fill="none" stroke="#aaadc9" stroke-width="0.5" stroke-linecap="round"/><path d="" fill="none" stroke="#aaadc9" stroke-width="0.5" stroke-linecap="round"/><path d="" data-paper-data="{&quot;index&quot;:null}" fill="none" stroke="#aaadc9" stroke-width="0.5" stroke-linecap="round"/><path d="" fill="none" stroke="#aaadc9" stroke-width="0.5" stroke-linecap="round"/><path d="" data-paper-data="{&quot;index&quot;:null}" fill="none" stroke="#aaadc9" stroke-width="0.5" stroke-linecap="round"/><path d="" fill="#c9cce9" stroke="#b1b5cd" stroke-width="0.5" stroke-linecap="butt"/><path d="" fill="#000000" stroke="#000000" stroke-width="0" stroke-linecap="butt"/><path d="" fill="#000000" stroke="#000000" stroke-width="0" stroke-linecap="butt"/><path d="" fill="#000000" stroke="#000000" stroke-width="0" stroke-linecap="butt"/><path d="" fill="#000000" stroke="#000000" stroke-width="0" stroke-linecap="butt"/><path d="" fill="#c9cce9" stroke="#b1b5cd" stroke-width="0.5" stroke-linecap="butt"/><path d="" fill="#000000" stroke="#b1b5cd" stroke-width="0" stroke-linecap="butt"/><path d="" fill="#000000" stroke="#b1b5cd" stroke-width="0" stroke-linecap="butt"/><path d="" fill="#000000" stroke="#b1b5cd" stroke-width="0" stroke-linecap="butt"/><path d="" fill="#000000" stroke="#b1b5cd" stroke-width="0" stroke-linecap="butt"/><path d="" fill="#c9cce9" stroke="#b1b5cd" stroke-width="0.5" stroke-linecap="butt"/><path d="" fill="#000000" stroke="#000000" stroke-width="0" stroke-linecap="butt"/><path d="" fill="#000000" stroke="#000000" stroke-width="0" stroke-linecap="butt"/><path d="" fill="#000000" stroke="#000000" stroke-width="0" stroke-linecap="butt"/><path d="" fill="#000000" stroke="#000000" stroke-width="0" stroke-linecap="butt"/><path d="" fill="#c9cce9" stroke="#b1b5cd" stroke-width="0.5" stroke-linecap="butt"/><path d="" fill="#000000" stroke="#000000" stroke-width="0" stroke-linecap="butt"/><path d="" fill="#000000" stroke="#000000" stroke-width="0" stroke-linecap="butt"/><path d="" fill="#000000" stroke="#000000" stroke-width="0" stroke-linecap="butt"/><path d="" fill="#000000" stroke="#000000" stroke-width="0" stroke-linecap="butt"/><path d="" fill="#c9cce9" stroke="#b1b5cd" stroke-width="0.5" stroke-linecap="butt"/><path d="" fill="#000000" stroke="#000000" stroke-width="0" stroke-linecap="butt"/><path d="" fill="#000000" stroke="#000000" stroke-width="0" stroke-linecap="butt"/><path d="" fill="#000000" stroke="#000000" stroke-width="0" stroke-linecap="butt"/><path d="" fill="#000000" stroke="#000000" stroke-width="0" stroke-linecap="butt"/><g><path d="M265.87789,212.27142c0.53692,7.79798 1.14845,17.62266 1.14845,17.62266c0,0 -18.79945,3.18262 -26.76648,3.18262c-1.58218,0 -12.2189,-14.90744 -12.2189,-14.90744l-10.66977,-79.85516c0,0 5.77978,-2.80783 11.87366,-2.80783c4.67996,0 5.71084,14.37021 9.27661,14.37021c0.52419,0 6.07286,-5.51119 8.44248,-11.10966c2.37267,-5.60566 3.82165,-10.46659 3.82165,-10.46659l4.94324,2.78532l22.49034,8.94336c0,0 1.63975,4.65175 4.37753,17.09124c1.81455,8.24464 2.18023,27.57383 2.18023,27.57383l-17.15015,-0.74277c0,0 -1.38072,6.62488 -1.85816,12.69503c-0.09336,1.18698 -0.47076,3.81805 -0.55675,6.42356c-0.02855,0.86512 0.35574,4.6949 0.66604,9.20162z" data-paper-data="{&quot;index&quot;:null}" fill="#c9cce9" stroke="none" stroke-width="0" stroke-linecap="butt"/><path d="M267.62196,184.02652l17.20459,0.77469c0,0 0.30571,-17.24026 -2.82927,-30.79674c-2.74068,-11.85138 -3.81016,-14.02457 -3.81411,-14.0089c-0.6028,2.39399 -4.44639,11.52682 -6.32972,20.32053c-1.65295,7.71803 -5.33562,28.15974 -6.49138,39.61587c-0.24634,2.44183 0.19212,9.00109 0.56798,15.41678c0.35087,5.98925 0.61264,11.85337 1.15226,14.12581c0.945,3.97957 -24.53857,7.82538 -25.55732,5.9233c-0.78188,-1.45984 -1.38693,-2.16759 -1.38693,-2.16759" data-paper-data="{&quot;index&quot;:null}" fill="none" stroke="#b1b5cd" stroke-width="0.5" stroke-linecap="round"/><path d="M214.78815,203.14333c-0.08598,-2.60551 -0.46338,-5.23658 -0.55674,-6.42357c-0.47744,-6.07015 -1.85816,-12.69502 -1.85816,-12.69502l-17.15015,0.74277c0,0 0.36568,-19.32919 2.18023,-27.57383c2.73778,-12.43949 4.66162,-17.20488 4.66162,-17.20488l22.20625,-8.82972l4.94324,-2.78532c0,0 16.86077,7.20604 21.54073,7.20604c6.09388,0 11.87366,2.80783 11.87366,2.80783l-10.66977,79.85516c0,0 -10.2744,14.69005 -11.85658,14.69005c-7.96703,0 -27.1288,-2.96523 -27.1288,-2.96523c0,0 0.61154,-9.82468 1.14845,-17.62266c0.3103,-4.50672 0.69458,-8.3365 0.66603,-9.20162z" fill="#c9cce9" stroke="none" stroke-width="0" stroke-linecap="butt"/><path d="M238.15063,233.26905c-0.00368,-0.25734 -0.00868,-28.85989 -0.01487,-29.27793c-0.12269,-8.28442 -0.02129,-46.71086 -0.10013,-52.86418c-0.00473,-0.36881 0.0199,-14.57633 0.0206,-14.69976" data-paper-data="{&quot;index&quot;:null}" fill="none" stroke="#aaadc9" stroke-width="0.5" stroke-linecap="round"/><path d="M213.99666,183.21545v-22.19374h17.03245v22.34925l-2.31828,1.83536h-12.32423z" fill="none" stroke="#aaadc9" stroke-width="0.5" stroke-linecap="butt"/><path d="M219.74788,185.13259l0.14747,-17.6183" fill="none" stroke="#aaadc9" stroke-width="0.5" stroke-linecap="round"/><path d="M225.7203,185.13259l0.14746,-17.62232" fill="none" stroke="#aaadc9" stroke-width="0.5" stroke-linecap="round"/><path d="M230.96342,165.64817l-2.25237,1.87669l-12.32434,-0.02506l-2.3123,-1.77789" fill="none" stroke="#aaadc9" stroke-width="0.5" stroke-linecap="round"/><path d="M247.0427,183.21545v-22.19374h17.03245v22.34925l-2.31828,1.83536h-12.32423z" fill="none" stroke="#aaadc9" stroke-width="0.5" stroke-linecap="butt"/><path d="M252.79392,185.13259l0.14747,-17.6183" fill="none" stroke="#aaadc9" stroke-width="0.5" stroke-linecap="round"/><path d="M258.76633,185.13259l0.14747,-17.62232" fill="none" stroke="#aaadc9" stroke-width="0.5" stroke-linecap="round"/><path d="M264.00946,165.64817l-2.25237,1.87669l-12.32434,-0.02506l-2.3123,-1.77789" fill="none" stroke="#aaadc9" stroke-width="0.5" stroke-linecap="round"/><path d="M222.79332,163.75877c0.83998,0 1.52091,0.68496 1.52091,1.52991c0,0.84495 -0.68093,1.52991 -1.52091,1.52991c-0.83998,0 -1.52091,-0.68496 -1.52091,-1.52991c0,-0.84495 0.68093,-1.52991 1.52091,-1.52991z" fill="#c9cce9" stroke="#b1b5cd" stroke-width="0.5" stroke-linecap="butt"/><path d="M222.78432,165.72066c0,-0.24852 0.20145,-0.44998 0.44997,-0.44998c0.24852,0 0.44998,0.20146 0.44998,0.44998c0,0.24852 -0.20146,0.44997 -0.44998,0.44997c-0.24852,0 -0.44997,-0.20146 -0.44997,-0.44997z" fill="#000000" stroke="#000000" stroke-width="0" stroke-linecap="butt"/><path d="M221.90237,165.72065c0,-0.24852 0.20146,-0.44997 0.44998,-0.44997c0.24852,0 0.44997,0.20146 0.44997,0.44997c0,0.24852 -0.20145,0.44998 -0.44997,0.44998c-0.24852,0 -0.44998,-0.20146 -0.44998,-0.44998z" fill="#000000" stroke="#000000" stroke-width="0" stroke-linecap="butt"/><path d="M222.76631,164.8927c0,-0.24852 0.20146,-0.44997 0.44998,-0.44997c0.24852,0 0.44997,0.20145 0.44997,0.44997c0,0.24852 -0.20145,0.44998 -0.44997,0.44998c-0.24852,0 -0.44998,-0.20146 -0.44998,-0.44998z" fill="#000000" stroke="#000000" stroke-width="0" stroke-linecap="butt"/><path d="M221.90237,164.87471c0,-0.24852 0.20146,-0.44998 0.44998,-0.44998c0.24852,0 0.44997,0.20146 0.44997,0.44998c0,0.24852 -0.20145,0.44997 -0.44997,0.44997c-0.24852,0 -0.44998,-0.20146 -0.44998,-0.44997z" fill="#000000" stroke="#000000" stroke-width="0" stroke-linecap="butt"/><path d="M256.03374,163.85597c0.83998,0 1.52091,0.68495 1.52091,1.5299c0,0.84495 -0.68093,1.52991 -1.52091,1.52991c-0.83998,0 -1.52091,-0.68496 -1.52091,-1.52991c0,-0.84495 0.68093,-1.5299 1.52091,-1.5299z" fill="#c9cce9" stroke="#b1b5cd" stroke-width="0.5" stroke-linecap="butt"/><path d="M256.02474,165.81786c0,-0.24852 0.20145,-0.44997 0.44997,-0.44997c0.24852,0 0.44998,0.20146 0.44998,0.44997c0,0.24852 -0.20146,0.44998 -0.44998,0.44998c-0.24852,0 -0.44997,-0.20146 -0.44997,-0.44998z" fill="#000000" stroke="#000000" stroke-width="0" stroke-linecap="butt"/><path d="M255.14279,165.81784c0,-0.24852 0.20146,-0.44997 0.44998,-0.44997c0.24852,0 0.44997,0.20146 0.44997,0.44997c0,0.24852 -0.20145,0.44998 -0.44997,0.44998c-0.24852,0 -0.44998,-0.20146 -0.44998,-0.44998z" fill="#000000" stroke="#000000" stroke-width="0" stroke-linecap="butt"/><path d="M256.00674,164.9899c0,-0.24852 0.20146,-0.44997 0.44998,-0.44997c0.24852,0 0.44997,0.20146 0.44997,0.44997c0,0.24852 -0.20145,0.44997 -0.44997,0.44997c-0.24852,0 -0.44998,-0.20146 -0.44998,-0.44997z" fill="#000000" stroke="#000000" stroke-width="0" stroke-linecap="butt"/><path d="M255.14279,164.9719c0,-0.24852 0.20146,-0.44998 0.44998,-0.44998c0.24852,0 0.44997,0.20146 0.44997,0.44998c0,0.24852 -0.20145,0.44997 -0.44997,0.44997c-0.24852,0 -0.44998,-0.20146 -0.44998,-0.44997z" fill="#000000" stroke="#000000" stroke-width="0" stroke-linecap="butt"/><path d="M239.86194,233.30379c0,0 -0.60505,0.70775 -1.38693,2.16759c-1.01875,1.90209 -26.50231,-1.94372 -25.55732,-5.9233c0.53962,-2.27243 0.80139,-8.13656 1.15226,-14.12581c0.37586,-6.41569 0.81433,-12.97495 0.56798,-15.41678c-1.15576,-11.45612 -4.83842,-31.89784 -6.49138,-39.61587c-1.88333,-8.79371 -5.72692,-17.92654 -6.32972,-20.32053c-0.00395,-0.01567 -1.07343,2.15752 -3.81411,14.0089c-3.13498,13.55648 -2.82927,30.7273 -2.82927,30.7273l17.2047,-0.77641" fill="none" stroke="#b1b5cd" stroke-width="0.5" stroke-linecap="round"/><g><g fill="none" stroke="none" stroke-width="1" stroke-linecap="butt" font-family="sans-serif" font-weight="normal" font-size="12" text-anchor="start"/><path d="M225.03668,130.62293c0,0 1.32745,-2.46887 2.06394,-3.58028c0.68315,-1.03092 2.20703,-2.86488 2.20703,-2.86488c0,0 1.38511,1.77169 3.94045,3.73858c2.19103,1.68647 5.47769,3.60852 6.82732,3.63869c1.60985,0.13201 5.12482,-2.20352 7.71033,-4.40231c1.72392,-1.46607 3.05609,-3.08592 3.05609,-3.08592c0,0 1.52425,1.9456 2.2329,3.01215c0.74186,1.11653 2.12322,3.54398 2.12322,3.54398l-9.34926,10.73389c0,0 -1.95794,-3.60628 -2.91878,-5.23024c-0.91338,-1.54373 -2.71108,-4.28503 -2.71108,-4.28503c0,0 -2.02776,2.50885 -2.99447,4.06275c-1.00857,1.62119 -2.93671,5.47108 -2.93671,5.47108z" fill="#c9cce9" stroke="none" stroke-width="0" stroke-linecap="butt"/><g fill="none" stroke="#aaadc9" stroke-width="0.5"><path d="M234.37066,141.4783l-9.56076,-10.73425c0,0 1.57318,-2.65083 2.36332,-3.81382c0.72542,-1.06774 2.19998,-2.90282 2.19998,-2.90282c0,0 2.13628,2.46892 4.02236,4.0338c1.75299,1.45446 6.69432,3.70554 6.69432,3.70554c0,0 -1.88424,2.49497 -2.76707,3.99406c-1.00715,1.7102 -2.95215,5.71749 -2.95215,5.71749z" stroke-linecap="butt"/><path d="M224.57889,130.90319l-22.56387,9.05355" stroke-linecap="round"/><path d="M203.52015,143.86772l24.12398,-9.73334" stroke-linecap="round"/></g><g data-paper-data="{&quot;index&quot;:null}" fill="none" stroke="#aaadc9" stroke-width="0.5"><path d="M242.84602,135.79249c-0.88283,-1.49909 -2.76707,-3.99406 -2.76707,-3.99406c0,0 4.94133,-2.25108 6.69432,-3.70554c1.88608,-1.56488 4.02236,-4.0338 4.02236,-4.0338c0,0 1.47455,1.83508 2.19997,2.90282c0.79014,1.16299 2.36332,3.81382 2.36332,3.81382l-9.56076,10.73425c0,0 -1.945,-4.00728 -2.95215,-5.71748z" stroke-linecap="butt"/><path d="M255.58994,130.93487l22.56387,9.05355" stroke-linecap="round"/><path d="M276.64868,143.8994l-24.12399,-9.73333" stroke-linecap="round"/></g></g></g></g></g></svg>