<svg version="1.1" xmlns="http://www.w3.org/2000/svg" xmlns:xlink="http://www.w3.org/1999/xlink" width="91.34269" height="119.83696" viewBox="0,0,91.34269,119.83696"><g transform="translate(-194.32867,-119.93777)"><g data-paper-data="{&quot;isPaintingLayer&quot;:true}" fill-rule="nonzero" stroke-linejoin="miter" stroke-miterlimit="10" stroke-dasharray="" stroke-dashoffset="0" style="mix-blend-mode: normal"><path d="M206.90254,239.53003c0,0 0.73858,-7.21982 2.79228,-15.78943c1.5054,-6.28168 4.57116,-13.15727 4.28058,-19.10618c-0.19633,-4.01931 0.96485,-11.19478 0.04499,-17.20751c-0.37643,-2.46057 -1.27872,-5.31613 -1.27872,-5.31613l-17.9042,1.84514c0,0 -0.30414,-5.05647 -0.17591,-10.92356c0.10426,-4.77069 0.57293,-10.09042 1.08915,-13.55776c0.49801,-3.34502 1.37977,-8.20738 2.55121,-12.41629c1.62716,-5.84628 3.56192,-10.68312 3.56192,-10.68312l23.02041,-9.3691c0,0 4.69345,6.23202 9.51025,10.67296c2.57892,2.37768 3.56188,-4.52777 5.50899,-4.53319c2.07774,-0.00579 3.17242,6.6767 5.91053,4.32222c4.92469,-4.2347 9.23014,-10.29618 9.23014,-10.29618l23.25194,8.99039c0,0 2.42393,6.91688 4.24016,14.15516c0.85834,3.42075 1.46094,7.18332 1.82948,9.82279c0.44441,3.18284 0.89095,8.02038 0.99044,12.38994c0.13819,6.06905 -0.17777,11.37886 -0.17777,11.37886l-17.92069,-1.80179c0,0 -1.06585,3.1601 -1.35791,4.97527c-1.08961,6.7718 0.30022,13.11576 0.07229,17.54832c-0.10275,1.99811 0.44366,3.83487 0.91162,5.98789c0.93347,4.29479 2.3604,9.04242 3.33919,13.20022c2.04593,8.6909 2.75061,15.853 2.75061,15.853c0,0 -14.82063,-0.36563 -26.26157,-0.51082c-0.38552,-0.00489 -2.27714,-1.08211 -3.28308,-2.99117c-1.3956,-2.64853 -2.07092,-6.37313 -3.45347,-6.36414c-1.80616,0.01175 -2.38782,5.14416 -3.85542,7.16693c-1.89801,2.616 -4.51414,2.27425 -5.23019,2.27271c-10.95812,-0.02354 -23.98723,0.28456 -23.98723,0.28456z" fill="#c9cce9" stroke="#aaadc9" stroke-width="0" stroke-linecap="butt"/><path d="M239.89505,229.53307c0,0 -0.60505,0.70775 -1.38693,2.16759c-1.01875,1.90208 -2.0125,4.76265 -2.68722,5.74898c-0.91196,1.33314 -2.14252,1.64694 -2.14252,1.64694l-26.74133,0.4029c0,0 0.65526,-6.30622 2.14391,-13.46399c0.92807,-4.46236 2.17215,-7.46134 3.11715,-11.44093c1.11765,-4.70668 1.74046,-7.40662 1.78664,-10.40693c0.01604,-1.04208 0.8108,-13.4301 0.08836,-17.39432c-1.41363,-5.3948 -3.55927,-19.2756 -5.89345,-30.17442c-1.88333,-8.79371 -5.72692,-17.92654 -6.32971,-20.32053c-0.00395,-0.01567 -2.37343,4.85752 -5.1141,16.70891c-3.13498,13.55648 -1.92927,30.98083 -1.92927,30.98083l18.09326,-1.84008" fill="none" stroke="#aaadc9" stroke-width="0.5" stroke-linecap="round"/><path d="M242.16792,132.54772c0.06104,4.11137 0.10241,15.78691 0.05833,21.68032c-0.05448,7.28525 -0.62682,15.54022 -0.58849,23.46454c0.06041,12.49063 0.31074,24.39439 0.22026,31.03972c-0.10505,7.71515 -1.84562,20.88228 -1.84562,20.88228" fill="none" stroke="#aaadc9" stroke-width="0.5" stroke-linecap="round"/><g fill="#0d1c55" stroke="none" stroke-width="0" stroke-linecap="butt"><path d="M234.36001,143.69259l-4.0235,-10.43563l3.83671,4.4538c0,0 2.58529,-4.99845 3.57663,-6.58767c0.85045,-1.36337 2.77684,-3.18734 2.77684,-3.18734l-0.02715,4.49696z"/><path d="M239.41629,132.45376l0.41379,-4.41428c0,0 2.06439,2.89918 2.91484,4.26255c0.99133,1.58922 2.99768,5.48768 2.99768,5.48768l3.83671,-4.22223l-4.0235,10.14615z" data-paper-data="{&quot;index&quot;:null}"/></g><path d="M224.76955,126.95534c0,0 1.48739,-2.38192 2.19672,-3.45234c0.71429,-1.07791 2.23305,-3.02458 2.23305,-3.02458c0,0 2.93,3.12483 6.12641,5.35634c1.62344,1.13337 3.9406,2.0141 4.71863,2.17545c0.6598,-0.06064 4.30826,-1.72323 6.44705,-3.51251c2.40978,-2.01598 4.2421,-4.13025 4.2421,-4.13025l4.35613,6.55613l-9.38247,10.75013l-5.59665,-9.53151c0,0 -1.94443,2.466 -2.83298,3.90917c-1.03711,1.68446 -3.01317,5.58609 -3.01317,5.58609z" fill="#c9cce9" stroke="none" stroke-width="0" stroke-linecap="butt"/><g fill="none" stroke="#aaadc9" stroke-width="0.5"><path d="M224.70158,127.04469c0,0 1.57318,-2.65083 2.36332,-3.81382c0.72542,-1.06774 2.19997,-2.90282 2.19997,-2.90282c0,0 2.13629,2.46892 4.02237,4.0338c1.75299,1.45446 6.69432,3.70554 6.69432,3.70554c0,0 -1.88424,2.49497 -2.76707,3.99406c-1.00715,1.7102 -2.95215,5.71748 -2.95215,5.71748z" stroke-linecap="butt"/><path d="M201.90669,136.25739l22.56387,-9.05355" stroke-linecap="round"/><path d="M203.41182,140.16837l24.12399,-9.73333" stroke-linecap="round"/></g><g data-paper-data="{&quot;index&quot;:null}" fill="none" stroke="#aaadc9" stroke-width="0.5"><path d="M242.73769,132.09314c-0.88283,-1.49909 -2.76707,-3.99406 -2.76707,-3.99406c0,0 4.94132,-2.25108 6.69432,-3.70554c1.88608,-1.56488 4.02237,-4.0338 4.02237,-4.0338c0,0 1.47455,1.83508 2.19997,2.90282c0.79014,1.16299 2.36332,3.81382 2.36332,3.81382l-9.56076,10.73425c0,0 -1.945,-4.00729 -2.95215,-5.71749z" stroke-linecap="butt"/><path d="M255.48161,127.23552l22.56387,9.05355" stroke-linecap="round"/><path d="M252.41636,130.46671l24.12399,9.73334" stroke-linecap="round"/></g><path d="M267.10019,182.16906l18.09326,1.84008c0,0 1.20571,-17.42435 -1.92927,-30.98083c-2.74068,-11.85139 -5.11016,-16.72458 -5.1141,-16.70891c-0.6028,2.394 -4.44639,11.52683 -6.32971,20.32053c-2.33418,10.89882 -4.47981,24.77962 -5.89345,30.17442c-0.72244,3.96422 0.07232,16.35223 0.08836,17.39432c0.04618,3.00031 0.66899,5.70025 1.78664,10.40693c0.945,3.97959 2.18908,6.97857 3.11715,11.44093c1.48865,7.15777 2.14391,13.46399 2.14391,13.46399l-26.74133,-0.4029c0,0 -1.23055,-0.3138 -2.14252,-1.64694c-0.67472,-0.98633 -1.66847,-3.84689 -2.68722,-5.74898c-0.78188,-1.45983 -1.38693,-2.16759 -1.38693,-2.16759" data-paper-data="{&quot;index&quot;:null}" fill="none" stroke="#aaadc9" stroke-width="0.5" stroke-linecap="round"/><g stroke-linecap="butt"><g><path d="M241.04905,196.22136c0,0.99155 -0.76084,1.79536 -1.69938,1.79536c-0.93854,0 -1.69937,-0.8038 -1.69937,-1.79536c0,-0.99155 0.76083,-1.79536 1.69937,-1.79536c0.93854,0 1.69938,0.8038 1.69938,1.79536z" fill="#c9cce9" stroke="#b1b5cd" stroke-width="0.5"/><path d="M238.85695,197.25634c-0.27767,0 -0.50278,-0.23641 -0.50278,-0.52805c0,-0.29164 0.2251,-0.52805 0.50278,-0.52805c0.27768,0 0.50277,0.23641 0.50277,0.52805c0,0.29164 -0.2251,0.52805 -0.50277,0.52805z" fill="#000000" stroke="#000000" stroke-width="0"/><path d="M239.84239,197.25634c-0.27767,0 -0.50277,-0.23641 -0.50277,-0.52805c0,-0.29164 0.2251,-0.52804 0.50277,-0.52804c0.27768,0 0.50277,0.2364 0.50277,0.52804c0,0.29164 -0.2251,0.52805 -0.50277,0.52805z" fill="#000000" stroke="#000000" stroke-width="0"/><path d="M238.87707,196.28472c-0.27768,0 -0.50277,-0.23641 -0.50277,-0.52805c0,-0.29164 0.2251,-0.52805 0.50277,-0.52805c0.27767,0 0.50278,0.23641 0.50278,0.52805c0,0.29164 -0.2251,0.52805 -0.50278,0.52805z" fill="#000000" stroke="#000000" stroke-width="0"/><path d="M239.84239,196.2636c-0.27767,0 -0.50277,-0.23641 -0.50277,-0.52804c0,-0.29164 0.2251,-0.52805 0.50277,-0.52805c0.27768,0 0.50277,0.23641 0.50277,0.52805c0,0.29164 -0.2251,0.52804 -0.50277,0.52804z" fill="#000000" stroke="#000000" stroke-width="0"/></g><g stroke="#b1b5cd"><path d="M240.8265,180.47572c0,0.99156 -0.76084,1.79536 -1.69938,1.79536c-0.93854,0 -1.69937,-0.8038 -1.69937,-1.79536c0,-0.99156 0.76083,-1.79536 1.69937,-1.79536c0.93854,0 1.69938,0.80381 1.69938,1.79536z" fill="#c9cce9" stroke-width="0.5"/><path d="M238.63441,181.5107c-0.27768,0 -0.50278,-0.23642 -0.50278,-0.52805c0,-0.29163 0.2251,-0.52804 0.50278,-0.52804c0.27768,0 0.50277,0.23641 0.50277,0.52804c0,0.29163 -0.22509,0.52805 -0.50277,0.52805z" fill="#000000" stroke-width="0"/><path d="M239.61984,181.51069c-0.27768,0 -0.50277,-0.23642 -0.50277,-0.52805c0,-0.29163 0.2251,-0.52804 0.50277,-0.52804c0.27768,0 0.50277,0.23641 0.50277,0.52804c0,0.29163 -0.2251,0.52805 -0.50277,0.52805z" fill="#000000" stroke-width="0"/><path d="M238.65451,180.53909c-0.27768,0 -0.50277,-0.23641 -0.50277,-0.52805c0,-0.29163 0.2251,-0.52804 0.50277,-0.52804c0.27768,0 0.50278,0.23641 0.50278,0.52804c0,0.29163 -0.2251,0.52805 -0.50278,0.52805z" fill="#000000" stroke-width="0"/><path d="M239.61984,180.51797c-0.27768,0 -0.50277,-0.23641 -0.50277,-0.52805c0,-0.29163 0.2251,-0.52805 0.50277,-0.52805c0.27768,0 0.50277,0.23641 0.50277,0.52805c0,0.29163 -0.2251,0.52805 -0.50277,0.52805z" fill="#000000" stroke-width="0"/></g><g><path d="M241.23771,164.54507c0,0.99155 -0.76083,1.79536 -1.69937,1.79536c-0.93854,0 -1.69938,-0.8038 -1.69938,-1.79536c0,-0.99156 0.76084,-1.79536 1.69938,-1.79536c0.93854,0 1.69937,0.8038 1.69937,1.79536z" fill="#c9cce9" stroke="#b1b5cd" stroke-width="0.5"/><path d="M239.04562,165.58004c-0.27768,0 -0.50278,-0.23641 -0.50278,-0.52805c0,-0.29163 0.2251,-0.52805 0.50278,-0.52805c0.27768,0 0.50277,0.23641 0.50277,0.52805c0,0.29163 -0.2251,0.52805 -0.50277,0.52805z" fill="#000000" stroke="#000000" stroke-width="0"/><path d="M240.03106,165.58004c-0.27768,0 -0.50277,-0.23642 -0.50277,-0.52805c0,-0.29163 0.2251,-0.52805 0.50277,-0.52805c0.27768,0 0.50278,0.23641 0.50278,0.52805c0,0.29163 -0.2251,0.52805 -0.50278,0.52805z" fill="#000000" stroke="#000000" stroke-width="0"/><path d="M239.06573,164.60843c-0.27768,0 -0.50277,-0.23641 -0.50277,-0.52805c0,-0.29163 0.2251,-0.52805 0.50277,-0.52805c0.27768,0 0.50277,0.23641 0.50277,0.52805c0,0.29163 -0.2251,0.52805 -0.50277,0.52805z" fill="#000000" stroke="#000000" stroke-width="0"/><path d="M240.03106,164.58732c-0.27768,0 -0.50277,-0.23641 -0.50277,-0.52805c0,-0.29163 0.2251,-0.52805 0.50277,-0.52805c0.27768,0 0.50278,0.23642 0.50278,0.52805c0,0.29163 -0.2251,0.52805 -0.50278,0.52805z" fill="#000000" stroke="#000000" stroke-width="0"/></g><g><path d="M241.492,148.55185c0,0.99156 -0.76083,1.79536 -1.69937,1.79536c-0.93854,0 -1.69938,-0.8038 -1.69938,-1.79536c0,-0.99156 0.76084,-1.79536 1.69938,-1.79536c0.93854,0 1.69937,0.80381 1.69937,1.79536z" fill="#c9cce9" stroke="#b1b5cd" stroke-width="0.5"/><path d="M239.29992,149.58682c-0.27768,0 -0.50278,-0.23641 -0.50278,-0.52805c0,-0.29163 0.2251,-0.52805 0.50278,-0.52805c0.27768,0 0.50277,0.23641 0.50277,0.52805c0,0.29163 -0.2251,0.52805 -0.50277,0.52805z" fill="#000000" stroke="#000000" stroke-width="0"/><path d="M240.28535,149.58682c-0.27768,0 -0.50277,-0.23641 -0.50277,-0.52805c0,-0.29163 0.2251,-0.52805 0.50277,-0.52805c0.27768,0 0.50278,0.23641 0.50278,0.52805c0,0.29163 -0.2251,0.52805 -0.50278,0.52805z" fill="#000000" stroke="#000000" stroke-width="0"/><path d="M239.32003,148.61522c-0.27768,0 -0.50277,-0.23641 -0.50277,-0.52805c0,-0.29163 0.2251,-0.52805 0.50277,-0.52805c0.27768,0 0.50278,0.23641 0.50278,0.52805c0,0.29163 -0.2251,0.52805 -0.50278,0.52805z" fill="#000000" stroke="#000000" stroke-width="0"/><path d="M240.28535,148.59408c-0.27768,0 -0.50277,-0.23641 -0.50277,-0.52804c0,-0.29163 0.2251,-0.52805 0.50277,-0.52805c0.27768,0 0.50278,0.23642 0.50278,0.52805c0,0.29163 -0.2251,0.52804 -0.50278,0.52804z" fill="#000000" stroke="#000000" stroke-width="0"/></g><g><path d="M240.8841,214.0372c0,0.99155 -0.76084,1.79536 -1.69938,1.79536c-0.93854,0 -1.69937,-0.80381 -1.69937,-1.79536c0,-0.99155 0.76083,-1.79536 1.69937,-1.79536c0.93854,0 1.69938,0.80381 1.69938,1.79536z" fill="#c9cce9" stroke="#b1b5cd" stroke-width="0.5"/><path d="M238.69201,215.07217c-0.27768,0 -0.50278,-0.23641 -0.50278,-0.52805c0,-0.29164 0.2251,-0.52805 0.50278,-0.52805c0.27768,0 0.50277,0.23641 0.50277,0.52805c0,0.29164 -0.2251,0.52805 -0.50277,0.52805z" fill="#000000" stroke="#000000" stroke-width="0"/><path d="M239.67744,215.07217c-0.27768,0 -0.50277,-0.23641 -0.50277,-0.52805c0,-0.29164 0.2251,-0.52804 0.50277,-0.52804c0.27768,0 0.50277,0.2364 0.50277,0.52804c0,0.29164 -0.2251,0.52805 -0.50277,0.52805z" fill="#000000" stroke="#000000" stroke-width="0"/><path d="M238.71212,214.10057c-0.27768,0 -0.50277,-0.23641 -0.50277,-0.52805c0,-0.29164 0.2251,-0.52805 0.50277,-0.52805c0.27768,0 0.50278,0.23641 0.50278,0.52805c0,0.29164 -0.2251,0.52805 -0.50278,0.52805z" fill="#000000" stroke="#000000" stroke-width="0"/><path d="M239.67744,214.07945c-0.27768,0 -0.50277,-0.23641 -0.50277,-0.52805c0,-0.29164 0.2251,-0.52804 0.50277,-0.52804c0.27768,0 0.50277,0.23641 0.50277,0.52804c0,0.29164 -0.2251,0.52805 -0.50277,0.52805z" fill="#000000" stroke="#000000" stroke-width="0"/></g></g><path d="" fill="#0d1c55" stroke="none" stroke-width="0" stroke-linecap="butt"/></g></g></svg>