<svg version="1.1" xmlns="http://www.w3.org/2000/svg" xmlns:xlink="http://www.w3.org/1999/xlink" width="105.50104" height="73.2858" viewBox="0,0,105.50104,73.2858"><g transform="translate(-187.24948,-143.07647)"><g data-paper-data="{&quot;isPaintingLayer&quot;:true}" fill="#233051" fill-rule="nonzero" stroke="#1e2947" stroke-width="2" stroke-linecap="butt" stroke-linejoin="miter" stroke-miterlimit="10" stroke-dasharray="" stroke-dashoffset="0" style="mix-blend-mode: normal"><g><path d="M188.66858,178.9201c0,0 -0.2716,-8.91726 -0.40788,-13.39185c-0.13693,-4.49594 0.99638,-12.04928 2.457,-13.52001c1.60748,-1.6186 14.39148,-8.2001 49.31564,-7.92329c34.4699,0.27322 47.61157,6.16437 49.31564,7.92329c1.59164,1.64287 2.46498,8.57422 2.39794,12.97687c-0.06947,4.56229 -0.2122,13.93498 -0.2122,13.93498l-1.09287,13.52424c0,0 1.41525,22.99378 -8.0662,22.91775c-3.33754,-0.02677 -21.83791,-5.98155 -41.92958,-5.69239c-18.84571,0.27122 -40.19439,6.36625 -42.01135,6.25226c-7.40634,-0.46462 -8.76557,-24.28572 -8.76557,-24.28572z"/><path d="M189.62484,191.60606l-0.81966,-12.9778c0,0 34.61923,-2.45895 51.50138,-2.45895c16.76829,0 51.22815,2.59556 51.22815,2.59556l-0.95626,12.8412c0,0 -33.41338,-3.2786 -50.13528,-3.2786c-16.92681,0 -50.81833,3.2786 -50.81833,3.2786z"/><path d="M240.65429,151.92751c16.76829,0 50.13529,2.45896 50.13529,2.45896c0,0 -33.24656,-2.45895 -50.07319,-2.45895c-16.82457,0 -50.88043,2.45895 -50.88043,2.45895c0,0 33.93619,-2.45896 50.81833,-2.45896z"/></g></g></g></svg>