<svg version="1.1" xmlns="http://www.w3.org/2000/svg" xmlns:xlink="http://www.w3.org/1999/xlink" width="30.29766" height="21.02298" viewBox="0,0,30.29766,21.02298"><g transform="translate(-224.85118,-169.40772)"><g data-paper-data="{&quot;isPaintingLayer&quot;:true}" fill-rule="nonzero" stroke-linecap="butt" stroke-linejoin="miter" stroke-miterlimit="10" stroke-dasharray="" stroke-dashoffset="0" style="mix-blend-mode: normal"><path d="" fill="#848988" stroke="none" stroke-width="1"/><path d="" fill="#848988" stroke="none" stroke-width="1"/><path d="" fill="#848988" stroke="none" stroke-width="1"/><path d="" fill="#848988" stroke="none" stroke-width="1"/><path d="" fill="#848988" stroke="none" stroke-width="1"/><path d="" fill="#848988" stroke="none" stroke-width="1"/><path d="" fill="#848988" stroke="none" stroke-width="1"/><path d="" fill="#848988" stroke="none" stroke-width="1"/><path d="" fill="#6c787b" stroke="none" stroke-width="1"/><path d="" fill="#6c787b" stroke="none" stroke-width="1"/><path d="" fill="#6c787b" stroke="none" stroke-width="1"/><path d="" fill="#ccc8c5" stroke="none" stroke-width="1"/><path d="" fill="#ccc8c5" stroke="none" stroke-width="1"/><path d="" fill="#6c787b" stroke="none" stroke-width="1"/><path d="" fill="#ccc8c5" stroke="none" stroke-width="1"/><path d="" fill="#ccc8c5" stroke="none" stroke-width="1"/><path d="" fill="#ccc8c5" stroke="none" stroke-width="1"/><g fill="#091647" stroke="#061031" stroke-width="0.5"><path d="M225.22184,179.6891c0,0 -0.0782,-2.56726 -0.11743,-3.85548c-0.03942,-1.29437 0.28686,-3.46895 0.70737,-3.89237c0.46279,-0.46599 4.14327,-2.36078 14.19783,-2.28109c9.92379,0.07866 13.70723,1.7747 14.19783,2.28109c0.45823,0.47297 0.70966,2.4685 0.69036,3.73601c-0.02,1.31347 -0.06109,4.01184 -0.06109,4.01184l-0.31463,3.89359c0,0 0.40744,6.61984 -2.32224,6.59795c-0.96087,-0.0077 -6.28707,-1.72207 -12.0714,-1.63882c-5.42562,0.07808 -11.57184,1.83283 -12.09494,1.80001c-2.13226,-0.13377 -2.52358,-6.99179 -2.52358,-6.99179z"/><path d="M225.49714,183.34135l-0.23598,-3.73627c0,0 9.96678,-0.70792 14.8271,-0.70792c4.82754,0 14.74844,0.74725 14.74844,0.74725l-0.27531,3.69694c0,0 -9.61961,-0.94389 -14.4338,-0.94389c-4.87318,0 -14.63045,0.94389 -14.63045,0.94389z"/><path d="M240.18836,171.91799c4.82754,0 14.43381,0.70793 14.43381,0.70793c0,0 -9.57158,-0.70792 -14.41592,-0.70792c-4.84375,0 -14.64833,0.70792 -14.64833,0.70792c0,0 9.77013,-0.70793 14.63045,-0.70793z"/></g></g></g></svg>