<svg version="1.1" xmlns="http://www.w3.org/2000/svg" xmlns:xlink="http://www.w3.org/1999/xlink" width="49.1629" height="19.66516" viewBox="0,0,49.1629,19.66516"><g transform="translate(-215.41855,-170.16742)"><g data-paper-data="{&quot;isPaintingLayer&quot;:true}" fill-rule="nonzero" stroke-linecap="round" stroke-linejoin="miter" stroke-miterlimit="10" stroke-dasharray="" stroke-dashoffset="0" style="mix-blend-mode: normal"><g><path d="M264.58145,189.83258c0,0 -4.77479,-0.57334 -11.56873,-1.16188c-5.10792,-0.44249 -10.53064,-0.3297 -18.63378,-1.42391c-2.73103,-0.36879 -5.63947,-1.1423 -9.15589,-1.9424c-3.2051,-0.72926 -9.79606,1.59138 -9.79606,1.59138c0,0 -0.11801,-5.17881 0.52868,-7.97418c0.56966,-2.46239 3.23874,-8.54908 3.23874,-8.54908c0,0 9.38675,-0.71988 16.675,0.53776c2.90628,0.5015 8.4314,1.64517 13.33099,3.01533c6.84396,1.91389 12.97821,3.89276 12.97821,3.89276c0,0 1.03557,0.96548 1.93277,6.19308c0.31627,1.8428 0.47007,5.82113 0.47007,5.82113z" fill="#0d1c55" stroke="#08123b" stroke-width="0"/><path d="M262.72875,179.65756c0,0 -9.68946,1.41242 -18.99031,0.44001c-6.76427,-0.7072 -12.25937,-3.54073 -16.72473,-4.16726c-4.63252,-0.64997 -9.64774,-0.27749 -9.64774,-0.27749" fill="none" stroke="#091647" stroke-width="0.5"/></g></g></g></svg>