<svg version="1.1" xmlns="http://www.w3.org/2000/svg" xmlns:xlink="http://www.w3.org/1999/xlink" width="184.14271" height="73.65708" viewBox="0,0,184.14271,73.65708"><g transform="translate(-147.92864,-143.17146)"><g data-paper-data="{&quot;isPaintingLayer&quot;:true}" fill-rule="nonzero" stroke-linecap="round" stroke-linejoin="miter" stroke-miterlimit="10" stroke-dasharray="" stroke-dashoffset="0" style="mix-blend-mode: normal"><path d="M332.07136,216.82854c0,0 -17.88429,-2.14747 -43.33139,-4.35191c-19.13202,-1.65737 -39.44316,-1.23491 -69.79399,-5.33334c-10.22926,-1.38131 -21.12299,-4.27857 -34.29397,-7.27539c-12.00491,-2.73149 -36.69176,5.96063 -36.69176,5.96063c0,0 -0.44203,-19.39755 1.98019,-29.86777c2.13369,-9.22303 12.13092,-32.02112 12.13092,-32.02112c0,0 35.15865,-2.69635 62.45723,2.01422c10.88567,1.8784 31.58032,6.1621 49.93205,11.29412c25.63448,7.16861 48.61071,14.58056 48.61071,14.58056c0,0 3.87881,3.61625 7.23932,23.19658c1.18462,6.90231 1.76068,21.80342 1.76068,21.80342z" fill="#0d1c55" stroke="#08123b" stroke-width="0"/><path d="M325.13196,178.71743c0,0 -36.29249,5.29029 -71.12937,1.64809c-25.33598,-2.64888 -45.91825,-13.26204 -62.64351,-15.60872c-17.35138,-2.43452 -36.13621,-1.03937 -36.13621,-1.03937" fill="none" stroke="#091647" stroke-width="3"/></g></g></svg>