<svg version="1.1" xmlns="http://www.w3.org/2000/svg" xmlns:xlink="http://www.w3.org/1999/xlink" width="184.14272" height="73.65708" viewBox="0,0,184.14272,73.65708"><g transform="translate(-147.92864,-143.17146)"><g data-paper-data="{&quot;isPaintingLayer&quot;:true}" fill-rule="nonzero" stroke-linecap="round" stroke-linejoin="miter" stroke-miterlimit="10" stroke-dasharray="" stroke-dashoffset="0" style="mix-blend-mode: normal"><path d="M332.07135,216.82854c0,0 -17.8843,-2.14747 -43.33139,-4.35191c-19.13201,-1.65737 -39.44315,-1.23491 -69.79399,-5.33334c-10.22925,-1.38131 -21.12299,-4.27858 -34.29397,-7.27539c-12.00492,-2.73149 -36.69176,5.96063 -36.69176,5.96063c0,0 -0.44203,-19.39755 1.98019,-29.86777c2.13368,-9.22303 12.13093,-32.02112 12.13093,-32.02112c0,0 35.15865,-2.69634 62.45724,2.01422c10.88567,1.8784 31.58032,6.1621 49.93205,11.29411c25.63448,7.16861 48.61071,14.58056 48.61071,14.58056c0,0 3.87881,3.61625 7.23932,23.19658c1.18463,6.90231 1.76068,21.80342 1.76068,21.80342z" fill="#0d1c55" stroke="#08123b" stroke-width="0"/><path d="M325.43897,178.71744c0,0 -36.29248,5.29029 -71.12936,1.64809c-25.33599,-2.64888 -45.91826,-13.26204 -62.64351,-15.60872c-17.35139,-2.43452 -36.13621,-1.03937 -36.13621,-1.03937" fill="none" stroke="#091647" stroke-width="3"/><path d="M155.00594,163.13383l0.98752,1.25838" fill="none" stroke="#aaadc9" stroke-width="1.5"/><path d="M159.53069,164.17944l-0.98752,-1.25838" fill="none" stroke="#aaadc9" stroke-width="1.5"/><path d="M163.06792,164.01987l-0.98752,-1.25838" fill="none" stroke="#aaadc9" stroke-width="1.5"/><path d="M166.64888,163.97452l-0.86874,-1.34313" fill="none" stroke="#aaadc9" stroke-width="1.5"/><path d="M170.2886,163.97371l-0.90019,-1.32227" fill="none" stroke="#aaadc9" stroke-width="1.5"/><path d="M173.06352,162.72217l0.90019,1.32226" fill="none" stroke="#aaadc9" stroke-width="1.5"/><path d="M176.428,162.80209l0.90019,1.32227" fill="none" stroke="#aaadc9" stroke-width="1.5"/><path d="M180.06596,162.96068l0.90018,1.32227" fill="none" stroke="#aaadc9" stroke-width="1.5"/><path d="M183.46466,163.15395l0.76219,1.40634" fill="none" stroke="#aaadc9" stroke-width="1.5"/><path d="M187.69627,164.92702l-0.65557,-1.4591" fill="none" stroke="#aaadc9" stroke-width="1.5"/><path d="M190.58804,163.84656l0.58849,1.48741" fill="none" stroke="#aaadc9" stroke-width="1.5"/><path d="M194.23756,164.44244l0.49623,1.52068" fill="none" stroke="#aaadc9" stroke-width="1.5"/><path d="M197.80402,165.1935l0.50516,1.51774" fill="none" stroke="#aaadc9" stroke-width="1.5"/><path d="M201.4024,166.10397l0.53051,1.50906" fill="none" stroke="#aaadc9" stroke-width="1.5"/><path d="M205.06871,167.13829l0.50623,1.51738" fill="none" stroke="#aaadc9" stroke-width="1.5"/><path d="M208.94108,169.69183l-0.47008,-1.52897" fill="none" stroke="#aaadc9" stroke-width="1.5"/><path d="M212.50802,170.80979l-0.5264,-1.5105" fill="none" stroke="#aaadc9" stroke-width="1.5"/><path d="M215.58511,170.43973l0.4359,1.53906" fill="none" stroke="#aaadc9" stroke-width="1.5"/><path d="M219.07394,171.50581l0.37155,1.55585" fill="none" stroke="#aaadc9" stroke-width="1.5"/><path d="M222.53274,172.59797l0.4412,1.53755" fill="none" stroke="#aaadc9" stroke-width="1.5"/><path d="M225.94351,173.65233l0.52462,1.51113" fill="none" stroke="#aaadc9" stroke-width="1.5"/><path d="M230.04176,176.18919l-0.52462,-1.51112" fill="none" stroke="#aaadc9" stroke-width="1.5"/><path d="M233.5324,177.14289l-0.52462,-1.51113" fill="none" stroke="#aaadc9" stroke-width="1.5"/><path d="M236.30334,176.4695l0.52462,1.51112" fill="none" stroke="#aaadc9" stroke-width="1.5"/><path d="M239.6405,177.2093l0.42804,1.54126" fill="none" stroke="#aaadc9" stroke-width="1.5"/><path d="M243.10423,177.96327l0.54605,1.50351" fill="none" stroke="#aaadc9" stroke-width="1.5"/><path d="M246.62539,178.61658l0.53134,1.50877" fill="none" stroke="#aaadc9" stroke-width="1.5"/><path d="M250.74615,180.65492l-0.50341,-1.51832" fill="none" stroke="#aaadc9" stroke-width="1.5"/><path d="M253.81789,179.57779l0.49497,1.52109" fill="none" stroke="#aaadc9" stroke-width="1.5"/><path d="M257.94076,181.47299l-0.52868,-1.5097" fill="none" stroke="#aaadc9" stroke-width="1.5"/><path d="M261.31099,181.75738l-0.57484,-1.49274" fill="none" stroke="#aaadc9" stroke-width="1.5"/><path d="M264.11898,180.43687l0.66537,1.45464" fill="none" stroke="#aaadc9" stroke-width="1.5"/><path d="M267.39778,180.63725l0.65138,1.46096" fill="none" stroke="#aaadc9" stroke-width="1.5"/><path d="M270.68548,180.76409l0.81177,1.37832" fill="none" stroke="#aaadc9" stroke-width="1.5"/><path d="M275.0134,182.29501l-0.76243,-1.4062" fill="none" stroke="#aaadc9" stroke-width="1.5"/><path d="M277.89031,180.97312l0.76463,1.405" fill="none" stroke="#aaadc9" stroke-width="1.5"/><path d="M281.47368,180.99877l0.83696,1.36316" fill="none" stroke="#aaadc9" stroke-width="1.5"/><path d="M285.09752,180.93536l0.83696,1.36316" fill="none" stroke="#aaadc9" stroke-width="1.5"/><path d="M288.41066,180.82267l0.83696,1.36316" fill="none" stroke="#aaadc9" stroke-width="1.5"/><path d="M292.56705,182.16459l-0.83695,-1.36317" fill="none" stroke="#aaadc9" stroke-width="1.5"/><path d="M295.74837,182.01347l-0.80012,-1.38511" fill="none" stroke="#aaadc9" stroke-width="1.5"/><path d="M299.14844,181.84752l-0.80114,-1.38452" fill="none" stroke="#aaadc9" stroke-width="1.5"/><path d="M301.84348,180.24121l0.87361,1.33997" fill="none" stroke="#aaadc9" stroke-width="1.5"/><path d="M306.36779,181.35364l-0.90059,-1.32198" fill="none" stroke="#aaadc9" stroke-width="1.5"/><path d="M309.91873,181.04655l-0.93153,-1.30038" fill="none" stroke="#aaadc9" stroke-width="1.5"/><path d="M313.41904,180.76626l-0.93152,-1.30037" fill="none" stroke="#aaadc9" stroke-width="1.5"/><path d="M316.78448,180.4149l-0.93153,-1.30037" fill="none" stroke="#aaadc9" stroke-width="1.5"/><path d="M319.09892,178.74754l0.93152,1.30038" fill="none" stroke="#aaadc9" stroke-width="1.5"/><path d="M325.10768,177.9142l0.93153,1.30038" fill="none" stroke="#aaadc9" stroke-width="1.5"/><path d="M323.02889,179.67525l-0.93153,-1.30038" fill="none" stroke="#aaadc9" stroke-width="1.5"/></g></g></svg>