<svg version="1.1" xmlns="http://www.w3.org/2000/svg" xmlns:xlink="http://www.w3.org/1999/xlink" width="34.71475" height="20.27493" viewBox="0,0,34.71475,20.27493"><g transform="translate(-222.64263,-169.87536)"><g data-paper-data="{&quot;isPaintingLayer&quot;:true}" fill-rule="nonzero" stroke-linejoin="miter" stroke-miterlimit="10" stroke-dasharray="" stroke-dashoffset="0" style="mix-blend-mode: normal"><g><g fill="#0d1c55" stroke="#b60000" stroke-width="0" stroke-linecap="butt"><path d="M241.84234,189.44072c-2.92969,-0.1066 -10.9614,0.07367 -10.9614,0.07367l1.6019,-18.91763c0,0 1.64316,-0.5136 5.91656,-0.70099c1.0362,-0.04544 2.26294,0.0001 3.61693,-0.00615c4.19931,-0.01939 10.37579,1.6988 10.37579,1.6988l0.96066,2.94872c0,0 3.25249,2.27605 3.78046,4.00029c0.77165,2.52005 -0.64703,6.039 -1.27113,7.28972c-1.1351,2.27478 -6.82635,4.25934 -6.82635,4.25934c0,0 -4.04618,-0.53127 -7.19342,-0.64577z" data-paper-data="{&quot;index&quot;:null}"/><path d="M230.96424,190.12464c0,0 -5.69125,-1.98456 -6.82635,-4.25934c-0.6241,-1.25072 -2.04278,-4.76968 -1.27113,-7.28972c0.52797,-1.72424 3.74232,-4.03843 3.74232,-4.03843l0.9988,-2.91058c0,0 6.17648,-1.7182 10.37579,-1.6988c1.71336,0.00791 3.27355,-0.07891 4.65171,0.01561c4.20249,0.28823 6.71251,0.99666 6.71251,0.99666l-0.22884,18.6125c0,0 -8.0317,-0.18026 -10.96139,-0.07367c-3.14725,0.11451 -7.19342,0.64577 -7.19342,0.64577z"/></g><g stroke="#091647" stroke-width="0.5" stroke-linecap="round"><path d="M231.00948,189.90029c0,0 -1.90783,-1.51092 -2.76825,-2.3211c-0.88084,-0.8294 -2.43029,-2.61441 -2.43029,-2.61441" fill="#0c194e"/><path d="M254.18782,184.90078c0,0 -1.58703,1.76298 -2.45147,2.60946c-0.8444,0.82687 -2.78938,2.33522 -2.78938,2.33522" data-paper-data="{&quot;index&quot;:null}" fill="#0c194e"/><path d="M253.40985,174.8826l1.95903,7.86618c0,0 -0.29701,0.90525 -0.53373,1.19803c-0.24604,0.30431 -0.69716,1.01064 -0.69716,1.01064c0,0 -8.54715,-1.88262 -14.34412,-1.82238c-6.48279,0.06737 -13.99765,1.81198 -13.99765,1.81198c0,0 -0.57381,-0.74505 -0.79083,-1.13306c-0.20134,-0.35998 -0.4678,-1.11722 -0.4678,-1.11722l2.00672,-7.82797" fill="#0d1c55"/><path d="M225.88297,177.57822l8.87684,-2.02465c0,0 1.07289,-3.65572 5.16428,-3.66352c4.1392,-0.0079 5.0028,3.63125 5.0028,3.63125l9.07448,1.97922" fill="none"/></g></g><g fill="#c7c8d6" stroke="none" stroke-width="0.5" stroke-linecap="butt"><g><g><path d="M248.07056,181.78139c-0.23507,0.01736 -0.41723,0.17062 -0.7414,0.09748c-0.43675,-0.09855 -0.31274,-0.24546 -0.47099,-0.34512c-0.13213,-0.08321 -0.36259,0.01152 -0.50758,-0.17793c-0.20819,-0.27204 -0.03917,-0.46486 -0.055,-0.66859c-0.01431,-0.18421 -0.31154,-0.33087 -0.0987,-0.64442c0.18841,-0.27756 0.39481,-0.16524 0.53303,-0.28275c0.15266,-0.12978 0.04011,-0.35486 0.46417,-0.49581c0.36452,-0.12116 0.47128,0.06782 0.68493,0.05204c0.24149,-0.01783 0.44817,2.44615 0.19153,2.4651z"/><path d="M247.88074,179.31617c0.21364,-0.01578 0.29,-0.21828 0.66907,-0.15203c0.441,0.07707 0.36451,0.31611 0.53548,0.42199c0.15481,0.09587 0.34149,-0.04548 0.57064,0.20125c0.25886,0.27872 -0.01232,0.46735 0.00199,0.65156c0.01583,0.20373 0.21272,0.36954 0.04893,0.66904c-0.11406,0.20858 -0.35653,0.14878 -0.4743,0.25044c-0.14105,0.12176 0.00426,0.24878 -0.41229,0.41034c-0.30917,0.11991 -0.51293,-0.00485 -0.748,0.01251c-0.25664,0.01895 -0.43302,-2.44726 -0.19153,-2.4651z" data-paper-data="{&quot;index&quot;:null}"/></g><path d="M245.42083,181.75025l0.88344,-0.41993l-0.00698,0.30029l0.70885,-0.33956l0.25022,0.17003l-1.28842,0.67603l0.04015,-0.36365l-0.89899,0.43899l0.05278,-0.30253l-0.78987,0.2864c0,0 0.4491,-0.4052 0.60222,-0.51087c0.15313,-0.10567 0.51397,-0.29563 0.51397,-0.29563z" data-paper-data="{&quot;index&quot;:null}"/><path d="M245.37153,179.27316l0.92013,0.2378l-0.1924,0.21942l0.73993,0.18886l0.08047,0.2827l-1.38159,-0.29942l0.25663,-0.24597l-0.9436,-0.23329l0.22794,-0.19255l-0.76717,-0.27898c0,0 0.58728,-0.022 0.76726,-0.00528c0.17998,0.01672 0.56732,0.10011 0.56732,0.10011z" data-paper-data="{&quot;index&quot;:null}"/><path d="M246.64933,180.72602l-1.98787,-0.2232c0,0 0.1961,0.28111 0.12281,0.24932c-0.03581,-0.01554 -0.19489,-0.09698 -0.3275,-0.20479c-0.11918,-0.0969 -0.21496,-0.22204 -0.21496,-0.22204c0,0 0.12407,-0.10377 0.28713,-0.17404c0.13929,-0.06003 0.31786,-0.08758 0.35263,-0.0935c0.08118,-0.01381 -0.19675,0.21517 -0.19675,0.21517l1.9946,0.20243z" data-paper-data="{&quot;index&quot;:null}"/></g><g><path d="M252.31601,180.87095c-0.20969,0.04617 -0.35403,0.20801 -0.65581,0.18415c-0.40659,-0.03215 -0.31384,-0.18072 -0.46946,-0.25002c-0.12994,-0.05787 -0.32543,0.05746 -0.48075,-0.09453c-0.22303,-0.21824 -0.09567,-0.41405 -0.13639,-0.59568c-0.03682,-0.16423 -0.32385,-0.25788 -0.17265,-0.56821c0.13384,-0.27471 0.33452,-0.20024 0.44389,-0.32414c0.12079,-0.13683 -0.00991,-0.32516 0.35414,-0.5073c0.31293,-0.15656 0.43373,-0.00004 0.62431,-0.042c0.21542,-0.04743 0.72166,2.14733 0.49273,2.19774z"/><path d="M251.8248,178.67288c0.19058,-0.04196 0.23313,-0.23446 0.58351,-0.22394c0.40763,0.01223 0.36969,0.23769 0.53759,0.31095c0.15203,0.06634 0.302,-0.08534 0.54063,0.10736c0.26958,0.21769 0.04957,0.42298 0.08639,0.58721c0.04072,0.18163 0.23977,0.30557 0.13098,0.59687c-0.07576,0.20287 -0.30214,0.18043 -0.39512,0.28738c-0.11136,0.12809 0.03614,0.22376 -0.31846,0.42351c-0.26319,0.14826 -0.4631,0.06222 -0.67279,0.10839c-0.22893,0.05041 -0.70815,-2.1503 -0.49273,-2.19773z" data-paper-data="{&quot;index&quot;:null}"/></g><path d="M249.95367,181.43923l0.6775,-0.57875l0.06503,0.26577l0.54299,-0.46668l0.26039,0.09024l-0.97299,0.89999l-0.05088,-0.32937l-0.68665,0.5992l-0.02528,-0.2786l-0.62684,0.43913c0,0 0.29896,-0.46284 0.40859,-0.59208c0.10963,-0.12924 0.38199,-0.38185 0.38199,-0.38185z" data-paper-data="{&quot;index&quot;:null}"/><path d="M249.59147,179.03282l0.8647,0.04191l-0.13103,0.23131l0.69492,0.03158l0.12407,0.23727l-1.28769,-0.01152l0.1834,-0.26686l-0.8848,-0.03355l0.16769,-0.2139l-0.73588,-0.10693c0,0 0.51976,-0.12825 0.68338,-0.14663c0.16363,-0.01838 0.52453,-0.01565 0.52453,-0.01565z" data-paper-data="{&quot;index&quot;:null}"/><path d="M251.12781,180.1281l-1.58393,0.409c0,0 0.25239,0.15046 0.18521,0.14932c-0.02878,-0.00049 -0.17621,-0.00072 -0.29596,-0.03198c-0.14019,-0.0366 -0.25304,-0.10501 -0.25304,-0.10501c0,0 0.06184,-0.11274 0.14603,-0.20558c0.09368,-0.1033 0.21197,-0.18859 0.23894,-0.20553c0.0552,-0.03467 -0.06835,0.21623 -0.06835,0.21623l1.57595,-0.42493z" data-paper-data="{&quot;index&quot;:null}"/></g><g data-paper-data="{&quot;index&quot;:null}" fill="#c7c8d6" stroke="none" stroke-width="0.5" stroke-linecap="butt"><g><g><path d="M232.28452,179.27026c0.21364,0.01578 0.32041,-0.1732 0.68493,-0.05205c0.42406,0.14095 0.31151,0.36603 0.46417,0.49581c0.13823,0.11751 0.34462,0.00519 0.53303,0.28275c0.21284,0.31355 -0.08439,0.46021 -0.0987,0.64442c-0.01583,0.20373 0.1532,0.39656 -0.055,0.66859c-0.14499,0.18945 -0.37545,0.09473 -0.50758,0.17793c-0.15825,0.09966 -0.03423,0.24657 -0.47099,0.34512c-0.32417,0.07315 -0.50633,-0.08012 -0.7414,-0.09748c-0.25664,-0.01895 -0.04996,-2.48293 0.19153,-2.4651z"/><path d="M232.09128,181.73523c-0.23507,-0.01736 -0.43883,0.10741 -0.748,-0.01251c-0.41655,-0.16156 -0.27124,-0.28859 -0.41229,-0.41034c-0.11777,-0.10166 -0.36023,-0.04186 -0.47429,-0.25044c-0.16379,-0.2995 0.0331,-0.46531 0.04893,-0.66904c0.01431,-0.18421 -0.25687,-0.37284 0.00199,-0.65156c0.22914,-0.24672 0.41583,-0.10538 0.57064,-0.20125c0.17097,-0.10588 0.09448,-0.34492 0.53548,-0.42199c0.37908,-0.06625 0.45543,0.13625 0.66907,0.15203c0.24149,0.01783 0.06511,2.48405 -0.19153,2.4651z" data-paper-data="{&quot;index&quot;:null}"/></g><path d="M234.67531,181.34378c0,0 0.36085,0.18996 0.51397,0.29563c0.15313,0.10567 0.60222,0.51087 0.60222,0.51087l-0.78987,-0.2864l0.05278,0.30254l-0.89899,-0.43899l0.04015,0.36365l-1.28842,-0.67603l0.25022,-0.17003l0.70885,0.33956l-0.00698,-0.30029l0.88344,0.41993z" data-paper-data="{&quot;index&quot;:null}"/><path d="M234.5171,179.00053c0,0 0.38734,-0.08339 0.56732,-0.10011c0.17998,-0.01672 0.76726,0.00528 0.76726,0.00528l-0.76716,0.27898l0.22794,0.19255l-0.9436,0.23329l0.25663,0.24597l-1.38159,0.29942l0.08047,-0.2827l0.73993,-0.18886l-0.1924,-0.21942l0.92014,-0.2378z" data-paper-data="{&quot;index&quot;:null}"/><path d="M233.48412,180.42933l1.9946,-0.20243c0,0 -0.27793,-0.22898 -0.19675,-0.21517c0.03477,0.00591 0.21335,0.03347 0.35263,0.0935c0.16306,0.07027 0.28713,0.17404 0.28713,0.17404c0,0 -0.09577,0.12514 -0.21496,0.22204c-0.13261,0.10781 -0.29169,0.18926 -0.3275,0.20479c-0.07329,0.03179 0.12281,-0.24932 0.12281,-0.24932l-1.98788,0.2232z" data-paper-data="{&quot;index&quot;:null}"/></g><g><path d="M228.34027,178.62718c0.19058,0.04196 0.31138,-0.11456 0.62431,0.042c0.36405,0.18214 0.23335,0.37047 0.35414,0.5073c0.10937,0.1239 0.31005,0.04942 0.44389,0.32414c0.1512,0.31034 -0.13584,0.40398 -0.17265,0.56821c-0.04072,0.18163 0.08664,0.37743 -0.13639,0.59568c-0.15532,0.15199 -0.35081,0.03666 -0.48075,0.09453c-0.15562,0.06931 -0.06288,0.21787 -0.46946,0.25002c-0.30178,0.02386 -0.44612,-0.13798 -0.65581,-0.18415c-0.22893,-0.05041 0.27731,-2.24517 0.49273,-2.19773z"/><path d="M227.84601,180.82459c-0.20969,-0.04617 -0.4096,0.03987 -0.67279,-0.10839c-0.35459,-0.19975 -0.20709,-0.29542 -0.31846,-0.42351c-0.09298,-0.10695 -0.31936,-0.08451 -0.39512,-0.28738c-0.10879,-0.2913 0.09026,-0.41524 0.13098,-0.59687c0.03682,-0.16423 -0.18319,-0.36952 0.08639,-0.58721c0.23863,-0.1927 0.38861,-0.04102 0.54063,-0.10736c0.1679,-0.07327 0.12996,-0.29872 0.53759,-0.31095c0.35039,-0.01052 0.39294,0.18198 0.58351,0.22394c0.21542,0.04743 -0.2638,2.24814 -0.49273,2.19773z" data-paper-data="{&quot;index&quot;:null}"/></g><path d="M230.23604,181.0602c0,0 0.27236,0.25261 0.38199,0.38185c0.10963,0.12924 0.40859,0.59208 0.40859,0.59208l-0.62684,-0.43913l-0.02529,0.2786l-0.68665,-0.5992l-0.05088,0.32937l-0.97299,-0.89999l0.26039,-0.09024l0.54299,0.46668l0.06503,-0.26577l0.6775,0.57875z" data-paper-data="{&quot;index&quot;:null}"/><path d="M230.36877,178.73382c0,0 0.3609,-0.00273 0.52453,0.01565c0.16363,0.01838 0.68338,0.14663 0.68338,0.14663l-0.73588,0.10693l0.16769,0.2139l-0.8848,0.03355l0.1834,0.26686l-1.28769,0.01152l0.12407,-0.23727l0.69492,-0.03158l-0.13103,-0.23131l0.8647,-0.04191z" data-paper-data="{&quot;index&quot;:null}"/><path d="M229.09088,179.8836l1.57595,0.42493c0,0 -0.12355,-0.25091 -0.06835,-0.21624c0.02697,0.01694 0.14526,0.10224 0.23894,0.20554c0.0842,0.09284 0.14603,0.20558 0.14603,0.20558c0,0 -0.11286,0.06841 -0.25304,0.10501c-0.11975,0.03126 -0.26718,0.03149 -0.29596,0.03198c-0.06718,0.00114 0.18521,-0.14933 0.18521,-0.14933l-1.58393,-0.409z" data-paper-data="{&quot;index&quot;:null}"/></g></g></g></svg>