<svg version="1.1" xmlns="http://www.w3.org/2000/svg" xmlns:xlink="http://www.w3.org/1999/xlink" width="130.02625" height="75.94343" viewBox="0,0,130.02625,75.94343"><g transform="translate(-174.98688,-142.07753)"><g data-paper-data="{&quot;isPaintingLayer&quot;:true}" fill-rule="nonzero" stroke-linejoin="miter" stroke-miterlimit="10" stroke-dasharray="" stroke-dashoffset="0" style="mix-blend-mode: normal"><g><g fill="#0d1c55" stroke="#b60000" stroke-width="0" stroke-linecap="butt"><path d="M246.9006,215.36081c-10.97335,-0.39926 -41.05659,0.27593 -41.05659,0.27593l6,-70.85714c0,0 6.15454,-1.92373 22.16083,-2.62562c3.88115,-0.1702 8.47599,0.00037 13.54743,-0.02305c15.72876,-0.07264 38.86316,6.36297 38.86316,6.36297l3.59822,11.04463c0,0 12.18239,8.52507 14.15995,14.98333c2.89028,9.43899 -2.42348,22.61946 -4.76109,27.30411c-4.25158,8.52033 -25.56851,15.95364 -25.56851,15.95364c0,0 -15.1552,-1.98989 -26.94341,-2.41879z" data-paper-data="{&quot;index&quot;:null}"/><path d="M206.15599,217.92246c0,0 -21.31693,-7.43331 -25.56851,-15.95364c-2.3376,-4.68465 -7.65137,-17.86513 -4.76109,-27.30411c1.97756,-6.45826 14.0171,-15.12618 14.0171,-15.12618l3.74107,-10.90177c0,0 23.1344,-6.43561 38.86316,-6.36297c6.41751,0.02963 12.26127,-0.29556 17.42328,0.05848c15.74068,1.07959 25.14212,3.73306 25.14212,3.73306l-0.85715,69.71428c0,0 -30.08323,-0.67518 -41.05658,-0.27593c-11.78821,0.4289 -26.94341,2.41879 -26.94341,2.41879z"/></g><g fill="none" stroke="#091647" stroke-width="1" stroke-linecap="round"><path d="M206.32546,217.52097c0,0 -7.14588,-6.09817 -10.36866,-9.13276c-3.29923,-3.10657 -9.10281,-9.79242 -9.10281,-9.79242"/><path d="M293.14138,198.35609c0,0 -5.94433,6.60335 -9.18213,9.77391c-3.16277,3.09709 -10.44779,9.33197 -10.44779,9.33197" data-paper-data="{&quot;index&quot;:null}"/><path d="M290.22742,160.10079l7.33766,30.19481c0,0 -1.11248,3.39068 -1.99912,4.4873c-0.92154,1.13981 -2.61126,3.78543 -2.61126,3.78543c0,0 -32.01388,-7.05147 -53.7268,-6.82584c-24.28168,0.25232 -52.42905,6.78688 -52.42905,6.78688c0,0 -2.14924,-2.79064 -2.96211,-4.24395c-0.75415,-1.34834 -1.75217,-4.18463 -1.75217,-4.18463l7.51629,-30.19799"/><path d="M187.12381,170.92896l33.24877,-7.58347c0,0 4.01858,-13.69272 19.34312,-13.72196c15.50362,-0.02958 18.73828,13.60107 18.73828,13.60107l33.98904,7.41331"/></g></g><g fill="#aaadc9" stroke="none" stroke-width="0" stroke-linecap="butt"><g><g><path d="M269.67286,186.78017c-0.88047,0.06502 -1.56276,0.63908 -2.77695,0.3651c-1.63589,-0.36912 -1.17138,-0.9194 -1.76412,-1.29267c-0.49491,-0.31167 -1.3581,0.04314 -1.90117,-0.66646c-0.7798,-1.01893 -0.14671,-1.74118 -0.206,-2.50426c-0.05361,-0.68996 -1.16689,-1.23929 -0.36968,-2.41371c0.70571,-1.03961 1.47877,-0.6189 1.99651,-1.05904c0.5718,-0.48609 0.15023,-1.32915 1.73859,-1.85708c1.36532,-0.4538 1.76522,0.25403 2.56544,0.19493c0.90452,-0.06679 1.67863,9.1622 0.71737,9.23318z"/><path d="M268.96187,177.54653c0.80021,-0.05909 1.0862,-0.81757 2.50605,-0.56944c1.65181,0.28866 1.3653,1.18402 2.00568,1.58059c0.57984,0.35908 1.27909,-0.17034 2.13736,0.75378c0.96958,1.04395 -0.04615,1.7505 0.00746,2.44045c0.05929,0.76307 0.79675,1.38412 0.18327,2.50593c-0.42723,0.78125 -1.3354,0.55725 -1.77651,0.93804c-0.5283,0.45605 0.01594,0.93183 -1.54426,1.53697c-1.15802,0.44914 -1.92121,-0.01817 -2.80168,0.04685c-0.96125,0.07098 -1.62189,-9.16638 -0.71738,-9.23317z" data-paper-data="{&quot;index&quot;:null}"/></g><path d="M259.74815,186.66355l3.30899,-1.57286l-0.02616,1.12475l2.65506,-1.27185l0.93723,0.63687l-4.82586,2.5321l0.15039,-1.36209l-3.36721,1.64426l0.1977,-1.13316l-2.9585,1.07273c0,0 1.68212,-1.51771 2.25566,-1.91349c0.57354,-0.39578 1.92512,-1.1073 1.92512,-1.1073z" data-paper-data="{&quot;index&quot;:null}"/><path d="M259.56347,177.38543l3.44642,0.89071l-0.72066,0.82185l2.77146,0.70738l0.30142,1.05888l-5.17482,-1.12151l0.96121,-0.92128l-3.53433,-0.8738l0.85375,-0.7212l-2.87347,-1.04493c0,0 2.19969,-0.08239 2.87383,-0.01978c0.67413,0.06261 2.12492,0.37495 2.12492,0.37495z" data-paper-data="{&quot;index&quot;:null}"/><path d="M264.34957,182.82721l-7.4457,-0.83601c0,0 0.73452,1.05293 0.46001,0.93385c-0.13414,-0.05819 -0.72999,-0.36325 -1.22668,-0.76707c-0.44641,-0.36294 -0.80514,-0.83167 -0.80514,-0.83167c0,0 0.4647,-0.38867 1.07547,-0.65187c0.52171,-0.22483 1.19057,-0.32805 1.32081,-0.3502c0.30408,-0.05172 -0.73694,0.80595 -0.73694,0.80595l7.47089,0.7582z" data-paper-data="{&quot;index&quot;:null}"/></g><g><path d="M285.57446,183.37007c-0.78542,0.17293 -1.32606,0.77911 -2.45638,0.68973c-1.52289,-0.12042 -1.17551,-0.67688 -1.7584,-0.93648c-0.48669,-0.21675 -1.21891,0.21522 -1.80068,-0.35407c-0.83537,-0.81745 -0.35834,-1.55084 -0.51086,-2.23116c-0.13791,-0.61513 -1.21301,-0.96589 -0.64668,-2.12828c0.50131,-1.02896 1.25295,-0.75001 1.66262,-1.21407c0.45243,-0.51251 -0.03711,-1.2179 1.32645,-1.90011c1.1721,-0.58642 1.62456,-0.00015 2.33838,-0.15732c0.80687,-0.17765 2.70304,8.04296 1.84555,8.23176z"/><path d="M283.73461,175.13707c0.71382,-0.15717 0.8732,-0.87817 2.18559,-0.83879c1.5268,0.04581 1.38471,0.89029 2.01359,1.1647c0.56942,0.24848 1.13115,-0.31965 2.02497,0.40213c1.00973,0.81537 0.18566,1.58429 0.32357,2.19942c0.15253,0.68031 0.89808,1.14452 0.49059,2.23562c-0.28378,0.75987 -1.13168,0.67582 -1.47996,1.07641c-0.41712,0.47978 0.13535,0.83811 -1.1928,1.58628c-0.98579,0.55531 -1.73458,0.23305 -2.51999,0.40597c-0.85748,0.1888 -2.65242,-8.0541 -1.84555,-8.23175z" data-paper-data="{&quot;index&quot;:null}"/></g><path d="M276.72618,185.49858l2.5376,-2.16774l0.24359,0.99547l2.03379,-1.74798l0.9753,0.338l-3.6444,3.37098l-0.19057,-1.23367l-2.5719,2.24434l-0.0947,-1.04353l-2.34788,1.64477c0,0 1.11976,-1.7336 1.53041,-2.21766c0.41064,-0.48406 1.43078,-1.43024 1.43078,-1.43024z" data-paper-data="{&quot;index&quot;:null}"/><path d="M275.36953,176.48522l3.2388,0.15699l-0.49079,0.86637l2.60285,0.1183l0.46472,0.88871l-4.82313,-0.04314l0.68694,-0.99953l-3.31408,-0.12565l0.62811,-0.80119l-2.75627,-0.40053c0,0 1.94678,-0.48035 2.55966,-0.5492c0.61288,-0.06885 1.96467,-0.05862 1.96467,-0.05862z" data-paper-data="{&quot;index&quot;:null}"/><path d="M281.124,180.58769l-5.9327,1.53195c0,0 0.94535,0.56356 0.6937,0.5593c-0.10778,-0.00182 -0.66001,-0.0027 -1.10852,-0.11978c-0.52508,-0.13707 -0.94779,-0.39331 -0.94779,-0.39331c0,0 0.23161,-0.42228 0.54698,-0.77003c0.35089,-0.38691 0.79393,-0.70639 0.89496,-0.76984c0.20675,-0.12987 -0.25601,0.80992 -0.25601,0.80992l5.90281,-1.59159z" data-paper-data="{&quot;index&quot;:null}"/></g><g data-paper-data="{&quot;index&quot;:null}" fill="#aaadc9" stroke="none" stroke-width="0" stroke-linecap="butt"><g><g><path d="M210.54526,177.37458c0.80021,0.05909 1.20011,-0.64873 2.56543,-0.19494c1.58836,0.52793 1.16679,1.371 1.73859,1.85709c0.51774,0.44014 1.29081,0.01943 1.99651,1.05904c0.79721,1.17442 -0.31608,1.72375 -0.36968,2.41371c-0.05929,0.76307 0.57381,1.48533 -0.20599,2.50426c-0.54307,0.70961 -1.40626,0.3548 -1.90117,0.66646c-0.59274,0.37327 -0.12822,0.92355 -1.76412,1.29267c-1.2142,0.27398 -1.89648,-0.30009 -2.77695,-0.3651c-0.96126,-0.07098 -0.18714,-9.29997 0.71738,-9.23318z"/><path d="M209.8215,186.60729c-0.88047,-0.06501 -1.64366,0.4023 -2.80168,-0.04685c-1.5602,-0.60514 -1.01596,-1.08092 -1.54426,-1.53697c-0.44111,-0.38079 -1.34927,-0.15679 -1.7765,-0.93804c-0.61347,-1.12181 0.12398,-1.74286 0.18327,-2.50593c0.05361,-0.68996 -0.96211,-1.3965 0.00746,-2.44045c0.85827,-0.92412 1.55752,-0.3947 2.13736,-0.75378c0.64038,-0.39657 0.35387,-1.29193 2.00568,-1.58059c1.41985,-0.24813 1.70583,0.51035 2.50605,0.56944c0.90452,0.06679 0.24388,9.30416 -0.71738,9.23318z" data-paper-data="{&quot;index&quot;:null}"/></g><path d="M219.50017,185.14109c0,0 1.35158,0.71151 1.92512,1.10729c0.57354,0.39578 2.25566,1.91349 2.25566,1.91349l-2.95851,-1.07274l0.1977,1.13317l-3.36721,-1.64426l0.1504,1.36209l-4.82586,-2.5321l0.93723,-0.63687l2.65506,1.27185l-0.02616,-1.12475l3.30899,1.57287z" data-paper-data="{&quot;index&quot;:null}"/><path d="M218.90754,176.36429c0,0 1.45079,-0.31234 2.12492,-0.37495c0.67413,-0.06261 2.87382,0.01977 2.87382,0.01977l-2.87346,1.04493l0.85375,0.7212l-3.53433,0.8738l0.96121,0.92129l-5.17482,1.12151l0.30142,-1.05888l2.77146,-0.70738l-0.72066,-0.82185l3.44643,-0.89071z" data-paper-data="{&quot;index&quot;:null}"/><path d="M215.03845,181.71597l7.47089,-0.7582c0,0 -1.04102,-0.85766 -0.73694,-0.80595c0.13024,0.02215 0.7991,0.12537 1.32081,0.3502c0.61077,0.2632 1.07547,0.65188 1.07547,0.65188c0,0 -0.35873,0.46873 -0.80514,0.83167c-0.49669,0.40382 -1.09254,0.70888 -1.22668,0.76707c-0.2745,0.11908 0.46001,-0.93385 0.46001,-0.93385l-7.44571,0.83602z" data-paper-data="{&quot;index&quot;:null}"/></g><g><path d="M195.77183,174.9659c0.71382,0.15716 1.16629,-0.42911 2.33839,0.15731c1.36356,0.68222 0.87402,1.38761 1.32645,1.90011c0.40967,0.46406 1.16131,0.18511 1.66262,1.21407c0.56632,1.16239 -0.50878,1.51315 -0.64668,2.12828c-0.15253,0.68032 0.32451,1.4137 -0.51086,2.23116c-0.58177,0.56929 -1.31399,0.13732 -1.80068,0.35407c-0.58289,0.2596 -0.23551,0.81606 -1.7584,0.93648c-1.13032,0.08938 -1.67096,-0.5168 -2.45638,-0.68973c-0.85749,-0.1888 1.03868,-8.40941 1.84555,-8.23175z"/><path d="M193.92058,183.19641c-0.78542,-0.17293 -1.5342,0.14933 -2.51999,-0.40598c-1.32815,-0.74818 -0.77568,-1.1065 -1.1928,-1.58628c-0.34828,-0.40059 -1.19618,-0.31655 -1.47996,-1.07641c-0.40749,-1.0911 0.33806,-1.55531 0.49059,-2.23562c0.13791,-0.61513 -0.68616,-1.38405 0.32357,-2.19942c0.89382,-0.72178 1.45556,-0.15366 2.02497,-0.40214c0.62887,-0.27442 0.48678,-1.11889 2.01358,-1.1647c1.31239,-0.03939 1.47177,0.68162 2.18559,0.83879c0.80687,0.17765 -0.98808,8.42055 -1.84556,8.23175z" data-paper-data="{&quot;index&quot;:null}"/></g><path d="M202.87255,184.07891c0,0 1.02014,0.94618 1.43078,1.43024c0.41064,0.48406 1.5304,2.21766 1.5304,2.21766l-2.34788,-1.64477l-0.09471,1.04353l-2.57189,-2.24434l-0.19057,1.23367l-3.6444,-3.37098l0.9753,-0.338l2.03379,1.74799l0.24359,-0.99547l2.5376,2.16774z" data-paper-data="{&quot;index&quot;:null}"/><path d="M203.36972,175.36531c0,0 1.35179,-0.01023 1.96467,0.05862c0.61288,0.06885 2.55965,0.54921 2.55965,0.54921l-2.75627,0.40052l0.62811,0.80119l-3.31408,0.12565l0.68694,0.99953l-4.82313,0.04314l0.46472,-0.88871l2.60285,-0.1183l-0.49079,-0.86637l3.2388,-0.15698z" data-paper-data="{&quot;index&quot;:null}"/><path d="M198.58332,179.6719l5.90281,1.5916c0,0 -0.46276,-0.9398 -0.25601,-0.80993c0.10103,0.06346 0.54407,0.38294 0.89496,0.76985c0.31537,0.34775 0.54698,0.77003 0.54698,0.77003c0,0 -0.42272,0.25625 -0.94779,0.39331c-0.44852,0.11708 -1.00074,0.11795 -1.10852,0.11978c-0.25164,0.00426 0.6937,-0.55931 0.6937,-0.55931l-5.9327,-1.53194z" data-paper-data="{&quot;index&quot;:null}"/></g></g></g></svg>