<svg version="1.1" xmlns="http://www.w3.org/2000/svg" xmlns:xlink="http://www.w3.org/1999/xlink" width="34.71475" height="20.27494" viewBox="0,0,34.71475,20.27494"><g transform="translate(-222.64263,-169.87536)"><g data-paper-data="{&quot;isPaintingLayer&quot;:true}" fill-rule="nonzero" stroke-linejoin="miter" stroke-miterlimit="10" stroke-dasharray="" stroke-dashoffset="0" style="mix-blend-mode: normal"><g><g fill="#0d1c55" stroke="#b60000" stroke-width="0" stroke-linecap="butt"><path d="M241.84234,189.44072c-2.92969,-0.1066 -10.9614,0.07367 -10.9614,0.07367l1.6019,-18.91763c0,0 1.64316,-0.5136 5.91656,-0.70099c1.0362,-0.04544 2.26294,0.0001 3.61693,-0.00615c4.19931,-0.01939 10.37579,1.6988 10.37579,1.6988l0.96066,2.94872c0,0 3.25249,2.27605 3.78046,4.00029c0.77165,2.52005 -0.64703,6.039 -1.27113,7.28972c-1.1351,2.27478 -6.82635,4.25934 -6.82635,4.25934c0,0 -4.04618,-0.53127 -7.19342,-0.64577z" data-paper-data="{&quot;index&quot;:null}"/><path d="M230.96424,190.12464c0,0 -5.69125,-1.98456 -6.82635,-4.25934c-0.6241,-1.25072 -2.04278,-4.76968 -1.27113,-7.28972c0.52797,-1.72424 3.74232,-4.03843 3.74232,-4.03843l0.9988,-2.91058c0,0 6.17648,-1.7182 10.37579,-1.6988c1.71336,0.00791 3.27355,-0.07891 4.65171,0.01561c4.20249,0.28823 6.71251,0.99666 6.71251,0.99666l-0.22884,18.6125c0,0 -8.0317,-0.18026 -10.96139,-0.07367c-3.14725,0.11451 -7.19342,0.64577 -7.19342,0.64577z"/></g><g stroke="#091647" stroke-width="0.5" stroke-linecap="round"><path d="M231.00948,189.9003c0,0 -1.90783,-1.51092 -2.76825,-2.3211c-0.88084,-0.8294 -2.43029,-2.61441 -2.43029,-2.61441" fill="#0c194e"/><path d="M254.18782,184.90078c0,0 -1.58703,1.76298 -2.45147,2.60946c-0.8444,0.82687 -2.78938,2.33522 -2.78938,2.33522" data-paper-data="{&quot;index&quot;:null}" fill="#0c194e"/><path d="M253.40985,174.88259l1.95903,7.86618c0,0 -0.29701,0.90525 -0.53373,1.19803c-0.24604,0.30431 -0.69716,1.01064 -0.69716,1.01064c0,0 -8.54715,-1.88262 -14.34412,-1.82238c-6.48279,0.06737 -13.99765,1.81198 -13.99765,1.81198c0,0 -0.57381,-0.74505 -0.79083,-1.13306c-0.20134,-0.35998 -0.4678,-1.11722 -0.4678,-1.11722l2.00672,-7.82797" fill="#0d1c55"/><path d="M225.88297,177.57822l8.87684,-2.02465c0,0 1.07289,-3.65572 5.16428,-3.66352c4.1392,-0.0079 5.0028,3.63125 5.0028,3.63125l9.07448,1.97922" fill="none"/></g></g></g></g></svg>