<svg version="1.1" xmlns="http://www.w3.org/2000/svg" xmlns:xlink="http://www.w3.org/1999/xlink" width="130.02625" height="75.94343" viewBox="0,0,130.02625,75.94343"><g transform="translate(-174.98688,-142.07753)"><g data-paper-data="{&quot;isPaintingLayer&quot;:true}" fill-rule="nonzero" stroke-linejoin="miter" stroke-miterlimit="10" stroke-dasharray="" stroke-dashoffset="0" style="mix-blend-mode: normal"><g fill="#0d1c55" stroke="#b60000" stroke-width="0" stroke-linecap="butt"><path d="M246.9006,215.36081c-10.97335,-0.39926 -41.05659,0.27593 -41.05659,0.27593l6,-70.85714c0,0 6.15454,-1.92373 22.16083,-2.62562c3.88115,-0.1702 8.47599,0.00037 13.54743,-0.02305c15.72876,-0.07264 38.86316,6.36297 38.86316,6.36297l3.59822,11.04463c0,0 12.18239,8.52507 14.15995,14.98333c2.89028,9.43899 -2.42348,22.61946 -4.76109,27.30411c-4.25158,8.52033 -25.56851,15.95364 -25.56851,15.95364c0,0 -15.1552,-1.98989 -26.94341,-2.41879z" data-paper-data="{&quot;index&quot;:null}"/><path d="M206.15599,217.92246c0,0 -21.31693,-7.43331 -25.56851,-15.95364c-2.3376,-4.68465 -7.65137,-17.86513 -4.76109,-27.30411c1.97756,-6.45826 14.0171,-15.12618 14.0171,-15.12618l3.74107,-10.90177c0,0 23.1344,-6.43561 38.86316,-6.36297c6.41751,0.02963 12.26127,-0.29556 17.42328,0.05848c15.74068,1.07959 25.14212,3.73306 25.14212,3.73306l-0.85715,69.71428c0,0 -30.08323,-0.67518 -41.05658,-0.27593c-11.78821,0.4289 -26.94341,2.41879 -26.94341,2.41879z"/></g><g fill="none" stroke="#091647" stroke-width="1" stroke-linecap="round"><path d="M206.32546,217.52097c0,0 -7.14588,-6.09817 -10.36866,-9.13276c-3.29923,-3.10657 -9.10281,-9.79242 -9.10281,-9.79242"/><path d="M293.14138,198.35609c0,0 -5.94433,6.60335 -9.18213,9.77391c-3.16277,3.09709 -10.44779,9.33197 -10.44779,9.33197" data-paper-data="{&quot;index&quot;:null}"/><path d="M290.22742,160.10079l7.33766,30.19481c0,0 -1.11248,3.39068 -1.99912,4.4873c-0.92154,1.13981 -2.61126,3.78543 -2.61126,3.78543c0,0 -32.01388,-7.05147 -53.7268,-6.82584c-24.28168,0.25232 -52.42905,6.78688 -52.42905,6.78688c0,0 -2.14924,-2.79064 -2.96211,-4.24395c-0.75415,-1.34834 -1.75217,-4.18463 -1.75217,-4.18463l7.51629,-30.19799"/><path d="M187.12381,170.92896l33.24877,-7.58347c0,0 4.01858,-13.69272 19.34312,-13.72196c15.50362,-0.02958 18.73828,13.60107 18.73828,13.60107l33.98904,7.41331"/></g></g></g></svg>