<svg version="1.1" xmlns="http://www.w3.org/2000/svg" xmlns:xlink="http://www.w3.org/1999/xlink" width="130.02625" height="75.94343" viewBox="0,0,130.02625,75.94343"><g transform="translate(-174.98688,-142.07753)"><g data-paper-data="{&quot;isPaintingLayer&quot;:true}" fill-rule="nonzero" stroke-linejoin="miter" stroke-miterlimit="10" stroke-dasharray="" stroke-dashoffset="0" style="mix-blend-mode: normal"><g><g fill="#0d1c55" stroke="#b60000" stroke-width="0" stroke-linecap="butt"><path d="M246.9006,215.36081c-10.97335,-0.39926 -41.05659,0.27593 -41.05659,0.27593l6,-70.85714c0,0 6.15454,-1.92373 22.16083,-2.62562c3.88115,-0.1702 8.47599,0.00037 13.54743,-0.02305c15.72876,-0.07264 38.86316,6.36297 38.86316,6.36297l3.59822,11.04463c0,0 12.18239,8.52507 14.15995,14.98333c2.89028,9.43899 -2.42348,22.61946 -4.76109,27.30411c-4.25158,8.52033 -25.56851,15.95364 -25.56851,15.95364c0,0 -15.1552,-1.98989 -26.94341,-2.41879z" data-paper-data="{&quot;index&quot;:null}"/><path d="M206.15599,217.92246c0,0 -21.31693,-7.43331 -25.56851,-15.95364c-2.3376,-4.68465 -7.65137,-17.86513 -4.76109,-27.30411c1.97756,-6.45826 14.0171,-15.12618 14.0171,-15.12618l3.74107,-10.90177c0,0 23.1344,-6.43561 38.86316,-6.36297c6.41751,0.02963 12.26127,-0.29556 17.42328,0.05848c15.74068,1.07959 25.14212,3.73306 25.14212,3.73306l-0.85715,69.71428c0,0 -30.08323,-0.67518 -41.05658,-0.27593c-11.78821,0.4289 -26.94341,2.41879 -26.94341,2.41879z"/></g><g fill="none" stroke="#091647" stroke-width="1" stroke-linecap="round"><path d="M206.32546,217.52097c0,0 -7.14588,-6.09817 -10.36866,-9.13276c-3.29923,-3.10657 -9.10281,-9.79242 -9.10281,-9.79242"/><path d="M293.14138,198.35609c0,0 -5.94433,6.60335 -9.18213,9.77391c-3.16277,3.09709 -10.44779,9.33197 -10.44779,9.33197" data-paper-data="{&quot;index&quot;:null}"/><path d="M290.22742,160.10079l7.33766,30.19481c0,0 -1.11248,3.39068 -1.99912,4.4873c-0.92154,1.13981 -2.61126,3.78543 -2.61126,3.78543c0,0 -32.01388,-7.05147 -53.7268,-6.82584c-24.28168,0.25232 -52.42905,6.78688 -52.42905,6.78688c0,0 -2.14924,-2.79064 -2.96211,-4.24395c-0.75415,-1.34834 -1.75217,-4.18463 -1.75217,-4.18463l7.51629,-30.19799"/><path d="M187.1238,170.92896l33.24877,-7.58347c0,0 4.01858,-13.69272 19.34312,-13.72196c15.50362,-0.02958 18.73828,13.60107 18.73828,13.60107l33.98904,7.41331"/></g></g><g fill="#aaadc9" stroke="none" stroke-width="0" stroke-linecap="butt"><g><g><path d="M263.7948,186.62781c-0.74816,0.05524 -1.32793,0.54304 -2.35967,0.31024c-1.39007,-0.31365 -0.99536,-0.78124 -1.49902,-1.09842c-0.42054,-0.26483 -1.15403,0.03666 -1.61549,-0.56631c-0.66262,-0.86581 -0.12466,-1.47954 -0.17504,-2.12795c-0.04555,-0.58628 -0.99155,-1.05306 -0.31413,-2.051c0.59966,-0.88338 1.25656,-0.5259 1.69651,-0.8999c0.48588,-0.41304 0.12766,-1.12942 1.47733,-1.57802c1.16015,-0.3856 1.49996,0.21585 2.17994,0.16564c0.7686,-0.05676 1.42639,7.78541 0.60958,7.84573z"/><path d="M263.19065,178.78168c0.67997,-0.05021 0.92298,-0.69472 2.12947,-0.48388c1.40359,0.24529 1.16013,1.0061 1.70429,1.34308c0.49271,0.30512 1.08688,-0.14474 1.81619,0.64051c0.82388,0.88708 -0.03921,1.48745 0.00634,2.07373c0.05038,0.6484 0.67702,1.17613 0.15573,2.12937c-0.36304,0.66385 -1.13473,0.47351 -1.50956,0.79708c-0.44891,0.38752 0.01355,0.79181 -1.3122,1.30602c-0.98401,0.38166 -1.63252,-0.01544 -2.38068,0.03981c-0.81681,0.06032 -1.37817,-7.78897 -0.60958,-7.84572z" data-paper-data="{&quot;index&quot;:null}"/></g><path d="M255.36146,186.52871l2.81175,-1.33651l-0.02224,0.95573l2.2561,-1.08073l0.7964,0.54116l-4.1007,2.15161l0.1278,-1.15741l-2.86123,1.39718l0.16799,-0.96288l-2.51394,0.91153c0,0 1.42935,-1.28965 1.9167,-1.62595c0.48735,-0.33631 1.63584,-0.94091 1.63584,-0.94091z" data-paper-data="{&quot;index&quot;:null}"/><path d="M255.20453,178.64479l2.92854,0.75686l-0.61237,0.69836l2.355,0.60108l0.25613,0.89976l-4.39722,-0.95298l0.81677,-0.78285l-3.00324,-0.7425l0.72546,-0.61283l-2.44167,-0.88791c0,0 1.86914,-0.07 2.44198,-0.0168c0.57283,0.0532 1.80562,0.31861 1.80562,0.31861z" data-paper-data="{&quot;index&quot;:null}"/><path d="M259.27143,183.26884l-6.32685,-0.71039c0,0 0.62414,0.89471 0.39089,0.79352c-0.11399,-0.04944 -0.62029,-0.30866 -1.04235,-0.6518c-0.37932,-0.3084 -0.68415,-0.70669 -0.68415,-0.70669c0,0 0.39487,-0.33026 0.91386,-0.55392c0.44331,-0.19105 1.01167,-0.27876 1.12234,-0.29758c0.25838,-0.04395 -0.6262,0.68484 -0.6262,0.68484l6.34825,0.64427z" data-paper-data="{&quot;index&quot;:null}"/></g><g><path d="M276.58373,184.00132c-0.66739,0.14695 -1.1268,0.66203 -2.08727,0.58608c-1.29405,-0.10233 -0.99887,-0.57516 -1.49417,-0.79575c-0.41355,-0.18418 -1.03574,0.18288 -1.53009,-0.30086c-0.70984,-0.69461 -0.30449,-1.3178 -0.4341,-1.89588c-0.11719,-0.52269 -1.03073,-0.82075 -0.54951,-1.80847c0.42598,-0.87434 1.06467,-0.63731 1.41278,-1.03163c0.38445,-0.4355 -0.03154,-1.03489 1.12713,-1.61459c0.99597,-0.4983 1.38044,-0.00012 1.987,-0.13367c0.68562,-0.15096 2.29686,6.83436 1.56822,6.99479z"/><path d="M275.02035,177.00547c0.60656,-0.13355 0.74198,-0.74621 1.85717,-0.71274c1.29737,0.03892 1.17663,0.75651 1.71101,0.98969c0.48386,0.21114 0.96118,-0.27162 1.72069,0.3417c0.858,0.69285 0.15776,1.34623 0.27495,1.86892c0.12961,0.57808 0.76313,0.97253 0.41687,1.89968c-0.24113,0.64568 -0.96162,0.57427 -1.25757,0.91466c-0.35444,0.40768 0.11502,0.71216 -1.01356,1.34791c-0.83766,0.47187 -1.47393,0.19802 -2.14132,0.34497c-0.72863,0.16043 -2.25385,-6.84383 -1.56823,-6.99478z" data-paper-data="{&quot;index&quot;:null}"/></g><path d="M269.24784,185.83914l2.11138,-1.8933l0.22726,0.84067l1.69198,-1.52643l0.8354,0.26721l-3.02702,2.93803l-0.18708,-1.04409l-2.13895,1.95906l-0.10177,-0.88453l-1.9609,1.44517c0,0 0.91582,-1.49555 1.25477,-1.91513c0.33895,-0.41958 1.18622,-1.24419 1.18622,-1.24419z" data-paper-data="{&quot;index&quot;:null}"/><path d="M268.05206,177.83555l2.73872,0.30219l-0.46147,0.70917l2.20137,0.2362l0.34775,0.778l-4.08838,-0.28834l0.63479,-0.81188l-2.8042,-0.27955l0.57453,-0.64673l-2.31676,-0.48356c0,0 1.67619,-0.30579 2.19958,-0.33219c0.52339,-0.0264 1.66935,0.05284 1.66935,0.05284z" data-paper-data="{&quot;index&quot;:null}"/><path d="M287.74128,180.7678c-0.58276,0.18738 -0.94895,0.68548 -1.81188,0.69883c-1.16262,0.01798 -0.93931,-0.4286 -1.39962,-0.5835c-0.38434,-0.12933 -0.9082,0.25052 -1.38988,-0.13914c-0.69165,-0.55951 -0.38277,-1.14947 -0.54715,-1.65405c-0.14862,-0.45623 -0.98845,-0.6449 -0.64269,-1.56634c0.30607,-0.81567 0.89565,-0.6582 1.17279,-1.03923c0.30608,-0.42081 -0.11548,-0.92022 0.86885,-1.53498c0.84611,-0.52844 1.23102,-0.11663 1.76065,-0.28693c0.59867,-0.1925 2.62516,5.90077 1.98892,6.10534z"/><path d="M285.75658,174.6611c0.52963,-0.1703 0.59869,-0.72807 1.59599,-0.79236c1.16024,-0.0748 1.11314,0.5753 1.60936,0.73814c0.44931,0.14744 0.83421,-0.32335 1.56329,0.15948c0.82362,0.54543 0.25432,1.1872 0.40295,1.64343c0.16438,0.50457 0.76262,0.80286 0.5321,1.65888c-0.16053,0.59615 -0.80907,0.59328 -1.04425,0.92181c-0.28166,0.39348 0.16268,0.62537 -0.79008,1.28758c-0.70716,0.4915 -1.29768,0.30101 -1.88043,0.48839c-0.63623,0.20457 -2.5876,-5.91284 -1.98893,-6.10534z" data-paper-data="{&quot;index&quot;:null}"/><path d="M281.28423,182.70516l1.77387,-1.81836l0.25337,0.73777l1.42096,-1.46541l0.76262,0.18888l-2.52977,2.80685l-0.22963,-0.92198l-1.79458,1.8788l-0.14383,-0.78447l-1.66617,1.40885c0,0 0.72911,-1.3914 1.00696,-1.78667c0.27785,-0.39527 0.98581,-1.18291 0.98581,-1.18291z" data-paper-data="{&quot;index&quot;:null}"/><path d="M279.39666,176.08496l2.4678,0.03831l-0.35166,0.67137l1.98305,0.02481l0.37579,0.66444l-3.67021,0.08797l0.49755,-0.77759l-2.52429,-0.01258l0.45776,-0.62523l-2.10683,-0.23566c0,0 1.46895,-0.41418 1.93347,-0.48191c0.46452,-0.06773 1.49313,-0.09379 1.49313,-0.09379z" data-paper-data="{&quot;index&quot;:null}"/><path d="M283.62274,179.20814l-4.71648,2.20526c0,0 0.87757,0.32323 0.66671,0.35894c-0.09031,0.0153 -0.55172,0.10073 -0.94462,0.07291c-0.45997,-0.03256 -0.85304,-0.18065 -0.85304,-0.18065c0,0 0.12758,-0.38886 0.33674,-0.72853c0.23273,-0.37793 0.55294,-0.7139 0.62743,-0.78267c0.15243,-0.14073 -0.08747,0.71646 -0.08747,0.71646l4.68219,-2.25042z" data-paper-data="{&quot;index&quot;:null}"/><path d="M272.89243,181.54665l-5.04121,1.30174c0,0 0.80329,0.47888 0.58947,0.47526c-0.09159,-0.00155 -0.56083,-0.00229 -0.94195,-0.10178c-0.44617,-0.11647 -0.80537,-0.33421 -0.80537,-0.33421c0,0 0.1968,-0.35882 0.46479,-0.65431c0.29816,-0.32877 0.67462,-0.60024 0.76047,-0.65416c0.17568,-0.11035 -0.21754,0.68822 -0.21754,0.68822l5.01581,-1.35243z" data-paper-data="{&quot;index&quot;:null}"/></g><g data-paper-data="{&quot;index&quot;:null}" fill="#aaadc9" stroke="none" stroke-width="0" stroke-linecap="butt"><g><g><path d="M216.3155,178.95449c0.67997,0.05021 1.01978,-0.55125 2.17994,-0.16565c1.34968,0.4486 0.99146,1.16498 1.47734,1.57803c0.43995,0.374 1.09685,0.01651 1.69651,0.8999c0.67742,0.99794 -0.26858,1.46473 -0.31413,2.05101c-0.05038,0.64841 0.48758,1.26213 -0.17504,2.12794c-0.46146,0.60298 -1.19495,0.30148 -1.61549,0.56632c-0.50367,0.31718 -0.10896,0.78477 -1.49903,1.09842c-1.03174,0.2328 -1.61151,-0.255 -2.35967,-0.31024c-0.81682,-0.06032 -0.15902,-7.90248 0.60958,-7.84573z"/><path d="M215.7005,186.79982c-0.74816,-0.05524 -1.39667,0.34185 -2.38068,-0.03981c-1.32575,-0.51421 -0.86329,-0.9185 -1.31221,-1.30602c-0.37482,-0.32357 -1.14652,-0.13323 -1.50955,-0.79708c-0.52129,-0.95324 0.10535,-1.48097 0.15573,-2.12937c0.04555,-0.58628 -0.81754,-1.18666 0.00634,-2.07373c0.72931,-0.78525 1.32348,-0.33539 1.81619,-0.64051c0.54415,-0.33698 0.3007,-1.09779 1.70429,-1.34308c1.20649,-0.21084 1.44949,0.43366 2.12946,0.48387c0.7686,0.05676 0.20723,7.90604 -0.60958,7.84573z" data-paper-data="{&quot;index&quot;:null}"/></g><path d="M223.92477,185.55394c0,0 1.14849,0.6046 1.63584,0.94091c0.48735,0.33631 1.9167,1.62595 1.9167,1.62595l-2.51394,-0.91153l0.16799,0.96289l-2.86122,-1.39718l0.12779,1.15741l-4.10069,-2.1516l0.7964,-0.54116l2.2561,1.08073l-0.02224,-0.95573l2.81175,1.33651z" data-paper-data="{&quot;index&quot;:null}"/><path d="M223.42119,178.09601c0,0 1.23278,-0.26541 1.80561,-0.31861c0.57283,-0.0532 2.44198,0.0168 2.44198,0.0168l-2.44167,0.88791l0.72546,0.61283l-3.00324,0.7425l0.81677,0.78285l-4.39722,0.95298l0.25613,-0.89976l2.355,-0.60108l-0.61237,-0.69836l2.92854,-0.75686z" data-paper-data="{&quot;index&quot;:null}"/><path d="M220.13351,182.6435l6.34825,-0.64427c0,0 -0.88458,-0.72879 -0.6262,-0.68484c0.11067,0.01882 0.67903,0.10653 1.12234,0.29758c0.51899,0.22366 0.91385,0.55392 0.91385,0.55392c0,0 -0.30482,0.39829 -0.68415,0.70669c-0.42206,0.34314 -0.92836,0.60236 -1.04235,0.6518c-0.23325,0.10119 0.39089,-0.79352 0.39089,-0.79352l-6.32686,0.71039z" data-paper-data="{&quot;index&quot;:null}"/></g><g><path d="M204.48522,177.17894c0.60656,0.13355 0.99103,-0.36463 1.987,0.13367c1.15866,0.5797 0.74268,1.17909 1.12713,1.61459c0.34811,0.39433 0.98681,0.1573 1.41278,1.03164c0.48122,0.98772 -0.43232,1.28577 -0.54951,1.80846c-0.12961,0.57809 0.27575,1.20127 -0.4341,1.89588c-0.49435,0.48374 -1.11654,0.11669 -1.5301,0.30087c-0.4953,0.22059 -0.20012,0.69343 -1.49417,0.79575c-0.96047,0.07595 -1.41987,-0.43913 -2.08727,-0.58608c-0.72863,-0.16043 0.88261,-7.14575 1.56823,-6.99479z"/><path d="M202.91214,184.17267c-0.66739,-0.14695 -1.30366,0.1269 -2.14132,-0.34497c-1.12858,-0.63575 -0.65912,-0.94023 -1.01356,-1.34791c-0.29595,-0.3404 -1.01644,-0.26898 -1.25757,-0.91466c-0.34625,-0.92715 0.28726,-1.3216 0.41687,-1.89968c0.11719,-0.52269 -0.58305,-1.17607 0.27495,-1.86892c0.75951,-0.61332 1.23683,-0.13056 1.72069,-0.3417c0.53438,-0.23318 0.41364,-0.95076 1.71101,-0.98969c1.11518,-0.03346 1.25061,0.57919 1.85717,0.71274c0.68562,0.15096 -0.8396,7.15521 -1.56823,6.99479z" data-paper-data="{&quot;index&quot;:null}"/></g><path d="M210.36161,184.95402c0,0 0.84727,0.8246 1.18622,1.24419c0.33895,0.41958 1.25477,1.91513 1.25477,1.91513l-1.9609,-1.44516l-0.10177,0.88453l-2.13895,-1.95907l-0.18709,1.04409l-3.02702,-2.93803l0.83541,-0.26721l1.69198,1.52643l0.22725,-0.84067l2.11138,1.89329z" data-paper-data="{&quot;index&quot;:null}"/><path d="M210.75337,177.24411c0,0 1.14596,-0.07925 1.66935,-0.05284c0.52339,0.0264 2.19958,0.33219 2.19958,0.33219l-2.31677,0.48356l0.57454,0.64673l-2.80421,0.27955l0.63479,0.81188l-4.08838,0.28834l0.34775,-0.778l2.20138,-0.2362l-0.46147,-0.70917l2.73872,-0.30219z" data-paper-data="{&quot;index&quot;:null}"/><path d="M193.74837,174.83487c0.52963,0.1703 0.91455,-0.2415 1.76065,0.28693c0.98433,0.61476 0.56277,1.11417 0.86885,1.53498c0.27715,0.38103 0.86672,0.22356 1.17279,1.03923c0.34576,0.92144 -0.49406,1.11011 -0.64269,1.56634c-0.16438,0.50458 0.1445,1.09453 -0.54715,1.65404c-0.48168,0.38966 -1.00554,0.00981 -1.38988,0.13915c-0.46031,0.1549 -0.237,0.60148 -1.39962,0.5835c-0.86293,-0.01335 -1.22912,-0.51145 -1.81188,-0.69883c-0.63623,-0.20457 1.39025,-6.29784 1.98892,-6.10534z"/><path d="M191.75522,180.93885c-0.58276,-0.18738 -1.17327,0.00312 -1.88044,-0.48839c-0.95276,-0.66221 -0.50842,-0.8941 -0.79008,-1.28757c-0.23518,-0.32854 -0.88371,-0.32567 -1.04425,-0.92182c-0.23052,-0.85603 0.36773,-1.15431 0.5321,-1.65888c0.14862,-0.45623 -0.42068,-1.098 0.40295,-1.64343c0.72908,-0.48282 1.11398,-0.01203 1.56329,-0.15948c0.49622,-0.16284 0.44912,-0.81294 1.60936,-0.73814c0.9973,0.06429 1.06636,0.62207 1.596,0.79237c0.59867,0.1925 -1.3527,6.3099 -1.98893,6.10533z" data-paper-data="{&quot;index&quot;:null}"/><path d="M198.37689,181.93889c0,0 0.70795,0.78765 0.9858,1.18292c0.27785,0.39527 1.00696,1.78667 1.00696,1.78667l-1.66616,-1.40885l-0.14384,0.78447l-1.79457,-1.87879l-0.22963,0.92198l-2.52977,-2.80685l0.76262,-0.18888l1.42096,1.4654l0.25337,-0.73776l1.77387,1.81837z" data-paper-data="{&quot;index&quot;:null}"/><path d="M199.54851,175.5175c0,0 1.02862,0.02606 1.49313,0.09379c0.46452,0.06773 1.93347,0.48191 1.93347,0.48191l-2.10683,0.23566l0.45776,0.62523l-2.52429,0.01259l0.49755,0.77759l-3.67021,-0.08797l0.37579,-0.66444l1.98304,-0.02481l-0.35166,-0.67137l2.4678,-0.03831z" data-paper-data="{&quot;index&quot;:null}"/><path d="M196.16653,178.79185l4.68219,2.25042c0,0 -0.2399,-0.85719 -0.08747,-0.71646c0.07449,0.06877 0.3947,0.40474 0.62743,0.78267c0.20916,0.33967 0.33674,0.72853 0.33674,0.72853c0,0 -0.39307,0.14809 -0.85304,0.18065c-0.3929,0.02781 -0.85431,-0.05762 -0.94463,-0.07291c-0.21086,-0.03571 0.66671,-0.35895 0.66671,-0.35895l-4.71648,-2.20526z" data-paper-data="{&quot;index&quot;:null}"/><path d="M206.78383,181.08739l5.01581,1.35243c0,0 -0.39322,-0.79857 -0.21754,-0.68822c0.08585,0.05392 0.46231,0.32539 0.76047,0.65416c0.26798,0.29549 0.46479,0.65431 0.46479,0.65431c0,0 -0.35919,0.21774 -0.80537,0.33421c-0.38112,0.09949 -0.85036,0.10023 -0.94195,0.10178c-0.21383,0.00362 0.58947,-0.47526 0.58947,-0.47526l-5.04121,-1.30174z" data-paper-data="{&quot;index&quot;:null}"/></g></g></g></svg>