<svg version="1.1" xmlns="http://www.w3.org/2000/svg" xmlns:xlink="http://www.w3.org/1999/xlink" width="30.03043" height="24.06169" viewBox="0,0,30.03043,24.06169"><g transform="translate(-224.99,-167.92562)"><g data-paper-data="{&quot;isPaintingLayer&quot;:true}" fill-rule="nonzero" stroke-width="0.5" stroke-linecap="round" stroke-linejoin="miter" stroke-miterlimit="10" stroke-dasharray="" stroke-dashoffset="0" style="mix-blend-mode: normal"><g stroke="#000d46"><path d="M239.83659,191.73731c-4.90541,0 -14.54434,-3.97041 -14.54434,-3.97041c0,0 2.41592,-8.37902 4.74257,-11.48448c0.94453,-1.2607 2.54432,-2.69907 4.17776,-4.00627c0.14329,-0.11467 0.34809,0.42256 0.49147,0.31011c2.59622,-2.03596 5.0785,-4.32357 5.0785,-4.32357c0,0 2.54064,2.25497 5.15144,4.26415c0.17433,0.13416 0.40995,-0.38077 0.58358,-0.24336c1.48006,1.17129 2.90691,2.44787 3.80249,3.60869c2.43386,3.15467 5.38769,11.87474 5.38769,11.87474c0,0 -9.89087,3.9704 -14.87116,3.9704z" fill="#0d1c55"/><path d="M239.82798,168.84725l0.06216,22.52853" fill="none"/><g><path d="M226.50344,188.2988c0,0 2.75848,-5.20576 6.45453,-8.40799c2.54342,-2.20359 5.59994,-3.8123 7.09958,-4.32307c1.40409,-0.47822 5.36827,-3.3421 5.36827,-3.3421" fill="none"/><path d="M239.68865,175.64951c0,0 -1.84185,-0.62797 -2.82735,-1.20021c-0.99474,-0.57761 -2.56422,-2.21083 -2.56422,-2.21083" fill="#0c194e"/></g></g><path d="M226.52642,188.29222l-0.0696,-0.21838" fill="none" stroke="#c7c8d6"/><path d="M227.0072,187.54173l-0.08118,-0.21434" fill="none" stroke="#c7c8d6"/><path d="M227.51563,186.76315l-0.09802,-0.20718" fill="none" stroke="#c7c8d6"/><path d="M229.44643,183.57992l0.09343,0.20929" fill="none" stroke="#c7c8d6"/><path d="M230.03382,183.08958l-0.08441,-0.21309" fill="none" stroke="#c7c8d6"/><path d="M230.4803,182.21622l0.06959,0.21838" fill="none" stroke="#c7c8d6"/><path d="M231.09836,181.78612l-0.06959,-0.21838" fill="none" stroke="#c7c8d6"/><path d="M231.68112,181.15763l-0.05038,-0.2236" fill="none" stroke="#c7c8d6"/><path d="M232.27293,180.5474l-0.04621,-0.22449" fill="none" stroke="#c7c8d6"/><path d="M227.94853,185.75337l0.08618,0.21238" fill="none" stroke="#c7c8d6"/><path d="M228.47599,185.00282l0.07514,0.21654" fill="none" stroke="#c7c8d6"/><path d="M229.04089,184.48576l-0.10161,-0.20545" fill="none" stroke="#c7c8d6"/><path d="M237.12516,177.14921l0.01581,-0.22866" fill="none" stroke="#c7c8d6"/><path d="M237.88119,176.74751l0.03185,-0.22698" fill="none" stroke="#c7c8d6"/><path d="M238.69936,176.03852l-0.03185,0.22698" fill="none" stroke="#c7c8d6"/><path d="M241.81873,174.78347l0.0168,-0.22859" fill="none" stroke="#c7c8d6"/><path d="M242.52969,174.31116l0.0168,-0.22859" fill="none" stroke="#c7c8d6"/><path d="M243.25232,173.62014l-0.0168,0.22859" fill="none" stroke="#c7c8d6"/><path d="M243.97909,173.41743l0.0168,-0.22859" fill="none" stroke="#c7c8d6"/><path d="M244.69004,172.92165l0.0168,-0.22859" fill="none" stroke="#c7c8d6"/><path d="M245.41267,172.20715l-0.0168,0.22859" fill="none" stroke="#c7c8d6"/><path d="M239.49918,175.95184l0.0168,-0.22859" fill="none" stroke="#c7c8d6"/><path d="M240.28055,175.57344l0.0168,-0.22859" fill="none" stroke="#c7c8d6"/><path d="M241.05681,175.2049l0.0168,-0.22859" fill="none" stroke="#c7c8d6"/><path d="M232.94174,179.97909l-0.01638,-0.22862" fill="none" stroke="#c7c8d6"/><path d="M233.63179,179.44835l-0.01669,-0.22859" fill="none" stroke="#c7c8d6"/><path d="M234.32972,178.97133l-0.00262,-0.22919" fill="none" stroke="#c7c8d6"/><path d="M235.00905,178.2748l0.00863,0.22904" fill="none" stroke="#c7c8d6"/><path d="M235.70075,177.74402l0.00502,0.22915" fill="none" stroke="#c7c8d6"/><path d="M236.38343,177.26668l0.00262,0.22919" fill="none" stroke="#c7c8d6"/><path d="M237.87177,174.57835l0.0168,0.22859" data-paper-data="{&quot;index&quot;:null}" fill="none" stroke="#c7c8d6"/><path d="M237.16082,174.10606l0.0168,0.22858" data-paper-data="{&quot;index&quot;:null}" fill="none" stroke="#c7c8d6"/><path d="M236.45497,173.64361l0.0168,0.22859" data-paper-data="{&quot;index&quot;:null}" fill="none" stroke="#c7c8d6"/><path d="M235.71141,173.21231l0.0168,0.22859" data-paper-data="{&quot;index&quot;:null}" fill="none" stroke="#c7c8d6"/><path d="M235.01727,172.94513l-0.0168,-0.22858" data-paper-data="{&quot;index&quot;:null}" fill="none" stroke="#c7c8d6"/><path d="M234.29464,172.23063l0.0168,0.22859" data-paper-data="{&quot;index&quot;:null}" fill="none" stroke="#c7c8d6"/><path d="M239.40995,175.36832l0.0168,0.22859" data-paper-data="{&quot;index&quot;:null}" fill="none" stroke="#c7c8d6"/><path d="M238.63369,174.99978l0.0168,0.22858" data-paper-data="{&quot;index&quot;:null}" fill="none" stroke="#c7c8d6"/></g></g></svg>