<svg version="1.1" xmlns="http://www.w3.org/2000/svg" xmlns:xlink="http://www.w3.org/1999/xlink" width="180.10017" height="65.07215" viewBox="0,0,180.10017,65.07215"><g transform="translate(-149.94992,-147.46393)"><g data-paper-data="{&quot;isPaintingLayer&quot;:true}" fill-rule="nonzero" stroke-linecap="round" stroke-linejoin="miter" stroke-miterlimit="10" stroke-dasharray="" stroke-dashoffset="0" style="mix-blend-mode: normal"><path d="M325.35778,212.21272l-175.40787,0.32335c0,0 0.30019,-15.90061 1.28413,-25.93791c0.86673,-8.84167 7.40439,-31.27004 7.40439,-31.27004c0,0 23.99837,-5.5695 51.83885,-7.10222c22.68083,-1.24867 55.93379,0.35321 63.88017,1.49778c24.72474,3.56129 37.48868,12.02655 37.48868,12.02655c0,0 4.04826,2.89469 9.5508,20.70823c1.93971,6.27949 3.47695,20.07638 3.47695,20.07638z" fill="#0d1c55" stroke="#08123b" stroke-width="0"/><path d="M155.12611,202.2269c0,0 1.53725,-13.79689 3.47696,-20.07638c5.50254,-17.81354 9.5508,-20.70823 9.5508,-20.70823c0,0 12.76396,-8.46525 37.48868,-12.02654c7.94637,-1.14457 41.19934,-2.74645 63.88017,-1.49778c27.84047,1.53272 51.83884,7.10222 51.83884,7.10222c0,0 6.53765,22.42837 7.40439,31.27004c0.98394,10.03729 1.28413,25.93791 1.28413,25.93791l-175.40787,-0.32335z" data-paper-data="{&quot;index&quot;:null}" fill="#0d1c55" stroke="#08123b" stroke-width="0"/><path d="M326.21284,177.75014c0,0 -58.50445,1.14257 -87.42061,1.14924c-28.47488,0.00657 -84.77287,-1.10954 -84.77287,-1.10954" fill="none" stroke="#aaadc9" stroke-width="3"/></g></g></svg>