<svg version="1.1" xmlns="http://www.w3.org/2000/svg" xmlns:xlink="http://www.w3.org/1999/xlink" width="180.10018" height="65.07215" viewBox="0,0,180.10018,65.07215"><g transform="translate(-149.94991,-147.46393)"><g data-paper-data="{&quot;isPaintingLayer&quot;:true}" fill-rule="nonzero" stroke-linecap="round" stroke-linejoin="miter" stroke-miterlimit="10" stroke-dasharray="" stroke-dashoffset="0" style="mix-blend-mode: normal"><g><path d="M325.35778,212.21272l-175.40787,0.32335c0,0 0.30019,-15.90061 1.28413,-25.93791c0.86673,-8.84167 7.40439,-31.27004 7.40439,-31.27004c0,0 23.99838,-5.5695 51.83885,-7.10223c22.68083,-1.24867 55.93379,0.3532 63.88016,1.49778c24.72474,3.56129 37.48869,12.02655 37.48869,12.02655c0,0 4.04826,2.8947 9.5508,20.70823c1.93971,6.27949 3.47695,20.07638 3.47695,20.07638z" fill="#0d1c55" stroke="#08123b" stroke-width="0"/><path d="M155.12611,202.22691c0,0 1.53725,-13.79689 3.47696,-20.07638c5.50254,-17.81353 9.5508,-20.70823 9.5508,-20.70823c0,0 12.76395,-8.46526 37.48869,-12.02655c7.94637,-1.14458 41.19934,-2.74645 63.88016,-1.49778c27.84047,1.53273 51.83885,7.10223 51.83885,7.10223c0,0 6.53765,22.42837 7.40439,31.27004c0.98394,10.03729 1.28413,25.93791 1.28413,25.93791l-175.40787,-0.32335z" data-paper-data="{&quot;index&quot;:null}" fill="#0d1c55" stroke="#08123b" stroke-width="0"/><path d="M326.21284,177.75013c0,0 -58.50445,1.14258 -87.42061,1.14924c-28.47488,0.00656 -84.77287,-1.10954 -84.77287,-1.10954" fill="none" stroke="#091647" stroke-width="3"/></g><path d="M155.01198,178.49427l-0.57343,-1.38733" fill="none" stroke="#aaadc9" stroke-width="1.5"/><path d="M158.08567,178.61852l-0.57342,-1.38733" fill="none" stroke="#aaadc9" stroke-width="1.5"/><path d="M161.13977,178.68718l-0.57343,-1.38733" fill="none" stroke="#aaadc9" stroke-width="1.5"/><path d="M164.18356,178.727l-0.61574,-1.36905" fill="none" stroke="#aaadc9" stroke-width="1.5"/><path d="M166.70891,177.32612l0.48571,1.42042" fill="none" stroke="#aaadc9" stroke-width="1.5"/><path d="M170.26603,178.75145l-0.51902,-1.40858" fill="none" stroke="#aaadc9" stroke-width="1.5"/><path d="M172.61919,177.41103l0.57342,1.38733" fill="none" stroke="#aaadc9" stroke-width="1.5"/><path d="M176.26631,178.85067l-0.57342,-1.38733" fill="none" stroke="#aaadc9" stroke-width="1.5"/><path d="M179.32039,178.91934l-0.57342,-1.38733" fill="none" stroke="#aaadc9" stroke-width="1.5"/><path d="M181.74846,177.59011l0.61575,1.36905" fill="none" stroke="#aaadc9" stroke-width="1.5"/><path d="M185.44027,179.02496l-0.61575,-1.36906" fill="none" stroke="#aaadc9" stroke-width="1.5"/><path d="M187.87928,177.66673l0.61575,1.36906" fill="none" stroke="#aaadc9" stroke-width="1.5"/><path d="M190.94369,177.71514l0.57342,1.38733" fill="none" stroke="#aaadc9" stroke-width="1.5"/><path d="M194.59081,179.11881l-0.57342,-1.38733" fill="none" stroke="#aaadc9" stroke-width="1.5"/><path d="M197.6449,179.18748l-0.57342,-1.38733" fill="none" stroke="#aaadc9" stroke-width="1.5"/><path d="M200.07296,177.85824l0.61575,1.36906" fill="none" stroke="#aaadc9" stroke-width="1.5"/><path d="M203.14903,177.92403l0.61574,1.36906" fill="none" stroke="#aaadc9" stroke-width="1.5"/><path d="M206.20378,177.97083l0.61575,1.36906" fill="none" stroke="#aaadc9" stroke-width="1.5"/><path d="M209.19626,177.98326l0.57343,1.38733" fill="none" stroke="#aaadc9" stroke-width="1.5"/><path d="M212.26996,177.99962l0.57342,1.38733" fill="none" stroke="#aaadc9" stroke-width="1.5"/><path d="M215.89747,179.45561l-0.57342,-1.38733" fill="none" stroke="#aaadc9" stroke-width="1.5"/><path d="M218.32553,178.12637l0.61574,1.36905" fill="none" stroke="#aaadc9" stroke-width="1.5"/><path d="M222.01735,179.48928l-0.61575,-1.36906" fill="none" stroke="#aaadc9" stroke-width="1.5"/><path d="M225.0721,179.5694l-0.61575,-1.36906" fill="none" stroke="#aaadc9" stroke-width="1.5"/><path d="M228.14775,179.63468l-0.6094,-1.3719" fill="none" stroke="#aaadc9" stroke-width="1.5"/><path d="M230.61425,178.30686l0.6094,1.3719" fill="none" stroke="#aaadc9" stroke-width="1.5"/><path d="M234.27849,179.66778l-0.6094,-1.3719" fill="none" stroke="#aaadc9" stroke-width="1.5"/><path d="M237.28104,179.6466l-0.56872,-1.38926" fill="none" stroke="#aaadc9" stroke-width="1.5"/><path d="M239.81025,178.23128l0.52257,1.40727" fill="none" stroke="#aaadc9" stroke-width="1.5"/><path d="M243.40332,179.63267l-0.55556,-1.39457" fill="none" stroke="#aaadc9" stroke-width="1.5"/><path d="M245.72073,178.16207l0.6094,1.3719" fill="none" stroke="#aaadc9" stroke-width="1.5"/><path d="M249.40415,179.57542l-0.6094,-1.3719" fill="none" stroke="#aaadc9" stroke-width="1.5"/><path d="M252.45899,179.49515l-0.6094,-1.3719" fill="none" stroke="#aaadc9" stroke-width="1.5"/><path d="M255.50281,179.52489l-0.65124,-1.35254" fill="none" stroke="#aaadc9" stroke-width="1.5"/><path d="M258.57954,179.44119l-0.65124,-1.35255" fill="none" stroke="#aaadc9" stroke-width="1.5"/><path d="M260.98231,178.08911l0.65124,1.35255" fill="none" stroke="#aaadc9" stroke-width="1.5"/><path d="M264.65634,179.42951l-0.6094,-1.3719" fill="none" stroke="#aaadc9" stroke-width="1.5"/><path d="M267.72943,179.435l-0.6094,-1.3719" fill="none" stroke="#aaadc9" stroke-width="1.5"/><path d="M270.17486,178.05212l0.6094,1.3719" fill="none" stroke="#aaadc9" stroke-width="1.5"/><path d="M273.82807,179.38447l-0.65124,-1.35254" fill="none" stroke="#aaadc9" stroke-width="1.5"/><path d="M276.25357,177.94822l0.65124,1.35255" fill="none" stroke="#aaadc9" stroke-width="1.5"/><path d="M279.30851,177.91537l0.65124,1.35255" fill="none" stroke="#aaadc9" stroke-width="1.5"/><path d="M282.90969,179.22168l-0.6094,-1.3719" fill="none" stroke="#aaadc9" stroke-width="1.5"/><path d="M285.37338,177.78599l0.6094,1.3719" fill="none" stroke="#aaadc9" stroke-width="1.5"/><path d="M289.03761,179.21619l-0.6094,-1.3719" fill="none" stroke="#aaadc9" stroke-width="1.5"/><path d="M291.43019,177.75482l0.65124,1.35254" fill="none" stroke="#aaadc9" stroke-width="1.5"/><path d="M294.50506,177.73776l0.65124,1.35255" fill="none" stroke="#aaadc9" stroke-width="1.5"/><path d="M297.55905,177.66895l0.65124,1.35255" fill="none" stroke="#aaadc9" stroke-width="1.5"/><path d="M301.40142,178.89593l-0.65115,-1.35258" fill="none" stroke="#aaadc9" stroke-width="1.5"/><path d="M304.42422,178.88396l-0.60931,-1.37194" fill="none" stroke="#aaadc9" stroke-width="1.5"/><path d="M307.4973,178.82036l-0.60931,-1.37194" fill="none" stroke="#aaadc9" stroke-width="1.5"/><path d="M309.94283,177.36833l0.60931,1.37194" fill="none" stroke="#aaadc9" stroke-width="1.5"/><path d="M313.59595,178.77019l-0.65115,-1.35258" fill="none" stroke="#aaadc9" stroke-width="1.5"/><path d="M316.6727,178.68666l-0.65115,-1.35258" fill="none" stroke="#aaadc9" stroke-width="1.5"/><path d="M319.16516,177.26547l0.47378,1.42443" fill="none" stroke="#aaadc9" stroke-width="1.5"/><path d="M322.67759,178.60792l-0.60931,-1.37194" fill="none" stroke="#aaadc9" stroke-width="1.5"/><path d="M325.41866,178.50078l-0.60931,-1.37194" fill="none" stroke="#aaadc9" stroke-width="1.5"/></g></g></svg>