<svg version="1.1" xmlns="http://www.w3.org/2000/svg" xmlns:xlink="http://www.w3.org/1999/xlink" width="180.10016" height="65.07215" viewBox="0,0,180.10016,65.07215"><g transform="translate(-149.94992,-147.46393)"><g data-paper-data="{&quot;isPaintingLayer&quot;:true}" fill-rule="nonzero" stroke-linecap="round" stroke-linejoin="miter" stroke-miterlimit="10" stroke-dasharray="" stroke-dashoffset="0" style="mix-blend-mode: normal"><path d="M325.35779,212.21272l-175.40787,0.32335c0,0 0.30019,-15.90061 1.28413,-25.93791c0.86673,-8.84167 7.40439,-31.27004 7.40439,-31.27004c0,0 23.99838,-5.5695 51.83885,-7.10222c22.68083,-1.24867 55.93379,0.35321 63.88016,1.49778c24.72474,3.56129 37.48868,12.02654 37.48868,12.02654c0,0 4.04826,2.8947 9.5508,20.70823c1.93971,6.27949 3.47695,20.07639 3.47695,20.07639z" fill="#0d1c55" stroke="#08123b" stroke-width="0"/><path d="M155.12611,202.22691c0,0 1.53724,-13.7969 3.47695,-20.07639c5.50254,-17.81353 9.5508,-20.70823 9.5508,-20.70823c0,0 12.76396,-8.46525 37.48868,-12.02654c7.94637,-1.14458 41.19934,-2.74645 63.88017,-1.49778c27.84047,1.53273 51.83885,7.10222 51.83885,7.10222c0,0 6.53765,22.42837 7.40439,31.27004c0.98394,10.0373 1.28413,25.93791 1.28413,25.93791l-175.40787,-0.32335z" data-paper-data="{&quot;index&quot;:null}" fill="#0d1c55" stroke="#08123b" stroke-width="0"/><path d="M326.21285,177.75013c0,0 -58.50445,1.14257 -87.42061,1.14924c-28.47488,0.00657 -84.77287,-1.10954 -84.77287,-1.10954" fill="none" stroke="#091647" stroke-width="3"/></g></g></svg>