<svg version="1.1" xmlns="http://www.w3.org/2000/svg" xmlns:xlink="http://www.w3.org/1999/xlink" width="48.08362" height="17.37313" viewBox="0,0,48.08362,17.37313"><g transform="translate(-215.95819,-171.31343)"><g data-paper-data="{&quot;isPaintingLayer&quot;:true}" fill-rule="nonzero" stroke-linecap="round" stroke-linejoin="miter" stroke-miterlimit="10" stroke-dasharray="" stroke-dashoffset="0" style="mix-blend-mode: normal"><g><path d="M262.78904,188.60024l-46.83085,0.08633c0,0 0.08015,-4.24519 0.34284,-6.92497c0.2314,-2.36057 1.97684,-8.34856 1.97684,-8.34856c0,0 6.40715,-1.48696 13.84007,-1.89617c6.05539,-0.33337 14.93335,0.0943 17.05489,0.39988c6.60108,0.9508 10.00883,3.21088 10.00883,3.21088c0,0 1.08082,0.77283 2.5499,5.52874c0.51787,1.67651 0.92829,5.36004 0.92829,5.36004z" fill="#0d1c55" stroke="#08123b" stroke-width="0"/><path d="M217.34015,185.9342c0,0 0.41042,-3.68353 0.92829,-5.36004c1.46908,-4.7559 2.5499,-5.52874 2.5499,-5.52874c0,0 3.40775,-2.26008 10.00883,-3.21088c2.12154,-0.30558 10.99951,-0.73325 17.05489,-0.39988c7.43292,0.40921 13.84007,1.89617 13.84007,1.89617c0,0 1.74544,5.98799 1.97684,8.34856c0.26269,2.67978 0.34284,6.92497 0.34284,6.92497l-46.83085,-0.08633z" data-paper-data="{&quot;index&quot;:null}" fill="#0d1c55" stroke="#08123b" stroke-width="0"/><path d="M263.01733,179.39933c0,0 -15.61967,0.30505 -23.33978,0.30683c-7.6023,0.00175 -22.63288,-0.29623 -22.63288,-0.29623" fill="none" stroke="#091647" stroke-width="0.5"/></g><path d="M217.30967,179.598l-0.1531,-0.37039" fill="none" stroke="#c7c8d6" stroke-width="0.5"/><path d="M218.1303,179.63117l-0.15309,-0.37039" fill="none" stroke="#c7c8d6" stroke-width="0.5"/><path d="M218.94569,179.6495l-0.1531,-0.37039" fill="none" stroke="#c7c8d6" stroke-width="0.5"/><path d="M219.75832,179.66013l-0.16439,-0.36551" fill="none" stroke="#c7c8d6" stroke-width="0.5"/><path d="M220.43255,179.28612l0.12968,0.37923" fill="none" stroke="#c7c8d6" stroke-width="0.5"/><path d="M221.24367,179.29059l0.13857,0.37607" fill="none" stroke="#c7c8d6" stroke-width="0.5"/><path d="M222.0105,179.3088l0.15309,0.37039" fill="none" stroke="#c7c8d6" stroke-width="0.5"/><path d="M222.9842,179.69315l-0.15309,-0.37039" fill="none" stroke="#c7c8d6" stroke-width="0.5"/><path d="M223.64651,179.3411l0.15309,0.37039" fill="none" stroke="#c7c8d6" stroke-width="0.5"/><path d="M224.61225,179.72212l-0.16439,-0.36551" fill="none" stroke="#c7c8d6" stroke-width="0.5"/><path d="M225.26911,179.37417l0.16439,0.36552" fill="none" stroke="#c7c8d6" stroke-width="0.5"/><path d="M226.08467,179.37706l0.16439,0.36552" fill="none" stroke="#c7c8d6" stroke-width="0.5"/><path d="M227.05591,179.76038l-0.15309,-0.37039" fill="none" stroke="#c7c8d6" stroke-width="0.5"/><path d="M227.72344,179.39435l0.15309,0.37039" fill="none" stroke="#c7c8d6" stroke-width="0.5"/><path d="M228.53884,179.41269l0.15309,0.37039" fill="none" stroke="#c7c8d6" stroke-width="0.5"/><path d="M229.34018,179.42819l0.16439,0.36552" fill="none" stroke="#c7c8d6" stroke-width="0.5"/><path d="M230.32582,179.81128l-0.16439,-0.36552" fill="none" stroke="#c7c8d6" stroke-width="0.5"/><path d="M230.977,179.45825l0.16439,0.36552" fill="none" stroke="#c7c8d6" stroke-width="0.5"/><path d="M231.77594,179.46157l0.1531,0.37039" fill="none" stroke="#c7c8d6" stroke-width="0.5"/><path d="M232.59657,179.46594l0.15309,0.37039" fill="none" stroke="#c7c8d6" stroke-width="0.5"/><path d="M233.56504,179.85466l-0.15309,-0.37039" fill="none" stroke="#c7c8d6" stroke-width="0.5"/><path d="M234.37768,179.86529l-0.16439,-0.36551" fill="none" stroke="#c7c8d6" stroke-width="0.5"/><path d="M235.03455,179.49813l0.16439,0.36552" fill="none" stroke="#c7c8d6" stroke-width="0.5"/><path d="M235.85012,179.51953l0.16439,0.36552" fill="none" stroke="#c7c8d6" stroke-width="0.5"/><path d="M236.67296,179.5362l0.1627,0.36627" fill="none" stroke="#c7c8d6" stroke-width="0.5"/><path d="M237.65687,179.91423l-0.1627,-0.36627" fill="none" stroke="#c7c8d6" stroke-width="0.5"/><path d="M238.30976,179.54503l0.1627,0.36627" fill="none" stroke="#c7c8d6" stroke-width="0.5"/><path d="M239.27409,179.90565l-0.15184,-0.37091" fill="none" stroke="#c7c8d6" stroke-width="0.5"/><path d="M239.94934,179.52779l0.13952,0.37572" fill="none" stroke="#c7c8d6" stroke-width="0.5"/><path d="M240.90862,179.90194l-0.14832,-0.37233" fill="none" stroke="#c7c8d6" stroke-width="0.5"/><path d="M241.69003,179.87558l-0.1627,-0.36627" fill="none" stroke="#c7c8d6" stroke-width="0.5"/><path d="M242.34805,179.52038l0.1627,0.36627" fill="none" stroke="#c7c8d6" stroke-width="0.5"/><path d="M243.16364,179.49894l0.1627,0.36627" fill="none" stroke="#c7c8d6" stroke-width="0.5"/><path d="M244.13898,179.87316l-0.17387,-0.3611" fill="none" stroke="#c7c8d6" stroke-width="0.5"/><path d="M244.96042,179.85081l-0.17387,-0.36111" fill="none" stroke="#c7c8d6" stroke-width="0.5"/><path d="M245.77577,179.85094l-0.17387,-0.36111" fill="none" stroke="#c7c8d6" stroke-width="0.5"/><path d="M246.42011,179.48142l0.1627,0.36627" fill="none" stroke="#c7c8d6" stroke-width="0.5"/><path d="M247.24058,179.48289l0.1627,0.36627" fill="none" stroke="#c7c8d6" stroke-width="0.5"/><path d="M248.21886,179.84622l-0.1627,-0.36627" fill="none" stroke="#c7c8d6" stroke-width="0.5"/><path d="M249.03151,179.83566l-0.17387,-0.3611" fill="none" stroke="#c7c8d6" stroke-width="0.5"/><path d="M249.67907,179.45221l0.17387,0.36111" fill="none" stroke="#c7c8d6" stroke-width="0.5"/><path d="M250.66856,179.80455l-0.17387,-0.36111" fill="none" stroke="#c7c8d6" stroke-width="0.5"/><path d="M251.29344,179.42594l0.1627,0.36627" fill="none" stroke="#c7c8d6" stroke-width="0.5"/><path d="M252.1139,179.40891l0.1627,0.36627" fill="none" stroke="#c7c8d6" stroke-width="0.5"/><path d="M253.09218,179.79074l-0.1627,-0.36627" fill="none" stroke="#c7c8d6" stroke-width="0.5"/><path d="M253.73096,179.40058l0.17387,0.3611" fill="none" stroke="#c7c8d6" stroke-width="0.5"/><path d="M254.55189,179.39602l0.17387,0.36111" fill="none" stroke="#c7c8d6" stroke-width="0.5"/><path d="M255.54113,179.73876l-0.17387,-0.36111" fill="none" stroke="#c7c8d6" stroke-width="0.5"/><path d="M256.21927,179.34412l0.17385,0.36112" fill="none" stroke="#c7c8d6" stroke-width="0.5"/><path d="M257.20015,179.70204l-0.16268,-0.36628" fill="none" stroke="#c7c8d6" stroke-width="0.5"/><path d="M257.85793,179.31878l0.16268,0.36628" fill="none" stroke="#c7c8d6" stroke-width="0.5"/><path d="M258.8362,179.66367l-0.16268,-0.36628" fill="none" stroke="#c7c8d6" stroke-width="0.5"/><path d="M259.64884,179.67167l-0.17385,-0.36112" fill="none" stroke="#c7c8d6" stroke-width="0.5"/><path d="M260.47028,179.64937l-0.17385,-0.36112" fill="none" stroke="#c7c8d6" stroke-width="0.5"/><path d="M261.13572,179.26993l0.12649,0.3803" fill="none" stroke="#c7c8d6" stroke-width="0.5"/><path d="M262.07348,179.62834l-0.16268,-0.36628" fill="none" stroke="#c7c8d6" stroke-width="0.5"/><path d="M262.83984,179.62199l-0.16268,-0.36628" fill="none" stroke="#c7c8d6" stroke-width="0.5"/></g></g></svg>