<svg version="1.1" xmlns="http://www.w3.org/2000/svg" xmlns:xlink="http://www.w3.org/1999/xlink" width="153.71912" height="88.84333" viewBox="0,0,153.71912,88.84333"><g transform="translate(-163.14044,-135.57834)"><g data-paper-data="{&quot;isPaintingLayer&quot;:true}" fill-rule="nonzero" stroke-linecap="butt" stroke-linejoin="miter" stroke-miterlimit="10" stroke-dasharray="" stroke-dashoffset="0" style="mix-blend-mode: normal"><g><path d="M316.85956,169.65003c0,8.89094 -7.68209,17.12799 -20.26433,23.34422c-14.04759,6.94021 -34.20318,4.07168 -56.59523,4.07168c-21.18586,0 -40.36967,3.33201 -54.27251,-2.97231c-13.95316,-6.32716 -22.58705,-15.0179 -22.58705,-24.44355c0,-18.81731 34.41118,-34.07173 76.85952,-34.07173c42.44834,0 76.85953,15.25442 76.85953,34.07173z" fill="#0d1c55" stroke="none" stroke-width="0"/><path d="M185.95506,198.02587v-17.76293c0,0 35.38732,-4.2557 53.28878,-4.2557c17.80894,0 53.84389,4.2557 53.84389,4.2557v17.76293c0,0 -36.00389,-3.7006 -53.84389,-3.7006c-17.87084,0 -53.28878,3.7006 -53.28878,3.7006z" fill="#0d1c55" stroke="#091647" stroke-width="1"/><path d="M185.05805,205.54857c0,-0.70424 27.48583,-2.82837 53.60396,-2.96895c28.17729,-0.15165 55.14333,1.76277 55.14333,3.33902c0,7.05108 -27.14556,18.50303 -54.66391,18.50303c-27.51835,0 -54.08339,-11.82201 -54.08339,-18.8731z" fill="#080911" stroke="none" stroke-width="0"/><path d="M185.56063,205.90552v-10.00097c0,0 35.59726,-2.39607 53.60491,-2.39607c17.91459,0 54.1633,2.39607 54.1633,2.39607v10.00097c0,0 -36.21747,-2.08352 -54.1633,-2.08352c-17.97686,0 -53.60491,2.08352 -53.60491,2.08352z" fill="#080911" stroke="#38383b" stroke-width="1"/><path d="M183.91972,204.13188v-6.29104h1.29521v6.29104z" fill="#aaadc9" stroke="none" stroke-width="0"/><path d="M293.69328,204.05523v-6.29103h1.29521v6.29103z" fill="#aaadc9" stroke="none" stroke-width="0"/></g><g data-paper-data="{&quot;index&quot;:null}" fill="#aaadc9" stroke="none" stroke-width="0"><g><g><path d="M219.55365,210.94193c0.79492,0.10926 1.23851,-0.57202 2.57261,-0.03333c1.55204,0.6267 1.07833,1.44162 1.61845,1.96268c0.48906,0.4718 1.28704,0.10051 1.92601,1.18241c0.72183,1.2222 -0.42378,1.70048 -0.52063,2.38571c-0.10713,0.75784 0.47933,1.51846 -0.36297,2.48637c-0.58659,0.67408 -1.42577,0.26573 -1.93929,0.54567c-0.61503,0.33528 -0.186,0.91367 -1.84187,1.17925c-1.22902,0.19714 -1.87387,-0.41868 -2.74851,-0.53889c-0.9549,-0.13125 0.39768,-9.29335 1.29621,-9.16985z"/><path d="M218.25109,220.1109c-0.87464,-0.12022 -1.66569,0.29821 -2.79319,-0.22283c-1.51908,-0.702 -0.94602,-1.14263 -1.44462,-1.63098c-0.41631,-0.40776 -1.33675,-0.24128 -1.71404,-1.04783c-0.54176,-1.15814 0.23326,-1.73162 0.34039,-2.48946c0.09686,-0.68523 -0.87244,-1.4542 0.16081,-2.43516c0.91465,-0.86836 1.57925,-0.29604 2.1805,-0.61797c0.66404,-0.35554 0.43436,-1.26714 2.10104,-1.45142c1.43264,-0.15841 1.67039,0.61654 2.46531,0.72581c0.89854,0.1235 -0.34132,9.30109 -1.29622,9.16984z" data-paper-data="{&quot;index&quot;:null}"/></g><path d="M228.00278,219.25585c0,0 1.30419,0.79504 1.85172,1.22608c0.54754,0.43104 2.13095,2.05146 2.13095,2.05146l-2.88524,-1.25655l0.12609,1.14336l-3.25722,-1.85262l0.0645,1.36885l-4.65719,-2.83037l0.9754,-0.57671l2.56988,1.43619l0.04457,-1.12417l3.2036,1.77772z" data-paper-data="{&quot;index&quot;:null}"/><path d="M227.96289,210.45916c0,0 1.46756,-0.22055 2.14428,-0.24067c0.67673,-0.02012 2.8669,0.20034 2.8669,0.20034l-2.93345,0.86228l0.80674,0.77343l-3.58226,0.64996l0.90141,0.97988l-5.23507,0.79408l0.36737,-1.03785l2.81044,-0.53181l-0.66759,-0.86551l3.4956,-0.67236z" data-paper-data="{&quot;index&quot;:null}"/><path d="M223.76512,215.55711l7.50377,-0.28719c0,0 -0.98506,-0.92139 -0.68483,-0.85067c0.12859,0.03029 0.78964,0.17534 1.29619,0.43251c0.59302,0.30106 1.03238,0.71818 1.03238,0.71818c0,0 -0.38748,0.44526 -0.85581,0.77943c-0.52108,0.37181 -1.13494,0.63882 -1.27247,0.68846c-0.28144,0.1016 0.51779,-0.9031 0.51779,-0.9031l-7.48353,0.36645z" data-paper-data="{&quot;index&quot;:null}"/></g><g><path d="M204.96079,207.60958c0.70253,0.20171 1.19095,-0.35497 2.32388,0.30395c1.31799,0.76657 0.78509,1.4398 1.20442,1.97971c0.37969,0.48889 1.14738,0.25773 1.58303,1.31616c0.49215,1.19568 -0.60287,1.47818 -0.77916,2.08343c-0.19499,0.66939 0.23503,1.4313 -0.65006,2.19465c-0.61639,0.53161 -1.32002,0.05447 -1.81937,0.24021c-0.59805,0.22245 -0.28634,0.79964 -1.81378,0.82412c-1.13371,0.01817 -1.63518,-0.62079 -2.40817,-0.84273c-0.84393,-0.24231 1.56511,-8.32751 2.35922,-8.0995z"/><path d="M202.59596,215.70748c-0.773,-0.22195 -1.54056,0.05262 -2.4895,-0.56355c-1.2785,-0.83017 -0.70461,-1.15306 -1.09075,-1.65811c-0.32242,-0.42168 -1.17392,-0.3911 -1.40939,-1.16729c-0.33812,-1.11455 0.43514,-1.53099 0.63012,-2.20037c0.17629,-0.60524 -0.59782,-1.42444 0.46116,-2.17474c0.93742,-0.66418 1.46234,-0.06188 2.04624,-0.27409c0.64487,-0.23435 0.55613,-1.08608 2.0828,-1.03585c1.31227,0.04316 1.42602,0.77276 2.12855,0.97448c0.79411,0.228 -1.51531,8.34181 -2.35923,8.0995z" data-paper-data="{&quot;index&quot;:null}"/></g><path d="M211.47477,217.15082c0,0 0.95866,1.00842 1.33807,1.51733c0.37941,0.50891 1.38801,2.30945 1.38801,2.30945l-2.23987,-1.78907l-0.16011,1.03552l-2.42576,-2.40153l-0.26772,1.21926l-3.42535,-3.59334l0.99461,-0.27604l1.91992,1.87234l0.30567,-0.97819l2.39635,2.32293z" data-paper-data="{&quot;index&quot;:null}"/><path d="M212.51856,208.48569c0,0 1.34977,0.07474 1.95711,0.18197c0.60734,0.10723 2.52007,0.70899 2.52007,0.70899l-2.77599,0.22651l0.57652,0.83908l-3.31542,-0.08287l0.62277,1.04072l-4.8163,-0.26005l0.51965,-0.85775l2.60514,0.04551l-0.43538,-0.8955l3.24227,0.04687z" data-paper-data="{&quot;index&quot;:null}"/><path d="M207.47098,212.48296l5.79112,1.95942c0,0 -0.40279,-0.96703 -0.20461,-0.82442c0.09684,0.06968 0.51893,0.41638 0.84481,0.82458c0.29289,0.36688 0.49751,0.80288 0.49751,0.80288c0,0 -0.43799,0.22918 -0.97063,0.33297c-0.45499,0.08866 -1.00617,0.05482 -1.11386,0.04988c-0.25141,-0.01156 0.72747,-0.51461 0.72747,-0.51461l-5.8247,-1.90175z" data-paper-data="{&quot;index&quot;:null}"/></g><g data-paper-data="{&quot;index&quot;:null}" fill="#aaadc9" stroke="none" stroke-width="0"><g><g><path d="M258.22354,210.95756c0.89854,-0.1235 2.25111,9.0386 1.29621,9.16985c-0.87464,0.12022 -1.5195,0.73603 -2.74851,0.53889c-1.65587,-0.26558 -1.22684,-0.84397 -1.84187,-1.17925c-0.51352,-0.27994 -1.35271,0.12841 -1.9393,-0.54567c-0.8423,-0.96791 -0.25583,-1.72853 -0.36296,-2.48637c-0.09686,-0.68523 -1.24247,-1.16351 -0.52064,-2.38571c0.63897,-1.08191 1.43696,-0.71061 1.92601,-1.18241c0.54012,-0.52106 0.0664,-1.33598 1.61844,-1.96268c1.3341,-0.53869 1.7777,0.14259 2.57261,0.03333z"/><path d="M259.52609,220.12654c-0.9549,0.13125 -2.19475,-9.04634 -1.29621,-9.16984c0.79493,-0.10926 1.03267,-0.88422 2.46531,-0.72581c1.66669,0.18428 1.43701,1.09588 2.10104,1.45142c0.60126,0.32193 1.26586,-0.25039 2.18051,0.61797c1.03326,0.98095 0.06395,1.74993 0.16081,2.43516c0.10713,0.75784 0.88215,1.33131 0.34039,2.48946c-0.37729,0.80656 -1.29772,0.64007 -1.71403,1.04783c-0.49859,0.48835 0.07446,0.92898 -1.44462,1.63098c-1.12751,0.52104 -1.91855,0.10261 -2.79319,0.22283z" data-paper-data="{&quot;index&quot;:null}"/></g><path d="M249.60733,220.63471l3.2036,-1.77772l0.04458,1.12417l2.56988,-1.43619l0.9754,0.57671l-4.65719,2.83037l0.0645,-1.36885l-3.25722,1.85262l0.1261,-1.14336l-2.88525,1.25655c0,0 1.58342,-1.62042 2.13095,-2.05146c0.54754,-0.43104 1.85172,-1.22608 1.85172,-1.22608z" data-paper-data="{&quot;index&quot;:null}"/><path d="M248.83993,211.38655l3.49559,0.67236l-0.66758,0.86551l2.81043,0.53181l0.36737,1.03785l-5.23507,-0.79408l0.90142,-0.97988l-3.58226,-0.64996l0.80674,-0.77343l-2.93345,-0.86228c0,0 2.19017,-0.22046 2.8669,-0.20034c0.67673,0.02012 2.14428,0.24067 2.14428,0.24067z" data-paper-data="{&quot;index&quot;:null}"/><path d="M253.95857,216.5168l-7.48353,-0.36645c0,0 0.79923,1.00469 0.51779,0.9031c-0.13753,-0.04964 -0.75138,-0.31665 -1.27247,-0.68846c-0.46833,-0.33417 -0.85582,-0.77943 -0.85582,-0.77943c0,0 0.43936,-0.41711 1.03238,-0.71818c0.50655,-0.25717 1.1676,-0.40222 1.29619,-0.43251c0.30023,-0.07072 -0.68483,0.85067 -0.68483,0.85067l7.50377,0.28719z" data-paper-data="{&quot;index&quot;:null}"/></g><g><path d="M272.81638,207.62521c0.79411,-0.22801 3.20315,7.85718 2.35922,8.0995c-0.773,0.22195 -1.27447,0.8609 -2.40817,0.84273c-1.52745,-0.02447 -1.21573,-0.60166 -1.81378,-0.82412c-0.49935,-0.18573 -1.20298,0.2914 -1.81937,-0.24021c-0.88509,-0.76334 -0.45508,-1.52526 -0.65006,-2.19465c-0.17629,-0.60525 -1.27131,-0.88775 -0.77916,-2.08343c0.43565,-1.05843 1.20334,-0.82727 1.58303,-1.31616c0.41933,-0.53992 -0.11357,-1.21315 1.20442,-1.97971c1.13293,-0.65892 1.62135,-0.10224 2.32388,-0.30395z"/><path d="M275.18123,215.7231c-0.84392,0.24231 -3.15334,-7.8715 -2.35923,-8.0995c0.70253,-0.20172 0.81628,-0.93132 2.12856,-0.97448c1.52666,-0.05023 1.43792,0.8015 2.0828,1.03585c0.5839,0.21221 1.10883,-0.39009 2.04624,0.27409c1.05898,0.7503 0.28486,1.56949 0.46115,2.17474c0.19498,0.66938 0.96823,1.08582 0.63011,2.20037c-0.23547,0.77619 -1.08697,0.7456 -1.40939,1.16729c-0.38614,0.50504 0.18776,0.82793 -1.09075,1.65811c-0.94895,0.61616 -1.7165,0.3416 -2.4895,0.56355z" data-paper-data="{&quot;index&quot;:null}"/></g><path d="M266.47859,218.40509l2.39635,-2.32293l0.30567,0.97819l1.91992,-1.87234l0.99461,0.27604l-3.42534,3.59334l-0.26773,-1.21926l-2.42576,2.40153l-0.1601,-1.03552l-2.23988,1.78907c0,0 1.0086,-1.80054 1.38801,-2.30945c0.37941,-0.50891 1.33807,-1.51733 1.33807,-1.51733z" data-paper-data="{&quot;index&quot;:null}"/><path d="M264.5582,209.49479l3.24226,-0.04687l-0.43537,0.8955l2.60514,-0.04551l0.51965,0.85775l-4.8163,0.26005l0.62276,-1.04072l-3.31543,0.08287l0.57652,-0.83908l-2.776,-0.22651c0,0 1.91274,-0.60176 2.52008,-0.70899c0.60734,-0.10723 1.9571,-0.18197 1.9571,-0.18197z" data-paper-data="{&quot;index&quot;:null}"/><path d="M270.55909,213.22753l-5.8247,1.90175c0,0 0.97888,0.50305 0.72747,0.51461c-0.10768,0.00494 -0.65886,0.03878 -1.11385,-0.04988c-0.53265,-0.10379 -0.97064,-0.33297 -0.97064,-0.33297c0,0 0.20462,-0.436 0.49751,-0.80288c0.32588,-0.4082 0.74797,-0.75489 0.84481,-0.82458c0.19818,-0.14261 -0.2046,0.82442 -0.2046,0.82442l5.79112,-1.95942z" data-paper-data="{&quot;index&quot;:null}"/></g></g></g></svg>