<svg version="1.1" xmlns="http://www.w3.org/2000/svg" xmlns:xlink="http://www.w3.org/1999/xlink" width="41.04033" height="23.71968" viewBox="0,0,41.04033,23.71968"><g transform="translate(-219.47983,-168.14016)"><g data-paper-data="{&quot;isPaintingLayer&quot;:true}" fill-rule="nonzero" stroke-linecap="butt" stroke-linejoin="miter" stroke-miterlimit="10" stroke-dasharray="" stroke-dashoffset="0" style="mix-blend-mode: normal"><g><path d="M260.52017,177.23671c0,2.37372 -2.05098,4.57287 -5.41022,6.2325c-3.75046,1.85292 -9.13165,1.08707 -15.10994,1.08707c-5.65626,0 -10.778,0.88959 -14.48982,-0.79356c-3.72525,-1.68924 -6.03035,-4.00952 -6.03035,-6.526c0,-5.02389 9.18719,-9.09656 20.52016,-9.09656c11.33297,0 20.52016,4.07267 20.52016,9.09656z" fill="#0d1c55" stroke="none" stroke-width="0"/><path d="M225.57093,184.81255v-4.74239c0,0 9.4478,-1.1362 14.22718,-1.1362c4.75468,0 14.37538,1.1362 14.37538,1.1362v4.74239c0,0 -9.61241,-0.988 -14.37538,-0.988c-4.7712,0 -14.22718,0.988 -14.22718,0.988z" fill="#0d1c55" stroke="#091647" stroke-width="0.5"/><path d="M225.33146,186.82105c0,-0.18802 7.33824,-0.75513 14.31133,-0.79266c7.52285,-0.04049 14.72231,0.47063 14.72231,0.89146c0,1.88252 -7.24739,4.93999 -14.59431,4.93999c-7.34692,0 -14.43933,-3.15627 -14.43933,-5.03879z" fill="#080911" stroke="none" stroke-width="0"/><path d="M225.46564,186.91635v-2.67009c0,0 9.50385,-0.63971 14.31158,-0.63971c4.78288,0 14.46066,0.63971 14.46066,0.63971v2.67009c0,0 -9.66944,-0.55626 -14.46066,-0.55626c-4.79951,0 -14.31158,0.55626 -14.31158,0.55626z" fill="#080911" stroke="#38383b" stroke-width="0.5"/><path d="M225.02754,186.44282v-1.6796h0.3458v1.6796z" fill="#c7c8d6" stroke="none" stroke-width="0"/><path d="M254.33516,186.42236v-1.6796h0.3458v1.6796z" fill="#c7c8d6" stroke="none" stroke-width="0"/></g><g fill="#c7c8d6" stroke="none" stroke-width="0"><g><g><path d="M244.88855,190.64751c-0.19911,0.02171 -0.34926,0.15726 -0.62672,0.10475c-0.37382,-0.07075 -0.27286,-0.19918 -0.4102,-0.27912c-0.11467,-0.06675 -0.30758,0.02053 -0.43632,-0.13606c-0.18486,-0.22484 -0.04704,-0.39361 -0.06652,-0.56615c-0.01761,-0.15601 -0.27437,-0.27174 -0.10292,-0.54432c0.15178,-0.24129 0.33038,-0.15202 0.44428,-0.25591c0.1258,-0.11473 0.02355,-0.30254 0.37949,-0.43481c0.30596,-0.11369 0.40223,0.04362 0.58319,0.0239c0.20455,-0.0223 0.45309,2.06402 0.23571,2.08772z"/><path d="M244.65429,188.55963c0.18096,-0.01973 0.2398,-0.19396 0.56368,-0.14894c0.37679,0.05238 0.31892,0.25765 0.46725,0.34249c0.13431,0.07682 0.28865,-0.04874 0.49056,0.15399c0.22809,0.22902 0.00339,0.39725 0.021,0.55325c0.01948,0.17254 0.19159,0.30751 0.06138,0.56671c-0.09068,0.18051 -0.29836,0.13691 -0.39536,0.22673c-0.11617,0.10758 0.01099,0.21114 -0.33796,0.36069c-0.259,0.111 -0.43573,0.01108 -0.63484,0.03279c-0.21738,0.0237 -0.44025,-2.06542 -0.23571,-2.08772z" data-paper-data="{&quot;index&quot;:null}"/></g><path d="M242.63744,190.6996l0.73779,-0.38279l0.00297,0.25521l0.59191,-0.30937l0.21753,0.13698l-1.07411,0.61228l0.02332,-0.31001l-0.75042,0.39944l0.03586,-0.25848l-0.66228,0.26662c0,0 0.36937,-0.35741 0.49627,-0.45168c0.1269,-0.09427 0.42771,-0.26629 0.42771,-0.26629z" data-paper-data="{&quot;index&quot;:null}"/><path d="M242.52215,188.59747l0.78844,0.17467l-0.15689,0.19204l0.63396,0.13845l0.07672,0.23769l-1.18214,-0.21333l0.21064,-0.21649l-0.80824,-0.17015l0.18786,-0.17027l-0.65975,-0.21418c0,0 0.49807,-0.03608 0.65141,-0.02722c0.15334,0.00886 0.48474,0.0682 0.48474,0.0682z" data-paper-data="{&quot;index&quot;:null}"/><path d="M243.65034,189.79339l-1.69475,-0.13063c0,0 0.17487,0.23292 0.11169,0.20809c-0.03088,-0.01213 -0.16838,-0.07658 -0.28419,-0.16421c-0.10408,-0.07875 -0.18913,-0.18219 -0.18913,-0.18219c0,0 0.10228,-0.0918 0.23868,-0.1563c0.1165,-0.05511 0.26734,-0.0838 0.29669,-0.08985c0.06853,-0.01413 -0.1607,0.18856 -0.1607,0.18856l1.69984,0.11279z" data-paper-data="{&quot;index&quot;:null}"/></g><g><path d="M248.27643,189.82762c-0.17671,0.04542 -0.29449,0.18714 -0.55147,0.17581c-0.34623,-0.01526 -0.27188,-0.14416 -0.40609,-0.19841c-0.11206,-0.04529 -0.27465,0.05844 -0.41106,-0.06603c-0.19587,-0.17873 -0.09352,-0.34878 -0.13348,-0.50182c-0.03614,-0.13837 -0.28266,-0.20939 -0.16346,-0.47742c0.10552,-0.23726 0.27814,-0.17996 0.36735,-0.28842c0.09852,-0.11978 -0.01805,-0.27584 0.28571,-0.4413c0.2611,-0.14223 0.36833,-0.01289 0.52893,-0.05417c0.18153,-0.04666 0.67649,1.80216 0.48357,1.85175z"/><path d="M247.79415,187.97554c0.1606,-0.04128 0.19103,-0.20601 0.48889,-0.20747c0.34653,-0.0017 0.32099,0.1909 0.46575,0.24814c0.13107,0.05183 0.25393,-0.08142 0.4623,0.07515c0.23538,0.17688 0.05463,0.35773 0.09077,0.4961c0.03997,0.15304 0.21267,0.25238 0.12892,0.50299c-0.05833,0.17452 -0.25123,0.16218 -0.32703,0.25576c-0.09077,0.11208 0.03732,0.18895 -0.25789,0.36909c-0.21911,0.1337 -0.39143,0.06656 -0.56813,0.11199c-0.19292,0.04959 -0.6651,-1.80509 -0.48357,-1.85175z" data-paper-data="{&quot;index&quot;:null}"/></g><path d="M246.33618,190.3863l0.54573,-0.52483l0.06847,0.22219l0.43724,-0.42304l0.22539,0.06352l-0.78031,0.81211l-0.05964,-0.27684l-0.55247,0.54263l-0.03539,-0.23506l-0.50975,0.40386c0,0 0.23043,-0.40757 0.31696,-0.52268c0.08653,-0.11511 0.30492,-0.34302 0.30492,-0.34302z" data-paper-data="{&quot;index&quot;:null}"/><path d="M245.9426,188.26191l0.73356,0.05513l-0.11653,0.19352l0.58957,0.04252l0.10003,0.20435l-1.09355,-0.03886l0.16182,-0.22254l-0.75082,-0.04848l0.14728,-0.17791l-0.62266,-0.10745c0,0 0.4444,-0.0972 0.5838,-0.10912c0.1394,-0.01192 0.44591,-0.00144 0.44591,-0.00144z" data-paper-data="{&quot;index&quot;:null}"/><path d="M251.22338,188.86096c-0.15375,0.05542 -0.24681,0.19173 -0.47694,0.20333c-0.31004,0.01562 -0.25462,-0.10561 -0.37888,-0.14265c-0.10375,-0.03093 -0.23999,0.0753 -0.37214,-0.02418c-0.18976,-0.14285 -0.11283,-0.30314 -0.16139,-0.43624c-0.0439,-0.12035 -0.26974,-0.16287 -0.18607,-0.41195c0.07407,-0.22049 0.23285,-0.18396 0.30325,-0.28821c0.07775,-0.11513 -0.03938,-0.24446 0.21753,-0.41765c0.22084,-0.14888 0.32737,-0.04258 0.4671,-0.09295c0.15794,-0.05694 0.75539,1.55 0.58754,1.61051z"/><path d="M250.63696,187.25004c0.13973,-0.05037 0.15296,-0.19984 0.41846,-0.22628c0.30888,-0.03076 0.30237,0.14313 0.43628,0.18196c0.12126,0.03516 0.21957,-0.09404 0.4186,0.028c0.22484,0.13786 0.07891,0.3144 0.12282,0.43475c0.04856,0.1331 0.21096,0.20712 0.15742,0.43767c-0.03728,0.16056 -0.21035,0.16583 -0.27004,0.25568c-0.07149,0.10761 0.04923,0.16535 -0.19882,0.35091c-0.18411,0.13773 -0.34344,0.0924 -0.49719,0.14782c-0.16785,0.06051 -0.74548,-1.55357 -0.58754,-1.61051z" data-paper-data="{&quot;index&quot;:null}"/><path d="M249.51855,189.43801l0.45637,-0.50169l0.07447,0.19449l0.3655,-0.40423l0.20524,0.0433l-0.64886,0.77248l-0.06986,-0.24386l-0.46133,0.51801l-0.04568,-0.20797l-0.43145,0.39142c0,0 0.18159,-0.37804 0.25204,-0.4861c0.07045,-0.10805 0.25202,-0.3248 0.25202,-0.3248z" data-paper-data="{&quot;index&quot;:null}"/><path d="M248.95326,187.68918l0.65882,-0.01276l-0.08758,0.18241l0.52935,-0.01185l0.10646,0.17379l-0.97847,0.05765l0.12552,-0.21211l-0.67365,0.02015l0.11632,-0.17109l-0.56434,-0.04326c0,0 0.38809,-0.12419 0.5114,-0.14659c0.12331,-0.0224 0.39752,-0.03893 0.39752,-0.03893z" data-paper-data="{&quot;index&quot;:null}"/><path d="M250.10995,188.48316l-1.23792,0.63233c0,0 0.23716,0.07807 0.18124,0.08956c-0.02395,0.00492 -0.14627,0.03202 -0.25137,0.02825c-0.12303,-0.00441 -0.22929,-0.04026 -0.22929,-0.04026c0,0 0.03042,-0.10494 0.08307,-0.19752c0.05858,-0.103 0.14089,-0.19563 0.16012,-0.21468c0.03936,-0.03897 -0.01667,0.19198 -0.01667,0.19198l1.22835,-0.64406z" data-paper-data="{&quot;index&quot;:null}"/><path d="M247.26865,189.20704l-1.33297,0.39427c0,0 0.21879,0.12029 0.16171,0.12132c-0.02445,0.00044 -0.14966,0.00461 -0.25228,-0.01839c-0.12013,-0.02692 -0.218,-0.08167 -0.218,-0.08167c0,0 0.04917,-0.09757 0.11792,-0.17891c0.07649,-0.0905 0.17441,-0.16644 0.19682,-0.18162c0.04585,-0.03108 -0.05163,0.18566 -0.05163,0.18566l1.32573,-0.40756z" data-paper-data="{&quot;index&quot;:null}"/></g><g data-paper-data="{&quot;index&quot;:null}" fill="#c7c8d6" stroke="none" stroke-width="0"><g><g><path d="M235.05233,188.49711c0.18145,0.01463 0.27325,-0.14534 0.58229,-0.04031c0.35953,0.12219 0.2626,0.3128 0.39158,0.42395c0.11678,0.10064 0.2928,0.00638 0.45131,0.2433c0.17906,0.26764 -0.07434,0.39057 -0.08755,0.54701c-0.01461,0.17302 0.1279,0.33784 -0.05056,0.5678c-0.12428,0.16015 -0.31956,0.07834 -0.43231,0.14829c-0.13504,0.08377 -0.0305,0.20932 -0.40218,0.29056c-0.27587,0.0603 -0.42978,-0.07097 -0.62942,-0.08707c-0.21796,-0.01757 -0.02826,-2.11006 0.17684,-2.09353z"/><path d="M234.87406,190.59052c-0.19964,-0.01609 -0.37349,0.08876 -0.63551,-0.01491c-0.35302,-0.13966 -0.22883,-0.24677 -0.34798,-0.35103c-0.09949,-0.08706 -0.30586,-0.03763 -0.40158,-0.21551c-0.13746,-0.25543 0.03079,-0.3952 0.0454,-0.56821c0.01322,-0.15644 -0.21613,-0.31828 0.00542,-0.55363c0.19612,-0.20833 0.35394,-0.08716 0.48603,-0.16774c0.14588,-0.08899 0.08225,-0.29255 0.45742,-0.35551c0.32248,-0.05412 0.3862,0.11838 0.56765,0.13301c0.2051,0.01653 0.04112,2.1111 -0.17684,2.09353z" data-paper-data="{&quot;index&quot;:null}"/></g><path d="M237.07198,190.27268c0,0 0.30553,0.16348 0.43504,0.25414c0.12951,0.09066 0.50879,0.43753 0.50879,0.43753l-0.66953,-0.24787l0.04312,0.25737l-0.76137,-0.37815l0.03204,0.30923l-1.09092,-0.5818l0.21359,-0.14305l0.60039,0.29258l-0.00422,-0.2552l0.74827,0.36187z" data-paper-data="{&quot;index&quot;:null}"/><path d="M236.95093,188.28068c0,0 0.3296,-0.06864 0.48263,-0.08182c0.15303,-0.01318 0.65192,0.00887 0.65192,0.00887l-0.65346,0.23267l0.19258,0.16491l-0.80313,0.19284l0.21665,0.21047l-1.17567,0.24652l0.07,-0.23976l0.62981,-0.15624l-0.16223,-0.18755l0.78321,-0.1968z" data-paper-data="{&quot;index&quot;:null}"/><path d="M236.06503,189.48885l1.69599,-0.1606c0,0 -0.23485,-0.19616 -0.16595,-0.18396c0.02951,0.00522 0.18109,0.02966 0.29911,0.08146c0.13816,0.06064 0.24298,0.14953 0.24298,0.14953c0,0 -0.0821,0.10579 -0.18392,0.18744c-0.1133,0.09085 -0.24893,0.15915 -0.27945,0.17214c-0.06245,0.0266 0.10578,-0.21115 0.10578,-0.21115l-1.6904,0.17829z" data-paper-data="{&quot;index&quot;:null}"/></g><g><path d="M231.89712,188.00182c0.1617,0.03674 0.26524,-0.09557 0.53024,0.03926c0.3083,0.15685 0.19616,0.31612 0.29802,0.43308c0.09223,0.1059 0.26318,0.04377 0.37533,0.27796c0.1267,0.26456 -0.11773,0.34249 -0.14996,0.48183c-0.03564,0.15411 0.07146,0.32121 -0.1193,0.50538c-0.13285,0.12826 -0.2983,0.02915 -0.40904,0.07758c-0.13263,0.058 -0.05467,0.18477 -0.40034,0.20976c-0.25656,0.01855 -0.37829,-0.11979 -0.5562,-0.16022c-0.19424,-0.04414 0.24847,-1.90616 0.43125,-1.86463z"/><path d="M231.46457,189.86616c-0.17791,-0.04043 -0.34827,0.03154 -0.57106,-0.09595c-0.30016,-0.17176 -0.17428,-0.25221 -0.26818,-0.36168c-0.0784,-0.09141 -0.27088,-0.07364 -0.3341,-0.24645c-0.09078,-0.24815 0.07907,-0.35232 0.11471,-0.50642c0.03223,-0.13934 -0.15355,-0.31503 0.07676,-0.49846c0.20387,-0.16238 0.33044,-0.03263 0.46,-0.08813c0.14308,-0.06129 0.11214,-0.25309 0.45858,-0.26115c0.29779,-0.00693 0.33284,0.15688 0.49454,0.19362c0.18277,0.04153 -0.23701,1.90877 -0.43125,1.86463z" data-paper-data="{&quot;index&quot;:null}"/></g><path d="M233.45201,190.08815c0,0 0.22472,0.22167 0.31446,0.3343c0.08974,0.11263 0.33155,0.51355 0.33155,0.51355l-0.52092,-0.38935l-0.02876,0.23596l-0.56753,-0.52687l-0.05182,0.27841l-0.80286,-0.78983l0.22352,-0.06984l0.44898,0.41056l0.06218,-0.22403l0.56029,0.50926z" data-paper-data="{&quot;index&quot;:null}"/><path d="M233.57045,188.03048c0,0 0.30609,-0.0191 0.44577,-0.01111c0.13969,0.00799 0.58664,0.09264 0.58664,0.09264l-0.61939,0.12494l0.15223,0.17369l-0.74916,0.0696l0.16801,0.2179l-1.09202,0.06963l0.09424,-0.20708l0.58814,-0.0591l-0.12193,-0.19016l0.73172,-0.07576z" data-paper-data="{&quot;index&quot;:null}"/><path d="M229.03485,187.35672c0.14109,0.04642 0.2446,-0.06283 0.46953,0.07977c0.26169,0.16589 0.14824,0.29847 0.2292,0.41136c0.07331,0.10222 0.23099,0.06124 0.31124,0.27955c0.09065,0.24662 -0.1339,0.29549 -0.1744,0.41702c-0.04479,0.13442 0.03661,0.29247 -0.14905,0.44061c-0.1293,0.10316 -0.26848,0.00081 -0.37132,0.03465c-0.12317,0.04053 -0.06435,0.16015 -0.37471,0.15327c-0.23036,-0.00511 -0.32723,-0.13875 -0.48247,-0.18983c-0.16949,-0.05576 0.38248,-1.67888 0.54196,-1.62641z"/><path d="M228.49176,188.98276c-0.15525,-0.05107 -0.31324,-0.00127 -0.50116,-0.13377c-0.25317,-0.1785 -0.13413,-0.23962 -0.20862,-0.34517c-0.0622,-0.08814 -0.23535,-0.08853 -0.27714,-0.24798c-0.06001,-0.22895 0.10025,-0.30751 0.14504,-0.44193c0.0405,-0.12154 -0.11034,-0.2939 0.11053,-0.43803c0.19551,-0.12759 0.29743,-0.00121 0.41765,-0.03977c0.13277,-0.04258 0.12136,-0.21623 0.43099,-0.19418c0.26614,0.01896 0.28358,0.16799 0.42467,0.21441c0.09575,0.0315 -0.05774,0.63153 -0.23238,1.094c-0.11624,0.30782 -0.24186,0.55469 -0.30959,0.53241z" data-paper-data="{&quot;index&quot;:null}"/><path d="M230.25779,189.26165c0,0 0.18759,0.21156 0.26106,0.31758c0.07347,0.10603 0.26562,0.47881 0.26562,0.47881l-0.44229,-0.37912l-0.03981,0.20918l-0.47573,-0.50482l-0.06296,0.24573l-0.67035,-0.75391l0.20394,-0.04906l0.37673,0.39378l0.06897,-0.19651l0.47031,0.48865z" data-paper-data="{&quot;index&quot;:null}"/><path d="M230.58212,187.54939c0,0 0.27457,0.00881 0.39846,0.02772c0.1239,0.01892 0.51532,0.13213 0.51532,0.13213l-0.5629,0.05913l0.12109,0.16775l-0.67395,-0.00117l0.13144,0.20849l-0.9797,-0.03008l0.10152,-0.17672l0.52947,-0.00306l-0.09268,-0.17987l0.65891,-0.00579z" data-paper-data="{&quot;index&quot;:null}"/><path d="M229.67332,188.41749l1.24599,0.60922c0,0 -0.06251,-0.22928 -0.02207,-0.19143c0.01976,0.01849 0.10465,0.10877 0.1661,0.21008c0.05523,0.09106 0.08859,0.19511 0.08859,0.19511c0,0 -0.10521,0.03883 -0.22807,0.0467c-0.10495,0.00672 -0.22798,-0.01692 -0.25206,-0.02116c-0.05623,-0.00991 0.17864,-0.09463 0.17864,-0.09463l-1.25523,-0.59722z" data-paper-data="{&quot;index&quot;:null}"/><path d="M232.50378,189.04942l1.33668,0.37008c0,0 -0.10355,-0.21391 -0.05684,-0.18413c0.02282,0.01455 0.12284,0.0877 0.20185,0.17601c0.07101,0.07937 0.12291,0.17552 0.12291,0.17552c0,0 -0.09629,0.05749 -0.21562,0.08778c-0.10193,0.02588 -0.2272,0.02523 -0.25166,0.02548c-0.05709,0.00058 0.15823,-0.12583 0.15823,-0.12583l-1.34355,-0.35659z" data-paper-data="{&quot;index&quot;:null}"/></g></g></g></svg>