<svg version="1.1" xmlns="http://www.w3.org/2000/svg" xmlns:xlink="http://www.w3.org/1999/xlink" width="153.71912" height="88.84334" viewBox="0,0,153.71912,88.84334"><g transform="translate(-163.14044,-135.57833)"><g data-paper-data="{&quot;isPaintingLayer&quot;:true}" fill-rule="nonzero" stroke-linecap="butt" stroke-linejoin="miter" stroke-miterlimit="10" stroke-dasharray="" stroke-dashoffset="0" style="mix-blend-mode: normal"><path d="M316.85956,169.65003c0,8.89094 -7.68209,17.12798 -20.26433,23.34421c-14.04759,6.94021 -34.20318,4.07168 -56.59523,4.07168c-21.18586,0 -40.36967,3.33201 -54.27251,-2.97231c-13.95316,-6.32716 -22.58705,-15.0179 -22.58705,-24.44355c0,-18.81731 34.41118,-34.07173 76.85952,-34.07173c42.44834,0 76.85953,15.25442 76.85953,34.07173z" fill="#0d1c55" stroke="none" stroke-width="0"/><path d="M185.95506,198.02587v-17.76293c0,0 35.38732,-4.2557 53.28878,-4.2557c17.80894,0 53.84389,4.2557 53.84389,4.2557v17.76293c0,0 -36.00389,-3.7006 -53.84389,-3.7006c-17.87084,0 -53.28878,3.7006 -53.28878,3.7006z" fill="#0d1c55" stroke="#091647" stroke-width="1"/><path d="M185.05805,205.54856c0,-0.70423 27.48583,-2.82836 53.60396,-2.96894c28.17729,-0.15166 55.14333,1.76276 55.14333,3.33901c0,7.05109 -27.14556,18.50304 -54.66391,18.50304c-27.51835,0 -54.08339,-11.82202 -54.08339,-18.87311z" fill="#080911" stroke="none" stroke-width="0"/><path d="M185.56063,205.90552v-10.00098c0,0 35.59726,-2.39606 53.60491,-2.39606c17.91459,0 54.1633,2.39606 54.1633,2.39606v10.00098c0,0 -36.21747,-2.08352 -54.1633,-2.08352c-17.97686,0 -53.60491,2.08352 -53.60491,2.08352z" fill="#080911" stroke="#38383b" stroke-width="1"/><path d="M183.91972,204.13186v-6.29103h1.29521v6.29103z" fill="#aaadc9" stroke="none" stroke-width="0"/><path d="M293.69328,204.05523v-6.29104h1.29521v6.29104z" fill="#aaadc9" stroke="none" stroke-width="0"/></g></g></svg>