<svg version="1.1" xmlns="http://www.w3.org/2000/svg" xmlns:xlink="http://www.w3.org/1999/xlink" width="41.04033" height="23.71963" viewBox="0,0,41.04033,23.71963"><g transform="translate(-219.47984,-168.14018)"><g data-paper-data="{&quot;isPaintingLayer&quot;:true}" fill-rule="nonzero" stroke-linecap="butt" stroke-linejoin="miter" stroke-miterlimit="10" stroke-dasharray="" stroke-dashoffset="0" style="mix-blend-mode: normal"><g><path d="M260.52016,177.23674c0,2.37373 -2.05098,4.57288 -5.41022,6.2325c-3.75046,1.85292 -9.13165,1.08707 -15.10994,1.08707c-5.65626,0 -10.778,0.88959 -14.48982,-0.79356c-3.72525,-1.68924 -6.03035,-4.00952 -6.03035,-6.526c0,-5.02389 9.18719,-9.09656 20.52016,-9.09656c11.33297,0 20.52016,4.07267 20.52016,9.09656z" fill="#0d1c55" stroke="none" stroke-width="0"/><path d="M225.57095,184.8126v-4.74239c0,0 9.4478,-1.1362 14.22718,-1.1362c4.75468,0 14.37538,1.1362 14.37538,1.1362v4.74239c0,0 -9.61241,-0.988 -14.37538,-0.988c-4.7712,0 -14.22718,0.988 -14.22718,0.988z" fill="#0d1c55" stroke="#091647" stroke-width="0.5"/><path d="M225.33145,186.82103c0,-0.18802 7.33824,-0.75513 14.31133,-0.79266c7.52285,-0.04049 14.72231,0.47063 14.72231,0.89146c0,1.88252 -7.24739,4.93999 -14.59431,4.93999c-7.34692,0 -14.43933,-3.15627 -14.43933,-5.03879z" fill="#080911" stroke="none" stroke-width="0"/><path d="M225.46563,186.91633v-2.67009c0,0 9.50385,-0.63971 14.31158,-0.63971c4.78288,0 14.46066,0.63971 14.46066,0.63971v2.67009c0,0 -9.66944,-0.55626 -14.46066,-0.55626c-4.79951,0 -14.31158,0.55626 -14.31158,0.55626z" fill="#080911" stroke="#38383b" stroke-width="0.5"/><path d="M225.02754,186.4428v-1.6796h0.3458v1.6796z" fill="#c7c8d6" stroke="none" stroke-width="0"/><path d="M254.33518,186.42233v-1.6796h0.3458v1.6796z" fill="#c7c8d6" stroke="none" stroke-width="0"/></g><g data-paper-data="{&quot;index&quot;:null}" fill="#c7c8d6" stroke="none" stroke-width="0"><g><g><path d="M234.54119,188.26096c0.21223,0.02917 0.33066,-0.15272 0.68684,-0.0089c0.41437,0.16732 0.2879,0.38489 0.4321,0.524c0.13057,0.12596 0.34362,0.02683 0.51421,0.31568c0.19272,0.32631 -0.11314,0.454 -0.139,0.63694c-0.0286,0.20233 0.12797,0.4054 -0.09691,0.66382c-0.15661,0.17997 -0.38066,0.07095 -0.51776,0.14568c-0.1642,0.08951 -0.04966,0.24393 -0.49175,0.31484c-0.32813,0.05263 -0.50029,-0.11178 -0.7338,-0.14387c-0.25494,-0.03504 0.10617,-2.48116 0.34607,-2.44819z"/><path d="M234.19343,190.70892c-0.23351,-0.0321 -0.44471,0.07962 -0.74573,-0.05949c-0.40557,-0.18742 -0.25257,-0.30506 -0.38569,-0.43544c-0.11115,-0.10886 -0.35689,-0.06442 -0.45762,-0.27975c-0.14464,-0.3092 0.06228,-0.46231 0.09088,-0.66464c0.02586,-0.18294 -0.23293,-0.38825 0.04293,-0.65015c0.2442,-0.23184 0.42163,-0.07904 0.58216,-0.16499c0.17729,-0.09492 0.11597,-0.3383 0.56094,-0.3875c0.38249,-0.04229 0.44597,0.16461 0.65819,0.19378c0.23989,0.03297 -0.09113,2.48323 -0.34607,2.44819z" data-paper-data="{&quot;index&quot;:null}"/></g><path d="M236.79696,190.48063c0,0 0.3482,0.21226 0.49438,0.32734c0.14618,0.11508 0.56893,0.5477 0.56893,0.5477l-0.77031,-0.33548l0.03366,0.30526l-0.86962,-0.49462l0.01722,0.36546l-1.24339,-0.75566l0.26041,-0.15397l0.68611,0.38344l0.0119,-0.30013l0.85531,0.47462z" data-paper-data="{&quot;index&quot;:null}"/><path d="M236.78631,188.13207c0,0 0.39181,-0.05888 0.57249,-0.06425c0.18068,-0.00537 0.76541,0.05349 0.76541,0.05349l-0.78318,0.23021l0.21539,0.20649l-0.9564,0.17353l0.24066,0.26161l-1.39767,0.21201l0.09808,-0.27709l0.75034,-0.14198l-0.17823,-0.23108l0.93326,-0.17951z" data-paper-data="{&quot;index&quot;:null}"/><path d="M235.66557,189.49314l2.00338,-0.07667c0,0 -0.26299,-0.246 -0.18284,-0.22711c0.03433,0.00809 0.21082,0.04681 0.34606,0.11547c0.15833,0.08038 0.27563,0.19174 0.27563,0.19174c0,0 -0.10345,0.11888 -0.22849,0.20809c-0.13912,0.09927 -0.30301,0.17055 -0.33973,0.18381c-0.07514,0.02713 0.13824,-0.24111 0.13824,-0.24111l-1.99797,0.09784z" data-paper-data="{&quot;index&quot;:null}"/></g><g><path d="M230.64515,187.37128c0.18756,0.05385 0.31796,-0.09477 0.62044,0.08115c0.35188,0.20466 0.20961,0.3844 0.32156,0.52855c0.10137,0.13053 0.30633,0.06881 0.42264,0.35139c0.1314,0.31923 -0.16096,0.39465 -0.20802,0.55624c-0.05206,0.17872 0.06275,0.38213 -0.17355,0.58593c-0.16457,0.14193 -0.35242,0.01454 -0.48574,0.06413c-0.15967,0.05939 -0.07645,0.21349 -0.48425,0.22003c-0.30268,0.00485 -0.43656,-0.16574 -0.64294,-0.22499c-0.22531,-0.06469 0.41786,-2.2233 0.62987,-2.16243z"/><path d="M230.01377,189.53328c-0.20638,-0.05926 -0.4113,0.01405 -0.66465,-0.15046c-0.34134,-0.22164 -0.18812,-0.30785 -0.29121,-0.44269c-0.08608,-0.11258 -0.31342,-0.10442 -0.37628,-0.31165c-0.09027,-0.29757 0.11617,-0.40875 0.16823,-0.58746c0.04707,-0.16159 -0.15961,-0.3803 0.12312,-0.58062c0.25027,-0.17732 0.39042,-0.01652 0.54631,-0.07318c0.17217,-0.06257 0.14848,-0.28996 0.55607,-0.27655c0.35035,0.01152 0.38072,0.20631 0.56829,0.26017c0.21201,0.06087 -0.40456,2.22712 -0.62987,2.16243z" data-paper-data="{&quot;index&quot;:null}"/></g><path d="M232.38427,189.91863c0,0 0.25595,0.26923 0.35724,0.4051c0.1013,0.13587 0.37057,0.61658 0.37057,0.61658l-0.59801,-0.47765l-0.04275,0.27647l-0.64764,-0.64117l-0.07148,0.32552l-0.91451,-0.95936l0.26554,-0.0737l0.51259,0.49988l0.08161,-0.26116l0.63978,0.62018z" data-paper-data="{&quot;index&quot;:null}"/><path d="M232.66294,187.60519c0,0 0.36037,0.01995 0.52251,0.04858c0.16215,0.02863 0.67281,0.18929 0.67281,0.18929l-0.74114,0.06047l0.15392,0.22402l-0.88516,-0.02212l0.16627,0.27785l-1.28587,-0.06943l0.13874,-0.229l0.69553,0.01215l-0.11624,-0.23908l0.86563,0.01251z" data-paper-data="{&quot;index&quot;:null}"/><path d="M231.31532,188.67239l1.54613,0.52313c0,0 -0.10754,-0.25818 -0.05463,-0.22011c0.02585,0.0186 0.13855,0.11117 0.22555,0.22015c0.0782,0.09795 0.13283,0.21436 0.13283,0.21436c0,0 -0.11694,0.06119 -0.25914,0.0889c-0.12147,0.02367 -0.26863,0.01464 -0.29738,0.01332c-0.06712,-0.00309 0.19422,-0.13739 0.19422,-0.13739l-1.55509,-0.50773z" data-paper-data="{&quot;index&quot;:null}"/></g><g data-paper-data="{&quot;index&quot;:null}" fill="#c7c8d6" stroke="none" stroke-width="0"><g><g><path d="M244.86538,188.26514c0.23989,-0.03297 0.60101,2.41315 0.34607,2.44819c-0.23351,0.0321 -0.40568,0.19651 -0.7338,0.14387c-0.44209,-0.07091 -0.32754,-0.22533 -0.49175,-0.31484c-0.1371,-0.07474 -0.36115,0.03428 -0.51776,-0.14568c-0.22488,-0.25842 -0.0683,-0.46149 -0.0969,-0.66382c-0.02586,-0.18294 -0.33172,-0.31064 -0.139,-0.63694c0.17059,-0.28885 0.38364,-0.18972 0.51421,-0.31568c0.1442,-0.13911 0.01773,-0.35668 0.4321,-0.524c0.35618,-0.14382 0.47462,0.03807 0.68684,0.0089z"/><path d="M245.21312,190.71309c-0.25494,0.03504 -0.58596,-2.41522 -0.34607,-2.44819c0.21223,-0.02917 0.2757,-0.23607 0.65819,-0.19378c0.44498,0.0492 0.38366,0.29258 0.56094,0.3875c0.16053,0.08595 0.33796,-0.06685 0.58216,0.16499c0.27586,0.2619 0.01707,0.4672 0.04293,0.65015c0.0286,0.20233 0.23552,0.35544 0.09088,0.66464c-0.10073,0.21534 -0.34647,0.17089 -0.45762,0.27975c-0.13311,0.13038 0.01988,0.24802 -0.38569,0.43544c-0.30103,0.13911 -0.51222,0.0274 -0.74573,0.05949z" data-paper-data="{&quot;index&quot;:null}"/></g><path d="M242.565,190.84877l0.85531,-0.47462l0.0119,0.30013l0.68611,-0.38344l0.26041,0.15397l-1.24339,0.75566l0.01722,-0.36546l-0.86962,0.49462l0.03367,-0.30526l-0.77031,0.33548c0,0 0.42275,-0.43262 0.56893,-0.5477c0.14618,-0.11508 0.49438,-0.32734 0.49438,-0.32734z" data-paper-data="{&quot;index&quot;:null}"/><path d="M242.36012,188.37967l0.93326,0.17951l-0.17823,0.23108l0.75034,0.14198l0.09808,0.27709l-1.39767,-0.21201l0.24066,-0.26161l-0.9564,-0.17353l0.21539,-0.20649l-0.78318,-0.23021c0,0 0.58474,-0.05886 0.76541,-0.05349c0.18068,0.00537 0.57249,0.06425 0.57249,0.06425z" data-paper-data="{&quot;index&quot;:null}"/><path d="M243.7267,189.74936l-1.99797,-0.09784c0,0 0.21338,0.26823 0.13824,0.24111c-0.03672,-0.01325 -0.20061,-0.08454 -0.33973,-0.18381c-0.12504,-0.08922 -0.22849,-0.20809 -0.22849,-0.20809c0,0 0.1173,-0.11136 0.27563,-0.19174c0.13524,-0.06866 0.31173,-0.10739 0.34606,-0.11547c0.08016,-0.01888 -0.18284,0.22711 -0.18284,0.22711l2.00338,0.07667z" data-paper-data="{&quot;index&quot;:null}"/></g><g><path d="M248.76141,187.37546c0.21201,-0.06087 0.85519,2.09773 0.62987,2.16243c-0.20638,0.05926 -0.34026,0.22985 -0.64294,0.22499c-0.4078,-0.00653 -0.32458,-0.16063 -0.48425,-0.22003c-0.13332,-0.04959 -0.32117,0.0778 -0.48574,-0.06413c-0.2363,-0.2038 -0.1215,-0.40722 -0.17355,-0.58593c-0.04707,-0.16159 -0.33942,-0.23701 -0.20802,-0.55624c0.11631,-0.28258 0.32127,-0.22087 0.42264,-0.35139c0.11195,-0.14415 -0.03032,-0.32389 0.32156,-0.52855c0.30247,-0.17592 0.43287,-0.0273 0.62044,-0.08115z"/><path d="M249.39278,189.53745c-0.22531,0.06469 -0.84189,-2.10155 -0.62987,-2.16243c0.18756,-0.05386 0.21793,-0.24865 0.56829,-0.26017c0.40759,-0.01341 0.3839,0.21399 0.55607,0.27655c0.15589,0.05666 0.29604,-0.10415 0.54631,0.07318c0.28273,0.20032 0.07605,0.41903 0.12312,0.58062c0.05206,0.17871 0.2585,0.2899 0.16823,0.58746c-0.06287,0.20723 -0.2902,0.19906 -0.37628,0.31165c-0.10309,0.13484 0.05013,0.22104 -0.29121,0.44269c-0.25335,0.1645 -0.45828,0.0912 -0.66465,0.15046z" data-paper-data="{&quot;index&quot;:null}"/></g><path d="M247.06933,190.2535l0.63978,-0.62018l0.08161,0.26116l0.51259,-0.49988l0.26554,0.0737l-0.91451,0.95936l-0.07148,-0.32552l-0.64764,0.64117l-0.04274,-0.27647l-0.59801,0.47765c0,0 0.26928,-0.48071 0.37057,-0.61658c0.1013,-0.13587 0.35724,-0.4051 0.35724,-0.4051z" data-paper-data="{&quot;index&quot;:null}"/><path d="M246.55662,187.8746l0.86563,-0.01251l-0.11624,0.23908l0.69553,-0.01215l0.13874,0.229l-1.28587,0.06943l0.16627,-0.27785l-0.88516,0.02212l0.15392,-0.22402l-0.74114,-0.06047c0,0 0.51067,-0.16066 0.67282,-0.18929c0.16215,-0.02863 0.52251,-0.04858 0.52251,-0.04858z" data-paper-data="{&quot;index&quot;:null}"/><path d="M248.15875,188.87118l-1.55509,0.50773c0,0 0.26134,0.13431 0.19422,0.13739c-0.02875,0.00132 -0.1759,0.01035 -0.29738,-0.01332c-0.14221,-0.02771 -0.25914,-0.0889 -0.25914,-0.0889c0,0 0.05463,-0.1164 0.13283,-0.21436c0.087,-0.10898 0.19969,-0.20154 0.22555,-0.22015c0.05291,-0.03807 -0.05462,0.22011 -0.05462,0.22011l1.54613,-0.52313z" data-paper-data="{&quot;index&quot;:null}"/></g></g></g></svg>