<svg version="1.1" xmlns="http://www.w3.org/2000/svg" xmlns:xlink="http://www.w3.org/1999/xlink" width="153.71912" height="88.84334" viewBox="0,0,153.71912,88.84334"><g transform="translate(-163.14044,-135.57833)"><g data-paper-data="{&quot;isPaintingLayer&quot;:true}" fill-rule="nonzero" stroke-linecap="butt" stroke-linejoin="miter" stroke-miterlimit="10" stroke-dasharray="" stroke-dashoffset="0" style="mix-blend-mode: normal"><path d="M316.85956,169.65003c0,8.89093 -7.68209,17.12798 -20.26433,23.34422c-14.04759,6.94021 -34.20318,4.07168 -56.59523,4.07168c-21.18586,0 -40.36967,3.33201 -54.27251,-2.97231c-13.95316,-6.32715 -22.58705,-15.0179 -22.58705,-24.44355c0,-18.81731 34.41118,-34.07174 76.85952,-34.07174c42.44834,0 76.85953,15.25443 76.85953,34.07174z" fill="#0d1c55" stroke="none" stroke-width="0"/><path d="M185.95506,198.02587v-17.76293c0,0 35.38732,-4.2557 53.28878,-4.2557c17.80894,0 53.84389,4.2557 53.84389,4.2557v17.76293c0,0 -36.00389,-3.7006 -53.84389,-3.7006c-17.87084,0 -53.28878,3.7006 -53.28878,3.7006z" fill="#0d1c55" stroke="#091647" stroke-width="1"/><path d="M185.05805,205.54857c0,-0.70424 27.48583,-2.82838 53.60396,-2.96895c28.17729,-0.15165 55.14333,1.76277 55.14333,3.33902c0,7.05108 -27.14556,18.50303 -54.66391,18.50303c-27.51835,0 -54.08339,-11.82201 -54.08339,-18.8731z" fill="#080911" stroke="none" stroke-width="0"/><path d="M185.56063,205.90552v-10.00097c0,0 35.59726,-2.39606 53.60491,-2.39606c17.91459,0 54.1633,2.39607 54.1633,2.39607v10.00097c0,0 -36.21747,-2.08352 -54.1633,-2.08352c-17.97686,0 -53.60491,2.08352 -53.60491,2.08352z" fill="#080911" stroke="#38383b" stroke-width="1"/><path d="M183.91972,204.13187v-6.29103h1.29521v6.29103z" fill="#aaadc9" stroke="none" stroke-width="0"/><path d="M293.69328,204.05523v-6.29103h1.29521v6.29103z" fill="#aaadc9" stroke="none" stroke-width="0"/><g fill="#aaadc9" stroke="none" stroke-width="0"><g><g><path d="M258.31034,219.8808c-0.74578,0.0813 -1.30818,0.58902 -2.34741,0.39235c-1.40016,-0.26498 -1.022,-0.74604 -1.53642,-1.04546c-0.42952,-0.25 -1.15205,0.07689 -1.63426,-0.50962c-0.69242,-0.84217 -0.17618,-1.47429 -0.24915,-2.12055c-0.06597,-0.58433 -1.02768,-1.01783 -0.38548,-2.03879c0.56849,-0.90376 1.23745,-0.56941 1.66409,-0.95852c0.47118,-0.42973 0.08819,-1.13319 1.42139,-1.62859c1.14599,-0.42583 1.50657,0.1634 2.18439,0.08951c0.76615,-0.08353 1.69706,7.73092 0.88285,7.81969z"/><path d="M257.4329,212.0605c0.67781,-0.07389 0.89819,-0.72649 2.1113,-0.55786c1.41129,0.19618 1.19452,0.96503 1.7501,1.28283c0.50305,0.28775 1.08117,-0.18256 1.83742,0.57677c0.85432,0.8578 0.0127,1.48791 0.07867,2.07224c0.07297,0.64625 0.71763,1.15181 0.22991,2.12265c-0.33966,0.67611 -1.11753,0.5128 -1.48084,0.84924c-0.43512,0.40294 0.04116,0.79085 -1.26585,1.35099c-0.9701,0.41575 -1.63206,0.04151 -2.37784,0.12282c-0.81421,0.08877 -1.649,-7.73617 -0.88286,-7.81969z" data-paper-data="{&quot;index&quot;:null}"/></g><path d="M249.87867,220.0759l2.76342,-1.43377l0.01111,0.95592l2.21703,-1.15876l0.81479,0.51305l-4.02316,2.29333l0.08736,-1.16117l-2.81076,1.49613l0.1343,-0.96815l-2.48062,0.99865c0,0 1.3835,-1.33872 1.85882,-1.69181c0.47532,-0.3531 1.60203,-0.99739 1.60203,-0.99739z" data-paper-data="{&quot;index&quot;:null}"/><path d="M249.44686,212.20225l2.95316,0.65425l-0.58764,0.7193l2.37454,0.51857l0.28735,0.89028l-4.42778,-0.79904l0.78897,-0.81086l-3.02731,-0.6373l0.70364,-0.63776l-2.47115,-0.80221c0,0 1.86556,-0.13515 2.43991,-0.10196c0.57433,0.03319 1.81563,0.25544 1.81563,0.25544z" data-paper-data="{&quot;index&quot;:null}"/><path d="M253.67257,216.68164l-6.34778,-0.48929c0,0 0.65497,0.8724 0.41833,0.7794c-0.11565,-0.04543 -0.63068,-0.28684 -1.06445,-0.61505c-0.38985,-0.29498 -0.70838,-0.6824 -0.70838,-0.6824c0,0 0.38311,-0.34383 0.89398,-0.58545c0.43637,-0.2064 1.00133,-0.31387 1.11128,-0.33655c0.25669,-0.05294 -0.60193,0.70626 -0.60193,0.70626l6.36686,0.42247z" data-paper-data="{&quot;index&quot;:null}"/></g><g><path d="M270.99988,216.80985c-0.66186,0.17014 -1.10303,0.70093 -2.06556,0.65852c-1.29683,-0.05714 -1.01833,-0.53997 -1.52102,-0.74316c-0.41972,-0.16965 -1.02873,0.2189 -1.53965,-0.24731c-0.73363,-0.66943 -0.35027,-1.30637 -0.49997,-1.87958c-0.13535,-0.51829 -1.05872,-0.7843 -0.61225,-1.78821c0.39523,-0.88867 1.04179,-0.67405 1.37594,-1.08028c0.36902,-0.44864 -0.06761,-1.03316 1.07013,-1.65292c0.97798,-0.53274 1.37959,-0.04827 1.98113,-0.20289c0.67994,-0.17478 2.53383,6.7501 1.81123,6.93584z"/><path d="M269.19345,209.87278c0.60154,-0.15462 0.7155,-0.77164 1.83118,-0.77708c1.29794,-0.00635 1.2023,0.71502 1.74449,0.92942c0.49093,0.19414 0.95112,-0.30498 1.73156,0.28148c0.88164,0.6625 0.20462,1.33991 0.33997,1.85819c0.1497,0.57321 0.79658,0.94532 0.48287,1.88399c-0.21847,0.65369 -0.941,0.60746 -1.2249,0.95797c-0.34,0.41979 0.13979,0.70771 -0.96593,1.38244c-0.82069,0.5008 -1.46613,0.24931 -2.12798,0.41945c-0.72259,0.18574 -2.49118,-6.76106 -1.81124,-6.93583z" data-paper-data="{&quot;index&quot;:null}"/></g><path d="M263.73255,218.90242l2.04407,-1.96579l0.25644,0.83223l1.63771,-1.58451l0.84421,0.23791l-2.9227,3.04182l-0.22339,-1.03693l-2.06932,2.03247l-0.13256,-0.88044l-1.9093,1.51268c0,0 0.8631,-1.52658 1.18721,-1.95773c0.32411,-0.43115 1.1421,-1.2848 1.1421,-1.2848z" data-paper-data="{&quot;index&quot;:null}"/><path d="M262.25835,210.9454l2.7476,0.20648l-0.43646,0.72483l2.20827,0.15928l0.37467,0.76539l-4.09595,-0.14557l0.60609,-0.83353l-2.81224,-0.18157l0.55163,-0.66638l-2.33222,-0.40246c0,0 1.66451,-0.36406 2.18666,-0.4087c0.52215,-0.04464 1.67018,-0.00541 1.67018,-0.00541z" data-paper-data="{&quot;index&quot;:null}"/><path d="M282.03786,213.18915c-0.57587,0.20759 -0.92446,0.71815 -1.7864,0.76159c-1.16128,0.05852 -0.95368,-0.39557 -1.41912,-0.53432c-0.38861,-0.11584 -0.89891,0.28204 -1.39389,-0.09058c-0.71075,-0.53504 -0.42262,-1.13542 -0.6045,-1.63396c-0.16444,-0.45077 -1.01034,-0.61003 -0.69693,-1.54297c0.27743,-0.82585 0.87215,-0.68904 1.13583,-1.0795c0.29121,-0.43123 -0.1475,-0.91564 0.81479,-1.56435c0.82717,-0.55763 1.2262,-0.15949 1.74957,-0.34816c0.59159,-0.21327 2.82937,5.80562 2.20065,6.03226z"/><path d="M279.84138,207.15538c0.52337,-0.18867 0.57293,-0.7485 1.56738,-0.84754c1.15693,-0.11522 1.13253,0.53612 1.63413,0.68156c0.45418,0.13168 0.82242,-0.35224 1.5679,0.10486c0.84214,0.51637 0.29558,1.1776 0.46003,1.62837c0.18188,0.49853 0.79016,0.77578 0.58964,1.63932c-0.13964,0.60138 -0.78789,0.62113 -1.01147,0.95767c-0.26776,0.40306 0.18439,0.61931 -0.74469,1.31435c-0.68958,0.51587 -1.28639,0.34609 -1.86226,0.55368c-0.62871,0.22664 -2.79225,-5.81899 -2.20066,-6.03226z" data-paper-data="{&quot;index&quot;:null}"/><path d="M275.65231,215.35053l1.70937,-1.87912l0.27895,0.72848l1.36899,-1.51408l0.76874,0.16217l-2.43034,2.89338l-0.26165,-0.91341l-1.72795,1.94025l-0.17111,-0.77898l-1.61602,1.4661c0,0 0.68014,-1.41599 0.94403,-1.82071c0.26389,-0.40472 0.94395,-1.21657 0.94395,-1.21657z" data-paper-data="{&quot;index&quot;:null}"/><path d="M273.53499,208.8002l2.46764,-0.04779l-0.32803,0.68323l1.98271,-0.04437l0.39874,0.65093l-3.66491,0.21593l0.47013,-0.79448l-2.52319,0.07547l0.43567,-0.64082l-2.11377,-0.16203c0,0 1.45361,-0.46516 1.91548,-0.54905c0.46187,-0.08389 1.48895,-0.14581 1.48895,-0.14581z" data-paper-data="{&quot;index&quot;:null}"/><path d="M277.86743,211.77408l-4.6367,2.36842c0,0 0.88831,0.29242 0.67883,0.33546c-0.08972,0.01844 -0.54788,0.11992 -0.94151,0.10582c-0.46082,-0.0165 -0.85882,-0.15079 -0.85882,-0.15079c0,0 0.11394,-0.39307 0.31113,-0.73983c0.2194,-0.38581 0.5277,-0.73275 0.59975,-0.80408c0.14743,-0.14596 -0.06243,0.71907 -0.06243,0.71907l4.60085,-2.41235z" data-paper-data="{&quot;index&quot;:null}"/><path d="M267.22521,214.48542l-4.99274,1.47677c0,0 0.81951,0.45057 0.60569,0.45441c-0.09159,0.00164 -0.56057,0.01727 -0.94493,-0.06887c-0.44996,-0.10084 -0.81654,-0.30591 -0.81654,-0.30591c0,0 0.18417,-0.36547 0.44169,-0.67012c0.28651,-0.33897 0.65328,-0.6234 0.73719,-0.68028c0.17173,-0.11641 -0.1934,0.69539 -0.1934,0.69539l4.96559,-1.52655z" data-paper-data="{&quot;index&quot;:null}"/></g><g data-paper-data="{&quot;index&quot;:null}" fill="#aaadc9" stroke="none" stroke-width="0"><g><g><path d="M221.46822,211.82634c0.67962,0.05478 1.02346,-0.54438 2.181,-0.15098c1.34663,0.45767 0.9836,1.17163 1.46669,1.58794c0.43742,0.37695 1.09671,0.02389 1.69042,0.91129c0.67069,1.00248 -0.27843,1.46289 -0.32792,2.04885c-0.05474,0.64805 0.47907,1.26539 -0.18936,2.12672c-0.46551,0.59986 -1.19694,0.29343 -1.61926,0.55544c-0.5058,0.31378 -0.11424,0.78402 -1.50639,1.08831c-1.03329,0.22585 -1.60976,-0.26584 -2.35753,-0.32612c-0.81639,-0.06582 -0.10584,-7.90337 0.66236,-7.84145z"/><path d="M220.80044,219.66735c-0.74777,-0.06028 -1.39894,0.33244 -2.38036,-0.05583c-1.32226,-0.52312 -0.85709,-0.92429 -1.30339,-1.31482c-0.37264,-0.32609 -1.1456,-0.14094 -1.50415,-0.80722c-0.51486,-0.95673 0.11532,-1.48023 0.17006,-2.12827c0.0495,-0.58596 -0.80954,-1.19214 0.02029,-2.07364c0.73458,-0.78033 1.32571,-0.32647 1.82046,-0.62827c0.5464,-0.33331 0.30808,-1.09575 1.71329,-1.33159c1.20788,-0.20271 1.44654,0.44341 2.12616,0.49819c0.7682,0.06193 0.15402,7.90725 -0.66236,7.84145z" data-paper-data="{&quot;index&quot;:null}"/></g><path d="M229.03291,218.47684c0,0 1.1444,0.61232 1.62947,0.9519c0.48507,0.33958 1.90572,1.63881 1.90572,1.63881l-2.50775,-0.92842l0.16151,0.964l-2.85175,-1.4164l0.12,1.15824l-4.08612,-2.17915l0.80002,-0.53579l2.24878,1.09589l-0.01581,-0.95586l2.80269,1.3554z" data-paper-data="{&quot;index&quot;:null}"/><path d="M228.57952,211.01569c0,0 1.23454,-0.25711 1.80772,-0.30645c0.57317,-0.04935 2.44181,0.03323 2.44181,0.03323l-2.44759,0.87147l0.72132,0.61769l-3.00816,0.72228l0.81149,0.78833l-4.40354,0.92337l0.26218,-0.89802l2.35899,-0.58522l-0.60765,-0.70247l2.93356,-0.73713z" data-paper-data="{&quot;index&quot;:null}"/><path d="M225.26132,215.54096l6.35244,-0.60154c0,0 -0.87966,-0.73473 -0.62158,-0.68904c0.11054,0.01957 0.6783,0.11109 1.12032,0.30512c0.51747,0.22714 0.9101,0.56006 0.9101,0.56006c0,0 -0.3075,0.39623 -0.68889,0.70207c-0.42436,0.34029 -0.93239,0.5961 -1.04671,0.64477c-0.23392,0.09962 0.39622,-0.79087 0.39622,-0.79087l-6.3315,0.6678z" data-paper-data="{&quot;index&quot;:null}"/></g><g><path d="M209.65015,209.97122c0.60565,0.13763 0.99346,-0.35795 1.98606,0.14704c1.15474,0.58749 0.73473,1.18406 1.11624,1.62214c0.34545,0.39666 0.98574,0.16394 1.40581,1.04112c0.47456,0.99093 -0.44096,1.28283 -0.56167,1.80472c-0.13349,0.57721 0.26766,1.2031 -0.44685,1.89292c-0.4976,0.48041 -1.1173,0.10917 -1.53209,0.29057c-0.49677,0.21725 -0.20478,0.69207 -1.49949,0.78568c-0.96096,0.06949 -1.41689,-0.44867 -2.08328,-0.60011c-0.72754,-0.16533 0.93067,-7.13965 1.61526,-6.98408z"/><path d="M208.03005,216.95421c-0.66639,-0.15144 -1.30448,0.11812 -2.13895,-0.35937c-1.12427,-0.64333 -0.65278,-0.94465 -1.00447,-1.3547c-0.29366,-0.34238 -1.01461,-0.27581 -1.25138,-0.9231c-0.34001,-0.92946 0.29615,-1.31964 0.42964,-1.89683c0.12071,-0.52189 -0.57512,-1.17997 0.28752,-1.86703c0.76362,-0.60819 1.23768,-0.12223 1.72295,-0.33011c0.53593,-0.22958 0.42002,-0.94795 1.71763,-0.97815c1.11538,-0.02595 1.24668,0.58759 1.85233,0.72522c0.68459,0.15557 -0.88773,7.1494 -1.61526,6.98408z" data-paper-data="{&quot;index&quot;:null}"/></g><path d="M215.47409,217.78567c0,0 0.8417,0.83029 1.17782,1.25214c0.33612,0.42185 1.24185,1.92353 1.24185,1.92353l-1.95113,-1.45832l-0.10772,0.88382l-2.12572,-1.97342l-0.19411,1.04281l-3.00718,-2.95834l0.83719,-0.26158l1.68167,1.53778l0.2329,-0.83913l2.09859,1.90745z" data-paper-data="{&quot;index&quot;:null}"/><path d="M215.91772,210.07857c0,0 1.14647,-0.07154 1.66967,-0.04161c0.5232,0.02992 2.19729,0.34699 2.19729,0.34699l-2.31997,0.46796l0.57018,0.65058l-2.80603,0.26068l0.62931,0.81614l-4.09023,0.26082l0.35298,-0.77564l2.20292,-0.22138l-0.45669,-0.71225l2.74069,-0.28375z" data-paper-data="{&quot;index&quot;:null}"/><path d="M198.92932,207.55496c0.52847,0.17386 0.91615,-0.23534 1.75867,0.29877c0.98017,0.62137 0.55526,1.11793 0.8585,1.54079c0.27458,0.38289 0.8652,0.22938 1.16577,1.04709c0.33955,0.92374 -0.50152,1.10676 -0.65322,1.56198c-0.16777,0.50346 0.13713,1.09548 -0.55827,1.65032c-0.48429,0.38641 -1.00559,0.00305 -1.39079,0.1298c-0.46134,0.1518 -0.24104,0.59987 -1.40351,0.57407c-0.86282,-0.01915 -1.22565,-0.51971 -1.80714,-0.71101c-0.63484,-0.20884 1.4326,-6.28834 2.02996,-6.09182z"/><path d="M196.89514,213.64539c-0.58149,-0.19129 -1.17327,-0.00477 -1.87711,-0.50103c-0.94828,-0.6686 -0.50239,-0.89751 -0.7814,-1.29286c-0.23296,-0.33012 -0.8815,-0.33161 -1.03803,-0.92883c-0.22476,-0.85756 0.37549,-1.1518 0.54325,-1.65526c0.15169,-0.45522 -0.41328,-1.10081 0.414,-1.64068c0.73231,-0.47791 1.11404,-0.00453 1.56433,-0.14896c0.4973,-0.1595 0.45458,-0.8099 1.61429,-0.7273c0.99684,0.071 1.06215,0.62923 1.59063,0.80309c0.59736,0.19652 -1.39513,6.30065 -2.02997,6.09181z" data-paper-data="{&quot;index&quot;:null}"/><path d="M203.50993,214.68996c0,0 0.70264,0.7924 0.97782,1.18953c0.27518,0.39713 0.99491,1.7934 0.99491,1.7934l-1.65664,-1.42003l-0.14911,0.78348l-1.78189,-1.89082l-0.23583,0.92041l-2.51082,-2.82381l0.76387,-0.18375l1.41107,1.47493l0.25833,-0.73604l1.76159,1.83026z" data-paper-data="{&quot;index&quot;:null}"/><path d="M204.72474,208.2766c0,0 1.02842,0.03298 1.49247,0.10384c0.46406,0.07085 1.93018,0.49491 1.93018,0.49491l-2.10836,0.22147l0.45354,0.6283l-2.52432,-0.0044l0.49231,0.78092l-3.66953,-0.11266l0.38025,-0.6619l1.98316,-0.01147l-0.34714,-0.67372l2.468,-0.0217z" data-paper-data="{&quot;index&quot;:null}"/><path d="M201.3208,211.52812l4.66694,2.28187c0,0 -0.23413,-0.85879 -0.08265,-0.71703c0.07403,0.06927 0.39197,0.40739 0.62215,0.78687c0.20687,0.34107 0.33183,0.73078 0.33183,0.73078c0,0 -0.39406,0.14544 -0.85424,0.17491c-0.39308,0.02517 -0.8539,-0.06337 -0.94412,-0.07927c-0.21062,-0.03713 0.66911,-0.35446 0.66911,-0.35446l-4.70154,-2.23694z" data-paper-data="{&quot;index&quot;:null}"/><path d="M211.92241,213.89505l5.0066,1.38615c0,0 -0.38784,-0.8012 -0.21291,-0.68967c0.08549,0.0545 0.46012,0.32849 0.75606,0.65926c0.26599,0.29729 0.46037,0.65742 0.46037,0.65742c0,0 -0.36065,0.21532 -0.8076,0.32878c-0.38178,0.09692 -0.85101,0.09451 -0.94261,0.09544c-0.21385,0.00218 0.59266,-0.47129 0.59266,-0.47129l-5.03234,-1.33563z" data-paper-data="{&quot;index&quot;:null}"/></g></g></g></svg>