<svg version="1.1" xmlns="http://www.w3.org/2000/svg" xmlns:xlink="http://www.w3.org/1999/xlink" width="41.04033" height="23.71961" viewBox="0,0,41.04033,23.71961"><g transform="translate(-219.47983,-168.14019)"><g data-paper-data="{&quot;isPaintingLayer&quot;:true}" fill-rule="nonzero" stroke-linecap="butt" stroke-linejoin="miter" stroke-miterlimit="10" stroke-dasharray="" stroke-dashoffset="0" style="mix-blend-mode: normal"><g><path d="M260.52017,177.23675c0,2.37373 -2.05098,4.57287 -5.41022,6.2325c-3.75046,1.85292 -9.13165,1.08707 -15.10994,1.08707c-5.65626,0 -10.778,0.88959 -14.48982,-0.79356c-3.72525,-1.68924 -6.03035,-4.00952 -6.03035,-6.526c0,-5.02389 9.18719,-9.09656 20.52016,-9.09656c11.33297,0 20.52016,4.07267 20.52016,9.09656z" fill="#0d1c55" stroke="none" stroke-width="0"/><path d="M225.57094,184.8126v-4.74239c0,0 9.4478,-1.1362 14.22718,-1.1362c4.75468,0 14.37538,1.1362 14.37538,1.1362v4.74239c0,0 -9.61241,-0.988 -14.37538,-0.988c-4.7712,0 -14.22718,0.988 -14.22718,0.988z" fill="#0d1c55" stroke="#091647" stroke-width="0.5"/><path d="M225.33146,186.82102c0,-0.18802 7.33824,-0.75512 14.31133,-0.79266c7.52285,-0.04049 14.72231,0.47063 14.72231,0.89146c0,1.88252 -7.24739,4.93999 -14.59431,4.93999c-7.34692,0 -14.43933,-3.15627 -14.43933,-5.03879z" fill="#080911" stroke="none" stroke-width="0"/><path d="M225.46564,186.91632v-2.67009c0,0 9.50385,-0.63971 14.31158,-0.63971c4.78288,0 14.46066,0.63971 14.46066,0.63971v2.67009c0,0 -9.66944,-0.55626 -14.46066,-0.55626c-4.79951,0 -14.31158,0.55626 -14.31158,0.55626z" fill="#080911" stroke="#38383b" stroke-width="0.2"/><path d="M225.02754,186.4428v-1.6796h0.3458v1.6796z" fill="#c7c8d6" stroke="none" stroke-width="0"/><path d="M254.33517,186.42231v-1.6796h0.3458v1.6796z" fill="#c7c8d6" stroke="none" stroke-width="0"/></g></g></g></svg>