<svg version="1.1" xmlns="http://www.w3.org/2000/svg" xmlns:xlink="http://www.w3.org/1999/xlink" width="7.86859" height="9.8689" viewBox="0,0,7.86859,9.8689"><defs><linearGradient x1="239.96841" y1="179.73261" x2="239.96841" y2="181.10994" gradientUnits="userSpaceOnUse" id="color-1"><stop offset="0" stop-color="#f1f1f1"/><stop offset="1" stop-color="#bababa"/></linearGradient><linearGradient x1="239.9723" y1="179.36971" x2="239.9723" y2="180.94157" gradientUnits="userSpaceOnUse" id="color-2"><stop offset="0" stop-color="#bababa"/><stop offset="1" stop-color="#f1f1f1"/></linearGradient><linearGradient x1="240.01227" y1="175.03824" x2="240.01227" y2="178.9679" gradientUnits="userSpaceOnUse" id="color-3"><stop offset="0" stop-color="#030303"/><stop offset="1" stop-color="#818181"/></linearGradient><radialGradient cx="239.88777" cy="184.02411" r="1.25282" gradientUnits="userSpaceOnUse" id="color-4"><stop offset="0" stop-color="#bababa"/><stop offset="1" stop-color="#f1f1f1"/></radialGradient><linearGradient x1="239.95586" y1="181.0873" x2="239.95586" y2="184.05983" gradientUnits="userSpaceOnUse" id="color-5"><stop offset="0" stop-color="#bababa"/><stop offset="1" stop-color="#f1f1f1"/></linearGradient><linearGradient x1="239.11582" y1="182.32385" x2="240.86666" y2="182.32385" gradientUnits="userSpaceOnUse" id="color-6"><stop offset="0" stop-color="#f1f1f1"/><stop offset="1" stop-color="#bababa"/></linearGradient><linearGradient x1="236.50551" y1="180.87174" x2="238.44819" y2="180.87174" gradientUnits="userSpaceOnUse" id="color-7"><stop offset="0" stop-color="#f1f1f1"/><stop offset="1" stop-color="#bababa"/></linearGradient><linearGradient x1="236.80615" y1="181.16441" x2="237.48342" y2="181.16441" gradientUnits="userSpaceOnUse" id="color-8"><stop offset="0" stop-color="#f1f1f1"/><stop offset="1" stop-color="#bababa"/></linearGradient><linearGradient x1="236.6796" y1="180.33072" x2="237.39274" y2="180.33072" gradientUnits="userSpaceOnUse" id="color-9"><stop offset="0" stop-color="#f1f1f1"/><stop offset="1" stop-color="#bababa"/></linearGradient><linearGradient x1="236.62488" y1="179.465" x2="237.36475" y2="179.465" gradientUnits="userSpaceOnUse" id="color-10"><stop offset="0" stop-color="#f1f1f1"/><stop offset="1" stop-color="#bababa"/></linearGradient><linearGradient x1="236.67017" y1="178.68048" x2="237.3841" y2="178.68048" gradientUnits="userSpaceOnUse" id="color-11"><stop offset="0" stop-color="#f1f1f1"/><stop offset="1" stop-color="#bababa"/></linearGradient><linearGradient x1="236.63506" y1="177.77288" x2="237.27166" y2="177.77288" gradientUnits="userSpaceOnUse" id="color-12"><stop offset="0" stop-color="#f1f1f1"/><stop offset="1" stop-color="#bababa"/></linearGradient><linearGradient x1="236.26519" y1="178.82621" x2="236.80679" y2="178.82621" gradientUnits="userSpaceOnUse" id="color-13"><stop offset="0" stop-color="#f1f1f1"/><stop offset="1" stop-color="#bababa"/></linearGradient><linearGradient x1="236.0657" y1="180.81973" x2="236.8713" y2="180.81973" gradientUnits="userSpaceOnUse" id="color-14"><stop offset="0" stop-color="#f1f1f1"/><stop offset="1" stop-color="#bababa"/></linearGradient><linearGradient x1="236.12917" y1="179.88223" x2="236.81272" y2="179.88223" gradientUnits="userSpaceOnUse" id="color-15"><stop offset="0" stop-color="#f1f1f1"/><stop offset="1" stop-color="#bababa"/></linearGradient><linearGradient x1="236.11677" y1="181.71972" x2="237.22912" y2="181.71972" gradientUnits="userSpaceOnUse" id="color-16"><stop offset="0" stop-color="#f1f1f1"/><stop offset="1" stop-color="#bababa"/></linearGradient><linearGradient x1="237.15326" y1="182.1095" x2="237.79771" y2="182.1095" gradientUnits="userSpaceOnUse" id="color-17"><stop offset="0" stop-color="#f1f1f1"/><stop offset="1" stop-color="#bababa"/></linearGradient><linearGradient x1="236.4578" y1="182.6952" x2="237.62606" y2="182.6952" gradientUnits="userSpaceOnUse" id="color-18"><stop offset="0" stop-color="#f1f1f1"/><stop offset="1" stop-color="#bababa"/></linearGradient><linearGradient x1="237.57667" y1="182.84366" x2="238.2428" y2="182.84366" gradientUnits="userSpaceOnUse" id="color-19"><stop offset="0" stop-color="#f1f1f1"/><stop offset="1" stop-color="#bababa"/></linearGradient><linearGradient x1="236.93123" y1="183.55114" x2="238.34544" y2="183.55114" gradientUnits="userSpaceOnUse" id="color-20"><stop offset="0" stop-color="#f1f1f1"/><stop offset="1" stop-color="#bababa"/></linearGradient><linearGradient x1="237.82634" y1="184.17649" x2="239.37024" y2="184.17649" gradientUnits="userSpaceOnUse" id="color-21"><stop offset="0" stop-color="#f1f1f1"/><stop offset="1" stop-color="#bababa"/></linearGradient><linearGradient x1="238.60523" y1="184.65777" x2="239.92765" y2="184.65777" gradientUnits="userSpaceOnUse" id="color-22"><stop offset="0" stop-color="#f1f1f1"/><stop offset="1" stop-color="#bababa"/></linearGradient><linearGradient x1="238.08754" y1="183.39221" x2="238.73906" y2="183.39221" gradientUnits="userSpaceOnUse" id="color-23"><stop offset="0" stop-color="#f1f1f1"/><stop offset="1" stop-color="#bababa"/></linearGradient><linearGradient x1="238.62394" y1="183.98644" x2="239.62456" y2="183.98644" gradientUnits="userSpaceOnUse" id="color-24"><stop offset="0" stop-color="#f1f1f1"/><stop offset="1" stop-color="#bababa"/></linearGradient><linearGradient x1="239.39625" y1="184.27433" x2="240.07961" y2="184.27433" gradientUnits="userSpaceOnUse" id="color-25"><stop offset="0" stop-color="#f1f1f1"/><stop offset="1" stop-color="#bababa"/></linearGradient><linearGradient x1="238.0055" y1="176.81354" x2="239.207" y2="176.81354" gradientUnits="userSpaceOnUse" id="color-26"><stop offset="0" stop-color="#f1f1f1"/><stop offset="1" stop-color="#bababa"/></linearGradient><linearGradient x1="237.58371" y1="177.22768" x2="238.95594" y2="177.22768" gradientUnits="userSpaceOnUse" id="color-27"><stop offset="0" stop-color="#f1f1f1"/><stop offset="1" stop-color="#bababa"/></linearGradient><linearGradient x1="237.29911" y1="177.6539" x2="238.72813" y2="177.6539" gradientUnits="userSpaceOnUse" id="color-28"><stop offset="0" stop-color="#f1f1f1"/><stop offset="1" stop-color="#bababa"/></linearGradient><linearGradient x1="237.18761" y1="178.1783" x2="238.66394" y2="178.1783" gradientUnits="userSpaceOnUse" id="color-29"><stop offset="0" stop-color="#f1f1f1"/><stop offset="1" stop-color="#bababa"/></linearGradient><linearGradient x1="237.22281" y1="178.67078" x2="238.73069" y2="178.67078" gradientUnits="userSpaceOnUse" id="color-30"><stop offset="0" stop-color="#f1f1f1"/><stop offset="1" stop-color="#bababa"/></linearGradient><linearGradient x1="237.29305" y1="179.15265" x2="238.9946" y2="179.15265" gradientUnits="userSpaceOnUse" id="color-31"><stop offset="0" stop-color="#f1f1f1"/><stop offset="1" stop-color="#bababa"/></linearGradient><linearGradient x1="237.60147" y1="179.6449" x2="239.17421" y2="179.6449" gradientUnits="userSpaceOnUse" id="color-32"><stop offset="0" stop-color="#f1f1f1"/><stop offset="1" stop-color="#bababa"/></linearGradient><linearGradient x1="238.02176" y1="180.01544" x2="239.40615" y2="180.01544" gradientUnits="userSpaceOnUse" id="color-33"><stop offset="0" stop-color="#f1f1f1"/><stop offset="1" stop-color="#bababa"/></linearGradient><linearGradient x1="238.30174" y1="180.22244" x2="239.57743" y2="180.22244" gradientUnits="userSpaceOnUse" id="color-34"><stop offset="0" stop-color="#f1f1f1"/><stop offset="1" stop-color="#bababa"/></linearGradient><linearGradient x1="238.56922" y1="180.38716" x2="239.68655" y2="180.38716" gradientUnits="userSpaceOnUse" id="color-35"><stop offset="0" stop-color="#f1f1f1"/><stop offset="1" stop-color="#bababa"/></linearGradient><linearGradient x1="239.20946" y1="182.85588" x2="239.91728" y2="182.85588" gradientUnits="userSpaceOnUse" id="color-36"><stop offset="0" stop-color="#f1f1f1"/><stop offset="1" stop-color="#bababa"/></linearGradient><linearGradient x1="239.87047" y1="182.13503" x2="240.14901" y2="182.13503" gradientUnits="userSpaceOnUse" id="color-37"><stop offset="0" stop-color="#f1f1f1"/><stop offset="1" stop-color="#bababa"/></linearGradient><linearGradient x1="240.08054" y1="182.85376" x2="240.76945" y2="182.85376" gradientUnits="userSpaceOnUse" id="color-38"><stop offset="0" stop-color="#f1f1f1"/><stop offset="1" stop-color="#bababa"/></linearGradient><linearGradient x1="239.87062" y1="182.62733" x2="240.12741" y2="182.62733" gradientUnits="userSpaceOnUse" id="color-39"><stop offset="0" stop-color="#f1f1f1"/><stop offset="1" stop-color="#bababa"/></linearGradient><linearGradient x1="243.49448" y1="180.85901" x2="241.55181" y2="180.85901" gradientUnits="userSpaceOnUse" id="color-40"><stop offset="0" stop-color="#f1f1f1"/><stop offset="1" stop-color="#bababa"/></linearGradient><linearGradient x1="243.19385" y1="181.15167" x2="242.51657" y2="181.15167" gradientUnits="userSpaceOnUse" id="color-41"><stop offset="0" stop-color="#f1f1f1"/><stop offset="1" stop-color="#bababa"/></linearGradient><linearGradient x1="243.3204" y1="180.31799" x2="242.60726" y2="180.31799" gradientUnits="userSpaceOnUse" id="color-42"><stop offset="0" stop-color="#f1f1f1"/><stop offset="1" stop-color="#bababa"/></linearGradient><linearGradient x1="243.37512" y1="179.45227" x2="242.63524" y2="179.45227" gradientUnits="userSpaceOnUse" id="color-43"><stop offset="0" stop-color="#f1f1f1"/><stop offset="1" stop-color="#bababa"/></linearGradient><linearGradient x1="243.32982" y1="178.66775" x2="242.6159" y2="178.66775" gradientUnits="userSpaceOnUse" id="color-44"><stop offset="0" stop-color="#f1f1f1"/><stop offset="1" stop-color="#bababa"/></linearGradient><linearGradient x1="243.36494" y1="177.76014" x2="242.72833" y2="177.76014" gradientUnits="userSpaceOnUse" id="color-45"><stop offset="0" stop-color="#f1f1f1"/><stop offset="1" stop-color="#bababa"/></linearGradient><linearGradient x1="243.73481" y1="178.81348" x2="243.1932" y2="178.81348" gradientUnits="userSpaceOnUse" id="color-46"><stop offset="0" stop-color="#f1f1f1"/><stop offset="1" stop-color="#bababa"/></linearGradient><linearGradient x1="243.93429" y1="180.807" x2="243.1287" y2="180.807" gradientUnits="userSpaceOnUse" id="color-47"><stop offset="0" stop-color="#f1f1f1"/><stop offset="1" stop-color="#bababa"/></linearGradient><linearGradient x1="243.87082" y1="179.86949" x2="243.18728" y2="179.86949" gradientUnits="userSpaceOnUse" id="color-48"><stop offset="0" stop-color="#f1f1f1"/><stop offset="1" stop-color="#bababa"/></linearGradient><linearGradient x1="243.88322" y1="181.70699" x2="242.77088" y2="181.70699" gradientUnits="userSpaceOnUse" id="color-49"><stop offset="0" stop-color="#f1f1f1"/><stop offset="1" stop-color="#bababa"/></linearGradient><linearGradient x1="242.84673" y1="182.09677" x2="242.20228" y2="182.09677" gradientUnits="userSpaceOnUse" id="color-50"><stop offset="0" stop-color="#f1f1f1"/><stop offset="1" stop-color="#bababa"/></linearGradient><linearGradient x1="243.54219" y1="182.68246" x2="242.37394" y2="182.68246" gradientUnits="userSpaceOnUse" id="color-51"><stop offset="0" stop-color="#f1f1f1"/><stop offset="1" stop-color="#bababa"/></linearGradient><linearGradient x1="242.42333" y1="182.83092" x2="241.75719" y2="182.83092" gradientUnits="userSpaceOnUse" id="color-52"><stop offset="0" stop-color="#f1f1f1"/><stop offset="1" stop-color="#bababa"/></linearGradient><linearGradient x1="243.06876" y1="183.5384" x2="241.65455" y2="183.5384" gradientUnits="userSpaceOnUse" id="color-53"><stop offset="0" stop-color="#f1f1f1"/><stop offset="1" stop-color="#bababa"/></linearGradient><linearGradient x1="242.17365" y1="184.16375" x2="240.62975" y2="184.16375" gradientUnits="userSpaceOnUse" id="color-54"><stop offset="0" stop-color="#f1f1f1"/><stop offset="1" stop-color="#bababa"/></linearGradient><linearGradient x1="241.39476" y1="184.64504" x2="240.07234" y2="184.64504" gradientUnits="userSpaceOnUse" id="color-55"><stop offset="0" stop-color="#f1f1f1"/><stop offset="1" stop-color="#bababa"/></linearGradient><linearGradient x1="241.91245" y1="183.37948" x2="241.26093" y2="183.37948" gradientUnits="userSpaceOnUse" id="color-56"><stop offset="0" stop-color="#f1f1f1"/><stop offset="1" stop-color="#bababa"/></linearGradient><linearGradient x1="241.37606" y1="183.9737" x2="240.37543" y2="183.9737" gradientUnits="userSpaceOnUse" id="color-57"><stop offset="0" stop-color="#f1f1f1"/><stop offset="1" stop-color="#bababa"/></linearGradient><linearGradient x1="240.60375" y1="184.26159" x2="239.92038" y2="184.26159" gradientUnits="userSpaceOnUse" id="color-58"><stop offset="0" stop-color="#f1f1f1"/><stop offset="1" stop-color="#bababa"/></linearGradient><linearGradient x1="241.99449" y1="176.80081" x2="240.79299" y2="176.80081" gradientUnits="userSpaceOnUse" id="color-59"><stop offset="0" stop-color="#f1f1f1"/><stop offset="1" stop-color="#bababa"/></linearGradient><linearGradient x1="242.41628" y1="177.21494" x2="241.04405" y2="177.21494" gradientUnits="userSpaceOnUse" id="color-60"><stop offset="0" stop-color="#f1f1f1"/><stop offset="1" stop-color="#bababa"/></linearGradient><linearGradient x1="242.70089" y1="177.64116" x2="241.27187" y2="177.64116" gradientUnits="userSpaceOnUse" id="color-61"><stop offset="0" stop-color="#f1f1f1"/><stop offset="1" stop-color="#bababa"/></linearGradient><linearGradient x1="242.81238" y1="178.16556" x2="241.33605" y2="178.16556" gradientUnits="userSpaceOnUse" id="color-62"><stop offset="0" stop-color="#f1f1f1"/><stop offset="1" stop-color="#bababa"/></linearGradient><linearGradient x1="242.77718" y1="178.65805" x2="241.2693" y2="178.65805" gradientUnits="userSpaceOnUse" id="color-63"><stop offset="0" stop-color="#f1f1f1"/><stop offset="1" stop-color="#bababa"/></linearGradient><linearGradient x1="242.70694" y1="179.13991" x2="241.00539" y2="179.13991" gradientUnits="userSpaceOnUse" id="color-64"><stop offset="0" stop-color="#f1f1f1"/><stop offset="1" stop-color="#bababa"/></linearGradient><linearGradient x1="242.39852" y1="179.63217" x2="240.82578" y2="179.63217" gradientUnits="userSpaceOnUse" id="color-65"><stop offset="0" stop-color="#f1f1f1"/><stop offset="1" stop-color="#bababa"/></linearGradient><linearGradient x1="241.97823" y1="180.00271" x2="240.59384" y2="180.00271" gradientUnits="userSpaceOnUse" id="color-66"><stop offset="0" stop-color="#f1f1f1"/><stop offset="1" stop-color="#bababa"/></linearGradient><linearGradient x1="241.69825" y1="180.20971" x2="240.42256" y2="180.20971" gradientUnits="userSpaceOnUse" id="color-67"><stop offset="0" stop-color="#f1f1f1"/><stop offset="1" stop-color="#bababa"/></linearGradient><linearGradient x1="241.43077" y1="180.37442" x2="240.31345" y2="180.37442" gradientUnits="userSpaceOnUse" id="color-68"><stop offset="0" stop-color="#f1f1f1"/><stop offset="1" stop-color="#bababa"/></linearGradient><linearGradient x1="238.93842" y1="180.65366" x2="239.89555" y2="180.65366" gradientUnits="userSpaceOnUse" id="color-69"><stop offset="0" stop-color="#f1f1f1"/><stop offset="1" stop-color="#bababa"/></linearGradient><linearGradient x1="241.00955" y1="180.65649" x2="240.05243" y2="180.65649" gradientUnits="userSpaceOnUse" id="color-70"><stop offset="0" stop-color="#f1f1f1"/><stop offset="1" stop-color="#bababa"/></linearGradient><linearGradient x1="238.58706" y1="179.17559" x2="239.78857" y2="179.17559" gradientUnits="userSpaceOnUse" id="color-71"><stop offset="0" stop-color="#f1f1f1"/><stop offset="1" stop-color="#bababa"/></linearGradient><linearGradient x1="241.41792" y1="179.18067" x2="240.21642" y2="179.18067" gradientUnits="userSpaceOnUse" id="color-72"><stop offset="0" stop-color="#f1f1f1"/><stop offset="1" stop-color="#bababa"/></linearGradient></defs><g transform="translate(-236.06571,-175.06555)"><g data-paper-data="{&quot;isPaintingLayer&quot;:true}" fill-rule="nonzero" stroke="none" stroke-linecap="butt" stroke-linejoin="miter" stroke-miterlimit="10" stroke-dasharray="" stroke-dashoffset="0" style="mix-blend-mode: normal"><g><path d="M239.24473,181.10994v-1.37733h1.44736v1.37733z" fill="url(#color-1)" stroke-width="0"/><path d="M239.61046,180.94157l0.36861,-1.57186l0.35508,1.57186z" fill="url(#color-2)" stroke-width="0"/><path d="M239.53549,179.33587c0,0 -0.42816,-0.29011 -0.45877,-0.63377c-0.0268,-0.30084 0.19561,-0.8413 0.10794,-1.13906c-0.10737,-0.36469 -0.595,-0.61911 -0.64413,-0.83598c-0.08766,-0.38701 -0.07678,-0.98849 -0.07678,-0.98849c0,0 0.51624,-0.67387 1.51735,-0.67302c0.78843,0.00066 1.56413,0.6808 1.56413,0.6808c0,0 -0.07216,0.69434 -0.16414,1.10827c-0.05396,0.24283 -0.46748,0.28262 -0.56935,0.66792c-0.07557,0.28585 0.13747,0.7863 0.08995,1.12987c-0.04502,0.32552 -0.5076,0.70061 -0.5076,0.70061z" fill="url(#color-3)" stroke-width="0"/><path d="M238.44341,183.58656c0.07243,-0.10367 0.41719,-0.28224 0.41719,-0.28224c0,0 1.59402,-0.01654 2.08639,0.02861c0.26824,0.0246 0.62936,0.2204 0.62936,0.2204l-1.51739,1.21392c0,0 -1.65657,-1.12197 -1.61555,-1.18068z" fill="url(#color-4)" stroke-width="0"/><path d="M238.81234,183.38284c-0.05986,-0.15699 0.09432,-0.50236 0.0984,-0.83227c0.00411,-0.33163 -0.18581,-0.88015 -0.18581,-0.88015l0.27416,-0.58313l1.94538,0.00778l0.24232,0.55232c0,0 -0.14637,0.54951 -0.1313,0.86456c0.01587,0.33174 0.18929,0.6036 0.0913,0.88645c-0.08634,0.24921 -0.55552,0.24856 -0.70486,0.34682c-0.22977,0.15119 -0.43902,0.31461 -0.43902,0.31461c0,0 -0.20511,-0.17895 -0.49309,-0.30472c-0.24312,-0.10618 -0.61435,-0.15426 -0.69748,-0.37227z" fill="url(#color-5)" stroke-width="0"/><path d="M239.11582,183.10978l0.89178,-1.57187l0.85906,1.57187z" fill="url(#color-6)" stroke-width="0"/><path d="M237.45994,183.42105l-0.84041,-1.49971c0,0 -0.14451,-3.25866 -0.10815,-3.3308c0.009,-0.01785 0.04315,-0.18415 0.12258,-0.35166c0.11014,-0.23228 0.27862,-0.48124 0.33086,-0.46845c0.04798,0.01175 0.08735,0.24707 0.06591,0.52089c-0.01898,0.2425 -0.09907,0.51687 -0.06554,0.66816c0.12998,0.58642 0.13679,2.00473 0.13679,2.00473l1.3462,3.00932z" fill="url(#color-7)" stroke-width="0"/><path d="M237.30021,180.42578c0.16612,0.03495 0.23119,0.39399 0.14535,0.80192c-0.08584,0.40793 -0.29009,0.71029 -0.45621,0.67534c-0.16612,-0.03495 -0.23119,-0.39399 -0.14535,-0.80192c0.08584,-0.40793 0.29009,-0.71029 0.45621,-0.67534z" fill="url(#color-8)" stroke-width="0"/><path d="M237.27941,179.69048c0.14399,0.0547 0.15181,0.3857 0.01748,0.73929c-0.13434,0.3536 -0.35997,0.59589 -0.50396,0.54119c-0.14399,-0.0547 -0.15181,-0.3857 -0.01747,-0.73929c0.13434,-0.3536 0.35997,-0.59589 0.50396,-0.54119z" fill="url(#color-9)" stroke-width="0"/><path d="M237.28596,178.90459c0.12604,0.06548 0.09786,0.36946 -0.06293,0.67897c-0.16079,0.30951 -0.39331,0.50733 -0.51935,0.44185c-0.12604,-0.06548 -0.09786,-0.36946 0.06293,-0.67897c0.16079,-0.30951 0.39332,-0.50733 0.51935,-0.44185z" fill="url(#color-10)" stroke-width="0"/><path d="M237.30941,178.14398c0.12066,0.06348 0.09209,0.35515 -0.06381,0.65145c-0.1559,0.2963 -0.38009,0.48504 -0.50075,0.42155c-0.12066,-0.06348 -0.09209,-0.35515 0.06381,-0.65145c0.1559,-0.2963 0.38009,-0.48504 0.50075,-0.42155z" fill="url(#color-11)" stroke-width="0"/><path d="M236.69617,177.69652c0.10356,-0.34881 0.30265,-0.59739 0.44469,-0.55522c0.14204,0.04217 0.17324,0.35912 0.06968,0.70793c-0.10356,0.34881 -0.30265,0.59739 -0.44469,0.55522c-0.14204,-0.04217 -0.17324,-0.35912 -0.06968,-0.70793z" fill="url(#color-12)" stroke-width="0"/><path d="M236.2682,178.84252c-0.02212,-0.36318 0.07984,-0.6649 0.22773,-0.67391c0.1479,-0.00901 0.28572,0.27811 0.30784,0.64129c0.02212,0.36318 -0.07984,0.6649 -0.22773,0.67391c-0.1479,0.00901 -0.28571,-0.27811 -0.30784,-0.64129z" fill="url(#color-13)" stroke-width="0"/><path d="M236.21105,180.94588c-0.17108,-0.34917 -0.1945,-0.6887 -0.05231,-0.75837c0.14219,-0.06967 0.39614,0.15692 0.56722,0.50609c0.17108,0.34917 0.1945,0.6887 0.05231,0.75837c-0.14219,0.06967 -0.39614,-0.15692 -0.56722,-0.50609z" fill="url(#color-14)" stroke-width="0"/><path d="M236.25467,179.23238c0.14615,-0.04864 0.36146,0.20288 0.4809,0.56178c0.11944,0.3589 0.09779,0.68928 -0.04836,0.73792c-0.14615,0.04864 -0.36146,-0.20288 -0.4809,-0.56178c-0.11944,-0.3589 -0.09779,-0.68928 0.04836,-0.73792z" fill="url(#color-15)" stroke-width="0"/><path d="M236.44536,181.92631c-0.28019,-0.30866 -0.40543,-0.65138 -0.27974,-0.76548c0.12569,-0.1141 0.45473,0.04363 0.73491,0.35229c0.28019,0.30866 0.40543,0.65138 0.27974,0.76548c-0.12569,0.1141 -0.45472,-0.04363 -0.73491,-0.35229z" fill="url(#color-16)" stroke-width="0"/><path d="M237.17114,182.06651c0.0583,-0.41277 0.24182,-0.72814 0.40991,-0.7044c0.16809,0.02374 0.25709,0.37761 0.19879,0.79038c-0.0583,0.41277 -0.24182,0.72814 -0.40991,0.7044c-0.16809,-0.02374 -0.25709,-0.37761 -0.19879,-0.79037z" fill="url(#color-17)" stroke-width="0"/><path d="M236.49828,182.17158c0.11776,-0.12227 0.45663,0.01305 0.75688,0.30224c0.30025,0.28918 0.44819,0.62273 0.33042,0.745c-0.11776,0.12227 -0.45663,-0.01305 -0.75688,-0.30224c-0.30025,-0.28918 -0.44819,-0.62273 -0.33043,-0.745z" fill="url(#color-18)" stroke-width="0"/><path d="M237.80751,182.06545c0.17502,-0.02299 0.36266,0.30679 0.41912,0.73658c0.05645,0.42979 -0.03966,0.79684 -0.21467,0.81983c-0.17502,0.02299 -0.36266,-0.30679 -0.41912,-0.73658c-0.05645,-0.42979 0.03966,-0.79684 0.21467,-0.81983z" fill="url(#color-19)" stroke-width="0"/><path d="M236.94792,183.1778c0.08397,-0.15527 0.46114,-0.114 0.84244,0.09219c0.38131,0.20619 0.62235,0.49921 0.53839,0.65448c-0.08396,0.15527 -0.46114,0.114 -0.84245,-0.09219c-0.38131,-0.20619 -0.62235,-0.49921 -0.53839,-0.65449z" fill="url(#color-20)" stroke-width="0"/><path d="M237.82899,184.02083c0.03501,-0.17301 0.40782,-0.24358 0.83269,-0.15762c0.42487,0.08597 0.74092,0.29592 0.70591,0.46893c-0.03501,0.17301 -0.40781,0.24358 -0.83269,0.15761c-0.42487,-0.08597 -0.74092,-0.29591 -0.70591,-0.46893z" fill="url(#color-21)" stroke-width="0"/><path d="M238.60576,184.59345c0.01447,-0.14859 0.32199,-0.24024 0.68687,-0.20472c0.36488,0.03552 0.64895,0.18477 0.63449,0.33336c-0.01447,0.14859 -0.32199,0.24024 -0.68687,0.20472c-0.36488,-0.03552 -0.64895,-0.18477 -0.63449,-0.33336z" fill="url(#color-22)" stroke-width="0"/><path d="M238.21428,182.75895c0.14242,-0.04476 0.34698,0.20248 0.4569,0.55222c0.10992,0.34975 0.08356,0.66955 -0.05886,0.71431c-0.14242,0.04476 -0.34698,-0.20248 -0.45689,-0.55223c-0.10992,-0.34975 -0.08356,-0.66955 0.05886,-0.71431z" fill="url(#color-23)" stroke-width="0"/><path d="M238.92968,184.17408c-0.25449,-0.26389 -0.37367,-0.56183 -0.26621,-0.66546c0.10746,-0.10363 0.40087,0.02629 0.65536,0.29018c0.25449,0.26389 0.37367,0.56183 0.26621,0.66546c-0.10746,0.10363 -0.40088,-0.02629 -0.65536,-0.29018z" fill="url(#color-24)" stroke-width="0"/><path d="M239.52591,184.39562c-0.14797,-0.28584 -0.173,-0.57186 -0.05591,-0.63885c0.11709,-0.06699 0.33198,0.11042 0.47995,0.39627c0.14797,0.28584 0.173,0.57186 0.05591,0.63885c-0.11709,0.06699 -0.33198,-0.11042 -0.47995,-0.39627z" fill="url(#color-25)" stroke-width="0"/><path d="M238.33351,177.33023c-0.1129,-0.13975 -0.35734,-0.61047 -0.32511,-0.91414c0.04235,-0.39893 0.39275,-0.63382 0.45132,-0.69421c0.10315,-0.10637 -0.04503,0.6586 0.21619,0.91189c0.16713,0.16206 0.48105,0.59101 0.52957,0.8452c0.02732,0.1431 -0.32117,0.43633 -0.32117,0.43633c0,0 -0.32213,-0.30204 -0.55079,-0.58507z" fill="url(#color-26)" stroke-width="0"/><path d="M238.06521,177.82413c-0.13561,-0.11784 -0.45863,-0.53854 -0.48002,-0.84317c-0.0281,-0.40018 0.35363,-0.74723 0.40072,-0.81693c0.08295,-0.12277 0.0242,0.69523 0.3257,0.89891c0.1929,0.13032 0.5459,0.5133 0.63814,0.75508c0.05193,0.13612 -0.23989,0.48579 -0.23989,0.48579c0,0 -0.37,-0.24102 -0.64465,-0.47969z" fill="url(#color-27)" stroke-width="0"/><path d="M237.30488,177.37834c-0.04836,-0.41383 0.22176,-0.59966 0.26728,-0.67425c0.08016,-0.13136 0.12061,0.62304 0.41984,0.84323c0.22195,0.16485 0.61476,0.49647 0.72206,0.74289c0.06041,0.13873 -0.09327,0.32875 -0.09327,0.32875c0,0 -0.52772,-0.25564 -0.82412,-0.49006c-0.14635,-0.11575 -0.45498,-0.43554 -0.49179,-0.75056z" fill="url(#color-28)" stroke-width="0"/><path d="M237.8037,178.62648c-0.14915,-0.07096 -0.47865,-0.28592 -0.57265,-0.55047c-0.12349,-0.34753 0.0531,-0.54123 0.07764,-0.61458c0.04322,-0.12918 0.24007,0.58719 0.55731,0.69331c0.20297,0.06789 0.63373,0.29868 0.77501,0.4901c0.07954,0.10777 -0.07329,0.26586 -0.07329,0.26586c0,0 -0.46194,-0.1405 -0.76401,-0.28421z" fill="url(#color-29)" stroke-width="0"/><path d="M237.3109,178.69775c-0.1711,-0.29713 -0.04203,-0.50383 -0.03187,-0.57501c0.01789,-0.12537 0.26335,0.42675 0.57122,0.47069c0.19697,0.02811 0.68399,0.23708 0.84522,0.38848c0.09077,0.08523 -0.02252,0.25538 -0.02252,0.25538c0,0 -0.44595,-0.05116 -0.74623,-0.13202c-0.14827,-0.03992 -0.48556,-0.18135 -0.61581,-0.40753z" fill="url(#color-30)" stroke-width="0"/><path d="M237.52984,179.28653c-0.2185,-0.26424 -0.23485,-0.48965 -0.23677,-0.56152c-0.00338,-0.12659 0.49778,0.41312 0.80865,0.40482c0.1989,-0.00531 0.6564,0.08248 0.84073,0.2047c0.10378,0.06881 0.02062,0.25555 0.02062,0.25555c0,0 -0.44822,0.02433 -0.75781,-0.00503c-0.15286,-0.0145 -0.50909,-0.09736 -0.67542,-0.29851z" fill="url(#color-31)" stroke-width="0"/><path d="M238.49522,179.95945c-0.13799,0.01529 -0.46858,0.00748 -0.65283,-0.13998c-0.24204,-0.19371 -0.22489,-0.41029 -0.23982,-0.47357c-0.02628,-0.11144 0.42362,0.25893 0.69729,0.19439c0.17509,-0.04129 0.61619,-0.01252 0.80185,0.06176c0.10453,0.04182 0.06527,0.22243 0.06527,0.22243c0,0 -0.3923,0.104 -0.67177,0.13497z" fill="url(#color-32)" stroke-width="0"/><path d="M238.92203,180.15926c-0.10404,0.02968 -0.44186,0.10339 -0.62131,0.03273c-0.23574,-0.09281 -0.24863,-0.25612 -0.27555,-0.30192c-0.04742,-0.08067 0.41248,0.14055 0.61057,0.0241c0.12674,-0.07451 0.4484,-0.11572 0.6113,-0.10254c0.09171,0.00742 0.15912,0.15791 0.15912,0.15791c0,0 -0.37502,0.1586 -0.48412,0.18973z" fill="url(#color-33)" stroke-width="0"/><path d="M238.59324,180.44649c-0.22628,-0.05725 -0.25716,-0.20498 -0.28712,-0.24369c-0.05277,-0.06817 0.3856,0.07242 0.553,-0.05716c0.10711,-0.08291 0.40402,-0.15041 0.55443,-0.15742c0.08468,-0.00394 0.16388,0.12569 0.16388,0.12569c0,0 -0.32417,0.1888 -0.42023,0.23c-0.09161,0.03929 -0.39171,0.14616 -0.56396,0.10258z" fill="url(#color-34)" stroke-width="0"/><path d="M239.44267,180.49732c-0.08759,0.04759 -0.37653,0.18171 -0.55208,0.15423c-0.2306,-0.03611 -0.28277,-0.18036 -0.31618,-0.21613c-0.05884,-0.06301 0.39911,0.03575 0.55383,-0.10875c0.09899,-0.09245 0.38772,-0.18633 0.53683,-0.2072c0.08395,-0.01175 -0.10534,0.25009 -0.10534,0.25009c0,0 -0.02521,0.07786 -0.11706,0.12776z" fill="url(#color-35)" stroke-width="0"/><path d="M239.53053,183.0252c-0.1946,0.08001 -0.33766,0.06906 -0.31953,-0.02445c0.01813,-0.09351 0.19059,-0.23418 0.38519,-0.31419c0.1946,-0.08001 0.33766,-0.06906 0.31953,0.02445c-0.01813,0.09351 -0.19059,0.23418 -0.3852,0.31419z" fill="url(#color-36)" stroke-width="0"/><path d="M239.87618,182.02591c0.02173,-0.20928 0.09914,-0.33009 0.1729,-0.26982c0.07377,0.06027 0.11595,0.27878 0.09422,0.48807c-0.02173,0.20928 -0.09914,0.33009 -0.1729,0.26982c-0.07377,-0.06027 -0.11595,-0.27878 -0.09422,-0.48807z" fill="url(#color-37)" stroke-width="0"/><path d="M240.58756,182.79616c0.16767,0.12711 0.23081,0.25595 0.14103,0.28776c-0.08978,0.03181 -0.29849,-0.04545 -0.46617,-0.17256c-0.16767,-0.12711 -0.23081,-0.25595 -0.14103,-0.28776c0.08978,-0.03181 0.29849,0.04545 0.46617,0.17257z" fill="url(#color-38)" stroke-width="0"/><path d="M240.12741,182.62733c0,0.06876 -0.05748,0.1245 -0.12839,0.1245c-0.07091,0 -0.1284,-0.05574 -0.1284,-0.1245c0,-0.06876 0.05749,-0.1245 0.1284,-0.1245c0.07091,0 0.12839,0.05574 0.12839,0.1245z" fill="url(#color-39)" stroke-width="0"/><path d="M241.55181,183.9608l1.3462,-3.00932c0,0 0.00681,-1.41831 0.13679,-2.00473c0.03353,-0.15129 -0.04656,-0.42565 -0.06554,-0.66815c-0.02143,-0.27382 0.01794,-0.50914 0.06591,-0.52089c0.05225,-0.01279 0.22072,0.23617 0.33086,0.46845c0.07943,0.16751 0.11358,0.33381 0.12258,0.35166c0.03636,0.07214 -0.10815,3.3308 -0.10815,3.3308l-0.8404,1.49971z" data-paper-data="{&quot;index&quot;:null}" fill="url(#color-40)" stroke-width="0"/><path d="M243.15599,181.08838c0.08584,0.40793 0.02076,0.76697 -0.14536,0.80192c-0.16612,0.03495 -0.37037,-0.2674 -0.45621,-0.67534c-0.08584,-0.40793 -0.02076,-0.76697 0.14535,-0.80192c0.16612,-0.03495 0.37037,0.2674 0.45621,0.67534z" data-paper-data="{&quot;index&quot;:null}" fill="url(#color-41)" stroke-width="0"/><path d="M243.22455,180.21894c0.13434,0.3536 0.12652,0.68459 -0.01747,0.73929c-0.14399,0.0547 -0.36962,-0.18759 -0.50396,-0.54119c-0.13434,-0.3536 -0.12652,-0.68459 0.01747,-0.73929c0.14399,-0.0547 0.36962,0.18759 0.50396,0.54119z" data-paper-data="{&quot;index&quot;:null}" fill="url(#color-42)" stroke-width="0"/><path d="M243.23339,179.33372c0.16079,0.30951 0.18897,0.61349 0.06293,0.67897c-0.12604,0.06548 -0.35856,-0.13235 -0.51935,-0.44185c-0.16079,-0.30951 -0.18897,-0.61349 -0.06293,-0.67897c0.12604,-0.06548 0.35856,0.13235 0.51935,0.44185z" data-paper-data="{&quot;index&quot;:null}" fill="url(#color-43)" stroke-width="0"/><path d="M243.19133,178.5528c0.1559,0.2963 0.18446,0.58797 0.0638,0.65145c-0.12066,0.06348 -0.34485,-0.12525 -0.50075,-0.42155c-0.1559,-0.2963 -0.18446,-0.58797 -0.06381,-0.65145c0.12066,-0.06348 0.34485,0.12525 0.50075,0.42155z" data-paper-data="{&quot;index&quot;:null}" fill="url(#color-44)" stroke-width="0"/><path d="M243.30382,177.68379c0.10356,0.34881 0.07236,0.66576 -0.06968,0.70793c-0.14204,0.04217 -0.34113,-0.20641 -0.44469,-0.55522c-0.10356,-0.34881 -0.07236,-0.66576 0.06968,-0.70793c0.14204,-0.04217 0.34113,0.20641 0.44469,0.55522z" data-paper-data="{&quot;index&quot;:null}" fill="url(#color-45)" stroke-width="0"/><path d="M243.73179,178.82979c-0.02212,0.36318 -0.15994,0.6503 -0.30784,0.64129c-0.1479,-0.00901 -0.24985,-0.31073 -0.22773,-0.67391c0.02212,-0.36318 0.15994,-0.6503 0.30784,-0.64129c0.14789,0.00901 0.24986,0.31073 0.22773,0.67391z" data-paper-data="{&quot;index&quot;:null}" fill="url(#color-46)" stroke-width="0"/><path d="M243.78895,180.93314c-0.17108,0.34917 -0.42503,0.57575 -0.56722,0.50609c-0.14219,-0.06967 -0.11877,-0.4092 0.05231,-0.75837c0.17108,-0.34917 0.42503,-0.57575 0.56722,-0.50609c0.14219,0.06967 0.11877,0.4092 -0.05231,0.75837z" data-paper-data="{&quot;index&quot;:null}" fill="url(#color-47)" stroke-width="0"/><path d="M243.79368,179.95756c-0.11944,0.3589 -0.33475,0.61042 -0.4809,0.56178c-0.14615,-0.04864 -0.1678,-0.37902 -0.04836,-0.73792c0.11944,-0.3589 0.33475,-0.61042 0.4809,-0.56178c0.14615,0.04864 0.1678,0.37902 0.04836,0.73792z" data-paper-data="{&quot;index&quot;:null}" fill="url(#color-48)" stroke-width="0"/><path d="M243.55464,181.91358c-0.28019,0.30866 -0.60922,0.46639 -0.73491,0.35229c-0.12569,-0.1141 -0.00045,-0.45681 0.27974,-0.76548c0.28019,-0.30866 0.60922,-0.46639 0.73491,-0.35229c0.12569,0.1141 0.00045,0.45681 -0.27974,0.76548z" data-paper-data="{&quot;index&quot;:null}" fill="url(#color-49)" stroke-width="0"/><path d="M242.82886,182.05378c0.0583,0.41277 -0.0307,0.76663 -0.19879,0.79038c-0.16809,0.02374 -0.35161,-0.29163 -0.40991,-0.7044c-0.0583,-0.41277 0.0307,-0.76663 0.19879,-0.79037c0.16809,-0.02374 0.35161,0.29163 0.40991,0.7044z" data-paper-data="{&quot;index&quot;:null}" fill="url(#color-50)" stroke-width="0"/><path d="M243.17129,182.90385c-0.30025,0.28918 -0.63911,0.4245 -0.75688,0.30224c-0.11776,-0.12227 0.03017,-0.45582 0.33042,-0.745c0.30025,-0.28918 0.63912,-0.4245 0.75688,-0.30224c0.11776,0.12227 -0.03017,0.45582 -0.33043,0.745z" data-paper-data="{&quot;index&quot;:null}" fill="url(#color-51)" stroke-width="0"/><path d="M242.40716,182.87255c-0.05645,0.42979 -0.2441,0.75957 -0.41912,0.73658c-0.17502,-0.02299 -0.27113,-0.39004 -0.21468,-0.81983c0.05645,-0.42979 0.2441,-0.75957 0.41912,-0.73658c0.17502,0.02299 0.27113,0.39004 0.21468,0.81983z" data-paper-data="{&quot;index&quot;:null}" fill="url(#color-52)" stroke-width="0"/><path d="M242.51369,183.81955c-0.3813,0.20619 -0.75848,0.24746 -0.84244,0.09219c-0.08397,-0.15527 0.15708,-0.4483 0.53839,-0.65449c0.38131,-0.20619 0.75848,-0.24746 0.84245,-0.09219c0.08396,0.15527 -0.15708,0.4483 -0.53839,0.65448z" data-paper-data="{&quot;index&quot;:null}" fill="url(#color-53)" stroke-width="0"/><path d="M241.46509,184.47703c-0.42487,0.08597 -0.79768,0.0154 -0.83269,-0.15761c-0.03501,-0.17301 0.28104,-0.38296 0.70591,-0.46893c0.42487,-0.08597 0.79768,-0.0154 0.83269,0.15761c0.03501,0.17301 -0.28104,0.38296 -0.70591,0.46893z" data-paper-data="{&quot;index&quot;:null}" fill="url(#color-54)" stroke-width="0"/><path d="M240.75975,184.91408c-0.36488,0.03552 -0.6724,-0.05613 -0.68687,-0.20472c-0.01447,-0.14859 0.2696,-0.29784 0.63449,-0.33336c0.36488,-0.03552 0.6724,0.05613 0.68687,0.20472c0.01447,0.14859 -0.2696,0.29784 -0.63449,0.33336z" data-paper-data="{&quot;index&quot;:null}" fill="url(#color-55)" stroke-width="0"/><path d="M241.84457,183.46052c-0.10992,0.34975 -0.31448,0.59698 -0.4569,0.55222c-0.14242,-0.04476 -0.16877,-0.36457 -0.05886,-0.71431c0.10992,-0.34975 0.31447,-0.59698 0.4569,-0.55222c0.14242,0.04476 0.16877,0.36457 0.05886,0.71431z" data-paper-data="{&quot;index&quot;:null}" fill="url(#color-56)" stroke-width="0"/><path d="M241.07032,184.16134c-0.25449,0.26389 -0.5479,0.39381 -0.65536,0.29018c-0.10746,-0.10363 0.01172,-0.40157 0.26621,-0.66546c0.25449,-0.26389 0.5479,-0.39381 0.65536,-0.29018c0.10746,0.10363 -0.01173,0.40157 -0.26621,0.66546z" data-paper-data="{&quot;index&quot;:null}" fill="url(#color-57)" stroke-width="0"/><path d="M240.47409,184.38289c-0.14797,0.28584 -0.36285,0.46326 -0.47995,0.39627c-0.11709,-0.06699 -0.09206,-0.35301 0.05591,-0.63885c0.14797,-0.28584 0.36286,-0.46326 0.47995,-0.39627c0.1171,0.06699 0.09206,0.35301 -0.05591,0.63885z" data-paper-data="{&quot;index&quot;:null}" fill="url(#color-58)" stroke-width="0"/><path d="M241.66648,177.31749c-0.22866,0.28303 -0.55079,0.58507 -0.55079,0.58507c0,0 -0.34849,-0.29322 -0.32117,-0.43633c0.04852,-0.25419 0.36244,-0.68315 0.52957,-0.8452c0.26121,-0.25329 0.11304,-1.01826 0.21619,-0.91189c0.05856,0.0604 0.40897,0.29528 0.45131,0.69421c0.03224,0.30367 -0.21221,0.77439 -0.32511,0.91414z" data-paper-data="{&quot;index&quot;:null}" fill="url(#color-59)" stroke-width="0"/><path d="M241.93478,177.8114c-0.27465,0.23866 -0.64465,0.47969 -0.64465,0.47969c0,0 -0.29182,-0.34967 -0.23988,-0.48579c0.09224,-0.24178 0.44524,-0.62476 0.63814,-0.75508c0.3015,-0.20369 0.24275,-1.02169 0.3257,-0.89891c0.0471,0.06971 0.42882,0.41675 0.40072,0.81693c-0.02139,0.30463 -0.34441,0.72533 -0.48002,0.84317z" data-paper-data="{&quot;index&quot;:null}" fill="url(#color-60)" stroke-width="0"/><path d="M242.20332,178.11616c-0.29639,0.23442 -0.82412,0.49006 -0.82412,0.49006c0,0 -0.15368,-0.19002 -0.09327,-0.32875c0.1073,-0.24641 0.50012,-0.57803 0.72206,-0.74289c0.29923,-0.22019 0.33968,-0.97458 0.41984,-0.84323c0.04551,0.07458 0.31564,0.26041 0.26728,0.67425c-0.03681,0.31502 -0.34545,0.63481 -0.49179,0.75056z" data-paper-data="{&quot;index&quot;:null}" fill="url(#color-61)" stroke-width="0"/><path d="M242.1963,178.61374c-0.30207,0.14371 -0.76401,0.28422 -0.76401,0.28422c0,0 -0.15283,-0.15809 -0.07329,-0.26586c0.14128,-0.19142 0.57204,-0.4222 0.77501,-0.4901c0.31723,-0.10612 0.51409,-0.82249 0.5573,-0.69331c0.02454,0.07335 0.20114,0.26705 0.07764,0.61458c-0.09401,0.26455 -0.42351,0.47951 -0.57265,0.55047z" data-paper-data="{&quot;index&quot;:null}" fill="url(#color-62)" stroke-width="0"/><path d="M242.07329,179.09255c-0.30029,0.08086 -0.74623,0.13202 -0.74623,0.13202c0,0 -0.11329,-0.17015 -0.02252,-0.25539c0.16123,-0.1514 0.64825,-0.36037 0.84522,-0.38848c0.30786,-0.04394 0.55332,-0.59606 0.57121,-0.47069c0.01016,0.07118 0.13923,0.27788 -0.03187,0.57501c-0.13025,0.22618 -0.46754,0.36761 -0.61581,0.40753z" data-paper-data="{&quot;index&quot;:null}" fill="url(#color-63)" stroke-width="0"/><path d="M241.79473,179.5723c-0.30959,0.02937 -0.75781,0.00503 -0.75781,0.00503c0,0 -0.08316,-0.18674 0.02062,-0.25555c0.18433,-0.12222 0.64184,-0.21001 0.84073,-0.2047c0.31087,0.0083 0.81203,-0.53141 0.80865,-0.40482c-0.00192,0.07188 -0.01827,0.29729 -0.23677,0.56152c-0.16633,0.20114 -0.52256,0.28401 -0.67542,0.29851z" data-paper-data="{&quot;index&quot;:null}" fill="url(#color-64)" stroke-width="0"/><path d="M241.50477,179.94672c-0.27947,-0.03097 -0.67177,-0.13497 -0.67177,-0.13497c0,0 -0.03926,-0.1806 0.06527,-0.22242c0.18567,-0.07428 0.62676,-0.10306 0.80185,-0.06177c0.27367,0.06454 0.72357,-0.30583 0.69729,-0.19438c-0.01492,0.06328 0.00222,0.27985 -0.23982,0.47356c-0.18425,0.14746 -0.51484,0.15527 -0.65283,0.13998z" data-paper-data="{&quot;index&quot;:null}" fill="url(#color-65)" stroke-width="0"/><path d="M241.07796,180.14652c-0.1091,-0.03113 -0.48412,-0.18973 -0.48412,-0.18973c0,0 0.06742,-0.15049 0.15912,-0.1579c0.16289,-0.01318 0.48456,0.02803 0.6113,0.10254c0.19809,0.11645 0.65799,-0.10476 0.61057,-0.0241c-0.02692,0.0458 -0.03981,0.20911 -0.27555,0.30192c-0.17945,0.07065 -0.51727,-0.00305 -0.62131,-0.03273z" data-paper-data="{&quot;index&quot;:null}" fill="url(#color-66)" stroke-width="0"/><path d="M240.84279,180.33118c-0.09606,-0.04121 -0.42023,-0.23 -0.42023,-0.23c0,0 0.07921,-0.12964 0.16388,-0.12569c0.1504,0.00701 0.44732,0.07451 0.55442,0.15742c0.16741,0.12959 0.60578,-0.011 0.55301,0.05717c-0.02996,0.0387 -0.06084,0.18643 -0.28712,0.24369c-0.17225,0.04358 -0.47235,-0.06328 -0.56396,-0.10258z" data-paper-data="{&quot;index&quot;:null}" fill="url(#color-67)" stroke-width="0"/><path d="M240.55732,180.48459c-0.09185,-0.0499 -0.11706,-0.12776 -0.11706,-0.12776c0,0 -0.18929,-0.26184 -0.10534,-0.25008c0.14911,0.02087 0.43784,0.11475 0.53683,0.2072c0.15472,0.1445 0.61267,0.04574 0.55383,0.10875c-0.03341,0.03577 -0.08558,0.18002 -0.31618,0.21613c-0.17554,0.02748 -0.46449,-0.10664 -0.55208,-0.15422z" data-paper-data="{&quot;index&quot;:null}" fill="url(#color-68)" stroke-width="0"/><path d="M238.84505,181.34621c0,0 0.07553,-0.17255 0.13659,-0.24539c0.04384,-0.05229 0.17784,-0.04331 0.21481,-0.09876c0.06333,-0.095 0.04335,-0.09254 0.08209,-0.17823c0.04159,-0.09199 -0.07062,0.00949 -0.02141,-0.13404c0.0209,-0.06095 0.08926,-0.11733 0.13814,-0.19321c0.03142,-0.04877 0.00161,-0.06583 0.02413,-0.12045c0.01513,-0.03669 0.08376,-0.11168 0.09835,-0.14457c0.03275,-0.07381 -0.00982,-0.08154 0.00202,-0.13863c0.01733,-0.0836 0.08008,-0.20185 0.08008,-0.20185l0.2957,0.06225c0,0 -0.04139,0.12454 -0.08011,0.1912c-0.03629,0.06248 -0.06928,0.06466 -0.09107,0.14012c-0.02944,0.10198 0.02924,0.17786 -0.00497,0.2529c-0.05044,0.11064 -0.10498,0.02334 -0.12661,0.08558c-0.03577,0.10293 -0.01629,0.24843 -0.01629,0.24843c0,0 -0.1067,-0.02655 -0.16172,0.01504c-0.03586,0.02711 -0.066,0.16989 -0.13288,0.23527c-0.00523,0.00511 0.09306,0.15969 0.04837,0.2135c-0.02823,0.03399 -0.089,-0.17073 -0.14658,-0.15785c-0.06869,0.01537 -0.04673,0.2533 -0.06175,0.25366c-0.09694,0.00228 -0.02122,-0.2724 -0.05944,-0.25086c-0.05985,0.03371 -0.13453,0.13434 -0.17228,0.16569c-0.04315,0.03584 -0.04518,0.00023 -0.04518,0.00023z" fill="url(#color-69)" stroke-width="0"/><path d="M241.05775,181.34881c-0.03774,-0.03135 -0.11243,-0.13197 -0.17228,-0.16569c-0.03822,-0.02153 0.03751,0.25314 -0.05944,0.25086c-0.01502,-0.00035 0.00694,-0.23829 -0.06175,-0.25366c-0.05758,-0.01288 -0.11835,0.19184 -0.14658,0.15785c-0.04469,-0.05381 0.0536,-0.20839 0.04836,-0.2135c-0.06688,-0.06537 -0.09702,-0.20816 -0.13288,-0.23527c-0.05502,-0.0416 -0.16172,-0.01504 -0.16172,-0.01504c0,0 0.01948,-0.14549 -0.01629,-0.24843c-0.02162,-0.06224 -0.07616,0.02507 -0.12661,-0.08558c-0.03421,-0.07504 0.02448,-0.15092 -0.00497,-0.2529c-0.02179,-0.07546 -0.05478,-0.07764 -0.09107,-0.14012c-0.03872,-0.06666 -0.08011,-0.1912 -0.08011,-0.1912l0.2957,-0.06225c0,0 0.06275,0.11825 0.08008,0.20185c0.01184,0.0571 -0.03073,0.06482 0.00202,0.13864c0.01459,0.03289 0.08322,0.10788 0.09835,0.14457c0.02252,0.05462 -0.00729,0.07168 0.02413,0.12045c0.04888,0.07588 0.11725,0.13226 0.13814,0.19321c0.04921,0.14353 -0.063,0.04206 -0.02141,0.13404c0.03875,0.08569 0.01877,0.08323 0.0821,0.17823c0.03697,0.05545 0.17097,0.04647 0.21481,0.09876c0.06106,0.07284 0.13659,0.2454 0.13659,0.2454c0,0 -0.00203,0.0356 -0.04518,-0.00023z" data-paper-data="{&quot;index&quot;:null}" fill="url(#color-70)" stroke-width="0"/><path d="M238.91508,179.80789c-0.1129,-0.17102 -0.37594,-0.74707 -0.3437,-1.11869c0.04235,-0.48819 0.59731,-1.12277 0.65588,-1.19668c0.10315,-0.13017 -0.22479,1.1531 0.03642,1.46307c0.06399,0.07594 0.17339,0.19975 0.25616,0.34111c0.13341,0.22784 0.23727,0.50125 0.26721,0.69321c0.02732,0.17513 -0.32117,0.53396 -0.32117,0.53396c0,0 -0.32213,-0.36962 -0.55079,-0.71598z" fill="url(#color-71)" stroke-width="0"/><path d="M241.08991,179.81296c-0.22866,0.34636 -0.55079,0.71598 -0.55079,0.71598c0,0 -0.34849,-0.35883 -0.32117,-0.53396c0.02097,-0.13448 0.02221,-0.35853 0.10777,-0.52928c0.03786,-0.07556 0.08663,-0.14477 0.13829,-0.20763c0.10162,-0.12367 0.21441,-0.22278 0.27731,-0.29742c0.26121,-0.30997 -0.06672,-1.59324 0.03642,-1.46307c0.05856,0.07391 0.61353,0.70849 0.65588,1.19668c0.03224,0.37162 -0.23081,0.94768 -0.34371,1.11869z" data-paper-data="{&quot;index&quot;:null}" fill="url(#color-72)" stroke-width="0"/><path d="M240.45439,179.23557c0,0.66074 -0.2137,1.19637 -0.47731,1.19637c-0.26361,0 -0.47731,-0.53563 -0.47731,-1.19637c0,-0.30395 0.08421,-0.41569 0.13314,-0.64135c0.00697,-0.03215 0.02972,-0.20169 -0.03165,-0.21624c-0.08328,-0.01974 -0.25887,0.11554 -0.25597,0.05205c0.0022,-0.0482 0.14849,-0.12404 0.24686,-0.20249c0.0559,-0.04458 0.08374,-0.11098 0.09229,-0.12125c0.06233,-0.0748 0.21893,-0.0671 0.29265,-0.0671c0.22618,0 0.35362,0.4253 0.40286,0.95463c0.00815,0.08761 0.07445,0.14792 0.07445,0.24175z" fill="#cecece" stroke-width="0"/><path d="M240.15201,177.75246c-0.04197,0.03089 -0.18511,-0.09562 -0.18511,-0.09562c0,0 -0.14126,0.12857 -0.18357,0.09826c-0.04231,-0.03031 0.0337,-0.20544 0.0337,-0.20544c0,0 -0.16582,-0.09474 -0.15015,-0.14429c0.01574,-0.04963 0.20579,-0.0314 0.20579,-0.0314c0,0 0.03875,-0.18705 0.09087,-0.18739c0.05205,-0.0004 0.09339,0.18604 0.09339,0.18604c0,0 0.18993,-0.02093 0.20635,0.02844c0.01657,0.04944 -0.14792,0.14643 -0.14792,0.14643c0,0 0.07847,0.17408 0.03663,0.20496z" fill="#cfcfcf" stroke-width="2.57572"/><path d="M239.42562,176.98888c-0.04197,0.03089 -0.18511,-0.09562 -0.18511,-0.09562c0,0 -0.14125,0.12857 -0.18357,0.09826c-0.04231,-0.03031 0.0337,-0.20543 0.0337,-0.20543c0,0 -0.16582,-0.09474 -0.15015,-0.14429c0.01574,-0.04963 0.20579,-0.03141 0.20579,-0.03141c0,0 0.03875,-0.18705 0.09087,-0.18739c0.05205,-0.0004 0.09339,0.18604 0.09339,0.18604c0,0 0.18993,-0.02093 0.20635,0.02844c0.01657,0.04944 -0.14792,0.14643 -0.14792,0.14643c0,0 0.07847,0.17408 0.03663,0.20496z" fill="#cfcfcf" stroke-width="2.57572"/><path d="M240.15595,176.77699c-0.04197,0.03089 -0.18511,-0.09562 -0.18511,-0.09562c0,0 -0.14125,0.12857 -0.18356,0.09826c-0.04231,-0.03031 0.0337,-0.20543 0.0337,-0.20543c0,0 -0.16582,-0.09474 -0.15015,-0.14429c0.01574,-0.04963 0.20579,-0.03141 0.20579,-0.03141c0,0 0.03875,-0.18706 0.09087,-0.18739c0.05205,-0.0004 0.09339,0.18604 0.09339,0.18604c0,0 0.18993,-0.02093 0.20635,0.02844c0.01657,0.04944 -0.14792,0.14643 -0.14792,0.14643c0,0 0.07847,0.17408 0.03663,0.20496z" fill="#cfcfcf" stroke-width="2.57572"/><path d="M240.89869,176.97422c-0.04197,0.03089 -0.18511,-0.09562 -0.18511,-0.09562c0,0 -0.14125,0.12857 -0.18356,0.09826c-0.04231,-0.03031 0.0337,-0.20544 0.0337,-0.20544c0,0 -0.16582,-0.09474 -0.15014,-0.14429c0.01574,-0.04963 0.20578,-0.0314 0.20578,-0.0314c0,0 0.03875,-0.18706 0.09087,-0.18739c0.05205,-0.0004 0.09339,0.18604 0.09339,0.18604c0,0 0.18993,-0.02093 0.20635,0.02844c0.01657,0.04944 -0.14792,0.14643 -0.14792,0.14643c0,0 0.07847,0.17408 0.03663,0.20496z" fill="#cfcfcf" stroke-width="2.57572"/><path d="M239.06496,176.2005c-0.04197,0.03089 -0.18511,-0.09562 -0.18511,-0.09562c0,0 -0.14125,0.12857 -0.18357,0.09826c-0.04231,-0.03031 0.0337,-0.20544 0.0337,-0.20544c0,0 -0.16582,-0.09474 -0.15015,-0.14429c0.01574,-0.04963 0.20579,-0.0314 0.20579,-0.0314c0,0 0.03875,-0.18705 0.09087,-0.18739c0.05205,-0.0004 0.09339,0.18604 0.09339,0.18604c0,0 0.18993,-0.02093 0.20635,0.02844c0.01657,0.04944 -0.14792,0.14643 -0.14792,0.14643c0,0 0.07847,0.17408 0.03663,0.20496z" fill="#cfcfcf" stroke-width="2.57572"/><path d="M239.79529,175.88323c-0.04197,0.03089 -0.18511,-0.09562 -0.18511,-0.09562c0,0 -0.14125,0.12857 -0.18357,0.09826c-0.04231,-0.03031 0.0337,-0.20543 0.0337,-0.20543c0,0 -0.16582,-0.09474 -0.15015,-0.14429c0.01574,-0.04963 0.20579,-0.0314 0.20579,-0.0314c0,0 0.03875,-0.18706 0.09087,-0.18739c0.05205,-0.0004 0.09339,0.18604 0.09339,0.18604c0,0 0.18993,-0.02093 0.20635,0.02845c0.01657,0.04944 -0.14792,0.14643 -0.14792,0.14643c0,0 0.07847,0.17408 0.03663,0.20496z" fill="#cfcfcf" stroke-width="2.57572"/><path d="M240.53803,175.8821c-0.04197,0.03089 -0.18511,-0.09562 -0.18511,-0.09562c0,0 -0.14125,0.12857 -0.18357,0.09826c-0.04231,-0.03031 0.0337,-0.20543 0.0337,-0.20543c0,0 -0.16582,-0.09474 -0.15014,-0.14429c0.01574,-0.04963 0.20579,-0.0314 0.20579,-0.0314c0,0 0.03875,-0.18706 0.09087,-0.18739c0.05205,-0.0004 0.09339,0.18604 0.09339,0.18604c0,0 0.18993,-0.02093 0.20635,0.02844c0.01657,0.04944 -0.14792,0.14643 -0.14792,0.14643c0,0 0.07847,0.17408 0.03663,0.20496z" fill="#cfcfcf" stroke-width="2.57572"/><path d="M241.30555,176.19712c-0.04197,0.03089 -0.18511,-0.09562 -0.18511,-0.09562c0,0 -0.14125,0.12857 -0.18357,0.09826c-0.04231,-0.03031 0.0337,-0.20543 0.0337,-0.20543c0,0 -0.16582,-0.09474 -0.15015,-0.14429c0.01574,-0.04963 0.20579,-0.03141 0.20579,-0.03141c0,0 0.03875,-0.18705 0.09087,-0.18739c0.05205,-0.0004 0.09339,0.18604 0.09339,0.18604c0,0 0.18993,-0.02093 0.20635,0.02844c0.01657,0.04944 -0.14791,0.14643 -0.14791,0.14643c0,0 0.07847,0.17408 0.03663,0.20496z" fill="#cfcfcf" stroke-width="2.57572"/></g></g></g></svg>