<svg version="1.1" xmlns="http://www.w3.org/2000/svg" xmlns:xlink="http://www.w3.org/1999/xlink" width="10.11799" height="10.5" viewBox="0,0,10.11799,10.5"><defs><linearGradient x1="235.19236" y1="179.48276" x2="244.81034" y2="179.48276" gradientUnits="userSpaceOnUse" id="color-1"><stop offset="0" stop-color="#bababa"/><stop offset="1" stop-color="#ededed"/></linearGradient><linearGradient x1="239.94385" y1="181.38057" x2="239.94385" y2="183.4116" gradientUnits="userSpaceOnUse" id="color-2"><stop offset="0" stop-color="#f1f1f1"/><stop offset="1" stop-color="#bababa"/></linearGradient><linearGradient x1="244.09342" y1="180.21685" x2="242.13672" y2="180.15252" gradientUnits="userSpaceOnUse" id="color-3"><stop offset="0" stop-color="#f1f1f1"/><stop offset="1" stop-color="#bababa"/></linearGradient><linearGradient x1="243.78093" y1="180.50167" x2="243.09876" y2="180.47924" gradientUnits="userSpaceOnUse" id="color-4"><stop offset="0" stop-color="#f1f1f1"/><stop offset="1" stop-color="#bababa"/></linearGradient><linearGradient x1="243.936" y1="179.66616" x2="243.21771" y2="179.64254" gradientUnits="userSpaceOnUse" id="color-5"><stop offset="0" stop-color="#f1f1f1"/><stop offset="1" stop-color="#bababa"/></linearGradient><linearGradient x1="244.01978" y1="178.796" x2="243.27456" y2="178.7715" gradientUnits="userSpaceOnUse" id="color-6"><stop offset="0" stop-color="#f1f1f1"/><stop offset="1" stop-color="#bababa"/></linearGradient><linearGradient x1="244.00013" y1="178.00432" x2="243.28105" y2="177.98068" gradientUnits="userSpaceOnUse" id="color-7"><stop offset="0" stop-color="#f1f1f1"/><stop offset="1" stop-color="#bababa"/></linearGradient><linearGradient x1="244.06555" y1="177.09132" x2="243.42435" y2="177.07024" gradientUnits="userSpaceOnUse" id="color-8"><stop offset="0" stop-color="#f1f1f1"/><stop offset="1" stop-color="#bababa"/></linearGradient><linearGradient x1="244.40322" y1="178.16451" x2="243.8577" y2="178.14657" gradientUnits="userSpaceOnUse" id="color-9"><stop offset="0" stop-color="#f1f1f1"/><stop offset="1" stop-color="#bababa"/></linearGradient><linearGradient x1="244.53813" y1="180.17902" x2="243.72672" y2="180.15235" gradientUnits="userSpaceOnUse" id="color-10"><stop offset="0" stop-color="#f1f1f1"/><stop offset="1" stop-color="#bababa"/></linearGradient><linearGradient x1="244.50525" y1="179.23265" x2="243.81676" y2="179.21001" gradientUnits="userSpaceOnUse" id="color-11"><stop offset="0" stop-color="#f1f1f1"/><stop offset="1" stop-color="#bababa"/></linearGradient><linearGradient x1="244.45689" y1="181.08382" x2="243.33652" y2="181.04699" gradientUnits="userSpaceOnUse" id="color-12"><stop offset="0" stop-color="#f1f1f1"/><stop offset="1" stop-color="#bababa"/></linearGradient><linearGradient x1="243.40002" y1="181.44209" x2="242.75091" y2="181.42075" gradientUnits="userSpaceOnUse" id="color-13"><stop offset="0" stop-color="#f1f1f1"/><stop offset="1" stop-color="#bababa"/></linearGradient><linearGradient x1="244.0811" y1="182.05504" x2="242.90441" y2="182.01636" gradientUnits="userSpaceOnUse" id="color-14"><stop offset="0" stop-color="#f1f1f1"/><stop offset="1" stop-color="#bababa"/></linearGradient><linearGradient x1="242.94924" y1="182.16753" x2="242.2783" y2="182.14547" gradientUnits="userSpaceOnUse" id="color-15"><stop offset="0" stop-color="#f1f1f1"/><stop offset="1" stop-color="#bababa"/></linearGradient><linearGradient x1="243.57591" y1="182.90148" x2="242.15149" y2="182.85466" gradientUnits="userSpaceOnUse" id="color-16"><stop offset="0" stop-color="#f1f1f1"/><stop offset="1" stop-color="#bababa"/></linearGradient><linearGradient x1="242.65363" y1="183.50171" x2="241.09859" y2="183.45059" gradientUnits="userSpaceOnUse" id="color-17"><stop offset="0" stop-color="#f1f1f1"/><stop offset="1" stop-color="#bababa"/></linearGradient><linearGradient x1="241.85319" y1="183.96068" x2="240.52122" y2="183.91689" gradientUnits="userSpaceOnUse" id="color-18"><stop offset="0" stop-color="#f1f1f1"/><stop offset="1" stop-color="#bababa"/></linearGradient><linearGradient x1="242.41651" y1="182.70313" x2="241.76029" y2="182.68156" gradientUnits="userSpaceOnUse" id="color-19"><stop offset="0" stop-color="#f1f1f1"/><stop offset="1" stop-color="#bababa"/></linearGradient><linearGradient x1="241.85657" y1="183.28388" x2="240.84872" y2="183.25075" gradientUnits="userSpaceOnUse" id="color-20"><stop offset="0" stop-color="#f1f1f1"/><stop offset="1" stop-color="#bababa"/></linearGradient><linearGradient x1="241.06916" y1="183.54828" x2="240.38086" y2="183.52565" gradientUnits="userSpaceOnUse" id="color-21"><stop offset="0" stop-color="#f1f1f1"/><stop offset="1" stop-color="#bababa"/></linearGradient><linearGradient x1="235.90657" y1="180.19331" x2="237.86327" y2="180.12898" gradientUnits="userSpaceOnUse" id="color-22"><stop offset="0" stop-color="#f1f1f1"/><stop offset="1" stop-color="#bababa"/></linearGradient><linearGradient x1="236.21907" y1="180.47813" x2="236.90123" y2="180.4557" gradientUnits="userSpaceOnUse" id="color-23"><stop offset="0" stop-color="#f1f1f1"/><stop offset="1" stop-color="#bababa"/></linearGradient><linearGradient x1="236.064" y1="179.64262" x2="236.78228" y2="179.61901" gradientUnits="userSpaceOnUse" id="color-24"><stop offset="0" stop-color="#f1f1f1"/><stop offset="1" stop-color="#bababa"/></linearGradient><linearGradient x1="235.98022" y1="178.77246" x2="236.72543" y2="178.74796" gradientUnits="userSpaceOnUse" id="color-25"><stop offset="0" stop-color="#f1f1f1"/><stop offset="1" stop-color="#bababa"/></linearGradient><linearGradient x1="235.99986" y1="177.98078" x2="236.71894" y2="177.95714" gradientUnits="userSpaceOnUse" id="color-26"><stop offset="0" stop-color="#f1f1f1"/><stop offset="1" stop-color="#bababa"/></linearGradient><linearGradient x1="235.93444" y1="177.06778" x2="236.57564" y2="177.0467" gradientUnits="userSpaceOnUse" id="color-27"><stop offset="0" stop-color="#f1f1f1"/><stop offset="1" stop-color="#bababa"/></linearGradient><linearGradient x1="235.59678" y1="178.14097" x2="236.14229" y2="178.12303" gradientUnits="userSpaceOnUse" id="color-28"><stop offset="0" stop-color="#f1f1f1"/><stop offset="1" stop-color="#bababa"/></linearGradient><linearGradient x1="235.46187" y1="180.15549" x2="236.27328" y2="180.12881" gradientUnits="userSpaceOnUse" id="color-29"><stop offset="0" stop-color="#f1f1f1"/><stop offset="1" stop-color="#bababa"/></linearGradient><linearGradient x1="235.49475" y1="179.20911" x2="236.18323" y2="179.18648" gradientUnits="userSpaceOnUse" id="color-30"><stop offset="0" stop-color="#f1f1f1"/><stop offset="1" stop-color="#bababa"/></linearGradient><linearGradient x1="235.5431" y1="181.06028" x2="236.66348" y2="181.02345" gradientUnits="userSpaceOnUse" id="color-31"><stop offset="0" stop-color="#f1f1f1"/><stop offset="1" stop-color="#bababa"/></linearGradient><linearGradient x1="236.59998" y1="181.41855" x2="237.24908" y2="181.39721" gradientUnits="userSpaceOnUse" id="color-32"><stop offset="0" stop-color="#f1f1f1"/><stop offset="1" stop-color="#bababa"/></linearGradient><linearGradient x1="235.9189" y1="182.0315" x2="237.09558" y2="181.99282" gradientUnits="userSpaceOnUse" id="color-33"><stop offset="0" stop-color="#f1f1f1"/><stop offset="1" stop-color="#bababa"/></linearGradient><linearGradient x1="237.05075" y1="182.14399" x2="237.72169" y2="182.12193" gradientUnits="userSpaceOnUse" id="color-34"><stop offset="0" stop-color="#f1f1f1"/><stop offset="1" stop-color="#bababa"/></linearGradient><linearGradient x1="236.42408" y1="182.87795" x2="237.8485" y2="182.83112" gradientUnits="userSpaceOnUse" id="color-35"><stop offset="0" stop-color="#f1f1f1"/><stop offset="1" stop-color="#bababa"/></linearGradient><linearGradient x1="237.34636" y1="183.47817" x2="238.9014" y2="183.42705" gradientUnits="userSpaceOnUse" id="color-36"><stop offset="0" stop-color="#f1f1f1"/><stop offset="1" stop-color="#bababa"/></linearGradient><linearGradient x1="238.14681" y1="183.93714" x2="239.47877" y2="183.89335" gradientUnits="userSpaceOnUse" id="color-37"><stop offset="0" stop-color="#f1f1f1"/><stop offset="1" stop-color="#bababa"/></linearGradient><linearGradient x1="237.58348" y1="182.67959" x2="238.2397" y2="182.65802" gradientUnits="userSpaceOnUse" id="color-38"><stop offset="0" stop-color="#f1f1f1"/><stop offset="1" stop-color="#bababa"/></linearGradient><linearGradient x1="238.14342" y1="183.26034" x2="239.15127" y2="183.22721" gradientUnits="userSpaceOnUse" id="color-39"><stop offset="0" stop-color="#f1f1f1"/><stop offset="1" stop-color="#bababa"/></linearGradient><linearGradient x1="238.93084" y1="183.52474" x2="239.61914" y2="183.50211" gradientUnits="userSpaceOnUse" id="color-40"><stop offset="0" stop-color="#f1f1f1"/><stop offset="1" stop-color="#bababa"/></linearGradient><linearGradient x1="239.95135" y1="180.91479" x2="239.95135" y2="182.51787" gradientUnits="userSpaceOnUse" id="color-41"><stop offset="0" stop-color="#f1f1f1"/><stop offset="1" stop-color="#bababa"/></linearGradient><linearGradient x1="239.95588" y1="180.4924" x2="239.95588" y2="182.32191" gradientUnits="userSpaceOnUse" id="color-42"><stop offset="0" stop-color="#bababa"/><stop offset="1" stop-color="#f1f1f1"/></linearGradient><linearGradient x1="236.75573" y1="179.67891" x2="238.51077" y2="179.67891" gradientUnits="userSpaceOnUse" id="color-43"><stop offset="0" stop-color="#f1f1f1"/><stop offset="1" stop-color="#bababa"/></linearGradient><linearGradient x1="236.83747" y1="180.23976" x2="238.81793" y2="180.23976" gradientUnits="userSpaceOnUse" id="color-44"><stop offset="0" stop-color="#f1f1f1"/><stop offset="1" stop-color="#bababa"/></linearGradient><linearGradient x1="237.19645" y1="180.8127" x2="239.02698" y2="180.8127" gradientUnits="userSpaceOnUse" id="color-45"><stop offset="0" stop-color="#f1f1f1"/><stop offset="1" stop-color="#bababa"/></linearGradient><linearGradient x1="237.68563" y1="181.24399" x2="239.29695" y2="181.24399" gradientUnits="userSpaceOnUse" id="color-46"><stop offset="0" stop-color="#f1f1f1"/><stop offset="1" stop-color="#bababa"/></linearGradient><linearGradient x1="238.0115" y1="181.48491" x2="239.49629" y2="181.48491" gradientUnits="userSpaceOnUse" id="color-47"><stop offset="0" stop-color="#f1f1f1"/><stop offset="1" stop-color="#bababa"/></linearGradient><linearGradient x1="238.32282" y1="181.67662" x2="239.62329" y2="181.67662" gradientUnits="userSpaceOnUse" id="color-48"><stop offset="0" stop-color="#f1f1f1"/><stop offset="1" stop-color="#bababa"/></linearGradient><linearGradient x1="243.22052" y1="179.6641" x2="241.46548" y2="179.6641" gradientUnits="userSpaceOnUse" id="color-49"><stop offset="0" stop-color="#f1f1f1"/><stop offset="1" stop-color="#bababa"/></linearGradient><linearGradient x1="243.13877" y1="180.22495" x2="241.15832" y2="180.22495" gradientUnits="userSpaceOnUse" id="color-50"><stop offset="0" stop-color="#f1f1f1"/><stop offset="1" stop-color="#bababa"/></linearGradient><linearGradient x1="242.7798" y1="180.79789" x2="240.94927" y2="180.79789" gradientUnits="userSpaceOnUse" id="color-51"><stop offset="0" stop-color="#f1f1f1"/><stop offset="1" stop-color="#bababa"/></linearGradient><linearGradient x1="242.29062" y1="181.22916" x2="240.6793" y2="181.22916" gradientUnits="userSpaceOnUse" id="color-52"><stop offset="0" stop-color="#f1f1f1"/><stop offset="1" stop-color="#bababa"/></linearGradient><linearGradient x1="241.96475" y1="181.47009" x2="240.47995" y2="181.47009" gradientUnits="userSpaceOnUse" id="color-53"><stop offset="0" stop-color="#f1f1f1"/><stop offset="1" stop-color="#bababa"/></linearGradient><linearGradient x1="241.65341" y1="181.66181" x2="240.35296" y2="181.66181" gradientUnits="userSpaceOnUse" id="color-54"><stop offset="0" stop-color="#f1f1f1"/><stop offset="1" stop-color="#bababa"/></linearGradient><linearGradient x1="238.75254" y1="181.9868" x2="239.86655" y2="181.9868" gradientUnits="userSpaceOnUse" id="color-55"><stop offset="0" stop-color="#f1f1f1"/><stop offset="1" stop-color="#bababa"/></linearGradient><linearGradient x1="241.16316" y1="181.9901" x2="240.04915" y2="181.9901" gradientUnits="userSpaceOnUse" id="color-56"><stop offset="0" stop-color="#f1f1f1"/><stop offset="1" stop-color="#bababa"/></linearGradient><linearGradient x1="235.88082" y1="179.06558" x2="238.38806" y2="179.23401" gradientUnits="userSpaceOnUse" id="color-57"><stop offset="0" stop-color="#f1f1f1"/><stop offset="1" stop-color="#bababa"/></linearGradient><linearGradient x1="235.78348" y1="178.50682" x2="238.27601" y2="178.82608" gradientUnits="userSpaceOnUse" id="color-58"><stop offset="0" stop-color="#f1f1f1"/><stop offset="1" stop-color="#bababa"/></linearGradient><linearGradient x1="235.86019" y1="177.83775" x2="238.29306" y2="178.46686" gradientUnits="userSpaceOnUse" id="color-59"><stop offset="0" stop-color="#f1f1f1"/><stop offset="1" stop-color="#bababa"/></linearGradient><linearGradient x1="236.01144" y1="177.33808" x2="238.38722" y2="178.15679" gradientUnits="userSpaceOnUse" id="color-60"><stop offset="0" stop-color="#f1f1f1"/><stop offset="1" stop-color="#bababa"/></linearGradient><linearGradient x1="238.34359" y1="180.25132" x2="239.74203" y2="180.25132" gradientUnits="userSpaceOnUse" id="color-61"><stop offset="0" stop-color="#f1f1f1"/><stop offset="1" stop-color="#bababa"/></linearGradient><linearGradient x1="244.06415" y1="179.04451" x2="241.55691" y2="179.21294" gradientUnits="userSpaceOnUse" id="color-62"><stop offset="0" stop-color="#f1f1f1"/><stop offset="1" stop-color="#bababa"/></linearGradient><linearGradient x1="244.16149" y1="178.45787" x2="241.66896" y2="178.77713" gradientUnits="userSpaceOnUse" id="color-63"><stop offset="0" stop-color="#f1f1f1"/><stop offset="1" stop-color="#bababa"/></linearGradient><linearGradient x1="244.08479" y1="177.77486" x2="241.65192" y2="178.40396" gradientUnits="userSpaceOnUse" id="color-64"><stop offset="0" stop-color="#f1f1f1"/><stop offset="1" stop-color="#bababa"/></linearGradient><linearGradient x1="243.93353" y1="177.26124" x2="241.55775" y2="178.07995" gradientUnits="userSpaceOnUse" id="color-65"><stop offset="0" stop-color="#f1f1f1"/><stop offset="1" stop-color="#bababa"/></linearGradient><linearGradient x1="241.69898" y1="180.1466" x2="240.30053" y2="180.1466" gradientUnits="userSpaceOnUse" id="color-66"><stop offset="0" stop-color="#f1f1f1"/><stop offset="1" stop-color="#bababa"/></linearGradient><linearGradient x1="238.921" y1="176.71517" x2="240.92824" y2="176.71517" gradientUnits="userSpaceOnUse" id="color-67"><stop offset="0" stop-color="#f1f1f1"/><stop offset="1" stop-color="#bababa"/></linearGradient><linearGradient x1="239.02836" y1="177.32512" x2="239.83983" y2="177.32512" gradientUnits="userSpaceOnUse" id="color-68"><stop offset="0" stop-color="#f1f1f1"/><stop offset="1" stop-color="#bababa"/></linearGradient><linearGradient x1="239.78617" y1="176.49871" x2="240.1055" y2="176.49871" gradientUnits="userSpaceOnUse" id="color-69"><stop offset="0" stop-color="#f1f1f1"/><stop offset="1" stop-color="#bababa"/></linearGradient><linearGradient x1="240.02701" y1="177.32268" x2="240.81679" y2="177.32268" gradientUnits="userSpaceOnUse" id="color-70"><stop offset="0" stop-color="#f1f1f1"/><stop offset="1" stop-color="#bababa"/></linearGradient><linearGradient x1="241.71703" y1="178.31335" x2="241.37429" y2="177.82187" gradientUnits="userSpaceOnUse" id="color-71"><stop offset="0" stop-color="#f1f1f1"/><stop offset="1" stop-color="#bababa"/></linearGradient><linearGradient x1="239.78635" y1="177.0631" x2="240.08074" y2="177.0631" gradientUnits="userSpaceOnUse" id="color-72"><stop offset="0" stop-color="#f1f1f1"/><stop offset="1" stop-color="#bababa"/></linearGradient><linearGradient x1="238.15146" y1="178.34489" x2="238.49421" y2="177.85341" gradientUnits="userSpaceOnUse" id="color-73"><stop offset="0" stop-color="#f1f1f1"/><stop offset="1" stop-color="#bababa"/></linearGradient><linearGradient x1="241.2664" y1="184.14142" x2="239.93444" y2="184.09763" gradientUnits="userSpaceOnUse" id="color-74"><stop offset="0" stop-color="#f1f1f1"/><stop offset="1" stop-color="#bababa"/></linearGradient><linearGradient x1="238.78992" y1="184.11788" x2="240.12188" y2="184.0741" gradientUnits="userSpaceOnUse" id="color-75"><stop offset="0" stop-color="#f1f1f1"/><stop offset="1" stop-color="#bababa"/></linearGradient><linearGradient x1="239.46298" y1="183.71473" x2="240.15128" y2="183.6921" gradientUnits="userSpaceOnUse" id="color-76"><stop offset="0" stop-color="#f1f1f1"/><stop offset="1" stop-color="#bababa"/></linearGradient><linearGradient x1="240.51936" y1="183.72902" x2="239.83107" y2="183.70639" gradientUnits="userSpaceOnUse" id="color-77"><stop offset="0" stop-color="#f1f1f1"/><stop offset="1" stop-color="#bababa"/></linearGradient></defs><g transform="translate(-234.94236,-174.23276)"><g data-paper-data="{&quot;isPaintingLayer&quot;:true}" fill-rule="nonzero" stroke-linecap="butt" stroke-linejoin="miter" stroke-miterlimit="10" stroke-dasharray="" stroke-dashoffset="0" style="mix-blend-mode: normal"><path d="M244.81034,179.48276c0,2.76142 -2.15306,5 -4.80899,5c-2.65593,0 -4.80899,-2.23858 -4.80899,-5c0,-2.76142 2.15306,-5 4.80899,-5c2.65593,0 4.80899,2.23858 4.80899,5z" fill="none" stroke="url(#color-1)" stroke-width="0.5"/><path d="M238.40387,183.15549l0.47282,-1.77493h2.13432l0.51222,1.79464c0,0 -1.07115,0.34835 -1.58114,0.34513c-0.5291,-0.00334 -1.53822,-0.36483 -1.53822,-0.36483z" fill="url(#color-2)" stroke="none" stroke-width="0"/><g data-paper-data="{&quot;index&quot;:null}" stroke="none" stroke-width="0"><path d="M242.03402,183.2767l1.45556,-2.98647c0,0 0.05382,-1.42833 0.20416,-2.01467c0.03878,-0.15127 -0.0328,-0.43027 -0.04389,-0.67515c-0.01252,-0.2765 0.03492,-0.51222 0.08364,-0.52247c0.05305,-0.01116 0.2145,0.24519 0.31774,0.48279c0.07445,0.17135 0.10334,0.33998 0.11182,0.35826c0.03424,0.07386 -0.21922,3.35126 -0.21922,3.35126l-0.89613,1.48271z" data-paper-data="{&quot;index&quot;:null}" fill="url(#color-3)"/><path d="M243.7449,180.43667c0.07295,0.41372 -0.00448,0.77319 -0.17296,0.8029c-0.16847,0.02971 -0.36419,-0.2816 -0.43714,-0.69532c-0.07295,-0.41372 0.00448,-0.77319 0.17296,-0.8029c0.16847,-0.02971 0.36419,0.2816 0.43714,0.69532z" data-paper-data="{&quot;index&quot;:null}" fill="url(#color-4)"/><path d="M243.84273,179.56322c0.1236,0.3606 0.10476,0.69372 -0.04208,0.74405c-0.14684,0.05033 -0.36608,-0.20119 -0.48968,-0.56178c-0.1236,-0.3606 -0.10476,-0.69372 0.04208,-0.74405c0.14684,-0.05033 0.36608,0.20119 0.48968,0.56178z" data-paper-data="{&quot;index&quot;:null}" fill="url(#color-5)"/><path d="M243.88095,178.6719c0.15171,0.31706 0.17002,0.62418 0.04091,0.68595c-0.12911,0.06178 -0.35676,-0.14517 -0.50847,-0.46224c-0.15171,-0.31706 -0.17002,-0.62418 -0.04091,-0.68595c0.12911,-0.06178 0.35676,0.14517 0.50847,0.46224z" data-paper-data="{&quot;index&quot;:null}" fill="url(#color-6)"/><path d="M243.86445,177.88395c0.14721,0.3036 0.16633,0.59832 0.04269,0.65826c-0.12363,0.05995 -0.34319,-0.13757 -0.4904,-0.44118c-0.14721,-0.3036 -0.16633,-0.59832 -0.04269,-0.65826c0.12363,-0.05995 0.34319,0.13757 0.4904,0.44118z" data-paper-data="{&quot;index&quot;:null}" fill="url(#color-7)"/><path d="M244.00652,177.01239c0.09275,0.35475 0.05083,0.67296 -0.09363,0.71073c-0.14446,0.03777 -0.33676,-0.2192 -0.42952,-0.57395c-0.09275,-0.35475 -0.05083,-0.67296 0.09363,-0.71073c0.14446,-0.03777 0.33676,0.2192 0.42952,0.57395z" data-paper-data="{&quot;index&quot;:null}" fill="url(#color-8)"/><path d="M244.39964,178.18083c-0.03431,0.36507 -0.18263,0.6497 -0.33129,0.63573c-0.14866,-0.01397 -0.24137,-0.32124 -0.20706,-0.68632c0.0343,-0.36507 0.18263,-0.6497 0.33129,-0.63573c0.14866,0.01397 0.24137,0.32124 0.20706,0.68632z" data-paper-data="{&quot;index&quot;:null}" fill="url(#color-9)"/><path d="M244.38756,180.30126c-0.18387,0.34603 -0.44716,0.56584 -0.58807,0.49096c-0.14091,-0.07488 -0.10608,-0.41609 0.0778,-0.76211c0.18387,-0.34603 0.44716,-0.56584 0.58807,-0.49096c0.14091,0.07488 0.10608,0.41609 -0.0778,0.76211z" data-paper-data="{&quot;index&quot;:null}" fill="url(#color-10)"/><path d="M244.42463,179.3188c-0.13219,0.35754 -0.35738,0.60374 -0.50297,0.54991c-0.1456,-0.05383 -0.15646,-0.38731 -0.02428,-0.74485c0.13219,-0.35754 0.35738,-0.60374 0.50297,-0.54991c0.1456,0.05383 0.15646,0.38731 0.02428,0.74485z" data-paper-data="{&quot;index&quot;:null}" fill="url(#color-11)"/><path d="M244.1191,181.28102c-0.29243,0.30161 -0.62906,0.44959 -0.75188,0.3305c-0.12282,-0.11908 0.01467,-0.46012 0.3071,-0.76174c0.29243,-0.30161 0.62906,-0.44959 0.75188,-0.3305c0.12282,0.11908 -0.01467,0.46012 -0.3071,0.76174z" data-paper-data="{&quot;index&quot;:null}" fill="url(#color-12)"/><path d="M243.38343,181.3982c0.04505,0.41768 -0.0563,0.77115 -0.22639,0.7895c-0.17009,0.01835 -0.34449,-0.30538 -0.38955,-0.72306c-0.04505,-0.41768 0.0563,-0.77115 0.22639,-0.7895c0.17009,-0.01835 0.34449,0.30538 0.38955,0.72306z" data-paper-data="{&quot;index&quot;:null}" fill="url(#color-13)"/><path d="M243.70019,182.26574c-0.31199,0.28133 -0.65778,0.40641 -0.77235,0.27936c-0.11456,-0.12705 0.04548,-0.45811 0.35748,-0.73944c0.31199,-0.28133 0.65779,-0.4064 0.77235,-0.27936c0.11456,0.12705 -0.04548,0.45811 -0.35748,0.73944z" data-paper-data="{&quot;index&quot;:null}" fill="url(#color-14)"/><path d="M242.93158,182.20892c-0.07109,0.43102 -0.27102,0.75697 -0.44653,0.72802c-0.17552,-0.02895 -0.26017,-0.40183 -0.18908,-0.83286c0.07109,-0.43102 0.27102,-0.75697 0.44653,-0.72802c0.17552,0.02895 0.26017,0.40183 0.18908,0.83286z" data-paper-data="{&quot;index&quot;:null}" fill="url(#color-15)"/><path d="M243.00752,183.16628c-0.39089,0.19505 -0.77215,0.22413 -0.85158,0.06496c-0.07943,-0.15917 0.17306,-0.44633 0.56394,-0.64138c0.39089,-0.19505 0.77215,-0.22414 0.85158,-0.06496c0.07943,0.15917 -0.17306,0.44633 -0.56394,0.64138z" data-paper-data="{&quot;index&quot;:null}" fill="url(#color-16)"/><path d="M241.92958,183.79378c-0.43079,0.07252 -0.80395,-0.0109 -0.83348,-0.18632c-0.02953,-0.17542 0.29575,-0.37642 0.72654,-0.44894c0.43079,-0.07252 0.80395,0.0109 0.83348,0.18632c0.02953,0.17542 -0.29575,0.37642 -0.72654,0.44894z" data-paper-data="{&quot;index&quot;:null}" fill="url(#color-17)"/><path d="M241.20468,184.21063c-0.36869,0.0237 -0.6754,-0.0788 -0.68505,-0.22894c-0.00965,-0.15014 0.28141,-0.29106 0.65011,-0.31476c0.36869,-0.0237 0.6754,0.0788 0.68505,0.22894c0.00965,0.15014 -0.28141,0.29106 -0.6501,0.31476z" data-paper-data="{&quot;index&quot;:null}" fill="url(#color-18)"/><path d="M242.34546,182.78251c-0.12229,0.34863 -0.33651,0.59088 -0.47848,0.54108c-0.14197,-0.0498 -0.15792,-0.37279 -0.03563,-0.72141c0.12229,-0.34863 0.33651,-0.59088 0.47848,-0.54108c0.14197,0.0498 0.15792,0.37279 0.03563,0.72142z" data-paper-data="{&quot;index&quot;:null}" fill="url(#color-19)"/><path d="M241.54242,183.46275c-0.26506,0.25737 -0.5649,0.37851 -0.6697,0.27058c-0.10481,-0.10794 0.02511,-0.40408 0.29016,-0.66145c0.26506,-0.25737 0.5649,-0.37851 0.6697,-0.27058c0.10481,0.10794 -0.0251,0.40408 -0.29016,0.66145z" data-paper-data="{&quot;index&quot;:null}" fill="url(#color-20)"/><path d="M240.93454,183.66615c-0.1585,0.283 -0.38081,0.45458 -0.49653,0.38324c-0.11572,-0.07135 -0.08104,-0.35861 0.07747,-0.64161c0.1585,-0.283 0.38081,-0.45458 0.49653,-0.38324c0.11572,0.07135 0.08104,0.35861 -0.07747,0.64161z" data-paper-data="{&quot;index&quot;:null}" fill="url(#color-21)"/></g><g stroke="none" stroke-width="0"><path d="M236.9523,182.72941l-0.89613,-1.48271c0,0 -0.25346,-3.2774 -0.21922,-3.35126c0.00847,-0.01828 0.03736,-0.18691 0.11182,-0.35826c0.10324,-0.2376 0.26469,-0.49394 0.31774,-0.48279c0.04871,0.01024 0.09616,0.24597 0.08364,0.52247c-0.01109,0.24488 -0.08267,0.52388 -0.04389,0.67515c0.15033,0.58635 0.20416,2.01467 0.20416,2.01467l1.45556,2.98647z" data-paper-data="{&quot;index&quot;:null}" fill="url(#color-22)"/><path d="M236.69224,179.71781c0.16847,0.02971 0.24591,0.38918 0.17296,0.8029c-0.07295,0.41372 -0.26867,0.72503 -0.43714,0.69532c-0.16847,-0.02971 -0.24591,-0.38918 -0.17296,-0.8029c0.07295,-0.41372 0.26867,-0.72503 0.43714,-0.69532z" data-paper-data="{&quot;index&quot;:null}" fill="url(#color-23)"/><path d="M236.64694,178.97789c0.14684,0.05033 0.16568,0.38346 0.04208,0.74405c-0.1236,0.3606 -0.34284,0.61212 -0.48968,0.56178c-0.14684,-0.05033 -0.16568,-0.38346 -0.04208,-0.74405c0.1236,-0.3606 0.34284,-0.61212 0.48968,-0.56178z" data-paper-data="{&quot;index&quot;:null}" fill="url(#color-24)"/><path d="M236.11905,178.64835c0.15171,-0.31706 0.37936,-0.52401 0.50847,-0.46224c0.12911,0.06178 0.1108,0.36889 -0.04091,0.68595c-0.15171,0.31706 -0.37936,0.52401 -0.50847,0.46224c-0.12911,-0.06178 -0.1108,-0.36889 0.04091,-0.68595z" data-paper-data="{&quot;index&quot;:null}" fill="url(#color-25)"/><path d="M236.62595,177.41924c0.12363,0.05995 0.10452,0.35466 -0.04269,0.65826c-0.14721,0.3036 -0.36677,0.50112 -0.4904,0.44118c-0.12363,-0.05995 -0.10452,-0.35466 0.04269,-0.65826c0.14721,-0.3036 0.36677,-0.50112 0.4904,-0.44118z" data-paper-data="{&quot;index&quot;:null}" fill="url(#color-26)"/><path d="M235.99347,176.98885c0.09275,-0.35475 0.28506,-0.61172 0.42952,-0.57395c0.14446,0.03777 0.18638,0.35598 0.09362,0.71073c-0.09275,0.35475 -0.28506,0.61172 -0.42952,0.57395c-0.14446,-0.03777 -0.18638,-0.35598 -0.09363,-0.71073z" data-paper-data="{&quot;index&quot;:null}" fill="url(#color-27)"/><path d="M235.80742,177.47098c0.14866,-0.01397 0.29699,0.27065 0.33129,0.63573c0.0343,0.36507 -0.0584,0.67234 -0.20706,0.68632c-0.14866,0.01397 -0.29699,-0.27066 -0.33129,-0.63573c-0.0343,-0.36507 0.0584,-0.67234 0.20706,-0.68632z" data-paper-data="{&quot;index&quot;:null}" fill="url(#color-28)"/><path d="M235.61244,180.27773c-0.18387,-0.34603 -0.2187,-0.68724 -0.0778,-0.76211c0.14091,-0.07488 0.40419,0.14493 0.58807,0.49096c0.18387,0.34603 0.21871,0.68723 0.0778,0.76211c-0.14091,0.07488 -0.4042,-0.14494 -0.58807,-0.49096z" data-paper-data="{&quot;index&quot;:null}" fill="url(#color-29)"/><path d="M235.57536,179.29526c-0.13219,-0.35754 -0.12132,-0.69102 0.02428,-0.74485c0.1456,-0.05383 0.37079,0.19237 0.50297,0.54991c0.13219,0.35754 0.12132,0.69102 -0.02428,0.74485c-0.14559,0.05383 -0.37078,-0.19238 -0.50297,-0.54991z" data-paper-data="{&quot;index&quot;:null}" fill="url(#color-30)"/><path d="M235.8809,181.25748c-0.29243,-0.30162 -0.42992,-0.64266 -0.3071,-0.76174c0.12282,-0.11908 0.45945,0.02889 0.75188,0.3305c0.29243,0.30162 0.42993,0.64266 0.30711,0.76174c-0.12282,0.11908 -0.45945,-0.02889 -0.75188,-0.3305z" data-paper-data="{&quot;index&quot;:null}" fill="url(#color-31)"/><path d="M237.00611,180.6516c0.17009,0.01835 0.27145,0.37182 0.22639,0.7895c-0.04506,0.41768 -0.21946,0.7414 -0.38955,0.72306c-0.17009,-0.01835 -0.27145,-0.37182 -0.22639,-0.7895c0.04505,-0.41768 0.21946,-0.7414 0.38955,-0.72306z" data-paper-data="{&quot;index&quot;:null}" fill="url(#color-32)"/><path d="M235.94233,181.50276c0.11456,-0.12705 0.46035,-0.00198 0.77235,0.27936c0.31199,0.28133 0.47204,0.61239 0.35748,0.73944c-0.11456,0.12705 -0.46035,0.00198 -0.77235,-0.27936c-0.31199,-0.28133 -0.47204,-0.61239 -0.35748,-0.73944z" data-paper-data="{&quot;index&quot;:null}" fill="url(#color-33)"/><path d="M237.25749,181.35252c0.17552,-0.02895 0.37544,0.29699 0.44653,0.72802c0.07109,0.43102 -0.01356,0.80391 -0.18908,0.83286c-0.17552,0.02895 -0.37544,-0.29699 -0.44653,-0.72802c-0.07109,-0.43102 0.01356,-0.80391 0.18908,-0.83286z" data-paper-data="{&quot;index&quot;:null}" fill="url(#color-34)"/><path d="M236.42853,182.50136c0.07943,-0.15918 0.46069,-0.13009 0.85158,0.06496c0.39089,0.19505 0.64337,0.48221 0.56394,0.64138c-0.07943,0.15917 -0.46069,0.13009 -0.85158,-0.06496c-0.39089,-0.19505 -0.64337,-0.48221 -0.56394,-0.64138z" data-paper-data="{&quot;index&quot;:null}" fill="url(#color-35)"/><path d="M237.34388,183.3213c0.02953,-0.17542 0.40269,-0.25884 0.83348,-0.18632c0.43079,0.07252 0.75607,0.27352 0.72654,0.44894c-0.02953,0.17542 -0.40269,0.25884 -0.83348,0.18632c-0.43079,-0.07252 -0.75607,-0.27352 -0.72654,-0.44894z" data-paper-data="{&quot;index&quot;:null}" fill="url(#color-36)"/><path d="M238.79531,184.1871c-0.36869,-0.0237 -0.65976,-0.16462 -0.6501,-0.31476c0.00965,-0.15014 0.31636,-0.25264 0.68505,-0.22894c0.36869,0.0237 0.65976,0.16462 0.65011,0.31476c-0.00965,0.15014 -0.31636,0.25264 -0.68505,0.22894z" data-paper-data="{&quot;index&quot;:null}" fill="url(#color-37)"/><path d="M237.69017,182.03755c0.14197,-0.0498 0.35619,0.19245 0.47848,0.54108c0.12229,0.34863 0.10634,0.67162 -0.03563,0.72141c-0.14197,0.0498 -0.35619,-0.19245 -0.47848,-0.54108c-0.12229,-0.34863 -0.10634,-0.67162 0.03563,-0.72141z" data-paper-data="{&quot;index&quot;:null}" fill="url(#color-38)"/><path d="M238.16741,182.77776c0.10481,-0.10794 0.40464,0.0132 0.6697,0.27057c0.26506,0.25737 0.39497,0.55351 0.29016,0.66145c-0.10481,0.10794 -0.40464,-0.0132 -0.6697,-0.27057c-0.26506,-0.25737 -0.39497,-0.55351 -0.29016,-0.66145z" data-paper-data="{&quot;index&quot;:null}" fill="url(#color-39)"/><path d="M238.98799,183.001c0.11572,-0.07135 0.33803,0.10023 0.49653,0.38324c0.15851,0.283 0.19319,0.57026 0.07747,0.64161c-0.11572,0.07135 -0.33803,-0.10023 -0.49653,-0.38324c-0.15851,-0.283 -0.19319,-0.57026 -0.07747,-0.64161z" data-paper-data="{&quot;index&quot;:null}" fill="url(#color-40)"/></g><path d="M239.10905,182.51787v-1.60309h1.6846v1.60309z" fill="url(#color-41)" stroke="none" stroke-width="0"/><path d="M239.53473,182.32191l0.42903,-1.82951l0.41328,1.82951z" fill="url(#color-42)" stroke="none" stroke-width="0"/><path d="M236.85824,179.7103c-0.19915,-0.34583 -0.04892,-0.58641 -0.0371,-0.66926c0.02083,-0.14591 0.30651,0.49669 0.66484,0.54784c0.22926,0.03272 0.7961,0.27595 0.98377,0.45217c0.10566,0.0992 -0.02622,0.29724 -0.02622,0.29724c0,0 -0.51904,-0.05955 -0.86855,-0.15367c-0.17257,-0.04647 -0.56515,-0.21107 -0.71675,-0.47433z" fill="url(#color-43)" stroke="none" stroke-width="0"/><path d="M237.11308,180.39558c-0.25432,-0.30754 -0.27336,-0.56991 -0.27558,-0.65357c-0.00394,-0.14734 0.57937,0.48084 0.9412,0.47117c0.23149,-0.00618 0.764,0.096 0.97855,0.23826c0.12078,0.08009 0.024,0.29744 0.024,0.29744c0,0 -0.52169,0.02832 -0.88202,-0.00585c-0.17792,-0.01688 -0.59254,-0.11332 -0.78613,-0.34744z" fill="url(#color-44)" stroke="none" stroke-width="0"/><path d="M238.2367,181.17882c-0.1606,0.0178 -0.54539,0.0087 -0.75984,-0.16293c-0.28172,-0.22547 -0.26176,-0.47753 -0.27913,-0.55119c-0.03059,-0.12971 0.49306,0.30137 0.81158,0.22624c0.2038,-0.04806 0.71718,-0.01457 0.93329,0.07189c0.12166,0.04867 0.07597,0.25888 0.07597,0.25888c0,0 -0.45659,0.12106 -0.78187,0.15709z" fill="url(#color-45)" stroke="none" stroke-width="0"/><path d="M238.73346,181.41137c-0.12109,0.03455 -0.51429,0.12034 -0.72315,0.0381c-0.27437,-0.10803 -0.28938,-0.29811 -0.32072,-0.35142c-0.0552,-0.09388 0.48009,0.16359 0.71065,0.02805c0.14751,-0.08673 0.5219,-0.13468 0.71149,-0.11934c0.10674,0.00863 0.1852,0.18378 0.1852,0.18378c0,0 -0.43649,0.18459 -0.56348,0.22083z" fill="url(#color-46)" stroke="none" stroke-width="0"/><path d="M238.35078,181.74568c-0.26338,-0.06664 -0.2993,-0.23858 -0.33418,-0.28362c-0.06142,-0.07935 0.44881,0.08429 0.64365,-0.06654c0.12466,-0.0965 0.47025,-0.17505 0.6453,-0.18321c0.09855,-0.00459 0.19074,0.14629 0.19074,0.14629c0,0 -0.3773,0.21974 -0.48911,0.26769c-0.10662,0.04573 -0.45592,0.17011 -0.65641,0.11939z" fill="url(#color-47)" stroke="none" stroke-width="0"/><path d="M239.33945,181.80485c-0.10195,0.05539 -0.43825,0.2115 -0.64257,0.17951c-0.2684,-0.04203 -0.32911,-0.20991 -0.36801,-0.25155c-0.06849,-0.07333 0.46453,0.0416 0.6446,-0.12658c0.11521,-0.1076 0.45127,-0.21687 0.62483,-0.24116c0.0977,-0.01368 -0.12261,0.29108 -0.12261,0.29108c0,0 -0.02934,0.09062 -0.13625,0.14869z" fill="url(#color-48)" stroke="none" stroke-width="0"/><path d="M242.40126,180.16981c-0.34951,0.09411 -0.86855,0.15366 -0.86855,0.15366c0,0 -0.13185,-0.19804 -0.02622,-0.29724c0.18766,-0.17621 0.75451,-0.41945 0.98377,-0.45217c0.35832,-0.05114 0.64401,-0.69376 0.66484,-0.54784c0.01182,0.08285 0.16206,0.32343 -0.0371,0.66926c-0.1516,0.26326 -0.54417,0.42787 -0.71675,0.47433z" data-paper-data="{&quot;index&quot;:null}" fill="url(#color-49)" stroke="none" stroke-width="0"/><path d="M242.07704,180.7282c-0.36033,0.03418 -0.88202,0.00585 -0.88202,0.00585c0,0 -0.09679,-0.21734 0.02401,-0.29744c0.21455,-0.14226 0.74705,-0.24443 0.97854,-0.23826c0.36182,0.00966 0.94512,-0.61851 0.9412,-0.47116c-0.00223,0.08365 -0.02128,0.34601 -0.27558,0.65356c-0.19359,0.23412 -0.60822,0.33057 -0.78613,0.34744z" data-paper-data="{&quot;index&quot;:null}" fill="url(#color-50)" stroke="none" stroke-width="0"/><path d="M241.73955,181.16399c-0.32528,-0.03604 -0.78187,-0.15709 -0.78187,-0.15709c0,0 -0.04569,-0.21021 0.07597,-0.25888c0.21611,-0.08646 0.72949,-0.11995 0.93329,-0.07189c0.31852,0.07513 0.84217,-0.35596 0.81158,-0.22626c-0.01737,0.07365 0.00259,0.32572 -0.27913,0.55119c-0.21444,0.17163 -0.59923,0.18073 -0.75984,0.16293z" data-paper-data="{&quot;index&quot;:null}" fill="url(#color-51)" stroke="none" stroke-width="0"/><path d="M241.24279,181.39655c-0.12698,-0.03623 -0.56348,-0.22083 -0.56348,-0.22083c0,0 0.07846,-0.17515 0.1852,-0.18378c0.18959,-0.01534 0.56398,0.03263 0.71149,0.11934c0.23056,0.13554 0.76584,-0.12193 0.71065,-0.02805c-0.03134,0.05331 -0.04633,0.24338 -0.32072,0.35142c-0.20886,0.08223 -0.60206,-0.00355 -0.72315,-0.0381z" data-paper-data="{&quot;index&quot;:null}" fill="url(#color-52)" stroke="none" stroke-width="0"/><path d="M240.96906,181.61148c-0.11181,-0.04795 -0.48911,-0.2677 -0.48911,-0.2677c0,0 0.09219,-0.15089 0.19074,-0.14629c0.17505,0.00816 0.52064,0.08672 0.6453,0.18321c0.19485,0.15083 0.70507,-0.01281 0.64365,0.06654c-0.03487,0.04506 -0.07081,0.217 -0.33419,0.28363c-0.20049,0.05072 -0.54978,-0.07366 -0.6564,-0.11939z" data-paper-data="{&quot;index&quot;:null}" fill="url(#color-53)" stroke="none" stroke-width="0"/><path d="M240.63681,181.79003c-0.1069,-0.05809 -0.13625,-0.1487 -0.13625,-0.1487c0,0 -0.22032,-0.30477 -0.12261,-0.29108c0.17355,0.02429 0.50961,0.13357 0.62483,0.24117c0.18009,0.16818 0.7131,0.05324 0.6446,0.12657c-0.03888,0.04164 -0.09961,0.20952 -0.36801,0.25155c-0.20432,0.03199 -0.54061,-0.12412 -0.64256,-0.1795z" data-paper-data="{&quot;index&quot;:null}" fill="url(#color-54)" stroke="none" stroke-width="0"/><path d="M238.64386,182.79287c0,0 0.08791,-0.20085 0.15898,-0.28562c0.05101,-0.06087 0.20699,-0.05041 0.25002,-0.11495c0.07371,-0.11057 0.05046,-0.1077 0.09555,-0.20744c0.0484,-0.10707 -0.0822,0.01105 -0.02493,-0.15601c0.02433,-0.07094 0.10389,-0.13656 0.16079,-0.22488c0.03656,-0.05676 0.00188,-0.07662 0.0281,-0.14019c0.01761,-0.0427 0.09748,-0.12998 0.11447,-0.16826c0.03813,-0.08591 -0.01142,-0.0949 0.00235,-0.16137c0.02017,-0.09731 0.0932,-0.23493 0.0932,-0.23493l0.34417,0.07245c0,0 -0.04818,0.14496 -0.09324,0.22254c-0.04224,0.07271 -0.08064,0.07525 -0.106,0.16308c-0.03427,0.11869 0.03405,0.20702 -0.00578,0.29435c-0.05871,0.12878 -0.12219,0.02716 -0.14737,0.09961c-0.04163,0.1198 -0.01896,0.28916 -0.01896,0.28916c0,0 -0.1242,-0.03091 -0.18823,0.0175c-0.04173,0.03155 -0.07682,0.19774 -0.15466,0.27383c-0.00609,0.00596 0.10832,0.18587 0.0563,0.2485c-0.03286,0.03957 -0.10359,-0.19871 -0.17062,-0.18372c-0.07994,0.01788 -0.05438,0.29482 -0.07186,0.29523c-0.11284,0.00265 -0.02469,-0.31704 -0.06918,-0.29198c-0.06965,0.03925 -0.15659,0.15636 -0.20051,0.19284c-0.05022,0.04171 -0.05259,0.00027 -0.05259,0.00027z" fill="url(#color-55)" stroke="none" stroke-width="0"/><path d="M241.21925,182.7959c-0.04393,-0.03648 -0.13086,-0.1536 -0.20051,-0.19284c-0.04449,-0.02506 0.04366,0.29463 -0.06918,0.29198c-0.01748,-0.00041 0.00808,-0.27734 -0.07187,-0.29523c-0.06703,-0.015 -0.13775,0.22329 -0.17062,0.18372c-0.05202,-0.06263 0.06238,-0.24254 0.05629,-0.2485c-0.07785,-0.07609 -0.11293,-0.24228 -0.15466,-0.27383c-0.06403,-0.04841 -0.18823,-0.01751 -0.18823,-0.01751c0,0 0.02267,-0.16934 -0.01896,-0.28915c-0.02518,-0.07244 -0.08864,0.02917 -0.14736,-0.09961c-0.03982,-0.08733 0.02849,-0.17566 -0.00578,-0.29435c-0.02537,-0.08784 -0.06376,-0.09037 -0.106,-0.16308c-0.04507,-0.07759 -0.09324,-0.22253 -0.09324,-0.22253l0.34417,-0.07245c0,0 0.07302,0.13764 0.0932,0.23494c0.01378,0.06646 -0.03576,0.07545 0.00235,0.16136c0.01698,0.03828 0.09687,0.12556 0.11447,0.16826c0.02622,0.06357 -0.00848,0.08343 0.02809,0.14019c0.05689,0.08831 0.13647,0.15394 0.16079,0.22488c0.05727,0.16706 -0.07333,0.04894 -0.02493,0.15601c0.04509,0.09975 0.02184,0.09687 0.09555,0.20744c0.04302,0.06454 0.199,0.05409 0.25002,0.11495c0.07107,0.08478 0.15898,0.28562 0.15898,0.28562c0,0 -0.00237,0.04143 -0.05259,-0.00027z" data-paper-data="{&quot;index&quot;:null}" fill="url(#color-56)" stroke="none" stroke-width="0"/><path d="M236.02517,179.10673c-0.26133,-0.36417 -0.03059,-0.58979 -0.00814,-0.67131c0.03953,-0.14359 0.40459,0.52499 0.91306,0.61041c0.32532,0.05465 1.11881,0.35173 1.3751,0.54556c0.1443,0.10912 -0.05738,0.29406 -0.05738,0.29406c0,0 -0.73751,-0.10923 -1.23051,-0.23668c-0.24342,-0.06293 -0.79322,-0.26484 -0.99216,-0.54205z" fill="url(#color-57)" stroke="none" stroke-width="0"/><path d="M235.92509,178.5566c-0.2389,-0.37926 0.00502,-0.59056 0.03235,-0.67058c0.04811,-0.14094 0.37221,0.54842 0.87461,0.66434c0.32144,0.07416 1.09557,0.41853 1.33972,0.62746c0.13746,0.11762 -0.075,0.29007 -0.075,0.29007c0,0 -0.72958,-0.15349 -1.21401,-0.31043c-0.23918,-0.07749 -0.77582,-0.31217 -0.95768,-0.60087z" fill="url(#color-58)" stroke="none" stroke-width="0"/><path d="M235.99444,177.90488c-0.18949,-0.40621 0.07899,-0.58527 0.11613,-0.66124c0.0654,-0.1338 0.30055,0.59075 0.78446,0.7687c0.30961,0.11386 1.03449,0.55252 1.25052,0.79041c0.12163,0.13392 -0.11076,0.27838 -0.11076,0.27838c0,0 -0.7046,-0.24371 -1.16553,-0.46012c-0.22758,-0.10685 -0.73058,-0.40693 -0.87483,-0.71615z" fill="url(#color-59)" stroke="none" stroke-width="0"/><path d="M236.13999,177.41558c-0.15692,-0.41987 0.12483,-0.57723 0.16783,-0.65005c0.07573,-0.12824 0.2531,0.61258 0.72149,0.82808c0.29969,0.13788 0.98777,0.63226 1.18441,0.88642c0.11071,0.14308 -0.13233,0.2688 -0.13233,0.2688c0,0 -0.68322,-0.29843 -1.12569,-0.55046c-0.21846,-0.12444 -0.69627,-0.4632 -0.81572,-0.78281z" fill="url(#color-60)" stroke="none" stroke-width="0"/><path d="M238.02905,178.98606c-0.02259,-0.36519 0.11939,-0.54471 0.16268,-0.56125c0.03373,-0.01289 0.33208,0.06401 0.43018,0.46488c0.08132,0.33233 0.00886,0.91012 0.04543,0.9066c0.145,-0.01395 0.33679,0.04826 0.46378,0.19895c0.07448,0.08838 0.20181,0.23249 0.29816,0.39703c0.15528,0.26519 0.27616,0.58341 0.31101,0.80684c0.0318,0.20384 -0.42958,0.57966 -0.42958,0.57966c0,0 -0.34229,-0.48644 -0.59676,-0.99214c-0.17425,-0.34629 -0.39831,-0.71367 -0.52186,-1.02769c-0.13004,-0.33052 -0.15525,-0.6474 -0.16302,-0.77288z" fill="url(#color-61)" stroke="none" stroke-width="0"/><path d="M243.91981,179.08565c-0.19893,0.27721 -0.74874,0.47912 -0.99216,0.54205c-0.493,0.12745 -1.23051,0.23668 -1.23051,0.23668c0,0 -0.20167,-0.18494 -0.05738,-0.29406c0.2563,-0.19384 1.04978,-0.49091 1.3751,-0.54556c0.50847,-0.08542 0.87353,-0.754 0.91306,-0.61041c0.02245,0.08153 0.25319,0.30715 -0.00814,0.67131z" data-paper-data="{&quot;index&quot;:null}" fill="url(#color-62)" stroke="none" stroke-width="0"/><path d="M244.01989,178.50763c-0.18186,0.2887 -0.7185,0.52338 -0.95768,0.60087c-0.48442,0.15694 -1.21401,0.31043 -1.21401,0.31043c0,0 -0.21245,-0.17245 -0.075,-0.29007c0.24415,-0.20893 1.01828,-0.5533 1.33972,-0.62746c0.5024,-0.11591 0.82649,-0.80528 0.87461,-0.66434c0.02732,0.08003 0.27125,0.29132 0.03235,0.67058z" data-paper-data="{&quot;index&quot;:null}" fill="url(#color-63)" stroke="none" stroke-width="0"/><path d="M243.95054,177.84197c-0.14425,0.30921 -0.64724,0.6093 -0.87483,0.71615c-0.46094,0.21641 -1.16553,0.46012 -1.16553,0.46012c0,0 -0.23239,-0.14446 -0.11076,-0.27838c0.21604,-0.23788 0.94091,-0.67655 1.25052,-0.79041c0.48391,-0.17796 0.71906,-0.90251 0.78446,-0.7687c0.03714,0.07597 0.30562,0.25504 0.11613,0.66124z" data-paper-data="{&quot;index&quot;:null}" fill="url(#color-64)" stroke="none" stroke-width="0"/><path d="M243.80499,177.33872c-0.11945,0.31961 -0.59726,0.65837 -0.81572,0.78281c-0.44247,0.25203 -1.12569,0.55046 -1.12569,0.55046c0,0 -0.24304,-0.12572 -0.13233,-0.2688c0.19664,-0.25416 0.88472,-0.74853 1.18441,-0.88642c0.46839,-0.21551 0.64576,-0.95632 0.72149,-0.82808c0.043,0.07281 0.32475,0.23018 0.16783,0.65005z" data-paper-data="{&quot;index&quot;:null}" fill="url(#color-65)" stroke="none" stroke-width="0"/><path d="M241.8505,179.65421c-0.12354,0.31402 -0.36276,0.71172 -0.53702,1.058c-0.25447,0.5057 -0.63737,1.00365 -0.63737,1.00365c0,0 -0.4335,-0.26429 -0.4017,-0.46813c0.03485,-0.22343 0.18361,-0.69501 0.33889,-0.9602c0.09634,-0.16454 0.22368,-0.30864 0.29816,-0.39703c0.12699,-0.15069 0.31877,-0.2129 0.46378,-0.19895c0.03656,0.00352 -0.0359,-0.57428 0.04543,-0.9066c0.09809,-0.40086 0.39645,-0.47777 0.43018,-0.46488c0.04329,0.01654 0.18527,0.19606 0.16268,0.56125c-0.00776,0.12548 -0.03298,0.44235 -0.16302,0.77288z" data-paper-data="{&quot;index&quot;:null}" fill="url(#color-66)" stroke="none" stroke-width="0"/><path d="M241.29494,176.94661c0,0.74084 -0.61414,1.3414 -1.37172,1.3414c-0.75758,0 -1.37172,-0.60057 -1.37172,-1.3414c0,-0.74084 0.61414,-1.3414 1.37172,-1.3414c0.75758,0 1.37172,0.60057 1.37172,1.3414z" fill="#cecece" stroke="none" stroke-width="0"/><path d="M238.921,177.61621l1.02237,-1.80205l0.98486,1.80205z" fill="url(#color-67)" stroke="none" stroke-width="0"/><path d="M239.39646,177.51924c-0.2231,0.09173 -0.38712,0.07918 -0.36633,-0.02804c0.02079,-0.10721 0.21849,-0.26847 0.4416,-0.3602c0.2231,-0.09173 0.38712,-0.07918 0.36633,0.02802c-0.02079,0.10721 -0.21849,0.26847 -0.4416,0.3602z" fill="url(#color-68)" stroke="none" stroke-width="0"/><path d="M239.79272,176.3736c0.0249,-0.23994 0.11366,-0.37842 0.19823,-0.30933c0.08456,0.06909 0.13293,0.31961 0.10802,0.55954c-0.0249,0.23994 -0.11365,0.37843 -0.19823,0.30933c-0.08456,-0.06909 -0.13293,-0.31961 -0.10802,-0.55954z" fill="url(#color-69)" stroke="none" stroke-width="0"/><path d="M240.60828,177.25666c0.19223,0.14573 0.2646,0.29343 0.16167,0.3299c-0.10293,0.03647 -0.34221,-0.0521 -0.53443,-0.19784c-0.19223,-0.14573 -0.26462,-0.29343 -0.16168,-0.3299c0.10293,-0.03647 0.34222,0.0521 0.53444,0.19784z" fill="url(#color-70)" stroke="none" stroke-width="0"/><path d="M240.10894,179.03892c0,0 0.24743,0.05797 0.35386,-0.06242c0.05799,-0.0656 0.13138,-0.14123 0.21969,-0.21831c0.07524,-0.06567 -0.28304,-0.37319 -0.19381,-0.44681c0.17566,-0.14491 0.37457,-0.29993 0.58157,-0.44428c0.38603,-0.2692 0.7415,-0.32311 0.94949,-0.46816c0.09516,-0.06636 -0.22879,-0.21379 -0.11041,-0.29969c0.28214,-0.20472 1.01054,-0.35521 1.01054,-0.35521l0.23237,0.49148c0,0 -0.51521,0.0421 -0.84358,0.24474c-0.0698,0.04307 0.11349,0.1442 0.10445,0.21683c-0.01306,0.1049 -0.20471,0.18459 -0.27182,0.23139c-0.20438,0.14253 -0.35556,0.10708 -0.72747,0.36644c-0.13008,0.09071 -0.25718,0.18829 -0.37742,0.2865c-0.14998,0.1225 0.01032,0.29328 -0.11075,0.40563c-0.27395,0.25421 -0.54921,0.30953 -0.54921,0.30953z" data-paper-data="{&quot;index&quot;:null}" fill="url(#color-71)" stroke="none" stroke-width="0"/><path d="M240.08074,177.0631c0,0.07883 -0.06589,0.14273 -0.1472,0.14273c-0.08129,0 -0.1472,-0.0639 -0.1472,-0.14273c0,-0.07883 0.0659,-0.14273 0.1472,-0.14273c0.08129,0 0.1472,0.0639 0.1472,0.14273z" fill="url(#color-72)" stroke="none" stroke-width="0"/><path d="M239.31852,179.12566c0,0 -0.10173,0.14714 -0.37568,-0.10707c-0.12107,-0.11235 0.03923,-0.28313 -0.11075,-0.40563c-0.12023,-0.09821 -0.24733,-0.19579 -0.37742,-0.2865c-0.37192,-0.25936 -0.5231,-0.22392 -0.72747,-0.36644c-0.06711,-0.0468 -0.25876,-0.12649 -0.27182,-0.23139c-0.00904,-0.07263 0.17425,-0.17376 0.10445,-0.21683c-0.32837,-0.20264 -0.84358,-0.24474 -0.84358,-0.24474l0.23237,-0.49148c0,0 0.72841,0.15049 1.01054,0.35521c0.11839,0.08591 -0.20557,0.23333 -0.11041,0.29969c0.20799,0.14505 0.56347,0.19895 0.94949,0.46816c0.20699,0.14435 0.40591,0.29937 0.58157,0.44428c0.08923,0.07361 -0.26905,0.38114 -0.19381,0.44681c0.25039,0.21856 0.43858,0.27109 0.43858,0.27109z" fill="url(#color-73)" stroke="none" stroke-width="0"/><path d="M240.62713,180.21741c-0.02127,0.85493 -0.31502,1.54111 -0.6561,1.53263c-0.34109,-0.00848 -0.60035,-0.70842 -0.57908,-1.56335c0.00978,-0.39329 0.12235,-0.53515 0.19291,-0.82555c0.01005,-0.04137 0.08352,-0.18289 0.00456,-0.20369c-0.03662,-0.00965 -0.136,-0.01548 -0.18725,0.00312c-0.09866,0.03581 -0.18801,0.03286 -0.18419,-0.02114c0.0044,-0.06229 0.19612,-0.15572 0.32593,-0.25404c0.07378,-0.05588 0.11192,-0.14091 0.12332,-0.15391c0.08306,-0.09478 0.28543,-0.07979 0.38082,-0.07741c0.29264,0.00728 0.46314,0.56168 0.50982,1.24816c0.00772,0.11362 0.07228,0.19379 0.06926,0.3152z" fill="#cecece" stroke="none" stroke-width="0"/><path d="M240.61789,184.39138c-0.36869,0.0237 -0.6754,-0.0788 -0.68505,-0.22894c-0.00965,-0.15014 0.28141,-0.29106 0.65011,-0.31476c0.36869,-0.0237 0.6754,0.0788 0.68505,0.22894c0.00965,0.15014 -0.28141,0.29106 -0.6501,0.31476z" data-paper-data="{&quot;index&quot;:null}" fill="url(#color-74)" stroke="none" stroke-width="0"/><path d="M239.43842,184.36784c-0.36869,-0.0237 -0.65976,-0.16462 -0.6501,-0.31476c0.00965,-0.15014 0.31636,-0.25264 0.68505,-0.22894c0.36869,0.0237 0.65976,0.16462 0.65011,0.31476c-0.00965,0.15014 -0.31636,0.25264 -0.68505,0.22894z" data-paper-data="{&quot;index&quot;:null}" fill="url(#color-75)" stroke="none" stroke-width="0"/><path d="M239.52013,183.19099c0.11572,-0.07135 0.33803,0.10023 0.49653,0.38324c0.1585,0.283 0.19319,0.57026 0.07747,0.64161c-0.11572,0.07135 -0.33803,-0.10023 -0.49653,-0.38324c-0.1585,-0.283 -0.19319,-0.57026 -0.07747,-0.64161z" data-paper-data="{&quot;index&quot;:null}" fill="url(#color-76)" stroke="none" stroke-width="0"/><path d="M240.38475,183.84689c-0.1585,0.283 -0.38081,0.45458 -0.49653,0.38324c-0.11572,-0.07135 -0.08104,-0.35861 0.07747,-0.64161c0.1585,-0.283 0.38081,-0.45458 0.49653,-0.38324c0.11572,0.07135 0.08104,0.35861 -0.07747,0.64161z" data-paper-data="{&quot;index&quot;:null}" fill="url(#color-77)" stroke="none" stroke-width="0"/></g></g></svg>