<svg version="1.1" xmlns="http://www.w3.org/2000/svg" xmlns:xlink="http://www.w3.org/1999/xlink" width="63.06351" height="50.11155" viewBox="0,0,63.06351,50.11155"><defs><radialGradient cx="223.26389" cy="191.8617" r="14.53672" gradientUnits="userSpaceOnUse" id="color-1"><stop offset="0" stop-color="#2f2f2f"/><stop offset="1" stop-color="#1e1e1e"/></radialGradient><radialGradient cx="256.64841" cy="191.8617" r="14.53672" gradientUnits="userSpaceOnUse" id="color-2"><stop offset="0" stop-color="#2f2f2f"/><stop offset="1" stop-color="#1e1e1e"/></radialGradient></defs><g transform="translate(-208.42439,-157.25037)"><g data-paper-data="{&quot;isPaintingLayer&quot;:true}" fill-rule="nonzero" stroke-linejoin="miter" stroke-miterlimit="10" stroke-dasharray="" stroke-dashoffset="0" style="mix-blend-mode: normal"><path d="" fill="none" stroke="#000000" stroke-width="0.5" stroke-linecap="round"/><path d="" fill="none" stroke="#000000" stroke-width="0.5" stroke-linecap="round"/><path d="" fill="none" stroke="#000000" stroke-width="0.5" stroke-linecap="round"/><path d="" fill="none" stroke="#000000" stroke-width="0.5" stroke-linecap="round"/><path d="" fill="none" stroke="#000000" stroke-width="0.5" stroke-linecap="round"/><path d="" fill="none" stroke="#000000" stroke-width="0.5" stroke-linecap="round"/><path d="" fill="none" stroke="#000000" stroke-width="0.5" stroke-linecap="round"/><path d="" fill="none" stroke="#000000" stroke-width="0.5" stroke-linecap="round"/><path d="" fill="none" stroke="#000000" stroke-width="0.5" stroke-linecap="round"/><path d="M227.93338,157.25037" fill="none" stroke="#000000" stroke-width="0.5" stroke-linecap="round"/><path d="" fill="#65563b" stroke="none" stroke-width="1" stroke-linecap="butt"/><path d="" fill="#65563b" stroke="none" stroke-width="1" stroke-linecap="butt"/><path d="" fill="#65563b" stroke="none" stroke-width="1" stroke-linecap="butt"/><path d="" fill="#65563b" stroke="none" stroke-width="1" stroke-linecap="butt"/><path d="" fill="#50764c" stroke="none" stroke-width="1" stroke-linecap="butt"/><path d="" fill="#35393f" stroke="none" stroke-width="1" stroke-linecap="butt"/><path d="" fill="#50764c" stroke="none" stroke-width="1" stroke-linecap="butt"/><path d="" fill="#50764c" stroke="none" stroke-width="1" stroke-linecap="butt"/><path d="" fill="#50764c" stroke="none" stroke-width="1" stroke-linecap="butt"/><path d="" fill="#50764c" stroke="none" stroke-width="1" stroke-linecap="butt"/><path d="" fill="#50764c" stroke="none" stroke-width="1" stroke-linecap="butt"/><path d="" fill="#50764c" stroke="none" stroke-width="1" stroke-linecap="butt"/><path d="" fill="#c8bc80" stroke="none" stroke-width="1" stroke-linecap="butt"/><path d="" fill="#c8bc80" stroke="none" stroke-width="1" stroke-linecap="butt"/><path d="" fill="#c8bc80" stroke="none" stroke-width="1" stroke-linecap="butt"/><path d="" fill="#50764c" stroke="none" stroke-width="1" stroke-linecap="butt"/><path d="" fill="#50764c" stroke="none" stroke-width="1" stroke-linecap="butt"/><path d="" fill="#50764c" stroke="none" stroke-width="1" stroke-linecap="butt"/><path d="" fill="#50764c" stroke="none" stroke-width="1" stroke-linecap="butt"/><path d="" fill="#c8bc80" stroke="none" stroke-width="1" stroke-linecap="butt"/><g stroke="#000000"><path d="M208.47521,204.99719c-1.47849,-13.91306 29.7961,-17.31125 29.64937,-17.25323l-0.19008,6.57121c-1.71431,2.95866 -5.2019,3.64819 -5.2019,3.64819l-0.10832,-1.14714c-1.32049,0.52215 -4.66545,5.0405 -9.29743,8.77276c-2.93323,2.36347 -8.3211,1.9233 -11.77346,1.18453c-2.05522,-0.43979 -3.07819,-1.77633 -3.07819,-1.77633z" fill="#000000" stroke-width="0" stroke-linecap="butt"/><path d="M221.00047,179.96789c0,0 3.41892,1.46287 9.22526,1.06388c2.61144,-0.17945 3.78644,-0.83724 7.03183,-2.37673c0,0 -0.05157,-1.68845 -0.04424,2.90696c0.00705,4.41866 2.95478,10.26359 -4.42379,12.75574c-3.95528,1.33591 -6.95384,10.64681 -15.0808,11.01326c-8.12697,0.36645 -8.70833,-1.88725 -8.70833,-1.88725c0,0 -1.345,-4.26351 1.93333,-6.7432c2.62219,-2.11885 6.38832,-6.45112 9.1938,-11.4045c1.52739,-3.85788 0.87295,-5.32817 0.87295,-5.32817z" fill="url(#color-1)" stroke-width="0" stroke-linecap="butt"/><path d="M208.8953,199.7604c0.73801,-2.34272 2.92626,-4.43803 4.15527,-5.65867c2.94762,-2.92755 5.78096,-7.0456 6.72464,-8.67889c0.1425,-0.28893 0.93996,-1.44051 1.05001,-3.60375c0.03094,-0.60808 0.20166,-2.36759 0.20166,-2.36759l1.19129,0.8431c0,0 -0.75441,1.10769 -0.79728,1.68057c-0.06801,0.90889 -0.4336,2.38764 -1.3361,3.90868c-1.68648,2.84235 -4.33385,5.93448 -5.38152,7.23257c-0.93655,0.97069 -3.15567,3.10912 -4.3363,4.60805c-0.43351,0.55039 -1.02569,1.73096 -1.22783,2.90912c-0.27508,1.60325 -0.07651,3.20198 -0.07651,3.20198c0,0 -0.72804,-2.29529 -0.16733,-4.07517z" fill="#000000" stroke-width="0" stroke-linecap="butt"/><path d="M229.53137,180.90322c4.95566,-0.53476 8.06748,-2.80409 8.06748,-2.80409c0,0 0.15763,2.32355 -7.77116,3.47393c-8.31977,0.28584 -8.55421,-1.8185 -8.55421,-1.8185c0,0 3.14506,1.09596 8.25789,1.14866z" fill="#000000" stroke-width="0" stroke-linecap="butt"/><path d="M237.54861,178.25011c0,0 0.04072,1.28664 0.03953,1.91821c-0.00267,1.41397 0.22995,2.47473 0.37775,3.71224c0.29557,2.47501 0.31018,5.48145 -0.44412,7.42424c-0.45203,0.88289 -2.21985,2.03182 -2.9222,2.23479c-0.46019,0.13299 -1.71206,0.13368 -1.71206,0.13368c0,0 1.06939,-0.31165 2.1481,-1.01613c1.0281,-0.67142 2.02067,-2.1609 2.168,-2.59187c0.60383,-1.76633 0.39243,-4.0646 0.09651,-6.36287c-0.14812,-1.06077 -0.29557,-2.47502 -0.29324,-3.71224c0.00049,-0.26151 -0.2444,-1.21966 -0.2444,-1.21966z" fill="#000000" stroke-width="0" stroke-linecap="butt"/><path d="M232.11031,192.60737c0,0 0.02455,-2.57853 0.62525,-4.7935c0.16503,-0.60851 0.37354,-1.18958 0.63697,-1.68221c1.22232,-2.28581 3.69571,-3.2532 3.93777,-3.24856c0.36311,0.00698 0.22094,0.3453 -0.02388,0.48315c-0.05538,0.06272 -2.2331,0.92217 -3.36783,2.95487c-1.40133,2.51028 -1.80831,6.28626 -1.80831,6.28626z" fill="#000000" stroke-width="0" stroke-linecap="butt"/><path d="M225.93546,186.59761c0.15346,-0.28326 0.99441,-1.40347 1.18719,-3.56092c0.06187,-0.69242 0.17556,-2.01346 0.17556,-2.01346l0.58386,0.04609c0,0 -0.09653,1.49729 -0.17015,2.14613c-0.10275,0.90562 -0.52468,2.36929 -1.48474,3.85467c-1.79405,2.77571 -3.1769,3.57375 -4.27348,4.83078c-0.97302,0.93412 2.97627,-3.70733 3.98178,-5.30331z" data-paper-data="{&quot;index&quot;:null}" fill="#000000" stroke-width="0" stroke-linecap="butt"/><path d="M219.2923,186.84253l3.94514,3.33023" fill="none" stroke-width="0.5" stroke-linecap="round"/><path d="M225.14841,187.74109l-7.38508,1.589" fill="none" stroke-width="0.5" stroke-linecap="round"/><path d="M225.40338,187.52033l-4.75847,-3.24913" fill="none" stroke-width="0.5" stroke-linecap="round"/><path d="M219.59141,186.45849l7.26632,-1.47433" fill="none" stroke-width="0.5" stroke-linecap="round"/><path d="M227.16006,183.75318l-5.80177,-3.2707" fill="none" stroke-width="0.5" stroke-linecap="round"/><path d="M221.04148,183.37366l6.32535,-2.02298" fill="none" stroke-width="0.5" stroke-linecap="round"/></g><g data-paper-data="{&quot;index&quot;:null}" stroke="#000000"><path d="M271.43709,204.99718c0,0 -1.02297,1.33654 -3.07819,1.77633c-3.45236,0.73877 -8.84023,1.17894 -11.77346,-1.18453c-4.63198,-3.73226 -7.97694,-8.25061 -9.29743,-8.77276l-0.10832,1.14714c0,0 -3.48759,-0.68953 -5.2019,-3.64819l-0.19008,-6.57121c-0.14673,-0.05802 31.12786,3.34017 29.64937,17.25323z" fill="#000000" stroke-width="0" stroke-linecap="butt"/><path d="M259.78477,185.29606c2.80548,4.95338 6.57161,9.28565 9.1938,11.4045c3.27833,2.47969 1.93333,6.7432 1.93333,6.7432c0,0 -0.58136,2.2537 -8.70833,1.88725c-8.12696,-0.36645 -11.12552,-9.67735 -15.0808,-11.01326c-7.37857,-2.49215 -4.43084,-8.33708 -4.42379,-12.75574c0.00733,-4.59541 -0.04424,-2.90696 -0.04424,-2.90696c3.24539,1.53949 4.42039,2.19727 7.03183,2.37672c5.80634,0.39899 9.22525,-1.06387 9.22525,-1.06387c0,0 -0.65443,1.47029 0.87295,5.32817z" fill="url(#color-2)" stroke-width="0" stroke-linecap="butt"/><path d="M270.84966,203.83557c0,0 0.19857,-1.59873 -0.07651,-3.20198c-0.20214,-1.17816 -0.79432,-2.35873 -1.22783,-2.90912c-1.18063,-1.49893 -3.39975,-3.63736 -4.3363,-4.60805c-1.04767,-1.29809 -3.69504,-4.39022 -5.38152,-7.23257c-0.9025,-1.52104 -1.26809,-2.99979 -1.3361,-3.90868c-0.04287,-0.57288 -0.79728,-1.68057 -0.79728,-1.68057l1.19129,-0.8431c0,0 0.17073,1.75951 0.20166,2.36759c0.11005,2.16324 0.90751,3.31482 1.05001,3.60375c0.94368,1.63329 3.77702,5.75134 6.72464,8.67889c1.22901,1.22064 3.41726,3.31595 4.15527,5.65867c0.56071,1.77988 -0.16733,4.07517 -0.16733,4.07517z" fill="#000000" stroke-width="0" stroke-linecap="butt"/><path d="M258.63881,179.75456c0,0 -0.23444,2.10434 -8.55421,1.8185c-7.92879,-1.15038 -7.77116,-3.47393 -7.77116,-3.47393c0,0 3.11182,2.26933 8.06748,2.8041c5.11283,-0.0527 8.25789,-1.14866 8.25789,-1.14866z" fill="#000000" stroke-width="0" stroke-linecap="butt"/><path d="M243.14981,178.77051c0,0 -0.24489,0.95815 -0.24439,1.21965c0.00233,1.23722 -0.14512,2.65147 -0.29324,3.71224c-0.29592,2.29827 -0.50732,4.59654 0.09651,6.36287c0.14733,0.43097 1.1399,1.92045 2.168,2.59187c1.07871,0.70448 2.1481,1.01613 2.1481,1.01613c0,0 -1.25187,-0.00069 -1.71206,-0.13368c-0.70235,-0.20297 -2.47017,-1.3519 -2.9222,-2.23479c-0.7543,-1.94279 -0.73969,-4.94923 -0.44412,-7.42424c0.1478,-1.23751 0.38042,-2.29827 0.37775,-3.71224c-0.00119,-0.63156 0.03953,-1.91821 0.03953,-1.91821z" fill="#000000" stroke-width="0" stroke-linecap="butt"/><path d="M247.802,192.60738c0,0 -0.40699,-3.77598 -1.80831,-6.28626c-1.13473,-2.03269 -3.31245,-2.89214 -3.36783,-2.95487c-0.24482,-0.13784 -0.38699,-0.47617 -0.02388,-0.48315c0.24206,-0.00464 2.71545,0.96275 3.93778,3.24856c0.26343,0.49263 0.47194,1.07369 0.63697,1.6822c0.6007,2.21497 0.62526,4.7935 0.62526,4.7935z" fill="#000000" stroke-width="0" stroke-linecap="butt"/><path d="M253.97682,186.59759c1.00551,1.59598 4.9548,6.23743 3.98178,5.30331c-1.09658,-1.25703 -2.47943,-2.05507 -4.27348,-4.83078c-0.96006,-1.48538 -1.38199,-2.94905 -1.48474,-3.85467c-0.07362,-0.64884 -0.17016,-2.14614 -0.17016,-2.14614l0.58385,-0.04608c0,0 0.11369,1.32104 0.17556,2.01346c0.19278,2.15745 1.03373,3.27766 1.18719,3.56092z" data-paper-data="{&quot;index&quot;:null}" fill="#000000" stroke-width="0" stroke-linecap="butt"/><path d="M256.67485,190.17276l3.94514,-3.33023" fill="none" stroke-width="0.5" stroke-linecap="round"/><path d="M254.76388,187.74108l7.38508,1.589" fill="none" stroke-width="0.5" stroke-linecap="round"/><path d="M259.26738,184.27119l-4.75847,3.24914" fill="none" stroke-width="0.5" stroke-linecap="round"/><path d="M260.32088,186.45848l-7.26632,-1.47433" fill="none" stroke-width="0.5" stroke-linecap="round"/><path d="M252.75223,183.75318l5.80177,-3.2707" fill="none" stroke-width="0.5" stroke-linecap="round"/><path d="M252.54546,181.35067l6.32535,2.02299" fill="none" stroke-width="0.5" stroke-linecap="round"/></g></g></g></svg>