<svg version="1.1" xmlns="http://www.w3.org/2000/svg" xmlns:xlink="http://www.w3.org/1999/xlink" width="63.15122" height="54.72382" viewBox="0,0,63.15122,54.72382"><g transform="translate(-208.42439,-152.63809)"><g data-paper-data="{&quot;isPaintingLayer&quot;:true}" fill-rule="nonzero" stroke-linejoin="miter" stroke-miterlimit="10" stroke-dasharray="" stroke-dashoffset="0" style="mix-blend-mode: normal"><g stroke="#000000"><g><g data-paper-data="{&quot;index&quot;:null}" stroke-width="0" stroke-linecap="butt"><path d="M208.47521,204.99719c-1.47849,-13.91306 29.7961,-17.31125 29.64937,-17.25323l-0.19008,6.57121c-1.71431,2.95866 -5.2019,3.64819 -5.2019,3.64819l-0.10832,-1.14714c-1.32049,0.52215 -4.66545,5.0405 -9.29743,8.77276c-2.93323,2.36347 -8.3211,1.9233 -11.77346,1.18453c-2.05522,-0.43979 -3.07819,-1.77633 -3.07819,-1.77633z" fill="#000000"/><path d="M219.26591,153.12791c0,0 4.33184,2.2845 10.13818,1.88551c2.61144,-0.17945 4.77863,-0.81865 8.02402,-2.35814c0,0 -0.22213,24.31132 -0.2148,28.90673c0.00705,4.41866 2.95478,10.26359 -4.42379,12.75574c-3.95528,1.33591 -6.95384,10.64681 -15.0808,11.01326c-8.12697,0.36645 -8.70833,-1.88725 -8.70833,-1.88725c0,0 -1.345,-4.26351 1.93333,-6.7432c2.62219,-2.11885 6.38832,-6.45112 9.1938,-11.4045c2.80548,-4.95339 -0.86161,-32.16815 -0.86161,-32.16815z" fill="#1a1a1a"/><path d="M208.8953,199.7604c0.73801,-2.34272 2.92626,-4.43803 4.15527,-5.65867c2.94762,-2.92755 5.78096,-7.0456 6.72464,-8.67889c0.1425,-0.28893 0.93996,-1.44051 1.05001,-3.60375c0.13765,-2.70568 0.29558,-4.67477 -0.21368,-10.72255c-0.73766,-8.76003 -1.66289,-18.14756 -1.66289,-18.14756c0,0 0.59158,0.03337 0.76014,1.23638c0.46244,3.30045 0.91602,10.95924 1.47393,16.9495c0.16428,1.76386 0.49495,7.40894 0.23817,10.84031c-0.06801,0.90889 -0.4336,2.38764 -1.3361,3.90868c-1.68648,2.84235 -4.33385,5.93448 -5.38152,7.23257c-0.93655,0.97069 -3.15567,3.10912 -4.3363,4.60805c-0.43351,0.55039 -1.02569,1.73096 -1.22783,2.90912c-0.27508,1.60325 -0.07651,3.20198 -0.07651,3.20198c0,0 -0.72804,-2.29529 -0.16733,-4.07517z" fill="#000000"/><path d="M227.63391,154.3388c4.76105,0.04907 9.86763,-1.68508 9.86763,-1.68508c0,0 0.01167,2.17759 -9.57131,2.64683c-8.31977,0.28584 -8.89517,-2.40233 -8.89517,-2.40233c0,0 3.48602,1.38788 8.59885,1.44058z" fill="#000000"/><path d="M237.70665,162.14019c-0.00367,1.94421 -0.00768,4.06517 -0.01234,6.53962c-0.00466,2.47445 -0.05158,4.9489 -0.05659,7.60009c-0.00266,1.41397 -0.04725,2.6512 -0.04958,3.88842c-0.00267,1.41397 0.22995,2.47473 0.37775,3.71224c0.29557,2.47501 0.31018,5.48145 -0.44412,7.42424c-0.45203,0.88289 -2.21985,2.03182 -2.9222,2.23479c-0.46019,0.13299 -1.71206,0.13368 -1.71206,0.13368c0,0 1.06939,-0.31165 2.1481,-1.01613c1.0281,-0.67142 2.02067,-2.1609 2.168,-2.59187c0.60383,-1.76633 0.39243,-4.0646 0.09651,-6.36287c-0.14812,-1.06077 -0.29557,-2.47502 -0.29324,-3.71224c0.00233,-1.23722 0.12488,-8.97153 0.12954,-11.44597c0.15446,-2.29742 0.11091,-15.60315 0.11091,-15.60315l0.38716,-0.2982c0,0 0.0795,5.60894 0.07216,9.49736z" fill="#000000"/><path d="M230.74234,193.2709c0,0 -0.02495,-3.19761 0.67227,-5.95683c0.19155,-0.75803 0.43759,-1.48297 0.75364,-2.09943c1.46644,-2.86041 4.51238,-4.11299 4.81261,-4.11244c0.45037,0.00085 0.28136,0.42339 -0.01923,0.59956c-0.06732,0.07896 -2.74898,1.19136 -4.11225,3.73605c-1.68356,3.14257 -2.10706,7.8331 -2.10706,7.8331z" fill="#000000"/></g><path d="M225.93546,186.59761c0.15346,-0.28326 0.99441,-1.40347 1.18719,-3.56092c0.24112,-2.69843 0.47431,-4.66003 0.19693,-10.72287c0.02679,-8.87709 0.26431,-17.12078 0.26431,-17.12078l0.62932,0.03724c0,0 -0.27156,10.61265 -0.32433,17.14369c0.09664,1.76885 0.21098,7.42246 -0.17697,10.84148c-0.10275,0.90562 -0.52468,2.36929 -1.48474,3.85467c-1.79405,2.77571 -3.1769,3.57375 -4.27348,4.83078c-0.97302,0.93412 2.97627,-3.70733 3.98178,-5.30331z" data-paper-data="{&quot;index&quot;:null}" fill="#000000" stroke-width="0" stroke-linecap="butt"/><path d="M219.62075,186.17653l4.28571,3.47619" fill="none" stroke-width="0.5" stroke-linecap="round"/><path d="M225.52551,187.367l-7.19047,0.7619" fill="none" stroke-width="0.5" stroke-linecap="round"/><path d="M226.31566,185.92992l-5.29365,-3.00587" fill="none" stroke-width="0.5" stroke-linecap="round"/><path d="M220.50369,185.01404l6.82844,-1.91221" fill="none" stroke-width="0.5" stroke-linecap="round"/><path d="M227.35467,182.14764l-6.14234,-3.02744" fill="none" stroke-width="0.5" stroke-linecap="round"/><path d="M221.23609,181.76812l6.374,-2.3149" fill="none" stroke-width="0.5" stroke-linecap="round"/><path d="M227.77769,177.71165l-6.5246,-2.49977" fill="none" stroke-width="0.5" stroke-linecap="round"/><path d="M227.65477,175.10978l-6.47506,2.27502" fill="none" stroke-width="0.5" stroke-linecap="round"/><path d="M227.56128,173.55643l-6.6725,-2.27012" fill="none" stroke-width="0.5" stroke-linecap="round"/><path d="M221.14357,173.90498l6.40886,-2.8927" fill="none" stroke-width="0.5" stroke-linecap="round"/><path d="M227.41842,168.985l-6.81535,-2.65108" fill="none" stroke-width="0.5" stroke-linecap="round"/><path d="M227.69528,166.63132l-6.7422,2.46413" fill="none" stroke-width="0.5" stroke-linecap="round"/><path d="M227.70413,164.79453l-7.52964,-2.98441" fill="none" stroke-width="0.5" stroke-linecap="round"/><path d="M220.57213,164.66688c0,0 2.23743,-0.92008 3.40878,-1.40177c1.24603,-0.51239 3.85723,-1.58617 3.85723,-1.58617" fill="none" stroke-width="0.5" stroke-linecap="round"/><path d="M219.79354,157.71488l7.76774,3.03203" fill="none" stroke-width="0.5" stroke-linecap="round"/><path d="M227.93338,157.25037c0,0 -3.18263,1.50236 -4.42865,2.01475c-1.17135,0.48169 -3.40878,1.40177 -3.40878,1.40177" fill="none" stroke-width="0.5" stroke-linecap="round"/></g><g data-paper-data="{&quot;index&quot;:null}"><g data-paper-data="{&quot;index&quot;:null}" stroke-width="0" stroke-linecap="butt"><path d="M271.5248,204.99243c0,0 -1.02297,1.33654 -3.07819,1.77633c-3.45236,0.73877 -8.84023,1.17894 -11.77346,-1.18453c-4.63198,-3.73226 -7.97694,-8.25061 -9.29743,-8.77276l-0.10832,1.14714c0,0 -3.48759,-0.68953 -5.2019,-3.64819l-0.19008,-6.57121c-0.14673,-0.05802 31.12786,3.34017 29.64937,17.25323z" fill="#000000"/><path d="M259.87248,185.29131c2.80548,4.95338 6.57161,9.28565 9.1938,11.4045c3.27833,2.47969 1.93333,6.7432 1.93333,6.7432c0,0 -0.58136,2.2537 -8.70833,1.88725c-8.12696,-0.36645 -11.12552,-9.67735 -15.0808,-11.01326c-7.37857,-2.49215 -4.43084,-8.33708 -4.42379,-12.75574c0.00733,-4.59541 -0.2148,-28.90673 -0.2148,-28.90673c3.24539,1.53949 5.41259,2.1787 8.02402,2.35815c5.80634,0.39899 10.13818,-1.88552 10.13818,-1.88552c0,0 -3.66709,27.21476 -0.86161,32.16815z" fill="#1a1a1a"/><path d="M270.93737,203.83082c0,0 0.19856,-1.59874 -0.07651,-3.20198c-0.20214,-1.17815 -0.79431,-2.35873 -1.22783,-2.90912c-1.18063,-1.49893 -3.39975,-3.63737 -4.3363,-4.60805c-1.04766,-1.29809 -3.69504,-4.39022 -5.38152,-7.23257c-0.9025,-1.52104 -1.26809,-2.99979 -1.3361,-3.90868c-0.25678,-3.43137 0.07389,-9.07645 0.23817,-10.84031c0.55791,-5.99026 1.01149,-13.64905 1.47393,-16.9495c0.16856,-1.203 0.76014,-1.23638 0.76014,-1.23638c0,0 -0.92523,9.38753 -1.66289,18.14756c-0.50926,6.04778 -0.35133,8.01687 -0.21368,10.72255c0.11005,2.16324 0.90751,3.31482 1.05001,3.60375c0.94368,1.63329 3.77702,5.75134 6.72464,8.67889c1.22901,1.22064 3.41726,3.31595 4.15527,5.65867c0.56071,1.77988 -0.16733,4.07517 -0.16733,4.07517z" fill="#000000"/><path d="M260.96494,152.89347c0,0 -0.5754,2.68817 -8.89517,2.40233c-9.58298,-0.46923 -9.57131,-2.64682 -9.57131,-2.64682c0,0 5.10658,1.73415 9.86763,1.68508c5.11283,-0.0527 8.59885,-1.44058 8.59885,-1.44058z" fill="#000000"/><path d="M242.36552,152.63809l0.38716,0.2982c0,0 -0.04354,13.30573 0.11091,15.60315c0.00466,2.47445 0.12721,10.20875 0.12954,11.44597c0.00233,1.23722 -0.14512,2.65147 -0.29324,3.71224c-0.29591,2.29827 -0.50731,4.59654 0.09652,6.36287c0.14733,0.43097 1.1399,1.92045 2.168,2.59187c1.07871,0.70448 2.1481,1.01613 2.1481,1.01613c0,0 -1.25187,-0.00069 -1.71206,-0.13368c-0.70235,-0.20297 -2.47017,-1.3519 -2.9222,-2.23478c-0.75429,-1.9428 -0.73969,-4.94924 -0.44412,-7.42425c0.1478,-1.23751 0.38042,-2.29827 0.37775,-3.71224c-0.00233,-1.23722 -0.04692,-2.47445 -0.04958,-3.88842c-0.00501,-2.65119 -0.05193,-5.12564 -0.0566,-7.60009c-0.00466,-2.47445 -0.00867,-4.59541 -0.01234,-6.53962c-0.00734,-3.88842 0.07217,-9.49735 0.07217,-9.49735z" fill="#000000"/><path d="M249.25768,193.26616c0,0 -0.4235,-4.69052 -2.10706,-7.83309c-1.36327,-2.5447 -4.04493,-3.65709 -4.11225,-3.73605c-0.30058,-0.17618 -0.4696,-0.59871 -0.01923,-0.59956c0.30024,-0.00056 3.34618,1.25203 4.81262,4.11244c0.31605,0.61646 0.56209,1.3414 0.75364,2.09943c0.69722,2.75923 0.67227,5.95683 0.67227,5.95683z" fill="#000000"/></g><path d="M258.04632,191.89617c-1.09659,-1.25703 -2.47943,-2.05507 -4.27348,-4.83078c-0.96006,-1.48538 -1.38199,-2.94905 -1.48474,-3.85467c-0.38795,-3.41903 -0.27361,-9.07263 -0.17697,-10.84149c-0.05277,-6.53104 -0.32433,-17.14369 -0.32433,-17.14369l0.62932,-0.03724c0,0 0.23752,8.24369 0.26431,17.12077c-0.27738,6.06284 -0.04419,8.02444 0.19693,10.72287c0.19278,2.15744 1.03373,3.27765 1.18719,3.56092c1.00551,1.59597 4.9548,6.23743 3.98178,5.3033z" data-paper-data="{&quot;index&quot;:null}" fill="#000000" stroke-width="0" stroke-linecap="butt"/><path d="M256.09354,189.64797l4.28571,-3.47619" fill="none" stroke-width="0.5" stroke-linecap="round"/><path d="M261.66496,188.12417l-7.19047,-0.76191" fill="none" stroke-width="0.5" stroke-linecap="round"/><path d="M258.978,182.9193l-5.29365,3.00587" fill="none" stroke-width="0.5" stroke-linecap="round"/><path d="M259.49631,185.0093l-6.82844,-1.91221" fill="none" stroke-width="0.5" stroke-linecap="round"/><path d="M252.64534,182.1429l6.14234,-3.02744" fill="none" stroke-width="0.5" stroke-linecap="round"/><path d="M252.38991,179.44848l6.374,2.3149" fill="none" stroke-width="0.5" stroke-linecap="round"/><path d="M258.74691,175.20714l-6.5246,2.49977" fill="none" stroke-width="0.5" stroke-linecap="round"/><path d="M258.82029,177.38006l-6.47506,-2.27503" fill="none" stroke-width="0.5" stroke-linecap="round"/><path d="M259.11123,171.28156l-6.6725,2.27012" fill="none" stroke-width="0.5" stroke-linecap="round"/><path d="M252.44758,171.00753c0,0 0.80425,0.36301 1.42237,0.642c1.15735,0.52238 4.98649,2.2507 4.98649,2.2507" fill="none" stroke-width="0.5" stroke-linecap="round"/><path d="M259.39694,166.32918l-6.81535,2.65108" fill="none" stroke-width="0.5" stroke-linecap="round"/><path d="M259.04692,169.09071l-6.7422,-2.46413" fill="none" stroke-width="0.5" stroke-linecap="round"/><path d="M259.82551,161.80537l-7.52964,2.98441" fill="none" stroke-width="0.5" stroke-linecap="round"/><path d="M252.16186,161.6742c0,0 2.6112,1.07378 3.85723,1.58617c1.17135,0.48169 3.40878,1.40177 3.40878,1.40177" fill="none" stroke-width="0.5" stroke-linecap="round"/><path d="M260.20647,157.71013l-7.76774,3.03203" fill="none" stroke-width="0.5" stroke-linecap="round"/><path d="M259.90406,160.66214c0,0 -2.23743,-0.92007 -3.40878,-1.40177c-1.24603,-0.5124 -4.42865,-2.01475 -4.42865,-2.01475" fill="none" stroke-width="0.5" stroke-linecap="round"/></g></g><path d="" fill="#65563b" stroke="none" stroke-width="1" stroke-linecap="butt"/><path d="" fill="#65563b" stroke="none" stroke-width="1" stroke-linecap="butt"/><path d="" fill="#65563b" stroke="none" stroke-width="1" stroke-linecap="butt"/><path d="" fill="#65563b" stroke="none" stroke-width="1" stroke-linecap="butt"/><path d="" fill="#50764c" stroke="none" stroke-width="1" stroke-linecap="butt"/><path d="" fill="#35393f" stroke="none" stroke-width="1" stroke-linecap="butt"/><path d="" fill="#50764c" stroke="none" stroke-width="1" stroke-linecap="butt"/><path d="" fill="#50764c" stroke="none" stroke-width="1" stroke-linecap="butt"/><path d="" fill="#50764c" stroke="none" stroke-width="1" stroke-linecap="butt"/><path d="" fill="#50764c" stroke="none" stroke-width="1" stroke-linecap="butt"/><path d="" fill="#50764c" stroke="none" stroke-width="1" stroke-linecap="butt"/><path d="" fill="#50764c" stroke="none" stroke-width="1" stroke-linecap="butt"/><path d="" fill="#c8bc80" stroke="none" stroke-width="1" stroke-linecap="butt"/><path d="" fill="#c8bc80" stroke="none" stroke-width="1" stroke-linecap="butt"/><path d="" fill="#c8bc80" stroke="none" stroke-width="1" stroke-linecap="butt"/><path d="" fill="#50764c" stroke="none" stroke-width="1" stroke-linecap="butt"/><path d="" fill="#50764c" stroke="none" stroke-width="1" stroke-linecap="butt"/><path d="" fill="#50764c" stroke="none" stroke-width="1" stroke-linecap="butt"/><path d="" fill="#50764c" stroke="none" stroke-width="1" stroke-linecap="butt"/><path d="" fill="#c8bc80" stroke="none" stroke-width="1" stroke-linecap="butt"/></g></g></svg>