<svg version="1.1" xmlns="http://www.w3.org/2000/svg" xmlns:xlink="http://www.w3.org/1999/xlink" width="94.16809" height="118.35839" viewBox="0,0,94.16809,118.35839"><g transform="translate(-192.84074,-120.4092)"><g data-paper-data="{&quot;isPaintingLayer&quot;:true}" fill-rule="nonzero" stroke-linejoin="miter" stroke-miterlimit="10" stroke-dasharray="" stroke-dashoffset="0" style="mix-blend-mode: normal"><path d="" fill="#65563b" stroke="none" stroke-width="1" stroke-linecap="butt"/><path d="" fill="#65563b" stroke="none" stroke-width="1" stroke-linecap="butt"/><path d="" fill="#65563b" stroke="none" stroke-width="1" stroke-linecap="butt"/><path d="" fill="#65563b" stroke="none" stroke-width="1" stroke-linecap="butt"/><path d="" fill="#50764c" stroke="none" stroke-width="1" stroke-linecap="butt"/><path d="" fill="#35393f" stroke="none" stroke-width="1" stroke-linecap="butt"/><path d="" fill="#50764c" stroke="none" stroke-width="1" stroke-linecap="butt"/><path d="" fill="#50764c" stroke="none" stroke-width="1" stroke-linecap="butt"/><path d="" fill="#50764c" stroke="none" stroke-width="1" stroke-linecap="butt"/><path d="" fill="#50764c" stroke="none" stroke-width="1" stroke-linecap="butt"/><path d="" fill="#50764c" stroke="none" stroke-width="1" stroke-linecap="butt"/><path d="" fill="#50764c" stroke="none" stroke-width="1" stroke-linecap="butt"/><path d="" fill="#c8bc80" stroke="none" stroke-width="1" stroke-linecap="butt"/><path d="" fill="#c8bc80" stroke="none" stroke-width="1" stroke-linecap="butt"/><path d="" fill="#c8bc80" stroke="none" stroke-width="1" stroke-linecap="butt"/><path d="" fill="#50764c" stroke="none" stroke-width="1" stroke-linecap="butt"/><path d="" fill="#50764c" stroke="none" stroke-width="1" stroke-linecap="butt"/><path d="" fill="#50764c" stroke="none" stroke-width="1" stroke-linecap="butt"/><path d="" fill="#50764c" stroke="none" stroke-width="1" stroke-linecap="butt"/><path d="" fill="#c8bc80" stroke="none" stroke-width="1" stroke-linecap="butt"/><g><path d="M213.2654,195.23848c0,0 -0.27875,-6.65448 -0.63737,-10.20303c-0.41063,-4.06313 -1.69156,-12.84168 -1.69156,-12.84168c0,0 0.49821,3.71075 0.44291,8.44937c-0.04038,3.46008 -0.42842,7.67192 -0.52891,10.9273c-0.35716,11.57062 -1.84861,43.29751 -1.84861,43.29751c0,0 0.02674,1.13502 -1.22293,1.2291c-2.11435,0.15918 -10.03732,0.22768 -12.55222,0.15318c-0.5054,-0.01497 -0.98692,-1.13561 -0.98692,-1.13561c0,0 -0.70478,-26.24936 -0.98675,-43.63969c-0.13938,-8.59581 0.03446,-14.92224 0.03502,-15.05077c0.00263,-0.60126 0.64761,-13.69289 2.61315,-23.54696c1.64764,-8.26027 4.60862,-13.43344 5.16273,-14.93613c0.54594,-1.48052 1.45289,-2.23978 1.45289,-2.23978l22.11273,-8.97373l4.41406,-5.12345c0,0 3.14588,9.32764 4.92995,13.59482c1.28182,3.0659 4.775,9.51018 4.775,9.51018c0,0 4.30094,-7.12491 6.51198,-11.221c1.84702,-3.42173 5.6984,-11.8059 5.6984,-11.8059l4.44202,5.18249c0,0 15.99497,6.22089 19.76915,7.94197c0.78557,0.35823 2.09787,0.8282 2.85939,1.61837c0.65685,0.68156 1.00546,1.56068 1.21787,2.33633c0.41117,1.50145 3.95822,8.02249 4.98671,16.45903c0.32415,2.65897 0.91855,5.34076 1.27111,8.16976c0.75851,6.08631 1.22237,12.44167 1.27332,17.81437c0.05257,5.54319 -0.84109,43.55895 -1.13755,52.87637c-0.04179,1.31328 -0.52024,2.20718 -0.52024,2.20718l-13.4363,-0.19075c0,0 -0.76656,-0.54365 -0.77611,-0.87984c-0.01379,-0.48555 -0.64192,-12.15996 -1.01141,-25.3012c-0.12618,-4.48752 -0.27943,-10.70168 -0.62166,-16.44565c-0.28758,-4.8267 -0.77539,-9.27686 -0.83526,-12.52978c-0.1515,-8.23225 0.67742,-9.4141 0.67742,-9.4141c0,0 -0.85858,5.9328 -1.90306,12.90613c-0.30174,2.01452 -0.81056,11.97338 -0.83648,20.71076c-0.01609,5.42411 0.34018,10.58701 0.48282,12.45087c0.8125,10.61716 1.67337,19.39992 1.67337,19.39992c0,0 -0.14994,0.84378 -0.49684,0.86248c-3.00988,0.16225 -18.22286,0.41529 -26.41173,0.38277c-7.11321,-0.02824 -24.41792,-0.24732 -29.31494,-0.37474c-0.86788,-0.02258 -0.99154,-0.68396 -0.99154,-0.68396c0,0 0.39584,-3.49328 0.77593,-8.07426c0.47468,-5.72091 0.97664,-13.06049 1.25011,-16.51457c0.39922,-5.04227 -0.07967,-17.35366 -0.07967,-17.35366z" data-paper-data="{&quot;index&quot;:null}" fill="#9c8856" stroke="#000000" stroke-width="0" stroke-linecap="butt"/><path d="M209.85932,155.82624c0,0 -2.0705,-7.50413 -3.60155,-9.85125c-0.7832,-1.20066 -2.55154,-3.65068 -3.8414,-4.75257c-1.54085,-1.31629 -2.41816,-0.67396 -2.41816,-0.67396c0,0 0.63425,-2.01918 1.53672,-3.50486c0.52295,-0.86091 1.13597,-1.32743 1.76782,-1.67712c4.07605,-2.25583 20.95472,-8.24395 20.95472,-8.24395c0,0 -4.62959,6.0082 -7.04619,9.85512c-1.52461,2.42698 -4.66078,7.28997 -6.17946,11.17133c-1.53564,3.92469 -1.17249,7.67726 -1.17249,7.67726z" fill="#b6a57c" stroke="#000000" stroke-width="0" stroke-linecap="round"/><g stroke="none" stroke-width="1" stroke-linecap="butt"><path d="" fill="#67633d"/><path d="" fill="#67633d"/><path d="" fill="#67633d"/><path d="" fill="#67633d"/><path d="" fill="#c8bc80"/><path d="" fill="#805336"/><path d="" fill="#55372c"/><path d="" fill="#c8bc80"/><path d="" fill="#55372c"/><path d="" fill="#55372c"/><path d="" fill="#805336"/><path d="" fill="#d3ccbc"/><path d="" fill="#67633d"/><path d="" fill="#67633d"/><path d="" fill="#67633d"/><path d="" fill="#c8bc80"/><path d="" fill="#c8bc80"/><path d="" fill="#c8bc80"/><path d="" fill="#805336"/><path d="" fill="#d3ccbc"/><path d="" fill="#d3ccbc"/><path d="M201.26019,238.76759c0,0 -0.36497,-0.21151 0,0z" fill="#67633d"/></g><path d="M238.92893,145.14569c-0.01196,2.10622 1.13785,33.03507 1.05444,53.59929c-0.08341,20.56422 -0.11631,38.76021 -0.1103,39.18032" data-paper-data="{&quot;index&quot;:null}" fill="none" stroke="#000000" stroke-width="0.5" stroke-linecap="round"/><path d="M210.48175,168.88871c0,0 0.83882,4.4541 0.93786,9.83195c0.09429,5.11992 -0.54617,11.0771 -0.72664,14.8252c-0.20327,4.22165 -1.36835,34.62738 -1.62246,41.27224c-0.03144,0.82221 -0.68883,1.29373 -1.35028,1.30727c-1.79313,0.03671 -10.12048,0.2072 -12.66259,0.25925c-0.46713,0.00957 -0.7561,-0.54763 -0.78642,-1.56413c-0.25499,-8.54934 -1.43839,-49.19531 -1.12942,-57.07779c0.14247,-3.63484 0.99361,-15.85796 2.77602,-24.77355c1.92955,-9.65157 5.59996,-16.11186 6.16636,-16.79723c1.34336,-1.62553 22.58074,-9.39177 22.58074,-9.39177c0,0 -14.0669,17.43635 -14.58037,25.37403c-0.50225,7.7643 -0.64964,10.96539 0.21269,15.74787c1.54899,8.59073 2.54879,18.23709 2.86749,25.72707c0.32741,7.69466 0.48993,8.7339 0.11884,17.82831c-0.37108,9.09441 -1.36192,20.56964 -1.82101,24.18263c-0.08333,0.6558 -0.6253,2.27156 0.68891,2.33615c6.209,0.30516 27.69069,0.2945 27.69414,0.32876" fill="none" stroke="#000000" stroke-width="0.5" stroke-linecap="round"/><path d="M247.56479,156.78268l-0.01534,-2.66009l21.35855,-0.01224l-0.01214,2.80947z" data-paper-data="{&quot;index&quot;:null}" fill="#9c8856" stroke="#000000" stroke-width="0.5" stroke-linecap="butt"/><path d="M211.83959,156.87831l-0.01214,-2.80947l21.35855,0.01224l-0.01534,2.66009z" data-paper-data="{&quot;index&quot;:null}" fill="#9c8856" stroke="#000000" stroke-width="0.5" stroke-linecap="butt"/><path d="M219.45721,154.03143l0.01014,-6.40404l6.26936,-0.02753l0.02849,6.40404z" data-paper-data="{&quot;index&quot;:null}" fill="#9c8856" stroke="#000000" stroke-width="0.5" stroke-linecap="butt"/><path d="M209.76672,157.35402c0,0 -0.03556,-1.97191 -0.44934,-3.50973c-0.80584,-2.9949 -2.39968,-6.80002 -3.42993,-8.39766c-1.10567,-1.7146 -2.82616,-3.89707 -4.35079,-4.75892c-0.7141,-0.40367 -1.67735,-0.18555 -1.67735,-0.18555" fill="none" stroke="#000000" stroke-width="0.5" stroke-linecap="round"/><path d="M229.02452,121.02957c0.41224,0.03326 0.82864,1.22722 1.00827,1.74518c1.00944,2.91071 1.83421,7.16969 2.84787,9.55055c0.78575,1.84555 3.98124,4.47165 4.99608,6.50602c1.16823,2.34186 0.98875,6.47487 0.98875,6.47487c0,0 -1.02655,-3.28927 -3.22497,-4.19966c-3.67609,-1.52231 -17.53106,-1.65974 -17.73161,-2.68195c-0.12381,-0.63108 0.51061,-5.32478 2.96842,-9.09627c2.62542,-4.02868 7.61503,-8.34167 8.14719,-8.29874z" data-paper-data="{&quot;index&quot;:null}" fill="#9c8856" stroke="#000000" stroke-width="0.5" stroke-linecap="round"/><path d="M268.86883,148.14898c-1.51869,-3.88136 -4.65485,-8.74435 -6.17946,-11.17133c-2.4166,-3.84691 -7.04619,-9.85512 -7.04619,-9.85512c0,0 16.87866,5.98813 20.95472,8.24396c0.63185,0.34969 1.24487,0.81621 1.76782,1.67712c0.90247,1.48568 1.53672,3.50486 1.53672,3.50486c0,0 -0.87731,-0.64234 -2.41816,0.67396c-1.28986,1.10189 -3.05821,3.55191 -3.8414,4.75257c-1.53105,2.34713 -3.60154,9.85125 -3.60154,9.85125c0,0 0.36315,-3.75258 -1.1725,-7.67726z" data-paper-data="{&quot;index&quot;:null}" fill="#b6a57c" stroke="#000000" stroke-width="0" stroke-linecap="round"/><path d="M240.05503,238.30497c0.00345,-0.03426 21.48513,-0.0236 27.69413,-0.32876c1.31421,-0.06459 0.77224,-1.68035 0.68891,-2.33615c-0.4591,-3.61299 -1.44993,-15.08821 -1.82102,-24.18262c-0.37108,-9.09441 -0.20856,-10.13365 0.11885,-17.82831c0.3187,-7.48998 1.3185,-17.13634 2.86749,-25.72707c0.86233,-4.78248 0.71494,-7.98357 0.21269,-15.74787c-0.51347,-7.93768 -14.58037,-25.37403 -14.58037,-25.37403c0,0 21.23738,7.76624 22.58074,9.39177c0.56639,0.68537 4.23681,7.14566 6.16636,16.79723c1.78242,8.91559 2.63355,21.13871 2.77602,24.77355c0.30897,7.88248 -0.87443,48.52845 -1.12942,57.07779c-0.03032,1.0165 -0.3193,1.5737 -0.78642,1.56413c-2.54211,-0.05204 -10.86946,-0.22254 -12.66259,-0.25925c-0.66145,-0.01354 -1.31883,-0.48506 -1.35028,-1.30727c-0.25411,-6.64487 -1.41918,-37.05059 -1.62246,-41.27224c-0.18047,-3.7481 -0.82093,-9.70527 -0.72663,-14.8252c0.09904,-5.37785 0.93786,-9.83195 0.93786,-9.83195" data-paper-data="{&quot;index&quot;:null}" fill="none" stroke="#000000" stroke-width="0.5" stroke-linecap="round"/><path d="M270.13392,157.35402c0,0 0.03556,-1.97191 0.44934,-3.50973c0.80584,-2.9949 2.39968,-6.80002 3.42993,-8.39766c1.10567,-1.7146 2.82617,-3.89707 4.35079,-4.75892c0.71411,-0.40367 1.67735,-0.18555 1.67735,-0.18555" data-paper-data="{&quot;index&quot;:null}" fill="none" stroke="#000000" stroke-width="0.5" stroke-linecap="round"/><path d="M259.0868,128.95793c2.45781,3.77149 3.09223,8.4652 2.96843,9.09627c-0.20055,1.02221 -14.27057,1.15964 -17.94666,2.68195c-2.19842,0.91039 -5.18584,4.30719 -5.18584,4.30719c0,0 -0.094,-3.27939 1.17948,-5.85578c1.11881,-2.26348 3.51087,-3.31111 4.37532,-4.65158c2.58258,-4.00473 4.86548,-10.43511 5.45383,-12.13161c0.17963,-0.51796 0.59603,-1.71192 1.00826,-1.74518c0.53216,-0.04293 5.52176,4.27005 8.14718,8.29873z" data-paper-data="{&quot;index&quot;:null}" fill="#9c8856" stroke="#000000" stroke-width="0.5" stroke-linecap="round"/><path d="M261.90523,136.27601c0,0 0.39257,1.1865 0.346,2.02303c-0.02122,0.38115 -0.60191,0.73008 -0.61362,0.78975c-0.03271,0.16674 0.08145,-0.66352 -0.57446,-0.54082c-3.36511,0.62946 -13.5705,0.82633 -16.64695,2.10032c-2.19842,0.91039 -5.4009,4.14864 -5.4009,4.14864c0,0 -0.33284,-1.50873 1.5019,-3.31004c1.48146,-1.45447 2.84516,-2.42417 5.72228,-3.36545c2.04898,-0.67034 15.66575,-1.84543 15.66575,-1.84543z" data-paper-data="{&quot;index&quot;:null}" fill="#b6a57c" stroke="#000000" stroke-width="0.5" stroke-linecap="round"/><path d="M213.46114,198.09972c0,0 0.45014,-0.7727 1.61874,-0.78819c3.96092,-0.05249 13.66244,0.75087 23.60884,0.86186c0.3936,0.00439 0.92603,0.21603 1.31915,0.21816c0.30113,0.00163 0.74091,-0.20565 1.04142,-0.20515c10.96368,0.01844 21.41174,-0.69151 23.75046,-0.68059c0.94297,0.0044 1.53083,0.84113 1.53083,0.84113" fill="none" stroke="#000000" stroke-width="0.5" stroke-linecap="round"/></g></g></g></svg>