<svg version="1.1" xmlns="http://www.w3.org/2000/svg" xmlns:xlink="http://www.w3.org/1999/xlink" width="91.97005" height="117.5691" viewBox="0,0,91.97005,117.5691"><g transform="translate(-194.10836,-121.60108)"><g data-paper-data="{&quot;isPaintingLayer&quot;:true}" fill-rule="nonzero" stroke-linejoin="miter" stroke-miterlimit="10" stroke-dasharray="" stroke-dashoffset="0" style="mix-blend-mode: normal"><path d="M268.43928,237.99216c0,0 -21.70246,0.72676 -30.07632,0.76c-9.13267,0.03626 -26.85699,-0.41918 -26.85699,-0.41918c0,0 1.15778,-9.1947 1.97028,-19.81186c0.37241,-4.86625 0.90918,-10.01558 0.80802,-14.68519c-0.00652,-0.30117 -0.53797,0.22378 -0.54466,-0.07451c-0.05355,-2.38844 0.10689,-4.90013 0.02933,-6.9924c-0.02191,-0.591 0.54898,0.24 0.51371,-0.3547c-0.73794,-12.44271 -3.49998,-24.84984 -3.49998,-24.84984l-2.99437,58.28741c0,0 0.50482,-0.3665 0.54917,0.3059c0.09001,1.36472 -0.26575,7.4015 -0.26575,7.4015l-13.55499,-0.34713l0.39034,-7.16086l0.27403,-57.37801c0,0 0.63746,-10.80723 1.80593,-17.23988c0.96242,-5.29828 4.70744,-18.61727 4.70744,-18.61727l23.08243,-9.13594l4.44202,-5.18249c0,0 3.85138,8.38417 5.6984,11.8059c2.21104,4.09609 6.67327,11.11348 6.67327,11.11348c0,0 3.38565,-6.33676 4.66747,-9.40266c1.78407,-4.26718 5.03748,-13.80987 5.03748,-13.80987l3.7689,4.69334l23.47039,9.86161c0,0 2.79227,9.83972 3.84051,15.37108c1.19955,6.32975 2.71129,20.53621 2.71129,20.53621c0,0 0.21792,49.25185 0.22791,56.49854c0.00238,1.72637 0.60442,7.93146 0.60442,7.93146l-13.73922,0.4188c0,0 -0.26211,-4.30361 -0.32302,-7.74401c-0.00815,-0.4599 0.50293,-0.38876 0.48181,-0.82674c-0.49292,-10.22395 -2.77453,-57.54846 -2.77453,-57.54846c0,0 -1.75307,9.12262 -2.40801,13.51134c-0.59313,3.97455 -1.35461,11.70184 -1.35461,11.70184c0,0 0.48976,-0.31819 0.52178,0.11332c0.13386,1.80413 0.03973,6.7429 0.03973,6.7429l-0.56231,0.13596l2.63871,34.3904z" data-paper-data="{&quot;index&quot;:null}" fill="#091647" stroke="#000000" stroke-width="0" stroke-linecap="butt"/><path d="M241.35301,238.78223c0.00601,-0.42011 0.17259,-38.16323 0.18765,-39.00203c0.18692,-10.41376 1.01176,-50.37915 0.9998,-52.48537" data-paper-data="{&quot;index&quot;:null}" fill="none" stroke="#061031" stroke-width="0.5" stroke-linecap="round"/><path d="M249.40758,179.93996v-22.24304h16.95152v22.2348z" data-paper-data="{&quot;index&quot;:null}" fill="none" stroke="#061031" stroke-width="0.5" stroke-linecap="butt"/><path d="M266.28171,164.81696l-16.80875,0.07315" data-paper-data="{&quot;index&quot;:null}" fill="none" stroke="#061031" stroke-width="0.5" stroke-linecap="round"/><path d="M247.96071,218.76227v-22.24304h18.34946c0,0 0.12156,4.19277 0.18416,7.02708c0.00651,0.29488 -0.59774,-0.07055 -0.58549,0.28854c0.05513,1.61543 0.15626,3.91807 0.37124,6.23231c0.4016,4.32318 0.58745,8.68687 0.58745,8.68687z" data-paper-data="{&quot;index&quot;:null}" fill="none" stroke="#061031" stroke-width="0.5" stroke-linecap="butt"/><path d="M265.81888,203.64449c-2.57552,0.00984 -17.78368,0.06792 -17.78368,0.06792" data-paper-data="{&quot;index&quot;:null}" fill="none" stroke="#061031" stroke-width="0.5" stroke-linecap="round"/><path d="M266.66083,218.90314l1.9493,19.33797l-32.00668,0.67907" data-paper-data="{&quot;index&quot;:null}" fill="none" stroke="#061031" stroke-width="0.5" stroke-linecap="round"/><path d="M236.58038,238.81973c0.00601,-0.42012 0.17258,-38.11532 0.18764,-38.95413c0.15183,-8.45855 0.89124,-52.24809 0.89124,-52.24809c0,0 4.76533,0.35252 4.76308,-0.04293" data-paper-data="{&quot;index&quot;:null}" fill="none" stroke="#061031" stroke-width="0.5" stroke-linecap="round"/><path d="M265.78604,196.50067c1.15577,-11.45613 4.68727,-31.64588 6.34022,-39.36391c1.88333,-8.79371 5.72692,-17.92654 6.32972,-20.32053c0.00395,-0.01567 1.07343,2.15752 3.81411,14.0089c3.13498,13.55648 2.82927,31.08083 2.82927,31.08083c0,0 0.33143,41.26213 0.09383,46.93876c-0.00164,0.03929 0.23943,0.05227 0.23943,0.05227l0.38417,8.25788l-13.725,0.32215l-0.27698,-8.11145l0.51962,-0.02611c0,0 -2.32028,-45.12248 -2.65934,-51.78393c-0.24771,-4.86677 0.06237,-7.80514 0.06237,-7.80514" data-paper-data="{&quot;index&quot;:null}" fill="none" stroke="#061031" stroke-width="0.5" stroke-linecap="round"/><path d="M255.75316,127.64762l22.56388,9.05355" data-paper-data="{&quot;index&quot;:null}" fill="#c9cce9" stroke="#061031" stroke-width="0.5" stroke-linecap="round"/><path d="M229.92391,138.79511l-12.02684,0.6149c0,0 3.48005,-6.63317 5.35483,-9.50613c1.84637,-2.82944 5.98734,-7.66221 5.98734,-7.66221l0.94397,19.75209c0,0 5.25743,1.4792 7.45252,2.47828c1.68556,0.76717 4.2265,2.28769 4.82283,2.59117c0.11148,0.05674 -0.08454,-0.24285 -0.08454,-0.24285c0,0 -4.4909,-6.9597 -6.54393,-10.83749c-2.32538,-4.39221 -6.54468,-13.81095 -6.54468,-13.81095" data-paper-data="{&quot;index&quot;:null}" fill="none" stroke="#061031" stroke-width="0.5" stroke-linecap="round"/><path d="M251.28385,122.41289c0,0 -3.16255,9.27468 -4.58945,12.62613c-1.69027,3.97006 -5.1052,10.48089 -5.1052,10.48089c0,0 0.02598,0.3176 0.32197,0.39315c0.7902,0.20171 2.78791,-0.07131 4.98633,-0.9817c3.67609,-1.52231 3.57858,-2.8985 3.57858,-2.8985l0.84675,-19.67291c0,0 4.08181,4.71449 5.92818,7.54393c1.87477,2.87296 5.35484,9.50613 5.35484,9.50613l-11.93486,-0.63329" data-paper-data="{&quot;index&quot;:null}" fill="none" stroke="#061031" stroke-width="0.5" stroke-linecap="round"/><path d="M271.93726,229.40944l13.4898,-0.44132" data-paper-data="{&quot;index&quot;:null}" fill="none" stroke="#061031" stroke-width="0.5" stroke-linecap="round"/><path d="M213.85657,180.18172v-22.2348h16.95152v22.24304z" data-paper-data="{&quot;index&quot;:null}" fill="none" stroke="#061031" stroke-width="0.5" stroke-linecap="butt"/><path d="M213.93396,165.06696l16.80875,0.07315" data-paper-data="{&quot;index&quot;:null}" fill="none" stroke="#061031" stroke-width="0.5" stroke-linecap="round"/><path d="M213.34814,219.00403c0,0 0.18585,-4.36369 0.58745,-8.68687c0.21498,-2.31424 0.31611,-4.61688 0.37124,-6.23231c0.01225,-0.35909 -0.592,0.00634 -0.58549,-0.28854c0.0626,-2.83431 0.18416,-7.02708 0.18416,-7.02708h18.34946v22.24304z" data-paper-data="{&quot;index&quot;:null}" fill="none" stroke="#061031" stroke-width="0.5" stroke-linecap="butt"/><path d="M232.18047,203.96241c0,0 -15.20816,-0.05808 -17.78368,-0.06792" data-paper-data="{&quot;index&quot;:null}" fill="none" stroke="#061031" stroke-width="0.5" stroke-linecap="round"/><path d="M236.58125,238.88464c-5.77192,-0.12246 -24.97571,-0.48444 -24.97571,-0.48444l1.9493,-19.33797" data-paper-data="{&quot;index&quot;:null}" fill="none" stroke="#061031" stroke-width="0.5" stroke-linecap="round"/><path d="M201.89863,137.02615l22.71383,-9.20351" data-paper-data="{&quot;index&quot;:null}" fill="#c9cce9" stroke="#061031" stroke-width="0.5" stroke-linecap="round"/><path d="M210.44931,170.01375c0,0 0.31008,2.93837 0.06237,7.80514c-0.33906,6.66145 -2.65935,51.78393 -2.65935,51.78393l0.51963,0.02611l-0.27698,8.11146l-13.725,-0.32216l0.38416,-8.25788c0,0 0.24107,-0.01298 0.23943,-0.05227c-0.2376,-5.67663 0.09383,-46.93876 0.09383,-46.93876c0,0 -0.30571,-17.52435 2.82927,-31.08083c2.74068,-11.85138 3.81016,-14.02457 3.81411,-14.0089c0.6028,2.39399 4.44639,11.52682 6.32972,20.32053c1.65295,7.71803 5.18445,27.90778 6.34022,39.36391" data-paper-data="{&quot;index&quot;:null}" fill="none" stroke="#061031" stroke-width="0.5" stroke-linecap="round"/><path d="M194.75971,229.20044l13.4898,0.44133" data-paper-data="{&quot;index&quot;:null}" fill="none" stroke="#061031" stroke-width="0.5" stroke-linecap="round"/></g></g></svg>