<svg version="1.1" xmlns="http://www.w3.org/2000/svg" xmlns:xlink="http://www.w3.org/1999/xlink" width="92.75383" height="117.98204" viewBox="0,0,92.75383,117.98204"><g transform="translate(-193.62718,-120.78553)"><g data-paper-data="{&quot;isPaintingLayer&quot;:true}" fill-rule="nonzero" stroke-linejoin="miter" stroke-miterlimit="10" stroke-dasharray="" stroke-dashoffset="0" style="mix-blend-mode: normal"><path d="" fill="#65563b" stroke="none" stroke-width="1" stroke-linecap="butt"/><path d="" fill="#65563b" stroke="none" stroke-width="1" stroke-linecap="butt"/><path d="" fill="#65563b" stroke="none" stroke-width="1" stroke-linecap="butt"/><path d="" fill="#65563b" stroke="none" stroke-width="1" stroke-linecap="butt"/><path d="" fill="#50764c" stroke="none" stroke-width="1" stroke-linecap="butt"/><path d="" fill="#35393f" stroke="none" stroke-width="1" stroke-linecap="butt"/><path d="" fill="#50764c" stroke="none" stroke-width="1" stroke-linecap="butt"/><path d="" fill="#50764c" stroke="none" stroke-width="1" stroke-linecap="butt"/><path d="" fill="#50764c" stroke="none" stroke-width="1" stroke-linecap="butt"/><path d="" fill="#50764c" stroke="none" stroke-width="1" stroke-linecap="butt"/><path d="" fill="#50764c" stroke="none" stroke-width="1" stroke-linecap="butt"/><path d="" fill="#50764c" stroke="none" stroke-width="1" stroke-linecap="butt"/><path d="" fill="#c8bc80" stroke="none" stroke-width="1" stroke-linecap="butt"/><path d="" fill="#c8bc80" stroke="none" stroke-width="1" stroke-linecap="butt"/><path d="" fill="#c8bc80" stroke="none" stroke-width="1" stroke-linecap="butt"/><path d="" fill="#50764c" stroke="none" stroke-width="1" stroke-linecap="butt"/><path d="" fill="#50764c" stroke="none" stroke-width="1" stroke-linecap="butt"/><path d="" fill="#50764c" stroke="none" stroke-width="1" stroke-linecap="butt"/><path d="" fill="#50764c" stroke="none" stroke-width="1" stroke-linecap="butt"/><path d="" fill="#c8bc80" stroke="none" stroke-width="1" stroke-linecap="butt"/><g><path d="M214.37731,202.78621l-0.0008,-6.99218c0,0 -0.76148,-7.72729 -1.35461,-11.70184c-0.65494,-4.38872 -2.08543,-11.89844 -2.08543,-11.89844c0,0 -2.33179,45.21699 -2.82471,55.44094c-0.02112,0.43798 0.52564,-0.44473 0.51749,0.01517c-0.06091,3.4404 -0.09035,8.144 -0.09035,8.144l-13.88243,0.15407c0,0 0.20808,-6.31262 0.21045,-8.03899c0.00041,-0.3 0.32373,0.24667 0.32476,-0.18243c0.00894,-3.7334 -0.28229,-13.05861 -0.24328,-22.51959c0.01507,-3.65405 -0.54202,-7.41179 -0.52667,-11.02752c0.01767,-4.1628 -0.03708,-8.66252 0.1416,-12.07399c0.0642,-1.22566 0.32984,-1.8535 0.33447,-2.9164c0.00365,-0.83848 0.07289,-1.38222 0.07603,-2.10005c0.00192,-0.43879 -0.80783,-0.13736 -0.80613,-0.52594c0.00484,-1.10527 0.81974,-10.20318 1.92974,-17.49373c0.08951,-0.58788 1.45054,-7.707 1.49005,-7.91552c0.72329,-3.81663 2.26131,-9.91741 3.47646,-13.21273c0.54594,-1.48052 1.45289,-2.23978 1.45289,-2.23978l22.11273,-8.97373l4.41406,-5.12345c0,0 3.14588,9.32764 4.92995,13.59482c1.28182,3.0659 4.775,9.51018 4.775,9.51018c0,0 4.30094,-7.12491 6.51198,-11.221c1.84702,-3.42173 5.6984,-11.8059 5.6984,-11.8059l4.44202,5.18249c0,0 15.99497,6.22089 19.76915,7.94197c0.78557,0.35823 2.09787,0.8282 2.85939,1.61837c0.65685,0.68156 1.00546,1.56068 1.21787,2.33633c1.14776,4.19118 3.25583,12.07105 3.94345,15.85654c1.00247,5.51877 2.68431,18.65679 2.82624,22.12055c0.0235,0.57358 -1.07586,0.34156 -1.07586,0.34156c0,0 0.0299,-1.84721 0.17643,2.16106c0.16062,4.39385 0.49453,9.67189 0.48992,15.05477c-0.00377,4.4053 -0.62183,7.88157 -0.63397,10.88937c-0.03347,8.29262 -0.2028,22.6617 -0.2028,22.6617c0,0 0.36034,0.00408 0.38686,0.44445c0.07671,1.27391 0.11459,7.88307 0.11459,7.88307l-13.77721,-0.15287l-0.04353,-8.12372l0.43806,0.08299l-2.77215,-56.45408c0,0 -2.42242,13.36092 -3.45977,22.91997c-0.5287,4.87195 0.33822,18.28153 0.71063,23.14778c0.8125,10.61716 1.82489,19.81659 1.82489,19.81659c0,0 -17.2456,0.56182 -26.37827,0.52556c-8.37386,-0.03324 -30.1718,-0.61678 -30.1718,-0.61678c0,0 1.3484,-14.61891 1.84086,-20.83883c0.39922,-5.04227 0.89332,-13.69479 0.89332,-13.69479z" data-paper-data="{&quot;index&quot;:null}" fill="#9c8856" stroke="#000000" stroke-width="0" stroke-linecap="butt"/><path d="M197.67204,174.96512c2.59879,-0.44902 5.33088,-1.37022 7.9516,-0.49355c1.3563,0.45587 2.52483,0.8245 3.98214,0.8162c0.29652,-0.00221 0.59348,-0.00701 0.89056,-0.01051c0.38723,-0.00457 0.29722,6.81951 -0.1374,6.80566c-0.57177,-0.01968 -9.92402,-0.84472 -10.81726,-0.66805c-1.29806,0.25592 -2.83457,-0.11517 -4.15653,-0.09901c-1.28952,0.01959 0.64424,-6.05712 2.2869,-6.35074z" fill="#67633d" stroke="none" stroke-width="1" stroke-linecap="butt"/><g stroke="none" stroke-width="1" stroke-linecap="butt"><path d="" fill="#67633d"/><path d="M267.96466,165.50203c-0.12431,-0.34141 -0.44076,-0.57536 -0.8036,-0.59408c-0.35579,-0.02052 -0.70902,-0.07294 -1.05544,-0.15664c-0.89044,-0.21772 -1.67132,-0.66729 -2.43929,-1.15132c-0.57211,-0.35878 -1.21997,-0.68043 -1.45883,-1.36145c-0.13616,-0.38508 -0.14865,-0.78309 -0.2487,-1.17432c-0.13859,-0.48595 -0.40749,-0.92472 -0.77756,-1.26881c-0.24494,-0.24467 -0.48384,-0.30651 -0.76771,-0.46307c-0.12082,-0.0652 -0.28582,-0.16034 -0.31429,-0.30669c-0.08158,-0.43908 0.30203,-0.69525 0.64237,-0.90516c0.82819,-0.51118 1.96554,-1.44526 1.0539,-2.46096c-0.82864,-0.92717 -2.76871,-1.60452 -1.56164,-3.06907c0.58201,-0.70058 1.20929,-0.97116 2.10081,-1.13257c0.84594,-0.14942 1.93976,-0.12661 2.70611,-0.55321c0.38795,-0.2124 0.49621,-0.55094 0.5998,-0.9599c0.05816,-0.22933 0.37316,-0.48656 0.54099,-0.62768c0.50544,-0.41959 1.26107,-0.32024 1.863,-0.32761c1.78555,-0.01423 3.57169,-0.03227 5.35841,-0.05413c-0.42918,0.89113 0.45619,1.47278 1.3957,1.49558c0.51133,-0.01217 1.01778,-0.10253 1.50176,-0.26794c0.08853,-0.0303 0.17964,-0.05808 0.27332,-0.08336l0.15195,-0.03806c0.23566,0.42005 0.13174,0.64612 -0.30414,0.67813c-0.29018,0.10643 -0.59804,0.16926 -0.8823,0.29275c-0.82812,0.36067 -1.5681,0.9184 -2.28538,1.46251c-0.41531,0.3118 -1.54708,0.92385 -1.47608,1.58787c0.04505,0.28417 0.12922,0.56076 0.2501,0.82185c0.19484,0.51009 -0.29078,0.67987 -0.64623,0.90141c-0.31387,0.19435 -0.50546,0.41769 -0.45699,0.79812c0.01846,0.07132 0.07365,0.12732 0.14468,0.14683c0.9901,0.26604 1.76778,-0.16832 2.56869,-0.7287c0.94447,-0.6612 1.85285,-1.31243 2.83465,-1.88073c-0.49008,1.67488 0.41683,3.54983 0.41709,5.28348c-0.00125,1.14308 -0.37776,2.29075 -0.51235,3.43546c-0.03581,0.47378 -0.02104,0.95002 0.04406,1.42067c0.08349,1.06203 -1.28814,0.75494 -1.89734,0.63476c-1.03317,-0.20454 -1.99712,-0.82524 -2.99759,-1.15973c-0.68672,-0.22783 -1.59015,0.20616 -2.17115,0.52189c-0.55287,0.30245 -1.02874,0.72806 -1.39075,1.24391z" fill="#67633d"/><path d="" fill="#67633d"/><path d="" fill="#67633d"/><path d="" fill="#67633d"/><path d="" fill="#c8bc80"/><path d="" fill="#805336"/><path d="" fill="#55372c"/><path d="M281.0954,196.39084c-0.91804,0.32939 -2.72115,0.88107 -3.34289,-0.26391c-0.74837,-1.37395 0.2867,-2.88213 1.35655,-3.72775c0.75116,-0.56797 1.55459,-1.06325 2.39949,-1.47915c0.34834,-0.17953 0.70004,-0.24099 1.05633,-0.39394c0.69555,-0.29618 0.80724,-0.82146 0.88849,-1.49876c0.09802,-0.65799 0.04153,-1.32977 -0.16499,-1.96215c-0.14271,-0.41579 -0.22626,-0.84958 -0.24819,-1.28863c-0.04429,-0.97297 -0.2432,-1.97072 -0.18651,-2.94302c0.05598,-0.79786 0.4282,-1.54033 1.03401,-2.06255c0.4262,-0.35576 0.55629,-1.02238 1.1646,-0.97458c0.58909,0.04817 0.51274,11.13551 0.56786,16.76644c0.00892,0.9112 -4.23231,-0.27703 -4.52474,-0.172z" fill="#805336"/><path d="" fill="#c8bc80"/><path d="" fill="#55372c"/><path d="" fill="#55372c"/><path d="" fill="#805336"/><path d="" fill="#d3ccbc"/><path d="M284.00942,218.90404c-1.10068,-0.42852 -3.38648,-1.17974 -4.30586,-0.02543c-0.3415,0.42711 -0.29395,0.88757 -0.04236,1.36458c-0.6088,0.06842 -1.21718,0.17111 -1.80486,0.2526c-1.38456,0.19221 -6.33877,0.51209 -6.33877,0.51209c0,0 -0.93421,-11.19648 -0.2561,-11.20477c1.12003,-0.0137 2.01754,0.00199 3.03207,0.55158c1.09031,0.61275 2.3058,0.96923 3.55436,1.04243v0c0.44672,0.23077 1.04262,0.19871 1.56982,0.15606c0.65438,0.07582 1.30688,0.15357 1.96651,0.19122c-0.57891,0.33095 -1.0227,0.80695 -1.04685,1.47974c-0.05983,1.49434 2.2529,1.64321 3.25864,1.63091c0.20878,-0.00142 0.41727,-0.01542 0.62436,-0.04193c-0.04704,0.07389 -0.05784,0.16519 -0.02935,0.24802c-0.12913,0.03397 -0.25253,0.06977 -0.36633,0.11117c-0.53093,0.20463 -1.07003,0.51985 -1.3207,1.05253c-0.17935,0.40195 -0.46578,0.74685 -0.82795,0.99697c-0.1965,0.13225 -0.33668,0.33297 -0.39318,0.56301c-0.02891,0.11462 0.02051,0.23467 0.12174,0.2957c0.76871,0.54498 1.674,0.10716 2.32036,-0.47228c0.25173,-0.23074 0.54679,-0.40918 0.86802,-0.525c0.19533,-0.07288 0.3743,0.54029 0.41937,0.6426c0.16234,0.36299 0.51883,1.76731 -1.00294,1.1782z" fill="#67633d"/><path d="M250.99697,121.23249l4.59037,5.70198c0,0 11.24959,4.39856 15.33072,6.09322c2.71294,1.12652 6.77454,3.08579 6.77454,3.08579l1.32221,2.26333c0,0 -2.47658,1.0283 -3.52487,1.97577c-1.75056,1.57599 -3.64003,2.85457 -6.12504,2.17056c-1.43187,-0.40351 -2.67022,-1.34091 -4.09588,-1.70449c-1.2001,-0.30156 -2.80392,-0.43435 -4.0012,-0.03867c-1.256,0.42306 -2.24634,0.76095 -3.59114,0.77741c-0.98098,0.012 -2.21435,0.26142 -3.08095,-0.34332c-0.1076,-0.07489 -0.21147,-0.15554 -0.3135,-0.24192c0.24421,-0.59357 -2.35175,-2.03385 -2.55546,-1.92528c-1.14345,-0.35665 -2.38195,-0.24205 -3.44054,0.31834c-2.08106,1.18948 -5.22955,2.18576 -7.67088,2.26896c-0.30365,0.01078 -0.68677,1.13427 -1.08024,1.77238c-0.4943,0.80164 -0.97326,1.15381 -0.97326,1.15381c0,0 -2.41899,-4.40959 -4.01198,-5.23856c-0.94911,-0.49705 -1.91748,-1.01102 -2.94563,-1.27277c-0.47416,-0.12727 -0.96308,-0.19111 -1.45402,-0.18987c-1.38081,0.04296 -2.74686,0.29741 -4.05055,0.75445c-2.57134,0.82399 -5.08397,1.93111 -7.80782,2.12447c-1.60462,0.11299 -3.18099,0.04463 -4.75815,0.37828c-1.28689,0.26201 -2.59691,0.39356 -3.9102,0.39267c-0.45906,0.00562 -0.92398,-0.00013 -1.39463,-0.0077c-1.47671,-0.02003 -2.97847,-0.06453 -4.4263,0.09607c-0.79526,0.08784 -1.94009,0.41048 -0.89503,1.27594c0.4831,0.40178 -1.01454,2.09661 -2.86305,3.14036c-1.3471,0.76328 1.07394,1.97961 1.7055,2.05951c0.91838,0.13098 1.84883,0.1554 2.77282,0.07276c1.10556,-0.10688 2.11116,-0.28683 3.23501,-0.30058c1.23433,-0.0151 2.4747,-0.00361 3.70957,-0.12921c2.54398,-0.25784 5.01642,-0.60052 7.58257,-0.60335c4.13402,-0.00485 9.03083,0.20575 11.84215,3.73582c0.48856,0.58031 1.0407,1.10395 1.64607,1.5611c0.43174,0.31408 0.77224,0.73727 0.98661,1.22625c0.43132,0.99681 0.42356,2.23141 1.08792,3.1225c0.79221,1.06479 2.0288,1.54498 2.86024,2.54643c0.03483,0.04403 0.06775,0.08744 0.09875,0.13024c0.21798,0.43102 0.37552,0.89002 0.4682,1.36404c0.01176,0.02653 0.01206,0.05129 0.01239,0.07796c0.01933,0.17884 0.03286,0.35014 0.0352,0.54062c-0.00766,0.1678 -0.02726,0.33484 -0.05866,0.49986c-0.15672,0.10126 -0.32052,0.19114 -0.49014,0.2689c-0.29859,0.1251 -1.11063,2.09588 -2.45752,2.59205c-1.56864,0.57786 -3.67898,-0.34324 -3.7045,-0.75294c-0.04851,-0.64188 -3.66733,-8.4496 -4.14396,-8.63428c-0.52348,-0.22642 -0.98882,-0.56855 -1.36106,-1.00068c-0.06023,-0.14807 -0.15762,-0.27812 -0.28277,-0.37756c-0.24436,-0.19705 -0.66618,0.05006 -0.47194,0.35441c0.06407,0.09828 0.13383,0.19459 0.20546,0.28706c0.0559,0.20888 -0.10739,0.40901 -0.02068,0.64608c0.18601,0.50415 0.40264,0.99647 0.64863,1.47424c0.3221,0.63427 1.02678,0.92856 1.52592,1.39492c-0.20998,-0.03933 -0.42336,-0.05777 -0.63698,-0.05507c-0.17604,0.00002 -0.319,0.14223 -0.31997,0.31826c0.00475,0.07615 0.01332,0.15415 0.02382,0.23404c-0.02762,-0.02045 -0.05649,-0.03919 -0.08642,-0.05609c-0.20437,-0.10453 -0.39743,-0.22985 -0.57611,-0.37397c-0.57561,-0.48828 -1.09634,-1.00772 -1.69637,-1.46904c-0.94231,-0.72003 -1.63399,-1.66413 -2.53477,-2.41514c-0.6498,-0.50614 -1.34462,-0.95168 -2.07571,-1.33104c-0.56017,-0.31701 -1.08341,-0.72974 -1.6584,-1.01228c-1.3052,-0.63939 -2.62831,-0.56224 -4.01813,-0.48807c-1.38982,0.07416 -2.78457,0.05693 -4.17509,0.07394c-1.5296,0.01681 -3.02799,0.24852 -4.55106,0.33193c-0.45571,0.02475 -2.81933,0.31734 -4.30776,0.01855c-1.913,-0.38402 -2.99141,-1.37826 -3.18217,-1.29342c-0.19134,0.08807 0.37685,-2.41401 0.77974,-3.42865c0.13703,-0.33966 0.23558,-0.69362 0.29381,-1.05522c0.13943,-0.90473 0.93563,-3.09583 1.23661,-3.25382c0.26876,-0.14427 0.51389,-0.50733 0.72273,-0.72135c0.24273,-0.24683 0.77156,-0.31236 1.07781,-0.50661c0.18471,-0.15837 0.33251,-0.35525 0.43302,-0.57683c0.28161,-0.49496 0.30024,-1.15245 0.30682,-1.70502c0.00877,-0.84026 -0.0206,-1.68387 -0.03088,-2.52389c0.00151,-0.23101 0.02355,-0.46144 0.06587,-0.68855l0.0161,-0.08593c1.54673,-0.32946 3.06351,-0.92717 4.64447,-1.10464c0.69234,-0.10081 1.399,0.00799 2.02896,0.31237c0.56744,0.28835 1.04353,0.73975 1.61847,1.01848c0.93521,0.4515 2.26745,0.18563 3.28843,0.17313c1.02098,-0.01249 1.92827,-0.44272 2.8297,-0.8843c0.54153,-0.2843 1.1142,-0.50484 1.70656,-0.65719c0.9176,-0.20936 1.44136,0.40149 2.10633,0.87535c1.70475,1.21937 3.97576,1.54021 5.99209,0.9764c2.14734,-0.59971 4.22601,-3.85127 5.91245,-5.21881c-0.00313,0.09185 6.09543,12.88538 6.09543,12.88538c0,0 3.39435,-4.91139 6.1312,-10.19486c3.18056,-6.14002 6.06009,-13.0554 6.06009,-13.0554z" fill="#67633d"/><path d="" fill="#67633d"/><path d="" fill="#67633d"/><path d="M234.28608,168.76795c-0.25256,-0.08835 -0.51477,-0.18803 -0.77713,-0.29912c0.12752,-0.32162 -0.10814,-0.74167 -0.30151,-0.97553c-0.13099,-0.1291 -0.27404,-0.24537 -0.42718,-0.34722c-0.5615,-0.42559 0.12398,-0.45494 0.51663,-0.43878c0.57198,0.04087 1.14672,0.01851 1.71378,-0.0667c0.47523,-0.08583 0.84582,-0.47139 1.24306,-0.70295c0.46908,-0.27627 1.29464,-0.37971 1.83997,-0.49688c0.12885,-0.02566 0.25574,-0.06031 0.37975,-0.10371c0.12503,0.7205 0.16426,1.43635 -0.06358,2.12116c-0.57883,1.73883 -2.61806,1.83236 -4.12378,1.30974z" fill="#67633d"/><path d="M211.73709,175.67266c0.50988,0.0112 0.93284,0.08424 1.4391,0.15292c0.65264,0.08917 1.57537,0.14266 2.15108,0.48425c0.62947,0.37523 1.23438,0.7679 1.8472,1.18333c0.61281,0.41543 1.22008,0.84428 1.84792,1.24238c0.56254,0.35509 1.1864,0.58369 1.75076,0.93114c0.9732,0.59773 1.6491,1.4982 2.54161,2.19597c0.96371,0.75597 2.04152,1.33908 3.05758,2.0144c1.11205,0.7351 1.79971,1.6621 2.71794,2.59389c0.97271,0.9497 2.06732,1.76594 3.25505,2.42729c0.78483,0.46096 1.57889,1.05326 2.4001,1.52901c0.36733,0.21708 0.75193,0.40354 1.14989,0.55746c0.72728,0.27306 1.24901,0.56197 2.06446,0.56723c0.5719,-0.00439 1.14179,0.06809 1.69438,0.21551c1.24061,0.34298 2.35341,0.98281 3.57552,1.37175c1.18391,0.37988 2.43913,0.51502 3.60843,0.94651c1.34727,0.49599 2.50211,1.30296 3.95283,1.53478c1.31137,0.20876 2.88255,0.32098 4.11559,-0.26563c1.96421,-0.93086 -0.34982,-3.05532 -1.63686,-3.30058c-1.0267,-0.17695 -1.97647,-0.6585 -2.72598,-1.38214c-0.97863,-0.88533 -2.14195,-1.76269 -2.99438,-2.76578c-0.94333,-1.11438 -1.70909,-2.19664 -2.98702,-2.94304c-0.8961,-0.52437 -1.78233,-1.02029 -2.65578,-1.56208c-0.29186,-0.18694 -0.57801,-0.37395 -0.86798,-0.56091c-0.67424,-0.45279 -1.55631,-0.45342 -2.18808,-1.01723c-0.62998,-0.52652 -0.87845,-1.38207 -0.6285,-2.16413c0.2688,-0.91965 1.36303,-1.32929 2.14184,-1.67222c1.14113,-0.5238 2.37356,-0.81973 3.6281,-0.87121c1.36353,-0.04336 2.40517,0.23157 3.65863,0.69061c1.35864,0.47324 2.76478,0.79715 4.19354,0.96602c1.42933,0.19588 2.81576,0.15606 4.22902,0.59599c1.41326,0.43993 2.85504,0.87571 4.29785,1.23908c1.34154,0.33984 2.66948,0.19023 4.02805,0.36412c1.63911,0.21427 3.20139,0.75995 3.0891,0.66842c-0.31152,-0.23623 -0.41508,1.29351 -0.73287,1.6346c-0.37614,0.39896 -0.13727,0.92566 0.01699,1.38862c0.19158,0.55395 -1.79912,6.79276 -1.53666,7.22392c0.17305,0.28555 0.39232,0.45624 -0.04098,0.54346c-0.2263,0.04301 -0.44243,0.12839 -0.63704,0.25165c-0.38384,0.23712 -0.26828,0.65102 -0.34361,1.03296c-0.08614,0.43351 -0.46172,0.72197 -0.51716,1.17416c-0.05543,0.45219 -0.42132,0.44333 -0.6546,0.84054c-0.26322,0.44139 -0.64603,0.60611 -1.04112,0.8586c-0.4941,-0.57002 -0.94714,-1.17438 -1.35571,-1.80851c-0.30881,-0.48203 -2.76085,1.53941 -2.78258,1.93154c0.00897,0.57714 -0.47153,0.23248 -0.71042,0.17063c-0.82187,-0.21856 -1.26437,-0.26077 -1.64621,0.60692c-0.15205,0.34097 -0.36306,1.00081 -0.03985,1.25786c-0.17873,0.65183 -1.08857,0.87253 -1.17226,1.66226c-0.03918,0.37959 -0.35877,0.76322 -0.68774,0.46754c-0.41112,-0.41458 -7.64854,0.15163 -7.767,0.63418c-0.10495,-0.01396 -0.19471,-0.03191 -0.29581,-0.04211c-0.46341,-0.16787 -0.98152,0.00294 -1.25422,0.41351c-0.06883,0.10275 -0.12625,0.21269 -0.17126,0.32787c-0.29726,0.77331 0.12748,1.54348 0.63851,2.20402c0.43589,0.54636 0.79045,1.15291 1.0527,1.80078c-0.85738,-0.47341 -1.63878,-1.12111 -2.58417,-1.46961c-0.54542,-0.20098 -1.09578,-0.33904 -1.59473,-0.63584c-0.63327,-0.37518 -1.24455,-0.66489 -2.00648,-0.65557c-0.53144,0.0065 -1.22167,-0.0403 -1.69254,0.24551c-0.33659,0.20606 -0.37411,0.56468 -0.30862,0.93537c-0.02521,-0.03589 -0.05043,-0.07368 -0.07755,-0.10955c-0.78228,-1.03062 -1.93067,-1.46617 -2.48331,-2.7244c-0.52313,-1.18239 -1.40463,-1.9146 -2.32051,-2.81022c-0.42611,-0.41581 -0.71848,-0.95519 -1.08058,-1.43275c-0.3621,-0.47756 -0.8422,-0.78984 -1.31147,-1.15179c-0.93665,-0.72391 -1.89714,-1.37323 -2.77037,-2.20842c-0.87323,-0.83518 -1.39771,-1.97183 -2.14272,-2.91527c-0.48961,-0.62269 -1.23545,-1.32227 -2.07062,-1.38254c-0.56643,-0.05022 -1.16953,0.01622 -1.73028,-0.03598c0.01835,-0.05738 0.03669,-0.11475 0.05119,-0.1759c0.04587,-0.20418 -0.00372,-0.41814 -0.13476,-0.58131c0.39494,-0.10771 0.79965,-0.19649 1.19836,-0.30805c0.48986,-0.13554 0.97609,-0.2558 1.46031,-0.38556c0.5621,-0.14313 1.1142,-0.323 1.65277,-0.53841c1.43685,-0.59102 1.82991,-2.40949 0.36622,-3.23364c-0.7731,-0.43633 -1.65513,-0.43317 -2.42327,-0.93243c-0.45891,-0.29349 -0.91072,-0.62897 -1.39583,-0.88404c-0.55796,-0.29227 -1.22131,-0.32226 -1.79604,-0.58385c-0.97129,-0.44154 -2.00896,-0.54695 -3.06779,-0.51304c-0.24427,-0.41199 -0.46265,-0.8388 -0.65385,-1.27795c-0.39064,-0.94206 -0.82089,-1.85124 -1.14136,-2.81894c-0.25321,-0.76466 -0.79918,-1.01136 -1.37665,-1.49581c-0.11116,-0.0923 -0.26825,-0.10503 -0.39282,-0.03181c-0.12456,0.07321 -0.18986,0.21665 -0.16329,0.35868c-0.9566,1.07095 -0.14833,2.51275 0.4549,3.858c0.26638,0.59494 0.49823,1.17127 0.50455,1.68747c-0.35571,0.04436 -0.70766,0.08486 -1.05404,0.11387c-0.20804,0.01823 -0.99532,0.13032 -0.99532,0.13032c0,0 -1.37827,-6.58716 -0.99141,-6.57867z" fill="#67633d"/><path d="M209.29695,204.05897c0,0 -2.79336,0.77668 -3.34765,1.12895l0.09178,-0.12877c0.44373,-0.63602 0.68309,-1.15905 0.34465,-1.88265c-0.40498,-0.86758 -2.52333,-2.5696 -3.32927,-1.17472c-0.14606,0.27474 -0.23932,0.57442 -0.27496,0.88352c-0.10632,0.65285 -0.41164,0.9233 -1.03669,1.22052c-0.40151,0.19352 -0.49808,0.39855 -0.72961,0.7824c-0.13254,0.21977 -0.29055,0.42314 -0.47077,0.60587c-0.10919,-0.20441 -0.21839,-0.41073 -0.33121,-0.59986c-0.81941,-1.4188 1.29018,-2.45623 2.04019,-3.44083c1.28225,-1.70361 -0.1028,-3.10788 -1.70685,-3.72647c-1.20396,-0.46155 -2.57764,-0.31329 -3.83877,-0.30928c-1.5269,0.0158 0.25245,-3.65709 2.20239,-3.41804c2.32028,-0.28045 8.69503,-3.09073 9.80514,-3.13671c0.17833,0.08425 0.59014,1.63237 1.13285,2.98876c0.49807,1.24482 -0.55122,10.2073 -0.55122,10.2073z" fill="#67633d"/><path d="M232.65073,233.94461c-0.12328,0.04533 -0.25218,0.09834 -0.37912,0.15514c-0.10239,-0.05959 -0.19947,-0.12788 -0.29017,-0.20411c-0.20403,-0.17087 -0.69048,-0.22397 -0.85918,-0.30955c-0.46007,-0.23251 -0.83218,-0.59373 -1.34244,-0.72466c-0.46593,-0.08916 -0.94226,-0.11093 -1.41438,-0.06461c-1.2331,0.03816 -2.45737,0.22195 -3.6473,0.54758c-0.91145,0.24548 -1.80367,0.50597 -2.71158,0.72854c0.5631,-0.84514 0.87268,-1.85673 0.49245,-2.88274c0.00068,-0.00634 0.00061,-0.01273 -0.00023,-0.01905c0.19829,0.01281 0.40617,0.03123 0.59665,0.0289c1.4827,0.04282 2.94117,-0.337 4.42694,-0.35517l2.34674,-0.02871c0.15338,-0.00506 0.28296,-0.1153 0.31253,-0.26589c0.02957,-0.15058 -0.04872,-0.30164 -0.18879,-0.36432c0.76364,-0.33703 1.40538,-0.82687 2.15252,-1.26656c0.44446,-0.26453 0.2434,-1.59375 -0.1221,-1.88266c-0.62903,-0.49526 -1.58699,-0.31398 -2.31588,-0.25171c-1.23039,0.1204 -2.47234,0.02666 -3.67072,-0.27705c-1.21199,-0.33952 -1.72325,-1.48586 -2.20275,-2.5278c-0.12536,-0.29841 -0.27413,-0.58643 -0.44491,-0.86138c0.1073,0.05013 0.20698,0.10035 0.29901,0.14875c0.39302,0.21572 0.86252,0.24219 1.27731,0.072c0.92372,-0.35111 1.70502,-0.99848 2.22169,-1.84085c0.55273,-0.91359 0.16813,-1.98528 0.67665,-2.93072c0.22728,-0.42 0.66608,-0.68065 0.89741,-1.08165c0.11379,-0.19761 0.1604,-0.74876 0.32121,-0.84028c0.50147,-0.27667 1.32928,-0.81832 1.2489,-1.47078c-0.01428,-0.09195 -0.04922,-0.17945 -0.1022,-0.25594c0.33766,0.03778 0.67168,0.08894 0.99051,0.1441c1.50436,0.25593 4.01595,1.08821 3.19517,3.13863c-0.40304,1.00321 -0.91197,1.76005 -1.02424,2.86067c-0.04702,0.51686 -0.22876,1.2335 -0.03211,1.73595c0.10231,0.26546 0.91073,0.31844 1.16714,0.41056c0.95666,0.33502 2.32962,1.06312 3.07294,2.02373c-1.58783,0.70717 -3.70774,1.83617 -3.45471,3.83153c0.13255,1.02333 0.90188,2.70946 0.15095,3.61786c-0.22153,0.26752 -0.90399,0.38827 -1.21351,0.62639c-0.20579,0.16233 -0.35617,0.38449 -0.43039,0.63586z" fill="#805336"/><path d="M283.53326,156.98818c-0.27186,-0.15185 -0.5851,-0.24926 -0.96706,-0.29687c-0.78603,-0.09135 -1.69487,0.21125 -2.01698,0.97724c-0.16222,0.4567 -0.23835,0.93951 -0.22453,1.42396c-0.00225,0.59443 -0.14007,1.16383 -0.17859,1.75298c-0.05297,0.80841 -0.3895,1.02019 -0.7128,1.68903c-0.22099,0.49018 -0.3178,1.02725 -0.28188,1.56374c0.02435,1.36757 0.13086,2.9094 -0.80802,4.02776c-0.51839,0.60645 -0.42153,1.51591 0.09992,2.0944c0.41523,0.45976 0.73719,0.61586 1.11912,0.6893c0.2903,0.05931 0.61814,0.07245 1.05331,0.13762c0.29773,0.04398 0.89428,0.68633 1.17247,0.84677c0.39139,0.21226 0.83333,0.31357 1.2781,0.29299c0.32008,0.0018 0.69147,0.4602 1.01064,0.54392c0.31111,0.07497 0.63905,0.03016 0.91863,-0.12554c0.35427,-0.16246 0.16845,-0.65263 0.59704,-0.65787c0,0 0.58583,3.38658 0.31563,3.81043c-0.26999,0.42352 -0.53046,0.9274 -0.85519,1.07992c-0.70011,0.3396 -1.46538,0.52378 -2.24333,0.53992c-0.40765,0.00395 -0.81449,-0.03707 -1.21314,-0.12233c-0.82802,-0.15155 -1.57792,-0.58536 -2.12207,-1.22759c-0.32096,-0.37834 -0.59415,-0.79473 -0.81341,-1.2398c-0.30651,-0.60589 -0.60446,-1.28998 -1.09992,-1.76782c-0.46449,-0.43821 -1.01572,-0.64674 -1.57742,-0.93326c-0.46935,-0.23993 -0.90325,-0.54363 -1.28937,-0.90249c-0.19966,-0.20405 -0.36927,-0.43547 -0.50373,-0.6873c-0.12595,-0.23 -0.28874,-0.43781 -0.4819,-0.61517c-1.32418,-1.10019 -3.12754,-0.72568 -4.56561,-1.32534c-0.48576,-0.19575 -0.90918,-0.51981 -1.22502,-0.93757c-0.54409,-0.71538 -0.39914,-1.4811 0.03685,-2.12656c0.36301,-0.51469 0.83952,-0.939 1.3927,-1.24012c0.58105,-0.31192 1.48444,-0.74972 2.17115,-0.52189c1.00046,0.33449 1.96442,0.95519 2.99759,1.15973c0.61682,0.1201 1.98845,0.42718 1.89734,-0.63476c-0.06508,-0.47065 -0.07986,-0.94689 -0.04406,-1.42067c0.13459,-1.14471 0.51121,-2.28286 0.51235,-3.43546c0.00737,-1.73374 -0.90714,-3.6067 -0.41709,-5.28348c0.24783,-0.1421 0.49759,-0.28233 0.75698,-0.41314c0.41807,-0.24348 0.87931,-0.40374 1.35828,-0.47194c0.20273,0.00548 0.4056,-0.00146 0.60748,-0.02077c0.45388,-0.11795 0.88759,-0.48332 1.26533,-0.75086c0.51749,-0.36831 1.08562,-0.802 1.73614,-0.88616c0.4565,-0.05893 1.71592,5.62277 1.34407,5.41506z" fill="#c8bc80"/><path d="M251.35011,139.30238c0.12953,-0.05839 0.25592,-0.12352 0.37863,-0.19514c0.2037,-0.10857 0.35621,-0.29328 0.42427,-0.51386c0.06503,-0.29037 0.12459,-1.02838 -0.24117,-1.18203c-0.41368,-0.17783 -1.06475,-0.13938 -1.51536,-0.2215c-1.47983,-0.27528 -5.0242,0.65712 -6.52519,0.67548c-1.60958,0.01969 2.70363,-6.58601 3.29244,-6.41985c0.20646,0.05844 0.41308,0.1283 0.60449,0.20217c0.15081,-0.06427 0.31306,-0.09735 0.477,-0.09728c0.65279,-0.01387 1.30357,0.07722 1.92746,0.26981c0.28321,0.08263 0.55574,0.19821 0.81198,0.34441c0.16915,0.11276 0.32646,0.24232 0.46958,0.38671c0.04637,0.05278 0.07722,0.08288 0.09264,0.09793v0c-0.00456,-0.00918 -0.00976,-0.01803 -0.01556,-0.02648l0.03264,0.02055c0.18002,-0.07841 0.35053,-0.1567 0.50393,-0.23097c1.17421,-0.56875 2.70496,-1.26951 4.05724,-0.83074c0.3787,0.1211 0.71389,0.42372 0.51339,0.85292c-0.38251,0.81245 -1.78743,1.05444 -1.77578,2.00686c0.00981,0.64571 -0.2023,1.37224 0.63744,1.49343c0.62426,0.07016 1.25632,0.00194 1.85122,-0.19983c1.29339,-0.38105 2.4661,-1.09045 3.404,-2.05916c0.48373,-0.48029 1.29021,-0.74163 1.8825,-1.06894c0.47308,-0.26107 0.91892,-0.56944 1.39788,-0.81725c0.42212,-0.22235 0.83844,-0.29603 1.08062,0.19063c0.32224,0.6457 0.10744,1.77425 -0.24157,2.3672c-0.48527,0.82132 -1.75612,1.43317 -2.58592,1.81292c-1.24283,0.56578 -2.67025,0.83662 -3.85475,1.49886c-0.69253,0.38759 -1.56172,0.66113 -2.31899,1.05142c-0.33765,0.16763 -0.64888,0.3839 -0.92374,0.64189c-0.46506,0.44958 -0.64216,1.07853 -0.88637,1.6721c-0.14141,0.38915 -0.36293,0.74428 -0.65022,1.04243c-0.58013,0.5461 -1.31938,0.89285 -2.11018,0.9898c-1.16173,0.18758 -2.23459,0.63126 -3.42036,0.72197c-0.70806,0.05248 -1.59034,0.19091 -2.23502,-0.18222c-1.4083,-0.81339 -0.71388,-2.13642 0.4912,-2.67317c0.67453,-0.30164 1.39464,-0.45905 2.08673,-0.72661c0.92717,-0.36189 1.99108,-0.44729 2.88291,-0.89448z" fill="#805336"/><path d="M237.79975,161.96945c0.03139,-0.16502 0.05099,-0.33206 0.05866,-0.49986c0.00689,-0.18094 -0.0049,-0.3621 -0.0352,-0.54062c-0.01176,-0.02653 -0.01206,-0.05129 -0.01239,-0.07796c-0.09267,-0.47402 -0.25022,-0.93303 -0.4682,-1.36404c-0.13882,-0.27297 -0.30071,-0.53358 -0.4839,-0.77899c-0.95489,-1.23567 -1.84496,-2.52009 -2.66661,-3.84808c-0.80326,-1.3447 -0.13732,-4.37245 1.90909,-3.72308c0.94097,0.29902 1.93853,1.64135 2.37746,2.48184c0.77846,1.49742 1.261,3.09943 1.75883,4.70505v0c0.02063,-0.00498 0.04212,-0.00524 0.06286,-0.00077c0.84723,0.11156 0.73061,-0.54428 0.55825,-1.08512c-0.13674,-0.43269 -0.19598,-0.91396 -0.33823,-1.32944c-0.34003,-1.00936 -1.09521,-2.00601 -1.15426,-3.09501c-0.07185,-1.35747 -0.09272,-2.59553 -1.20931,-3.54585c-0.4582,-0.39065 -0.9357,-0.80203 -1.42068,-1.20189c-0.48498,-0.39985 -0.97751,-0.7939 -1.46577,-1.1499c-0.69013,-0.50593 -1.56184,-1.06109 -1.68752,-1.99114c-0.09615,-0.69609 -0.00231,-1.43452 0.44785,-2.01156c0.81232,-1.02191 2.15357,-0.89377 3.40501,-0.43843c0.42568,0.15488 0.95045,1.82578 1.33099,2.024c0.34568,0.18006 0.5532,-1.11352 0.82328,-0.9487c0.43413,0.27215 0.85305,0.56784 1.25488,0.88576c0.49801,0.37493 1.15733,0.69835 1.61404,1.12332c0.51449,0.4757 1.61476,1.18237 1.62471,1.99573c0.01387,1.13337 -0.0182,2.25016 -0.02897,3.39335c-0.00328,0.51061 -0.05327,1.09609 0.1432,1.5833c0.23982,0.6048 1.08407,0.47254 1.57423,0.67229c0.37914,0.1573 0.77601,0.20769 1.15863,0.33827c0.42848,0.14145 0.7826,0.43432 1.17762,0.64476c0.754,0.39311 1.41145,0.94854 1.92501,1.62627c0.87604,1.21998 0.80298,3.03454 -0.36155,4.08326c-0.59547,0.535 -1.74973,0.39862 -2.472,0.37888c-0.93378,-0.02287 -2.82563,-0.18452 -3.30193,0.90341c-0.03886,0.09383 1.74465,0.27585 1.92593,0.3003c0.51482,0.08048 0.96405,0.39322 1.21822,0.84811c0.22658,0.43486 0.40469,0.89331 0.5311,1.36709c0.17342,0.48299 0.40691,0.94226 0.69495,1.36699c0.33703,0.57491 0.79483,1.06981 1.3418,1.45052c0.48181,0.33939 1.11752,0.36588 1.62589,0.06774c0.13671,-0.09432 0.29059,-0.16094 0.45292,-0.19605c1.56577,-0.01916 3.77666,-0.71871 5.38684,-0.06591c-0.0467,0.15828 -0.10137,0.3141 -0.16385,0.46685c-0.05744,0.13215 -0.35449,0.29963 -0.46922,0.42105c-0.33656,0.36419 0.1899,1.19599 -0.17261,1.46333c-0.45692,0.33708 -1.17188,0.13626 -1.6609,0.4966c-0.16286,0.14138 -0.29105,0.31828 -0.37469,0.51706c-0.15635,0.30101 -0.58418,0.52343 -0.83674,0.74561c-0.17123,0.14414 -0.29448,0.33704 -0.3533,0.55299c-0.3358,0.11461 -0.67553,0.21974 -1.02125,0.30207c-1.35255,0.31756 -2.69588,0.2997 -4.07878,0.31662c-1.62479,0.02179 -3.55014,-0.2309 -5.09578,0.3424c-0.50256,0.18713 -0.99017,0.35122 -1.49666,0.52888c-0.6317,0.2211 -0.29707,0.78854 -0.23778,1.27552c0.24578,2.02593 -0.67,4.09656 -2.49112,5.04473c-1.21914,0.63408 -2.58632,1.00135 -3.75466,1.73768c-1.04373,0.64527 -1.98646,1.44742 -3.12346,1.94332c-0.59242,0.21268 -1.2228,0.29892 -1.85057,0.25316c-0.77993,-0.06095 -1.41825,-0.38081 -1.13723,-1.23584c0.48699,-1.45955 2.27885,-2.3083 3.61787,-2.64093c1.55365,-0.3867 2.10463,-1.44315 3.09294,-2.56973c0.68018,-0.77418 1.47473,-1.07538 2.28872,-1.65687c0.42681,-0.30623 1.02141,-0.91171 0.43013,-1.436c-0.18008,-0.15989 -0.40101,-0.26667 -0.63818,-0.30844c-0.47411,-0.07014 -0.95681,-0.05714 -1.42646,0.03841c-0.83252,0.15688 -1.60753,0.49786 -2.44219,0.6357c-1.82135,0.30615 -3.03183,-1.62226 -2.62744,-3.29417c0.13816,-0.63037 0.63743,-1.11852 1.27075,-1.24244c0.11676,-0.00732 0.233,-0.02147 0.34812,-0.04236c1.17472,-0.0601 1.83542,0.68815 2.95804,0.88588c1.48157,0.26192 2.57472,-0.704 3.81538,-1.29072c0.42038,-0.20899 0.88882,-0.22615 1.32855,-0.41062c0.43973,-0.18446 0.88333,-0.36326 1.3153,-0.55905c-0.63441,-0.93527 -0.63982,-2.31069 -1.97836,-2.71725c-0.27727,-0.08424 -0.7582,-0.15266 -1.23215,-0.2745c-0.04527,-0.12812 -0.10227,-0.25177 -0.17026,-0.36941c0.05067,0.09273 0.6757,-0.67315 0.72861,-0.70809c0.35601,-0.21798 0.73049,-0.40425 1.11911,-0.55665c0.49441,-0.23085 1.28471,-0.5682 1.29358,-1.24462c0.00887,-0.67642 -0.7841,-0.40191 -1.14674,-0.30031c-0.65688,0.18711 -1.22853,0.17697 -1.90307,0.16617c-0.35632,-0.00517 -0.67974,0.18739 -0.99939,0.3761z" fill="#c8bc80"/><path d="M218.15244,129.71058c0.25814,0.85605 0.89698,1.06351 1.59303,0.96355c0.76076,-0.10457 1.59687,-0.59107 2.08365,-0.97805c0.20433,-0.16423 0.41811,-0.31634 0.64025,-0.45553c0.58805,-0.20723 1.15637,-0.46947 1.72465,-0.73552c0.33607,-0.07859 0.68034,-0.1167 1.02547,-0.11352c0.71642,0.00838 1.41475,0.09509 2.1341,0.03104c0.75737,-0.07023 1.49823,-0.24504 2.25957,-0.30198c0.30133,-0.02254 1.39878,-0.78736 1.39878,-0.78736l1.58335,4.14408c0,0 -3.64806,4.80913 -5.79543,5.40693c-2.01633,0.56381 -4.28734,0.24297 -5.99209,-0.9764c-0.66497,-0.47386 -1.18863,-1.07709 -2.10633,-0.87535c-0.59235,0.15234 -1.16503,0.37288 -1.70656,0.65719c-0.90143,0.44158 -1.82395,0.872 -2.8297,0.8843c-1.00575,0.01231 -2.3476,0.27067 -3.28281,-0.18082c-0.58256,-0.27864 -1.04341,-0.73023 -1.61847,-1.01848c-0.62957,-0.30571 -1.33627,-0.41584 -2.029,-0.31619c-1.58098,0.17747 -3.42987,0.60912 -4.97658,0.93858c0.08367,-0.47921 15.78224,-6.69499 15.89412,-6.28647z" fill="#bca583"/><path d="M223.17988,222.84511c-0.28934,-0.29176 -0.70879,-0.31901 -1.07991,-0.44401c-0.16726,-0.12369 -0.35935,-0.25279 -0.55134,-0.37427c-0.1069,-0.10534 -0.23352,-0.18859 -0.37259,-0.24501c-0.04019,-0.01475 -0.0803,-0.02378 -0.12047,-0.03662c-0.36177,-0.19785 -0.74789,-0.34748 -1.14851,-0.44508l-0.1031,-0.01779c-0.02693,-0.02062 -0.05575,-0.04123 -0.08079,-0.06378c-0.68184,-0.60701 -0.93289,-1.97371 -1.74403,-2.40577c-0.44877,-0.39839 -1.02898,-0.64086 -1.56789,-0.93337c-0.53892,-0.29251 -0.84516,-1.18797 -0.72091,-1.77627c0.06011,-0.2241 0.18647,-0.42485 0.36255,-0.57597c0.32977,-0.07522 0.64185,-0.21361 0.91899,-0.4075c0.8619,-0.71353 1.99113,-1.53321 3.04746,-1.92716c0.31485,-0.11435 0.88492,-0.23372 1.4811,-0.39914c0.6798,0.12885 1.41027,0.0399 2.096,0.03151c1.45528,-0.01781 2.88033,-0.48294 4.31103,-0.17467c0.6437,0.13692 1.22891,0.32027 1.83606,0.42905l-0.03594,0.02139c-1.05079,0.69108 0.15415,1.23263 0.52896,1.81481c0.05297,0.07649 0.08793,0.164 0.1022,0.25594c0.07466,0.65253 -0.74553,1.1941 -1.2489,1.47078c-0.16082,0.09151 -0.20734,0.64837 -0.32121,0.84028c-0.23133,0.401 -0.67013,0.66165 -0.89741,1.08165c-0.51043,0.94546 -0.1163,2.01703 -0.67665,2.93072c-0.51602,0.84379 -1.29738,1.49256 -2.22164,1.84466c-0.41479,0.17019 -0.88427,0.14372 -1.27731,-0.072c-0.09204,-0.04841 -0.19362,-0.0986 -0.29901,-0.14875c-0.06306,-0.09811 -0.13565,-0.18975 -0.21672,-0.27359z" fill="#805336"/><path d="M221.61823,189.87916c0.56072,0.05029 1.15823,-0.00655 1.73028,0.03598c0.83522,0.06408 1.58101,0.75984 2.07062,1.38254c0.74506,0.94725 1.29439,2.09121 2.14272,2.91527c0.84833,0.82406 1.83373,1.48451 2.77037,2.20842c0.46927,0.36195 0.94944,0.67994 1.31147,1.15179c0.36203,0.47185 0.65447,1.01694 1.08058,1.43275c0.9216,0.89556 1.8031,1.62776 2.32051,2.81022c0.56026,1.25814 1.70867,1.6956 2.48331,2.7244c0.02711,0.03587 0.05234,0.07366 0.07755,0.10955c0.28074,0.45386 0.4478,0.96876 0.48702,1.50098c0.0421,0.32717 0.04616,0.6586 0.05007,0.97861c0.00753,0.61526 0.52199,1.08905 0.96249,1.59042c0.24019,0.24785 0.42896,0.54079 0.55541,0.86194c0.19388,0.5863 -0.12672,1.16557 -0.53472,1.60684c-0.13424,0.14386 -0.27906,0.27746 -0.43328,0.39966c-0.10378,0.08128 -0.20753,0.16638 -0.31503,0.25533c-0.55452,0.45639 -1.15417,0.96096 -1.85555,1.09147c-0.96566,0.15266 -1.95102,0.12856 -2.90807,-0.0711c-0.34837,-0.08951 -0.6918,-0.19722 -1.0289,-0.32271c0.90869,-0.62647 1.71783,-1.60417 1.81815,-2.43602c0.17451,-1.46335 -1.73071,-2.0954 -2.81705,-2.44217c-0.67032,-0.23726 -1.36215,-0.40873 -2.06569,-0.51196c-0.80697,-0.0911 -0.965,-0.39398 -0.94015,-1.16586c-0.00569,-0.32307 -0.14785,-0.62863 -0.39131,-0.84108c-1.34674,-1.38758 -4.21704,-1.48582 -6.00314,-1.41253c-0.49255,0.02751 -0.98185,0.09723 -1.46248,0.2084c-0.29746,-0.1001 -0.60305,-0.17413 -0.91335,-0.22125c-0.78816,-0.11038 -1.59358,-0.07385 -2.38538,-0.17085c-0.83381,-0.1041 -2.99149,-0.35014 -2.82986,-1.62091c0.00714,-0.15077 0.12961,-0.27038 0.28051,-0.27396c1.10947,-0.09931 1.94239,-0.53434 2.77005,-1.24364c0.49029,-0.41178 1.21094,-0.99214 1.52015,-1.56745c0.4879,-0.91851 0.27757,-2.38288 0.22696,-3.4053c-0.01011,-0.18855 -0.03405,-0.3761 -0.07164,-0.56113c0.34239,0.42446 0.64967,0.93698 1.1691,1.19354c0.57889,0.29011 1.0657,0.52801 1.45333,1.06813c0.22492,0.34929 0.47408,0.68238 0.74566,0.99677c0.32994,0.34079 0.97484,0.88728 1.49237,0.6771c0.61423,-0.24756 0.49259,-1.0024 0.29595,-1.50294c-0.18281,-0.4607 -0.41475,-0.88842 -0.63919,-1.32576c-0.20685,-0.40135 -0.1849,-0.94267 -0.3236,-1.37915c-0.15254,-0.47822 -0.5102,-0.9044 -0.77824,-1.32406c-0.34936,-0.58663 -0.72959,-1.15432 -1.13911,-1.70066c-0.53763,-0.6545 -0.16198,-1.09345 0.02112,-1.69962z" fill="#c8bc80"/><path d="M212.7551,182.11111c0,0 0.76296,0.03246 0.97823,0.0136c0.34637,-0.029 0.69832,-0.06951 1.05404,-0.11387c0.00113,0.01585 0.00133,0.03175 0.00058,0.04762c0.03473,1.02971 0.13511,2.05615 0.3005,3.07307c0.03947,0.40749 0.22955,0.7856 0.53307,1.06034c0.43325,0.49078 0.804,1.03337 1.10377,1.61536c0.43798,0.7624 0.56476,1.31523 0.34254,2.14858c-0.20212,0.76451 0.30831,1.21931 -0.32718,1.90911c-0.50195,0.5491 -0.75076,0.92173 -1.50925,1.21297c-0.2894,0.08519 -0.58381,0.15242 -0.88151,0.2013c-0.35135,0.09003 -1.59479,-11.16808 -1.59479,-11.16808z" fill="#805336"/><path d="M217.44339,162.57096c0.53942,0.2617 1.09813,0.4816 1.67121,0.65777c1.46409,0.38978 3.27528,0.03232 4.76194,-0.06779c1.43909,-0.09572 2.87814,-0.19525 4.32009,-0.21289l0.00051,0.04191c0.00843,0.37711 -0.01577,0.42313 0.27467,0.65009c0.4906,0.39216 0.48713,0.73131 0.01349,1.10289c-0.28873,0.22452 -0.35105,0.42532 -0.75563,0.52362c-0.60669,0.14817 -1.2265,0.23616 -1.85045,0.26268c-1.16152,0.0485 -2.27346,-0.21032 -3.39126,-0.4805c-0.95918,-0.23021 -1.69379,-0.01166 -2.64547,0.05904c-0.68525,0.04839 -0.96022,-0.62646 -1.53363,-0.77948c-0.38229,-0.10391 -0.93733,-0.00186 -1.33354,0.00298l-0.57144,0.00699c-0.16901,0.00942 -0.33505,-0.04731 -0.46298,-0.15817c-0.23314,-0.21433 -0.22825,-0.5935 0.06886,-0.91149c0.29712,-0.31798 0.83977,-0.49798 1.25623,-0.56024c0.0785,-0.01301 0.14519,-0.06467 0.17739,-0.13744z" fill="#c8bc80"/><path d="M229.70773,167.76854c-0.57783,0.20906 -1.1764,0.35561 -1.78545,0.43716c-1.30091,0.17786 -2.66038,-0.22464 -3.94084,-0.39948c-1.44268,-0.19762 -2.8929,-0.077 -4.34372,-0.16213c-0.68053,-0.03359 -1.35975,-0.11481 -2.0372,-0.2075c-0.46443,-1.05547 -2.86488,-0.58982 -3.81962,-0.76865c-0.52388,-0.07422 -1.05375,-0.09709 -1.58208,-0.06827c-0.71624,0.00686 -1.64479,-0.36662 -2.34879,-0.13891c-0.11766,0.03764 -0.22953,0.08092 -0.33947,0.12608c-2.5266,0.12045 -5.08525,0.73663 -7.61231,0.66467c-0.51996,-0.1556 -1.02144,-0.36729 -1.49561,-0.63134c-0.28028,-0.17375 -1.77416,-0.50791 -1.92392,-0.13649c0.13502,-0.33123 -0.41177,-0.6446 -0.62286,-0.76967c-0.24761,-0.15128 -1.45188,-0.01462 -1.16087,-0.52113c0.15198,-0.35096 0.13514,-0.75217 -0.04571,-1.08916c-0.27269,-0.48818 0.08362,-1.2622 -0.05852,-1.82438c-0.14214,-0.56217 -0.82521,-0.64717 -1.04022,-1.09223c0.20325,-0.20443 0.14624,-0.50474 0.14178,-0.86856c0.26538,-0.11988 0.54362,-0.20894 0.82929,-0.26543c0.07791,-0.01619 0.1578,-0.0267 0.23766,-0.03911c0.13353,0.05474 0.26187,0.1214 0.38346,0.19916c0.24956,0.15507 0.50284,0.30248 0.75803,0.44986c0.41835,0.24826 0.8367,0.49652 1.23837,0.78309c0.25992,0.12593 0.52864,0.2328 0.80406,0.31974c0.40044,0.18561 0.74457,0.4405 1.15073,0.62604c0.6818,0.29267 1.47802,0.28292 2.20577,0.28355c0.15848,0.0002 0.28768,-0.12704 0.2899,-0.2855c-0.01366,-0.02651 -0.01394,-0.04936 -0.01424,-0.07412c1.10397,0.23035 2.23067,0.13845 3.36118,0.04651c1.37607,-0.10828 2.75158,-0.10606 4.12877,-0.12291c1.6172,-0.01979 3.30523,-0.3224 4.91504,-0.16682c0.23768,0.02329 0.47284,0.06759 0.7027,0.13238c-0.41269,0.06408 -0.81793,0.16924 -1.20971,0.3139c-0.08342,0.03341 -0.18019,0.06507 -0.27322,0.09097c-0.14398,-0.08218 -0.31335,-0.10795 -0.47526,-0.0723c-0.1621,0.04078 -0.31375,0.11536 -0.44502,0.21881c-0.03024,0.01942 -0.20098,0.07866 -0.09076,0.05636c-0.09882,0.02026 -0.18398,0.06702 -0.28858,0.08164c-0.04501,0.00841 -0.08942,0.01978 -0.13294,0.03401c0.02981,-0.06029 0.05023,-0.12479 0.06052,-0.19125c0.04375,-0.31678 -0.43428,-0.45953 -0.49312,-0.13114c-0.08749,0.47926 -0.69636,0.54195 -0.81444,1.01206c-0.02833,0.12071 0.02388,0.24598 0.12954,0.31085c0.30768,0.23437 0.63618,0.30084 0.8555,0.63156c0.11648,0.17765 0.10455,0.44833 0.25769,0.66364c0.18222,0.25687 0.58665,0.14523 0.85332,0.14197c0.33032,-0.01391 0.66119,0.00565 0.98756,0.05841c0.34373,0.06629 0.45336,0.30689 0.79695,0.36174c0.51164,0.08709 0.82945,0.37087 1.38756,0.36404c0.38482,-0.00089 0.9788,-0.03484 1.23473,0.32972c0.06921,0.10419 0.15758,0.19426 0.26044,0.26544c0.29186,0.18694 0.50291,0.30819 0.86432,0.26185c0.80267,-0.10508 1.46593,0.07351 2.25725,0.13051c0.74746,0.05372 1.49693,-0.03927 2.24336,0.08495c0.6204,0.101 1.22821,0.41934 1.83247,0.60246c0.55921,0.14991 1.14341,0.18234 1.71576,0.09522c0.47943,-0.05349 1.02794,-0.22214 1.5108,-0.15184z" fill="#c8bc80"/><path d="M282.19889,151.58441c-0.65052,0.08417 -1.21865,0.51786 -1.73614,0.88616c-0.37584,0.2675 -0.81146,0.6329 -1.26533,0.75086c-0.20188,0.01931 -0.40475,0.02625 -0.60748,0.02077c-0.47897,0.06819 -0.94021,0.22846 -1.35828,0.47194c-0.2594,0.13082 -0.50915,0.27104 -0.75698,0.41314c-0.98561,0.56835 -1.89019,1.21953 -2.83465,1.88073c-0.80091,0.56038 -1.5786,0.99473 -2.56869,0.7287c-0.07103,-0.01951 -0.12622,-0.07551 -0.14468,-0.14683c-0.04838,-0.37281 0.14312,-0.60377 0.45699,-0.79812c0.35545,-0.22153 0.84291,-0.39705 0.64623,-0.90141c-0.12089,-0.2611 -0.20505,-0.53768 -0.2501,-0.82185c-0.07099,-0.66401 1.06078,-1.27606 1.47608,-1.58787c0.71728,-0.54411 1.45726,-1.10184 2.28538,-1.46251c0.28426,-0.1235 0.59212,-0.18632 0.8823,-0.29275c0.43588,-0.03201 0.5398,-0.25808 0.30414,-0.67813l-0.15195,0.03806c-0.09366,0.02655 -0.18477,0.05433 -0.27332,0.08336c-0.48398,0.16541 -0.99043,0.25578 -1.50176,0.26794c-0.9395,-0.0228 -1.82487,-0.60446 -1.3957,-1.49558c0.04324,-0.09232 0.0951,-0.18034 0.15491,-0.2629c0.85255,-1.16683 2.62782,-1.81343 4.03191,-1.81156c0.58891,0.00975 1.17121,0.1259 1.71879,0.34284l0.09756,0.0331c0.36358,0.13082 1.21386,0.49191 1.75956,0.40522c0.14752,-0.01076 -0.12531,-1.33248 -0.42826,-1.37024c-0.85545,-0.16099 -1.95686,-0.18181 -2.19296,-0.48183c-0.29027,-0.36794 -0.47494,-0.82481 -0.07958,-1.21067c0.19951,-0.19866 0.45362,-0.13891 0.7039,-0.081c-0.298,-0.22116 -0.62487,-0.46673 -0.62839,-0.75435c-0.01405,-0.52564 -0.11438,-1.09594 0.32669,-1.48236c0.17946,-0.16366 0.83798,-1.10596 1.21948,-0.26771c1.14445,2.51463 2.4527,9.54066 2.11033,9.58485z" fill="#d3ccbc"/><path d="M285.46661,171.8828c-0.42096,0.00515 -0.13207,0.55077 -0.48633,0.71322c-0.27959,0.1557 -0.60752,0.20052 -0.91863,0.12554c-0.31918,-0.08373 -0.69064,-0.54784 -1.01064,-0.54392c-0.44477,0.02058 -0.88671,-0.08073 -1.2781,-0.29299c-0.27821,-0.16043 -0.87474,-0.80278 -1.17247,-0.84677c-0.43516,-0.06517 -0.763,-0.0783 -1.05331,-0.13762c-0.38383,-0.07342 -0.70389,-0.22952 -1.11912,-0.6893c-0.52146,-0.57849 -0.61832,-1.48794 -0.09992,-2.0944c0.94839,-1.11847 0.82475,-2.6601 0.80802,-4.02776c-0.03592,-0.53648 0.06089,-1.07356 0.28188,-1.56374c0.3233,-0.66884 0.65982,-0.88061 0.7128,-1.68903c0.04444,-0.57207 0.1765,-1.14523 0.19234,-1.71886c-0.01382,-0.48445 0.06231,-0.96726 0.22453,-1.42396c0.32212,-0.76598 1.23087,-1.07621 2.01698,-0.97724c0.90814,0.10701 0.65245,-0.2704 1.14532,0.46274c0.14417,0.25565 1.75666,14.70408 1.75666,14.70408z" fill="#55372c"/><path d="M265.57358,198.98613c-0.68991,0.91337 -1.43103,0.40329 -2.24938,1.09533c-0.56191,0.47553 -1.47392,0.51908 -2.16338,0.37892c-0.50349,-0.09952 -0.98919,-0.27403 -1.44088,-0.51771c-0.65778,-0.35393 -1.79231,-0.27908 -2.51219,-0.10262c-0.71988,0.17646 -1.47729,0.55531 -2.23984,0.51321c-0.04195,-0.0033 -0.08971,-0.01414 -0.13924,-0.01354l-0.14695,-0.02106c-0.33223,-0.06071 -0.69994,-0.21815 -0.66079,-0.59964c0.08369,-0.78974 0.98973,-1.01039 1.17226,-1.66226c-0.32892,-0.25698 -0.11219,-0.91689 0.03985,-1.25786c0.38184,-0.86768 0.82434,-0.82547 1.64621,-0.60692c0.23889,0.06185 0.71741,0.40082 0.71042,-0.17063c0.02173,-0.39213 -0.10168,-0.77853 -0.34668,-1.08548c-0.32615,-0.39055 -0.54871,-0.85693 -0.64718,-1.35614c-0.12128,-0.57005 -0.15303,-1.1412 -0.28384,-1.71113c-0.09464,-0.39664 -0.01214,-0.81484 0.22602,-1.14583c0.04946,-0.08494 0.14007,-0.13747 0.23835,-0.13818c0.43632,0.02182 0.82396,0.28537 1.00473,0.68307c0.10751,0.22349 0.2135,0.6337 0.41737,0.79123c0.33275,0.25883 0.76684,0.3926 1.14062,0.57853c0.55025,0.28475 0.72438,0.97036 1.03319,1.45239c0.40857,0.63413 0.8616,1.23849 1.35571,1.80851c0.39508,-0.2525 0.7779,-0.41721 1.04112,-0.8586c0.23328,-0.39722 0.59947,-0.36359 0.6546,-0.84054c0.05513,-0.47695 0.43102,-0.74065 0.51716,-1.17416c0.07534,-0.38194 -0.0345,-0.79591 0.34361,-1.03296c0.1946,-0.12325 0.41074,-0.20864 0.63704,-0.25165c0.42759,-0.08715 0.21403,-0.2579 0.04098,-0.54346c-0.27008,-0.43106 -0.51397,-0.90054 -0.77805,-1.30882c-0.26409,-0.40828 -0.6902,-1.29084 0.05007,-1.51327c1.04019,-0.31183 2.22826,-0.09403 2.10783,-0.12685c-0.43782,-0.12609 -0.44433,-0.15641 -0.73662,-0.53386c-0.07816,-0.10342 -0.13527,-0.22116 -0.16808,-0.34658c-0.07567,-0.2677 -0.08307,-0.56099 -0.25166,-0.79325c-0.46892,-0.64391 -1.10112,-1.08768 -1.62453,-1.66995c-0.63538,-0.70283 0.38056,-1.28298 0.84684,-1.63351c0.07435,-0.04105 0.16352,-0.04534 0.24147,-0.01163c0.07795,0.03372 0.13589,0.10164 0.15689,0.18393c0.066,0.25638 0.84543,0.74218 1.08934,0.90303c0.43794,0.29184 0.8005,0.18453 0.60316,-0.37316c-0.15046,-0.463 0.33755,-0.94668 0.71369,-1.34564c0.20624,-0.22006 -1.06182,6.53569 -1.53523,11.44536c-0.26042,2.70075 0.10422,4.63702 -0.10401,4.91339z" fill="#55372c"/><path d="M256.91905,166.7669c0.06247,-0.15275 0.11715,-0.30857 0.16385,-0.46685c0.13262,-0.40456 0.22202,-0.82201 0.26672,-1.2454c0.00976,-0.2916 -0.01415,-0.68948 0.03283,-1.05392l-0.07226,0.01041c-0.352,0.03669 -0.35112,-0.5139 -0.0066,-0.53906c0.1048,-0.0046 0.20584,-0.04033 0.29023,-0.10262c0.0388,-0.05326 0.08506,-0.10066 0.13735,-0.14075c0.22864,-0.30952 0.28123,-0.83788 0.52538,-1.12473c0.21443,-0.29946 0.54001,-0.5004 0.90382,-0.55782c0.73468,-0.05661 1.67863,0.48622 1.78752,1.28885c0.17748,1.27044 -1.31588,1.29062 -1.52313,2.41336c-0.00007,-0.00571 -0.00019,-0.01524 -0.00019,-0.01524c-0.03421,0.16236 -0.24579,1.24323 -0.24812,1.05275c0.01861,0.1241 0.00776,0.25084 -0.03167,0.36998c-0.28166,0.49115 -0.59455,0.76551 -0.15721,1.32026c0.08524,0.0934 0.1513,0.20263 0.19444,0.32149c0.15032,0.6078 -0.3267,1.16992 -0.743,1.55604c-0.2833,0.2482 -0.55352,0.51096 -0.80957,0.78719c-0.15036,0.16758 -0.42543,0.41861 -0.45869,0.65906c-0.0017,0.01717 0.46377,-0.24381 0.48091,-0.24402c0.47278,-0.28583 1.71221,-0.97351 2.21256,-0.40809c0.43652,0.48808 0.32375,1.23626 0.25367,1.89248c0.79033,-0.33544 1.87936,-0.5469 2.04817,-1.38721c0.11849,-0.59203 0.1683,-1.19275 0.50297,-1.71123c0.16508,-0.25236 0.43876,-0.41291 0.73959,-0.43389c0.11567,-0.01325 0.23281,-0.00435 0.34515,0.02626c0.43962,0.11845 0.61387,0.65737 0.90882,0.94144c0.8927,0.86924 0.59305,3.00472 -0.04102,3.96504c-0.41525,0.62805 -0.80147,1.13764 -1.58091,1.2729c-0.60454,0.10455 -2.41663,0.23342 -2.53533,1.12074c1.07341,-0.08743 2.13267,0.3816 3.15693,0.63578c0.17966,0.04733 0.47365,0.09708 0.60867,0.2326c0.09453,0.096 0.25994,0.53596 0.41041,0.53412c0.46281,-0.03247 0.92783,-0.01131 1.38579,0.06306c0.45084,0.10117 0.83053,0.77093 1.10094,1.07245c0.2704,0.30151 0.62665,0.6115 0.63189,1.04008c0.00033,0.64964 -0.16037,1.21742 -0.90275,1.1122c-0.12188,-0.03031 -0.20687,-0.14052 -0.2052,-0.26611l-0.00254,-0.20763c-0.5344,-0.23541 -0.81255,-0.70257 -1.55163,-0.69352c-0.68771,0.0027 -1.64129,-0.54764 -2.29564,-0.77777c-0.95287,-0.33698 -2.03587,-0.09892 -3.02984,-0.2144c-0.62576,-0.07235 -1.19451,-0.46738 -1.80689,-0.53609c-0.23076,-0.03626 -0.44449,-0.14351 -0.61148,-0.30686c-0.20434,-0.19563 -0.519,-0.06604 -0.76358,-0.12592c-0.51779,-0.12321 -0.58743,-0.52053 -0.7835,-0.97536c-0.15124,-0.37155 -0.19251,-0.78636 -0.49906,-1.08362c-0.17125,-0.15038 -0.29484,-0.34752 -0.35557,-0.56718c-0.1956,-0.72726 -0.27809,-1.39685 -0.83577,-1.9768c-0.50747,-0.52532 -1.32914,-1.50592 -1.11242,-2.32205c0.05882,-0.21595 0.18207,-0.40885 0.3533,-0.55299c0.25256,-0.22218 0.6804,-0.4446 0.83674,-0.74561c0.08364,-0.19878 0.21183,-0.37568 0.37469,-0.51706c0.48902,-0.36033 1.20398,-0.15952 1.6609,-0.4966c0.3587,-0.26729 -0.16776,-1.0991 0.17261,-1.46333c0.11473,-0.12143 0.41178,-0.2889 0.47675,-0.42877z" fill="#d3ccbc"/><path d="M226.85128,160.11638c-0.30579,-0.40837 -0.49004,-0.8948 -0.53155,-1.40328c-0.0105,-0.07988 -0.02288,-0.15784 -0.02382,-0.23404c0.00098,-0.17603 0.14393,-0.31823 0.31997,-0.31826c0.21363,-0.0027 0.42699,0.01575 0.63698,0.05507c-0.49913,-0.46636 -1.20381,-0.76065 -1.52592,-1.39492c-0.24599,-0.47777 -0.46261,-0.97009 -0.64863,-1.47424c-0.08673,-0.23707 0.07657,-0.43721 0.02068,-0.64608c-0.07169,-0.09819 -0.14136,-0.18687 -0.20546,-0.28706c-0.18662,-0.30444 0.2277,-0.54193 0.47194,-0.35441c0.12514,0.09945 0.22254,0.22949 0.28277,0.37756c0.37224,0.43212 0.83758,0.77426 1.36106,1.00068c0.47675,0.1942 0.88529,0.73026 1.29644,1.01289c0.51678,0.35184 0.91532,0.69369 1.0754,1.32042c0.18605,0.72548 0.64265,1.29713 1.01616,1.92887c0.25099,0.42748 0.35646,0.79579 0.81485,1.04546c0.2443,0.10165 0.47006,0.24309 0.6681,0.41857c0.42292,0.4853 0.67762,1.09431 0.72613,1.73619c0.04737,0.75765 0.76372,1.85005 1.71255,1.54505c0.51865,-0.16325 0.99384,-0.44125 1.39031,-0.81334c0.49349,-0.46136 0.97897,-1.11123 1.6253,-1.38204c0.16962,-0.07777 0.33341,-0.16763 0.49014,-0.2689c0.31394,-0.18864 0.63748,-0.37167 0.99368,-0.37603c0.67645,0.01078 1.2481,0.02093 1.90307,-0.16617c0.35692,-0.10152 1.15013,-0.35699 1.14674,0.30031c-0.00339,0.6573 -0.79918,1.01377 -1.29358,1.24462c-0.38862,0.1524 -0.7631,0.33867 -1.11911,0.55665c-0.05292,0.03494 -0.67794,0.80082 -0.72861,0.70809c0.068,0.11764 0.125,0.2413 0.17026,0.36941c0.11867,0.35671 0.00897,0.57714 -0.40828,0.73084c-0.12401,0.0434 -0.2509,0.07805 -0.37975,0.10371c-0.54533,0.11717 -1.37088,0.22062 -1.83997,0.49688c-0.39724,0.23157 -0.76783,0.61712 -1.24306,0.70295c-0.56707,0.0852 -1.1418,0.10756 -1.71378,0.0667c-0.39265,-0.01615 -1.07806,0.0189 -0.51663,0.43878c0.15315,0.10184 0.29619,0.21812 0.42718,0.34722c0.19528,0.23385 0.42903,0.65392 0.30151,0.97553c-0.03363,0.0838 -0.08935,0.15691 -0.16125,0.21154c-0.20057,0.15093 -0.43462,0.25118 -0.68227,0.29221c-0.11512,0.02089 -0.23135,0.03504 -0.34812,0.04236c-0.23619,0.01125 -0.47283,0.00905 -0.70878,-0.00657c-0.71296,-0.037 -0.98221,0.06726 -1.31068,-0.62027c-0.14071,-0.34444 -0.45885,-0.58408 -0.82874,-0.62426c-0.46752,-0.06287 -1.01604,0.10578 -1.49547,0.15928c-0.57235,0.08712 -1.15655,0.0547 -1.71576,-0.09522c-0.60423,-0.18121 -1.21207,-0.50145 -1.83247,-0.60246c-0.74642,-0.12423 -1.49589,-0.03123 -2.24336,-0.08495c-0.79132,-0.057 -1.45458,-0.23559 -2.25725,-0.13051c-0.36141,0.04633 -0.56483,-0.07501 -0.86432,-0.26185c-0.10285,-0.07117 -0.19123,-0.16125 -0.26044,-0.26544c-0.25594,-0.36456 -0.85377,-0.33438 -1.23473,-0.32972c-0.55811,0.00683 -0.87593,-0.27695 -1.38756,-0.36404c-0.34359,-0.05486 -0.45322,-0.29546 -0.79695,-0.36174c-0.32637,-0.05275 -0.65725,-0.07232 -0.98756,-0.05841c-0.2667,0.00136 -0.6711,0.1149 -0.85332,-0.14197c-0.15314,-0.21531 -0.14121,-0.48598 -0.25769,-0.66364c-0.21932,-0.33071 -0.54782,-0.39718 -0.8555,-0.63156c-0.10566,-0.06487 -0.15787,-0.19014 -0.12954,-0.31085c0.11808,-0.4701 0.72695,-0.5328 0.81444,-1.01206c0.05885,-0.3284 0.53687,-0.18564 0.49312,0.13114c-0.0103,0.06646 -0.03072,0.13096 -0.06052,0.19125c0.04352,-0.01423 0.08793,-0.0256 0.13294,-0.03401c0.09889,-0.01454 0.18595,-0.06133 0.28858,-0.08164c-0.11023,0.0223 0.06051,-0.03694 0.09076,-0.05636c0.13127,-0.10347 0.28293,-0.17803 0.44502,-0.21881c0.1619,-0.03565 0.33128,-0.00989 0.47526,0.0723c0.08351,-0.02579 0.18409,-0.0575 0.27322,-0.09097c0.39178,-0.14466 0.79703,-0.24982 1.20971,-0.3139c0.23996,-0.03962 0.48199,-0.06548 0.7249,-0.07746c0.10216,0.00457 0.195,0.06069 0.24653,0.14902c0.05153,0.08833 0.05469,0.19677 0.00839,0.28794c-0.03479,0.07522 -0.10646,0.12671 -0.18885,0.13567c-0.41646,0.06225 -0.97226,0.25765 -1.25623,0.56024c-0.28397,0.30258 -0.30201,0.69716 -0.06886,0.91149c0.12792,0.11087 0.29396,0.1676 0.46298,0.15817l0.57144,-0.00699c0.40001,-0.00489 0.95125,-0.1069 1.33354,-0.00298c0.5734,0.15302 0.84266,0.82794 1.53363,0.77948c0.9555,-0.07075 1.69011,-0.2893 2.64547,-0.05904c1.11779,0.27019 2.22974,0.52901 3.39126,0.4805c0.62395,-0.02653 1.24377,-0.11451 1.85045,-0.26268c0.40649,-0.09833 0.46881,-0.29912 0.75563,-0.52362c0.47935,-0.37165 0.48282,-0.7108 -0.01349,-1.10289c-0.29044,-0.22696 -0.27001,-0.26912 -0.27467,-0.65009l-0.00056,-0.04572c-0.01132,-0.6133 0.09016,-1.66235 -0.42934,-2.08084c-0.32328,-0.26276 -0.64345,-0.4284 -0.91604,-0.75274zM213.05899,163.44377c-0.04918,0.04164 -0.09335,0.08885 -0.13164,0.14068l0.09583,0.04645c0.00437,-0.06359 0.01639,-0.12643 0.03581,-0.18714zM214.21286,164.79374c-0.08219,-0.02185 -0.16442,-0.04752 -0.24475,-0.07321c0.02904,0.04741 0.0806,0.07636 0.1362,0.07645zM215.45162,162.96112l-0.16718,0.03825c0.01649,0.03164 0.03028,0.06461 0.04121,0.09856z" fill="#55372c"/><path d="M214.77843,182.05664c0.00075,-0.01587 0.00055,-0.03177 -0.00058,-0.04762c-0.01393,-0.51611 -0.23817,-1.09252 -0.50455,-1.68747c-0.60324,-1.34525 -1.4115,-2.78705 -0.4549,-3.858c-0.02657,-0.14202 0.03873,-0.28546 0.16329,-0.35868c0.12456,-0.07321 0.28165,-0.06049 0.39282,0.03181c0.58127,0.48441 1.1235,0.73687 1.37665,1.49581c0.32047,0.96768 0.74874,1.87118 1.14136,2.81894c0.19121,0.43915 0.40957,0.86595 0.65385,1.27795c0.27838,0.48621 0.56431,0.96661 0.79918,1.47811c0.35036,0.76347 0.44424,1.58533 0.73764,2.36474c0.26584,0.70736 0.9499,1.65154 0.95922,2.41347c0.01275,1.04194 0.56282,0.8447 1.34613,1.02563c0.06298,0.01501 0.1199,0.04887 0.16313,0.09707c0.13103,0.16317 0.18063,0.37713 0.13476,0.58131c-0.01449,0.06114 -0.03284,0.11852 -0.05119,0.1759c-0.20386,0.62166 -0.56808,1.06047 -0.03617,1.71504c0.40951,0.54635 0.78976,1.11403 1.13911,1.70066c0.26609,0.41587 0.62375,0.84205 0.77824,1.32406c0.13861,0.42886 0.11674,0.97779 0.3236,1.37915c0.22451,0.44304 0.45645,0.87077 0.63919,1.32576c0.20425,0.50045 0.31828,1.25539 -0.29595,1.50294c-0.51753,0.21018 -1.16242,-0.33632 -1.49237,-0.6771c-0.27158,-0.3144 -0.52074,-0.64748 -0.74566,-0.99677c-0.39144,-0.54008 -0.87825,-0.77797 -1.45333,-1.06813c-0.51933,-0.24893 -0.8267,-0.76907 -1.1691,-1.19354c-0.28242,-0.34899 -0.59075,-0.6367 -1.06361,-0.66901c-0.18439,-0.00896 -0.36897,0.01325 -0.54596,0.06574c-0.41572,0.10549 -0.81043,0.28105 -1.1672,0.51913c-0.14803,0.14175 -0.31684,0.2601 -0.50056,0.35095c-0.57423,0.09085 -1.63088,0.61435 -1.63088,0.61435c0,0 -0.42172,-2.39146 -0.07037,-2.48149c0.2977,-0.04887 0.5921,-0.1161 0.88151,-0.2013c0.74324,-0.29105 0.99968,-0.66378 1.50925,-1.21297c0.63542,-0.69552 0.12495,-1.15412 0.32718,-1.90911c0.22223,-0.83334 0.09537,-1.3919 -0.34254,-2.14858c-0.29977,-0.58199 -0.67053,-1.12458 -1.10377,-1.61536c-0.30352,-0.27474 -0.49361,-0.65285 -0.53307,-1.06034c-0.16667,-1.01683 -0.26832,-2.04326 -0.30432,-3.07302z" fill="#d3ccbc"/><path d="M202.59047,136.16499l-0.0161,0.08593c-0.04232,0.22711 -0.06436,0.45753 -0.06587,0.68855c0.01028,0.84003 0.04155,1.68361 0.03088,2.52389c-0.0065,0.55828 -0.0252,1.21006 -0.30682,1.70502c-0.10051,0.22158 -0.24831,0.41846 -0.43302,0.57683c-0.30613,0.20378 -0.83507,0.25979 -1.07781,0.50661c-0.20885,0.21403 -0.61997,0.5828 -0.88879,0.72135c-0.30103,0.15419 -2.34833,8.10958 -2.19291,8.05552c0.19128,-0.06654 0.38279,-0.13162 0.56883,-0.21693c0.72933,-0.3385 1.43328,-0.72624 2.17638,-1.02872c0.88522,-0.36518 2.24822,-0.76288 3.19457,-0.33628c0.86787,0.39707 0.87156,1.32101 -0.00174,1.72605c-0.55125,0.25631 -1.07532,0.55421 -1.63061,0.79152c-0.13266,0.05687 -0.26728,0.10995 -0.40574,0.15927c-0.52416,0.1849 -1.01742,0.44784 -1.46311,0.77994c0.54416,-0.21241 1.10218,-0.38308 1.7115,-0.25336c0.3009,0.06462 0.55204,0.27064 0.67422,0.5531c0.12218,0.28247 0.10035,0.60656 -0.05861,0.8701c-0.36073,0.56832 -1.36241,0.60154 -1.95101,0.60874c-1.23033,0.03029 -2.29944,0.78066 -3.49404,0.92863c-0.73047,0.08895 -0.91888,0.22682 -0.79716,1.29981c0.11739,1.03113 0.12905,0.92782 0.90924,1.00973c0.51945,0.03327 1.03086,0.14521 1.51672,0.33198c0.46536,0.19816 0.51884,0.8319 1.03675,0.96464c0.47013,0.11999 0.99077,0.16506 1.26866,0.61126c0.38092,0.6145 0.69737,0.94212 1.39587,1.19838c0.6985,0.25626 1.17272,0.55528 1.28274,1.29502c0.00412,0.02472 0.01391,0.04746 0.01424,0.07412c-0.00179,0.14985 -0.11763,0.27358 -0.26704,0.28522c-0.72776,-0.00062 -1.52016,0.00907 -2.20577,-0.28355c-0.40603,-0.17602 -0.75029,-0.44043 -1.15073,-0.62604c-0.27624,-0.08871 -0.54564,-0.19747 -0.80604,-0.32544c-0.40167,-0.28657 -0.82002,-0.53483 -1.23837,-0.78309c-0.2647,-0.14727 -0.51798,-0.29467 -0.76754,-0.44974c-0.12463,-0.07823 -0.25617,-0.14486 -0.39298,-0.19904c-0.26632,-0.10951 -0.5629,-0.12072 -0.83673,-0.03167c-0.11509,0.0472 -0.23145,0.20054 -0.23263,0.29433c0.00016,0.01333 0.00035,0.02858 0.00051,0.04191c0.01016,0.36375 0.06147,0.66413 -0.14178,0.86856c0.21501,0.44507 0.89815,0.53577 1.04022,1.09223c0.14207,0.55646 -0.21417,1.3362 0.05852,1.82438c0.18086,0.337 0.19769,0.7382 0.04571,1.08916c-0.291,0.50651 0.91331,0.37366 1.16087,0.52113c0.21109,0.12506 0.75789,0.43843 0.62286,0.76967c0.14977,-0.37143 1.64365,-0.03726 1.92392,0.13649c0.47204,0.26094 0.97091,0.4701 1.4879,0.62382c0.23984,0.08208 0.47504,0.17715 0.70457,0.28477c0.63818,0.30844 1.5264,0.18898 2.2172,0.12718c0.98579,-0.08636 1.96228,-0.30978 2.94166,-0.45321c0.67133,-0.09584 1.1668,-0.3953 1.74688,-0.63101c0.10995,-0.04517 0.22181,-0.08845 0.33947,-0.12608c0.70408,-0.22198 1.63258,0.14768 2.34879,0.13891c0.52832,-0.02881 1.0582,-0.00594 1.58208,0.06827c0.95475,0.17883 3.35901,-0.28685 3.81962,0.76865c0.1067,0.29796 0.10393,0.62415 -0.00779,0.92026c-0.0258,0.09268 -0.09218,0.16871 -0.18052,0.2068c-0.08835,0.03808 -0.18919,0.03414 -0.2743,-0.01072c-0.52086,-0.21843 -1.53151,0.95034 -2.0123,1.20388c-0.35016,0.18717 -2.22558,1.05599 -1.55981,1.44029c1.21638,0.69762 2.63393,1.80049 2.91287,3.26591c0.04066,0.17464 -0.06409,0.35015 -0.23709,0.39726c-0.53162,0.16873 -1.08738,0.2489 -1.64502,0.23731c-0.45379,-0.03065 -0.81163,-0.31584 -1.24133,-0.40203c-0.63401,-0.12369 -2.48339,-1.69436 -2.44833,-2.00547c0.00061,0.04953 -1.01758,0.09513 -1.0637,0.06331c-0.38843,-0.275 -0.71683,-0.6262 -0.96519,-1.03219c-0.41442,-0.70554 -0.82871,-0.62236 -1.51107,-0.80452c-0.23499,-0.05428 -0.42442,-0.43298 -0.66634,-0.43002c-0.68032,-0.01644 -1.33948,0.14022 -2.01216,0.12559c-0.63652,-0.01698 -1.25547,-0.1561 -1.89333,-0.12734c-0.54833,0.02766 -1.0962,0.09342 -1.64669,0.10016c-0.85894,0.02194 -1.4761,0.02949 -2.14494,0.63969c-0.24537,0.2464 -0.5493,0.42646 -0.88328,0.52328c-0.5432,0.13619 -1.30566,0.25792 -1.74738,-0.18818c-0.32409,-0.32943 -0.14175,-1.77573 0.13741,-2.16017c0.18652,-0.24291 0.42933,-0.43681 0.7075,-0.56495c0.58691,-0.30057 0.82586,-0.54544 0.45778,-1.20011c-0.24197,-0.44528 -0.55084,-0.85078 -0.91583,-1.20235c-0.12523,-0.11468 -0.25231,-0.22362 -0.38499,-0.32487l-0.09006,-0.04272c-0.03786,-0.02623 -0.07164,-0.05791 -0.10022,-0.09403c-0.43049,-0.28379 -0.28115,-0.35479 -0.76192,-0.54111c-0.37837,-0.1382 0.40371,-5.87238 1.79317,-12.0901c1.13925,-5.09807 2.30559,-10.32259 3.17029,-13.4005c0.49429,-1.75941 1.02074,-2.68669 1.05709,-2.81814c0.08824,-0.26208 1.23508,-1.42179 1.15904,-0.94078z" fill="#55372c"/><path d="" fill="#67633d"/><path d="" fill="#c8bc80"/><path d="" fill="#c8bc80"/><path d="" fill="#c8bc80"/><path d="" fill="#805336"/><path d="" fill="#d3ccbc"/><path d="" fill="#d3ccbc"/><path d="M268.23407,237.38785c0,0 -18.71865,0.65976 -18.74419,0.59721c-0.02937,-0.06572 -0.0639,-0.12899 -0.10329,-0.18925c0.3457,-0.08424 0.68169,-0.18361 1.00244,-0.28279c1.09126,-0.34103 2.13044,-0.89099 3.25958,-1.09531c1.28698,-0.22722 2.58127,-0.16875 3.87797,-0.0684c1.63992,0.12473 3.12631,0.15797 4.72905,-0.26552c1.22862,-0.32557 2.51635,-0.49183 3.70921,-0.93698l0.22179,-0.09034v0c0.49042,0.06639 0.95634,-0.00217 1.46809,0.09443c0.51175,0.09662 0.63432,2.05762 0.57935,2.23695z" fill="#67633d"/><path d="M201.26019,238.76758c0,0 -0.36497,-0.21151 0,0z" fill="#67633d"/><path d="M223.08986,231.21345c-0.19819,-0.00519 -0.40598,-0.01598 -0.59665,-0.0289c-0.22419,-0.5726 -0.80569,-0.45308 -1.38855,-0.13351c-0.0292,-0.00153 -0.05847,-0.00117 -0.08762,0.00107c-0.6161,-0.06105 -1.23031,-0.12402 -1.84796,-0.15647c-0.04961,-0.23265 -0.18902,-0.43634 -0.38795,-0.56678c-0.3951,-0.21615 -0.83436,0.00639 -1.2419,0.17523c0.01392,-0.4193 0.02879,-0.91671 0.00185,-1.40599c0.49164,0.16544 0.95935,0.39977 1.50497,0.46167l0.25748,0.02352c0.92298,0.07444 1.57527,-0.02118 2.4189,-0.5154c0.73383,-0.43763 1.374,-0.74457 1.71855,-1.54512c0.34455,-0.80055 0.37018,-1.8201 0.23405,-2.67002c-0.17106,-1.05715 -0.48179,-1.54105 -1.29412,-2.22458c-0.08853,-0.07322 -0.18087,-0.14638 -0.28086,-0.22137c0.37112,0.125 0.79058,0.15227 1.07991,0.44401c0.08085,0.08264 0.15342,0.173 0.21667,0.26978c0.17078,0.27495 0.31954,0.56298 0.44491,0.86138c0.4795,1.04194 0.99076,2.18828 2.20275,2.5278c1.19839,0.30371 2.44033,0.39744 3.67072,0.27705c0.72889,-0.06226 1.68685,-0.24354 2.31588,0.25171c0.36551,0.28892 0.56656,1.61813 0.1221,1.88266c-0.74714,0.43969 -1.3946,0.92961 -2.15252,1.26656c0.14008,0.06267 0.21835,0.21373 0.18879,0.36432c-0.02957,0.15058 -0.15915,0.26083 -0.31253,0.26589l-2.35436,0.02881c-1.48576,0.01818 -2.94427,0.39609 -4.43251,0.36667z" fill="#67633d"/><path d="M208.35717,223.32791c-1.1338,0.29011 -1.74765,0.78488 -2.80244,1.30454c-0.36181,0.14849 -0.69859,0.3518 -0.99852,0.6028c-0.23714,0.23723 -0.79975,1.12237 0.01559,1.27433c0.3847,0.03912 0.7726,0.03438 1.15623,-0.01415c0.84544,-0.03053 1.63892,-0.20443 2.41952,-0.4436c0.5451,-0.16701 -0.062,0.65154 -0.062,0.65154c0,0 -1.20696,0.06424 -1.37764,0.15726c-0.83271,0.45217 -1.5802,1.01952 -2.47534,1.35243c-1.17961,0.43927 -1.91873,-0.4909 -3.02196,-0.50408c-0.66699,0.01168 -1.32428,0.16179 -1.93019,0.44084c-0.86057,0.35536 -1.40316,1.16404 -2.28733,1.45872c-0.14976,0.06089 -0.29954,0.11988 -0.45513,0.17131c-0.48978,-0.27342 -0.65504,-0.64861 -0.49576,-1.12557c0.06556,-0.40278 0.41387,-0.74044 0.65592,-1.0444c0.58735,-0.73113 1.59555,-1.1664 2.3861,-1.63902c1.16505,-0.69438 2.3429,-1.69393 2.70698,-3.07959c0.16042,-0.59064 0.56085,-1.38977 0.57247,-1.99765c0.02063,-1.5834 2.05819,-1.45029 3.0359,-1.41844c0.7814,0.02473 2.70281,0.07753 2.91663,0.02129c0.13099,-0.0378 -0.02269,-1.93696 -1.7202,-1.78665c-0.55477,0.0681 -1.11678,0.04927 -1.66575,-0.05582c-0.20057,-0.04327 -0.41084,-0.10166 -0.62094,-0.14481c0.75304,-0.58074 1.06378,-1.65332 0.8619,-2.58244c-0.07703,-0.38258 -0.25503,-0.73758 -0.51553,-1.02817c-0.45569,-0.49738 -0.7026,-1.21448 -0.90082,-1.84455c-0.27786,-0.91105 -0.2043,-1.7502 0.67728,-2.25632c0.48242,-0.27643 0.97351,-0.46723 1.42882,-0.77952c0.64425,-0.44034 1.22918,-0.90282 1.92967,-1.26193c0.41425,-0.21451 1.29557,-0.43986 1.29557,-0.43986c0,0 0.02621,2.76817 -0.27136,6.45492c-0.34864,4.31947 -0.33779,9.52531 -0.45766,9.55658z" fill="#67633d"/><path d="M203.25836,217.56785c-0.78996,0.2097 -1.5252,0.68736 -2.19824,1.11091c-0.64086,0.40601 -1.03208,0.30673 -1.19362,-0.12946c-0.15296,-0.38478 -0.61953,-0.96195 -0.92142,-1.24537c-0.56497,-0.55319 -1.00711,-0.7105 -1.78315,-0.76388c-0.7203,-0.0685 -1.49114,-0.42387 -2.18685,-0.24017c-0.24585,0.06492 -0.52289,3.0604 0.76262,3.49237c0.63327,0.21896 0.98611,0.35988 1.23279,0.90172c0.05307,0.10487 0.63921,2.08776 0.60022,2.25848c-0.17943,0.90522 -1.13846,1.6145 -2.10391,1.65108c-0.61884,0.02663 -0.53861,-9.2891 -0.53861,-9.2891c0,0 1.19124,-2.03395 1.55517,-1.8263c0.5188,0.31262 1.0567,0.59236 1.61054,0.83759c0.58212,0.24245 1.23935,0.24012 1.84303,0.53183c1.09235,0.52578 1.37951,1.57389 2.27947,2.25824c0.3234,0.20069 0.67443,0.353 1.04191,0.4521z" fill="#67633d"/><path d="M284.75586,207.04134c-0.07794,-0.14193 -0.15584,-0.28005 -0.23549,-0.40672c-0.66652,-1.06823 -2.59903,-1.28272 -2.71962,-2.73104c-0.1453,-1.75473 1.49233,-2.59587 3.02129,-2.19736c0.97009,0.26412 0.26019,5.17157 -0.06618,5.33512z" fill="#c8bc80"/><path d="M285.16481,236.32298c0,0 -14.00123,-0.23203 -13.63856,-0.20766c1.07029,0.12408 1.2343,-0.48583 0.74459,-1.11614c0.59452,-0.30066 1.09485,-0.67066 1.0557,-1.37888c-0.03652,-0.6492 -0.23423,-1.23736 -0.27959,-1.8312c-0.04271,-0.41552 0.02925,-0.8348 0.20806,-1.21229c0.29165,-0.60939 0.27016,-1.1197 0.34433,-1.7531c0.01266,-0.19072 0.09286,-0.37069 0.22621,-0.50762c0.6583,-0.53767 1.64634,-0.44117 2.36882,-0.87104c0.18378,-0.11229 0.34168,-0.26227 0.46328,-0.44003c0.04414,-0.06648 0.08403,-0.13568 0.11939,-0.20721c0.24157,-0.49828 0.19439,-1.08448 -0.44467,-1.30908c-0.30422,-0.10678 -0.65025,-0.20541 -0.88005,-0.45789c-0.15158,-0.16249 -0.26579,-0.35616 -0.33462,-0.56744c0.33559,-0.13175 0.66154,-0.2729 0.94792,-0.37929c0.63915,-0.23453 1.23798,-0.49523 1.92727,-0.52463c0.76732,-0.03606 1.57314,0.27223 2.25715,0.58964c0.37744,0.17446 0.66041,0.56917 1.01751,0.79341c0.33065,0.20116 0.71423,0.29805 1.10074,0.27801c0.75243,-0.0073 1.46532,0.02398 2.07988,-0.50744c0.61456,-0.53142 0.34077,-1.42157 0.04371,-2.03329c-0.10159,-0.20641 -0.40702,-0.41224 -0.55412,-0.60095c-0.27698,-0.37192 -0.4232,-0.80068 -0.73993,-1.15116c-0.65285,-0.72929 -1.35612,-0.75308 -2.30882,-0.76428c-0.40911,-0.00045 -0.81788,0.02363 -1.2241,0.07213c-0.25159,-0.47701 -0.29914,-0.93746 0.04236,-1.36458c0.91945,-1.1486 3.20517,-0.40309 4.30586,0.02543c0.25746,0.09967 0.5281,0.31429 0.80082,0.60511c0.67039,0.71491 0.39075,4.57775 0.33403,8.58837c-0.05659,4.00123 0.11062,8.15099 0.01684,8.2331z" fill="#c8bc80"/><path d="M258.83682,215.32448c-0.4188,-1.06365 0.34127,-2.62561 1.31256,-3.11948c0.76894,-0.3758 5.72931,-1.17022 5.72931,-1.17022l1.06511,14.01743c-0.14715,0.11801 -0.48088,0.23224 -0.63003,0.34265c-0.19638,0.14338 -0.39663,0.2811 -0.59888,0.41121v0c-0.27392,-0.15677 -0.58136,-0.24577 -0.89667,-0.25956c-0.59515,-0.0613 -0.76584,-0.31069 -1.22852,-0.60032c-0.62394,-0.39053 -1.30247,-0.26031 -1.92468,0.11309c-0.62221,0.37339 -1.04664,1.03014 -1.56064,1.52794c-0.03198,0.03278 -0.06969,0.06562 -0.10548,0.09845c-1.20481,-0.21959 -2.38748,-0.34228 -3.48396,0.35126c-0.32976,-0.01502 -0.69289,0.04658 -0.95195,0.04975c-0.26261,-0.02081 -0.52582,0.03188 -0.76018,0.15219c-0.03833,0.02038 -0.07499,0.04376 -0.10964,0.06993c-0.01039,-0.04019 -0.02693,-0.07855 -0.04902,-0.1137c0.01874,-0.17218 0.02744,-0.34531 0.02604,-0.51851c-0.01298,-1.06099 -0.24919,-1.37053 -0.86532,-2.21268c-0.43388,-0.58337 -0.42774,-1.0159 -1.31265,-0.9365c-0.19752,0.05004 -0.21063,-0.08696 -0.03551,-0.41107c0.2308,-0.13237 0.45856,-0.35806 0.7205,-0.43747c0.13437,-0.04971 0.25488,-0.13088 0.35145,-0.23672c0.27863,-0.27203 0.76143,-0.20554 1.10971,-0.23457c0.43962,-0.03776 0.87056,-0.31737 1.26482,-0.63654c0.4856,-0.09537 0.94548,-0.29253 1.34936,-0.57851c0.44388,-0.31215 0.88191,-0.63567 1.29675,-0.98557c0.36289,-0.06256 0.70351,-0.21764 0.98896,-0.45027c0.43247,-0.41579 0.64157,-1.01239 0.5633,-1.60719c0.04369,-0.1214 0.07784,-0.24602 0.10212,-0.37274c0.10365,-0.55947 -0.01335,-1.09147 -0.58892,-1.42162c-0.02302,-0.01305 -0.04223,-0.02616 -0.06523,-0.0373c-0.32834,-0.16611 -0.58259,-0.44913 -0.7127,-0.79333z" fill="#c8bc80"/><path d="M212.75208,226.40208c0,0 0.35904,-4.618 0.48591,-4.73268c0.71244,-0.62788 2.08716,-0.37988 2.93481,-0.39026c0.25524,-0.00312 0.5218,-0.01591 0.78834,-0.0306c0.93668,-0.05147 1.94921,-0.13244 2.84284,0.0338l0.1031,0.01779c0.40063,0.0976 0.78674,0.24723 1.14851,0.44508c0.16691,0.09512 0.33372,0.18262 0.49306,0.28163c0.19576,0.11763 0.38213,0.2468 0.55134,0.37427c0.09998,0.07498 0.19423,0.14813 0.28086,0.22137c0.81232,0.68352 1.12306,1.16743 1.29412,2.22458c0.13611,0.84801 0.11039,1.85994 -0.23405,2.67002c-0.34444,0.81007 -0.98466,1.1132 -1.71855,1.54512c-0.84361,0.49613 -1.49586,0.59365 -2.4189,0.5154l-0.25748,-0.02352c-0.54752,-0.06189 -1.01333,-0.29623 -1.50497,-0.46167c-0.01241,-0.07986 -0.01339,-0.15987 -0.01437,-0.23987c-0.10781,-1.18175 -0.52847,-2.24156 -1.96918,-1.96675c-0.70513,0.13627 -1.17718,1.10413 -1.24369,1.74125c-0.0665,0.63712 -0.04992,1.21416 -0.20416,1.84283c-0.15425,0.62867 0.08238,1.28304 -0.18072,1.89017c-0.22027,0.5266 -0.70493,1.08691 -0.96942,1.57977c-0.2645,0.49285 -0.68115,0.85039 -0.97643,1.31885c-0.07862,0.17588 -0.10723,0.37003 -0.08267,0.56112c-0.05699,0.2828 -0.03384,0.7653 0.01315,1.23515c0.06041,0.60395 0.83855,-10.65285 0.83855,-10.65285z" fill="#c8bc80"/><path d="M204.32302,217.5434c-0.22733,-0.05308 -0.46222,-0.06568 -0.69392,-0.03724c-0.11848,0.01833 -0.23584,0.0433 -0.35153,0.07479c-0.37003,-0.10152 -0.72308,-0.25704 -1.04774,-0.46155c-0.90001,-0.68816 -1.18717,-1.73627 -2.27947,-2.25824c-0.60368,-0.29172 -1.26853,-0.28929 -1.84303,-0.53183c-0.55378,-0.24461 -1.09167,-0.52373 -1.61052,-0.83569c-0.42217,-0.24284 -1.63684,-1.55985 -1.63684,-1.55985c0,0 -0.39583,-2.54506 -0.02389,-2.54441c0.64384,0.00114 1.29142,-0.0603 1.9369,-0.10563c0.6281,-0.04769 1.34736,0.03686 1.951,-0.14199c0.55614,-0.18165 1.07816,-0.45458 1.54469,-0.80761c0.4601,-0.30518 0.93761,-0.58328 1.43007,-0.83288c0.59072,-0.30062 1.19307,-0.58423 1.79138,-0.88684c0.84633,-0.42948 1.65565,-0.92518 2.45909,-1.43415c1.18775,-0.75016 2.22956,-1.5358 3.47514,-2.18283c0.277,-0.14389 -0.20556,4.10919 -0.20556,4.10919c0,0 -1.01495,0.46797 -1.42782,0.68015c-0.70049,0.35911 -1.28542,0.82159 -1.92967,1.26193c-0.45526,0.31611 -0.95207,0.50697 -1.42882,0.77952c-0.8892,0.5062 -0.95521,1.33954 -0.67728,2.25632c0.1906,0.63016 0.44514,1.34719 0.90082,1.84455c0.2605,0.29059 0.4385,0.64559 0.51553,1.02817c0.20378,0.9291 -0.10887,2.0017 -0.84852,2.58609z" fill="#c8bc80"/><path d="M281.44936,210.84058c-0.34281,-0.05568 -0.65371,-0.23399 -0.87487,-0.50177c-0.22156,-0.25806 -0.31387,-0.60281 -0.25089,-0.93705c0.06297,-0.33424 0.27441,-0.62176 0.57469,-0.78151c0.50477,-0.31861 1.17062,-0.39534 1.73973,-0.59282c0.64314,-0.21934 1.14905,-0.60084 1.76128,-0.85599l0.3449,-0.14901c0.32636,-0.16356 0.18377,4.89768 0.06581,4.60002c-0.06298,-0.16497 -0.08591,-0.32663 -0.13558,-0.49367c-0.02683,-0.09176 -0.09055,-0.16824 -0.17595,-0.21122c-0.27231,-0.14527 -0.75515,-0.05935 -0.95325,-0.05692c-0.1981,0.00242 -0.43221,0.02053 -0.6816,0.03501c-0.47176,0.04479 -0.94741,0.02627 -1.41426,-0.05509z" fill="#55372c"/><path d="M277.86016,220.49577c0.58768,-0.08149 1.19606,-0.18419 1.80486,-0.2526c0.40623,-0.0485 0.81499,-0.07258 1.2241,-0.07213c0.94516,0.01891 1.65597,0.03498 2.30882,0.76428c0.31672,0.35047 0.46288,0.77352 0.73993,1.15116c0.14719,0.19633 0.45253,0.39454 0.55412,0.60095c0.29706,0.61171 0.54442,1.52123 -0.04371,2.03329c-0.58813,0.51205 -1.31796,0.49812 -2.07988,0.50744c-0.38651,0.02004 -0.7701,-0.07685 -1.10074,-0.27801c-0.35716,-0.22996 -0.63436,-0.61902 -1.01751,-0.79341c-0.68401,-0.31741 -1.49554,-0.62563 -2.25715,-0.58964c-0.68929,0.02939 -1.28812,0.2901 -1.92727,0.52463c-0.28065,0.10631 -0.60661,0.24746 -0.94792,0.37929c-0.63899,0.24786 -1.33175,0.46019 -1.92783,0.32269c-1.01619,-0.26975 -0.75102,-4.81006 0.36795,-4.75516c1.4049,0.06854 2.92338,0.64938 4.30223,0.45724z" fill="#55372c"/><path d="M249.48038,237.98708c0.02558,0.06637 -2.90018,-0.14268 -2.90018,-0.14268c-0.10306,-0.32642 -0.24851,-0.28745 -0.38196,-0.60587c-0.06507,-0.18019 -0.12437,-0.35473 -0.19717,-0.54435c-0.52459,-0.36698 -0.93106,-0.26676 -1.21949,0.29307l-0.39991,0.9805c-0.00726,0.19783 -32.32171,-0.54611 -32.32667,-0.95184c-0.00219,-0.17905 -0.14752,-0.92572 -0.15083,-1.19621c-0.02456,-0.19108 0.00405,-0.38523 0.08267,-0.56112c0.29528,-0.46846 0.69699,-0.80106 0.97643,-1.31885c0.27943,-0.5178 0.73964,-1.05305 0.96942,-1.57977c0.2631,-0.60713 0.03024,-1.26536 0.18072,-1.89017c0.15048,-0.62481 0.16662,-1.17368 0.22937,-1.80694c0.06274,-0.63326 0.53856,-1.60498 1.24369,-1.74125c1.44071,-0.27482 1.86137,0.78499 1.96918,1.96675c0.01241,0.07986 0.01339,0.15987 0.01437,0.23987c0.02694,0.48928 0.01398,0.98667 -0.00185,1.40599c0.40758,-0.16502 0.84668,-0.40091 1.2419,-0.17523c0.19893,0.13044 0.33835,0.33413 0.38795,0.56678c0.08803,0.33693 0.07449,0.69237 -0.03894,1.02161c-0.02216,0.05742 -0.04629,0.10916 -0.06848,0.16467c-0.36353,0.8065 -1.04792,1.39212 -1.725,1.95289c-0.32065,0.26302 -0.75724,0.54841 -0.92766,0.94485c-0.0634,0.14178 -0.08652,0.29828 -0.06686,0.45233c0.07196,0.5878 0.49425,1.62473 1.30891,1.40901c0.86213,-0.22773 1.48969,-0.63167 1.77499,-1.29242c0.01347,-0.14496 0.01162,-0.29544 0.00981,-0.44401c-0.00259,-0.21144 0.00971,-0.45163 0.02653,-0.63473c0.01681,-0.1831 0.03934,-0.36626 0.06951,-0.54761c-0.0694,-0.53449 -0.14781,-1.18127 0.0604,-1.60294c0.03418,-0.06956 0.0776,-0.13418 0.1291,-0.19209c0.1678,-0.17404 0.34653,-0.33722 0.53507,-0.48854c0.12787,-0.31605 0.41666,-0.53822 0.75493,-0.58077c0.02915,-0.00225 0.05842,-0.0026 0.08762,-0.00107c0.58287,-0.31957 1.16441,-0.43527 1.38855,0.13351c0.00084,0.00632 0.00092,0.01271 0.00023,0.01905c0.38024,1.02601 0.06875,2.03762 -0.49245,2.88274l-0.08423,0.12295c-0.05569,0.30063 -0.08257,0.60588 -0.08029,0.91163c0.00359,0.05644 0.00428,0.11302 0.00207,0.16953c0.3091,0.09096 0.59411,0.24951 0.8344,0.46416c0.28128,-0.2111 0.54081,-0.4867 0.78055,-0.66681c0.59268,-0.45114 1.14618,-0.5246 1.86873,-0.482c1.75007,0.09671 1.15915,1.4699 0.85136,2.62816c-0.09234,0.34856 2.09059,0.21257 2.84997,-0.93978c0.70137,-1.06592 1.52018,-1.40933 2.65718,-1.90523c0.19531,-0.07478 0.39216,-0.18007 0.5949,-0.27018c0.11933,-0.05671 0.24823,-0.10972 0.37912,-0.15514c0.42405,-0.18515 0.90492,-0.19103 1.33338,-0.01631c0.64944,0.29497 0.85155,-0.0028 1.44342,-0.36439c0.48606,-0.27382 0.99921,-0.49654 1.5312,-0.66456c0.63151,-0.23634 1.08967,-0.62678 1.6728,-0.92539c0.33318,-0.17363 0.68173,-0.33602 1.02062,-0.50972c0.22649,-0.1123 0.44691,-0.23646 0.66033,-0.37195c0.02269,-0.01361 0.03965,-0.02907 0.06044,-0.04265c0.66695,-0.45395 1.04585,-1.0949 1.57982,-1.67296c0.44362,-0.48933 0.44891,-1.14665 0.77759,-1.68791c0.26141,-0.42392 0.57687,-0.81203 0.93843,-1.15455c0.31833,-0.30514 0.65455,-0.59107 1.00685,-0.85629l0.319,-0.24204c0.62867,-0.46873 1.61137,-1.11896 2.45094,-0.8549c0.74551,0.23765 1.29861,0.8679 1.43744,1.63795c0.07203,0.54266 0.09659,1.09057 0.07338,1.63749c-0.02846,1.0996 0.69504,0.12867 1.0722,-0.18648c0.49408,-0.41374 1.108,-0.68606 1.71913,-0.56399c0.14669,0.03047 0.28838,0.08132 0.42098,0.15107c0.5522,0.28854 1.00127,0.24494 1.6032,0.23757c0.07177,0.00736 0.14408,-0.00749 0.20714,-0.04254c0.00927,-0.02107 0.02237,-0.04028 0.02211,-0.06124c-0.02232,-0.11212 -0.27979,-0.28997 -0.36112,-0.39756c-0.16615,-0.25122 -0.22988,-0.5565 -0.17809,-0.85321c0.11469,-1.05874 -0.47233,-1.07823 -1.10893,-1.10283c-0.11245,-0.00434 -0.22491,-0.00868 -0.33743,-0.01873c-1.0566,-0.09566 -1.46507,-0.626 -1.47311,-1.28317c-0.00734,-0.60002 0.31361,-1.30503 0.77902,-1.88225c0.61513,-0.79025 1.32421,-1.50265 2.11157,-2.12145c0.13592,-0.10263 0.27566,-0.20341 0.4174,-0.29659c0.44228,-0.28737 0.82958,-0.39689 1.28784,-0.62349c0.36167,-0.1797 0.70979,-0.37828 0.68454,-0.88473c-0.02822,-0.59405 -0.49443,-0.23781 -0.77569,-0.18102c-0.95203,0.19835 -1.63695,0.42963 -2.39165,1.02945l-0.0868,0.06774c-0.31931,0.24208 -0.66674,0.44465 -1.03472,0.60324c-0.62881,0.30108 -1.29459,0.53974 -1.84239,-0.01175c-0.64416,-0.64176 0.23804,-2.18807 0.49756,-2.77611l0.03897,-0.0843c0.26146,-0.59537 0.58329,-1.16236 0.96043,-1.69206c0.32218,-0.44973 0.74183,-0.874 1.00237,-1.37823c0.08934,-0.16836 0.15571,-0.34794 0.19732,-0.53394c0.17331,-0.78321 -0.16466,-1.46873 -0.24447,-2.2298c-0.06449,-0.59932 0.11937,-1.45506 -0.23005,-1.98612c-0.32419,-0.49326 -0.78081,-0.91061 -1.07477,-1.42521c-0.24513,-0.41613 -0.19959,-0.74246 -0.20551,-1.22628c0.00239,-0.09912 0.04979,-0.19175 0.12877,-0.25167c0.07899,-0.05992 0.18096,-0.08061 0.27706,-0.05621c0.27492,0.04808 0.56881,0.24452 0.84821,0.19157c1.02636,-0.19545 0.3161,-0.32393 0.06995,-0.51143c-0.28325,-0.22997 -0.51792,-0.51398 -0.69034,-0.83552c-0.04101,-0.06556 -0.07872,-0.13314 -0.11298,-0.20247c-0.31423,-0.61341 -0.82644,-1.83784 -1.55377,-1.49174c-0.11929,0.05777 -0.23493,0.12281 -0.34625,0.19475c-0.35989,0.2461 -0.67235,0.5552 -0.92234,0.9124c-0.33777,0.42135 -1.29757,1.38565 -1.93566,0.92861c-0.70541,-0.50956 -0.82934,-1.60729 -0.77062,-2.41387c0.02301,-0.3623 0.08635,-0.72091 0.18886,-1.06917c0.11846,-0.48255 0.41474,-0.90259 0.82958,-1.17608c0.43079,-0.21504 0.87762,-0.39631 1.33647,-0.54216c0.48911,-0.19649 1.05074,-0.53867 1.58544,-0.59093c0.91713,-0.09314 1.78994,0.241 2.53399,0.79391c0.56057,0.16329 1.0704,0.4665 1.48152,0.88108c0.32897,0.29568 0.67795,0.56831 1.04446,0.81594c0.55327,0.37616 1.12882,0.70442 1.72767,1.06858c0.72362,0.44075 0.65039,1.46278 0.72411,2.19344c0.109,1.12268 1.39303,1.74518 2.22045,2.41708c0.17128,0.14079 0.44111,0.24036 0.59548,0.40041c0.20831,0.20892 0.30507,0.48779 0.5455,0.67535c0.43081,0.33193 0.54251,0.27532 0.66895,0.79958c0.15659,0.65344 0.27733,1.49022 -0.08674,2.09668c-0.46298,0.77533 -1.53372,0.30263 -1.90448,1.1416c-0.33011,0.7356 -0.60677,1.79061 -0.45526,2.65177c0.02264,0.13554 0.05874,0.26847 0.10773,0.39685c0.20677,0.54995 0.85216,0.66969 1.07936,1.17749c0.15347,0.33779 0.25793,0.69575 0.3102,1.06307c0.01396,0.05127 0.01461,0.1046 0.01526,0.15794c0.07828,0.5948 -0.13083,1.1914 -0.5633,1.60719c-0.28545,0.23263 -0.62607,0.38772 -0.98896,0.45027c-0.08738,0.02012 -0.17673,0.03646 -0.26607,0.05279c-0.6635,0.1129 -1.09603,0.4192 -1.60708,0.84648c-0.2301,0.18952 -0.49189,0.43657 -0.77296,0.66481c-0.39426,0.31916 -0.82521,0.59877 -1.26482,0.63654c-0.35012,0.03476 -0.83108,-0.03746 -1.10971,0.23457c-0.09657,0.10584 -0.21708,0.18701 -0.35145,0.23672c-0.26193,0.07941 -0.48969,0.30509 -0.7205,0.43747c-0.17511,0.3241 -0.15439,0.46102 0.03551,0.41107c0.88484,-0.08512 0.8787,0.34741 1.31265,0.9365c0.61613,0.84214 0.85234,1.15168 0.86532,2.21268c0.0014,0.17319 -0.0073,0.34633 -0.02604,0.51851c0.02208,0.03516 0.03862,0.07351 0.04902,0.1137c0.03464,-0.02616 0.07131,-0.04955 0.10964,-0.06993c0.23436,-0.1203 0.49758,-0.17299 0.76018,-0.15219c0.25522,-0.00503 0.61837,-0.06472 0.95195,-0.04975c0.26031,-0.01159 0.51361,0.08616 0.69866,0.2696c0.66874,0.78244 2.0974,-0.01042 2.78529,-0.62086c0.0358,-0.03282 0.0735,-0.06567 0.10548,-0.09845c0.51401,-0.49781 0.95355,-1.16426 1.56064,-1.52794c0.60709,-0.36368 1.30074,-0.50362 1.92468,-0.11309c0.46268,0.28963 0.63338,0.53901 1.22852,0.60032c0.3153,0.01378 0.62276,0.10278 0.89667,0.25956v0c0.29734,0.16811 0.55896,0.39271 0.77013,0.66117c0.21535,0.31743 0.3406,0.90076 0.60669,1.16041c0.46082,0.44968 0.48717,1.04566 0.2486,1.63344c-0.10826,0.26318 -0.31787,0.47173 -0.5816,0.57865c-0.38363,0.09805 -1.47016,-0.10775 -0.9575,0.68612c0.5457,0.84681 1.10004,0.51353 1.69974,1.25871c0.25119,0.31774 0.54276,3.42899 0.05205,3.33974c-0.4907,-0.08926 -0.97767,-0.02804 -1.46809,-0.09443v0c-0.979,-0.13662 -2.00814,-0.79082 -2.70998,-1.47569c-0.40102,-0.38945 -0.74928,-0.82527 -1.26668,-1.07232c-0.65348,-0.31397 -0.56629,0.58418 -0.83892,0.879c-0.42304,0.4586 -1.41712,0.64602 -1.77593,-0.02971c-0.62787,-1.1792 -0.89861,-3.22007 -2.86567,-2.5235c-0.98455,0.34353 -2.16056,1.07615 -3.26568,0.75246c-0.95024,-0.27795 -1.56112,-1.31448 -2.5745,-1.30208c-0.91813,0.01123 -1.65538,0.32507 -0.80344,1.28815c0.24146,0.27138 0.63471,0.64759 0.6927,1.0279c0.13688,0.91087 -0.01741,1.37951 -0.68198,2.02776c-0.26539,0.26425 -0.29543,0.14459 -0.62835,0.33918c-0.14531,0.12284 -0.30529,0.22719 -0.47628,0.31064c-0.77484,0.19999 -0.33658,0.98525 -0.26026,1.4625c0.07633,0.47725 0.43349,0.7072 0.65498,1.05885c0.03677,0.06052 0.06876,0.12384 0.09567,0.18934z" fill="#55372c"/><path d="M195.24225,224.73194c0,0 1.60138,-0.93048 1.78082,-1.8357c0.03645,-0.17778 0.06287,-0.35746 0.07915,-0.53821c0.02939,-0.40043 -0.03241,-0.7807 -0.41687,-1.06176c-0.09801,-0.06705 -0.17823,-0.15695 -0.23372,-0.26195c-0.24677,-0.54947 -0.23036,-0.92116 -0.86354,-1.1325c-1.29124,-0.4319 0.58785,-3.94491 1.56269,-3.85221c0.77603,0.05337 1.91242,0.44145 2.47548,0.99466c0.30188,0.28342 0.53767,0.62981 0.69064,1.01459c0.16155,0.4362 0.13733,0.94706 0.77823,0.54486c0.67304,-0.42355 1.40828,-0.9012 2.19824,-1.11091c0.11569,-0.03149 0.23305,-0.05645 0.35153,-0.07479c0.2317,-0.02845 0.46659,-0.01584 0.69392,0.03724c0.21009,0.04316 0.42989,0.10142 0.62094,0.14481c0.54897,0.10509 1.11098,0.12393 1.66575,0.05582c0.76857,-0.06805 1.26187,-0.04794 1.81423,0.2596c0.66762,0.37172 0.12545,2.41048 -0.00171,2.45015c-0.21381,0.05624 -0.43876,0.05439 -0.65162,-0.00536c-0.74761,-0.22137 -1.57591,-0.49891 -2.35732,-0.52364c-0.9701,-0.03195 -3.00765,-0.58046 -3.0359,1.00304c-0.01164,0.60597 0.1418,1.31279 -0.0186,1.90534c-0.37168,1.38575 -2.09579,2.47751 -3.26084,3.1719c-0.7905,0.47642 -1.79875,0.90789 -2.3861,1.63902c-0.24204,0.30397 -0.59035,0.64163 -0.65592,1.0444c-0.16056,0.4757 0.0047,0.85089 0.49576,1.12557c0.15559,-0.05144 0.30537,-0.11042 0.45513,-0.17131c0.88413,-0.29849 1.42676,-1.10337 2.28733,-1.45872c0.60592,-0.27905 1.26321,-0.42916 1.93019,-0.44084c1.11084,0.01308 1.84235,0.94335 3.02196,0.50408c0.89514,-0.33291 1.64262,-0.90026 2.47534,-1.35243c0.35877,-0.19552 0.82545,-0.54742 1.33172,-0.53501c0.22546,0.00553 0.29808,1.97776 0.52984,2.39023c0.30382,0.54115 -0.16548,1.77041 -0.5751,2.08023c-0.95512,0.72419 -2.18382,0.88783 -3.27567,1.33746c-1.14868,0.47509 -2.29321,0.97871 -3.45572,1.41396c-0.61652,0.24594 -1.28487,0.33337 -1.94391,0.2543c-0.56466,-0.06168 -1.10862,-0.29887 -1.68037,-0.31664c-0.52233,0.01383 -1.04501,-0.00587 -1.56482,-0.05897c-0.61652,-0.09534 -1.36354,-0.47362 -1.36354,-0.47362z" fill="#55372c"/></g><path d="M195.21453,181.00757c1.32195,-0.01617 2.80816,0.15806 4.1062,-0.09977c0.89328,-0.17287 1.3952,-0.56956 1.3414,-1.5405c-0.03953,-0.42812 -0.0448,-0.8587 -0.01576,-1.28766c0.07547,-0.68295 0.25894,-1.25863 0.87552,-1.62434c0.8795,-0.52133 2.15447,-0.17305 2.96067,0.32194c0.99044,0.60514 1.52903,1.49395 2.17295,2.42719c0.43633,0.62716 0.95318,1.29715 1.63596,1.66982c0.49101,0.27023 1.3652,0.61368 1.84885,0.90497c0.31886,0.19204 0.03094,14.63994 -0.64251,14.87232c-0.84501,0.29158 -1.72526,0.39853 -2.56914,0.05369c-1.4092,-0.57525 -0.90125,-1.56831 0.0669,-2.31743c0.29438,-0.23031 0.61587,-0.42476 0.92188,-0.63806c0.22293,-0.15323 1.17618,-0.71928 0.62364,-1.1907c-0.27737,-0.25691 -0.59217,-0.47018 -0.93362,-0.63251c-1.11012,0.04597 -2.12665,0.42228 -3.11528,0.89923c-1.92804,0.92851 -3.60504,1.35483 -5.75917,1.0878c-1.94995,-0.23904 -4.80805,-12.8902 -3.51849,-12.90598z" fill="#805336" stroke="none" stroke-width="1" stroke-linecap="butt"/><path d="M194.86194,227.81924l13.37803,-0.11751" fill="#5a4600" stroke="#000000" stroke-width="0.5" stroke-linecap="round"/><path d="M194.89305,205.45706c0,0 -0.46452,-6.55814 -0.52728,-10.5459c-0.07299,-4.63822 0.40465,-15.62801 0.40465,-15.62801l7.44663,0.50106c0,0 -0.27159,9.50901 -0.18886,13.99169c0.07654,4.14737 0.10925,10.85908 0.10925,10.85908z" fill="none" stroke="#000000" stroke-width="0.5" stroke-linecap="butt"/><path d="M285.13804,228.07786l-13.37803,-0.11751" data-paper-data="{&quot;index&quot;:null}" fill="#5a4600" stroke="#000000" stroke-width="0.5" stroke-linecap="round"/><path d="M277.86258,204.8936c0,0 0.03271,-6.71171 0.10925,-10.85908c0.08273,-4.48268 -0.18886,-13.99169 -0.18886,-13.99169l7.44663,-0.50106c0,0 0.47764,10.98979 0.40465,15.62801c-0.06276,3.98776 -0.52728,10.5459 -0.52728,10.5459z" data-paper-data="{&quot;index&quot;:null}" fill="none" stroke="#000000" stroke-width="0.5" stroke-linecap="butt"/><path d="M269.83826,183.58159c0.29095,0.04715 0.56372,0.17218 0.78933,0.36184c0.35226,0.2967 1.09822,1.0058 1.1044,1.51058c0.00259,0.36766 0.67758,0.57086 0.94754,0.83618c0.24943,0.20912 0.44371,0.47625 0.56581,0.77798c0.14471,0.46117 0.08806,0.96863 0.42244,1.3608c0.22029,0.24383 0.41504,0.50956 0.58123,0.79304c0.17924,0.31299 0.24748,0.67737 0.19363,1.03401c-0.12395,0.61306 0.15705,1.00207 0.29357,1.57194c0.14261,0.60027 0.12054,1.13207 -0.4857,1.41001c-0.60624,0.27795 -1.25171,0.3068 -1.86231,0.53907c-0.4451,0.14799 -0.88068,0.32319 -1.3043,0.52462c-0.59627,0.31402 -0.34715,0.89965 -0.35201,1.43695c-0.00048,0.08338 -0.03408,0.16315 -0.09338,0.22176c-0.05931,0.0586 -0.13948,0.09124 -0.22285,0.09073c-0.69577,-0.0334 -0.81995,-12.44344 -0.5774,-12.46951z" fill="#55372c" stroke="none" stroke-width="1" stroke-linecap="butt"/><path d="M208.40207,235.59168l-10.90069,0.19813c0,0 -1.00343,-0.38782 -1.58119,-0.9734c-0.92388,-0.93639 -1.54302,-2.22171 -1.13714,-2.05415c0.54957,0.22951 0.67995,0.42025 1.29647,0.51559c0.51981,0.0531 1.04248,0.0728 1.56482,0.05897c0.57175,0.01777 1.10808,0.25506 1.68037,0.31664c0.66077,0.08063 1.33121,-0.00619 1.94964,-0.25247c1.16253,-0.43335 2.30703,-0.93887 3.45572,-1.41396c1.09184,-0.44963 2.32054,-0.61326 3.27567,-1.33746c0.40961,-0.30983 0.39089,-2.74505 0.59784,-2.9888z" fill="#c8bc80" stroke="none" stroke-width="1" stroke-linecap="butt"/><path d="M218.12533,220.90706c-0.31979,0.17728 -0.77019,0.26852 -1.14987,0.37794c-0.26654,0.0147 -0.5331,0.02747 -0.78834,0.0306c-0.84386,0.00842 -2.22236,-0.23762 -2.93481,0.39026c-0.06705,0.06062 0.42447,-3.91482 0.52663,-7.67975c0.09112,-3.35832 0.50765,-6.55855 0.50765,-6.55855c0,0 2.85455,-0.04812 4.21831,-1.31836c0.09701,-0.09232 0.11807,-0.23911 0.0509,-0.35497c-0.79315,-1.14098 -2.89329,-1.19911 -4.07132,-0.78653c-0.41642,0.16503 0.08524,-2.70231 0.08524,-2.70231c0.82571,-0.01011 4.02209,1.73153 7.34051,1.11977c2.89218,-0.53319 5.68749,1.12562 6.29886,1.75372c0.24346,0.21244 0.38563,0.51801 0.39131,0.84108c-0.01723,0.77178 0.13318,1.07476 0.94015,1.16586c0.70354,0.10324 1.39537,0.2747 2.06569,0.51196c1.07687,0.3507 2.98971,0.98266 2.81705,2.44217c-0.10032,0.83185 -0.90946,1.80955 -1.81815,2.43602c-0.44845,0.33664 -0.97457,0.55472 -1.52966,0.63407c-0.44197,0.03246 -0.88628,0.00586 -1.3212,-0.07909c-0.60715,-0.10878 -1.19236,-0.29213 -1.83606,-0.42905c-1.4307,-0.30827 -2.85765,0.15689 -4.31103,0.17467c-0.68764,0.00841 -1.41811,0.09736 -2.096,-0.03151v0c-0.60167,-0.12788 -1.21321,-0.20389 -1.82788,-0.2272c-1.08043,-0.01917 -2.36814,0.91872 -2.36553,0.98531c-0.01261,0.62734 -0.30874,1.21519 -0.80535,1.59871c-0.13378,0.12166 -0.29607,0.24748 -0.44106,0.38642c-0.17607,0.15112 -0.16181,0.30499 -0.22192,0.5291c-0.12425,0.5883 0.06897,1.23058 0.62716,1.5419c0.55819,0.31133 1.07229,0.67942 1.52101,1.07399c0.22533,0.19576 0.41122,0.57334 0.54769,0.83881c0.30456,0.6021 0.1574,1.03064 -0.41994,1.3349z" fill="#67633d" stroke="none" stroke-width="1" stroke-linecap="butt"/><path d="M237.71925,146.27472c-0.01196,2.10622 0.38674,32.00407 0.30333,52.56829c-0.08341,20.56422 -0.68083,38.59892 -0.67482,39.01903" data-paper-data="{&quot;index&quot;:null}" fill="none" stroke="#000000" stroke-width="0.5" stroke-linecap="round"/><path d="M237.75555,146.16874c-0.00306,0.39819 6.36403,-0.11967 6.36403,-0.11967c0,0 0.03162,31.99703 -0.04581,52.52866c-0.07743,20.53163 -0.30783,38.64966 -0.29964,39.07269" data-paper-data="{&quot;index&quot;:null}" fill="none" stroke="#000000" stroke-width="0.5" stroke-linecap="round"/><path d="M210.48175,168.8887c0,0 0.47537,2.93837 0.22766,7.80514c-0.11406,2.24091 -0.43072,8.77484 -0.80075,16.45985c-0.22843,4.74402 -1.76314,34.46561 -1.76314,34.46561l0.47188,-0.02163l-0.08602,8.20693l-13.82048,0.20298l0.14548,-8.30562c0,0 0.3237,-0.01298 0.32206,-0.05227c-0.10645,-2.54322 -0.19103,-11.97986 -0.30042,-21.96622c-0.03259,-2.97535 -0.36133,-5.68066 -0.43947,-8.50902c-0.10144,-3.6715 0.04953,-7.3522 0.06831,-10.05803c0.02659,-3.82947 0.33295,-7.74302 0.33295,-7.74302l0.25225,-2.51857l-1.19144,-0.26913c0,0 1.13425,-10.09297 2.22961,-17.61971c0.66601,-4.57649 1.49997,-8.04797 1.5296,-8.17612c2.74068,-11.85138 3.33476,-13.29948 4.42436,-14.61796c1.34336,-1.62553 22.58074,-9.39177 22.58074,-9.39177c0,0 -14.0669,17.43635 -14.58037,25.37403c-0.50225,7.7643 -0.64964,10.96539 0.21269,15.74787c1.54899,8.59073 3.26589,19.16144 4.07717,26.61417c0.01703,0.15647 0.24799,8.16939 -0.36503,17.10251c-0.65125,9.49034 -2.19411,25.52809 -2.19411,25.52809c0,0 25.6068,0.79406 25.61098,0.83557" fill="none" stroke="#000000" stroke-width="0.5" stroke-linecap="round"/><path d="M193.95701,176.61691c0,0 1.81315,-15.3953 2.12078,-17.25519c0.06838,-0.41344 -0.30406,-0.05287 -0.24972,-0.39273c0.52229,-3.26671 1.30971,-8.09617 1.30971,-8.09617l10.05334,1.92594c0,0 -1.04882,4.8301 -1.53968,8.10725c-0.02496,0.16665 -0.35062,-0.2725 -0.37445,-0.11341c-0.7092,4.73481 -2.5959,17.63224 -2.5959,17.63224z" fill="#9c8856" stroke="#000000" stroke-width="0.5" stroke-linecap="butt"/><path d="M195.9523,159.03143c1.33461,0.16216 9.39606,1.72206 9.39606,1.72206" fill="#9c8856" stroke="#000000" stroke-width="0.5" stroke-linecap="round"/><path d="M247.56479,156.78267l-0.01534,-2.66009l21.35855,-0.01224l-0.01214,2.80947z" data-paper-data="{&quot;index&quot;:null}" fill="#9c8856" stroke="#000000" stroke-width="0.5" stroke-linecap="butt"/><path d="M211.83959,156.87831l-0.01214,-2.80947l21.35855,0.01224l-0.01534,2.66009z" data-paper-data="{&quot;index&quot;:null}" fill="#9c8856" stroke="#000000" stroke-width="0.5" stroke-linecap="butt"/><path d="M251.03041,121.35638c0,0 -4.2193,9.41874 -6.54468,13.81095c-2.05303,3.87779 -6.54393,10.83749 -6.54393,10.83749c0,0 -0.19602,0.29959 -0.08454,0.24285c0.59633,-0.30348 3.13727,-1.824 4.82283,-2.59117c2.19509,-0.99908 7.45252,-2.47828 7.45252,-2.47828l0.94397,-19.75209c0,0 4.14097,4.83277 5.98734,7.66221c0.8374,1.28324 1.99505,3.31668 3.0198,5.17412c1.2695,2.30105 0.67642,4.24721 -0.55755,4.18412c-2.19281,-0.11211 -9.13426,-0.46701 -9.13426,-0.46701" fill="none" stroke="#000000" stroke-width="0.5" stroke-linecap="round"/><path d="M229.64483,137.96114c0,0 -7.49347,0.39762 -9.60629,0.50973c-1.04023,0.05519 -1.40175,-1.64301 -0.24704,-3.74768c1.08282,-1.97363 2.36603,-4.24457 3.27329,-5.63489c1.84637,-2.82944 5.92818,-7.54393 5.92818,-7.54393l0.84675,19.67291c0,0 -0.09751,1.37619 3.57858,2.8985c2.19842,0.91039 4.19613,1.18341 4.98633,0.9817c0.29599,-0.07555 0.32197,-0.39315 0.32197,-0.39315c0,0 -3.41493,-6.51083 -5.1052,-10.48089c-1.4269,-3.35145 -4.58945,-12.62613 -4.58945,-12.62613" data-paper-data="{&quot;index&quot;:null}" fill="none" stroke="#000000" stroke-width="0.5" stroke-linecap="round"/><path d="M197.76765,150.28304l0.61452,-2.55522l4.26831,0.93293l-0.51833,2.48588z" data-paper-data="{&quot;index&quot;:null}" fill="#9c8856" stroke="#000000" stroke-width="0.5" stroke-linecap="butt"/><path d="M197.53143,150.20431l0.53578,-2.55522l2.37855,0.53922l-0.51833,2.52525z" data-paper-data="{&quot;index&quot;:null}" fill="#b6ab8d" stroke="#000000" stroke-width="0.5" stroke-linecap="butt"/><path d="M277.79517,151.3759l-0.51833,-2.48588l4.26831,-0.93293l0.61452,2.55522z" data-paper-data="{&quot;index&quot;:null}" fill="#9c8856" stroke="#000000" stroke-width="0.5" stroke-linecap="butt"/><path d="M237.4683,238.05918c0.00418,-0.04151 30.72462,-0.66512 30.72462,-0.66512c0,0 -1.54286,-16.03775 -2.19411,-25.52809c-0.61302,-8.93312 -0.38206,-16.94604 -0.36503,-17.10251c0.81128,-7.45273 2.52818,-18.02344 4.07717,-26.61417c0.86233,-4.78248 0.71494,-7.98357 0.21269,-15.74787c-0.51347,-7.93768 -14.21673,-25.28312 -14.21673,-25.28312c0,0 20.87374,7.67534 22.2171,9.30087c1.08961,1.31848 1.68368,2.76658 4.42436,14.61796c0.02963,0.12815 0.86359,3.59963 1.5296,8.17612c1.09536,7.52674 2.22961,17.61971 2.22961,17.61971l-1.19144,0.26913l0.25225,2.51857c0,0 0.30636,3.91355 0.33295,7.74302c0.01878,2.70583 0.16975,6.38653 0.06831,10.05803c-0.07814,2.82836 -0.40688,5.53367 -0.43947,8.50902c-0.10939,9.98636 -0.19397,19.423 -0.30042,21.96622c-0.00164,0.03929 0.32206,0.05227 0.32206,0.05227l0.14548,8.30562l-13.82048,-0.20298l-0.08602,-8.20693l0.47188,0.02163c0,0 -1.53471,-29.72159 -1.76314,-34.46561c-0.37003,-7.68501 -0.68669,-14.21894 -0.80075,-16.45985c-0.24771,-4.86677 0.22766,-7.80514 0.22766,-7.80514" data-paper-data="{&quot;index&quot;:null}" fill="none" stroke="#000000" stroke-width="0.5" stroke-linecap="round"/><path d="M277.31892,178.68346c0,0 -1.8867,-12.89743 -2.5959,-17.63224c-0.02383,-0.15909 -0.34949,0.28006 -0.37445,0.11341c-0.49086,-3.27715 -1.53968,-8.10725 -1.53968,-8.10725l10.05334,-1.92594c0,0 0.78742,4.82946 1.30971,8.09617c0.05434,0.33986 -0.3181,-0.02071 -0.24972,0.39273c0.30763,1.85989 2.12078,17.25519 2.12078,17.25519z" data-paper-data="{&quot;index&quot;:null}" fill="#9c8856" stroke="#000000" stroke-width="0.5" stroke-linecap="butt"/><path d="M274.65164,161.01209c0,0 8.06145,-1.5599 9.39606,-1.72206" data-paper-data="{&quot;index&quot;:null}" fill="#9c8856" stroke="#000000" stroke-width="0.5" stroke-linecap="round"/><path d="M273.35013,224.5797l-0.76403,-17.63544l6.26,-0.35076l0.80262,17.63375z" data-paper-data="{&quot;index&quot;:null}" fill="none" stroke="#000000" stroke-width="0.5" stroke-linecap="butt"/><path d="M276.56275,224.31916l-0.88542,-17.23958" fill="none" stroke="#000000" stroke-width="0.5" stroke-linecap="round"/><path d="M237.89471,167.15643l0.01014,-6.40404l6.26936,-0.02753l0.02849,6.40404z" data-paper-data="{&quot;index&quot;:null}" fill="#9c8856" stroke="#000000" stroke-width="0.5" stroke-linecap="butt"/><path d="M280.15614,150.94284l-0.51833,-2.52525l2.37855,-0.53922l0.53578,2.55522z" data-paper-data="{&quot;index&quot;:null}" fill="#b6ab8d" stroke="#000000" stroke-width="0.5" stroke-linecap="butt"/></g></g></g></svg>