<svg version="1.1" xmlns="http://www.w3.org/2000/svg" xmlns:xlink="http://www.w3.org/1999/xlink" width="90.788" height="122.28069" viewBox="0,0,90.788,122.28069"><defs><linearGradient x1="240.59172" y1="161.69663" x2="240.59172" y2="162.34629" gradientUnits="userSpaceOnUse" id="color-1"><stop offset="0" stop-color="#f1f1f1"/><stop offset="1" stop-color="#bababa"/></linearGradient><linearGradient x1="240.59355" y1="161.52546" x2="240.59355" y2="162.26687" gradientUnits="userSpaceOnUse" id="color-2"><stop offset="0" stop-color="#bababa"/><stop offset="1" stop-color="#f1f1f1"/></linearGradient><linearGradient x1="240.5858" y1="162.3356" x2="240.5858" y2="163.73769" gradientUnits="userSpaceOnUse" id="color-3"><stop offset="0" stop-color="#bababa"/><stop offset="1" stop-color="#f1f1f1"/></linearGradient><linearGradient x1="240.18957" y1="162.91885" x2="241.01541" y2="162.91885" gradientUnits="userSpaceOnUse" id="color-4"><stop offset="0" stop-color="#f1f1f1"/><stop offset="1" stop-color="#bababa"/></linearGradient><linearGradient x1="239.29668" y1="161.19579" x2="240.00792" y2="161.19579" gradientUnits="userSpaceOnUse" id="color-5"><stop offset="0" stop-color="#f1f1f1"/><stop offset="1" stop-color="#bababa"/></linearGradient><linearGradient x1="239.32981" y1="161.42307" x2="240.1324" y2="161.42307" gradientUnits="userSpaceOnUse" id="color-6"><stop offset="0" stop-color="#f1f1f1"/><stop offset="1" stop-color="#bababa"/></linearGradient><linearGradient x1="239.47529" y1="161.65526" x2="240.21711" y2="161.65526" gradientUnits="userSpaceOnUse" id="color-7"><stop offset="0" stop-color="#f1f1f1"/><stop offset="1" stop-color="#bababa"/></linearGradient><linearGradient x1="239.67353" y1="161.83004" x2="240.32652" y2="161.83004" gradientUnits="userSpaceOnUse" id="color-8"><stop offset="0" stop-color="#f1f1f1"/><stop offset="1" stop-color="#bababa"/></linearGradient><linearGradient x1="239.80559" y1="161.92768" x2="240.4073" y2="161.92768" gradientUnits="userSpaceOnUse" id="color-9"><stop offset="0" stop-color="#f1f1f1"/><stop offset="1" stop-color="#bababa"/></linearGradient><linearGradient x1="239.93176" y1="162.00536" x2="240.45877" y2="162.00536" gradientUnits="userSpaceOnUse" id="color-10"><stop offset="0" stop-color="#f1f1f1"/><stop offset="1" stop-color="#bababa"/></linearGradient><linearGradient x1="240.23374" y1="163.16981" x2="240.56761" y2="163.16981" gradientUnits="userSpaceOnUse" id="color-11"><stop offset="0" stop-color="#f1f1f1"/><stop offset="1" stop-color="#bababa"/></linearGradient><linearGradient x1="240.54552" y1="162.82979" x2="240.67691" y2="162.82979" gradientUnits="userSpaceOnUse" id="color-12"><stop offset="0" stop-color="#f1f1f1"/><stop offset="1" stop-color="#bababa"/></linearGradient><linearGradient x1="240.64461" y1="163.16881" x2="240.96955" y2="163.16881" gradientUnits="userSpaceOnUse" id="color-13"><stop offset="0" stop-color="#f1f1f1"/><stop offset="1" stop-color="#bababa"/></linearGradient><linearGradient x1="240.5456" y1="163.06201" x2="240.66672" y2="163.06201" gradientUnits="userSpaceOnUse" id="color-14"><stop offset="0" stop-color="#f1f1f1"/><stop offset="1" stop-color="#bababa"/></linearGradient><linearGradient x1="241.91656" y1="161.18979" x2="241.20532" y2="161.18979" gradientUnits="userSpaceOnUse" id="color-15"><stop offset="0" stop-color="#f1f1f1"/><stop offset="1" stop-color="#bababa"/></linearGradient><linearGradient x1="241.88343" y1="161.41706" x2="241.08084" y2="161.41706" gradientUnits="userSpaceOnUse" id="color-16"><stop offset="0" stop-color="#f1f1f1"/><stop offset="1" stop-color="#bababa"/></linearGradient><linearGradient x1="241.73795" y1="161.64925" x2="240.99613" y2="161.64925" gradientUnits="userSpaceOnUse" id="color-17"><stop offset="0" stop-color="#f1f1f1"/><stop offset="1" stop-color="#bababa"/></linearGradient><linearGradient x1="241.53971" y1="161.82403" x2="240.88672" y2="161.82403" gradientUnits="userSpaceOnUse" id="color-18"><stop offset="0" stop-color="#f1f1f1"/><stop offset="1" stop-color="#bababa"/></linearGradient><linearGradient x1="241.40765" y1="161.92166" x2="240.80593" y2="161.92166" gradientUnits="userSpaceOnUse" id="color-19"><stop offset="0" stop-color="#f1f1f1"/><stop offset="1" stop-color="#bababa"/></linearGradient><linearGradient x1="241.28148" y1="161.99935" x2="240.75447" y2="161.99935" gradientUnits="userSpaceOnUse" id="color-20"><stop offset="0" stop-color="#f1f1f1"/><stop offset="1" stop-color="#bababa"/></linearGradient><linearGradient x1="240.1059" y1="162.13107" x2="240.55735" y2="162.13107" gradientUnits="userSpaceOnUse" id="color-21"><stop offset="0" stop-color="#f1f1f1"/><stop offset="1" stop-color="#bababa"/></linearGradient><linearGradient x1="241.0828" y1="162.13241" x2="240.63135" y2="162.13241" gradientUnits="userSpaceOnUse" id="color-22"><stop offset="0" stop-color="#f1f1f1"/><stop offset="1" stop-color="#bababa"/></linearGradient><linearGradient x1="239.94017" y1="161.4339" x2="240.50689" y2="161.4339" gradientUnits="userSpaceOnUse" id="color-23"><stop offset="0" stop-color="#f1f1f1"/><stop offset="1" stop-color="#bababa"/></linearGradient><linearGradient x1="241.27542" y1="161.43629" x2="240.7087" y2="161.43629" gradientUnits="userSpaceOnUse" id="color-24"><stop offset="0" stop-color="#f1f1f1"/><stop offset="1" stop-color="#bababa"/></linearGradient><linearGradient x1="240.57464" y1="181.63491" x2="240.57464" y2="182.28456" gradientUnits="userSpaceOnUse" id="color-25"><stop offset="0" stop-color="#f1f1f1"/><stop offset="1" stop-color="#bababa"/></linearGradient><linearGradient x1="240.57648" y1="181.46371" x2="240.57648" y2="182.20514" gradientUnits="userSpaceOnUse" id="color-26"><stop offset="0" stop-color="#bababa"/><stop offset="1" stop-color="#f1f1f1"/></linearGradient><linearGradient x1="240.56873" y1="182.27388" x2="240.56873" y2="183.67596" gradientUnits="userSpaceOnUse" id="color-27"><stop offset="0" stop-color="#bababa"/><stop offset="1" stop-color="#f1f1f1"/></linearGradient><linearGradient x1="240.17249" y1="182.85714" x2="240.99833" y2="182.85714" gradientUnits="userSpaceOnUse" id="color-28"><stop offset="0" stop-color="#f1f1f1"/><stop offset="1" stop-color="#bababa"/></linearGradient><linearGradient x1="239.27961" y1="181.13406" x2="239.99084" y2="181.13406" gradientUnits="userSpaceOnUse" id="color-29"><stop offset="0" stop-color="#f1f1f1"/><stop offset="1" stop-color="#bababa"/></linearGradient><linearGradient x1="239.31273" y1="181.36135" x2="240.11532" y2="181.36135" gradientUnits="userSpaceOnUse" id="color-30"><stop offset="0" stop-color="#f1f1f1"/><stop offset="1" stop-color="#bababa"/></linearGradient><linearGradient x1="239.45821" y1="181.59353" x2="240.20004" y2="181.59353" gradientUnits="userSpaceOnUse" id="color-31"><stop offset="0" stop-color="#f1f1f1"/><stop offset="1" stop-color="#bababa"/></linearGradient><linearGradient x1="239.65645" y1="181.76831" x2="240.30944" y2="181.76831" gradientUnits="userSpaceOnUse" id="color-32"><stop offset="0" stop-color="#f1f1f1"/><stop offset="1" stop-color="#bababa"/></linearGradient><linearGradient x1="239.78851" y1="181.86593" x2="240.39023" y2="181.86593" gradientUnits="userSpaceOnUse" id="color-33"><stop offset="0" stop-color="#f1f1f1"/><stop offset="1" stop-color="#bababa"/></linearGradient><linearGradient x1="239.91468" y1="181.94364" x2="240.4417" y2="181.94364" gradientUnits="userSpaceOnUse" id="color-34"><stop offset="0" stop-color="#f1f1f1"/><stop offset="1" stop-color="#bababa"/></linearGradient><linearGradient x1="240.21666" y1="183.10808" x2="240.55053" y2="183.10808" gradientUnits="userSpaceOnUse" id="color-35"><stop offset="0" stop-color="#f1f1f1"/><stop offset="1" stop-color="#bababa"/></linearGradient><linearGradient x1="240.52845" y1="182.76807" x2="240.65983" y2="182.76807" gradientUnits="userSpaceOnUse" id="color-36"><stop offset="0" stop-color="#f1f1f1"/><stop offset="1" stop-color="#bababa"/></linearGradient><linearGradient x1="240.62753" y1="183.10707" x2="240.95247" y2="183.10707" gradientUnits="userSpaceOnUse" id="color-37"><stop offset="0" stop-color="#f1f1f1"/><stop offset="1" stop-color="#bababa"/></linearGradient><linearGradient x1="240.52852" y1="183.00028" x2="240.64964" y2="183.00028" gradientUnits="userSpaceOnUse" id="color-38"><stop offset="0" stop-color="#f1f1f1"/><stop offset="1" stop-color="#bababa"/></linearGradient><linearGradient x1="241.89948" y1="181.12806" x2="241.18825" y2="181.12806" gradientUnits="userSpaceOnUse" id="color-39"><stop offset="0" stop-color="#f1f1f1"/><stop offset="1" stop-color="#bababa"/></linearGradient><linearGradient x1="241.86635" y1="181.35534" x2="241.06377" y2="181.35534" gradientUnits="userSpaceOnUse" id="color-40"><stop offset="0" stop-color="#f1f1f1"/><stop offset="1" stop-color="#bababa"/></linearGradient><linearGradient x1="241.72088" y1="181.58753" x2="240.97905" y2="181.58753" gradientUnits="userSpaceOnUse" id="color-41"><stop offset="0" stop-color="#f1f1f1"/><stop offset="1" stop-color="#bababa"/></linearGradient><linearGradient x1="241.52264" y1="181.7623" x2="240.86965" y2="181.7623" gradientUnits="userSpaceOnUse" id="color-42"><stop offset="0" stop-color="#f1f1f1"/><stop offset="1" stop-color="#bababa"/></linearGradient><linearGradient x1="241.39058" y1="181.85994" x2="240.78886" y2="181.85994" gradientUnits="userSpaceOnUse" id="color-43"><stop offset="0" stop-color="#f1f1f1"/><stop offset="1" stop-color="#bababa"/></linearGradient><linearGradient x1="241.26441" y1="181.93763" x2="240.73739" y2="181.93763" gradientUnits="userSpaceOnUse" id="color-44"><stop offset="0" stop-color="#f1f1f1"/><stop offset="1" stop-color="#bababa"/></linearGradient><linearGradient x1="240.08882" y1="182.06933" x2="240.54028" y2="182.06933" gradientUnits="userSpaceOnUse" id="color-45"><stop offset="0" stop-color="#f1f1f1"/><stop offset="1" stop-color="#bababa"/></linearGradient><linearGradient x1="241.06573" y1="182.07068" x2="240.61427" y2="182.07068" gradientUnits="userSpaceOnUse" id="color-46"><stop offset="0" stop-color="#f1f1f1"/><stop offset="1" stop-color="#bababa"/></linearGradient><linearGradient x1="239.92309" y1="181.37217" x2="240.48982" y2="181.37217" gradientUnits="userSpaceOnUse" id="color-47"><stop offset="0" stop-color="#f1f1f1"/><stop offset="1" stop-color="#bababa"/></linearGradient><linearGradient x1="241.25835" y1="181.37456" x2="240.69162" y2="181.37456" gradientUnits="userSpaceOnUse" id="color-48"><stop offset="0" stop-color="#f1f1f1"/><stop offset="1" stop-color="#bababa"/></linearGradient><linearGradient x1="240.52999" y1="202.02629" x2="240.52999" y2="202.67594" gradientUnits="userSpaceOnUse" id="color-49"><stop offset="0" stop-color="#f1f1f1"/><stop offset="1" stop-color="#bababa"/></linearGradient><linearGradient x1="240.53182" y1="201.85511" x2="240.53182" y2="202.59652" gradientUnits="userSpaceOnUse" id="color-50"><stop offset="0" stop-color="#bababa"/><stop offset="1" stop-color="#f1f1f1"/></linearGradient><linearGradient x1="240.52407" y1="202.66526" x2="240.52407" y2="204.06734" gradientUnits="userSpaceOnUse" id="color-51"><stop offset="0" stop-color="#bababa"/><stop offset="1" stop-color="#f1f1f1"/></linearGradient><linearGradient x1="240.12784" y1="203.24852" x2="240.95368" y2="203.24852" gradientUnits="userSpaceOnUse" id="color-52"><stop offset="0" stop-color="#f1f1f1"/><stop offset="1" stop-color="#bababa"/></linearGradient><linearGradient x1="239.23495" y1="201.52544" x2="239.94619" y2="201.52544" gradientUnits="userSpaceOnUse" id="color-53"><stop offset="0" stop-color="#f1f1f1"/><stop offset="1" stop-color="#bababa"/></linearGradient><linearGradient x1="239.26808" y1="201.75273" x2="240.07067" y2="201.75273" gradientUnits="userSpaceOnUse" id="color-54"><stop offset="0" stop-color="#f1f1f1"/><stop offset="1" stop-color="#bababa"/></linearGradient><linearGradient x1="239.41356" y1="201.98491" x2="240.15538" y2="201.98491" gradientUnits="userSpaceOnUse" id="color-55"><stop offset="0" stop-color="#f1f1f1"/><stop offset="1" stop-color="#bababa"/></linearGradient><linearGradient x1="239.6118" y1="202.15969" x2="240.26479" y2="202.15969" gradientUnits="userSpaceOnUse" id="color-56"><stop offset="0" stop-color="#f1f1f1"/><stop offset="1" stop-color="#bababa"/></linearGradient><linearGradient x1="239.74386" y1="202.25733" x2="240.34557" y2="202.25733" gradientUnits="userSpaceOnUse" id="color-57"><stop offset="0" stop-color="#f1f1f1"/><stop offset="1" stop-color="#bababa"/></linearGradient><linearGradient x1="239.87003" y1="202.33502" x2="240.39704" y2="202.33502" gradientUnits="userSpaceOnUse" id="color-58"><stop offset="0" stop-color="#f1f1f1"/><stop offset="1" stop-color="#bababa"/></linearGradient><linearGradient x1="240.17201" y1="203.49946" x2="240.50588" y2="203.49946" gradientUnits="userSpaceOnUse" id="color-59"><stop offset="0" stop-color="#f1f1f1"/><stop offset="1" stop-color="#bababa"/></linearGradient><linearGradient x1="240.48379" y1="203.15945" x2="240.61518" y2="203.15945" gradientUnits="userSpaceOnUse" id="color-60"><stop offset="0" stop-color="#f1f1f1"/><stop offset="1" stop-color="#bababa"/></linearGradient><linearGradient x1="240.58288" y1="203.49846" x2="240.90782" y2="203.49846" gradientUnits="userSpaceOnUse" id="color-61"><stop offset="0" stop-color="#f1f1f1"/><stop offset="1" stop-color="#bababa"/></linearGradient><linearGradient x1="240.48387" y1="203.39166" x2="240.60499" y2="203.39166" gradientUnits="userSpaceOnUse" id="color-62"><stop offset="0" stop-color="#f1f1f1"/><stop offset="1" stop-color="#bababa"/></linearGradient><linearGradient x1="241.85483" y1="201.51944" x2="241.14359" y2="201.51944" gradientUnits="userSpaceOnUse" id="color-63"><stop offset="0" stop-color="#f1f1f1"/><stop offset="1" stop-color="#bababa"/></linearGradient><linearGradient x1="241.8217" y1="201.74672" x2="241.01911" y2="201.74672" gradientUnits="userSpaceOnUse" id="color-64"><stop offset="0" stop-color="#f1f1f1"/><stop offset="1" stop-color="#bababa"/></linearGradient><linearGradient x1="241.67622" y1="201.97891" x2="240.9344" y2="201.97891" gradientUnits="userSpaceOnUse" id="color-65"><stop offset="0" stop-color="#f1f1f1"/><stop offset="1" stop-color="#bababa"/></linearGradient><linearGradient x1="241.47798" y1="202.15368" x2="240.82499" y2="202.15368" gradientUnits="userSpaceOnUse" id="color-66"><stop offset="0" stop-color="#f1f1f1"/><stop offset="1" stop-color="#bababa"/></linearGradient><linearGradient x1="241.34592" y1="202.25132" x2="240.7442" y2="202.25132" gradientUnits="userSpaceOnUse" id="color-67"><stop offset="0" stop-color="#f1f1f1"/><stop offset="1" stop-color="#bababa"/></linearGradient><linearGradient x1="241.21975" y1="202.32901" x2="240.69274" y2="202.32901" gradientUnits="userSpaceOnUse" id="color-68"><stop offset="0" stop-color="#f1f1f1"/><stop offset="1" stop-color="#bababa"/></linearGradient><linearGradient x1="240.04417" y1="202.46071" x2="240.49562" y2="202.46071" gradientUnits="userSpaceOnUse" id="color-69"><stop offset="0" stop-color="#f1f1f1"/><stop offset="1" stop-color="#bababa"/></linearGradient><linearGradient x1="241.02107" y1="202.46206" x2="240.56962" y2="202.46206" gradientUnits="userSpaceOnUse" id="color-70"><stop offset="0" stop-color="#f1f1f1"/><stop offset="1" stop-color="#bababa"/></linearGradient><linearGradient x1="239.87844" y1="201.76355" x2="240.44516" y2="201.76355" gradientUnits="userSpaceOnUse" id="color-71"><stop offset="0" stop-color="#f1f1f1"/><stop offset="1" stop-color="#bababa"/></linearGradient><linearGradient x1="241.21369" y1="201.76594" x2="240.64697" y2="201.76594" gradientUnits="userSpaceOnUse" id="color-72"><stop offset="0" stop-color="#f1f1f1"/><stop offset="1" stop-color="#bababa"/></linearGradient></defs><g transform="translate(-194.5982,-118.66691)"><g data-paper-data="{&quot;isPaintingLayer&quot;:true}" fill-rule="nonzero" stroke-linejoin="miter" stroke-miterlimit="10" stroke-dasharray="" stroke-dashoffset="0" style="mix-blend-mode: normal"><path d="" fill="#00a3a3" stroke="#aaadc9" stroke-width="0" stroke-linecap="butt"/><g stroke-linecap="butt"><path d="" fill="#c9cce9" stroke="#b1b5cd" stroke-width="1"/><path d="" fill="#000000" stroke="#000000" stroke-width="0"/><path d="" fill="#000000" stroke="#000000" stroke-width="0"/><path d="" fill="#000000" stroke="#000000" stroke-width="0"/><path d="" fill="#000000" stroke="#000000" stroke-width="0"/></g><g stroke-linecap="butt"><path d="" fill="#c9cce9" stroke="#b1b5cd" stroke-width="1"/><path d="" fill="#000000" stroke="#000000" stroke-width="0"/><path d="" fill="#000000" stroke="#000000" stroke-width="0"/><path d="" fill="#000000" stroke="#000000" stroke-width="0"/><path d="" fill="#000000" stroke="#000000" stroke-width="0"/></g><g stroke-linecap="butt"><path d="" fill="#c9cce9" stroke="#b1b5cd" stroke-width="1"/><path d="" fill="#000000" stroke="#000000" stroke-width="0"/><path d="" fill="#000000" stroke="#000000" stroke-width="0"/><path d="" fill="#000000" stroke="#000000" stroke-width="0"/><path d="" fill="#000000" stroke="#000000" stroke-width="0"/></g><g stroke-linecap="butt"><path d="" fill="#c9cce9" stroke="#b1b5cd" stroke-width="1"/><path d="" fill="#000000" stroke="#000000" stroke-width="0"/><path d="" fill="#000000" stroke="#000000" stroke-width="0"/><path d="" fill="#000000" stroke="#000000" stroke-width="0"/><path d="" fill="#000000" stroke="#000000" stroke-width="0"/></g><g stroke-linecap="butt"><path d="" fill="#c9cce9" stroke="#b1b5cd" stroke-width="1"/><path d="" fill="#000000" stroke="#000000" stroke-width="0"/><path d="" fill="#000000" stroke="#000000" stroke-width="0"/><path d="" fill="#000000" stroke="#000000" stroke-width="0"/><path d="" fill="#000000" stroke="#000000" stroke-width="0"/></g><path d="" fill="none" stroke="#aaadc9" stroke-width="1" stroke-linecap="round"/><path d="" fill="none" stroke="#aaadc9" stroke-width="1" stroke-linecap="round"/><g fill="#0d1c55" stroke="none" stroke-width="0" stroke-linecap="butt"><path d=""/><path d="" data-paper-data="{&quot;index&quot;:null}"/></g><path d="" fill="#00a3a3" stroke="none" stroke-width="0" stroke-linecap="butt"/><g fill="none" stroke="#aaadc9" stroke-width="1"><path d="" stroke-linecap="butt"/><path d="" stroke-linecap="round"/><path d="" stroke-linecap="round"/></g><g data-paper-data="{&quot;index&quot;:null}" fill="none" stroke="#aaadc9" stroke-width="1"><path d="" stroke-linecap="butt"/><path d="" stroke-linecap="round"/><path d="" stroke-linecap="round"/></g><path d="" data-paper-data="{&quot;index&quot;:null}" fill="none" stroke="#aaadc9" stroke-width="1" stroke-linecap="round"/><path d="" fill="#00a3a3" stroke="#aaadc9" stroke-width="0" stroke-linecap="butt"/><g stroke-linecap="butt"><path d="" fill="#c9cce9" stroke="#b1b5cd" stroke-width="1"/><path d="" fill="#000000" stroke="#000000" stroke-width="0"/><path d="" fill="#000000" stroke="#000000" stroke-width="0"/><path d="" fill="#000000" stroke="#000000" stroke-width="0"/><path d="" fill="#000000" stroke="#000000" stroke-width="0"/></g><g stroke-linecap="butt"><path d="" fill="#c9cce9" stroke="#b1b5cd" stroke-width="1"/><path d="" fill="#000000" stroke="#000000" stroke-width="0"/><path d="" fill="#000000" stroke="#000000" stroke-width="0"/><path d="" fill="#000000" stroke="#000000" stroke-width="0"/><path d="" fill="#000000" stroke="#000000" stroke-width="0"/></g><g stroke-linecap="butt"><path d="" fill="#c9cce9" stroke="#b1b5cd" stroke-width="1"/><path d="" fill="#000000" stroke="#000000" stroke-width="0"/><path d="" fill="#000000" stroke="#000000" stroke-width="0"/><path d="" fill="#000000" stroke="#000000" stroke-width="0"/><path d="" fill="#000000" stroke="#000000" stroke-width="0"/></g><g stroke-linecap="butt"><path d="" fill="#c9cce9" stroke="#b1b5cd" stroke-width="1"/><path d="" fill="#000000" stroke="#000000" stroke-width="0"/><path d="" fill="#000000" stroke="#000000" stroke-width="0"/><path d="" fill="#000000" stroke="#000000" stroke-width="0"/><path d="" fill="#000000" stroke="#000000" stroke-width="0"/></g><g stroke-linecap="butt"><path d="" fill="#c9cce9" stroke="#b1b5cd" stroke-width="1"/><path d="" fill="#000000" stroke="#000000" stroke-width="0"/><path d="" fill="#000000" stroke="#000000" stroke-width="0"/><path d="" fill="#000000" stroke="#000000" stroke-width="0"/><path d="" fill="#000000" stroke="#000000" stroke-width="0"/></g><path d="" fill="none" stroke="#aaadc9" stroke-width="1" stroke-linecap="round"/><path d="" fill="none" stroke="#aaadc9" stroke-width="1" stroke-linecap="round"/><g fill="#0d1c55" stroke="none" stroke-width="0" stroke-linecap="butt"><path d=""/><path d="" data-paper-data="{&quot;index&quot;:null}"/></g><path d="" fill="#00a3a3" stroke="none" stroke-width="0" stroke-linecap="butt"/><g fill="none" stroke="#aaadc9" stroke-width="1"><path d="" stroke-linecap="butt"/><path d="" stroke-linecap="round"/><path d="" stroke-linecap="round"/></g><g data-paper-data="{&quot;index&quot;:null}" fill="none" stroke="#aaadc9" stroke-width="1"><path d="" stroke-linecap="butt"/><path d="" stroke-linecap="round"/><path d="" stroke-linecap="round"/></g><path d="" data-paper-data="{&quot;index&quot;:null}" fill="none" stroke="#aaadc9" stroke-width="1" stroke-linecap="round"/><path d="" fill="#00a3a3" stroke="#aaadc9" stroke-width="0" stroke-linecap="butt"/><g stroke-linecap="butt"><path d="" fill="#c9cce9" stroke="#b1b5cd" stroke-width="1"/><path d="" fill="#000000" stroke="#000000" stroke-width="0"/><path d="" fill="#000000" stroke="#000000" stroke-width="0"/><path d="" fill="#000000" stroke="#000000" stroke-width="0"/><path d="" fill="#000000" stroke="#000000" stroke-width="0"/></g><g stroke-linecap="butt"><path d="" fill="#c9cce9" stroke="#b1b5cd" stroke-width="1"/><path d="" fill="#000000" stroke="#000000" stroke-width="0"/><path d="" fill="#000000" stroke="#000000" stroke-width="0"/><path d="" fill="#000000" stroke="#000000" stroke-width="0"/><path d="" fill="#000000" stroke="#000000" stroke-width="0"/></g><g stroke-linecap="butt"><path d="" fill="#c9cce9" stroke="#b1b5cd" stroke-width="1"/><path d="" fill="#000000" stroke="#000000" stroke-width="0"/><path d="" fill="#000000" stroke="#000000" stroke-width="0"/><path d="" fill="#000000" stroke="#000000" stroke-width="0"/><path d="" fill="#000000" stroke="#000000" stroke-width="0"/></g><g stroke-linecap="butt"><path d="" fill="#c9cce9" stroke="#b1b5cd" stroke-width="1"/><path d="" fill="#000000" stroke="#000000" stroke-width="0"/><path d="" fill="#000000" stroke="#000000" stroke-width="0"/><path d="" fill="#000000" stroke="#000000" stroke-width="0"/><path d="" fill="#000000" stroke="#000000" stroke-width="0"/></g><g stroke-linecap="butt"><path d="" fill="#c9cce9" stroke="#b1b5cd" stroke-width="1"/><path d="" fill="#000000" stroke="#000000" stroke-width="0"/><path d="" fill="#000000" stroke="#000000" stroke-width="0"/><path d="" fill="#000000" stroke="#000000" stroke-width="0"/><path d="" fill="#000000" stroke="#000000" stroke-width="0"/></g><path d="" fill="none" stroke="#aaadc9" stroke-width="1" stroke-linecap="round"/><path d="" fill="none" stroke="#aaadc9" stroke-width="1" stroke-linecap="round"/><path d="M196.44997,232.90793c0,0 -2.32405,-42.98089 -0.96171,-72.73215c0.53189,-11.61574 2.86394,-21.01268 4.3711,-25.49279c0.60337,-1.79354 1.18359,-2.41738 1.29583,-2.66583c0.43755,-0.9685 16.91564,-5.84825 20.80249,-8.01453c0.69333,-0.38642 2.77405,-2.61421 4.04063,-3.84897c0.74841,-0.72961 1.05186,-0.79109 1.05186,-0.79109c0,0 0.64672,3.19973 1.9404,7.16304c1.00302,3.07284 2.49344,6.53081 3.74739,9.7815c1.94644,5.04588 8.3365,20.15991 8.8841,21.77754c0.3844,1.13554 1.20787,1.69412 1.48575,2.7978c1.52345,6.05083 -0.28583,79.90676 -0.28583,79.90676l-31.80124,-0.71203c0,0 0.12311,-2.34655 0.29235,-6.5779c0.02471,-0.61781 0.82741,-21.76477 0.93959,-24.67891c0.00195,-0.05059 -0.52819,0.15997 -0.57592,-0.25667c-0.09563,-0.83473 0.28671,-2.72863 0.55522,-4.07549c0.43672,-2.19065 1.7095,-4.27131 1.76306,-4.96386c0.2004,-2.59111 -2.57271,-28.90722 -2.81155,-29.20797c-0.62709,1.46371 -2.67581,26.53816 -3.26971,40.59345c-0.51561,12.20268 -0.9093,23.12747 -0.9093,23.12747z" data-paper-data="{&quot;index&quot;:null}" fill="#0d1c55" stroke="none" stroke-width="0" stroke-linecap="butt"/><path d="M213.89275,199.78305c0,0 2.8933,0.47561 4.85079,0.64468c2.58614,0.22336 9.31215,0.46478 9.31215,0.46478l-0.30789,9.41615c0,0 -8.06246,-0.38983 -10.97511,-0.68063c-2.40207,-0.23982 -5.07365,-0.94088 -5.07365,-0.94088c0,0 0.37627,-3.58501 0.76486,-5.15488c0.35181,-1.4213 1.42885,-3.74922 1.42885,-3.74922z" data-paper-data="{&quot;index&quot;:null}" fill="none" stroke="#000d46" stroke-width="0.5" stroke-linecap="round"/><path d="M211.10707,169.90999c0,0 -2.15526,18.24216 -2.67175,29.39136c-0.51649,11.1492 -1.31299,34.67595 -1.31299,34.67595l-10.68,-1.17379c0,0 -1.77789,-31.64735 -1.57853,-57.07009c0.10678,-13.61769 1.23877,-25.34737 2.11314,-29.57261c3.13223,-15.13602 4.53845,-14.48707 4.53845,-14.48707c0,0 6.34782,-2.36515 8.03399,-3.0039c4.03365,-1.52801 12.40191,-4.44321 12.40191,-4.44321l-20.46774,7.5753c0,0 3.9087,11.1344 5.3001,16.14425c2.16549,7.79701 3.03204,14.50663 4.06776,20.40596c0.46517,2.64951 0.83691,6.06724 1.33593,9.47948c0.59127,4.04305 1.83394,20.08758 1.81905,21.906" data-paper-data="{&quot;index&quot;:null}" fill="none" stroke="#000d46" stroke-width="0.5" stroke-linecap="round"/><path d="M222.42226,168.38206l-0.43566,32.32964" data-paper-data="{&quot;index&quot;:null}" fill="none" stroke="#000d46" stroke-width="0.5" stroke-linecap="round"/><g fill="none" stroke="#aaadc9" stroke-width="1" stroke-linecap="round"><path d=""/><path d=""/></g><g data-paper-data="{&quot;index&quot;:null}" fill="none" stroke="#aaadc9" stroke-width="1" stroke-linecap="round"><path d=""/><path d=""/></g><path d="" data-paper-data="{&quot;index&quot;:null}" fill="none" stroke="#aaadc9" stroke-width="1" stroke-linecap="round"/><g stroke-linecap="butt"><path d="" fill="#c9cce9" stroke="#b1b5cd" stroke-width="1"/><path d="" fill="#000000" stroke="#000000" stroke-width="0"/><path d="" fill="#000000" stroke="#000000" stroke-width="0"/><path d="" fill="#000000" stroke="#000000" stroke-width="0"/><path d="" fill="#000000" stroke="#000000" stroke-width="0"/></g><g stroke-linecap="butt"><path d="" fill="#c9cce9" stroke="#b1b5cd" stroke-width="1"/><path d="" fill="#000000" stroke="#000000" stroke-width="0"/><path d="" fill="#000000" stroke="#000000" stroke-width="0"/><path d="" fill="#000000" stroke="#000000" stroke-width="0"/><path d="" fill="#000000" stroke="#000000" stroke-width="0"/></g><g stroke-linecap="butt"><path d="" fill="#c9cce9" stroke="#b1b5cd" stroke-width="1"/><path d="" fill="#000000" stroke="#000000" stroke-width="0"/><path d="" fill="#000000" stroke="#000000" stroke-width="0"/><path d="" fill="#000000" stroke="#000000" stroke-width="0"/><path d="" fill="#000000" stroke="#000000" stroke-width="0"/></g><g stroke-linecap="butt"><path d="" fill="#c9cce9" stroke="#b1b5cd" stroke-width="1"/><path d="" fill="#000000" stroke="#000000" stroke-width="0"/><path d="" fill="#000000" stroke="#000000" stroke-width="0"/><path d="" fill="#000000" stroke="#000000" stroke-width="0"/><path d="" fill="#000000" stroke="#000000" stroke-width="0"/></g><g fill="none" stroke="#aaadc9" stroke-width="1" stroke-linecap="round"><path d=""/><path d=""/></g><g data-paper-data="{&quot;index&quot;:null}" fill="none" stroke="#aaadc9" stroke-width="1" stroke-linecap="round"><path d=""/><path d=""/></g><path d="" fill="#00a3a3" stroke="#aaadc9" stroke-width="1" stroke-linecap="round"/><path d="" fill="none" stroke="#0d1c55" stroke-width="1" stroke-linecap="round"/><g fill="none" stroke="#aaadc9" stroke-width="1" stroke-linecap="round"><path d=""/><path d=""/></g><g fill="none" stroke="#aaadc9" stroke-width="1" stroke-linecap="round"><path d=""/><path d="" data-paper-data="{&quot;index&quot;:null}"/></g><g fill="none" stroke="#aaadc9" stroke-width="1" stroke-linecap="round"><path d=""/><path d="" data-paper-data="{&quot;index&quot;:null}"/></g><path d="M272.89137,234.16551c0,0 -0.28952,-10.92479 -0.80513,-23.12747c-0.5939,-14.05529 -2.64262,-39.12974 -3.26971,-40.59346c-0.23884,0.30075 -3.01196,26.61687 -2.81155,29.20798c0.05356,0.69254 1.32634,2.77321 1.76306,4.96386c0.26851,1.34686 0.65085,3.24076 0.55521,4.07549c-0.04773,0.41663 -0.57787,0.20607 -0.57592,0.25666c0.11217,2.91415 0.91488,24.0611 0.93959,24.67892c0.16924,4.23136 0.29235,6.5779 0.29235,6.5779l-31.46033,0.48475c0,0 -2.15019,-73.62866 -0.62674,-79.67949c0.27788,-1.10368 1.10135,-1.66226 1.48575,-2.7978c0.5476,-1.61763 6.93766,-16.73166 8.8841,-21.77754c1.25395,-3.25069 2.74437,-6.70866 3.74739,-9.7815c1.29368,-3.96331 1.9404,-7.16304 1.9404,-7.16304c0,0 0.30345,0.06148 1.05186,0.79109c1.26658,1.23476 3.3473,3.46255 4.04063,3.84897c3.88685,2.16628 20.36494,7.04603 20.80249,8.01453c0.10923,0.24178 0.79842,1.00986 1.3775,2.71792c1.50228,4.43118 3.75182,13.7003 4.28942,25.4407c1.36235,29.75126 -0.96171,72.73215 -0.96171,72.73215z" data-paper-data="{&quot;index&quot;:null}" fill="#0d1c55" stroke="none" stroke-width="0" stroke-linecap="butt"/><path d="M267.53611,203.66047c0.38859,1.56987 0.76486,5.15488 0.76486,5.15488c0,0 -2.67158,0.70106 -5.07365,0.94088c-2.91265,0.2908 -10.97511,0.68063 -10.97511,0.68063l-0.30789,-9.41615c0,0 6.72601,-0.24142 9.31215,-0.46478c1.95749,-0.16907 4.85078,-0.64468 4.85078,-0.64468c0,0 1.07704,2.32792 1.42885,3.74922z" data-paper-data="{&quot;index&quot;:null}" fill="none" stroke="#000d46" stroke-width="0.5" stroke-linecap="round"/><path d="M265.99361,199.86582c-0.01489,-1.81842 1.22778,-17.86296 1.81905,-21.90601c0.49902,-3.41224 0.87076,-6.82997 1.33593,-9.47948c1.03572,-5.89933 1.90227,-12.60895 4.06776,-20.40596c1.3914,-5.00985 5.30009,-16.14424 5.30009,-16.14424l-20.46773,-7.5753c0,0 8.36826,2.9152 12.40191,4.44321c1.68617,0.63875 8.03399,3.0039 8.03399,3.0039c0,0 1.40622,-0.64896 4.53845,14.48707c0.87437,4.22524 2.00635,15.95492 2.11314,29.57261c0.19935,25.42274 -1.57853,57.07009 -1.57853,57.07009l-10.57584,1.17379c0,0 -0.90067,-23.52675 -1.41716,-34.67594c-0.51649,-11.1492 -2.67175,-29.39136 -2.67175,-29.39136" data-paper-data="{&quot;index&quot;:null}" fill="none" stroke="#000d46" stroke-width="0.5" stroke-linecap="round"/><path d="M236.98747,240.6976c-8.07248,-0.15906 -26.06373,-0.46991 -26.06373,-0.46991l1.37222,-30.95199" data-paper-data="{&quot;index&quot;:null}" fill="none" stroke="#000d46" stroke-width="0.5" stroke-linecap="round"/><path d="M257.93646,200.77045l-0.5895,-32.5604" data-paper-data="{&quot;index&quot;:null}" fill="none" stroke="#000d46" stroke-width="0.5" stroke-linecap="round"/><g stroke-linecap="butt"><path d="M242.64574,162.1698c0,1.1301 -0.91875,2.04623 -2.05208,2.04623c-1.13333,0 -2.05208,-0.91613 -2.05208,-2.04623c0,-1.1301 0.91875,-2.04623 2.05208,-2.04623c1.13333,0 2.05208,0.91613 2.05208,2.04623z" fill="#bababa" stroke="#cfcfcf" stroke-width="0.5"/><path d="M239.80319,163.59399c-0.02981,0.02195 -0.13148,-0.06791 -0.13148,-0.06791c0,0 -0.10033,0.09132 -0.13039,0.06979c-0.03006,-0.02153 0.02393,-0.14593 0.02393,-0.14593c0,0 -0.11778,-0.0673 -0.10665,-0.10249c0.01118,-0.03525 0.14617,-0.02231 0.14617,-0.02231c0,0 0.02752,-0.13286 0.06455,-0.13311c0.03697,-0.00029 0.06634,0.13214 0.06634,0.13214c0,0 0.13491,-0.01487 0.14657,0.02021c0.01177,0.03512 -0.10506,0.10402 -0.10506,0.10402c0,0 0.05574,0.12365 0.02602,0.14558z" fill="#cfcfcf" stroke="none" stroke-width="2.57572"/><g stroke="none" stroke-width="0"><path d="M240.25037,162.34629v-0.64966h0.68268v0.64966z" fill="url(#color-1)"/><path d="M240.42288,162.26687l0.17387,-0.74141l0.16748,0.74141z" fill="url(#color-2)"/><path d="M240.04642,163.41837c-0.02823,-0.07404 0.04449,-0.23695 0.04641,-0.39256c0.00194,-0.15642 -0.08764,-0.41515 -0.08764,-0.41515l0.12931,-0.27505l0.9176,0.00367l0.11429,0.26051c0,0 -0.06905,0.2592 -0.06193,0.4078c0.00749,0.15648 0.08929,0.28471 0.04307,0.41812c-0.04073,0.11755 -0.26203,0.11723 -0.33247,0.16359c-0.10837,0.07131 -0.20708,0.14839 -0.20708,0.14839c0,0 -0.09674,-0.0844 -0.23257,-0.14373c-0.11468,-0.05008 -0.28978,-0.07275 -0.32899,-0.17558z" fill="url(#color-3)"/><path d="M240.18957,163.28957l0.42064,-0.74142l0.4052,0.74142z" fill="url(#color-4)"/><path d="M239.33823,161.20851c-0.08071,-0.14015 -0.01983,-0.23765 -0.01504,-0.27122c0.00844,-0.05913 0.12422,0.20128 0.26943,0.22201c0.09291,0.01326 0.32262,0.11183 0.39867,0.18324c0.04282,0.04021 -0.01063,0.12046 -0.01063,0.12046c0,0 -0.21034,-0.02414 -0.35198,-0.06227c-0.06993,-0.01883 -0.22903,-0.08554 -0.29047,-0.19223z" fill="url(#color-5)"/><path d="M239.4415,161.48621c-0.10306,-0.12463 -0.11077,-0.23096 -0.11167,-0.26486c-0.0016,-0.05971 0.23479,0.19486 0.38142,0.19094c0.09381,-0.0025 0.30961,0.03891 0.39656,0.09656c0.04895,0.03245 0.00973,0.12053 0.00973,0.12053c0,0 -0.21141,0.01148 -0.35744,-0.00237c-0.0721,-0.00683 -0.24013,-0.04592 -0.31858,-0.14081z" fill="url(#color-6)"/><path d="M239.89685,161.80363c-0.06509,0.00722 -0.22102,0.00352 -0.30793,-0.06603c-0.11417,-0.09137 -0.10608,-0.19352 -0.11312,-0.22337c-0.01239,-0.05257 0.19981,0.12213 0.3289,0.09169c0.08259,-0.01947 0.29064,-0.0059 0.37822,0.02913c0.0493,0.01972 0.03078,0.10491 0.03078,0.10491c0,0 -0.18503,0.04906 -0.31685,0.06367z" fill="url(#color-7)"/><path d="M240.09816,161.89787c-0.04907,0.014 -0.20841,0.04877 -0.29306,0.01544c-0.11119,-0.04378 -0.11727,-0.12081 -0.12997,-0.14241c-0.02237,-0.03805 0.19455,0.06629 0.28799,0.01136c0.05978,-0.03514 0.21151,-0.05458 0.28834,-0.04836c0.04325,0.0035 0.07505,0.07448 0.07505,0.07448c0,0 -0.17689,0.0748 -0.22836,0.08948z" fill="url(#color-8)"/><path d="M239.94308,162.03336c-0.10673,-0.02701 -0.1213,-0.09669 -0.13542,-0.11494c-0.02489,-0.03216 0.18188,0.03416 0.26083,-0.02697c0.05052,-0.03911 0.19057,-0.07094 0.26151,-0.07424c0.03994,-0.00186 0.0773,0.05929 0.0773,0.05929c0,0 -0.15291,0.08904 -0.19822,0.10848c-0.04321,0.01853 -0.18476,0.06894 -0.26601,0.04838z" fill="url(#color-9)"/><path d="M240.34374,162.05733c-0.04131,0.02245 -0.1776,0.08571 -0.2604,0.07274c-0.10877,-0.01704 -0.13338,-0.08507 -0.14914,-0.10194c-0.02776,-0.02971 0.18825,0.01686 0.26122,-0.0513c0.04669,-0.0436 0.18288,-0.08789 0.25322,-0.09773c0.03959,-0.00554 -0.04969,0.11797 -0.04969,0.11797c0,0 -0.01189,0.03673 -0.05522,0.06026z" fill="url(#color-10)"/><path d="M240.38519,163.24968c-0.09179,0.03773 -0.15928,0.03258 -0.15072,-0.01153c0.00856,-0.04411 0.08989,-0.11046 0.18168,-0.1482c0.09179,-0.03773 0.15927,-0.03258 0.15072,0.01153c-0.00856,0.04411 -0.08989,0.11046 -0.18168,0.1482z" fill="url(#color-11)"/><path d="M240.54822,162.77833c0.01024,-0.09871 0.04676,-0.15569 0.08155,-0.12727c0.03479,0.02843 0.05469,0.1315 0.04444,0.23021c-0.01024,0.09871 -0.04676,0.1557 -0.08156,0.12727c-0.03479,-0.02843 -0.05468,-0.1315 -0.04444,-0.23022z" fill="url(#color-12)"/><path d="M240.88377,163.14163c0.07908,0.05996 0.10886,0.12073 0.06651,0.13574c-0.04235,0.01501 -0.1408,-0.02143 -0.21988,-0.0814c-0.07908,-0.05996 -0.10887,-0.12073 -0.06652,-0.13573c0.04235,-0.01501 0.1408,0.02143 0.21989,0.0814z" fill="url(#color-13)"/><path d="M240.66672,163.06201c0,0.03244 -0.02711,0.05872 -0.06056,0.05872c-0.03345,0 -0.06056,-0.02629 -0.06056,-0.05872c0,-0.03244 0.02711,-0.05872 0.06056,-0.05872c0.03345,0 0.06056,0.02629 0.06056,0.05872z" fill="url(#color-14)"/><path d="M241.58455,161.39473c-0.14164,0.03813 -0.35198,0.06227 -0.35198,0.06227c0,0 -0.05344,-0.08026 -0.01063,-0.12046c0.07605,-0.0714 0.30577,-0.16998 0.39867,-0.18324c0.14521,-0.02073 0.26099,-0.28115 0.26943,-0.22201c0.0048,0.03357 0.06568,0.13107 -0.01503,0.27122c-0.06143,0.10668 -0.22053,0.17339 -0.29047,0.19222z" data-paper-data="{&quot;index&quot;:null}" fill="url(#color-15)"/><path d="M241.45316,161.62102c-0.14603,0.01385 -0.35745,0.00237 -0.35745,0.00237c0,0 -0.03922,-0.08808 0.00973,-0.12054c0.08694,-0.05765 0.30275,-0.09905 0.39656,-0.09655c0.14663,0.00392 0.38302,-0.25065 0.38142,-0.19093c-0.0009,0.0339 -0.00862,0.14022 -0.11168,0.26485c-0.07845,0.09488 -0.24649,0.13397 -0.31858,0.14081z" data-paper-data="{&quot;index&quot;:null}" fill="url(#color-16)"/><path d="M241.31639,161.79762c-0.13182,-0.01461 -0.31685,-0.06366 -0.31685,-0.06366c0,0 -0.01852,-0.08518 0.03078,-0.10491c0.08758,-0.03504 0.29563,-0.04861 0.37822,-0.02913c0.12908,0.03045 0.34129,-0.14426 0.32889,-0.0917c-0.00704,0.02984 0.00105,0.132 -0.11312,0.22337c-0.08691,0.06955 -0.24284,0.07324 -0.30793,0.06603z" data-paper-data="{&quot;index&quot;:null}" fill="url(#color-17)"/><path d="M241.11508,161.89186c-0.05146,-0.01469 -0.22835,-0.08949 -0.22835,-0.08949c0,0 0.0318,-0.07097 0.07505,-0.07447c0.07683,-0.00621 0.22856,0.01322 0.28833,0.04836c0.09343,0.05492 0.31036,-0.04942 0.288,-0.01137c-0.0127,0.0216 -0.01878,0.09863 -0.12997,0.14241c-0.08464,0.03333 -0.24399,-0.00144 -0.29306,-0.01544z" data-paper-data="{&quot;index&quot;:null}" fill="url(#color-18)"/><path d="M241.00415,161.97896c-0.04531,-0.01944 -0.19822,-0.10849 -0.19822,-0.10849c0,0 0.03736,-0.06115 0.0773,-0.05929c0.07094,0.00331 0.21099,0.03514 0.26151,0.07425c0.07896,0.06113 0.28573,-0.0052 0.26084,0.02696c-0.01413,0.01826 -0.0287,0.08794 -0.13543,0.11494c-0.08125,0.02056 -0.2228,-0.02984 -0.26601,-0.04838z" data-paper-data="{&quot;index&quot;:null}" fill="url(#color-19)"/><path d="M240.8695,162.05131c-0.04332,-0.02353 -0.05522,-0.06026 -0.05522,-0.06026c0,0 -0.08928,-0.1235 -0.04968,-0.11796c0.07034,0.00984 0.20652,0.05412 0.25321,0.09773c0.07298,0.06816 0.28898,0.02158 0.26122,0.05129c-0.01576,0.01687 -0.04036,0.0849 -0.14914,0.10194c-0.08281,0.01296 -0.21909,-0.0503 -0.2604,-0.07274z" data-paper-data="{&quot;index&quot;:null}" fill="url(#color-20)"/><path d="M240.06185,162.45773c0,0 0.03563,-0.08139 0.06444,-0.11574c0.02067,-0.02466 0.08389,-0.02043 0.10132,-0.04659c0.02988,-0.0448 0.02044,-0.04364 0.03872,-0.08407c0.01961,-0.04339 -0.03331,0.00448 -0.0101,-0.06323c0.00986,-0.02875 0.0421,-0.05534 0.06516,-0.09113c0.01481,-0.023 0.00077,-0.03104 0.01139,-0.05681c0.00714,-0.0173 0.0395,-0.05267 0.04639,-0.06818c0.01545,-0.03481 -0.00463,-0.03846 0.00095,-0.0654c0.00817,-0.03943 0.03777,-0.09521 0.03777,-0.09521l0.13948,0.02936c0,0 -0.01952,0.05875 -0.03779,0.09019c-0.01711,0.02947 -0.03268,0.03049 -0.04296,0.06609c-0.01388,0.0481 0.0138,0.08389 -0.00234,0.11929c-0.0238,0.05219 -0.04952,0.01101 -0.05972,0.04036c-0.01687,0.04855 -0.00768,0.11719 -0.00768,0.11719c0,0 -0.05034,-0.01253 -0.07628,0.00709c-0.01691,0.01279 -0.03114,0.08013 -0.06268,0.11096c-0.00247,0.00241 0.0439,0.07533 0.02282,0.10071c-0.01332,0.01604 -0.04198,-0.08053 -0.06914,-0.07446c-0.0324,0.00724 -0.02204,0.11948 -0.02912,0.11964c-0.04573,0.00108 -0.01001,-0.12848 -0.02804,-0.11833c-0.02822,0.01591 -0.06346,0.06337 -0.08125,0.07815c-0.02035,0.0169 -0.02132,0.00011 -0.02132,0.00011z" fill="url(#color-21)"/><path d="M241.10554,162.45896c-0.01781,-0.01479 -0.05304,-0.06225 -0.08126,-0.07815c-0.01803,-0.01015 0.01769,0.1194 -0.02803,0.11832c-0.00708,-0.00017 0.00328,-0.11239 -0.02912,-0.11964c-0.02716,-0.00607 -0.05582,0.09049 -0.06914,0.07446c-0.02108,-0.02538 0.02528,-0.09829 0.02281,-0.10071c-0.03154,-0.03083 -0.04577,-0.09818 -0.06268,-0.11096c-0.02595,-0.01962 -0.07628,-0.0071 -0.07628,-0.0071c0,0 0.00919,-0.06862 -0.00769,-0.11718c-0.0102,-0.02936 -0.03592,0.01183 -0.05971,-0.04036c-0.01613,-0.03539 0.01154,-0.07118 -0.00234,-0.11929c-0.01028,-0.0356 -0.02585,-0.03662 -0.04296,-0.06609c-0.01827,-0.03144 -0.03779,-0.09018 -0.03779,-0.09018l0.13948,-0.02936c0,0 0.02959,0.05578 0.03777,0.09521c0.00558,0.02693 -0.0145,0.03058 0.00095,0.06539c0.00688,0.01551 0.03926,0.05089 0.04639,0.06819c0.01063,0.02576 -0.00343,0.03381 0.01138,0.05681c0.02305,0.03579 0.0553,0.06239 0.06516,0.09113c0.0232,0.06771 -0.02971,0.01984 -0.0101,0.06323c0.01827,0.04042 0.00884,0.03926 0.03872,0.08406c0.01744,0.02616 0.08065,0.02192 0.10133,0.04659c0.0288,0.03436 0.06443,0.11574 0.06443,0.11574c0,0 -0.00096,0.0168 -0.02132,-0.00011z" data-paper-data="{&quot;index&quot;:null}" fill="url(#color-22)"/><path d="M240.09488,161.73214c-0.05326,-0.08066 -0.16211,-0.41848 -0.16211,-0.41848c0,0 0.20334,-0.12975 0.32655,0.01646c0.03018,0.03581 0.08178,0.09422 0.12082,0.1609c0.06293,0.10747 0.11191,0.23642 0.12604,0.32697c0.01289,0.08261 -0.15149,0.25186 -0.15149,0.25186c0,0 -0.15195,-0.17434 -0.2598,-0.33771z" fill="url(#color-23)"/><path d="M241.12071,161.73453c-0.10786,0.16336 -0.2598,0.33771 -0.2598,0.33771c0,0 -0.16438,-0.16925 -0.15149,-0.25186c0.0099,-0.06343 0.01048,-0.16911 0.05084,-0.24965c0.01786,-0.03564 0.04086,-0.06828 0.06522,-0.09793c0.04793,-0.05833 0.10113,-0.10508 0.1308,-0.14029c0.12321,-0.14621 0.33564,-0.04376 0.33564,-0.04376c0,0 -0.11795,0.36511 -0.17121,0.44577z" data-paper-data="{&quot;index&quot;:null}" fill="url(#color-24)"/><path d="M240.82095,161.46219c0,0.31166 -0.1008,0.5643 -0.22513,0.5643c-0.12434,0 -0.22514,-0.25265 -0.22514,-0.5643c0,-0.14337 0.03973,-0.19607 0.0628,-0.30251c0.00329,-0.01516 0.01403,-0.09513 -0.01493,-0.102c-0.03928,-0.00932 -0.12211,0.0545 -0.12074,0.02455c0.00104,-0.02273 0.07004,-0.05851 0.11644,-0.09551c0.02638,-0.02103 0.0395,-0.05235 0.04353,-0.05719c0.0294,-0.03528 0.10326,-0.03165 0.13804,-0.03165c0.10668,0 0.16679,0.20061 0.19002,0.45028c0.00384,0.04133 0.03511,0.06977 0.03511,0.11403z" fill="#cecece"/></g><path d="M239.36436,163.16283c-0.02981,0.02195 -0.13148,-0.06792 -0.13148,-0.06792c0,0 -0.10033,0.09133 -0.13039,0.0698c-0.03006,-0.02153 0.02394,-0.14592 0.02394,-0.14592c0,0 -0.11779,-0.0673 -0.10666,-0.10249c0.01119,-0.03525 0.14617,-0.02231 0.14617,-0.02231c0,0 0.02752,-0.13286 0.06455,-0.13311c0.03697,-0.00029 0.06634,0.13215 0.06634,0.13215c0,0 0.13491,-0.01487 0.14657,0.0202c0.01177,0.03512 -0.10506,0.10401 -0.10506,0.10401c0,0 0.05573,0.12365 0.02602,0.14558z" fill="#cfcfcf" stroke="none" stroke-width="2.57572"/><path d="M239.11917,162.55751c-0.02981,0.02195 -0.13148,-0.06791 -0.13148,-0.06791c0,0 -0.10034,0.09133 -0.1304,0.0698c-0.03006,-0.02153 0.02393,-0.14592 0.02393,-0.14592c0,0 -0.11778,-0.06729 -0.10665,-0.10249c0.01119,-0.03525 0.14617,-0.02231 0.14617,-0.02231c0,0 0.02752,-0.13286 0.06454,-0.13311c0.03697,-0.00029 0.06634,0.13215 0.06634,0.13215c0,0 0.13491,-0.01488 0.14657,0.0202c0.01177,0.03512 -0.10506,0.10402 -0.10506,0.10402c0,0 0.05573,0.12365 0.02602,0.14558z" fill="#cfcfcf" stroke="none" stroke-width="2.57572"/><path d="M239.18604,161.91948c-0.02981,0.02194 -0.13148,-0.06792 -0.13148,-0.06792c0,0 -0.10034,0.09133 -0.13039,0.0698c-0.03006,-0.02153 0.02393,-0.14593 0.02393,-0.14593c0,0 -0.11778,-0.06729 -0.10664,-0.10249c0.01119,-0.03525 0.14617,-0.02231 0.14617,-0.02231c0,0 0.02751,-0.13287 0.06454,-0.13311c0.03697,-0.00029 0.06634,0.13215 0.06634,0.13215c0,0 0.13491,-0.01487 0.14658,0.02021c0.01177,0.03512 -0.10506,0.10401 -0.10506,0.10401c0,0 0.05573,0.12366 0.02602,0.14558z" fill="#cfcfcf" stroke="none" stroke-width="2.57572"/><path d="M241.36973,160.94639c-0.02981,0.02194 -0.13148,-0.06792 -0.13148,-0.06792c0,0 -0.10034,0.09133 -0.13039,0.0698c-0.03006,-0.02153 0.02394,-0.14593 0.02394,-0.14593c0,0 -0.11778,-0.06729 -0.10665,-0.10249c0.01119,-0.03525 0.14616,-0.02231 0.14616,-0.02231c0,0 0.02752,-0.13287 0.06454,-0.13311c0.03697,-0.00029 0.06634,0.13215 0.06634,0.13215c0,0 0.13491,-0.01487 0.14657,0.02021c0.01177,0.03512 -0.10506,0.10401 -0.10506,0.10401c0,0 0.05573,0.12366 0.02601,0.14558z" fill="#cfcfcf" stroke="none" stroke-width="2.57572"/><path d="M240.69547,160.7395c-0.02981,0.02194 -0.13148,-0.06792 -0.13148,-0.06792c0,0 -0.10034,0.09133 -0.13039,0.0698c-0.03006,-0.02153 0.02394,-0.14592 0.02394,-0.14592c0,0 -0.11779,-0.0673 -0.10665,-0.10249c0.01119,-0.03525 0.14617,-0.0223 0.14617,-0.0223c0,0 0.02753,-0.13287 0.06455,-0.13311c0.03697,-0.00029 0.06633,0.13215 0.06633,0.13215c0,0 0.13491,-0.01488 0.14657,0.0202c0.01177,0.03512 -0.10506,0.10401 -0.10506,0.10401c0,0 0.05573,0.12365 0.02602,0.14558z" fill="#cfcfcf" stroke="none" stroke-width="2.57572"/><path d="M240.04977,160.94429c-0.02981,0.02194 -0.13148,-0.06792 -0.13148,-0.06792c0,0 -0.10034,0.09133 -0.1304,0.0698c-0.03006,-0.02153 0.02394,-0.14592 0.02394,-0.14592c0,0 -0.11778,-0.06729 -0.10665,-0.10249c0.01119,-0.03525 0.14617,-0.02231 0.14617,-0.02231c0,0 0.02752,-0.13286 0.06454,-0.13311c0.03697,-0.00029 0.06634,0.13215 0.06634,0.13215c0,0 0.13491,-0.01488 0.14657,0.0202c0.01177,0.03512 -0.10506,0.10402 -0.10506,0.10402c0,0 0.05573,0.12365 0.02602,0.14557z" fill="#cfcfcf" stroke="none" stroke-width="2.57572"/><path d="M241.38012,163.59955c-0.02972,-0.02193 0.02602,-0.14558 0.02602,-0.14558c0,0 -0.11684,-0.06889 -0.10506,-0.10402c0.01166,-0.03508 0.14657,-0.0202 0.14657,-0.0202c0,0 0.02937,-0.13244 0.06634,-0.13215c0.03702,0.00024 0.06455,0.13311 0.06455,0.13311c0,0 0.13499,-0.01295 0.14617,0.0223c0.01113,0.0352 -0.10665,0.10249 -0.10665,0.10249c0,0 0.05399,0.1244 0.02394,0.14593c-0.03006,0.02153 -0.13039,-0.0698 -0.13039,-0.0698c0,0 -0.10167,0.08986 -0.13149,0.06792z" data-paper-data="{&quot;index&quot;:null}" fill="#cfcfcf" stroke="none" stroke-width="2.57572"/><path d="M241.81895,163.1684c-0.02972,-0.02193 0.02602,-0.14558 0.02602,-0.14558c0,0 -0.11684,-0.06889 -0.10506,-0.10401c0.01166,-0.03508 0.14658,-0.02021 0.14658,-0.02021c0,0 0.02937,-0.13244 0.06634,-0.13214c0.03702,0.00024 0.06455,0.13311 0.06455,0.13311c0,0 0.13499,-0.01295 0.14617,0.0223c0.01113,0.0352 -0.10665,0.10249 -0.10665,0.10249c0,0 0.054,0.1244 0.02394,0.14593c-0.03006,0.02153 -0.13039,-0.06979 -0.13039,-0.06979c0,0 -0.10168,0.08986 -0.13148,0.06792z" data-paper-data="{&quot;index&quot;:null}" fill="#cfcfcf" stroke="none" stroke-width="2.57572"/><path d="M242.06414,162.56309c-0.02972,-0.02193 0.02602,-0.14558 0.02602,-0.14558c0,0 -0.11683,-0.0689 -0.10506,-0.10402c0.01166,-0.03508 0.14657,-0.02021 0.14657,-0.02021c0,0 0.02937,-0.13242 0.06634,-0.13214c0.03702,0.00024 0.06454,0.13311 0.06454,0.13311c0,0 0.13499,-0.01295 0.14617,0.02231c0.01113,0.0352 -0.10665,0.10249 -0.10665,0.10249c0,0 0.05399,0.1244 0.02394,0.14593c-0.03006,0.02153 -0.13039,-0.0698 -0.13039,-0.0698c0,0 -0.10167,0.08986 -0.13148,0.06792z" data-paper-data="{&quot;index&quot;:null}" fill="#cfcfcf" stroke="none" stroke-width="2.57572"/><path d="M241.99727,161.92503c-0.02972,-0.02193 0.02602,-0.14558 0.02602,-0.14558c0,0 -0.11683,-0.06889 -0.10506,-0.10401c0.01166,-0.03508 0.14657,-0.0202 0.14657,-0.0202c0,0 0.02937,-0.13244 0.06634,-0.13215c0.03702,0.00024 0.06454,0.13311 0.06454,0.13311c0,0 0.13499,-0.01295 0.14617,0.02231c0.01113,0.0352 -0.10665,0.10249 -0.10665,0.10249c0,0 0.05399,0.12439 0.02394,0.14592c-0.03006,0.02153 -0.1304,-0.0698 -0.1304,-0.0698c0,0 -0.10167,0.08986 -0.13148,0.06792z" data-paper-data="{&quot;index&quot;:null}" fill="#cfcfcf" stroke="none" stroke-width="2.57572"/></g><g stroke-linecap="butt"><path d="M242.62867,182.10808c0,1.1301 -0.91875,2.04623 -2.05208,2.04623c-1.13333,0 -2.05208,-0.91613 -2.05208,-2.04623c0,-1.1301 0.91875,-2.04623 2.05208,-2.04623c1.13333,0 2.05208,0.91613 2.05208,2.04623z" fill="#bababa" stroke="#cfcfcf" stroke-width="0.5"/><path d="M239.78611,183.53226c-0.02981,0.02195 -0.13148,-0.06791 -0.13148,-0.06791c0,0 -0.10033,0.09132 -0.13039,0.06979c-0.03006,-0.02153 0.02393,-0.14593 0.02393,-0.14593c0,0 -0.11778,-0.0673 -0.10665,-0.10249c0.01118,-0.03525 0.14617,-0.02231 0.14617,-0.02231c0,0 0.02752,-0.13286 0.06455,-0.13311c0.03697,-0.00029 0.06634,0.13214 0.06634,0.13214c0,0 0.13491,-0.01487 0.14658,0.02021c0.01177,0.03512 -0.10507,0.10402 -0.10507,0.10402c0,0 0.05574,0.12365 0.02602,0.14558z" fill="#cfcfcf" stroke="none" stroke-width="2.57572"/><g stroke="none" stroke-width="0"><path d="M240.2333,182.28456v-0.64966h0.68268v0.64966z" fill="url(#color-25)"/><path d="M240.40581,182.20514l0.17386,-0.74142l0.16748,0.74142z" fill="url(#color-26)"/><path d="M240.02935,183.35664c-0.02823,-0.07404 0.04449,-0.23695 0.04641,-0.39256c0.00194,-0.15642 -0.08764,-0.41515 -0.08764,-0.41515l0.12931,-0.27505l0.9176,0.00367l0.11429,0.26051c0,0 -0.06904,0.2592 -0.06193,0.4078c0.00749,0.15648 0.08928,0.28471 0.04306,0.41812c-0.04073,0.11755 -0.26203,0.11724 -0.33246,0.16359c-0.10837,0.07131 -0.20708,0.14839 -0.20708,0.14839c0,0 -0.09674,-0.08441 -0.23257,-0.14373c-0.11468,-0.05008 -0.28978,-0.07275 -0.32899,-0.17558z" fill="url(#color-27)"/><path d="M240.17249,183.22785l0.42064,-0.74142l0.40519,0.74142z" fill="url(#color-28)"/><path d="M239.32116,181.14678c-0.08071,-0.14015 -0.01983,-0.23765 -0.01504,-0.27122c0.00844,-0.05913 0.12422,0.20128 0.26943,0.22201c0.09291,0.01326 0.32262,0.11183 0.39867,0.18324c0.04282,0.04021 -0.01062,0.12046 -0.01062,0.12046c0,0 -0.21035,-0.02414 -0.35199,-0.06227c-0.06993,-0.01883 -0.22903,-0.08554 -0.29046,-0.19222z" fill="url(#color-29)"/><path d="M239.42443,181.42449c-0.10306,-0.12463 -0.11077,-0.23096 -0.11168,-0.26486c-0.0016,-0.05971 0.23479,0.19486 0.38142,0.19094c0.09381,-0.0025 0.30961,0.03891 0.39655,0.09656c0.04895,0.03245 0.00973,0.12053 0.00973,0.12053c0,0 -0.21142,0.01148 -0.35745,-0.00237c-0.0721,-0.00683 -0.24013,-0.04592 -0.31858,-0.14081z" fill="url(#color-30)"/><path d="M239.87978,181.7419c-0.06509,0.00722 -0.22102,0.00352 -0.30793,-0.06603c-0.11417,-0.09137 -0.10608,-0.19352 -0.11312,-0.22337c-0.01239,-0.05257 0.19981,0.12213 0.32889,0.09169c0.08259,-0.01947 0.29064,-0.0059 0.37822,0.02913c0.0493,0.01972 0.03079,0.10491 0.03079,0.10491c0,0 -0.18503,0.04906 -0.31686,0.06367z" fill="url(#color-31)"/><path d="M240.08109,181.83614c-0.04907,0.014 -0.20841,0.04877 -0.29306,0.01544c-0.11119,-0.04378 -0.11727,-0.12081 -0.12997,-0.14241c-0.02237,-0.03805 0.19456,0.06629 0.28799,0.01136c0.05978,-0.03514 0.2115,-0.05458 0.28833,-0.04836c0.04325,0.0035 0.07505,0.07448 0.07505,0.07448c0,0 -0.17689,0.0748 -0.22835,0.08948z" fill="url(#color-32)"/><path d="M239.92601,181.97163c-0.10673,-0.02701 -0.1213,-0.09669 -0.13542,-0.11494c-0.02489,-0.03216 0.18188,0.03416 0.26083,-0.02697c0.05052,-0.03911 0.19057,-0.07094 0.26151,-0.07424c0.03994,-0.00186 0.0773,0.05929 0.0773,0.05929c0,0 -0.15291,0.08904 -0.19822,0.10848c-0.04321,0.01853 -0.18476,0.06894 -0.26601,0.04838z" fill="url(#color-33)"/><path d="M240.32667,181.99559c-0.04131,0.02245 -0.1776,0.08571 -0.2604,0.07275c-0.10877,-0.01704 -0.13338,-0.08507 -0.14914,-0.10194c-0.02776,-0.02971 0.18825,0.01686 0.26122,-0.0513c0.04669,-0.0436 0.18288,-0.08788 0.25322,-0.09773c0.03959,-0.00554 -0.04969,0.11796 -0.04969,0.11796c0,0 -0.01189,0.03673 -0.05522,0.06026z" fill="url(#color-34)"/><path d="M240.36811,183.18795c-0.09179,0.03773 -0.15928,0.03258 -0.15072,-0.01153c0.00856,-0.04411 0.0899,-0.11046 0.18169,-0.1482c0.09179,-0.03773 0.15927,-0.03259 0.15071,0.01152c-0.00856,0.04411 -0.08989,0.11046 -0.18168,0.1482z" fill="url(#color-35)"/><path d="M240.53115,182.7166c0.01024,-0.09871 0.04676,-0.15569 0.08155,-0.12727c0.03479,0.02843 0.05469,0.1315 0.04445,0.23021c-0.01024,0.09871 -0.04676,0.1557 -0.08156,0.12727c-0.03479,-0.02843 -0.05468,-0.1315 -0.04444,-0.23022z" fill="url(#color-36)"/><path d="M240.86669,183.07992c0.07908,0.05996 0.10887,0.12073 0.06652,0.13573c-0.04235,0.01501 -0.1408,-0.02143 -0.21988,-0.0814c-0.07908,-0.05996 -0.10887,-0.12073 -0.06652,-0.13573c0.04235,-0.01501 0.1408,0.02143 0.21989,0.0814z" fill="url(#color-37)"/><path d="M240.64964,183.00028c0,0.03244 -0.02711,0.05872 -0.06056,0.05872c-0.03345,0 -0.06056,-0.02629 -0.06056,-0.05872c0,-0.03244 0.02711,-0.05872 0.06056,-0.05872c0.03345,0 0.06056,0.02629 0.06056,0.05872z" fill="url(#color-38)"/><path d="M241.56747,181.33299c-0.14164,0.03813 -0.35199,0.06227 -0.35199,0.06227c0,0 -0.05344,-0.08025 -0.01063,-0.12046c0.07605,-0.0714 0.30577,-0.16998 0.39867,-0.18324c0.14521,-0.02073 0.26099,-0.28115 0.26943,-0.22201c0.0048,0.03357 0.06568,0.13107 -0.01503,0.27122c-0.06143,0.10668 -0.22053,0.17339 -0.29047,0.19222z" data-paper-data="{&quot;index&quot;:null}" fill="url(#color-39)"/><path d="M241.43608,181.55929c-0.14603,0.01385 -0.35745,0.00237 -0.35745,0.00237c0,0 -0.03922,-0.08808 0.00973,-0.12054c0.08694,-0.05765 0.30275,-0.09905 0.39656,-0.09655c0.14663,0.00392 0.38302,-0.25065 0.38142,-0.19093c-0.0009,0.0339 -0.00862,0.14022 -0.11168,0.26485c-0.07845,0.09488 -0.24649,0.13397 -0.31858,0.14081z" data-paper-data="{&quot;index&quot;:null}" fill="url(#color-40)"/><path d="M241.29931,181.73589c-0.13182,-0.01461 -0.31685,-0.06366 -0.31685,-0.06366c0,0 -0.01851,-0.08519 0.03079,-0.10491c0.08758,-0.03504 0.29562,-0.04861 0.37821,-0.02913c0.12908,0.03045 0.34129,-0.14426 0.3289,-0.0917c-0.00704,0.02984 0.00105,0.132 -0.11312,0.22337c-0.08691,0.06955 -0.24284,0.07324 -0.30793,0.06603z" data-paper-data="{&quot;index&quot;:null}" fill="url(#color-41)"/><path d="M241.098,181.83014c-0.05146,-0.01469 -0.22836,-0.08949 -0.22836,-0.08949c0,0 0.0318,-0.07097 0.07505,-0.07447c0.07683,-0.00621 0.22856,0.01321 0.28834,0.04836c0.09343,0.05492 0.31036,-0.04941 0.28799,-0.01136c-0.0127,0.0216 -0.01878,0.09863 -0.12997,0.14241c-0.08464,0.03333 -0.24399,-0.00144 -0.29306,-0.01544z" data-paper-data="{&quot;index&quot;:null}" fill="url(#color-42)"/><path d="M240.98707,181.91724c-0.04531,-0.01944 -0.19822,-0.10849 -0.19822,-0.10849c0,0 0.03736,-0.06115 0.0773,-0.05929c0.07094,0.00331 0.21099,0.03514 0.26151,0.07425c0.07896,0.06113 0.28573,-0.0052 0.26084,0.02696c-0.01413,0.01826 -0.0287,0.08794 -0.13543,0.11494c-0.08125,0.02056 -0.22279,-0.02984 -0.266,-0.04838z" data-paper-data="{&quot;index&quot;:null}" fill="url(#color-43)"/><path d="M240.85242,181.98959c-0.04332,-0.02353 -0.05522,-0.06026 -0.05522,-0.06026c0,0 -0.08928,-0.12351 -0.04968,-0.11796c0.07034,0.00984 0.20652,0.05412 0.25321,0.09773c0.07298,0.06816 0.28898,0.02158 0.26123,0.0513c-0.01576,0.01687 -0.04036,0.0849 -0.14914,0.10194c-0.08281,0.01296 -0.21909,-0.0503 -0.2604,-0.07274z" data-paper-data="{&quot;index&quot;:null}" fill="url(#color-44)"/><path d="M240.04478,182.396c0,0 0.03563,-0.0814 0.06443,-0.11575c0.02067,-0.02466 0.08389,-0.02043 0.10132,-0.04658c0.02988,-0.0448 0.02044,-0.04364 0.03872,-0.08407c0.01961,-0.04339 -0.03331,0.00448 -0.0101,-0.06323c0.00986,-0.02875 0.0421,-0.05535 0.06516,-0.09114c0.01481,-0.023 0.00077,-0.03104 0.01139,-0.05681c0.00714,-0.0173 0.0395,-0.05267 0.04639,-0.06818c0.01545,-0.03481 -0.00463,-0.03846 0.00095,-0.06539c0.00817,-0.03943 0.03777,-0.09521 0.03777,-0.09521l0.13948,0.02936c0,0 -0.01952,0.05874 -0.03779,0.09018c-0.01711,0.02947 -0.03268,0.03049 -0.04296,0.06609c-0.01388,0.0481 0.0138,0.08389 -0.00234,0.11929c-0.0238,0.05219 -0.04951,0.01101 -0.05972,0.04036c-0.01687,0.04855 -0.00769,0.11719 -0.00769,0.11719c0,0 -0.05034,-0.01253 -0.07628,0.00709c-0.01691,0.01279 -0.03114,0.08013 -0.06268,0.11097c-0.00247,0.00241 0.0439,0.07533 0.02282,0.10071c-0.01332,0.01604 -0.04198,-0.08053 -0.06914,-0.07446c-0.0324,0.00724 -0.02204,0.11948 -0.02912,0.11965c-0.04573,0.00108 -0.01001,-0.12848 -0.02804,-0.11833c-0.02822,0.01591 -0.06346,0.06337 -0.08125,0.07815c-0.02035,0.0169 -0.02131,0.00011 -0.02131,0.00011z" fill="url(#color-45)"/><path d="M241.08846,182.39723c-0.01781,-0.01479 -0.05303,-0.06225 -0.08126,-0.07815c-0.01803,-0.01015 0.01769,0.1194 -0.02804,0.11832c-0.00708,-0.00017 0.00328,-0.11239 -0.02912,-0.11964c-0.02716,-0.00607 -0.05583,0.09049 -0.06915,0.07446c-0.02108,-0.02538 0.02528,-0.09829 0.02281,-0.10071c-0.03154,-0.03083 -0.04577,-0.09818 -0.06268,-0.11097c-0.02595,-0.01962 -0.07628,-0.0071 -0.07628,-0.0071c0,0 0.00919,-0.06862 -0.00768,-0.11718c-0.0102,-0.02936 -0.03592,0.01183 -0.05972,-0.04036c-0.01613,-0.03539 0.01154,-0.07118 -0.00234,-0.11929c-0.01028,-0.0356 -0.02585,-0.03663 -0.04296,-0.06609c-0.01827,-0.03144 -0.03779,-0.09018 -0.03779,-0.09018l0.13948,-0.02936c0,0 0.02959,0.05578 0.03777,0.09521c0.00558,0.02693 -0.0145,0.03057 0.00095,0.06539c0.00688,0.01551 0.03926,0.05089 0.04639,0.06819c0.01063,0.02576 -0.00343,0.03381 0.01138,0.05681c0.02305,0.03579 0.0553,0.06239 0.06516,0.09114c0.0232,0.06771 -0.02972,0.01984 -0.01011,0.06323c0.01827,0.04042 0.00885,0.03926 0.03872,0.08406c0.01744,0.02616 0.08065,0.02192 0.10132,0.04658c0.0288,0.03436 0.06443,0.11575 0.06443,0.11575c0,0 -0.00096,0.0168 -0.02132,-0.00011z" data-paper-data="{&quot;index&quot;:null}" fill="url(#color-46)"/><path d="M240.07781,181.67041c-0.05326,-0.08066 -0.16211,-0.41848 -0.16211,-0.41848c0,0 0.20334,-0.12975 0.32654,0.01646c0.03018,0.03581 0.08178,0.09422 0.12082,0.1609c0.06293,0.10747 0.11191,0.23642 0.12604,0.32697c0.01289,0.08261 -0.15149,0.25186 -0.15149,0.25186c0,0 -0.15194,-0.17434 -0.2598,-0.33771z" fill="url(#color-47)"/><path d="M241.10363,181.6728c-0.10786,0.16336 -0.2598,0.33771 -0.2598,0.33771c0,0 -0.16438,-0.16925 -0.15149,-0.25185c0.0099,-0.06343 0.01048,-0.16911 0.05084,-0.24965c0.01786,-0.03564 0.04086,-0.06829 0.06522,-0.09794c0.04793,-0.05833 0.10113,-0.10508 0.1308,-0.14028c0.12321,-0.14621 0.33564,-0.04376 0.33564,-0.04376c0,0 -0.11795,0.3651 -0.17121,0.44577z" data-paper-data="{&quot;index&quot;:null}" fill="url(#color-48)"/><path d="M240.80387,181.40046c0,0.31166 -0.1008,0.5643 -0.22513,0.5643c-0.12434,0 -0.22514,-0.25265 -0.22514,-0.5643c0,-0.14337 0.03972,-0.19608 0.0628,-0.30251c0.00329,-0.01516 0.01403,-0.09513 -0.01493,-0.102c-0.03928,-0.00932 -0.12211,0.0545 -0.12074,0.02455c0.00104,-0.02273 0.07004,-0.05851 0.11644,-0.09551c0.02638,-0.02103 0.0395,-0.05235 0.04353,-0.05719c0.0294,-0.03528 0.10326,-0.03165 0.13804,-0.03165c0.10668,0 0.1668,0.20061 0.19003,0.45028c0.00384,0.04133 0.03511,0.06977 0.03511,0.11403z" fill="#cecece"/></g><path d="M239.34728,183.1011c-0.02981,0.02195 -0.13148,-0.06792 -0.13148,-0.06792c0,0 -0.10033,0.09133 -0.13039,0.0698c-0.03006,-0.02153 0.02394,-0.14593 0.02394,-0.14593c0,0 -0.11779,-0.06729 -0.10665,-0.10249c0.01119,-0.03525 0.14617,-0.02231 0.14617,-0.02231c0,0 0.02752,-0.13286 0.06454,-0.13311c0.03697,-0.00029 0.06634,0.13214 0.06634,0.13214c0,0 0.13491,-0.01487 0.14657,0.02021c0.01177,0.03512 -0.10506,0.10401 -0.10506,0.10401c0,0 0.05573,0.12365 0.02602,0.14558z" fill="#cfcfcf" stroke="none" stroke-width="2.57572"/><path d="M239.1021,182.49579c-0.02981,0.02195 -0.13148,-0.06791 -0.13148,-0.06791c0,0 -0.10034,0.09133 -0.13039,0.0698c-0.03006,-0.02153 0.02393,-0.14592 0.02393,-0.14592c0,0 -0.11778,-0.06729 -0.10665,-0.10249c0.01119,-0.03525 0.14617,-0.02231 0.14617,-0.02231c0,0 0.02752,-0.13286 0.06454,-0.13311c0.03697,-0.00029 0.06634,0.13214 0.06634,0.13214c0,0 0.13491,-0.01488 0.14657,0.0202c0.01177,0.03512 -0.10506,0.10402 -0.10506,0.10402c0,0 0.05573,0.12365 0.02602,0.14558z" fill="#cfcfcf" stroke="none" stroke-width="2.57572"/><path d="M239.16897,181.85775c-0.02981,0.02194 -0.13148,-0.06792 -0.13148,-0.06792c0,0 -0.10034,0.09133 -0.13039,0.0698c-0.03006,-0.02153 0.02393,-0.14592 0.02393,-0.14592c0,0 -0.11778,-0.06729 -0.10664,-0.10249c0.01119,-0.03525 0.14617,-0.02231 0.14617,-0.02231c0,0 0.02751,-0.13287 0.06454,-0.13311c0.03697,-0.00029 0.06634,0.13215 0.06634,0.13215c0,0 0.13491,-0.01488 0.14658,0.0202c0.01177,0.03512 -0.10506,0.10401 -0.10506,0.10401c0,0 0.05573,0.12366 0.02602,0.14558z" fill="#cfcfcf" stroke="none" stroke-width="2.57572"/><path d="M241.35266,180.88466c-0.02981,0.02194 -0.13148,-0.06792 -0.13148,-0.06792c0,0 -0.10034,0.09133 -0.13039,0.0698c-0.03006,-0.02153 0.02393,-0.14592 0.02393,-0.14592c0,0 -0.11778,-0.06729 -0.10665,-0.10249c0.01119,-0.03525 0.14617,-0.02231 0.14617,-0.02231c0,0 0.02752,-0.13287 0.06454,-0.13311c0.03697,-0.00029 0.06634,0.13215 0.06634,0.13215c0,0 0.13491,-0.01488 0.14657,0.0202c0.01177,0.03512 -0.10506,0.10401 -0.10506,0.10401c0,0 0.05573,0.12365 0.02602,0.14558z" fill="#cfcfcf" stroke="none" stroke-width="2.57572"/><path d="M240.67839,180.67778c-0.02981,0.02194 -0.13148,-0.06792 -0.13148,-0.06792c0,0 -0.10034,0.09133 -0.13039,0.0698c-0.03006,-0.02153 0.02394,-0.14592 0.02394,-0.14592c0,0 -0.11779,-0.0673 -0.10665,-0.10249c0.01119,-0.03525 0.14617,-0.0223 0.14617,-0.0223c0,0 0.02752,-0.13287 0.06455,-0.13311c0.03697,-0.00029 0.06633,0.13214 0.06633,0.13214c0,0 0.13491,-0.01487 0.14657,0.02021c0.01177,0.03512 -0.10506,0.10401 -0.10506,0.10401c0,0 0.05573,0.12365 0.02602,0.14558z" fill="#cfcfcf" stroke="none" stroke-width="2.57572"/><path d="M240.03269,180.88257c-0.02981,0.02194 -0.13148,-0.06792 -0.13148,-0.06792c0,0 -0.10034,0.09133 -0.13039,0.0698c-0.03006,-0.02153 0.02394,-0.14593 0.02394,-0.14593c0,0 -0.11778,-0.06729 -0.10665,-0.10249c0.01119,-0.03525 0.14617,-0.02231 0.14617,-0.02231c0,0 0.02752,-0.13286 0.06454,-0.13311c0.03697,-0.00029 0.06634,0.13214 0.06634,0.13214c0,0 0.13491,-0.01487 0.14657,0.02021c0.01177,0.03512 -0.10506,0.10402 -0.10506,0.10402c0,0 0.05573,0.12365 0.02602,0.14557z" fill="#cfcfcf" stroke="none" stroke-width="2.57572"/><path d="M241.36305,183.53783c-0.02972,-0.02193 0.02602,-0.14558 0.02602,-0.14558c0,0 -0.11684,-0.06889 -0.10507,-0.10402c0.01166,-0.03508 0.14657,-0.0202 0.14657,-0.0202c0,0 0.02937,-0.13244 0.06634,-0.13215c0.03702,0.00024 0.06454,0.13311 0.06454,0.13311c0,0 0.13499,-0.01295 0.14617,0.0223c0.01113,0.0352 -0.10665,0.10249 -0.10665,0.10249c0,0 0.054,0.1244 0.02394,0.14593c-0.03006,0.02153 -0.13039,-0.06981 -0.13039,-0.06981c0,0 -0.10167,0.08986 -0.13148,0.06792z" data-paper-data="{&quot;index&quot;:null}" fill="#cfcfcf" stroke="none" stroke-width="2.57572"/><path d="M241.80188,183.10667c-0.02972,-0.02193 0.02602,-0.14559 0.02602,-0.14559c0,0 -0.11684,-0.06889 -0.10506,-0.10401c0.01166,-0.03508 0.14657,-0.02021 0.14657,-0.02021c0,0 0.02937,-0.13244 0.06634,-0.13214c0.03702,0.00024 0.06455,0.1331 0.06455,0.1331c0,0 0.13499,-0.01295 0.14617,0.0223c0.01113,0.0352 -0.10665,0.1025 -0.10665,0.1025c0,0 0.05399,0.1244 0.02394,0.14593c-0.03006,0.02153 -0.13039,-0.06979 -0.13039,-0.06979c0,0 -0.10168,0.08986 -0.13148,0.06792z" data-paper-data="{&quot;index&quot;:null}" fill="#cfcfcf" stroke="none" stroke-width="2.57572"/><path d="M242.04707,182.50136c-0.02972,-0.02193 0.02602,-0.14558 0.02602,-0.14558c0,0 -0.11683,-0.0689 -0.10506,-0.10402c0.01166,-0.03508 0.14657,-0.02021 0.14657,-0.02021c0,0 0.02937,-0.13242 0.06634,-0.13214c0.03702,0.00024 0.06455,0.13311 0.06455,0.13311c0,0 0.13499,-0.01295 0.14617,0.0223c0.01113,0.0352 -0.10665,0.10249 -0.10665,0.10249c0,0 0.05399,0.1244 0.02394,0.14593c-0.03006,0.02153 -0.13039,-0.0698 -0.13039,-0.0698c0,0 -0.10167,0.08986 -0.13148,0.06792z" data-paper-data="{&quot;index&quot;:null}" fill="#cfcfcf" stroke="none" stroke-width="2.57572"/><path d="M241.9802,181.86332c-0.02972,-0.02193 0.02602,-0.14558 0.02602,-0.14558c0,0 -0.11683,-0.06889 -0.10506,-0.10401c0.01166,-0.03508 0.14657,-0.02021 0.14657,-0.02021c0,0 0.02937,-0.13244 0.06634,-0.13214c0.03702,0.00024 0.06454,0.13311 0.06454,0.13311c0,0 0.13499,-0.01295 0.14617,0.02231c0.01113,0.0352 -0.10665,0.10249 -0.10665,0.10249c0,0 0.05398,0.12439 0.02393,0.14592c-0.03006,0.02153 -0.13039,-0.0698 -0.13039,-0.0698c0,0 -0.10167,0.08986 -0.13148,0.06792z" data-paper-data="{&quot;index&quot;:null}" fill="#cfcfcf" stroke="none" stroke-width="2.57572"/></g><g stroke-linecap="butt"><path d="M242.58401,202.49946c0,1.1301 -0.91875,2.04623 -2.05208,2.04623c-1.13333,0 -2.05208,-0.91613 -2.05208,-2.04623c0,-1.1301 0.91875,-2.04623 2.05208,-2.04623c1.13333,0 2.05208,0.91613 2.05208,2.04623z" fill="#bababa" stroke="#cfcfcf" stroke-width="0.5"/><path d="M239.74146,203.92364c-0.02981,0.02195 -0.13148,-0.06791 -0.13148,-0.06791c0,0 -0.10033,0.09132 -0.13039,0.06979c-0.03006,-0.02153 0.02393,-0.14593 0.02393,-0.14593c0,0 -0.11778,-0.0673 -0.10665,-0.10249c0.01118,-0.03525 0.14617,-0.02231 0.14617,-0.02231c0,0 0.02752,-0.13286 0.06455,-0.13311c0.03697,-0.00029 0.06634,0.13214 0.06634,0.13214c0,0 0.13491,-0.01487 0.14658,0.02021c0.01177,0.03512 -0.10506,0.10402 -0.10506,0.10402c0,0 0.05574,0.12365 0.02602,0.14558z" fill="#cfcfcf" stroke="none" stroke-width="2.57572"/><g stroke="none" stroke-width="0"><path d="M240.18864,202.67594v-0.64966h0.68269v0.64966z" fill="url(#color-49)"/><path d="M240.36115,202.59652l0.17387,-0.74142l0.16748,0.74142z" fill="url(#color-50)"/><path d="M239.98469,203.74802c-0.02823,-0.07404 0.04449,-0.23695 0.04641,-0.39256c0.00194,-0.15642 -0.08764,-0.41515 -0.08764,-0.41515l0.12931,-0.27505l0.9176,0.00367l0.11429,0.26051c0,0 -0.06904,0.2592 -0.06193,0.4078c0.00749,0.15648 0.08928,0.28471 0.04306,0.41812c-0.04073,0.11755 -0.26203,0.11724 -0.33246,0.16359c-0.10837,0.07131 -0.20708,0.14839 -0.20708,0.14839c0,0 -0.09674,-0.08441 -0.23257,-0.14373c-0.11468,-0.05008 -0.28978,-0.07275 -0.32899,-0.17558z" fill="url(#color-51)"/><path d="M240.12784,203.61923l0.42064,-0.74142l0.40519,0.74142z" fill="url(#color-52)"/><path d="M239.2765,201.53816c-0.08071,-0.14015 -0.01983,-0.23765 -0.01503,-0.27122c0.00844,-0.05913 0.12422,0.20128 0.26943,0.22201c0.09291,0.01326 0.32262,0.11183 0.39867,0.18324c0.04282,0.04021 -0.01063,0.12046 -0.01063,0.12046c0,0 -0.21035,-0.02414 -0.35199,-0.06227c-0.06993,-0.01883 -0.22903,-0.08554 -0.29046,-0.19222z" fill="url(#color-53)"/><path d="M239.37977,201.81587c-0.10306,-0.12463 -0.11077,-0.23096 -0.11168,-0.26486c-0.0016,-0.05971 0.23479,0.19486 0.38142,0.19094c0.09381,-0.0025 0.30961,0.03891 0.39656,0.09656c0.04895,0.03245 0.00973,0.12053 0.00973,0.12053c0,0 -0.21142,0.01148 -0.35745,-0.00237c-0.0721,-0.00683 -0.24013,-0.04592 -0.31858,-0.14081z" fill="url(#color-54)"/><path d="M239.83512,202.13328c-0.06509,0.00722 -0.22102,0.00352 -0.30793,-0.06603c-0.11417,-0.09137 -0.10608,-0.19352 -0.11312,-0.22337c-0.01239,-0.05257 0.19981,0.12213 0.32889,0.09169c0.08259,-0.01947 0.29064,-0.0059 0.37822,0.02913c0.0493,0.01972 0.03079,0.10491 0.03079,0.10491c0,0 -0.18503,0.04906 -0.31686,0.06367z" fill="url(#color-55)"/><path d="M240.03643,202.22752c-0.04907,0.014 -0.20841,0.04877 -0.29305,0.01544c-0.11119,-0.04378 -0.11727,-0.12081 -0.12997,-0.14241c-0.02237,-0.03805 0.19456,0.06629 0.28799,0.01136c0.05978,-0.03514 0.2115,-0.05458 0.28833,-0.04836c0.04325,0.0035 0.07505,0.07448 0.07505,0.07448c0,0 -0.17689,0.0748 -0.22835,0.08948z" fill="url(#color-56)"/><path d="M239.88135,202.36301c-0.10673,-0.02701 -0.1213,-0.09669 -0.13542,-0.11494c-0.02489,-0.03216 0.18188,0.03416 0.26084,-0.02697c0.05052,-0.03911 0.19057,-0.07094 0.26151,-0.07424c0.03994,-0.00186 0.0773,0.05929 0.0773,0.05929c0,0 -0.15291,0.08904 -0.19822,0.10848c-0.04321,0.01853 -0.18476,0.06894 -0.26601,0.04838z" fill="url(#color-57)"/><path d="M240.28201,202.38698c-0.04131,0.02245 -0.1776,0.08571 -0.26041,0.07275c-0.10877,-0.01704 -0.13338,-0.08507 -0.14914,-0.10194c-0.02776,-0.02971 0.18825,0.01686 0.26122,-0.0513c0.04669,-0.0436 0.18288,-0.08788 0.25322,-0.09773c0.03959,-0.00554 -0.04969,0.11796 -0.04969,0.11796c0,0 -0.01189,0.03673 -0.05521,0.06026z" fill="url(#color-58)"/><path d="M240.32346,203.57933c-0.09179,0.03773 -0.15928,0.03258 -0.15072,-0.01153c0.00856,-0.04411 0.0899,-0.11046 0.18169,-0.1482c0.09179,-0.03773 0.15927,-0.03259 0.15071,0.01152c-0.00856,0.04411 -0.08989,0.11046 -0.18168,0.1482z" fill="url(#color-59)"/><path d="M240.48649,203.10798c0.01024,-0.09871 0.04677,-0.15569 0.08156,-0.12727c0.03479,0.02843 0.05469,0.1315 0.04444,0.23021c-0.01024,0.09871 -0.04676,0.1557 -0.08156,0.12727c-0.03479,-0.02843 -0.05469,-0.1315 -0.04444,-0.23022z" fill="url(#color-60)"/><path d="M240.82204,203.4713c0.07908,0.05996 0.10887,0.12073 0.06652,0.13573c-0.04235,0.01501 -0.1408,-0.02143 -0.21988,-0.0814c-0.07908,-0.05996 -0.10887,-0.12073 -0.06652,-0.13573c0.04235,-0.01501 0.1408,0.02143 0.21989,0.0814z" fill="url(#color-61)"/><path d="M240.60499,203.39166c0,0.03244 -0.02711,0.05872 -0.06056,0.05872c-0.03345,0 -0.06056,-0.02629 -0.06056,-0.05872c0,-0.03244 0.02711,-0.05872 0.06056,-0.05872c0.03345,0 0.06056,0.02629 0.06056,0.05872z" fill="url(#color-62)"/><path d="M241.52282,201.72438c-0.14164,0.03813 -0.35199,0.06227 -0.35199,0.06227c0,0 -0.05344,-0.08025 -0.01063,-0.12046c0.07605,-0.0714 0.30577,-0.16998 0.39867,-0.18324c0.14521,-0.02073 0.26099,-0.28115 0.26943,-0.22201c0.0048,0.03357 0.06568,0.13107 -0.01503,0.27122c-0.06143,0.10668 -0.22053,0.17339 -0.29047,0.19222z" data-paper-data="{&quot;index&quot;:null}" fill="url(#color-63)"/><path d="M241.39143,201.95067c-0.14603,0.01385 -0.35744,0.00237 -0.35744,0.00237c0,0 -0.03923,-0.08808 0.00972,-0.12054c0.08694,-0.05765 0.30275,-0.09905 0.39656,-0.09655c0.14663,0.00392 0.38302,-0.25065 0.38142,-0.19093c-0.0009,0.0339 -0.00862,0.14022 -0.11168,0.26485c-0.07845,0.09488 -0.24649,0.13397 -0.31858,0.14081z" data-paper-data="{&quot;index&quot;:null}" fill="url(#color-64)"/><path d="M241.25466,202.12727c-0.13182,-0.01461 -0.31685,-0.06366 -0.31685,-0.06366c0,0 -0.01851,-0.08519 0.03079,-0.10491c0.08758,-0.03504 0.29562,-0.04861 0.37821,-0.02913c0.12908,0.03045 0.34129,-0.14426 0.3289,-0.0917c-0.00704,0.02984 0.00105,0.132 -0.11312,0.22337c-0.08691,0.06955 -0.24283,0.07324 -0.30792,0.06603z" data-paper-data="{&quot;index&quot;:null}" fill="url(#color-65)"/><path d="M241.05335,202.22152c-0.05146,-0.01469 -0.22835,-0.08949 -0.22835,-0.08949c0,0 0.03179,-0.07097 0.07505,-0.07447c0.07683,-0.00621 0.22856,0.01321 0.28834,0.04836c0.09343,0.05492 0.31036,-0.04941 0.28799,-0.01136c-0.0127,0.0216 -0.01878,0.09863 -0.12997,0.14241c-0.08464,0.03333 -0.24399,-0.00144 -0.29306,-0.01544z" data-paper-data="{&quot;index&quot;:null}" fill="url(#color-66)"/><path d="M240.94242,202.30862c-0.04531,-0.01944 -0.19822,-0.10849 -0.19822,-0.10849c0,0 0.03736,-0.06115 0.0773,-0.05929c0.07094,0.00331 0.21099,0.03514 0.26151,0.07425c0.07896,0.06113 0.28573,-0.0052 0.26084,0.02696c-0.01413,0.01826 -0.0287,0.08794 -0.13543,0.11494c-0.08125,0.02056 -0.22279,-0.02984 -0.266,-0.04838z" data-paper-data="{&quot;index&quot;:null}" fill="url(#color-67)"/><path d="M240.80777,202.38097c-0.04332,-0.02353 -0.05521,-0.06026 -0.05521,-0.06026c0,0 -0.08929,-0.12351 -0.04969,-0.11796c0.07034,0.00984 0.20652,0.05412 0.25322,0.09773c0.07298,0.06816 0.28898,0.02158 0.26122,0.0513c-0.01576,0.01687 -0.04036,0.0849 -0.14914,0.10194c-0.08281,0.01296 -0.21909,-0.0503 -0.2604,-0.07274z" data-paper-data="{&quot;index&quot;:null}" fill="url(#color-68)"/><path d="M240.00012,202.78738c0,0 0.03563,-0.0814 0.06444,-0.11575c0.02067,-0.02466 0.08388,-0.02043 0.10132,-0.04658c0.02988,-0.0448 0.02045,-0.04364 0.03872,-0.08407c0.01961,-0.04339 -0.03331,0.00448 -0.01011,-0.06323c0.00986,-0.02875 0.0421,-0.05535 0.06516,-0.09114c0.01481,-0.023 0.00077,-0.03104 0.01139,-0.05681c0.00714,-0.0173 0.0395,-0.05267 0.04639,-0.06818c0.01545,-0.03481 -0.00463,-0.03846 0.00095,-0.06539c0.00817,-0.03943 0.03777,-0.09521 0.03777,-0.09521l0.13948,0.02936c0,0 -0.01952,0.05874 -0.03779,0.09018c-0.01711,0.02947 -0.03268,0.03049 -0.04296,0.06609c-0.01388,0.0481 0.0138,0.08389 -0.00234,0.11929c-0.0238,0.05219 -0.04951,0.01101 -0.05972,0.04036c-0.01687,0.04855 -0.00769,0.11719 -0.00769,0.11719c0,0 -0.05033,-0.01253 -0.07627,0.00709c-0.01691,0.01279 -0.03114,0.08013 -0.06268,0.11097c-0.00247,0.00241 0.0439,0.07533 0.02281,0.10071c-0.01332,0.01604 -0.04198,-0.08053 -0.06914,-0.07446c-0.0324,0.00724 -0.02204,0.11948 -0.02912,0.11965c-0.04573,0.00108 -0.01001,-0.12848 -0.02804,-0.11833c-0.02822,0.01591 -0.06346,0.06337 -0.08125,0.07815c-0.02035,0.0169 -0.02131,0.00011 -0.02131,0.00011z" fill="url(#color-69)"/><path d="M241.04381,202.78861c-0.01781,-0.01479 -0.05303,-0.06225 -0.08126,-0.07815c-0.01803,-0.01015 0.01769,0.1194 -0.02804,0.11832c-0.00708,-0.00017 0.00328,-0.11239 -0.02912,-0.11964c-0.02716,-0.00607 -0.05583,0.09049 -0.06915,0.07446c-0.02108,-0.02538 0.02528,-0.09829 0.02281,-0.10071c-0.03154,-0.03083 -0.04577,-0.09818 -0.06268,-0.11097c-0.02595,-0.01962 -0.07628,-0.0071 -0.07628,-0.0071c0,0 0.00919,-0.06862 -0.00769,-0.11718c-0.0102,-0.02936 -0.03592,0.01183 -0.05972,-0.04036c-0.01613,-0.03539 0.01154,-0.07118 -0.00234,-0.11929c-0.01028,-0.0356 -0.02585,-0.03663 -0.04296,-0.06609c-0.01827,-0.03144 -0.03778,-0.09018 -0.03778,-0.09018l0.13947,-0.02936c0,0 0.02959,0.05578 0.03777,0.09521c0.00558,0.02693 -0.01449,0.03057 0.00095,0.06539c0.00688,0.01551 0.03926,0.05089 0.04639,0.06819c0.01063,0.02576 -0.00344,0.03381 0.01138,0.05681c0.02305,0.03579 0.0553,0.06239 0.06516,0.09114c0.0232,0.06771 -0.02972,0.01984 -0.01011,0.06323c0.01827,0.04042 0.00885,0.03926 0.03872,0.08406c0.01744,0.02616 0.08065,0.02192 0.10133,0.04658c0.0288,0.03436 0.06443,0.11575 0.06443,0.11575c0,0 -0.00096,0.0168 -0.02131,-0.00011z" data-paper-data="{&quot;index&quot;:null}" fill="url(#color-70)"/><path d="M240.03315,202.06179c-0.05326,-0.08066 -0.16211,-0.41848 -0.16211,-0.41848c0,0 0.20334,-0.12975 0.32654,0.01646c0.03018,0.03581 0.08178,0.09422 0.12083,0.1609c0.06293,0.10747 0.11191,0.23642 0.12604,0.32697c0.01289,0.08261 -0.15149,0.25186 -0.15149,0.25186c0,0 -0.15194,-0.17434 -0.2598,-0.33771z" fill="url(#color-71)"/><path d="M241.05898,202.06418c-0.10786,0.16336 -0.2598,0.33771 -0.2598,0.33771c0,0 -0.16438,-0.16925 -0.15149,-0.25185c0.0099,-0.06343 0.01048,-0.16911 0.05084,-0.24965c0.01786,-0.03564 0.04086,-0.06829 0.06522,-0.09794c0.04793,-0.05833 0.10113,-0.10508 0.1308,-0.14028c0.12321,-0.14621 0.33564,-0.04376 0.33564,-0.04376c0,0 -0.11795,0.3651 -0.17121,0.44577z" data-paper-data="{&quot;index&quot;:null}" fill="url(#color-72)"/><path d="M240.75922,201.79183c0,0.31166 -0.1008,0.5643 -0.22514,0.5643c-0.12434,0 -0.22514,-0.25265 -0.22514,-0.5643c0,-0.14337 0.03972,-0.19608 0.0628,-0.30251c0.00329,-0.01516 0.01403,-0.09513 -0.01493,-0.102c-0.03928,-0.00932 -0.12211,0.0545 -0.12074,0.02455c0.00104,-0.02273 0.07004,-0.05851 0.11644,-0.09551c0.02638,-0.02103 0.0395,-0.05235 0.04353,-0.05719c0.0294,-0.03528 0.10326,-0.03165 0.13804,-0.03165c0.10668,0 0.1668,0.20061 0.19003,0.45028c0.00384,0.04133 0.03511,0.06977 0.03511,0.11403z" fill="#cecece"/></g><path d="M239.30263,203.49248c-0.02981,0.02195 -0.13148,-0.06792 -0.13148,-0.06792c0,0 -0.10033,0.09133 -0.13039,0.0698c-0.03006,-0.02153 0.02394,-0.14593 0.02394,-0.14593c0,0 -0.11779,-0.06729 -0.10665,-0.10249c0.01119,-0.03525 0.14617,-0.02231 0.14617,-0.02231c0,0 0.02752,-0.13286 0.06454,-0.13311c0.03697,-0.00029 0.06634,0.13214 0.06634,0.13214c0,0 0.13492,-0.01487 0.14658,0.02021c0.01177,0.03512 -0.10507,0.10401 -0.10507,0.10401c0,0 0.05573,0.12365 0.02602,0.14558z" fill="#cfcfcf" stroke="none" stroke-width="2.57572"/><path d="M239.05744,202.88717c-0.02981,0.02195 -0.13148,-0.06791 -0.13148,-0.06791c0,0 -0.10034,0.09133 -0.13039,0.0698c-0.03006,-0.02153 0.02393,-0.14592 0.02393,-0.14592c0,0 -0.11778,-0.06729 -0.10665,-0.10249c0.01119,-0.03525 0.14617,-0.02231 0.14617,-0.02231c0,0 0.02752,-0.13286 0.06455,-0.13311c0.03697,-0.00029 0.06634,0.13214 0.06634,0.13214c0,0 0.13491,-0.01488 0.14657,0.0202c0.01177,0.03512 -0.10506,0.10402 -0.10506,0.10402c0,0 0.05574,0.12365 0.02602,0.14558z" fill="#cfcfcf" stroke="none" stroke-width="2.57572"/><path d="M239.12431,202.24912c-0.02981,0.02194 -0.13148,-0.06792 -0.13148,-0.06792c0,0 -0.10034,0.09133 -0.13039,0.0698c-0.03006,-0.02153 0.02394,-0.14592 0.02394,-0.14592c0,0 -0.11778,-0.06729 -0.10665,-0.10249c0.01119,-0.03525 0.14617,-0.02231 0.14617,-0.02231c0,0 0.02751,-0.13287 0.06453,-0.13311c0.03697,-0.00029 0.06634,0.13215 0.06634,0.13215c0,0 0.13491,-0.01488 0.14658,0.0202c0.01177,0.03512 -0.10506,0.10401 -0.10506,0.10401c0,0 0.05573,0.12366 0.02602,0.14558z" fill="#cfcfcf" stroke="none" stroke-width="2.57572"/><path d="M241.308,201.27604c-0.02981,0.02194 -0.13148,-0.06792 -0.13148,-0.06792c0,0 -0.10034,0.09133 -0.13039,0.0698c-0.03006,-0.02153 0.02393,-0.14592 0.02393,-0.14592c0,0 -0.11778,-0.06729 -0.10664,-0.10249c0.01119,-0.03525 0.14616,-0.02231 0.14616,-0.02231c0,0 0.02752,-0.13287 0.06454,-0.13311c0.03697,-0.00029 0.06634,0.13215 0.06634,0.13215c0,0 0.13491,-0.01488 0.14658,0.0202c0.01177,0.03512 -0.10506,0.10401 -0.10506,0.10401c0,0 0.05573,0.12365 0.02602,0.14558z" fill="#cfcfcf" stroke="none" stroke-width="2.57572"/><path d="M240.63374,201.06916c-0.02981,0.02194 -0.13148,-0.06792 -0.13148,-0.06792c0,0 -0.10033,0.09133 -0.13039,0.0698c-0.03006,-0.02153 0.02394,-0.14592 0.02394,-0.14592c0,0 -0.11779,-0.0673 -0.10666,-0.10249c0.01119,-0.03525 0.14617,-0.0223 0.14617,-0.0223c0,0 0.02752,-0.13287 0.06455,-0.13311c0.03697,-0.00029 0.06634,0.13214 0.06634,0.13214c0,0 0.13491,-0.01487 0.14657,0.02021c0.01177,0.03512 -0.10506,0.10401 -0.10506,0.10401c0,0 0.05573,0.12365 0.02602,0.14558z" fill="#cfcfcf" stroke="none" stroke-width="2.57572"/><path d="M239.98804,201.27395c-0.02981,0.02194 -0.13148,-0.06792 -0.13148,-0.06792c0,0 -0.10034,0.09133 -0.13039,0.0698c-0.03006,-0.02153 0.02394,-0.14593 0.02394,-0.14593c0,0 -0.11778,-0.06729 -0.10665,-0.10249c0.01119,-0.03525 0.14617,-0.02231 0.14617,-0.02231c0,0 0.02752,-0.13286 0.06454,-0.13311c0.03697,-0.00029 0.06634,0.13214 0.06634,0.13214c0,0 0.13491,-0.01487 0.14657,0.02021c0.01177,0.03512 -0.10506,0.10402 -0.10506,0.10402c0,0 0.05573,0.12365 0.02602,0.14557z" fill="#cfcfcf" stroke="none" stroke-width="2.57572"/><path d="M241.31839,203.92921c-0.02972,-0.02193 0.02602,-0.14558 0.02602,-0.14558c0,0 -0.11684,-0.06889 -0.10506,-0.10402c0.01166,-0.03508 0.14657,-0.0202 0.14657,-0.0202c0,0 0.02937,-0.13244 0.06634,-0.13215c0.03702,0.00024 0.06454,0.13311 0.06454,0.13311c0,0 0.13499,-0.01295 0.14617,0.0223c0.01113,0.0352 -0.10665,0.10249 -0.10665,0.10249c0,0 0.054,0.1244 0.02394,0.14593c-0.03006,0.02153 -0.13039,-0.06981 -0.13039,-0.06981c0,0 -0.10167,0.08986 -0.13148,0.06792z" data-paper-data="{&quot;index&quot;:null}" fill="#cfcfcf" stroke="none" stroke-width="2.57572"/><path d="M241.75722,203.49805c-0.02972,-0.02193 0.02602,-0.14559 0.02602,-0.14559c0,0 -0.11684,-0.06889 -0.10506,-0.10401c0.01166,-0.03508 0.14657,-0.02021 0.14657,-0.02021c0,0 0.02937,-0.13244 0.06634,-0.13215c0.03702,0.00024 0.06455,0.13311 0.06455,0.13311c0,0 0.13499,-0.01295 0.14617,0.0223c0.01113,0.0352 -0.10665,0.1025 -0.10665,0.1025c0,0 0.05399,0.1244 0.02394,0.14593c-0.03006,0.02153 -0.13039,-0.06979 -0.13039,-0.06979c0,0 -0.10168,0.08986 -0.13148,0.06792z" data-paper-data="{&quot;index&quot;:null}" fill="#cfcfcf" stroke="none" stroke-width="2.57572"/><path d="M242.00241,202.89274c-0.02972,-0.02193 0.02602,-0.14558 0.02602,-0.14558c0,0 -0.11683,-0.0689 -0.10506,-0.10402c0.01166,-0.03508 0.14657,-0.02021 0.14657,-0.02021c0,0 0.02937,-0.13242 0.06634,-0.13214c0.03702,0.00024 0.06455,0.13311 0.06455,0.13311c0,0 0.13499,-0.01295 0.14617,0.0223c0.01113,0.0352 -0.10665,0.10249 -0.10665,0.10249c0,0 0.05399,0.1244 0.02394,0.14593c-0.03006,0.02153 -0.13039,-0.0698 -0.13039,-0.0698c0,0 -0.10167,0.08986 -0.13148,0.06792z" data-paper-data="{&quot;index&quot;:null}" fill="#cfcfcf" stroke="none" stroke-width="2.57572"/><path d="M241.93554,202.2547c-0.02972,-0.02193 0.02602,-0.14558 0.02602,-0.14558c0,0 -0.11683,-0.06889 -0.10506,-0.10401c0.01166,-0.03508 0.14657,-0.02021 0.14657,-0.02021c0,0 0.02937,-0.13244 0.06634,-0.13214c0.03702,0.00024 0.06454,0.13311 0.06454,0.13311c0,0 0.13499,-0.01295 0.14617,0.02231c0.01113,0.0352 -0.10665,0.10249 -0.10665,0.10249c0,0 0.05398,0.12439 0.02393,0.14592c-0.03006,0.02153 -0.13039,-0.0698 -0.13039,-0.0698c0,0 -0.10167,0.08986 -0.13148,0.06792z" data-paper-data="{&quot;index&quot;:null}" fill="#cfcfcf" stroke="none" stroke-width="2.57572"/></g><path d="M238.83358,156.18992c-3.13717,-2.62168 -7.73159,-6.48543 -10.29389,-8.75369c-3.52301,-3.11873 -9.60401,-9.11949 -9.60401,-9.11949l5.861,-2.76061l-5.35135,-2.63321l2.59073,-8.71057l4.93799,-4.87335c0,0 0.19173,1.85782 1.50694,5.80626c1.11816,3.35685 2.80382,7.34175 4.27082,11.06776c1.7008,4.31988 4.777,11.6971 7.12754,17.28864" data-paper-data="{&quot;index&quot;:null}" fill="none" stroke="#000d46" stroke-width="0.5" stroke-linecap="round"/><path d="M241.46926,135.46093" fill="none" stroke="#000d46" stroke-width="0.5" stroke-linecap="round"/><path d="M267.25667,159.63157l-0.45976,3.27799l-16.78778,0.15326l0.04587,-3.34794z" data-paper-data="{&quot;index&quot;:null}" fill="none" stroke="#000d46" stroke-width="0.5" stroke-linecap="round"/><path d="M237.12392,240.68632c0.03016,-17.48956 -0.18316,-79.78349 -0.18316,-79.78349c0,0 7.3016,-17.18353 10.30742,-24.81801c1.467,-3.72601 3.15266,-7.71091 4.27082,-11.06776c1.31521,-3.94844 1.50694,-5.80626 1.50694,-5.80626l4.93799,4.87335l2.59073,8.71057l-5.35135,2.63321l5.861,2.76061c0,0 -6.081,6.00076 -9.60401,9.11949c-4.14699,3.6711 -13.61694,11.52144 -13.61694,11.52144" data-paper-data="{&quot;index&quot;:null}" fill="none" stroke="#000d46" stroke-width="0.5" stroke-linecap="round"/><path d="M267.78095,209.07057l1.2953,31.02892c0,0 -23.84352,0.42448 -31.916,0.58354" data-paper-data="{&quot;index&quot;:null}" fill="none" stroke="#000d46" stroke-width="0.5" stroke-linecap="round"/></g></g></svg>