<svg version="1.1" xmlns="http://www.w3.org/2000/svg" xmlns:xlink="http://www.w3.org/1999/xlink" width="227.07381" height="318.00601" viewBox="0,0,227.07381,318.00601"><g transform="translate(-126.46309,-21.02359)"><g data-paper-data="{&quot;isPaintingLayer&quot;:true}" fill-rule="nonzero" stroke-linejoin="miter" stroke-miterlimit="10" stroke-dasharray="" stroke-dashoffset="0" style="mix-blend-mode: normal"><g><g fill="#c9cce9" stroke="none" stroke-width="0" stroke-linecap="butt"><path d="M164.08298,284.94453c0,0 0.70161,-10.61559 4.68887,-27.46785c2.53115,-13.20323 6.5955,-23.92675 7.34339,-27.75129c1.80465,-9.22855 3.789,-14.00126 3.58018,-20.99869c-0.254,-8.51149 -3.65831,-17.93078 -4.04122,-19.0685c-4.36346,-12.96487 -4.63381,-24.70823 -4.63381,-24.70823l-43.41781,2.77613c0,0 1.21715,-41.14407 5.88447,-62.35068c7.04204,-31.99648 18.76798,-55.64009 18.76798,-55.64009l50.98344,-12.2718l12.78951,-15.95042c0,0 4.47599,8.18343 10.08844,15.55054c4.19472,5.50614 10.61624,7.11613 13.46712,7.11613c9.17177,0 17.85123,-3.11111 29.88889,-3.11111c15.67449,0 30.54106,7.22222 30.54106,7.22222l-27.44444,205.40097c0,0 -8.73095,7.44445 -29.19203,7.44445c-6.37752,0 -10.89972,23.44445 -19.57125,23.44445c-20.49256,0 -59.88405,0.44445 -59.88405,0.44445z"/><path d="M316.02767,284.69183c0,0 -39.39149,-0.44445 -59.88405,-0.44445c-8.67153,0 -13.19373,-23.44445 -19.57125,-23.44445c-20.46108,0 -29.19203,-7.44445 -29.19203,-7.44445l-27.44444,-205.40097c0,0 14.86657,-7.22222 30.54106,-7.22222c12.03766,0 20.71712,3.11111 29.88889,3.11111c2.85088,0 9.2724,-1.60999 13.46712,-7.11613c5.61245,-7.36711 9.65987,-14.83625 9.65987,-14.83625l12.64665,15.95042l51.55487,11.55751c0,0 11.72594,23.64361 18.76798,55.64009c4.66732,21.20661 5.88447,62.35068 5.88447,62.35068l-43.41781,-2.77613c0,0 -0.27035,11.74336 -4.63381,24.70823c-0.38291,1.13772 -3.78723,10.55701 -4.04122,19.0685c-0.20881,6.99743 1.77553,11.77014 3.58019,20.9987c0.74789,3.82455 4.81224,14.54807 7.34339,27.7513c3.98726,16.85226 4.68887,27.46784 4.68887,27.46784z" data-paper-data="{&quot;index&quot;:null}"/></g><g stroke-linecap="butt"><path d="M241.4978,189.49728c0,2.17334 -1.75148,3.93519 -3.91204,3.93519c-2.16056,0 -3.91204,-1.76184 -3.91204,-3.93519c0,-2.17334 1.75148,-3.93519 3.91204,-3.93519c2.16056,0 3.91204,1.76184 3.91204,3.93519z" fill="#c9cce9" stroke="#b1b5cd" stroke-width="1"/><path d="M236.4515,191.76582c-0.63922,0 -1.15741,-0.51819 -1.15741,-1.15741c0,-0.63922 0.51819,-1.15741 1.15741,-1.15741c0.63922,0 1.15741,0.51819 1.15741,1.15741c0,0.63922 -0.51819,1.15741 -1.15741,1.15741z" fill="#000000" stroke="#000000" stroke-width="0"/><path d="M238.72002,191.76582c-0.63922,0 -1.1574,-0.51819 -1.1574,-1.15741c0,-0.63922 0.51818,-1.1574 1.1574,-1.1574c0.63922,0 1.15741,0.51818 1.15741,1.1574c0,0.63922 -0.51819,1.15741 -1.15741,1.15741z" fill="#000000" stroke="#000000" stroke-width="0"/><path d="M236.4978,189.63616c-0.63922,0 -1.1574,-0.51819 -1.1574,-1.15741c0,-0.63922 0.51818,-1.15741 1.1574,-1.15741c0.63922,0 1.15741,0.51819 1.15741,1.15741c0,0.63922 -0.51819,1.15741 -1.15741,1.15741z" fill="#000000" stroke="#000000" stroke-width="0"/><path d="M238.72002,189.58987c-0.63922,0 -1.1574,-0.51819 -1.1574,-1.15741c0,-0.63922 0.51818,-1.15741 1.1574,-1.15741c0.63922,0 1.15741,0.51819 1.15741,1.15741c0,0.63922 -0.51819,1.15741 -1.15741,1.15741z" fill="#000000" stroke="#000000" stroke-width="0"/></g><g stroke-linecap="butt"><path d="M240.98548,154.98494c0,2.17335 -1.75148,3.93518 -3.91204,3.93518c-2.16056,0 -3.91204,-1.76184 -3.91204,-3.93518c0,-2.17335 1.75148,-3.93518 3.91204,-3.93518c2.16056,0 3.91204,1.76184 3.91204,3.93518z" fill="#c9cce9" stroke="#b1b5cd" stroke-width="1"/><path d="M235.93919,157.25347c-0.63922,0 -1.15741,-0.51819 -1.15741,-1.15741c0,-0.63922 0.51819,-1.15741 1.15741,-1.15741c0.63922,0 1.1574,0.51819 1.1574,1.15741c0,0.63922 -0.51818,1.15741 -1.1574,1.15741z" fill="#000000" stroke="#000000" stroke-width="0"/><path d="M238.2077,157.25346c-0.63922,0 -1.1574,-0.51819 -1.1574,-1.15741c0,-0.63922 0.51818,-1.15741 1.1574,-1.15741c0.63922,0 1.15741,0.51819 1.15741,1.15741c0,0.63922 -0.51819,1.15741 -1.15741,1.15741z" fill="#000000" stroke="#000000" stroke-width="0"/><path d="M235.98548,155.12384c-0.63922,0 -1.1574,-0.51819 -1.1574,-1.15741c0,-0.63922 0.51818,-1.1574 1.1574,-1.1574c0.63922,0 1.15741,0.51818 1.15741,1.1574c0,0.63922 -0.51819,1.15741 -1.15741,1.15741z" fill="#000000" stroke="#000000" stroke-width="0"/><path d="M238.2077,155.07754c-0.63922,0 -1.1574,-0.51819 -1.1574,-1.15741c0,-0.63922 0.51818,-1.15741 1.1574,-1.15741c0.63922,0 1.15741,0.51819 1.15741,1.15741c0,0.63922 -0.51819,1.15741 -1.15741,1.15741z" fill="#000000" stroke="#000000" stroke-width="0"/></g><g stroke-linecap="butt"><path d="M241.93211,120.06709c0,2.17334 -1.75148,3.93519 -3.91204,3.93519c-2.16056,0 -3.91204,-1.76184 -3.91204,-3.93519c0,-2.17335 1.75148,-3.93518 3.91204,-3.93518c2.16056,0 3.91204,1.76184 3.91204,3.93518z" fill="#c9cce9" stroke="#b1b5cd" stroke-width="1"/><path d="M236.88582,122.3356c-0.63922,0 -1.15741,-0.51818 -1.15741,-1.1574c0,-0.63922 0.51819,-1.15741 1.15741,-1.15741c0.63922,0 1.1574,0.51819 1.1574,1.15741c0,0.63921 -0.51818,1.1574 -1.1574,1.1574z" fill="#000000" stroke="#000000" stroke-width="0"/><path d="M239.15434,122.33561c-0.63922,0 -1.1574,-0.51819 -1.1574,-1.15741c0,-0.63922 0.51818,-1.15741 1.1574,-1.15741c0.63922,0 1.15741,0.51819 1.15741,1.15741c0,0.63922 -0.51819,1.15741 -1.15741,1.15741z" fill="#000000" stroke="#000000" stroke-width="0"/><path d="M236.93211,120.20598c-0.63922,0 -1.1574,-0.51819 -1.1574,-1.15741c0,-0.63922 0.51818,-1.1574 1.1574,-1.1574c0.63922,0 1.15741,0.51818 1.15741,1.1574c0,0.63922 -0.51819,1.15741 -1.15741,1.15741z" fill="#000000" stroke="#000000" stroke-width="0"/><path d="M239.15434,120.15969c-0.63922,0 -1.1574,-0.51819 -1.1574,-1.15741c0,-0.63922 0.51818,-1.15741 1.1574,-1.15741c0.63922,0 1.15741,0.51819 1.15741,1.15741c0,0.63922 -0.51819,1.15741 -1.15741,1.15741z" fill="#000000" stroke="#000000" stroke-width="0"/></g><g stroke-linecap="butt"><path d="M241.98628,82.65162c0,2.17335 -1.75148,3.93518 -3.91204,3.93518c-2.16056,0 -3.91204,-1.76184 -3.91204,-3.93518c0,-2.17335 1.75148,-3.93518 3.91204,-3.93518c2.16056,0 3.91204,1.76184 3.91204,3.93518z" fill="#c9cce9" stroke="#b1b5cd" stroke-width="1"/><path d="M236.93999,84.92016c-0.63922,0 -1.15741,-0.51819 -1.15741,-1.15741c0,-0.63922 0.51819,-1.15741 1.15741,-1.15741c0.63922,0 1.1574,0.51819 1.1574,1.15741c0,0.63922 -0.51818,1.15741 -1.1574,1.15741z" fill="#000000" stroke="#000000" stroke-width="0"/><path d="M239.20851,84.92016c-0.63922,0 -1.1574,-0.51819 -1.1574,-1.15741c0,-0.63922 0.51818,-1.15741 1.1574,-1.15741c0.63922,0 1.15741,0.51819 1.15741,1.15741c0,0.63922 -0.51819,1.15741 -1.15741,1.15741z" fill="#000000" stroke="#000000" stroke-width="0"/><path d="M236.98628,82.79054c-0.63922,0 -1.1574,-0.51819 -1.1574,-1.15741c0,-0.63922 0.51818,-1.1574 1.1574,-1.1574c0.63922,0 1.15741,0.51818 1.15741,1.1574c0,0.63922 -0.51819,1.15741 -1.15741,1.15741z" fill="#000000" stroke="#000000" stroke-width="0"/><path d="M239.20851,82.74421c-0.63922,0 -1.1574,-0.51819 -1.1574,-1.15741c0,-0.63922 0.51818,-1.15741 1.1574,-1.15741c0.63922,0 1.15741,0.51819 1.15741,1.15741c0,0.63922 -0.51819,1.15741 -1.15741,1.15741z" fill="#000000" stroke="#000000" stroke-width="0"/></g><g stroke-linecap="butt"><path d="M241.81882,227.70419c0,2.17334 -1.75148,3.93519 -3.91204,3.93519c-2.16056,0 -3.91204,-1.76184 -3.91204,-3.93519c0,-2.17334 1.75148,-3.93519 3.91204,-3.93519c2.16056,0 3.91204,1.76184 3.91204,3.93519z" fill="#c9cce9" stroke="#b1b5cd" stroke-width="1"/><path d="M236.77252,229.97271c-0.63922,0 -1.15741,-0.51819 -1.15741,-1.15741c0,-0.63922 0.51819,-1.15741 1.15741,-1.15741c0.63922,0 1.15741,0.51819 1.15741,1.15741c0,0.63922 -0.51819,1.15741 -1.15741,1.15741z" fill="#000000" stroke="#000000" stroke-width="0"/><path d="M239.04103,229.97271c-0.63922,0 -1.1574,-0.51819 -1.1574,-1.15741c0,-0.63922 0.51818,-1.1574 1.1574,-1.1574c0.63922,0 1.15741,0.51818 1.15741,1.1574c0,0.63922 -0.51819,1.15741 -1.15741,1.15741z" fill="#000000" stroke="#000000" stroke-width="0"/><path d="M236.81882,227.84308c-0.63922,0 -1.1574,-0.51819 -1.1574,-1.15741c0,-0.63922 0.51818,-1.15741 1.1574,-1.15741c0.63922,0 1.15741,0.51819 1.15741,1.15741c0,0.63922 -0.51819,1.15741 -1.15741,1.15741z" fill="#000000" stroke="#000000" stroke-width="0"/><path d="M239.04103,227.79679c-0.63922,0 -1.1574,-0.51819 -1.1574,-1.15741c0,-0.63922 0.51818,-1.15741 1.1574,-1.15741c0.63922,0 1.15741,0.51819 1.15741,1.15741c0,0.63922 -0.51819,1.15741 -1.15741,1.15741z" fill="#000000" stroke="#000000" stroke-width="0"/></g><path d="M244.38524,64.64507c0.14053,9.01158 0.23574,20.62155 0.13428,33.53911c-0.12541,15.96828 -1.44296,34.06208 -1.35472,51.43112c0.13908,27.37779 0.71535,53.46924 0.50704,68.03491c-0.24184,16.91056 -3.19986,45.77115 -3.19986,45.77115" fill="none" stroke="#aaadc9" stroke-width="1" stroke-linecap="round"/><g fill="#0d1c55" stroke="none" stroke-width="0" stroke-linecap="butt"><path d="M218.4775,89.11245l-5.76923,-34.51923l9.03556,16.64988l17.12395,-27.64051l1.93265,0.04401l0.1552,2.21197l-0.07428,11.71541z"/><path d="M238.40755,57.46036l0.64001,-11.96751l1.66768,-1.20556l16.82983,26.84219l9.03556,-16.64988l-5.76923,34.51923z" data-paper-data="{&quot;index&quot;:null}"/></g><g fill="none" stroke="#aaadc9" stroke-width="1"><path d="M221.85167,70.72621l-18.26348,-33.00439c0,0 2.67114,-4.07082 4.71654,-6.73361c2.08346,-2.71233 7.76305,-9.12177 7.76305,-9.12177c0,0 8.67115,14.51056 12.60114,18.36458c3.65268,3.58207 9.98396,3.72384 9.98396,3.72384z" stroke-linecap="butt"/><path d="M203.69356,37.83479l-50.86253,11.99393" stroke-linecap="round"/><path d="M207.45744,45.34529l-52.29487,12.35043" stroke-linecap="round"/></g><g><path d="M135.46361,338.4869l-2.19721,-20.37168l26.102,-1.69299l2.31453,19.66777z" fill="#c9cce9" stroke="#aaadc9" stroke-width="1" stroke-linecap="butt"/><path d="M131.49371,320.00484c0,0 -2.7577,-20.29596 -4.02412,-49.03754c-1.65788,-37.62566 -1.27301,-89.64126 1.49932,-128.69985c1.84264,-25.96047 5.61454,-39.31223 9.72732,-53.50233c6.80185,-23.46806 13.95082,-38.60562 13.95082,-38.60562l9.1595,33.04776c0,0 5.68869,17.46394 7.51356,36.88443c0.85366,13.58001 1.01564,9.86927 1.35204,32.99433c-0.25329,32.21347 -4.22598,62.99222 -4.49478,81.5121c-0.16947,11.67633 -2.03346,38.75528 -2.38873,50.10224c-0.58085,18.55177 -1.32287,32.95811 -1.32287,32.95811z" fill="#c9cce9" stroke="none" stroke-width="0" stroke-linecap="butt"/><path d="M171.01839,164.47481c0,0 -2.66274,27.09041 -4.05311,58.05897c-0.95181,21.20015 -2.39245,44.93306 -3.31037,63.20787c-0.10729,2.13596 -0.25956,4.14301 -0.34597,6.11708c-0.38011,8.68334 -1.67821,25.43387 -1.67821,25.43387l-30.22761,2.30854c0,0 -3.74664,-44.13334 -4.28794,-67.78083c-0.60968,-26.63444 0.81057,-84.13336 0.81057,-84.13336c0,0 -0.53184,-35.44508 6.68504,-65.15905c6.30917,-25.97666 18.05297,-52.70353 18.06206,-52.66918c1.38766,5.24732 9.71637,34.29124 14.05188,53.56586c5.37339,23.88875 2.53511,60.51344 5.78937,72.33813c1.6631,8.68904 7.61116,29.64206 7.57423,31.92617c-0.1063,6.57628 -1.54005,12.49418 -4.11293,22.81059c-2.17542,8.72272 -5.03939,15.29608 -7.17584,25.07697c-3.42694,15.68887 -4.93538,29.51126 -4.93538,29.51126l61.55986,-0.88309c0,0 2.8328,-0.6878 4.93218,-3.60986c1.55324,-2.1619 3.8409,-8.43188 6.18611,-12.60099c1.79993,-3.19976 3.94197,-4.75106 3.94197,-4.75106" fill="none" stroke="#aaadc9" stroke-width="1" stroke-linecap="round"/></g><g data-paper-data="{&quot;index&quot;:null}"><path d="M318.31707,335.85665l2.31453,-19.66777l26.102,1.69299l-2.19721,20.37168z" fill="#c9cce9" stroke="#aaadc9" stroke-width="1" stroke-linecap="butt"/><path d="M317.53423,317.42513c0,0 -0.74202,-14.40634 -1.32287,-32.95811c-0.35527,-11.34696 -2.21926,-38.42591 -2.38873,-50.10224c-0.2688,-18.51988 -4.24149,-49.29863 -4.49478,-81.5121c0.3364,-23.12506 0.49838,-19.41432 1.35204,-32.99433c1.82487,-19.42049 7.51356,-36.88443 7.51356,-36.88443l9.1595,-33.04776c0,0 7.14897,15.13756 13.95082,38.60562c4.11278,14.1901 7.88468,27.54186 9.72732,53.50233c2.77233,39.05859 3.1572,91.07419 1.49932,128.69985c-1.26642,28.74158 -4.02412,49.03754 -4.02412,49.03754z" fill="#c9cce9" stroke="none" stroke-width="0" stroke-linecap="butt"/><path d="M240.25448,263.63731c0.7831,0.72813 2.06192,2.09425 3.20319,4.12311c2.34521,4.16911 4.63287,10.43909 6.18611,12.60099c2.09938,2.92206 4.93218,3.60986 4.93218,3.60986l61.55986,0.88309c0,0 -1.50844,-13.82239 -4.93538,-29.51126c-2.13645,-9.78089 -5.00042,-16.35425 -7.17584,-25.07697c-2.57288,-10.31641 -4.00663,-16.23431 -4.11293,-22.81059c-0.03693,-2.28411 5.91113,-23.23713 7.57423,-31.92617c3.25426,-11.82469 0.41598,-48.44938 5.78937,-72.33813c4.33551,-19.27462 12.66422,-48.31854 14.05188,-53.56586c0.00909,-0.03435 11.75289,26.69252 18.06206,52.66918c7.21688,29.71397 6.68504,65.15905 6.68504,65.15905c0,0 1.42025,57.49892 0.81057,84.13336c-0.5413,23.64749 -4.28794,67.78083 -4.28794,67.78083l-30.22761,-2.30854c0,0 -1.2981,-16.75053 -1.67821,-25.43387c-0.08641,-1.97407 -0.23868,-3.98112 -0.34597,-6.11708c-0.91792,-18.27481 -2.35856,-42.00772 -3.31037,-63.20787c-1.39037,-30.96856 -4.05311,-58.05897 -4.05311,-58.05897" fill="none" stroke="#aaadc9" stroke-width="1" stroke-linecap="round"/></g><g fill="none" stroke="#aaadc9" stroke-width="1"><path d="M240.76206,43.95487c0,0 6.33128,-0.14177 9.98396,-3.72384c3.92999,-3.85402 12.60114,-18.36458 12.60114,-18.36458c0,0 5.67959,6.40944 7.76305,9.12177c2.0454,2.66279 4.71654,6.73361 4.71654,6.73361l-18.26348,33.00439z" data-paper-data="{&quot;index&quot;:null}" stroke-linecap="butt"/><path d="M275.72138,37.8348l51.50736,11.57669" data-paper-data="{&quot;index&quot;:null}" stroke-linecap="round"/><path d="M325.20951,57.19572l-53.25201,-11.85043" data-paper-data="{&quot;index&quot;:null}" stroke-linecap="round"/></g></g></g></g></svg>