<svg version="1.1" xmlns="http://www.w3.org/2000/svg" xmlns:xlink="http://www.w3.org/1999/xlink" width="228.43805" height="317.69816" viewBox="0,0,228.43805,317.69816"><g transform="translate(-126.4631,-20.98272)"><g data-paper-data="{&quot;isPaintingLayer&quot;:true}" fill-rule="nonzero" stroke-linejoin="miter" stroke-miterlimit="10" stroke-dasharray="" stroke-dashoffset="0" style="mix-blend-mode: normal"><path d="M309.63374,282.85831c0,0 -31.66421,1.37373 -52.15677,1.37373c-5.38691,0 -31.89925,3.74628 -44.39308,-5.28418c-7.618,-5.50624 -4.3702,-25.60472 -4.3702,-25.60472l-27.44444,-205.40097c0,0 14.86657,-7.22222 30.54106,-7.22222c12.03766,0 13.99634,35.90332 23.16812,35.90332c1.34832,0 10.45309,-14.54802 16.84021,-27.0621c7.11779,-13.94565 13.01174,-27.60364 13.01174,-27.60364l12.11929,15.83679l52.07806,11.5923c0,0 11.72594,23.64361 18.76798,55.64009c4.66732,21.20661 5.88447,62.35068 5.88447,62.35068l-43.14508,-2.04885c0,0 -3.04211,16.91295 -4.27017,32.52641c-1.22806,15.61346 -2.90205,22.29318 -1.0974,31.52173c0.74789,3.82454 4.46623,53.48164 4.46623,53.48164z" data-paper-data="{&quot;index&quot;:null}" fill="#c9cce9" stroke="none" stroke-width="0" stroke-linecap="butt"/><path d="M176.11525,229.37667c1.80465,-9.22855 0.13066,-15.90827 -1.0974,-31.52173c-1.22806,-15.61346 -4.27017,-32.52641 -4.27017,-32.52641l-43.14508,2.04885c0,0 1.21715,-41.14407 5.88447,-62.35068c7.04204,-31.99648 18.76798,-55.64009 18.76798,-55.64009l49.35079,-11.25139l12.46019,-15.95042c0,0 3.72703,12.50313 9.82993,26.92182c6.09507,14.4002 12.4237,27.63028 13.77202,27.63028c9.17177,0 19.76681,-36.01695 31.80447,-36.01695c15.67449,0 30.54106,7.22222 30.54106,7.22222l-27.44444,205.40097c0,0 -2.95769,17.03257 -14.85175,25.19787c-10.51847,7.22096 -29.84188,5.69103 -33.91153,5.69103c-20.49256,0 -52.15677,-1.37373 -52.15677,-1.37373c0,0 3.71834,-49.6571 4.46623,-53.48164z" fill="#c9cce9" stroke="none" stroke-width="0" stroke-linecap="butt"/><g data-paper-data="{&quot;index&quot;:null}" stroke-linecap="butt"><path d="M242.53751,185.41337c2.16056,0 3.91204,1.76185 3.91204,3.93519c0,2.17335 -1.75148,3.93519 -3.91204,3.93519c-2.16056,0 -3.91204,-1.76185 -3.91204,-3.93519c0,-2.17335 1.75148,-3.93519 3.91204,-3.93519z" fill="#c9cce9" stroke="#b1b5cd" stroke-width="1"/><path d="M242.51436,190.45969c0,-0.63922 0.51819,-1.15741 1.15741,-1.15741c0.63922,0 1.15741,0.51819 1.15741,1.15741c0,0.63922 -0.51819,1.15741 -1.15741,1.15741c-0.63922,0 -1.15741,-0.51819 -1.15741,-1.15741z" fill="#000000" stroke="#000000" stroke-width="0"/><path d="M240.24584,190.45969c0,-0.63922 0.51819,-1.1574 1.15741,-1.1574c0.63922,0 1.1574,0.51818 1.1574,1.1574c0,0.63922 -0.51818,1.15741 -1.1574,1.15741c-0.63922,0 -1.15741,-0.51819 -1.15741,-1.15741z" fill="#000000" stroke="#000000" stroke-width="0"/><path d="M242.46806,188.33003c0,-0.63922 0.51819,-1.15741 1.15741,-1.15741c0.63922,0 1.1574,0.51819 1.1574,1.15741c0,0.63922 -0.51818,1.15741 -1.1574,1.15741c-0.63922,0 -1.15741,-0.51819 -1.15741,-1.15741z" fill="#000000" stroke="#000000" stroke-width="0"/><path d="M240.24584,188.28374c0,-0.63922 0.51819,-1.15741 1.15741,-1.15741c0.63922,0 1.1574,0.51819 1.1574,1.15741c0,0.63922 -0.51818,1.15741 -1.1574,1.15741c-0.63922,0 -1.15741,-0.51819 -1.15741,-1.15741z" fill="#000000" stroke="#000000" stroke-width="0"/></g><g data-paper-data="{&quot;index&quot;:null}" stroke-linecap="butt"><path d="M242.04983,150.70104c2.16056,0 3.91204,1.76183 3.91204,3.93518c0,2.17334 -1.75148,3.93518 -3.91204,3.93518c-2.16056,0 -3.91204,-1.76183 -3.91204,-3.93518c0,-2.17334 1.75148,-3.93518 3.91204,-3.93518z" fill="#c9cce9" stroke="#b1b5cd" stroke-width="1"/><path d="M242.02668,155.74734c0,-0.63922 0.51818,-1.15741 1.1574,-1.15741c0.63922,0 1.15741,0.51819 1.15741,1.15741c0,0.63922 -0.51819,1.15741 -1.15741,1.15741c-0.63922,0 -1.1574,-0.51819 -1.1574,-1.15741z" fill="#000000" stroke="#000000" stroke-width="0"/><path d="M239.75816,155.74732c0,-0.63922 0.51819,-1.15741 1.15741,-1.15741c0.63922,0 1.1574,0.51819 1.1574,1.15741c0,0.63922 -0.51818,1.15741 -1.1574,1.15741c-0.63922,0 -1.15741,-0.51819 -1.15741,-1.15741z" fill="#000000" stroke="#000000" stroke-width="0"/><path d="M241.98038,153.6177c0,-0.63922 0.51819,-1.1574 1.15741,-1.1574c0.63922,0 1.1574,0.51818 1.1574,1.1574c0,0.63922 -0.51818,1.15741 -1.1574,1.15741c-0.63922,0 -1.15741,-0.51819 -1.15741,-1.15741z" fill="#000000" stroke="#000000" stroke-width="0"/><path d="M239.75816,153.57141c0,-0.63922 0.51819,-1.15741 1.15741,-1.15741c0.63922,0 1.1574,0.51819 1.1574,1.15741c0,0.63922 -0.51818,1.15741 -1.1574,1.15741c-0.63922,0 -1.15741,-0.51819 -1.15741,-1.15741z" fill="#000000" stroke="#000000" stroke-width="0"/></g><g data-paper-data="{&quot;index&quot;:null}" stroke-linecap="butt"><path d="M241.3032,115.78318c2.16056,0 3.91204,1.76183 3.91204,3.93518c0,2.17335 -1.75148,3.93519 -3.91204,3.93519c-2.16056,0 -3.91204,-1.76185 -3.91204,-3.93519c0,-2.17334 1.75148,-3.93518 3.91204,-3.93518z" fill="#c9cce9" stroke="#b1b5cd" stroke-width="1"/><path d="M241.28005,120.82947c0,-0.63922 0.51818,-1.15741 1.1574,-1.15741c0.63922,0 1.15741,0.51819 1.15741,1.15741c0,0.63922 -0.51819,1.1574 -1.15741,1.1574c-0.63922,0 -1.1574,-0.51819 -1.1574,-1.1574z" fill="#000000" stroke="#000000" stroke-width="0"/><path d="M239.01152,120.82948c0,-0.63922 0.51819,-1.15741 1.15741,-1.15741c0.63922,0 1.1574,0.51819 1.1574,1.15741c0,0.63922 -0.51818,1.15741 -1.1574,1.15741c-0.63922,0 -1.15741,-0.51819 -1.15741,-1.15741z" fill="#000000" stroke="#000000" stroke-width="0"/><path d="M241.23375,118.69984c0,-0.63922 0.51819,-1.1574 1.15741,-1.1574c0.63922,0 1.1574,0.51818 1.1574,1.1574c0,0.63922 -0.51818,1.15741 -1.1574,1.15741c-0.63922,0 -1.15741,-0.51819 -1.15741,-1.15741z" fill="#000000" stroke="#000000" stroke-width="0"/><path d="M239.01152,118.65355c0,-0.63922 0.51819,-1.15741 1.15741,-1.15741c0.63922,0 1.1574,0.51819 1.1574,1.15741c0,0.63922 -0.51818,1.15741 -1.1574,1.15741c-0.63922,0 -1.15741,-0.51819 -1.15741,-1.15741z" fill="#000000" stroke="#000000" stroke-width="0"/></g><g data-paper-data="{&quot;index&quot;:null}" stroke-linecap="butt"><path d="M240.64903,78.5677c2.16056,0 3.91204,1.76183 3.91204,3.93518c0,2.17334 -1.75148,3.93518 -3.91204,3.93518c-2.16056,0 -3.91204,-1.76183 -3.91204,-3.93518c0,-2.17334 1.75148,-3.93518 3.91204,-3.93518z" fill="#c9cce9" stroke="#b1b5cd" stroke-width="1"/><path d="M240.62588,83.61402c0,-0.63922 0.51818,-1.15741 1.1574,-1.15741c0.63922,0 1.15741,0.51819 1.15741,1.15741c0,0.63922 -0.51819,1.15741 -1.15741,1.15741c-0.63922,0 -1.1574,-0.51819 -1.1574,-1.15741z" fill="#000000" stroke="#000000" stroke-width="0"/><path d="M238.35735,83.61402c0,-0.63922 0.51819,-1.15741 1.15741,-1.15741c0.63922,0 1.1574,0.51819 1.1574,1.15741c0,0.63922 -0.51818,1.15741 -1.1574,1.15741c-0.63922,0 -1.15741,-0.51819 -1.15741,-1.15741z" fill="#000000" stroke="#000000" stroke-width="0"/><path d="M240.57958,81.4844c0,-0.63922 0.51819,-1.1574 1.15741,-1.1574c0.63922,0 1.1574,0.51818 1.1574,1.1574c0,0.63922 -0.51818,1.15741 -1.1574,1.15741c-0.63922,0 -1.15741,-0.51819 -1.15741,-1.15741z" fill="#000000" stroke="#000000" stroke-width="0"/><path d="M238.35735,81.43806c0,-0.63922 0.51819,-1.15741 1.15741,-1.15741c0.63922,0 1.1574,0.51819 1.1574,1.15741c0,0.63922 -0.51818,1.15741 -1.1574,1.15741c-0.63922,0 -1.15741,-0.51819 -1.15741,-1.15741z" fill="#000000" stroke="#000000" stroke-width="0"/></g><path d="M237.05144,219.30148c-0.20831,-14.56567 -2.70001,-134.68992 -2.6666,-140.5718" data-paper-data="{&quot;index&quot;:null}" fill="none" stroke="#aaadc9" stroke-width="1" stroke-linecap="round"/><g><path d="M135.46362,338.13818l-2.19721,-20.37168l26.102,-1.69299l2.31453,19.66777z" fill="#c9cce9" stroke="#aaadc9" stroke-width="1" stroke-linecap="butt"/><path d="M131.49372,319.65612c0,0 -2.7577,-20.29596 -4.02412,-49.03754c-1.65788,-37.62566 -1.27301,-89.64126 1.49932,-128.69985c1.84264,-25.96047 5.61454,-39.31223 9.72732,-53.50233c6.80185,-23.46806 13.95082,-38.60562 13.95082,-38.60562l9.1595,33.04776c0,0 5.68869,17.46394 7.51356,36.88443c0.85366,13.58001 1.01564,9.86927 1.35204,32.99433c-0.25329,32.21347 -4.22598,62.99222 -4.49478,81.5121c-0.16947,11.67633 -2.03346,38.75528 -2.38873,50.10224c-0.58085,18.55177 -1.32287,32.95811 -1.32287,32.95811z" fill="#c9cce9" stroke="none" stroke-width="0" stroke-linecap="butt"/><path d="M170.36084,165.72139c-0.82967,9.29023 -2.36871,33.59201 -3.39556,56.46366c-0.95181,21.20015 -2.39245,44.93306 -3.31037,63.20787c-0.10729,2.13596 -0.25956,4.14301 -0.34597,6.11708c-0.38011,8.68334 -1.67821,25.43387 -1.67821,25.43387l-30.22761,2.30854c0,0 -3.74664,-44.13334 -4.28794,-67.78083c-0.60968,-26.63444 0.81057,-84.13336 0.81057,-84.13336c0,0 -0.53184,-35.44508 6.68504,-65.15905c6.30917,-25.97666 18.05297,-52.70353 18.06206,-52.66918c1.38766,5.24732 5.62773,33.58768 9.05188,55.31586c3.42415,21.72818 8.06651,58.53541 10.33482,70.58813c1.64461,8.73861 4.44389,27.06613 4.92078,40.79403" fill="none" stroke="#aaadc9" stroke-width="1" stroke-linecap="round"/></g><g fill="none" stroke="#aaadc9" stroke-width="1" stroke-linecap="round"><path d="M152.87524,49.47999c0,0 43.73622,-10.31348 49.03079,-11.56199"/><path d="M195.67497,47.78966c-9.4669,2.23579 -41.28637,9.55733 -41.28637,9.55733"/></g><g fill="none" stroke="#aaadc9" stroke-width="1" stroke-linecap="round"><path d="M277.008,37.68076c4.31009,0.96873 51.51494,11.72292 51.51494,11.72292" data-paper-data="{&quot;index&quot;:null}"/><path d="M326.84462,57.07426c0,0 -34.26759,-7.54393 -43.76685,-9.65784" data-paper-data="{&quot;index&quot;:null}"/></g><g data-paper-data="{&quot;index&quot;:null}" fill="none" stroke="#aaadc9" stroke-width="1" stroke-linecap="round"><path d="M264.68135,21.86182c0,0 -9.77159,21.64668 -15.08258,31.67814c-4.68895,8.85655 -14.94579,24.75194 -14.94579,24.75194c0,0 -0.44772,0.68423 -0.19309,0.55465c1.362,-0.69311 7.16528,-4.16584 11.01497,-5.91801c5.0134,-2.28182 17.02094,-5.6602 17.02094,-5.6602l2.56117,-44.97708c0,0 9.05239,10.90257 13.26936,17.36478c4.28183,6.56161 12.23,21.71122 12.23,21.71122l-27.46832,-1.40437"/><path d="M215.70338,59.92089l-27.25823,1.44638c0,0 7.94817,-15.14961 12.23,-21.71122c4.21696,-6.46221 13.26935,-17.36478 13.26935,-17.36478l2.20403,45.06637c0,0 -0.2227,3.14313 8.17319,6.61995c5.021,2.07925 9.5836,2.70281 11.38836,2.24211c0.67601,-0.17256 0.73536,-0.89792 0.73536,-0.89792c0,0 -7.79942,-14.87021 -11.65985,-23.93749c-3.25892,-7.65445 -9.40626,-25.02988 -10.61754,-28.97404c-0.22631,-0.73691 -0.21887,0.05264 -0.21887,0.05264" data-paper-data="{&quot;index&quot;:null}"/></g><g data-paper-data="{&quot;index&quot;:null}"><path d="M319.68131,335.74128l2.31453,-19.66777l26.102,1.69299l-2.19721,20.37168z" fill="#c9cce9" stroke="#aaadc9" stroke-width="1" stroke-linecap="butt"/><path d="M318.89847,317.30975c0,0 -0.74202,-14.40634 -1.32287,-32.95811c-0.35527,-11.34696 -2.21926,-38.42591 -2.38873,-50.10224c-0.2688,-18.51988 -4.24149,-49.29863 -4.49478,-81.5121c0.3364,-23.12506 0.49838,-19.41432 1.35204,-32.99433c1.82487,-19.42049 7.51356,-36.88443 7.51356,-36.88443l9.1595,-33.04776c0,0 7.14897,15.13756 13.95082,38.60562c4.11278,14.1901 7.88468,27.54186 9.72732,53.50233c2.77233,39.05859 3.1572,91.07419 1.49932,128.69985c-1.26642,28.74158 -4.02412,49.03754 -4.02412,49.03754z" fill="#c9cce9" stroke="none" stroke-width="0" stroke-linecap="butt"/><path d="M304.3839,216.20802c0.47689,-13.7279 3.27618,-32.05543 4.92079,-40.79403c2.26832,-12.05273 6.91067,-48.85995 10.33482,-70.58813c3.42415,-21.72818 7.66422,-50.06854 9.05188,-55.31586c0.00909,-0.03435 11.75289,26.69252 18.06206,52.66918c7.21688,29.71397 6.68504,65.15905 6.68504,65.15905c0,0 1.42025,57.49892 0.81057,84.13336c-0.5413,23.64749 -4.28794,67.78083 -4.28794,67.78083l-30.22761,-2.30854c0,0 -1.2981,-16.75053 -1.67821,-25.43387c-0.08641,-1.97407 -0.23868,-3.98112 -0.34597,-6.11708c-0.91792,-18.27481 -2.35856,-42.00772 -3.31037,-63.20787c-1.02685,-22.87165 -2.56589,-47.17342 -3.39556,-56.46366" fill="none" stroke="#aaadc9" stroke-width="1" stroke-linecap="round"/></g><g fill="none" stroke="#aaadc9" stroke-width="1"><path d="M174.92335,163.2469v-57.08604h43.81035v57.48604l-5.96301,4.72086h-31.7z" stroke-linecap="butt"/><path d="M190.09577,122.86087l-0.37931,45.31724" stroke-linecap="round"/><path d="M205.07853,168.17811l0.37931,-45.32759" stroke-linecap="round"/><path d="M218.56473,118.06087l-5.79347,4.82716l-31.70028,-0.06447l-5.94763,-4.57304" stroke-linecap="round"/></g><g fill="none" stroke="#aaadc9" stroke-width="1"><path d="M259.92335,163.2469v-57.08604h43.81035v57.48604l-5.96301,4.72086h-31.7z" stroke-linecap="butt"/><path d="M275.09577,122.86087l-0.37931,45.31724" stroke-linecap="round"/><path d="M290.07853,168.17811l0.37931,-45.32759" stroke-linecap="round"/><path d="M303.56473,118.06087l-5.79347,4.82716l-31.70028,-0.06447l-5.94763,-4.57304" stroke-linecap="round"/></g><g data-paper-data="{&quot;index&quot;:null}" stroke-linecap="butt"><path d="M197.54984,113.20103c2.16056,0 3.91204,1.76183 3.91204,3.93518c0,2.17334 -1.75148,3.93518 -3.91204,3.93518c-2.16056,0 -3.91204,-1.76183 -3.91204,-3.93518c0,-2.17334 1.75148,-3.93518 3.91204,-3.93518z" fill="#c9cce9" stroke="#b1b5cd" stroke-width="1"/><path d="M197.52669,118.24734c0,-0.63922 0.51818,-1.15741 1.1574,-1.15741c0.63922,0 1.15741,0.51819 1.15741,1.15741c0,0.63922 -0.51819,1.15741 -1.15741,1.15741c-0.63922,0 -1.1574,-0.51819 -1.1574,-1.15741z" fill="#000000" stroke="#000000" stroke-width="0"/><path d="M195.25817,118.24731c0,-0.63922 0.51819,-1.15741 1.15741,-1.15741c0.63922,0 1.1574,0.51819 1.1574,1.15741c0,0.63922 -0.51818,1.15741 -1.1574,1.15741c-0.63922,0 -1.15741,-0.51819 -1.15741,-1.15741z" fill="#000000" stroke="#000000" stroke-width="0"/><path d="M197.48039,116.1177c0,-0.63922 0.51819,-1.1574 1.15741,-1.1574c0.63922,0 1.1574,0.51818 1.1574,1.1574c0,0.63922 -0.51818,1.15741 -1.1574,1.15741c-0.63922,0 -1.15741,-0.51819 -1.15741,-1.15741z" fill="#000000" stroke="#000000" stroke-width="0"/><path d="M195.25817,116.07141c0,-0.63922 0.51819,-1.15741 1.15741,-1.15741c0.63922,0 1.1574,0.51819 1.1574,1.15741c0,0.63922 -0.51818,1.15741 -1.1574,1.15741c-0.63922,0 -1.15741,-0.51819 -1.15741,-1.15741z" fill="#000000" stroke="#000000" stroke-width="0"/></g><g data-paper-data="{&quot;index&quot;:null}" stroke-linecap="butt"><path d="M283.04984,113.45103c2.16056,0 3.91204,1.76183 3.91204,3.93518c0,2.17334 -1.75148,3.93518 -3.91204,3.93518c-2.16056,0 -3.91204,-1.76183 -3.91204,-3.93518c0,-2.17334 1.75148,-3.93518 3.91204,-3.93518z" fill="#c9cce9" stroke="#b1b5cd" stroke-width="1"/><path d="M283.02669,118.49734c0,-0.63922 0.51818,-1.15741 1.1574,-1.15741c0.63922,0 1.15741,0.51819 1.15741,1.15741c0,0.63922 -0.51819,1.15741 -1.15741,1.15741c-0.63922,0 -1.1574,-0.51819 -1.1574,-1.15741z" fill="#000000" stroke="#000000" stroke-width="0"/><path d="M280.75817,118.49731c0,-0.63922 0.51819,-1.15741 1.15741,-1.15741c0.63922,0 1.1574,0.51819 1.1574,1.15741c0,0.63922 -0.51818,1.15741 -1.1574,1.15741c-0.63922,0 -1.15741,-0.51819 -1.15741,-1.15741z" fill="#000000" stroke="#000000" stroke-width="0"/><path d="M282.98039,116.3677c0,-0.63922 0.51819,-1.1574 1.15741,-1.1574c0.63922,0 1.1574,0.51818 1.1574,1.1574c0,0.63922 -0.51818,1.15741 -1.1574,1.15741c-0.63922,0 -1.15741,-0.51819 -1.15741,-1.15741z" fill="#000000" stroke="#000000" stroke-width="0"/><path d="M280.75817,116.32141c0,-0.63922 0.51819,-1.15741 1.15741,-1.15741c0.63922,0 1.1574,0.51819 1.1574,1.15741c0,0.63922 -0.51818,1.15741 -1.1574,1.15741c-0.63922,0 -1.15741,-0.51819 -1.15741,-1.15741z" fill="#000000" stroke="#000000" stroke-width="0"/></g></g></g></svg>