<svg version="1.1" xmlns="http://www.w3.org/2000/svg" xmlns:xlink="http://www.w3.org/1999/xlink" width="89.98851" height="116.43002" viewBox="0,0,89.98851,116.43002"><g transform="translate(-195.00981,-121.63786)"><g data-paper-data="{&quot;isPaintingLayer&quot;:true}" fill-rule="nonzero" stroke-linejoin="miter" stroke-miterlimit="10" stroke-dasharray="" stroke-dashoffset="0" style="mix-blend-mode: normal"><path d="M209.74808,224.18948c1.5054,-6.28168 4.57117,-13.15728 4.28059,-19.10618c-0.19633,-4.01931 0.96485,-11.19477 0.04499,-17.20751c-0.37643,-2.46057 -3.17358,-16.87789 -3.17358,-16.87789c0,0 -0.42031,12.81255 -2.00462,25.1678c-1.15217,8.98517 -1.55867,28.93831 -2.15896,33.70081c-0.08573,0.68013 -0.23759,0.64916 -0.29783,1.14239c-0.39389,3.22534 -0.34187,6.65214 -0.34187,6.65214l-9.00855,-0.89213c0,0 -0.08014,-3.25049 -0.22408,-6.70558c-0.01516,-0.36385 -0.34459,-0.38842 -0.36396,-0.84893c-0.18725,-4.45124 -0.1932,-14.117 -0.49733,-22.78404c-0.41283,-11.7645 -0.71216,-25.71187 -0.71216,-25.71187c0,0 0.26216,-14.46347 1.41324,-22.19501c1.18976,-7.99134 5.21313,-21.69941 5.21313,-21.69941l23.02041,-9.3691l3.96581,-4.92764c0,0 3.76287,7.85649 6.29572,12.47833c2.53285,4.62184 6.1948,10.29528 6.1948,10.29528c0,0 2.69384,-4.92672 4.18525,-8.29664c1.49141,-3.36992 5.69485,-14.49013 5.69485,-14.49013l3.8235,5.10662l23.25194,8.99039c0,0 4.27422,15.88281 5.42258,24.10737c1.06167,7.6036 0.83971,23.52351 0.83971,23.52351c0,0 -0.2159,9.69127 -0.55368,20.56834c-0.28252,9.09722 -0.28495,19.11767 -0.48729,24.09605c-0.02659,0.65404 -0.36218,0.76004 -0.38219,1.24224c-0.13889,3.34581 -0.36795,6.59465 -0.36795,6.59465l-8.69874,0.90738c0,0 0.02813,-3.63692 -0.3841,-6.97154c-0.04236,-0.34266 -0.40319,-0.73134 -0.45781,-1.16197c-0.60043,-4.7337 -0.16012,-15.65436 -1.35894,-25.08445c-0.79649,-6.26524 -1.66133,-15.29181 -2.18605,-22.3193c-0.46255,-6.19486 -0.63443,-10.82309 -0.63443,-10.82309c0,0 -2.85535,14.03765 -3.14741,15.85282c-1.08961,6.7718 0.30022,13.50399 0.07229,17.93655c-0.3077,5.98387 2.78135,12.94596 4.25081,19.1881c2.04593,8.69091 -28.86497,5.97788 -30.24752,5.98687c-1.80616,0.01175 -32.33427,2.50438 -30.28057,-6.06523z" fill="#c9cce9" stroke="none" stroke-width="0" stroke-linecap="butt"/><path d="M210.66964,169.68137c0,0 0.26217,2.93837 0.01446,7.80514c-0.33906,6.66145 -1.41821,16.58634 -2.25952,24.33312c-0.93632,8.62165 -1.10445,20.69904 -1.68391,28.13563c-0.01947,0.24995 -0.32063,0.38308 -0.33935,0.62479c-0.35588,4.59513 -0.34754,7.21125 -0.34754,7.21125l-9.11867,-0.91972c0,0 0.07706,-2.68695 -0.10192,-6.81135c-0.00885,-0.20392 -0.29983,-0.41121 -0.30881,-0.62172c-0.24448,-5.72885 -0.53344,-13.83614 -0.57899,-21.00311c-0.07803,-12.27779 -0.68558,-26.59844 -0.68558,-26.59844c0,0 -0.30571,-17.52435 2.82927,-31.08083c2.74068,-11.85138 3.81016,-14.02457 3.81411,-14.0089c0.6028,2.39399 4.44639,11.52682 6.32972,20.32053c2.33418,10.89882 4.47981,24.77961 5.89345,30.17442c0.72245,3.96422 -0.07231,16.35224 -0.08835,17.39432c-0.04617,3.00031 -0.66899,5.70025 -1.78664,10.40693c-0.94499,3.97958 -2.18908,6.97856 -3.11715,11.44092c-1.48864,7.15777 28.40841,7.56726 29.42716,5.66518c0.78188,-1.45984 1.38693,-2.16759 1.38693,-2.16759" fill="none" stroke="#b1b5cd" stroke-width="0.5" stroke-linecap="round"/><path d="M242.29741,147.17468c0.0022,2.8198 -0.0029,5.49604 -0.0179,7.50224c-0.05448,7.28525 -0.62682,15.54022 -0.58849,23.46454c0.06041,12.49063 0.31075,24.39439 0.22026,31.03972c-0.10505,7.71515 -1.84563,20.88228 -1.84563,20.88228" fill="none" stroke="#b1b5cd" stroke-width="0.5" stroke-linecap="round"/><g fill="#c9cce9" stroke="#b1b5cd" stroke-width="0.5" stroke-linecap="round"><path d="M201.95995,136.70626l22.56388,-9.05355"/><path d="M203.46507,140.61725c0,0 12.65689,-5.1067 17.10939,-6.90315"/></g><g data-paper-data="{&quot;index&quot;:null}" fill="#c9cce9" stroke="#b1b5cd" stroke-width="0.5" stroke-linecap="round"><path d="M278.09875,136.73794l-22.56388,-9.05355"/><path d="M276.59361,140.64892c0,0 -12.33666,-4.97748 -17.13699,-6.91428"/></g><path d="M240.05169,229.98194c0,0 0.60505,0.70775 1.38693,2.16759c1.01875,1.90208 30.91581,1.49259 29.42716,-5.66518c-0.92807,-4.46236 -2.17216,-7.46134 -3.11715,-11.44092c-1.11765,-4.70668 -1.74047,-7.40662 -1.78664,-10.40693c-0.01604,-1.04208 -0.8108,-13.4301 -0.08836,-17.39432c1.41364,-5.39481 3.55927,-19.2756 5.89345,-30.17442c1.88333,-8.79371 5.72692,-17.92654 6.32972,-20.32053c0.00395,-0.01567 1.07343,2.15752 3.81411,14.0089c3.13498,13.55648 2.82927,31.08083 2.82927,31.08083c0,0 -0.60754,14.32065 -0.68558,26.59844c-0.04555,7.16697 -0.33451,15.27426 -0.579,21.00311c-0.00898,0.21051 -0.29996,0.4178 -0.30881,0.62172c-0.17898,4.1244 -0.10191,6.81135 -0.10191,6.81135l-9.11867,0.91972c0,0 0.00834,-2.61612 -0.34754,-7.21125c-0.01872,-0.24171 -0.31988,-0.37484 -0.33935,-0.62479c-0.57946,-7.43659 -0.74759,-19.51398 -1.68391,-28.13563c-0.84131,-7.74678 -1.92046,-17.67167 -2.25952,-24.33312c-0.24771,-4.86677 0.01446,-7.80515 0.01446,-7.80515" data-paper-data="{&quot;index&quot;:null}" fill="none" stroke="#b1b5cd" stroke-width="0.5" stroke-linecap="round"/><g fill="#c9cce9" stroke="#b1b5cd" stroke-width="0.5" stroke-linecap="round"><path d="M229.70561,138.83189l-12.02684,0.6149c0,0 3.48005,-6.63317 5.35483,-9.50613c1.84637,-2.82944 5.98734,-7.66221 5.98734,-7.66221l0.94397,19.75209c0,0 5.25743,1.4792 7.45252,2.47828c1.68556,0.76717 4.2265,2.28769 4.82283,2.59117c0.11148,0.05674 -0.08454,-0.24285 -0.08454,-0.24285c0,0 -4.4909,-6.9597 -6.54393,-10.83749c-2.32538,-4.39221 -6.54468,-13.81095 -6.54468,-13.81095"/><path d="M251.06555,122.44966c0,0 -3.16255,9.27468 -4.58945,12.62613c-1.69027,3.97006 -5.1052,10.48089 -5.1052,10.48089c0,0 0.02598,0.3176 0.32197,0.39315c0.7902,0.20171 2.78791,-0.07131 4.98633,-0.9817c3.67609,-1.52231 3.57858,-2.8985 3.57858,-2.8985l0.84675,-19.67291c0,0 4.08181,4.71449 5.92818,7.54393c1.87477,2.87296 5.35484,9.50613 5.35484,9.50613l-11.93486,-0.63329" data-paper-data="{&quot;index&quot;:null}"/></g><g stroke-linecap="butt"><path d="M240.9669,196.3369c0,0.99155 -0.76084,1.79536 -1.69938,1.79536c-0.93854,0 -1.69937,-0.8038 -1.69937,-1.79536c0,-0.99155 0.76083,-1.79536 1.69937,-1.79536c0.93854,0 1.69938,0.8038 1.69938,1.79536z" fill="#c9cce9" stroke="#b1b5cd" stroke-width="0.5"/><path d="M238.77479,197.37188c-0.27767,0 -0.50278,-0.23641 -0.50278,-0.52805c0,-0.29164 0.2251,-0.52805 0.50278,-0.52805c0.27768,0 0.50277,0.23641 0.50277,0.52805c0,0.29164 -0.2251,0.52805 -0.50277,0.52805z" fill="#000000" stroke="#000000" stroke-width="0"/><path d="M239.76024,197.37188c-0.27767,0 -0.50277,-0.23641 -0.50277,-0.52805c0,-0.29164 0.2251,-0.52804 0.50277,-0.52804c0.27768,0 0.50277,0.2364 0.50277,0.52804c0,0.29164 -0.2251,0.52805 -0.50277,0.52805z" fill="#000000" stroke="#000000" stroke-width="0"/><path d="M238.79491,196.40026c-0.27768,0 -0.50277,-0.23641 -0.50277,-0.52805c0,-0.29164 0.2251,-0.52805 0.50277,-0.52805c0.27767,0 0.50278,0.23641 0.50278,0.52805c0,0.29164 -0.2251,0.52805 -0.50278,0.52805z" fill="#000000" stroke="#000000" stroke-width="0"/><path d="M239.76024,196.37914c-0.27767,0 -0.50277,-0.23641 -0.50277,-0.52804c0,-0.29164 0.2251,-0.52805 0.50277,-0.52805c0.27768,0 0.50277,0.23641 0.50277,0.52805c0,0.29164 -0.2251,0.52804 -0.50277,0.52804z" fill="#000000" stroke="#000000" stroke-width="0"/><path d="M240.74435,180.59126c0,0.99156 -0.76084,1.79536 -1.69938,1.79536c-0.93854,0 -1.69937,-0.8038 -1.69937,-1.79536c0,-0.99156 0.76083,-1.79536 1.69937,-1.79536c0.93854,0 1.69938,0.80381 1.69938,1.79536z" fill="#c9cce9" stroke="#b1b5cd" stroke-width="0.5"/><path d="M238.55225,181.62624c-0.27768,0 -0.50278,-0.23642 -0.50278,-0.52805c0,-0.29163 0.2251,-0.52804 0.50278,-0.52804c0.27768,0 0.50277,0.23641 0.50277,0.52804c0,0.29163 -0.22509,0.52805 -0.50277,0.52805z" fill="#000000" stroke="#b1b5cd" stroke-width="0"/><path d="M239.53769,181.62623c-0.27768,0 -0.50277,-0.23642 -0.50277,-0.52805c0,-0.29163 0.2251,-0.52804 0.50277,-0.52804c0.27768,0 0.50277,0.23641 0.50277,0.52804c0,0.29163 -0.2251,0.52805 -0.50277,0.52805z" fill="#000000" stroke="#b1b5cd" stroke-width="0"/><path d="M238.57236,180.65463c-0.27768,0 -0.50277,-0.23641 -0.50277,-0.52805c0,-0.29163 0.2251,-0.52804 0.50277,-0.52804c0.27768,0 0.50278,0.23641 0.50278,0.52804c0,0.29163 -0.2251,0.52805 -0.50278,0.52805z" fill="#000000" stroke="#b1b5cd" stroke-width="0"/><path d="M239.53769,180.63351c-0.27768,0 -0.50277,-0.23641 -0.50277,-0.52805c0,-0.29163 0.2251,-0.52805 0.50277,-0.52805c0.27768,0 0.50277,0.23641 0.50277,0.52805c0,0.29163 -0.2251,0.52805 -0.50277,0.52805z" fill="#000000" stroke="#b1b5cd" stroke-width="0"/><path d="M241.15555,164.66061c0,0.99155 -0.76083,1.79536 -1.69937,1.79536c-0.93854,0 -1.69938,-0.8038 -1.69938,-1.79536c0,-0.99156 0.76084,-1.79536 1.69938,-1.79536c0.93854,0 1.69937,0.8038 1.69937,1.79536z" fill="#c9cce9" stroke="#b1b5cd" stroke-width="0.5"/><path d="M238.96346,165.69558c-0.27768,0 -0.50278,-0.23641 -0.50278,-0.52805c0,-0.29163 0.2251,-0.52805 0.50278,-0.52805c0.27768,0 0.50277,0.23641 0.50277,0.52805c0,0.29163 -0.2251,0.52805 -0.50277,0.52805z" fill="#000000" stroke="#000000" stroke-width="0"/><path d="M239.94891,165.69558c-0.27768,0 -0.50277,-0.23642 -0.50277,-0.52805c0,-0.29163 0.2251,-0.52805 0.50277,-0.52805c0.27768,0 0.50278,0.23641 0.50278,0.52805c0,0.29163 -0.2251,0.52805 -0.50278,0.52805z" fill="#000000" stroke="#000000" stroke-width="0"/><path d="M238.98357,164.72397c-0.27768,0 -0.50277,-0.23641 -0.50277,-0.52805c0,-0.29163 0.2251,-0.52805 0.50277,-0.52805c0.27768,0 0.50277,0.23641 0.50277,0.52805c0,0.29163 -0.2251,0.52805 -0.50277,0.52805z" fill="#000000" stroke="#000000" stroke-width="0"/><path d="M239.94891,164.70286c-0.27768,0 -0.50277,-0.23641 -0.50277,-0.52805c0,-0.29163 0.2251,-0.52805 0.50277,-0.52805c0.27768,0 0.50278,0.23642 0.50278,0.52805c0,0.29163 -0.2251,0.52805 -0.50278,0.52805z" fill="#000000" stroke="#000000" stroke-width="0"/><path d="M241.40985,148.66739c0,0.99156 -0.76083,1.79536 -1.69937,1.79536c-0.93854,0 -1.69938,-0.8038 -1.69938,-1.79536c0,-0.99156 0.76084,-1.79536 1.69938,-1.79536c0.93854,0 1.69937,0.80381 1.69937,1.79536z" fill="#c9cce9" stroke="#b1b5cd" stroke-width="0.5"/><path d="M239.21776,149.70236c-0.27768,0 -0.50278,-0.23641 -0.50278,-0.52805c0,-0.29163 0.2251,-0.52805 0.50278,-0.52805c0.27768,0 0.50277,0.23641 0.50277,0.52805c0,0.29163 -0.2251,0.52805 -0.50277,0.52805z" fill="#000000" stroke="#000000" stroke-width="0"/><path d="M240.20319,149.70236c-0.27768,0 -0.50277,-0.23641 -0.50277,-0.52805c0,-0.29163 0.2251,-0.52805 0.50277,-0.52805c0.27768,0 0.50278,0.23641 0.50278,0.52805c0,0.29163 -0.2251,0.52805 -0.50278,0.52805z" fill="#000000" stroke="#000000" stroke-width="0"/><path d="M239.23787,148.73076c-0.27768,0 -0.50277,-0.23641 -0.50277,-0.52805c0,-0.29163 0.2251,-0.52805 0.50277,-0.52805c0.27768,0 0.50278,0.23641 0.50278,0.52805c0,0.29163 -0.2251,0.52805 -0.50278,0.52805z" fill="#000000" stroke="#000000" stroke-width="0"/><path d="M240.20319,148.70962c-0.27768,0 -0.50277,-0.23641 -0.50277,-0.52804c0,-0.29163 0.2251,-0.52805 0.50277,-0.52805c0.27768,0 0.50278,0.23642 0.50278,0.52805c0,0.29163 -0.2251,0.52804 -0.50278,0.52804z" fill="#000000" stroke="#000000" stroke-width="0"/><path d="M240.80194,214.15274c0,0.99155 -0.76084,1.79536 -1.69938,1.79536c-0.93854,0 -1.69937,-0.80381 -1.69937,-1.79536c0,-0.99155 0.76083,-1.79536 1.69937,-1.79536c0.93854,0 1.69938,0.80381 1.69938,1.79536z" fill="#c9cce9" stroke="#b1b5cd" stroke-width="0.5"/><path d="M238.60985,215.18771c-0.27768,0 -0.50278,-0.23641 -0.50278,-0.52805c0,-0.29164 0.2251,-0.52805 0.50278,-0.52805c0.27768,0 0.50277,0.23641 0.50277,0.52805c0,0.29164 -0.2251,0.52805 -0.50277,0.52805z" fill="#000000" stroke="#000000" stroke-width="0"/><path d="M239.59528,215.18771c-0.27768,0 -0.50277,-0.23641 -0.50277,-0.52805c0,-0.29164 0.2251,-0.52804 0.50277,-0.52804c0.27768,0 0.50277,0.2364 0.50277,0.52804c0,0.29164 -0.2251,0.52805 -0.50277,0.52805z" fill="#000000" stroke="#000000" stroke-width="0"/><path d="M238.62997,214.21611c-0.27768,0 -0.50277,-0.23641 -0.50277,-0.52805c0,-0.29164 0.2251,-0.52805 0.50277,-0.52805c0.27768,0 0.50278,0.23641 0.50278,0.52805c0,0.29164 -0.2251,0.52805 -0.50278,0.52805z" fill="#000000" stroke="#000000" stroke-width="0"/><path d="M239.59528,214.19499c-0.27768,0 -0.50277,-0.23641 -0.50277,-0.52805c0,-0.29164 0.2251,-0.52804 0.50277,-0.52804c0.27768,0 0.50277,0.23641 0.50277,0.52804c0,0.29164 -0.2251,0.52805 -0.50277,0.52805z" fill="#000000" stroke="#000000" stroke-width="0"/></g></g></g></svg>