<svg version="1.1" xmlns="http://www.w3.org/2000/svg" xmlns:xlink="http://www.w3.org/1999/xlink" width="91.34271" height="118.59731" viewBox="0,0,91.34271,118.59731"><g transform="translate(-194.32864,-120.44083)"><g data-paper-data="{&quot;isPaintingLayer&quot;:true}" fill-rule="nonzero" stroke-linejoin="miter" stroke-miterlimit="10" stroke-dasharray="" stroke-dashoffset="0" style="mix-blend-mode: normal"><path d="M206.90254,238.79344c0,0 0.73858,-7.21981 2.79228,-15.78942c1.5054,-6.28168 4.07422,-13.08628 4.28059,-19.10618c-0.19633,-4.01931 0.96485,-11.19477 0.04499,-17.20751c-0.37643,-2.46057 -1.27872,-5.31613 -1.27872,-5.31613l-17.82938,1.68332c0,0 -0.31743,-4.68954 -0.18334,-10.85955c0.09791,-4.50505 0.53597,-10.19712 1.02175,-13.45995c0.59744,-4.01288 1.85237,-10.10428 3.23657,-14.89209c1.37232,-4.74675 2.87656,-8.20733 2.87656,-8.20733l23.02041,-9.3691l4.0237,-5.1876c0,0 3.80259,8.44642 6.47997,13.31634c2.67738,4.86992 5.89548,9.72011 5.89548,9.72011c0,0 2.53799,-4.21069 3.78234,-7.08754c1.24436,-2.87685 6.04744,-15.87627 6.04744,-15.87627l4.1555,5.28077l23.02745,8.99039c0,0 1.83591,4.99641 3.46804,11.13953c1.14981,4.32772 2.12697,9.43911 2.6016,12.83842c0.49943,3.57688 0.8705,10.15865 0.89788,14.92355c0.03082,5.36414 -0.317,8.72936 -0.317,8.72936l-17.6889,-1.6859c0,0 -1.06585,3.1601 -1.35791,4.97527c-1.08961,6.7718 0.30022,13.11576 0.07229,17.54832c0.11826,5.77089 2.78135,12.94596 4.25081,19.18811c2.04593,8.69091 2.75061,15.853 2.75061,15.853c0,0 -14.82063,-0.36563 -26.26157,-0.51082c-0.38553,-0.00489 -2.27714,-1.08211 -3.28309,-2.99117c-1.3956,-2.64853 -2.07092,-6.37313 -3.45347,-6.36414c-1.80616,0.01175 -2.38782,5.14416 -3.85543,7.16693c-1.89802,2.616 -4.51415,2.27425 -5.23019,2.27271c-10.95812,-0.02354 -23.98724,0.28455 -23.98724,0.28455z" fill="#c9cce9" stroke="#aaadc9" stroke-width="0" stroke-linecap="butt"/><path d="M239.89505,228.79647c0,0 -0.60505,0.70775 -1.38693,2.16759c-1.01875,1.90208 -2.0125,4.76265 -2.68722,5.74898c-0.91196,1.33314 -2.14252,1.64694 -2.14252,1.64694l-26.74133,0.4029c0,0 0.65527,-6.30622 2.14391,-13.46399c0.92807,-4.46236 2.17216,-7.46134 3.11715,-11.44092c1.11765,-4.70668 1.74047,-7.40662 1.78664,-10.40693c0.01604,-1.04208 0.81081,-13.4301 0.08836,-17.39432c-1.41364,-5.39481 -3.55928,-19.2756 -5.89345,-30.17442c-1.88333,-8.79371 -5.72692,-17.92653 -6.32972,-20.32053c-0.00395,-0.01567 -2.37343,4.85751 -5.11411,16.7089c-3.13498,13.55648 -1.92927,30.98083 -1.92927,30.98083l18.09326,-1.84009" fill="none" stroke="#aaadc9" stroke-width="0.5" stroke-linecap="round"/><path d="M241.56991,144.77015c0.0004,0.3258 0.67418,1.09932 0.67439,1.42181c0.0018,2.74511 -0.00341,5.34143 -0.01805,7.29949c-0.05448,7.28525 -0.62682,15.54022 -0.58849,23.46454c0.06041,12.49063 0.31075,24.39439 0.22026,31.03972c-0.10505,7.71515 -1.84563,20.88228 -1.84563,20.88228" fill="none" stroke="#aaadc9" stroke-width="0.5" stroke-linecap="round"/><g fill="none" stroke="#aaadc9" stroke-width="0.5" stroke-linecap="round"><path d="M224.47057,126.46725l-22.56388,9.05355"/><path d="M220.57144,132.50836c-4.45181,1.79618 -17.15962,6.92341 -17.15962,6.92341"/></g><g data-paper-data="{&quot;index&quot;:null}" fill="none" stroke="#aaadc9" stroke-width="0.5" stroke-linecap="round"><path d="M255.48159,126.49892l22.56388,9.05355"/><path d="M276.54035,139.46345c0,0 -12.92084,-5.21318 -17.36842,-7.00765"/></g><path d="M267.10019,181.43246l18.09326,1.84008c0,0 1.20571,-17.42435 -1.92927,-30.98083c-2.74068,-11.85139 -5.11016,-16.72458 -5.1141,-16.70891c-0.6028,2.394 -4.44639,11.52683 -6.32972,20.32053c-2.33418,10.89882 -4.47981,24.77962 -5.89345,30.17443c-0.72245,3.96422 0.07232,16.35223 0.08836,17.39432c0.04618,3.00031 0.66899,5.70025 1.78664,10.40693c0.945,3.97958 2.18908,6.97857 3.11715,11.44092c1.48865,7.15777 2.14391,13.46399 2.14391,13.46399l-26.74133,-0.4029c0,0 -1.23056,-0.3138 -2.14252,-1.64694c-0.67472,-0.98633 -1.66847,-3.84689 -2.68722,-5.74898c-0.78188,-1.45983 -1.38693,-2.16759 -1.38693,-2.16759" data-paper-data="{&quot;index&quot;:null}" fill="none" stroke="#aaadc9" stroke-width="0.5" stroke-linecap="round"/><g fill="none" stroke="#aaadc9" stroke-width="0.5" stroke-linecap="round"><path d="M229.63249,137.57952l-12.02684,0.61489c0,0 3.48005,-6.63317 5.35483,-9.50613c1.84637,-2.82944 5.97738,-7.60306 5.97738,-7.60306l0.95393,19.69295c0,0 5.25743,1.4792 7.45252,2.47828c1.68556,0.76717 4.2265,2.28769 4.82283,2.59116c0.11148,0.05674 -0.08454,-0.24285 -0.08454,-0.24285c0,0 -4.4909,-6.9597 -6.54393,-10.83749c-2.32539,-4.39221 -6.56195,-13.70263 -6.56195,-13.70263"/><path d="M250.96808,121.13732c-0.53035,1.72693 -3.1382,9.33466 -4.5651,12.68612c-1.69027,3.97006 -5.10519,10.48089 -5.10519,10.48089c0,0 0.02598,0.31759 0.32197,0.39315c0.7902,0.20171 2.78791,-0.07131 4.98633,-0.9817c3.67609,-1.52231 3.57858,-2.8985 3.57858,-2.8985l0.83942,-19.73205c0,0 4.08914,4.77363 5.93551,7.60307c1.87477,2.87296 5.35483,9.50613 5.35483,9.50613l-11.93486,-0.63329" data-paper-data="{&quot;index&quot;:null}"/></g><g stroke-linecap="butt"><g><path d="M241.0178,195.48477c0,0.99155 -0.76084,1.79536 -1.69938,1.79536c-0.93854,0 -1.69937,-0.8038 -1.69937,-1.79536c0,-0.99155 0.76083,-1.79536 1.69937,-1.79536c0.93854,0 1.69938,0.8038 1.69938,1.79536z" fill="#c9cce9" stroke="#b1b5cd" stroke-width="0.5"/><path d="M238.8257,196.51975c-0.27767,0 -0.50278,-0.23641 -0.50278,-0.52805c0,-0.29164 0.2251,-0.52805 0.50278,-0.52805c0.27768,0 0.50277,0.23641 0.50277,0.52805c0,0.29164 -0.2251,0.52805 -0.50277,0.52805z" fill="#000000" stroke="#000000" stroke-width="0"/><path d="M239.81114,196.51975c-0.27767,0 -0.50277,-0.23641 -0.50277,-0.52805c0,-0.29164 0.2251,-0.52804 0.50277,-0.52804c0.27768,0 0.50277,0.2364 0.50277,0.52804c0,0.29164 -0.2251,0.52805 -0.50277,0.52805z" fill="#000000" stroke="#000000" stroke-width="0"/><path d="M238.84582,195.54813c-0.27768,0 -0.50277,-0.23641 -0.50277,-0.52805c0,-0.29164 0.2251,-0.52805 0.50277,-0.52805c0.27767,0 0.50278,0.23641 0.50278,0.52805c0,0.29164 -0.2251,0.52805 -0.50278,0.52805z" fill="#000000" stroke="#000000" stroke-width="0"/><path d="M239.81114,195.52701c-0.27767,0 -0.50277,-0.23641 -0.50277,-0.52804c0,-0.29164 0.2251,-0.52805 0.50277,-0.52805c0.27768,0 0.50277,0.23641 0.50277,0.52805c0,0.29164 -0.2251,0.52804 -0.50277,0.52804z" fill="#000000" stroke="#000000" stroke-width="0"/></g><g stroke="#b1b5cd"><path d="M240.79525,179.73913c0,0.99156 -0.76084,1.79536 -1.69938,1.79536c-0.93854,0 -1.69937,-0.8038 -1.69937,-1.79536c0,-0.99156 0.76083,-1.79536 1.69937,-1.79536c0.93854,0 1.69938,0.80381 1.69938,1.79536z" fill="#c9cce9" stroke-width="0.5"/><path d="M238.60316,180.77411c-0.27768,0 -0.50278,-0.23642 -0.50278,-0.52805c0,-0.29163 0.2251,-0.52804 0.50278,-0.52804c0.27768,0 0.50277,0.23641 0.50277,0.52804c0,0.29163 -0.22509,0.52805 -0.50277,0.52805z" fill="#000000" stroke-width="0"/><path d="M239.58859,180.7741c-0.27768,0 -0.50277,-0.23642 -0.50277,-0.52805c0,-0.29163 0.2251,-0.52804 0.50277,-0.52804c0.27768,0 0.50277,0.23641 0.50277,0.52804c0,0.29163 -0.2251,0.52805 -0.50277,0.52805z" fill="#000000" stroke-width="0"/><path d="M238.62326,179.8025c-0.27768,0 -0.50277,-0.23641 -0.50277,-0.52805c0,-0.29163 0.2251,-0.52804 0.50277,-0.52804c0.27768,0 0.50278,0.23641 0.50278,0.52804c0,0.29163 -0.2251,0.52805 -0.50278,0.52805z" fill="#000000" stroke-width="0"/><path d="M239.58859,179.78138c-0.27768,0 -0.50277,-0.23641 -0.50277,-0.52805c0,-0.29163 0.2251,-0.52805 0.50277,-0.52805c0.27768,0 0.50277,0.23641 0.50277,0.52805c0,0.29163 -0.2251,0.52805 -0.50277,0.52805z" fill="#000000" stroke-width="0"/></g><g><path d="M241.20646,163.80847c0,0.99155 -0.76083,1.79536 -1.69937,1.79536c-0.93854,0 -1.69938,-0.8038 -1.69938,-1.79536c0,-0.99156 0.76084,-1.79536 1.69938,-1.79536c0.93854,0 1.69937,0.8038 1.69937,1.79536z" fill="#c9cce9" stroke="#b1b5cd" stroke-width="0.5"/><path d="M239.01437,164.84345c-0.27768,0 -0.50278,-0.23641 -0.50278,-0.52805c0,-0.29163 0.2251,-0.52805 0.50278,-0.52805c0.27768,0 0.50277,0.23641 0.50277,0.52805c0,0.29163 -0.2251,0.52805 -0.50277,0.52805z" fill="#000000" stroke="#000000" stroke-width="0"/><path d="M239.99981,164.84345c-0.27768,0 -0.50277,-0.23642 -0.50277,-0.52805c0,-0.29163 0.2251,-0.52805 0.50277,-0.52805c0.27768,0 0.50278,0.23641 0.50278,0.52805c0,0.29163 -0.2251,0.52805 -0.50278,0.52805z" fill="#000000" stroke="#000000" stroke-width="0"/><path d="M239.03448,163.87184c-0.27768,0 -0.50277,-0.23641 -0.50277,-0.52805c0,-0.29163 0.2251,-0.52805 0.50277,-0.52805c0.27768,0 0.50277,0.23641 0.50277,0.52805c0,0.29163 -0.2251,0.52805 -0.50277,0.52805z" fill="#000000" stroke="#000000" stroke-width="0"/><path d="M239.99981,163.85073c-0.27768,0 -0.50277,-0.23641 -0.50277,-0.52805c0,-0.29163 0.2251,-0.52805 0.50277,-0.52805c0.27768,0 0.50278,0.23642 0.50278,0.52805c0,0.29163 -0.2251,0.52805 -0.50278,0.52805z" fill="#000000" stroke="#000000" stroke-width="0"/></g><g><path d="M241.46075,147.81525c0,0.99156 -0.76083,1.79536 -1.69937,1.79536c-0.93854,0 -1.69938,-0.8038 -1.69938,-1.79536c0,-0.99156 0.76084,-1.79536 1.69938,-1.79536c0.93854,0 1.69937,0.80381 1.69937,1.79536z" fill="#c9cce9" stroke="#b1b5cd" stroke-width="0.5"/><path d="M239.26867,148.85023c-0.27768,0 -0.50278,-0.23641 -0.50278,-0.52805c0,-0.29163 0.2251,-0.52805 0.50278,-0.52805c0.27768,0 0.50277,0.23641 0.50277,0.52805c0,0.29163 -0.2251,0.52805 -0.50277,0.52805z" fill="#000000" stroke="#000000" stroke-width="0"/><path d="M240.2541,148.85023c-0.27768,0 -0.50277,-0.23641 -0.50277,-0.52805c0,-0.29163 0.2251,-0.52805 0.50277,-0.52805c0.27768,0 0.50278,0.23641 0.50278,0.52805c0,0.29163 -0.2251,0.52805 -0.50278,0.52805z" fill="#000000" stroke="#000000" stroke-width="0"/><path d="M239.28878,147.87863c-0.27768,0 -0.50277,-0.23641 -0.50277,-0.52805c0,-0.29163 0.2251,-0.52805 0.50277,-0.52805c0.27768,0 0.50278,0.23641 0.50278,0.52805c0,0.29163 -0.2251,0.52805 -0.50278,0.52805z" fill="#000000" stroke="#000000" stroke-width="0"/><path d="M240.2541,147.85749c-0.27768,0 -0.50277,-0.23641 -0.50277,-0.52804c0,-0.29163 0.2251,-0.52805 0.50277,-0.52805c0.27768,0 0.50278,0.23642 0.50278,0.52805c0,0.29163 -0.2251,0.52804 -0.50278,0.52804z" fill="#000000" stroke="#000000" stroke-width="0"/></g><g><path d="M240.85285,213.30061c0,0.99155 -0.76084,1.79536 -1.69938,1.79536c-0.93854,0 -1.69937,-0.80381 -1.69937,-1.79536c0,-0.99155 0.76083,-1.79536 1.69937,-1.79536c0.93854,0 1.69938,0.80381 1.69938,1.79536z" fill="#c9cce9" stroke="#b1b5cd" stroke-width="0.5"/><path d="M238.66076,214.33558c-0.27768,0 -0.50278,-0.23641 -0.50278,-0.52805c0,-0.29164 0.2251,-0.52805 0.50278,-0.52805c0.27768,0 0.50277,0.23641 0.50277,0.52805c0,0.29164 -0.2251,0.52805 -0.50277,0.52805z" fill="#000000" stroke="#000000" stroke-width="0"/><path d="M239.64619,214.33558c-0.27768,0 -0.50277,-0.23641 -0.50277,-0.52805c0,-0.29164 0.2251,-0.52804 0.50277,-0.52804c0.27768,0 0.50277,0.2364 0.50277,0.52804c0,0.29164 -0.2251,0.52805 -0.50277,0.52805z" fill="#000000" stroke="#000000" stroke-width="0"/><path d="M238.68087,213.36398c-0.27768,0 -0.50277,-0.23641 -0.50277,-0.52805c0,-0.29164 0.2251,-0.52805 0.50277,-0.52805c0.27768,0 0.50278,0.23641 0.50278,0.52805c0,0.29164 -0.2251,0.52805 -0.50278,0.52805z" fill="#000000" stroke="#000000" stroke-width="0"/><path d="M239.64619,213.34286c-0.27768,0 -0.50277,-0.23641 -0.50277,-0.52805c0,-0.29164 0.2251,-0.52804 0.50277,-0.52804c0.27768,0 0.50277,0.23641 0.50277,0.52804c0,0.29164 -0.2251,0.52805 -0.50277,0.52805z" fill="#000000" stroke="#000000" stroke-width="0"/></g></g></g></g></svg>