<svg version="1.1" xmlns="http://www.w3.org/2000/svg" xmlns:xlink="http://www.w3.org/1999/xlink" width="89.98849" height="119.81592" viewBox="0,0,89.98849,119.81592"><g transform="translate(-195.00983,-119.93776)"><g data-paper-data="{&quot;isPaintingLayer&quot;:true}" fill-rule="nonzero" stroke-linejoin="miter" stroke-miterlimit="10" stroke-dasharray="" stroke-dashoffset="0" style="mix-blend-mode: normal"><path d="M206.95581,239.53001c0,0 0.73858,-7.21981 2.79228,-15.78942c1.5054,-6.28168 4.57116,-13.15728 4.28058,-19.10618c-0.19633,-4.01931 0.96485,-11.19477 0.04499,-17.20751c-0.37643,-2.46057 -3.17358,-16.87789 -3.17358,-16.87789c0,0 -0.3068,11.92306 -1.89111,24.27831c-1.15217,8.98517 -1.67218,29.82781 -2.27246,34.59031c-0.08573,0.68012 -0.23759,0.64915 -0.29782,1.14238c-0.39389,3.22534 -0.34188,6.39833 -0.34188,6.39833l-9.00854,-0.63831c0,0 -0.08015,-3.25049 -0.22408,-6.70558c-0.01516,-0.36385 -0.34459,-0.38842 -0.36396,-0.84893c-0.18724,-4.45124 -0.19319,-14.11699 -0.49733,-22.78404c-0.41283,-11.76449 -0.71216,-25.71187 -0.71216,-25.71187c0,0 0.26216,-14.46347 1.41324,-22.19501c1.18976,-7.99134 5.21312,-21.69941 5.21312,-21.69941l23.02041,-9.3691c0,0 2.35137,2.85747 5.47407,6.37843c1.15497,1.30228 2.38211,3.09547 3.68265,4.29453c2.57892,2.37768 3.9154,-4.52777 5.86251,-4.53319c2.07774,-0.00579 3.17242,6.6767 5.91053,4.32222c4.92469,-4.2347 9.23014,-10.29618 9.23014,-10.29618l23.25194,8.99039c0,0 4.27422,15.88281 5.42258,24.10737c1.06167,7.6036 0.8397,23.5235 0.8397,23.5235c0,0 -0.21589,9.69127 -0.55368,20.56834c-0.28251,9.09722 -0.28495,19.11768 -0.48729,24.09605c-0.02658,0.65404 -0.36217,0.76004 -0.38219,1.24224c-0.13889,3.34582 -0.36795,6.59465 -0.36795,6.59465l-8.69874,0.90739c0,0 0.02813,-3.63692 -0.3841,-6.97154c-0.04236,-0.34265 -0.40319,-0.73134 -0.45781,-1.16198c-0.60043,-4.73371 -0.16011,-15.65436 -1.35894,-25.08445c-1.49861,-11.78817 -2.86387,-33.00024 -2.86387,-33.00024c0,0 -2.81195,13.8955 -3.10401,15.71068c-1.08961,6.7718 0.30022,13.504 0.07229,17.93656c-0.3077,5.98387 2.78134,12.94596 4.25081,19.1881c2.04593,8.69091 2.75061,15.853 2.75061,15.853c0,0 -14.82063,-0.36563 -26.26157,-0.51082c-0.38552,-0.00489 -2.27714,-1.08211 -3.28309,-2.99117c-1.3956,-2.64853 -2.07092,-6.37313 -3.45347,-6.36414c-1.80616,0.01175 -2.38782,5.14416 -3.85543,7.16693c-1.89801,2.616 -4.51414,2.27425 -5.23019,2.27271c-10.95812,-0.02354 -23.98723,0.28456 -23.98723,0.28456z" fill="#c9cce9" stroke="#aaadc9" stroke-width="0" stroke-linecap="butt"/><path d="M210.66727,169.23248c0,0 0.26456,2.93838 0.01685,7.80514c-0.33905,6.66145 -1.4182,16.58634 -2.25951,24.33312c-0.93632,8.62165 -1.10446,20.69903 -1.68391,28.13562c-0.01947,0.24995 -0.32063,0.38307 -0.33935,0.62479c-0.35588,4.59513 -0.34754,7.21125 -0.34754,7.21125l-9.11867,-0.91972c0,0 0.07706,-2.68695 -0.10192,-6.81135c-0.00885,-0.20392 -0.29983,-0.41121 -0.30881,-0.62172c-0.24448,-5.72885 -0.53344,-13.83613 -0.57899,-21.0031c-0.07803,-12.27778 -0.68558,-26.59844 -0.68558,-26.59844c0,0 -0.30571,-17.52435 2.82927,-31.08083c2.74067,-11.85139 3.81015,-14.02457 3.8141,-14.0089c0.6028,2.39399 4.44639,11.52682 6.32972,20.32053c2.33417,10.89882 4.47981,24.77962 5.89344,30.17442c0.72245,3.96422 -0.07231,16.35224 -0.08835,17.39432c-0.04617,3.00031 -0.66899,5.70025 -1.78664,10.40693c-0.945,3.97958 -2.18908,6.97856 -3.11715,11.44092c-1.48865,7.15777 -2.14391,13.46399 -2.14391,13.46399l26.74133,-0.4029c0,0 1.23056,-0.31379 2.14252,-1.64693c0.67472,-0.98633 1.66847,-3.8469 2.68722,-5.74898c0.78188,-1.45984 1.38693,-2.16759 1.38693,-2.16759" fill="none" stroke="#aaadc9" stroke-width="0.5" stroke-linecap="round"/><path d="M242.2212,132.5477c0.06104,4.11137 0.10241,15.78692 0.05833,21.68033c-0.05448,7.28525 -0.62681,15.54022 -0.58848,23.46454c0.06041,12.49063 0.31074,24.39439 0.22026,31.03972c-0.10505,7.71515 -1.84563,20.88228 -1.84563,20.88228" fill="none" stroke="#aaadc9" stroke-width="0.5" stroke-linecap="round"/><g fill="#0d1c55" stroke="none" stroke-width="0" stroke-linecap="butt"><path d="M234.41328,143.69257l-4.0235,-10.43563l3.83671,4.4538c0,0 2.58529,-4.99845 3.57662,-6.58768c0.85045,-1.36337 2.3519,-3.18734 2.3519,-3.18734l0.39779,4.49696z"/><path d="M239.46957,132.45374l0.35916,-4.49696c0,0 2.11902,2.98186 2.96947,4.34523c0.99133,1.58922 2.99768,5.48768 2.99768,5.48768l3.83671,-4.22222l-4.0235,10.14615z" data-paper-data="{&quot;index&quot;:null}"/></g><path d="M224.98161,126.92356c0,0 1.32745,-2.46887 2.06394,-3.58028c0.68315,-1.03092 2.20703,-2.86488 2.20703,-2.86488c0,0 1.38511,1.77169 3.94045,3.73858c2.19103,1.68647 5.47769,3.60852 6.82732,3.63869c1.60985,0.13201 5.12482,-2.20352 7.71033,-4.40231c1.72392,-1.46607 3.05609,-3.08592 3.05609,-3.08592c0,0 1.52425,1.9456 2.2329,3.01215c0.74186,1.11653 2.12322,3.54398 2.12322,3.54398l-9.34926,10.73389c0,0 -1.95794,-3.60628 -2.91878,-5.23024c-0.91338,-1.54373 -2.71108,-4.28503 -2.71108,-4.28503c0,0 -2.02776,2.50885 -2.99447,4.06275c-1.00857,1.62119 -2.93671,5.47108 -2.93671,5.47108z" fill="#c9cce9" stroke="none" stroke-width="0" stroke-linecap="butt"/><g fill="none" stroke="#aaadc9" stroke-width="0.5"><path d="M234.31559,137.77893l-9.56076,-10.73425c0,0 1.57318,-2.65083 2.36332,-3.81382c0.72542,-1.06774 2.19998,-2.90282 2.19998,-2.90282c0,0 2.13628,2.46892 4.02236,4.0338c1.75299,1.45446 6.69432,3.70554 6.69432,3.70554c0,0 -1.88424,2.49497 -2.76707,3.99406c-1.00715,1.7102 -2.95215,5.71749 -2.95215,5.71749z" stroke-linecap="butt"/><path d="M224.52384,127.20382l-22.56387,9.05355" stroke-linecap="round"/><path d="M227.58907,130.43501l-24.12398,9.73334" stroke-linecap="round"/></g><g data-paper-data="{&quot;index&quot;:null}" fill="none" stroke="#aaadc9" stroke-width="0.5"><path d="M242.79097,132.09312c-0.88283,-1.49909 -2.76707,-3.99406 -2.76707,-3.99406c0,0 4.94133,-2.25108 6.69432,-3.70554c1.88608,-1.56488 4.02236,-4.0338 4.02236,-4.0338c0,0 1.47455,1.83508 2.19997,2.90282c0.79014,1.16299 2.36332,3.81382 2.36332,3.81382l-9.56076,10.73425c0,0 -1.945,-4.00728 -2.95215,-5.71748z" stroke-linecap="butt"/><path d="M278.09876,136.28905l-22.56387,-9.05355" stroke-linecap="round"/><path d="M252.46964,130.4667l24.12399,9.73333" stroke-linecap="round"/></g><path d="M240.05171,229.53306c0,0 0.60505,0.70775 1.38693,2.16759c1.01875,1.90208 2.0125,4.76265 2.68722,5.74898c0.91196,1.33314 2.14252,1.64694 2.14252,1.64694l26.74133,0.4029c0,0 -0.65526,-6.30622 -2.14391,-13.46399c-0.92807,-4.46236 -2.17215,-7.46134 -3.11715,-11.44093c-1.11765,-4.70668 -1.74047,-7.40662 -1.78664,-10.40693c-0.01604,-1.04208 -0.8108,-13.4301 -0.08835,-17.39432c1.41363,-5.3948 3.55927,-19.2756 5.89344,-30.17442c1.88333,-8.79371 5.72692,-17.92654 6.32972,-20.32053c0.00395,-0.01567 1.07343,2.15752 3.8141,14.0089c3.13498,13.55648 2.82927,31.08083 2.82927,31.08083c0,0 -0.60755,14.32065 -0.68558,26.59844c-0.04555,7.16697 -0.33451,15.27426 -0.57899,21.00311c-0.00898,0.21051 -0.29996,0.4178 -0.30881,0.62172c-0.17898,4.1244 -0.10192,6.81135 -0.10192,6.81135l-9.11867,0.91972c0,0 0.00834,-2.61612 -0.34754,-7.21125c-0.01872,-0.24171 -0.31988,-0.37484 -0.33935,-0.62479c-0.57945,-7.43659 -0.74759,-19.51398 -1.68391,-28.13563c-0.8413,-7.74678 -1.92046,-17.67167 -2.25952,-24.33312c-0.24771,-4.86676 -0.02178,-7.80514 -0.02178,-7.80514" data-paper-data="{&quot;index&quot;:null}" fill="none" stroke="#aaadc9" stroke-width="0.5" stroke-linecap="round"/><g stroke-linecap="butt"><path d="M240.99815,195.88801c0,0.99155 -0.76084,1.79536 -1.69938,1.79536c-0.93854,0 -1.69937,-0.8038 -1.69937,-1.79536c0,-0.99155 0.76083,-1.79536 1.69937,-1.79536c0.93854,0 1.69938,0.8038 1.69938,1.79536z" fill="#c9cce9" stroke="#b1b5cd" stroke-width="0.5"/><path d="M238.80605,196.92299c-0.27767,0 -0.50278,-0.23641 -0.50278,-0.52805c0,-0.29164 0.2251,-0.52805 0.50278,-0.52805c0.27768,0 0.50277,0.23641 0.50277,0.52805c0,0.29164 -0.2251,0.52805 -0.50277,0.52805z" fill="#000000" stroke="#000000" stroke-width="0"/><path d="M239.79149,196.92299c-0.27767,0 -0.50277,-0.23641 -0.50277,-0.52805c0,-0.29164 0.2251,-0.52804 0.50277,-0.52804c0.27768,0 0.50277,0.2364 0.50277,0.52804c0,0.29164 -0.2251,0.52805 -0.50277,0.52805z" fill="#000000" stroke="#000000" stroke-width="0"/><path d="M238.82616,195.95137c-0.27768,0 -0.50277,-0.23641 -0.50277,-0.52805c0,-0.29164 0.2251,-0.52805 0.50277,-0.52805c0.27767,0 0.50278,0.23641 0.50278,0.52805c0,0.29164 -0.2251,0.52805 -0.50278,0.52805z" fill="#000000" stroke="#000000" stroke-width="0"/><path d="M239.79149,195.93025c-0.27767,0 -0.50277,-0.23641 -0.50277,-0.52804c0,-0.29164 0.2251,-0.52805 0.50277,-0.52805c0.27768,0 0.50277,0.23641 0.50277,0.52805c0,0.29164 -0.2251,0.52804 -0.50277,0.52804z" fill="#000000" stroke="#000000" stroke-width="0"/><path d="M240.77561,180.14237c0,0.99156 -0.76084,1.79536 -1.69938,1.79536c-0.93854,0 -1.69937,-0.8038 -1.69937,-1.79536c0,-0.99156 0.76083,-1.79536 1.69937,-1.79536c0.93854,0 1.69938,0.80381 1.69938,1.79536z" fill="#c9cce9" stroke="#b1b5cd" stroke-width="0.5"/><path d="M238.5835,181.17735c-0.27768,0 -0.50278,-0.23642 -0.50278,-0.52805c0,-0.29163 0.2251,-0.52804 0.50278,-0.52804c0.27768,0 0.50277,0.23641 0.50277,0.52804c0,0.29163 -0.22509,0.52805 -0.50277,0.52805z" fill="#000000" stroke="#b1b5cd" stroke-width="0"/><path d="M239.56895,181.17734c-0.27768,0 -0.50277,-0.23642 -0.50277,-0.52805c0,-0.29163 0.2251,-0.52804 0.50277,-0.52804c0.27768,0 0.50277,0.23641 0.50277,0.52804c0,0.29163 -0.2251,0.52805 -0.50277,0.52805z" fill="#000000" stroke="#b1b5cd" stroke-width="0"/><path d="M238.60361,180.20574c-0.27768,0 -0.50277,-0.23641 -0.50277,-0.52805c0,-0.29163 0.2251,-0.52804 0.50277,-0.52804c0.27768,0 0.50278,0.23641 0.50278,0.52804c0,0.29163 -0.2251,0.52805 -0.50278,0.52805z" fill="#000000" stroke="#b1b5cd" stroke-width="0"/><path d="M239.56895,180.18462c-0.27768,0 -0.50277,-0.23641 -0.50277,-0.52805c0,-0.29163 0.2251,-0.52805 0.50277,-0.52805c0.27768,0 0.50277,0.23641 0.50277,0.52805c0,0.29163 -0.2251,0.52805 -0.50277,0.52805z" fill="#000000" stroke="#b1b5cd" stroke-width="0"/><path d="M241.18681,164.21172c0,0.99155 -0.76083,1.79536 -1.69937,1.79536c-0.93854,0 -1.69938,-0.8038 -1.69938,-1.79536c0,-0.99156 0.76084,-1.79536 1.69938,-1.79536c0.93854,0 1.69937,0.8038 1.69937,1.79536z" fill="#c9cce9" stroke="#b1b5cd" stroke-width="0.5"/><path d="M238.99472,165.24669c-0.27768,0 -0.50278,-0.23641 -0.50278,-0.52805c0,-0.29163 0.2251,-0.52805 0.50278,-0.52805c0.27768,0 0.50277,0.23641 0.50277,0.52805c0,0.29163 -0.2251,0.52805 -0.50277,0.52805z" fill="#000000" stroke="#000000" stroke-width="0"/><path d="M239.98016,165.24669c-0.27768,0 -0.50277,-0.23642 -0.50277,-0.52805c0,-0.29163 0.2251,-0.52805 0.50277,-0.52805c0.27768,0 0.50278,0.23641 0.50278,0.52805c0,0.29163 -0.2251,0.52805 -0.50278,0.52805z" fill="#000000" stroke="#000000" stroke-width="0"/><path d="M239.01482,164.27508c-0.27768,0 -0.50277,-0.23641 -0.50277,-0.52805c0,-0.29163 0.2251,-0.52805 0.50277,-0.52805c0.27768,0 0.50277,0.23641 0.50277,0.52805c0,0.29163 -0.2251,0.52805 -0.50277,0.52805z" fill="#000000" stroke="#000000" stroke-width="0"/><path d="M239.98016,164.25397c-0.27768,0 -0.50277,-0.23641 -0.50277,-0.52805c0,-0.29163 0.2251,-0.52805 0.50277,-0.52805c0.27768,0 0.50278,0.23642 0.50278,0.52805c0,0.29163 -0.2251,0.52805 -0.50278,0.52805z" fill="#000000" stroke="#000000" stroke-width="0"/><path d="M241.4411,148.2185c0,0.99156 -0.76083,1.79536 -1.69937,1.79536c-0.93854,0 -1.69938,-0.8038 -1.69938,-1.79536c0,-0.99156 0.76084,-1.79536 1.69938,-1.79536c0.93854,0 1.69937,0.80381 1.69937,1.79536z" fill="#c9cce9" stroke="#b1b5cd" stroke-width="0.5"/><path d="M239.24902,149.25347c-0.27768,0 -0.50278,-0.23641 -0.50278,-0.52805c0,-0.29163 0.2251,-0.52805 0.50278,-0.52805c0.27768,0 0.50277,0.23641 0.50277,0.52805c0,0.29163 -0.2251,0.52805 -0.50277,0.52805z" fill="#000000" stroke="#000000" stroke-width="0"/><path d="M240.23445,149.25347c-0.27768,0 -0.50277,-0.23641 -0.50277,-0.52805c0,-0.29163 0.2251,-0.52805 0.50277,-0.52805c0.27768,0 0.50278,0.23641 0.50278,0.52805c0,0.29163 -0.2251,0.52805 -0.50278,0.52805z" fill="#000000" stroke="#000000" stroke-width="0"/><path d="M239.26912,148.28187c-0.27768,0 -0.50277,-0.23641 -0.50277,-0.52805c0,-0.29163 0.2251,-0.52805 0.50277,-0.52805c0.27768,0 0.50278,0.23641 0.50278,0.52805c0,0.29163 -0.2251,0.52805 -0.50278,0.52805z" fill="#000000" stroke="#000000" stroke-width="0"/><path d="M240.23445,148.26073c-0.27768,0 -0.50277,-0.23641 -0.50277,-0.52804c0,-0.29163 0.2251,-0.52805 0.50277,-0.52805c0.27768,0 0.50278,0.23642 0.50278,0.52805c0,0.29163 -0.2251,0.52804 -0.50278,0.52804z" fill="#000000" stroke="#000000" stroke-width="0"/><path d="M240.8332,213.70385c0,0.99155 -0.76084,1.79536 -1.69938,1.79536c-0.93854,0 -1.69937,-0.80381 -1.69937,-1.79536c0,-0.99155 0.76083,-1.79536 1.69937,-1.79536c0.93854,0 1.69938,0.80381 1.69938,1.79536z" fill="#c9cce9" stroke="#b1b5cd" stroke-width="0.5"/><path d="M238.64111,214.73882c-0.27768,0 -0.50278,-0.23641 -0.50278,-0.52805c0,-0.29164 0.2251,-0.52805 0.50278,-0.52805c0.27768,0 0.50277,0.23641 0.50277,0.52805c0,0.29164 -0.2251,0.52805 -0.50277,0.52805z" fill="#000000" stroke="#000000" stroke-width="0"/><path d="M239.62654,214.73882c-0.27768,0 -0.50277,-0.23641 -0.50277,-0.52805c0,-0.29164 0.2251,-0.52804 0.50277,-0.52804c0.27768,0 0.50277,0.2364 0.50277,0.52804c0,0.29164 -0.2251,0.52805 -0.50277,0.52805z" fill="#000000" stroke="#000000" stroke-width="0"/><path d="M238.66122,213.76722c-0.27768,0 -0.50277,-0.23641 -0.50277,-0.52805c0,-0.29164 0.2251,-0.52805 0.50277,-0.52805c0.27768,0 0.50278,0.23641 0.50278,0.52805c0,0.29164 -0.2251,0.52805 -0.50278,0.52805z" fill="#000000" stroke="#000000" stroke-width="0"/><path d="M239.62654,213.7461c-0.27768,0 -0.50277,-0.23641 -0.50277,-0.52805c0,-0.29164 0.2251,-0.52804 0.50277,-0.52804c0.27768,0 0.50277,0.23641 0.50277,0.52804c0,0.29164 -0.2251,0.52805 -0.50277,0.52805z" fill="#000000" stroke="#000000" stroke-width="0"/></g></g></g></svg>