<svg version="1.1" xmlns="http://www.w3.org/2000/svg" xmlns:xlink="http://www.w3.org/1999/xlink" width="90.16939" height="111.36865" viewBox="0,0,90.16939,111.36865"><g transform="translate(-194.91531,-124.15525)"><g data-paper-data="{&quot;isPaintingLayer&quot;:true}" fill-rule="nonzero" stroke-linejoin="miter" stroke-miterlimit="10" stroke-dasharray="" stroke-dashoffset="0" style="mix-blend-mode: normal"><path d="" fill="#c9cce9" stroke="none" stroke-width="0" stroke-linecap="butt"/><path d="" fill="none" stroke="#b1b5cd" stroke-width="0.5" stroke-linecap="round"/><path d="" data-paper-data="{&quot;index&quot;:null}" fill="none" stroke="#b1b5cd" stroke-width="0.5" stroke-linecap="round"/><path d="" fill="#c9cce9" stroke="#b1b5cd" stroke-width="0.5" stroke-linecap="butt"/><path d="" fill="#000000" stroke="#000000" stroke-width="0" stroke-linecap="butt"/><path d="" fill="#000000" stroke="#000000" stroke-width="0" stroke-linecap="butt"/><path d="" fill="#000000" stroke="#000000" stroke-width="0" stroke-linecap="butt"/><path d="" fill="#000000" stroke="#000000" stroke-width="0" stroke-linecap="butt"/><path d="" fill="#c9cce9" stroke="#b1b5cd" stroke-width="0.5" stroke-linecap="butt"/><path d="" fill="#000000" stroke="#b1b5cd" stroke-width="0" stroke-linecap="butt"/><path d="" fill="#000000" stroke="#b1b5cd" stroke-width="0" stroke-linecap="butt"/><path d="" fill="#000000" stroke="#b1b5cd" stroke-width="0" stroke-linecap="butt"/><path d="" fill="#000000" stroke="#b1b5cd" stroke-width="0" stroke-linecap="butt"/><path d="" fill="#c9cce9" stroke="#b1b5cd" stroke-width="0.5" stroke-linecap="butt"/><path d="" fill="#000000" stroke="#000000" stroke-width="0" stroke-linecap="butt"/><path d="" fill="#000000" stroke="#000000" stroke-width="0" stroke-linecap="butt"/><path d="" fill="#000000" stroke="#000000" stroke-width="0" stroke-linecap="butt"/><path d="" fill="#000000" stroke="#000000" stroke-width="0" stroke-linecap="butt"/><path d="" fill="#c9cce9" stroke="#b1b5cd" stroke-width="0.5" stroke-linecap="butt"/><path d="" fill="#000000" stroke="#000000" stroke-width="0" stroke-linecap="butt"/><path d="" fill="#000000" stroke="#000000" stroke-width="0" stroke-linecap="butt"/><path d="" fill="#000000" stroke="#000000" stroke-width="0" stroke-linecap="butt"/><path d="" fill="#000000" stroke="#000000" stroke-width="0" stroke-linecap="butt"/><path d="" fill="#c9cce9" stroke="#b1b5cd" stroke-width="0.5" stroke-linecap="butt"/><path d="" fill="#000000" stroke="#000000" stroke-width="0" stroke-linecap="butt"/><path d="" fill="#000000" stroke="#000000" stroke-width="0" stroke-linecap="butt"/><path d="" fill="#000000" stroke="#000000" stroke-width="0" stroke-linecap="butt"/><path d="" fill="#000000" stroke="#000000" stroke-width="0" stroke-linecap="butt"/><path d="" fill="#c9cce9" stroke="#aaadc9" stroke-width="0" stroke-linecap="butt"/><path d="" fill="none" stroke="#aaadc9" stroke-width="0.5" stroke-linecap="round"/><path d="" fill="none" stroke="#aaadc9" stroke-width="0.5" stroke-linecap="round"/><path d="" fill="none" stroke="#aaadc9" stroke-width="0.5" stroke-linecap="round"/><path d="" fill="none" stroke="#aaadc9" stroke-width="0.5" stroke-linecap="round"/><path d="" fill="none" stroke="#aaadc9" stroke-width="0.5" stroke-linecap="round"/><path d="" fill="none" stroke="#aaadc9" stroke-width="0.5" stroke-linecap="round"/><path d="" data-paper-data="{&quot;index&quot;:null}" fill="none" stroke="#aaadc9" stroke-width="0.5" stroke-linecap="round"/><path d="" fill="none" stroke="#aaadc9" stroke-width="0.5" stroke-linecap="round"/><path d="" data-paper-data="{&quot;index&quot;:null}" fill="none" stroke="#aaadc9" stroke-width="0.5" stroke-linecap="round"/><path d="" fill="#c9cce9" stroke="#b1b5cd" stroke-width="0.5" stroke-linecap="butt"/><path d="" fill="#000000" stroke="#000000" stroke-width="0" stroke-linecap="butt"/><path d="" fill="#000000" stroke="#000000" stroke-width="0" stroke-linecap="butt"/><path d="" fill="#000000" stroke="#000000" stroke-width="0" stroke-linecap="butt"/><path d="" fill="#000000" stroke="#000000" stroke-width="0" stroke-linecap="butt"/><path d="" fill="#c9cce9" stroke="#b1b5cd" stroke-width="0.5" stroke-linecap="butt"/><path d="" fill="#000000" stroke="#b1b5cd" stroke-width="0" stroke-linecap="butt"/><path d="" fill="#000000" stroke="#b1b5cd" stroke-width="0" stroke-linecap="butt"/><path d="" fill="#000000" stroke="#b1b5cd" stroke-width="0" stroke-linecap="butt"/><path d="" fill="#000000" stroke="#b1b5cd" stroke-width="0" stroke-linecap="butt"/><path d="" fill="#c9cce9" stroke="#b1b5cd" stroke-width="0.5" stroke-linecap="butt"/><path d="" fill="#000000" stroke="#000000" stroke-width="0" stroke-linecap="butt"/><path d="" fill="#000000" stroke="#000000" stroke-width="0" stroke-linecap="butt"/><path d="" fill="#000000" stroke="#000000" stroke-width="0" stroke-linecap="butt"/><path d="" fill="#000000" stroke="#000000" stroke-width="0" stroke-linecap="butt"/><path d="" fill="#c9cce9" stroke="#b1b5cd" stroke-width="0.5" stroke-linecap="butt"/><path d="" fill="#000000" stroke="#000000" stroke-width="0" stroke-linecap="butt"/><path d="" fill="#000000" stroke="#000000" stroke-width="0" stroke-linecap="butt"/><path d="" fill="#000000" stroke="#000000" stroke-width="0" stroke-linecap="butt"/><path d="" fill="#000000" stroke="#000000" stroke-width="0" stroke-linecap="butt"/><path d="" fill="#c9cce9" stroke="#b1b5cd" stroke-width="0.5" stroke-linecap="butt"/><path d="" fill="#000000" stroke="#000000" stroke-width="0" stroke-linecap="butt"/><path d="" fill="#000000" stroke="#000000" stroke-width="0" stroke-linecap="butt"/><path d="" fill="#000000" stroke="#000000" stroke-width="0" stroke-linecap="butt"/><path d="" fill="#000000" stroke="#000000" stroke-width="0" stroke-linecap="butt"/><g><path d="M265.87789,211.57274c0.53692,7.79798 1.14845,17.62266 1.14845,17.62266c0,0 -18.79945,3.18262 -26.76648,3.18262c-1.58218,0 -12.2189,-14.90744 -12.2189,-14.90744l-10.66977,-79.85516c0,0 5.77978,-2.80783 11.87366,-2.80783c4.67996,0 5.71084,14.37021 9.27661,14.37021c0.52419,0 6.07286,-5.51119 8.44248,-11.10966c2.37267,-5.60566 3.82165,-10.46659 3.82165,-10.46659l4.94324,2.78532l22.49034,8.94336c0,0 1.63975,4.65175 4.37753,17.09124c1.81455,8.24464 2.18023,27.57383 2.18023,27.57383l-17.15015,-0.74277c0,0 -1.38072,6.62488 -1.85816,12.69503c-0.09336,1.18698 -0.47076,3.81805 -0.55675,6.42356c-0.02855,0.86512 0.35574,4.6949 0.66604,9.20162z" data-paper-data="{&quot;index&quot;:null}" fill="#c9cce9" stroke="none" stroke-width="0" stroke-linecap="butt"/><path d="M267.62196,183.32784l17.20459,0.77469c0,0 0.30571,-17.24026 -2.82927,-30.79674c-2.74068,-11.85138 -3.81016,-14.02457 -3.81411,-14.0089c-0.6028,2.39399 -4.44639,11.52682 -6.32972,20.32053c-1.65295,7.71803 -5.33562,28.15974 -6.49138,39.61587c-0.24634,2.44183 0.19212,9.00109 0.56798,15.41678c0.35087,5.98925 0.61264,11.85337 1.15226,14.12581c0.945,3.97957 -24.53857,7.82538 -25.55732,5.9233c-0.78188,-1.45984 -1.38693,-2.16759 -1.38693,-2.16759" data-paper-data="{&quot;index&quot;:null}" fill="none" stroke="#b1b5cd" stroke-width="0.5" stroke-linecap="round"/><path d="M214.78815,202.44465c-0.08598,-2.60551 -0.46338,-5.23658 -0.55674,-6.42357c-0.47744,-6.07015 -1.85816,-12.69502 -1.85816,-12.69502l-17.15015,0.74277c0,0 0.36568,-19.32919 2.18023,-27.57383c2.73778,-12.43949 4.66162,-17.20488 4.66162,-17.20488l22.20625,-8.82972l4.94324,-2.78532c0,0 1.44898,4.86093 3.82165,10.46659c2.36962,5.59847 4.83005,10.74201 5.35424,10.74201c3.56577,0 7.68488,-14.00256 12.36484,-14.00256c6.09388,0 11.87366,2.80783 11.87366,2.80783l-10.66977,79.85516c0,0 -10.2744,14.69005 -11.85658,14.69005c-7.96703,0 -27.1288,-2.96523 -27.1288,-2.96523c0,0 0.61154,-9.82468 1.14845,-17.62266c0.3103,-4.50672 0.69458,-8.3365 0.66603,-9.20162z" fill="#c9cce9" stroke="none" stroke-width="0" stroke-linecap="butt"/><path d="M238.15063,232.57037c-0.00368,-0.25734 -0.00868,-28.85989 -0.01487,-29.27793c-0.12269,-8.28442 -0.7136,-46.55701 -0.79244,-52.71033c-0.00473,-0.36881 1.0199,-1.96095 1.0206,-2.08438" data-paper-data="{&quot;index&quot;:null}" fill="none" stroke="#aaadc9" stroke-width="0.5" stroke-linecap="round"/><g fill="none" stroke="#aaadc9" stroke-width="0.5"><path d="M213.99666,182.51677v-22.19374h17.03245v22.34925l-2.31828,1.83536h-12.32423z" stroke-linecap="butt"/><path d="M219.89535,166.81561l-0.14747,17.6183" stroke-linecap="round"/><path d="M225.86776,166.81159l-0.14746,17.62232" stroke-linecap="round"/><path d="M230.96342,164.94949l-2.25237,1.87669l-12.32434,-0.02506l-2.3123,-1.77789" stroke-linecap="round"/></g><g fill="none" stroke="#aaadc9" stroke-width="0.5"><path d="M247.0427,182.51677v-22.19374h17.03245v22.34925l-2.31828,1.83536h-12.32423z" stroke-linecap="butt"/><path d="M252.94139,166.81561l-0.14747,17.6183" stroke-linecap="round"/><path d="M258.9138,166.81159l-0.14747,17.62232" stroke-linecap="round"/><path d="M264.00946,164.94949l-2.25237,1.87669l-12.32434,-0.02506l-2.3123,-1.77789" stroke-linecap="round"/></g><g data-paper-data="{&quot;index&quot;:null}" stroke-linecap="butt"><path d="M222.79332,163.06009c0.83998,0 1.52091,0.68496 1.52091,1.52991c0,0.84495 -0.68093,1.52991 -1.52091,1.52991c-0.83998,0 -1.52091,-0.68496 -1.52091,-1.52991c0,-0.84495 0.68093,-1.52991 1.52091,-1.52991z" fill="#c9cce9" stroke="#b1b5cd" stroke-width="0.5"/><path d="M222.78432,165.02198c0,-0.24852 0.20145,-0.44998 0.44997,-0.44998c0.24852,0 0.44998,0.20146 0.44998,0.44998c0,0.24852 -0.20146,0.44997 -0.44998,0.44997c-0.24852,0 -0.44997,-0.20146 -0.44997,-0.44997z" fill="#000000" stroke="#000000" stroke-width="0"/><path d="M221.90237,165.02197c0,-0.24852 0.20146,-0.44997 0.44998,-0.44997c0.24852,0 0.44997,0.20146 0.44997,0.44997c0,0.24852 -0.20145,0.44998 -0.44997,0.44998c-0.24852,0 -0.44998,-0.20146 -0.44998,-0.44998z" fill="#000000" stroke="#000000" stroke-width="0"/><path d="M222.76631,164.19402c0,-0.24852 0.20146,-0.44997 0.44998,-0.44997c0.24852,0 0.44997,0.20145 0.44997,0.44997c0,0.24852 -0.20145,0.44998 -0.44997,0.44998c-0.24852,0 -0.44998,-0.20146 -0.44998,-0.44998z" fill="#000000" stroke="#000000" stroke-width="0"/><path d="M221.90237,164.17603c0,-0.24852 0.20146,-0.44998 0.44998,-0.44998c0.24852,0 0.44997,0.20146 0.44997,0.44998c0,0.24852 -0.20145,0.44997 -0.44997,0.44997c-0.24852,0 -0.44998,-0.20146 -0.44998,-0.44997z" fill="#000000" stroke="#000000" stroke-width="0"/></g><g data-paper-data="{&quot;index&quot;:null}" stroke-linecap="butt"><path d="M256.03374,163.15729c0.83998,0 1.52091,0.68495 1.52091,1.5299c0,0.84495 -0.68093,1.52991 -1.52091,1.52991c-0.83998,0 -1.52091,-0.68496 -1.52091,-1.52991c0,-0.84495 0.68093,-1.5299 1.52091,-1.5299z" fill="#c9cce9" stroke="#b1b5cd" stroke-width="0.5"/><path d="M256.02474,165.11918c0,-0.24852 0.20145,-0.44997 0.44997,-0.44997c0.24852,0 0.44998,0.20146 0.44998,0.44997c0,0.24852 -0.20146,0.44998 -0.44998,0.44998c-0.24852,0 -0.44997,-0.20146 -0.44997,-0.44998z" fill="#000000" stroke="#000000" stroke-width="0"/><path d="M255.14279,165.11916c0,-0.24852 0.20146,-0.44997 0.44998,-0.44997c0.24852,0 0.44997,0.20146 0.44997,0.44997c0,0.24852 -0.20145,0.44998 -0.44997,0.44998c-0.24852,0 -0.44998,-0.20146 -0.44998,-0.44998z" fill="#000000" stroke="#000000" stroke-width="0"/><path d="M256.00674,164.29122c0,-0.24852 0.20146,-0.44997 0.44998,-0.44997c0.24852,0 0.44997,0.20146 0.44997,0.44997c0,0.24852 -0.20145,0.44997 -0.44997,0.44997c-0.24852,0 -0.44998,-0.20146 -0.44998,-0.44997z" fill="#000000" stroke="#000000" stroke-width="0"/><path d="M255.14279,164.27322c0,-0.24852 0.20146,-0.44998 0.44998,-0.44998c0.24852,0 0.44997,0.20146 0.44997,0.44998c0,0.24852 -0.20145,0.44997 -0.44997,0.44997c-0.24852,0 -0.44998,-0.20146 -0.44998,-0.44997z" fill="#000000" stroke="#000000" stroke-width="0"/></g><path d="M239.86194,232.60511c0,0 -0.60505,0.70775 -1.38693,2.16759c-1.01875,1.90209 -26.50231,-1.94372 -25.55732,-5.9233c0.53962,-2.27243 0.80139,-8.13656 1.15226,-14.12581c0.37586,-6.41569 0.81433,-12.97495 0.56798,-15.41678c-1.15576,-11.45612 -4.83842,-31.89784 -6.49138,-39.61587c-1.88333,-8.79371 -5.72692,-17.92654 -6.32972,-20.32053c-0.00395,-0.01567 -1.07343,2.15752 -3.81411,14.0089c-3.13498,13.55648 -2.82927,30.7273 -2.82927,30.7273l17.2047,-0.77641" fill="none" stroke="#b1b5cd" stroke-width="0.5" stroke-linecap="round"/><g data-paper-data="{&quot;index&quot;:null}" fill="#c9cce9" stroke="#b1b5cd" stroke-width="0.5" stroke-linecap="round"><path d="M255.53068,130.17011l22.56388,9.05355"/><path d="M259.48005,136.2315c4.4525,1.79645 17.10939,6.90315 17.10939,6.90315"/><path d="M201.95577,139.25534l22.56388,-9.05355"/><path d="M220.59789,136.25204c-4.80033,1.9368 -17.13699,6.91428 -17.13699,6.91428"/><path d="M250.9874,124.7261c0,0 -4.2193,9.41874 -6.54468,13.81095c-2.05303,3.87779 -6.54393,10.83749 -6.54393,10.83749c0,0 -0.19602,0.29959 -0.08454,0.24285c0.59633,-0.30348 3.13727,-1.824 4.82283,-2.59117c2.19509,-0.99908 7.45252,-2.47828 7.45252,-2.47828l0.94397,-19.75209c0,0 4.14097,4.83277 5.98734,7.66221c1.87478,2.87296 5.35483,9.50613 5.35483,9.50613l-12.02684,-0.6149"/><path d="M229.60182,141.33089l-11.93486,0.63329c0,0 3.48007,-6.63317 5.35484,-9.50613c1.84637,-2.82944 5.92818,-7.54393 5.92818,-7.54393l0.84675,19.67291c0,0 -0.09751,1.37619 3.57858,2.8985c2.19842,0.91039 4.19613,1.18341 4.98633,0.9817c0.29599,-0.07555 0.32197,-0.39315 0.32197,-0.39315c0,0 -3.41493,-6.51083 -5.1052,-10.48089c-1.4269,-3.35145 -4.58945,-12.62613 -4.58945,-12.62613" data-paper-data="{&quot;index&quot;:null}"/></g><g data-paper-data="{&quot;index&quot;:null}" stroke-linecap="butt"><g><path d="M240.56349,196.41105c0.93851,-0.00788 1.70617,0.77625 1.71464,1.75141c0.00847,0.97517 -0.74548,1.77207 -1.68399,1.77995c-0.9385,0.00788 -1.70618,-0.77626 -1.71464,-1.75142c-0.00847,-0.97517 0.74549,-1.77206 1.68399,-1.77994z" fill="#c9cce9" stroke="#b1b5cd" stroke-width="0.5"/><path d="M240.5731,198.67536c-0.00249,-0.28682 0.22057,-0.52121 0.49824,-0.52354c0.27767,-0.00233 0.50478,0.22828 0.50727,0.51511c0.00249,0.28682 -0.2206,0.52121 -0.49826,0.52354c-0.27766,0.00233 -0.50477,-0.22828 -0.50726,-0.5151z" fill="#000000" stroke="#000000" stroke-width="0"/><path d="M239.58769,198.68364c-0.00249,-0.28682 0.22057,-0.5212 0.49824,-0.52353c0.27766,-0.00233 0.50477,0.22827 0.50726,0.51509c0.00249,0.28682 -0.22058,0.52122 -0.49824,0.52355c-0.27766,0.00233 -0.50477,-0.22828 -0.50726,-0.5151z" fill="#000000" stroke="#000000" stroke-width="0"/><path d="M240.54467,197.71998c-0.00249,-0.28682 0.22059,-0.52121 0.49825,-0.52354c0.27766,-0.00233 0.50477,0.22828 0.50726,0.5151c0.00249,0.28682 -0.22057,0.52121 -0.49824,0.52354c-0.27767,0.00233 -0.50478,-0.22828 -0.50727,-0.5151z" fill="#000000" stroke="#000000" stroke-width="0"/><path d="M239.57922,197.70732c-0.00249,-0.28682 0.22057,-0.52122 0.49824,-0.52355c0.27766,-0.00233 0.50477,0.22828 0.50726,0.5151c0.00249,0.28681 -0.22058,0.5212 -0.49824,0.52353c-0.27766,0.00233 -0.50477,-0.22827 -0.50726,-0.51509z" fill="#000000" stroke="#000000" stroke-width="0"/></g><g stroke="#b1b5cd"><path d="M240.65163,180.92382c0.9385,-0.00788 1.70617,0.77625 1.71463,1.75142c0.00847,0.97517 -0.74548,1.77206 -1.68399,1.77994c-0.9385,0.00788 -1.70618,-0.77625 -1.71464,-1.75142c-0.00847,-0.97516 0.74549,-1.77206 1.68399,-1.77994z" fill="#c9cce9" stroke-width="0.5"/><path d="M240.66122,183.18814c-0.00249,-0.28681 0.22057,-0.52121 0.49824,-0.52354c0.27767,-0.00233 0.50478,0.22828 0.50727,0.5151c0.00249,0.28681 -0.22058,0.52121 -0.49826,0.52354c-0.27767,0.00233 -0.50477,-0.22829 -0.50726,-0.5151z" fill="#000000" stroke-width="0"/><path d="M239.67583,183.1964c-0.00249,-0.28681 0.22057,-0.52121 0.49824,-0.52354c0.27766,-0.00233 0.50477,0.22828 0.50726,0.51509c0.00249,0.28681 -0.22057,0.52121 -0.49824,0.52354c-0.27766,0.00233 -0.50477,-0.22829 -0.50726,-0.5151z" fill="#000000" stroke-width="0"/><path d="M240.63282,182.23275c-0.00249,-0.28681 0.22058,-0.5212 0.49826,-0.52353c0.27766,-0.00233 0.50477,0.22828 0.50726,0.5151c0.00249,0.28682 -0.22058,0.52121 -0.49825,0.52354c-0.27767,0.00233 -0.50478,-0.22829 -0.50727,-0.5151z" fill="#000000" stroke-width="0"/><path d="M239.66735,182.22009c-0.00249,-0.28682 0.22058,-0.52121 0.49825,-0.52354c0.27766,-0.00233 0.50477,0.22829 0.50726,0.5151c0.00249,0.28682 -0.22057,0.52122 -0.49824,0.52355c-0.27766,0.00233 -0.50477,-0.22829 -0.50726,-0.5151z" fill="#000000" stroke-width="0"/></g><g><path d="M240.10444,165.25996c0.9385,-0.00788 1.70618,0.77625 1.71464,1.75142c0.00847,0.97517 -0.74549,1.77207 -1.684,1.77995c-0.9385,0.00788 -1.70616,-0.77626 -1.71463,-1.75142c-0.00847,-0.97517 0.74547,-1.77207 1.68398,-1.77995z" fill="#c9cce9" stroke="#b1b5cd" stroke-width="0.5"/><path d="M240.11404,167.52427c-0.00249,-0.28682 0.22057,-0.52121 0.49824,-0.52354c0.27767,-0.00233 0.50478,0.22829 0.50727,0.5151c0.00249,0.28682 -0.22058,0.52121 -0.49826,0.52354c-0.27766,0.00233 -0.50476,-0.22829 -0.50725,-0.5151z" fill="#000000" stroke="#000000" stroke-width="0"/><path d="M239.12863,167.53254c-0.00249,-0.28682 0.22058,-0.52121 0.49826,-0.52354c0.27766,-0.00233 0.50477,0.22829 0.50726,0.5151c0.00249,0.28681 -0.22057,0.52121 -0.49824,0.52354c-0.27767,0.00233 -0.50478,-0.22829 -0.50727,-0.5151z" fill="#000000" stroke="#000000" stroke-width="0"/><path d="M240.08564,166.56889c-0.00249,-0.28682 0.22057,-0.52121 0.49824,-0.52354c0.27766,-0.00233 0.50477,0.22829 0.50726,0.5151c0.00249,0.28682 -0.22058,0.52121 -0.49825,0.52354c-0.27766,0.00233 -0.50477,-0.22829 -0.50726,-0.5151z" fill="#000000" stroke="#000000" stroke-width="0"/><path d="M239.12015,166.55623c-0.00249,-0.28681 0.22058,-0.52121 0.49826,-0.52354c0.27766,-0.00233 0.50477,0.22829 0.50726,0.5151c0.00249,0.28682 -0.22057,0.52121 -0.49824,0.52354c-0.27767,0.00233 -0.50478,-0.22829 -0.50727,-0.5151z" fill="#000000" stroke="#000000" stroke-width="0"/></g><g><path d="M239.71364,149.53325c0.93851,-0.00788 1.70618,0.77625 1.71464,1.75142c0.00847,0.97517 -0.74549,1.77206 -1.68399,1.77994c-0.93851,0.00788 -1.70617,-0.77625 -1.71464,-1.75142c-0.00847,-0.97516 0.74548,-1.77206 1.68399,-1.77994z" fill="#c9cce9" stroke="#b1b5cd" stroke-width="0.5"/><path d="M239.72323,151.79755c-0.00249,-0.28682 0.22057,-0.52121 0.49824,-0.52354c0.27767,-0.00233 0.50478,0.22829 0.50727,0.5151c0.00249,0.28682 -0.22058,0.52121 -0.49826,0.52354c-0.27766,0.00233 -0.50477,-0.22829 -0.50726,-0.5151z" fill="#000000" stroke="#000000" stroke-width="0"/><path d="M238.73783,151.80583c-0.00249,-0.28682 0.22058,-0.52121 0.49825,-0.52354c0.27766,-0.00233 0.50477,0.22829 0.50726,0.5151c0.00249,0.28682 -0.22057,0.52122 -0.49824,0.52355c-0.27767,0.00233 -0.50477,-0.22829 -0.50726,-0.5151z" fill="#000000" stroke="#000000" stroke-width="0"/><path d="M239.69482,150.84218c-0.00249,-0.28682 0.22058,-0.52121 0.49826,-0.52354c0.27766,-0.00233 0.50477,0.22829 0.50726,0.5151c0.00249,0.28682 -0.22057,0.52121 -0.49824,0.52354c-0.27767,0.00233 -0.50478,-0.22829 -0.50727,-0.5151z" fill="#000000" stroke="#000000" stroke-width="0"/><path d="M238.72935,150.82951c-0.00249,-0.28681 0.22058,-0.52121 0.49826,-0.52354c0.27766,-0.00233 0.50476,0.22829 0.50725,0.5151c0.00249,0.28681 -0.22057,0.5212 -0.49824,0.52353c-0.27767,0.00233 -0.50478,-0.22828 -0.50727,-0.51509z" fill="#000000" stroke="#000000" stroke-width="0"/></g><g><path d="M240.88052,213.93101c0.93851,-0.00788 1.70616,0.77626 1.71463,1.75142c0.00847,0.97516 -0.74547,1.77207 -1.68398,1.77995c-0.93851,0.00788 -1.70618,-0.77626 -1.71464,-1.75142c-0.00847,-0.97516 0.74549,-1.77207 1.68399,-1.77995z" fill="#c9cce9" stroke="#b1b5cd" stroke-width="0.5"/><path d="M240.89011,216.19531c-0.00249,-0.28682 0.22057,-0.52121 0.49824,-0.52354c0.27767,-0.00233 0.50478,0.22828 0.50727,0.5151c0.00249,0.28682 -0.22058,0.52121 -0.49826,0.52354c-0.27766,0.00233 -0.50477,-0.22828 -0.50726,-0.5151z" fill="#000000" stroke="#000000" stroke-width="0"/><path d="M239.90472,216.20359c-0.00249,-0.28682 0.22057,-0.5212 0.49824,-0.52353c0.27766,-0.00233 0.50477,0.22827 0.50726,0.51509c0.00249,0.28682 -0.22058,0.52122 -0.49825,0.52355c-0.27766,0.00233 -0.50476,-0.22828 -0.50725,-0.5151z" fill="#000000" stroke="#000000" stroke-width="0"/><path d="M240.8617,215.23994c-0.00249,-0.28682 0.22058,-0.52121 0.49826,-0.52354c0.27766,-0.00233 0.50477,0.22828 0.50726,0.5151c0.00249,0.28682 -0.22057,0.52121 -0.49824,0.52354c-0.27767,0.00233 -0.50478,-0.22828 -0.50727,-0.5151z" fill="#000000" stroke="#000000" stroke-width="0"/><path d="M239.89624,215.22728c-0.00249,-0.28681 0.22057,-0.52121 0.49824,-0.52354c0.27766,-0.00233 0.50477,0.22827 0.50726,0.51509c0.00249,0.28682 -0.22057,0.52122 -0.49824,0.52355c-0.27766,0.00233 -0.50477,-0.22828 -0.50726,-0.5151z" fill="#000000" stroke="#000000" stroke-width="0"/></g></g></g></g></g></svg>