<svg version="1.1" xmlns="http://www.w3.org/2000/svg" xmlns:xlink="http://www.w3.org/1999/xlink" width="90.16124" height="117.79106" viewBox="0,0,90.16124,117.79106"><g transform="translate(-194.92345,-121.04761)"><g data-paper-data="{&quot;isPaintingLayer&quot;:true}" fill-rule="nonzero" stroke-linejoin="miter" stroke-miterlimit="10" stroke-dasharray="" stroke-dashoffset="0" style="mix-blend-mode: normal"><path d="" fill="#c9cce9" stroke="none" stroke-width="0" stroke-linecap="butt"/><path d="" fill="none" stroke="#b1b5cd" stroke-width="0.5" stroke-linecap="round"/><path d="" data-paper-data="{&quot;index&quot;:null}" fill="none" stroke="#b1b5cd" stroke-width="0.5" stroke-linecap="round"/><path d="" fill="#c9cce9" stroke="#b1b5cd" stroke-width="0.5" stroke-linecap="butt"/><path d="" fill="#000000" stroke="#000000" stroke-width="0" stroke-linecap="butt"/><path d="" fill="#000000" stroke="#000000" stroke-width="0" stroke-linecap="butt"/><path d="" fill="#000000" stroke="#000000" stroke-width="0" stroke-linecap="butt"/><path d="" fill="#000000" stroke="#000000" stroke-width="0" stroke-linecap="butt"/><path d="" fill="#c9cce9" stroke="#b1b5cd" stroke-width="0.5" stroke-linecap="butt"/><path d="" fill="#000000" stroke="#b1b5cd" stroke-width="0" stroke-linecap="butt"/><path d="" fill="#000000" stroke="#b1b5cd" stroke-width="0" stroke-linecap="butt"/><path d="" fill="#000000" stroke="#b1b5cd" stroke-width="0" stroke-linecap="butt"/><path d="" fill="#000000" stroke="#b1b5cd" stroke-width="0" stroke-linecap="butt"/><path d="" fill="#c9cce9" stroke="#b1b5cd" stroke-width="0.5" stroke-linecap="butt"/><path d="" fill="#000000" stroke="#000000" stroke-width="0" stroke-linecap="butt"/><path d="" fill="#000000" stroke="#000000" stroke-width="0" stroke-linecap="butt"/><path d="" fill="#000000" stroke="#000000" stroke-width="0" stroke-linecap="butt"/><path d="" fill="#000000" stroke="#000000" stroke-width="0" stroke-linecap="butt"/><path d="" fill="#c9cce9" stroke="#b1b5cd" stroke-width="0.5" stroke-linecap="butt"/><path d="" fill="#000000" stroke="#000000" stroke-width="0" stroke-linecap="butt"/><path d="" fill="#000000" stroke="#000000" stroke-width="0" stroke-linecap="butt"/><path d="" fill="#000000" stroke="#000000" stroke-width="0" stroke-linecap="butt"/><path d="" fill="#000000" stroke="#000000" stroke-width="0" stroke-linecap="butt"/><path d="" fill="#c9cce9" stroke="#b1b5cd" stroke-width="0.5" stroke-linecap="butt"/><path d="" fill="#000000" stroke="#000000" stroke-width="0" stroke-linecap="butt"/><path d="" fill="#000000" stroke="#000000" stroke-width="0" stroke-linecap="butt"/><path d="" fill="#000000" stroke="#000000" stroke-width="0" stroke-linecap="butt"/><path d="" fill="#000000" stroke="#000000" stroke-width="0" stroke-linecap="butt"/><path d="" fill="#c9cce9" stroke="#aaadc9" stroke-width="0" stroke-linecap="butt"/><path d="" fill="none" stroke="#aaadc9" stroke-width="0.5" stroke-linecap="round"/><path d="" fill="none" stroke="#aaadc9" stroke-width="0.5" stroke-linecap="round"/><path d="" fill="none" stroke="#aaadc9" stroke-width="0.5" stroke-linecap="round"/><path d="" fill="none" stroke="#aaadc9" stroke-width="0.5" stroke-linecap="round"/><path d="" fill="none" stroke="#aaadc9" stroke-width="0.5" stroke-linecap="round"/><path d="" fill="none" stroke="#aaadc9" stroke-width="0.5" stroke-linecap="round"/><path d="" data-paper-data="{&quot;index&quot;:null}" fill="none" stroke="#aaadc9" stroke-width="0.5" stroke-linecap="round"/><path d="" fill="none" stroke="#aaadc9" stroke-width="0.5" stroke-linecap="round"/><path d="" data-paper-data="{&quot;index&quot;:null}" fill="none" stroke="#aaadc9" stroke-width="0.5" stroke-linecap="round"/><path d="" fill="#c9cce9" stroke="#b1b5cd" stroke-width="0.5" stroke-linecap="butt"/><path d="" fill="#000000" stroke="#000000" stroke-width="0" stroke-linecap="butt"/><path d="" fill="#000000" stroke="#000000" stroke-width="0" stroke-linecap="butt"/><path d="" fill="#000000" stroke="#000000" stroke-width="0" stroke-linecap="butt"/><path d="" fill="#000000" stroke="#000000" stroke-width="0" stroke-linecap="butt"/><path d="" fill="#c9cce9" stroke="#b1b5cd" stroke-width="0.5" stroke-linecap="butt"/><path d="" fill="#000000" stroke="#b1b5cd" stroke-width="0" stroke-linecap="butt"/><path d="" fill="#000000" stroke="#b1b5cd" stroke-width="0" stroke-linecap="butt"/><path d="" fill="#000000" stroke="#b1b5cd" stroke-width="0" stroke-linecap="butt"/><path d="" fill="#000000" stroke="#b1b5cd" stroke-width="0" stroke-linecap="butt"/><path d="" fill="#c9cce9" stroke="#b1b5cd" stroke-width="0.5" stroke-linecap="butt"/><path d="" fill="#000000" stroke="#000000" stroke-width="0" stroke-linecap="butt"/><path d="" fill="#000000" stroke="#000000" stroke-width="0" stroke-linecap="butt"/><path d="" fill="#000000" stroke="#000000" stroke-width="0" stroke-linecap="butt"/><path d="" fill="#000000" stroke="#000000" stroke-width="0" stroke-linecap="butt"/><path d="" fill="#c9cce9" stroke="#b1b5cd" stroke-width="0.5" stroke-linecap="butt"/><path d="" fill="#000000" stroke="#000000" stroke-width="0" stroke-linecap="butt"/><path d="" fill="#000000" stroke="#000000" stroke-width="0" stroke-linecap="butt"/><path d="" fill="#000000" stroke="#000000" stroke-width="0" stroke-linecap="butt"/><path d="" fill="#000000" stroke="#000000" stroke-width="0" stroke-linecap="butt"/><path d="" fill="#c9cce9" stroke="#b1b5cd" stroke-width="0.5" stroke-linecap="butt"/><path d="" fill="#000000" stroke="#000000" stroke-width="0" stroke-linecap="butt"/><path d="" fill="#000000" stroke="#000000" stroke-width="0" stroke-linecap="butt"/><path d="" fill="#000000" stroke="#000000" stroke-width="0" stroke-linecap="butt"/><path d="" fill="#000000" stroke="#000000" stroke-width="0" stroke-linecap="butt"/><g><path d="M265.87789,209.72037c0.53692,7.79798 1.14845,17.62266 1.14845,17.62266c0,0 -18.79945,3.18262 -26.76648,3.18262c-1.58218,0 -12.2189,-14.90744 -12.2189,-14.90744l-10.66977,-79.85516c0,0 5.77978,-2.80783 11.87366,-2.80783c4.67996,0 21.54074,-7.20604 21.54074,-7.20604l4.94324,2.78532l22.20625,8.82972c0,0 1.92384,4.76539 4.66162,17.20488c1.81455,8.24464 2.18023,27.57383 2.18023,27.57383c0,0 -0.86852,37.8808 -1.17878,47.22802c-0.02147,0.64685 -0.26837,0.97596 -0.30665,1.61396c-0.19799,3.29924 -0.35332,6.55462 -0.35332,6.55462l-8.79209,0.82004c0,0 -0.16498,-2.84677 -0.43114,-7.37649c-0.02536,-0.43158 -0.37422,-0.50209 -0.40136,-0.96321c-0.86049,-14.62038 -3.29839,-43.60982 -4.05152,-54.93665c-0.04638,-0.6976 -0.05715,-2.90098 -0.21016,-2.49659c-0.48464,1.28084 -1.42514,8.81354 -1.42514,8.81354c0,0 -1.38072,6.62487 -1.85816,12.69502c-0.09336,1.18698 -0.47076,3.81805 -0.55674,6.42357c-0.02855,0.86512 0.35573,4.6949 0.66603,9.20162z" data-paper-data="{&quot;index&quot;:null}" fill="#c9cce9" stroke="none" stroke-width="0" stroke-linecap="butt"/><path d="M240.13806,230.67922c0,0 0.60505,0.70775 1.38693,2.16759c1.01875,1.90208 26.50232,-1.94373 25.55732,-5.9233c-0.53962,-2.27244 -0.80139,-8.13656 -1.15226,-14.12581c-0.37586,-6.41569 -0.81432,-12.97495 -0.56798,-15.41678c1.15576,-11.45613 4.83843,-31.89784 6.49138,-39.61587c1.88333,-8.79371 5.72692,-17.92654 6.32972,-20.32053c0.00395,-0.01567 1.07343,2.15752 3.81411,14.0089c3.13498,13.55648 2.82927,31.08083 2.82927,31.08083c0,0 -0.60755,14.32065 -0.68558,26.59844c-0.04555,7.16697 -0.33451,15.27426 -0.57899,21.00311c-0.00898,0.21051 -0.29996,0.4178 -0.30881,0.62172c-0.17898,4.1244 -0.10192,6.81135 -0.10192,6.81135l-9.11867,0.91972c0,0 0.00834,-2.61612 -0.34754,-7.21125c-0.01872,-0.24171 -0.31988,-0.37484 -0.33935,-0.62479c-0.57946,-7.43659 -0.74759,-19.51398 -1.68391,-28.13563c-0.84131,-7.74678 -1.92046,-17.67167 -2.25952,-24.33312c-0.24771,-4.86677 0.01446,-7.80514 0.01446,-7.80514" data-paper-data="{&quot;index&quot;:null}" fill="none" stroke="#b1b5cd" stroke-width="0.5" stroke-linecap="round"/><path d="M214.78816,200.59228c-0.08598,-2.60551 -0.46339,-5.23658 -0.55675,-6.42356c-0.47744,-6.07015 -1.85816,-12.69502 -1.85816,-12.69502c0,0 -0.94051,-7.53269 -1.42515,-8.81354c-0.15301,-0.40439 -0.16377,1.79899 -0.21015,2.49659c-0.75313,11.32683 -3.19103,40.31627 -4.05152,54.93665c-0.02714,0.46113 -0.376,0.53164 -0.40136,0.96322c-0.26615,4.52972 -0.43114,7.37649 -0.43114,7.37649l-8.79209,-0.82005c0,0 -0.15533,-3.25537 -0.35332,-6.55461c-0.03829,-0.63799 -0.28518,-0.96711 -0.30665,-1.61396c-0.31026,-9.34722 -1.17878,-47.22801 -1.17878,-47.22801c0,0 0.36568,-19.32919 2.18023,-27.57383c2.73778,-12.43949 4.66162,-17.20488 4.66162,-17.20488l22.20625,-8.82972l4.94324,-2.78532c0,0 16.86077,7.20604 21.54073,7.20604c6.09388,0 11.87366,2.80783 11.87366,2.80783l-10.66977,79.85516c0,0 -10.2744,14.69005 -11.85658,14.69005c-7.96703,0 -27.1288,-2.96523 -27.1288,-2.96523c0,0 0.61154,-9.82468 1.14845,-17.62266c0.3103,-4.50672 0.69459,-8.33651 0.66604,-9.20162z" fill="#c9cce9" stroke="none" stroke-width="0" stroke-linecap="butt"/><path d="M238.15063,230.718c-0.00368,-0.25734 -0.00868,-28.85989 -0.01487,-29.27793c-0.12269,-8.28442 -0.18613,-31.86538 -0.19461,-52.43859c-0.00849,-20.57321 0.16555,-16.17617 0.16625,-16.29961" data-paper-data="{&quot;index&quot;:null}" fill="none" stroke="#aaadc9" stroke-width="0.5" stroke-linecap="round"/><path d="M213.99666,180.6644v-22.19374h17.03245v22.34925l-2.31828,1.83536h-12.32423z" fill="none" stroke="#aaadc9" stroke-width="0.5" stroke-linecap="butt"/><path d="M219.74788,182.58154l0.14747,-17.6183" fill="none" stroke="#aaadc9" stroke-width="0.5" stroke-linecap="round"/><path d="M225.86776,164.95922l-0.14746,17.62232" fill="none" stroke="#aaadc9" stroke-width="0.5" stroke-linecap="round"/><path d="M230.96342,163.09712l-2.25237,1.87669l-12.32434,-0.02506l-2.3123,-1.77789" fill="none" stroke="#aaadc9" stroke-width="0.5" stroke-linecap="round"/><path d="M247.0427,180.6644v-22.19374h17.03245v22.34925l-2.31828,1.83536h-12.32423z" fill="none" stroke="#aaadc9" stroke-width="0.5" stroke-linecap="butt"/><path d="M252.94139,164.96324l-0.14747,17.6183" fill="none" stroke="#aaadc9" stroke-width="0.5" stroke-linecap="round"/><path d="M258.76633,182.58154l0.14747,-17.62232" fill="none" stroke="#aaadc9" stroke-width="0.5" stroke-linecap="round"/><path d="M264.00946,163.09712l-2.25237,1.87669l-12.32434,-0.02506l-2.3123,-1.77789" fill="none" stroke="#aaadc9" stroke-width="0.5" stroke-linecap="round"/><path d="M222.79332,161.20772c0.83998,0 1.52091,0.68496 1.52091,1.52991c0,0.84495 -0.68093,1.52991 -1.52091,1.52991c-0.83998,0 -1.52091,-0.68496 -1.52091,-1.52991c0,-0.84495 0.68093,-1.52991 1.52091,-1.52991z" fill="#c9cce9" stroke="#b1b5cd" stroke-width="0.5" stroke-linecap="butt"/><path d="M222.78432,163.16961c0,-0.24852 0.20145,-0.44998 0.44997,-0.44998c0.24852,0 0.44998,0.20146 0.44998,0.44998c0,0.24852 -0.20146,0.44997 -0.44998,0.44997c-0.24852,0 -0.44997,-0.20146 -0.44997,-0.44997z" fill="#000000" stroke="#000000" stroke-width="0" stroke-linecap="butt"/><path d="M221.90237,163.1696c0,-0.24852 0.20146,-0.44997 0.44998,-0.44997c0.24852,0 0.44997,0.20146 0.44997,0.44997c0,0.24852 -0.20145,0.44998 -0.44997,0.44998c-0.24852,0 -0.44998,-0.20146 -0.44998,-0.44998z" fill="#000000" stroke="#000000" stroke-width="0" stroke-linecap="butt"/><path d="M222.76631,162.34165c0,-0.24852 0.20146,-0.44997 0.44998,-0.44997c0.24852,0 0.44997,0.20145 0.44997,0.44997c0,0.24852 -0.20145,0.44998 -0.44997,0.44998c-0.24852,0 -0.44998,-0.20146 -0.44998,-0.44998z" fill="#000000" stroke="#000000" stroke-width="0" stroke-linecap="butt"/><path d="M221.90237,162.32366c0,-0.24852 0.20146,-0.44998 0.44998,-0.44998c0.24852,0 0.44997,0.20146 0.44997,0.44998c0,0.24852 -0.20145,0.44997 -0.44997,0.44997c-0.24852,0 -0.44998,-0.20146 -0.44998,-0.44997z" fill="#000000" stroke="#000000" stroke-width="0" stroke-linecap="butt"/><path d="M256.03374,161.30492c0.83998,0 1.52091,0.68495 1.52091,1.5299c0,0.84495 -0.68093,1.52991 -1.52091,1.52991c-0.83998,0 -1.52091,-0.68496 -1.52091,-1.52991c0,-0.84495 0.68093,-1.5299 1.52091,-1.5299z" fill="#c9cce9" stroke="#b1b5cd" stroke-width="0.5" stroke-linecap="butt"/><path d="M256.02474,163.26681c0,-0.24852 0.20145,-0.44997 0.44997,-0.44997c0.24852,0 0.44998,0.20146 0.44998,0.44997c0,0.24852 -0.20146,0.44998 -0.44998,0.44998c-0.24852,0 -0.44997,-0.20146 -0.44997,-0.44998z" fill="#000000" stroke="#000000" stroke-width="0" stroke-linecap="butt"/><path d="M255.14279,163.26679c0,-0.24852 0.20146,-0.44997 0.44998,-0.44997c0.24852,0 0.44997,0.20146 0.44997,0.44997c0,0.24852 -0.20145,0.44998 -0.44997,0.44998c-0.24852,0 -0.44998,-0.20146 -0.44998,-0.44998z" fill="#000000" stroke="#000000" stroke-width="0" stroke-linecap="butt"/><path d="M256.00674,162.43885c0,-0.24852 0.20146,-0.44997 0.44998,-0.44997c0.24852,0 0.44997,0.20146 0.44997,0.44997c0,0.24852 -0.20145,0.44997 -0.44997,0.44997c-0.24852,0 -0.44998,-0.20146 -0.44998,-0.44997z" fill="#000000" stroke="#000000" stroke-width="0" stroke-linecap="butt"/><path d="M255.14279,162.42085c0,-0.24852 0.20146,-0.44998 0.44998,-0.44998c0.24852,0 0.44997,0.20146 0.44997,0.44998c0,0.24852 -0.20145,0.44997 -0.44997,0.44997c-0.24852,0 -0.44998,-0.20146 -0.44998,-0.44997z" fill="#000000" stroke="#000000" stroke-width="0" stroke-linecap="butt"/><path d="M210.58328,170.45218c0,0 0.26217,2.93837 0.01446,7.80514c-0.33906,6.66145 -1.41821,16.58634 -2.25952,24.33312c-0.93632,8.62165 -1.10445,20.69904 -1.68391,28.13563c-0.01947,0.24995 -0.32063,0.38308 -0.33935,0.62479c-0.35588,4.59513 -0.34754,7.21125 -0.34754,7.21125l-9.11867,-0.91972c0,0 0.07706,-2.68695 -0.10192,-6.81135c-0.00885,-0.20392 -0.29983,-0.41121 -0.30881,-0.62172c-0.24448,-5.72885 -0.53344,-13.83614 -0.57899,-21.00311c-0.07803,-12.27779 -0.68558,-26.59844 -0.68558,-26.59844c0,0 -0.30571,-17.52435 2.82927,-31.08083c2.74068,-11.85138 3.81016,-14.02457 3.81411,-14.0089c0.6028,2.39399 4.44639,11.52682 6.32972,20.32053c1.65295,7.71803 5.33562,28.15974 6.49139,39.61587c0.24634,2.44183 -0.19212,9.00109 -0.56798,15.41678c-0.35088,5.98925 -0.61264,11.85338 -1.15226,14.12581c-0.94499,3.97958 24.53858,7.82539 25.55733,5.9233c0.78188,-1.45984 1.38693,-2.16759 1.38693,-2.16759" fill="none" stroke="#b1b5cd" stroke-width="0.5" stroke-linecap="round"/><g><g fill="#0d1c55" stroke="none" stroke-width="0" stroke-linecap="butt" font-family="&quot;Helvetica Neue&quot;, Helvetica, Arial, sans-serif" font-weight="400" font-size="16" text-anchor="start"/><path d="M224.96442,128.03342c0,0 1.32745,-2.46887 2.06394,-3.58028c0.68315,-1.03092 2.20703,-2.86488 2.20703,-2.86488c0,0 1.38511,1.77169 3.94045,3.73858c2.19103,1.68647 5.47769,3.60852 6.82732,3.63869c1.60985,0.13201 5.12482,-2.20352 7.71033,-4.40231c1.72392,-1.46607 3.05609,-3.08592 3.05609,-3.08592c0,0 1.52425,1.9456 2.2329,3.01215c0.74186,1.11653 2.12322,3.54398 2.12322,3.54398l-9.34926,10.73389c0,0 -1.95794,-3.60628 -2.91878,-5.23024c-0.91338,-1.54373 -2.71108,-4.28503 -2.71108,-4.28503c0,0 -2.02776,2.50885 -2.99447,4.06275c-1.00857,1.62119 -2.93671,5.47108 -2.93671,5.47108z" fill="#c9cce9" stroke="none" stroke-width="0" stroke-linecap="butt"/><g fill="none" stroke="#aaadc9" stroke-width="0.5"><path d="M234.2984,138.88879l-9.56076,-10.73425c0,0 1.57318,-2.65083 2.36332,-3.81382c0.72542,-1.06774 2.19998,-2.90282 2.19998,-2.90282c0,0 2.13628,2.46892 4.02236,4.0338c1.75299,1.45446 6.69432,3.70554 6.69432,3.70554c0,0 -1.88424,2.49497 -2.76707,3.99406c-1.00715,1.7102 -2.95215,5.71749 -2.95215,5.71749z" stroke-linecap="butt"/><path d="M224.50663,128.31368l-22.56387,9.05355" stroke-linecap="round"/><path d="M227.57187,131.54487l-24.12398,9.73334" stroke-linecap="round"/></g><g data-paper-data="{&quot;index&quot;:null}" fill="none" stroke="#aaadc9" stroke-width="0.5"><path d="M242.77376,133.20298c-0.88283,-1.49909 -2.76707,-3.99406 -2.76707,-3.99406c0,0 4.94133,-2.25108 6.69432,-3.70554c1.88608,-1.56488 4.02236,-4.0338 4.02236,-4.0338c0,0 1.47455,1.83508 2.19997,2.90282c0.79014,1.16299 2.36332,3.81382 2.36332,3.81382l-9.56076,10.73425c0,0 -1.945,-4.00728 -2.95215,-5.71748z" stroke-linecap="butt"/><path d="M278.08155,137.39891l-22.56387,-9.05355" stroke-linecap="round"/><path d="M252.45243,131.57656l24.12399,9.73333" stroke-linecap="round"/></g></g></g></g></g></svg>