<svg version="1.1" xmlns="http://www.w3.org/2000/svg" xmlns:xlink="http://www.w3.org/1999/xlink" width="156.59737" height="189.88815" viewBox="0,0,156.59737,189.88815"><g transform="translate(-161.70131,-85.05593)"><g data-paper-data="{&quot;isPaintingLayer&quot;:true}" fill="#0d1c55" fill-rule="nonzero" stroke="none" stroke-width="0" stroke-linecap="butt" stroke-linejoin="miter" stroke-miterlimit="10" stroke-dasharray="" stroke-dashoffset="0" style="mix-blend-mode: normal"><g><path d="M166.34756,274.61074c0,0 -5.17631,-70.27673 -4.60172,-82.88724c0.55398,-12.15808 3.30727,-41.18413 8.96621,-62.67784c2.39585,-9.0999 4.88685,-16.32727 6.18979,-22.30203c3.35543,-15.38668 2.90743,-21.35436 2.90743,-21.35436c0,0 45.56193,3.82154 65.10847,3.60559c15.414,-0.17029 42.57542,6.02202 42.57542,6.02202l16.92975,179.26054z"/><path d="M172.14507,274.22184l20.37037,-179.53831c0,0 27.16142,-6.19231 42.57542,-6.02202c19.54654,0.21595 65.10847,-3.60558 65.10847,-3.60558c0,0 -0.448,5.96768 2.90743,21.35437c1.30294,5.97476 3.79393,13.20213 6.18979,22.30203c5.65895,21.49371 8.41224,50.51976 8.96622,62.67784c0.57459,12.61051 -5.93506,83.55391 -5.93506,83.55391z" data-paper-data="{&quot;index&quot;:null}"/></g></g></g></svg>