<svg version="1.1" xmlns="http://www.w3.org/2000/svg" xmlns:xlink="http://www.w3.org/1999/xlink" width="156.91796" height="246.9925" viewBox="0,0,156.91796,246.9925"><g transform="translate(-161.54102,-56.50375)"><g data-paper-data="{&quot;isPaintingLayer&quot;:true}" fill="#0d1c55" fill-rule="nonzero" stroke="none" stroke-width="0" stroke-linecap="butt" stroke-linejoin="miter" stroke-miterlimit="10" stroke-dasharray="" stroke-dashoffset="0" style="mix-blend-mode: normal"><g><path d="M162.00993,193.72524c0,0 -0.84298,-17.9434 -0.26839,-30.55391c0.55398,-12.15808 3.30727,-41.18413 8.96621,-62.67784c2.39585,-9.0999 4.88685,-16.32727 6.18979,-22.30203c3.35543,-15.38668 2.90743,-21.35436 2.90743,-21.35436c0,0 45.56193,3.82154 65.10847,3.60559c15.414,-0.17029 42.57542,6.02202 42.57542,6.02202l-36.2963,109.20498l-11.42209,-3.42592l-4.35186,21.48148l-9.11864,109.4l-54.47153,0.371z"/><path d="M244.58139,193.39189l-4.35186,-21.48148l-11.42209,3.42592l-36.2963,-109.20498c0,0 27.16142,-6.19231 42.57542,-6.02202c19.54654,0.21595 65.10847,-3.60558 65.10847,-3.60558c0,0 -0.448,5.96768 2.90743,21.35437c1.30294,5.97476 3.79393,13.20213 6.18979,22.30203c5.65895,21.49371 8.41224,50.51976 8.96622,62.67784c0.57459,12.61051 -0.26839,30.55391 -0.26839,30.55391l-10.49011,110l-53.43298,0.04988z" data-paper-data="{&quot;index&quot;:null}"/></g></g></g></svg>